<svg width="29" height="46" viewBox="0 0 29 46" fill="none" xmlns="http://www.w3.org/2000/svg">
<path fill-rule="evenodd" clip-rule="evenodd" d="M2.89822 0.2529C-0.693627 1.73036 -0.992022 8.65383 2.25572 15.1645C3.69888 18.0576 6.25964 21.3891 8.13063 22.8085C9.7477 24.035 10.283 25.2198 9.83265 26.5765C9.56947 27.3702 9.56452 27.7523 9.81504 28.0014C10.0032 28.1885 10.1641 28.6944 10.1721 29.1251C10.1802 29.556 10.4236 30.3832 10.7127 30.9637C11.1624 31.8668 11.6175 32.1651 13.8641 33.0285C17.1038 34.2734 17.7466 34.9756 19.4165 39.094C21.6581 44.6218 22.57 45.7048 25.1935 45.9555C26.3762 46.0685 26.7895 45.9803 27.1933 45.5285C27.9584 44.6734 29 40.9677 29 39.1017C29 36.724 28.279 34.9252 25.9052 31.3796C23.7617 28.1787 23.131 26.477 23.131 23.8959C23.131 22.889 23.0006 22.6255 22.3887 22.3942C21.9806 22.2397 21.5553 21.9669 21.4438 21.7875C21.3323 21.6081 20.902 21.4613 20.4871 21.4613C20.0723 21.4613 19.7331 21.3323 19.7331 21.1747C19.7331 21.0172 19.4622 20.8028 19.1311 20.6983C18.3721 20.4587 16.6441 18.8713 16.6441 18.4133C16.6441 18.2241 16.3074 17.9167 15.8957 17.7302C15.4839 17.5438 15.0706 17.0882 14.9773 16.7181C14.8837 16.348 14.4562 15.858 14.0268 15.6295C13.5975 15.4013 13.2463 14.9958 13.2463 14.7289C13.2463 14.462 12.8376 13.8286 12.3381 13.3218C9.63248 10.5757 9.23061 10.0871 9.23061 9.5403C9.23061 9.21164 9.01098 8.76164 8.74255 8.53987C8.44045 8.29076 8.31071 7.84353 8.40215 7.36773C8.48524 6.93586 8.2928 6.12188 7.96351 5.51062C7.64103 4.91227 7.37723 4.04975 7.37723 3.59361C7.37723 2.23626 6.83728 1.22661 5.76324 0.575423C4.69199 -0.0739208 3.9077 -0.162385 2.89822 0.2529ZM5.50747 1.11173C6.21052 1.75708 6.56483 2.52161 7.00964 4.35231L7.5916 6.74849L6.95249 7.19357C6.14164 7.75845 5.09046 7.75722 3.19353 7.18958C2.36723 6.94231 1.65862 6.77245 1.61877 6.81238C1.57862 6.85231 2.03795 7.22029 2.63968 7.63005C3.68807 8.34451 6.0258 8.64461 7.36209 8.2367C7.65245 8.14793 7.92984 8.4511 8.14947 9.09645C8.33604 9.64474 8.91831 10.5432 9.44344 11.093C9.96825 11.6428 10.4826 12.3739 10.586 12.7176C10.6895 13.061 11.1915 13.5872 11.7015 13.8867C12.2112 14.1861 12.6285 14.6067 12.6285 14.8211C12.6285 15.0355 12.976 15.5355 13.4007 15.9324C13.8254 16.3292 14.173 16.9036 14.173 17.2086C14.173 17.5444 14.4778 17.8399 14.9452 17.9563C15.4323 18.0779 15.7174 18.366 15.7174 18.7368C15.7174 19.0642 16.0566 19.478 16.4838 19.6715C16.9051 19.8625 17.3314 20.2738 17.4309 20.5856C17.5307 20.8977 17.9403 21.2346 18.3412 21.3348C18.7425 21.4349 19.1459 21.7117 19.2376 21.9497C19.3297 22.1881 19.6889 22.3828 20.0364 22.3828C20.3839 22.3828 20.9097 22.5109 21.2047 22.6676C21.4997 22.8242 21.9723 23.0226 22.2549 23.1083C22.6577 23.2309 22.734 23.5215 22.608 24.4549C22.3312 26.5083 23.2792 29.3484 25.1536 32.079C28.0186 36.2537 28.6596 39.0557 27.6297 42.9032C27.0314 45.1387 26.6959 45.4778 25.3278 45.2299C23.0293 44.8137 22.2256 43.7986 20.0333 38.5439C19.4773 37.2118 18.6127 35.6575 18.112 35.0902C17.3367 34.212 14.055 32.3666 12.2424 31.7891C11.9449 31.6945 11.7018 31.4745 11.7018 31.3001C11.7018 31.1259 11.9449 30.9779 12.2424 30.9711C12.6279 30.9622 12.5392 30.8274 11.9335 30.5005C11.4506 30.2401 11.084 29.7815 11.084 29.4377C11.084 28.9933 11.3089 28.8222 11.9335 28.7915C12.7675 28.7503 12.769 28.7469 12.0107 28.6084C10.6555 28.3605 10.385 27.924 10.5978 26.3296L10.7918 24.8739L8.45744 22.3229C3.06904 16.4349 0.309668 10.5721 0.656559 5.74898C0.827379 3.37706 1.52549 1.97271 3.03785 0.959069C4.33861 0.0876463 4.39576 0.0910256 5.50747 1.11173ZM2.12598 10.5162C2.12598 10.8863 3.98616 11.6321 4.90883 11.6321C6.21547 11.6321 5.82101 11.1434 4.32224 10.9053C3.65348 10.7988 2.88618 10.6277 2.6162 10.5248C2.34653 10.4219 2.12598 10.4182 2.12598 10.5162ZM4.28826 14.7037C4.5431 14.8674 5.23812 15.0014 5.83274 15.0014C6.42737 15.0014 7.12239 14.8674 7.37723 14.7037C7.7025 14.4948 7.24162 14.4061 5.83274 14.4061C4.42387 14.4061 3.96299 14.4948 4.28826 14.7037ZM7.99502 17.2351C6.4561 17.94 6.76623 18.3307 8.43087 17.7843C9.57534 17.4086 10.5799 16.5255 9.80886 16.5725C9.57595 16.5869 8.75954 16.8849 7.99502 17.2351ZM10.4662 19.9255C9.87157 20.2493 9.56576 20.5199 9.78662 20.5269C10.2327 20.5414 12.0107 19.6859 12.0107 19.4568C12.0107 19.1929 11.5622 19.329 10.4662 19.9255ZM12.1651 21.9399C11.5893 22.4261 11.4818 22.6064 11.8816 22.4157C12.4558 22.142 13.4971 21.1517 13.2067 21.1557C13.1437 21.1566 12.6748 21.5092 12.1651 21.9399ZM14.004 23.3418C13.3324 24.0384 13.0609 24.4617 13.4007 24.2826C14.055 23.9377 15.7174 22.4553 15.7174 22.2169C15.7174 21.8029 15.0925 22.2133 14.004 23.3418ZM15.841 24.6558C15.2634 25.2302 14.7963 25.956 14.8034 26.2684C14.8133 26.715 15.0162 26.6063 15.7514 25.7616C17.5958 23.6425 17.6601 22.8469 15.841 24.6558ZM17.7111 26.2991C16.4996 27.6107 16.1925 28.7482 17.3391 27.6765C18.0959 26.9691 19.2654 25.1473 18.9627 25.1473C18.8592 25.1473 18.2961 25.6658 17.7111 26.2991ZM24.179 34.3622C24.6504 35.8366 24.9964 37.1509 25.271 38.5089L25.5814 40.0447L25.4412 38.1185C25.359 36.9848 25.0402 35.7211 24.6665 35.0469C24.3174 34.4169 24.0981 34.1088 24.179 34.3622ZM26.4266 36.4282C26.1758 36.8318 26.4834 37.741 26.8708 37.741C27.1923 37.741 27.192 37.5057 26.8692 36.6862C26.7234 36.3161 26.5566 36.219 26.4266 36.4282ZM26.8377 39.087C26.8377 39.3404 26.9767 39.6331 27.1466 39.7376C27.3165 39.842 27.4555 39.72 27.4555 39.4666C27.4555 39.2132 27.3165 38.9205 27.1466 38.8161C26.9767 38.7116 26.8377 38.8336 26.8377 39.087ZM26.9415 41.6011C26.8393 41.8659 26.9131 42.2391 27.1055 42.4305C27.3662 42.6897 27.4555 42.5668 27.4555 41.9491C27.4555 41.0249 27.2242 40.8685 26.9415 41.6011Z" fill="black"/>
</svg>
