<svg width="50" height="44" viewBox="0 0 50 44" fill="none" xmlns="http://www.w3.org/2000/svg">
<path fill-rule="evenodd" clip-rule="evenodd" d="M32.9928 0.28132C31.5043 0.569723 30.8172 1.15656 28.7544 3.89989C28.335 4.45798 26.9445 5.47023 25.6645 6.1493C24.2541 6.89754 22.9248 7.90979 22.29 8.71886C19.6142 12.1292 19.3789 12.284 16.8679 12.284C7.66712 12.284 1.40661 17.5143 0.158745 26.2439C-0.768714 32.7318 2.44694 39.4546 7.73531 42.083C9.66967 43.0448 10.2013 43.1594 12.5957 43.132C14.0746 43.1153 15.9547 42.8891 16.7739 42.6297C18.2121 42.1739 18.3263 42.1913 20.0839 43.1277C21.7127 43.9959 22.1483 44.0825 24.2214 43.9505C29.3545 43.624 32.7668 40.0609 33.7843 33.9646C34.1722 31.6404 34.2443 31.5074 35.4942 30.8069C37.3011 29.7943 38.4864 28.5531 39.6711 26.4341C40.3986 25.1324 41.5396 23.929 43.7414 22.1411C48.6481 18.1566 50.0141 15.847 49.9999 11.5594C49.9926 9.35983 49.8407 8.68778 48.9281 6.816C47.7163 4.33132 46.3308 3.06944 43.2032 1.60236C40.0305 0.114228 36.3257 -0.36533 32.9928 0.28132ZM40.0454 1.42023C44.0025 2.46088 46.9948 4.55122 48.2377 7.14384C49.3594 9.48281 49.319 13.212 48.1463 15.6265C47.2976 17.3733 43.4703 21.6372 43.0929 21.2559C42.995 21.1569 43.7314 19.9626 44.7301 18.6014C46.4777 16.2197 47.4664 14.2891 46.9388 14.2891C46.8001 14.2891 46.4529 14.778 46.1673 15.3752C45.8816 15.9724 44.6893 17.6212 43.5173 19.0385C42.3455 20.4561 40.9653 22.4111 40.4506 23.383C38.9568 26.2028 35.7229 29.9611 34.7693 29.9861C34.3466 29.9972 33.9971 28.9304 33.9905 27.6081C33.9832 26.2011 32.7578 22.5929 31.8135 21.1974C31.3375 20.4939 30.8847 19.9819 30.8076 20.0601C30.7305 20.138 31.0356 21.0426 31.4858 22.0703C33.7753 27.2976 33.3228 34.9214 30.4769 39.0676C28.2764 42.2732 24.2151 43.4432 20.1325 42.0469C18.1002 41.3518 17.9499 41.3458 15.6525 41.8618C13.7701 42.2849 12.9449 42.321 11.6861 42.0362C7.08754 40.9956 3.79013 37.8572 2.19604 33.0035C1.60256 31.1966 1.50293 30.2411 1.60223 27.3223C1.71245 24.0994 1.82003 23.6089 2.92126 21.307C5.61162 15.684 9.81034 13.3791 16.7315 13.726C18.6662 13.8229 20.6962 13.99 21.2424 14.0969L22.2354 14.2917L21.1464 13.7828L20.0571 13.2735L21.1464 11.8953C23.4045 9.038 24.9439 7.59031 26.8684 6.5149C28.336 5.6948 29.1635 4.93353 30.044 3.59311C30.7066 2.5852 31.6616 1.59668 32.1968 1.36609C33.5291 0.791958 37.7675 0.82103 40.0454 1.42023ZM37.0774 2.73792C35.0387 3.38157 33.7942 4.41387 31.8393 7.08268C30.8738 8.40071 29.2886 10.3577 28.3162 11.4318C26.777 13.1325 26.6794 13.3166 27.5611 12.8561C28.9672 12.1219 30.3018 10.7895 31.9833 8.44081C34.667 4.69158 35.9827 3.66329 39.2818 2.73659C40.764 2.32019 40.7657 2.31819 39.6128 2.3105C38.9756 2.30649 37.8347 2.49865 37.0774 2.73792ZM27.3718 8.59387C23.9377 9.79059 21.3688 13.6103 23.8076 13.8934C24.3084 13.9515 24.7179 13.8389 24.7179 13.6428C24.7179 13.4469 24.4944 13.2865 24.2214 13.2865C23.9483 13.2865 23.7249 13.0726 23.7249 12.811C23.7249 11.8809 25.4613 10.2738 27.5568 9.26391C29.5051 8.32518 30.0814 7.92216 29.4346 7.95056C29.2982 7.95658 28.3698 8.24598 27.3718 8.59387ZM39.4284 14.6055C39.9574 17.7469 39.969 19.2898 39.4814 21.6185C39.1954 22.9846 39.0316 24.1733 39.1176 24.2602C39.2034 24.3471 39.5893 23.6974 39.9753 22.8168C41.246 19.9164 41.1457 15.8404 39.7614 14.1116C39.26 13.4857 39.2438 13.5098 39.4284 14.6055ZM8.2851 20.1647C7.9541 20.675 7.62211 22.1441 7.47349 23.7572C7.33513 25.2587 6.93826 27.5396 6.59171 28.8262C6.04126 30.8687 5.92706 31.0595 5.69205 30.33C5.31074 29.1467 5.40309 24.9987 5.83637 23.8505C6.35571 22.4743 6.01014 22.3771 5.29618 23.6988C4.83112 24.5593 4.6931 25.5451 4.69541 27.9907C4.69806 30.9382 4.78876 31.3723 5.96182 34.0562C6.77707 35.922 7.75285 37.5033 8.71374 38.5156C10.376 40.2674 11.0069 40.3335 9.7127 38.6205C7.34672 35.4885 6.71484 32.4721 7.637 28.7072C7.89088 27.6699 8.19308 26.4013 8.3086 25.8883C8.66608 24.2986 9.09505 25.2113 8.78292 26.8979C8.5029 28.4115 8.59889 29.2954 9.49953 33.5048C9.65676 34.24 9.87853 35.2927 9.99206 35.8441C10.1056 36.3955 10.4879 37.1474 10.8414 37.515C11.1952 37.8826 11.7937 38.5594 12.171 39.0189C12.7248 39.6929 12.8112 39.7253 12.6189 39.186C12.4878 38.8183 12.2107 37.3095 12.0029 35.8331C11.7387 33.9543 11.3796 32.8007 10.807 31.9899C10.0642 30.9386 9.99272 30.5375 10.0331 27.6565C10.0781 24.46 9.80107 23.6396 8.92392 24.3748C8.2937 24.9025 8.35957 21.5456 9.00403 20.2877C9.62564 19.0743 9.05632 18.9767 8.2851 20.1647ZM16.1119 20.1514C16.1119 20.2506 16.6524 21.8674 17.3128 23.7439C18.3389 26.6586 18.5358 27.6903 18.6659 30.8313C18.7615 33.1419 18.6444 35.5935 18.3498 37.4315C18.0923 39.0399 17.9867 40.3556 18.1151 40.3556C19.0485 40.3556 19.8184 29.6035 19.1207 26.3101C18.6917 24.2846 16.8358 19.9702 16.3939 19.9702C16.2387 19.9702 16.1119 20.0518 16.1119 20.1514ZM12.1399 29.7863C12.1399 30.1001 12.4223 30.9155 12.7675 31.5983C13.8072 33.6562 14.1921 35.549 13.8356 36.852C13.4924 38.1072 13.88 38.4364 14.4453 37.37C15.0997 36.1348 14.8167 34.3082 13.593 31.873C12.2124 29.1253 12.1399 29.021 12.1399 29.7863Z" fill="black"/>
</svg>
