<svg width="61" height="47" viewBox="0 0 61 47" fill="none" xmlns="http://www.w3.org/2000/svg">
<path fill-rule="evenodd" clip-rule="evenodd" d="M38.1548 0.392487C34.0432 0.843936 31.9003 1.46656 30.6978 2.55881C29.7541 3.41624 29.6864 3.73052 29.6864 7.25198C29.6864 9.32817 29.5416 11.0264 29.365 11.0264C29.1884 11.0264 27.4189 10.6817 25.4332 10.2603C18.8501 8.86367 17.3447 8.83521 13.1101 10.0263C6.31158 11.9388 1.56726 15.1211 0.715584 18.3397C-0.436925 22.6973 -0.165937 31.8883 1.30273 38.2636C2.10359 41.7407 2.91495 42.4875 7.75968 44.2059C11.216 45.4318 19.1364 47 21.8729 47C25.3816 47 31.2244 43.8648 35.0578 39.9251C37.2079 37.7153 37.4547 37.1942 37.8838 33.9546C37.9483 33.4676 39.1153 33.3162 44.4097 33.1071C51.3836 32.8312 56.4514 32.2544 58.0091 31.5586C59.6331 30.8332 60.2617 29.2453 60.7368 24.6691C61.2913 19.3241 60.9215 9.5025 60.0787 7.18714C59.3705 5.2426 56.0203 2.05004 53.3656 0.79057C51.8361 0.0643782 50.9413 -0.0356382 46.3949 0.0090323C43.5262 0.0370996 39.8182 0.209852 38.1548 0.392487ZM54.4456 2.52323C55.217 3.09999 56.5401 4.39939 57.3853 5.41021C58.8201 7.12626 58.9403 7.47335 59.1899 10.62C59.5919 15.6888 59.5585 26.0333 59.1342 27.8273C58.929 28.697 58.4035 29.6924 57.9668 30.0391C57.1026 30.7253 51.603 31.3906 43.0862 31.8397L38.154 32.0994L38.2342 24.8245C38.3395 15.2599 37.9181 14.2957 32.8116 12.4152L30.8962 11.7095V8.23117C30.8962 4.44129 31.2676 2.9731 32.3277 2.57423C33.0701 2.29514 44.4879 1.21276 48.4378 1.04713C51.4977 0.919045 52.693 1.21276 54.4456 2.52323ZM38.2322 3.58544C36.1381 4.04479 35.6449 4.93464 36.9224 5.94902C38.056 6.84875 40.0198 6.8788 44.0698 6.05852C45.8526 5.6976 47.7765 5.54659 48.6822 5.69681C50.6941 6.03006 53.0753 5.28252 53.0753 4.31756C53.0753 3.92304 52.7882 3.49215 52.4373 3.36011C51.3445 2.94898 46.5514 3.08181 46.8248 3.51547C46.9619 3.73289 48.2427 3.91078 49.6714 3.91078C51.1001 3.91078 52.2688 4.0693 52.2688 4.2634C52.2688 4.82672 50.311 5.15325 48.4963 4.89274C47.514 4.75162 45.7441 4.905 44.2036 5.26434C41.4808 5.89921 38.683 6.06129 37.583 5.64739C36.2099 5.13072 36.9962 4.34879 39.4654 3.77519C40.8518 3.4534 41.5321 3.19329 40.9776 3.19724C40.4231 3.20159 39.1875 3.37632 38.2322 3.58544ZM40.0674 4.14402C39.3682 4.82949 39.8993 5.09672 41.9619 5.09672C43.1689 5.09672 44.2682 4.91883 44.4053 4.70141C44.5452 4.47924 44.2246 4.3061 43.673 4.3061C43.133 4.3061 42.1684 4.20371 41.5292 4.0784C40.8901 3.95308 40.2324 3.98273 40.0674 4.14402ZM27.6701 11.9898C32.8403 13.1671 35.107 14.3479 35.9264 16.2904C36.6135 17.9195 37.12 28.0526 36.7531 32.8225L36.468 36.5242L33.9496 38.8961C31.2986 41.3933 26.9317 44.1545 24.2767 45.0128C20.2425 46.3169 5.77162 43.1904 3.51741 40.5275C2.0052 38.7415 1.42612 20.4776 2.79921 17.8851C3.54806 16.4715 5.08689 15.3492 9.92678 12.6871L13.7577 10.5801L18.3952 10.7568C21.4212 10.8723 24.6441 11.3004 27.6701 11.9898ZM12.7496 14.6989C11.3963 15.3678 11.22 16.7605 12.4096 17.3847C12.9149 17.6499 14.4231 18.0053 15.7611 18.1749C17.0987 18.3445 18.6908 18.6046 19.2989 18.7532C22.5173 19.5399 26.489 17.5827 26.4273 15.2409L26.3946 13.9913L25.8099 15.3037C25.1175 16.8577 22.3205 18.2595 20.2977 18.0662L19.0001 17.9424L20.4115 17.1878C22.0906 16.29 21.3664 15.8433 19.4836 16.6154C17.7907 17.3099 13.3589 17.3194 12.6689 16.63C12.237 16.1987 12.358 15.9378 13.3545 15.1496C14.6618 14.1158 14.3699 13.898 12.7496 14.6989ZM54.4274 17.2526C54.5359 17.6333 54.7375 18.3314 54.8758 18.805C55.0142 19.2782 54.8561 20.3009 54.525 21.0781C54.0004 22.3091 53.7451 22.4905 52.5378 22.4905C51.4223 22.4905 50.8546 22.1668 49.621 20.8286C48.656 19.7811 48.0249 19.3569 47.9144 19.681C47.8184 19.9637 47.1974 20.8006 46.5349 21.5406C44.0573 24.3066 40.6288 22.6581 41.1437 18.9485C41.3405 17.5313 41.2889 17.2835 40.8808 17.6835C40.6013 17.9575 40.3727 19.0774 40.3727 20.1728C40.3727 21.864 40.5429 22.3071 41.5042 23.1179C43.235 24.5774 45.4441 24.4347 47.0716 22.7574L48.3471 21.4433L49.3161 22.3233C52.7265 25.4218 57.3934 21.7916 55.4299 17.5677C54.9029 16.4331 54.125 16.1884 54.4274 17.2526ZM52.7599 20.9702C52.9692 21.5861 53.8713 21.6936 53.9032 21.1069C53.9149 20.8895 53.6217 20.6504 53.2519 20.5748C52.8313 20.4899 52.647 20.6377 52.7599 20.9702ZM42.9939 21.5023C42.9939 21.8648 43.189 22.0972 43.4274 22.0193C43.6657 21.9414 43.8609 21.7086 43.8609 21.5023C43.8609 21.2959 43.6657 21.0631 43.4274 20.9852C43.189 20.9073 42.9939 21.1397 42.9939 21.5023ZM32.8161 24.0718C32.685 24.3979 32.4705 25.5428 32.3394 26.616C32.0664 28.85 31.0195 31.1368 29.9888 31.7512C28.8899 32.4058 27.9362 31.5579 27.3922 29.4421C26.6688 26.6267 26.4325 26.4113 26.6446 28.7602C26.7499 29.9252 27.2092 31.4986 27.6649 32.256C28.6597 33.9088 28.3524 35.5501 26.6188 37.8398L25.5199 39.2914L26.8245 38.1054C27.6019 37.3986 28.3205 36.219 28.6028 35.1853C28.8795 34.1725 29.4638 33.2024 30.0074 32.8533C30.8663 32.3014 30.9845 32.3208 31.5446 33.1051C32.1773 33.9906 33.4903 34.2416 33.9206 33.5593C34.0577 33.3419 33.8186 33.164 33.3887 33.164C32.3132 33.164 31.5623 32.1623 31.8341 31.091C31.9587 30.6004 32.3523 29.063 32.7088 27.6743C33.3149 25.3155 33.3943 22.6325 32.8161 24.0718ZM8.02986 28.5499C6.87574 29.0385 5.80792 29.5587 5.6575 29.7066C5.2494 30.1067 8.32545 33.893 9.77274 34.7721C11.468 35.8019 13.2149 35.7332 15.4869 34.5476C16.5285 34.0041 17.6996 33.5593 18.0895 33.5593C18.4795 33.5593 18.7984 33.4779 18.7984 33.3779C18.7984 33.2783 18.0435 32.207 17.1209 30.9977C15.4748 28.8397 14.188 28.0981 12.9194 28.5752C12.5681 28.7072 11.8923 28.5487 11.4172 28.2226C10.3595 27.496 10.5663 27.4762 8.02986 28.5499ZM11.2241 29.2014C11.6249 29.8303 12.0076 29.9375 13.1903 29.7521C14.5138 29.5445 14.7643 29.6568 15.7208 30.8862C16.3043 31.6365 16.7822 32.3501 16.7822 32.4718C16.7822 32.594 15.9785 33.1553 14.9965 33.7194C12.3879 35.2181 11.3225 35.0769 9.25294 32.9592C8.29278 31.9773 7.51046 30.9542 7.51409 30.6862C7.52095 30.2102 9.8179 28.4202 10.4216 28.4202C10.5893 28.4202 10.9502 28.7717 11.2241 29.2014ZM29.767 28.8946C29.1867 29.4635 29.1279 30.3968 29.6723 30.3968C30.0316 30.3968 30.8962 29.1587 30.8962 28.644C30.8962 28.2601 30.2731 28.3985 29.767 28.8946ZM10.7333 31.5788C10.7333 32.1904 12.3185 32.8308 13.1738 32.5643C13.6126 32.4279 13.861 32.1421 13.7267 31.9287C13.592 31.7156 13.2718 31.614 13.0149 31.7029C12.758 31.7919 12.1395 31.7168 11.6406 31.5357C11.1055 31.3416 10.7333 31.3594 10.7333 31.5788Z" fill="black"/>
</svg>
