<svg width="100" height="66" viewBox="0 0 100 66" fill="none" xmlns="http://www.w3.org/2000/svg">
<path fill-rule="evenodd" clip-rule="evenodd" d="M0.612832 0.976488C-0.725882 2.5297 0.141792 7.84248 3.08725 16.1254C5.3052 22.3633 5.49159 23.3969 4.62681 24.667C2.94781 27.1349 1.34613 33.3818 1.35335 37.4342C1.35841 40.0531 2.17695 43.5574 3.88195 48.2559C6.64752 55.878 6.96757 59.1799 5.31025 62.9993C4.1666 65.6348 4.2439 66.6587 5.4728 65.1472C6.56733 63.802 7.84824 59.7621 7.84824 57.658C7.84824 56.6272 6.67859 52.5268 5.24956 48.5453C2.9023 42.0083 2.68195 40.7681 2.97238 35.7426C3.25992 30.7637 5.09207 24.9334 6.35637 24.9744C6.58105 24.9821 8.00863 27.0361 9.52941 29.5395C13.1728 35.5374 20.5433 42.9793 25.3252 45.4876C30.6447 48.2782 39.3474 48.7408 45.9709 46.5838C50.3244 45.1669 50.5888 45.1565 52.8342 46.316C54.6151 47.2362 56.9696 47.5277 62.755 47.5451C69.2687 47.5639 70.8242 47.3385 73.7588 45.9466C80.1402 42.9209 88.4044 34.3132 92.0846 26.8608C92.7963 25.4196 93.7217 24.3498 94.1415 24.4848C95.8551 25.0343 97.6757 31.5552 97.6736 37.1337C97.6707 41.6939 97.2582 43.7424 95.3841 48.4841C93.9175 52.1977 93.0982 55.524 93.0982 57.7693C93.0982 61.2207 94.8242 66 96.0704 66C97.0024 66 96.8565 65.1194 95.65 63.4605C93.6827 60.7561 93.5599 56.9228 95.296 52.4245C96.1795 50.1354 97.5486 45.9251 98.339 43.0677C99.6033 38.4957 99.6733 37.3285 98.9241 33.3297C98.456 30.8312 97.3094 27.2691 96.3753 25.4133C94.7823 22.2492 94.744 21.8854 95.7562 19.5531C99.0108 12.0549 100.828 3.5202 99.6293 1.36392C98.5275 -0.617765 96.7308 -0.445958 93.2637 1.97185C89.2497 4.77153 84.4692 5.94287 72.0935 7.16013C61.4394 8.20766 55.0572 9.85338 51.7982 12.395C50.216 13.6283 50.1077 13.6185 47.6145 12.0347C43.3736 9.34005 39.0526 8.24731 28.4383 7.18447C14.3944 5.77872 11.4403 5.09636 7.38659 2.32103C3.53445 -0.315191 1.99056 -0.621938 0.612832 0.976488ZM13.1424 8.94427C15.0613 9.35396 21.3466 10.1657 27.1111 10.7486C39.1133 11.9624 44.0578 13.4599 47.5646 16.9434L50 19.3626L52.3798 17.0039C55.9003 13.5135 61.1143 11.9589 73.464 10.7145C85.0342 9.54942 90.8153 8.23827 94.0013 6.05556C95.9267 4.73675 95.9881 4.73537 95.9881 6.0027C95.9881 6.72262 95.0597 9.95215 93.924 13.1796C88.2932 29.1938 79.3802 40.2993 69.5765 43.5149C63.6805 45.4493 54.0783 43.9559 51.2405 40.6631C50.4075 39.6969 50.0752 39.7672 48.1664 41.3134C45.3279 43.613 43.2768 44.0929 36.3853 44.0707C31.7312 44.0554 29.9728 43.7312 27.3546 42.4062C22.6911 40.0461 15.9441 33.0702 12.2516 26.792C8.98756 21.242 4.25402 9.15712 4.24246 6.34492L4.23596 4.77014L6.94517 6.48473C8.4356 7.42792 11.2243 8.53528 13.1424 8.94427ZM12.9054 17.0199C12.9054 18.2483 14.4609 18.0347 14.9074 16.7451C15.0649 16.2902 14.6784 15.9188 14.0491 15.9188C13.4206 15.9188 12.9054 16.4147 12.9054 17.0199ZM85.8737 16.9621C85.8737 17.536 86.3613 18.0055 86.9573 18.0055C87.5534 18.0055 88.041 17.536 88.041 16.9621C88.041 16.3883 87.5534 15.9188 86.9573 15.9188C86.3613 15.9188 85.8737 16.3883 85.8737 16.9621ZM26.2709 20.5499C21.088 21.5981 21.4492 21.2385 22.6919 24.1057C25.2248 29.9533 31.6019 34.0037 38.2753 34.0037C42.7292 34.0037 43.9711 33.2156 43.9711 30.3888C43.9711 25.2081 33.1039 19.1678 26.2709 20.5499ZM66.4078 21.194C61.5796 22.453 58.296 24.7776 56.6611 28.0941C55.5333 30.3818 55.5225 30.7588 56.5419 32.2557C57.1581 33.1613 58.4015 34.0092 59.3053 34.1393C62.4458 34.5928 68.0369 33.3498 70.8119 31.5817C75.3915 28.6638 79.3954 22.3793 77.3848 21.2649C75.6877 20.3245 69.8842 20.287 66.4078 21.194ZM35.2771 25.8307C37.0211 26.6911 38.9515 28.1483 39.5663 29.0686L40.6839 30.7421L37.1887 30.363C33.7209 29.986 28.1638 26.9777 27.5323 25.1351C27.0353 23.6848 31.7955 24.1126 35.2771 25.8307ZM72.4316 25.2506C71.6897 27.1126 66.4381 29.9937 63.1329 30.3519C59.3551 30.7623 59.0654 30.1314 61.8519 27.5654C64.3235 25.2902 66.6743 24.3665 70.1378 24.3095C72.1694 24.2761 72.7285 24.5056 72.4316 25.2506Z" fill="black"/>
</svg>
