<svg width="36" height="49" viewBox="0 0 36 49" fill="none" xmlns="http://www.w3.org/2000/svg">
<path fill-rule="evenodd" clip-rule="evenodd" d="M15.884 0.230687C13.7647 0.74569 12.2181 1.6878 9.94524 3.84776C7.53855 6.13499 5.2543 9.35914 3.7512 12.5898C3.20991 13.7536 2.46388 15.1209 2.09354 15.6284C1.58036 16.3319 1.41275 17.1053 1.38766 18.8838C1.36959 20.1667 1.18125 21.629 0.969482 22.133C0.450273 23.3674 0.468673 24.7259 1.00227 24.555C1.23243 24.4814 1.4626 24.0664 1.51412 23.6327C1.68574 22.1873 1.9527 21.3002 2.1561 21.4985C2.26683 21.6063 2.55053 22.3924 2.78638 23.246L3.21526 24.7975L3.23935 23.007C3.25273 22.0223 3.01052 20.5294 2.70141 19.6898C1.95705 17.6685 2.45284 15.9656 4.29182 14.2289C5.14323 13.4251 5.46639 12.9212 5.19274 12.8245C4.28345 12.5038 8.17551 6.46249 11.0258 3.77125C13.096 1.81606 15.2909 0.84563 18.1107 0.638587C22.9512 0.283424 27.0179 1.85317 30.8789 5.56758C34.1273 8.69276 34.8295 10.421 34.8556 15.3569C34.8733 18.6595 34.7743 19.235 33.5856 22.7629C32.8764 24.8669 32.199 26.588 32.0802 26.588C31.7005 26.588 32.2254 21.9842 33.0082 18.4495C33.5569 15.9718 33.7094 14.4939 33.5636 13.0781C33.1882 9.43922 32.7995 9.03229 32.9621 12.4488C33.0965 15.2722 32.9912 16.2108 32.2006 19.2246C31.5443 21.727 31.3456 23.1021 31.5021 24.0553C31.6921 25.2106 31.6032 25.5075 30.834 26.2888C30.3463 26.7846 29.7618 27.1209 29.5357 27.0363C28.8402 26.7768 20.9911 30.374 20.9911 30.9522C20.9911 31.0205 21.6037 30.9424 22.3524 30.7787C23.7407 30.4752 26.6449 29.1239 28.602 27.8713C29.8274 27.0867 29.9084 27.1847 29.1737 28.5669C28.4484 29.9316 28.9251 30.4583 29.8565 29.3215L30.6086 28.4038L30.8568 29.5025C31.0853 30.5159 30.996 30.6895 29.709 31.7299C28.799 32.4653 28.3812 33.0307 28.5086 33.3546C28.6184 33.6323 28.3815 34.1857 27.9707 34.6112C27.3451 35.259 27.2932 35.4915 27.6198 36.1881C27.8302 36.6377 28.1523 37.0052 28.3363 37.0052C28.52 37.0052 28.9101 37.3617 29.2035 37.7973C29.6156 38.4093 29.6538 38.7404 29.3708 39.2547C29.1004 39.7466 29.1108 40.0855 29.4116 40.5539C29.7722 41.1155 29.6163 41.3662 28.0389 42.7588C24.1118 46.2261 20.4683 47.748 16.0945 47.748C12.9056 47.748 11.4242 47.165 10.7756 45.6542C10.5063 45.0269 10.2848 44.0327 10.2835 43.4451C10.2825 42.8575 9.98338 41.9372 9.61906 41.4C9.25475 40.8629 9.03261 40.1903 9.12528 39.9051C9.42938 38.9689 7.23947 36.7126 4.77222 35.4199C1.95404 33.9435 1.57099 33.1535 2.26215 30.2412C2.67933 28.4826 2.7168 28.4348 2.92889 29.3834C3.22329 30.6992 3.52605 31.1455 4.12488 31.1455C4.80601 31.1455 5.1439 30.0016 5.09238 27.8687C5.04119 25.7396 4.81738 25.2842 3.82614 25.2907C3.36079 25.294 3.23968 25.3864 3.49427 25.544C4.04359 25.8835 4.48953 30.1689 3.97568 30.1689C3.76625 30.1689 3.59497 29.8655 3.59497 29.4947C3.59497 29.1236 3.37651 28.6076 3.10955 28.3479C2.68535 27.9351 2.54886 28.0819 2.0273 29.5107C1.45022 31.0921 0.601819 31.8949 1.07386 30.4131C1.64358 28.6239 1.66399 28.2157 1.18292 28.2157C0.833658 28.2157 0.736976 27.9224 0.83299 27.1577C0.934356 26.3526 0.882835 26.2162 0.617543 26.588C0.0571855 27.3729 -0.218477 29.8437 0.20773 30.2584C0.414811 30.4599 0.58409 31.308 0.58409 32.1433C0.58409 34.1148 1.391 35.1087 4.04727 36.4076C7.25452 37.976 7.89283 38.5161 8.13637 39.8671C8.2558 40.5312 8.59336 41.4407 8.88642 41.8883C9.20524 42.3757 9.43072 43.4688 9.44878 44.6134C9.47521 46.3228 9.58795 46.6197 10.5173 47.4277C12.3048 48.9818 15.9516 49.4382 19.4991 48.5521C23.1356 47.6432 24.9739 46.5497 28.1132 43.4272C30.7531 40.8014 31.003 40.4485 30.5621 39.9745C30.2145 39.6008 30.1656 39.2821 30.3945 38.8843C30.7253 38.309 29.9646 36.3542 29.4099 36.3542C29.266 36.3542 28.8559 36.1455 28.4986 35.8903C27.873 35.443 27.8841 35.4134 28.8054 35.0709C29.6752 34.748 29.7418 34.6135 29.543 33.5819C29.343 32.5437 29.3922 32.4477 30.1241 32.4477C31.473 32.4477 32.1565 31.3903 31.9153 29.6777C31.7249 28.3273 31.7942 28.12 32.7031 27.3113C34.1905 25.989 35.7321 20.9197 35.9576 16.6122C36.1696 12.5527 35.6314 10.6222 33.3314 7.19365C31.5118 4.48158 29.1459 2.50783 26.0093 1.08555C24.1154 0.227106 23.4029 0.0884246 20.4893 0.0122484C18.6494 -0.0359314 16.5772 0.0623832 15.884 0.230687ZM10.894 4.36992C10.6197 4.68341 9.82681 5.96506 9.13231 7.21839C8.4378 8.47171 7.4964 10.1564 7.04075 10.9621L6.21175 12.427L7.5546 11.0292C8.34814 10.2033 9.33403 8.60454 9.96398 7.12268C10.5508 5.74304 11.1827 4.43112 11.3684 4.20715C11.8903 3.57821 11.4577 3.72665 10.894 4.36992ZM10.7197 9.84126C9.65285 10.8364 9.08145 11.507 9.44945 11.3313C10.1727 10.9862 13.2448 8.03224 12.8802 8.03224C12.7584 8.03224 11.7862 8.84641 10.7197 9.84126ZM20.1351 11.1232C19.7781 11.3912 17.7595 12.1471 15.6495 12.8033C9.34173 14.7657 6.51451 16.2134 7.12238 17.1701C7.58672 17.9016 10.0911 17.1887 14.5572 15.0535C17.0171 13.8776 19.3178 12.9153 19.6694 12.9153C20.2321 12.9153 20.2853 13.0862 20.1096 14.3314C19.8791 15.9699 20.3829 17.1473 21.315 17.1473C22.1433 17.1473 22.3337 16.4748 22.2524 13.8347C22.1674 11.0822 21.6602 11.2707 21.6602 14.0547C21.6602 15.1974 21.5087 16.2235 21.3233 16.3348C20.7248 16.6948 20.5777 15.5698 20.9992 13.8591C21.3401 12.4759 21.3317 12.1405 20.95 11.8957C20.5743 11.6552 20.6094 11.5116 21.1387 11.1187C21.6301 10.7541 21.6659 10.6366 21.2862 10.6366C21.0102 10.6366 20.4923 10.8556 20.1351 11.1232ZM18.7999 12.5423C18.3921 12.899 11.3553 15.5229 10.8411 15.5099C10.143 15.492 11.7304 14.7592 15.1367 13.527C18.643 12.2587 19.3375 12.0719 18.7999 12.5423ZM1.18192 25.9369C1.33346 26.9412 1.75131 27.2264 2.0166 26.5066C2.18956 26.0365 1.69075 24.9603 1.29934 24.9603C1.15381 24.9603 1.10096 25.3998 1.18192 25.9369ZM6.63227 25.7373C6.70989 25.8083 7.45056 26.0951 8.27855 26.3744L9.78399 26.8826L8.02765 26.8979C7.06149 26.9067 6.2713 27.0356 6.2713 27.185C6.2713 27.6304 12.38 28.5868 12.7741 28.2033C13.3321 27.6603 12.5259 26.7973 11.089 26.3988C9.69367 26.0118 6.39776 25.5228 6.63227 25.7373ZM26.8647 32.5203C26.2987 33.3065 26.1789 34.0754 26.6222 34.0754C26.7754 34.0754 27.0624 33.5627 27.2601 32.936C27.6776 31.612 27.587 31.5167 26.8647 32.5203ZM11.3731 34.9749C9.48692 35.2454 7.94401 35.5931 7.94401 35.7477C7.94401 36.5368 14.8209 35.6523 15.7552 34.7431C16.1938 34.3163 15.8338 34.3352 11.3731 34.9749ZM24.6433 35.5084C24.5667 35.5807 22.5842 35.8981 20.2384 36.2145C17.8923 36.5306 15.973 36.9112 15.973 37.0599C15.973 37.209 16.995 37.3308 18.2446 37.3308C20.6201 37.3308 23.7555 36.683 25.281 35.8769C26.0775 35.456 26.0996 35.4023 25.4797 35.3906C25.0963 35.3834 24.72 35.4365 24.6433 35.5084ZM22.6401 37.4737C18.4573 38.4412 18.0064 38.6717 20.6566 38.4871C22.8569 38.3341 25.852 37.5163 26.1959 36.9746C26.4365 36.5964 26.4275 36.5973 22.6401 37.4737ZM26.1491 38.4155C26.2562 38.7433 26.3438 39.3013 26.3438 39.6555C26.3438 40.0093 26.4944 40.2085 26.6784 40.0979C27.1638 39.8059 27.0892 39.174 26.4837 38.451C25.9996 37.8728 25.9711 37.8699 26.1491 38.4155ZM27.5147 40.204C26.9627 40.5299 25.382 41.2148 24.002 41.7265C20.8891 42.8809 20.3134 43.3321 22.3293 43.0375C24.2319 42.7592 26.9784 41.4987 28.0098 40.4306C28.9512 39.4553 28.8569 39.4123 27.5147 40.204ZM11.6236 42.2699C11.6243 42.7152 14.1906 43.2934 16.0878 43.2761C17.7963 43.2605 19.0665 42.8288 18.6269 42.4131C18.3777 42.1774 11.6233 42.0394 11.6236 42.2699ZM22.4966 44.9028C20.7152 45.6597 19.4345 45.9481 17.1439 46.1096C15.1584 46.2493 14.3391 46.4124 14.7386 46.5888C16.4136 47.3281 22.3186 46.0406 24.3366 44.4962C25.3954 43.686 25.3245 43.7016 22.4966 44.9028Z" fill="black"/>
</svg>
