<svg width="44" height="49" viewBox="0 0 44 49" fill="none" xmlns="http://www.w3.org/2000/svg">
<path fill-rule="evenodd" clip-rule="evenodd" d="M13.6805 0.382669C12.8028 0.607592 11.7689 1.10301 11.3832 1.48385C10.7234 2.13518 10.7152 2.2094 11.2411 2.7289C11.7669 3.24808 11.9239 3.23897 13.8681 2.57559C15.0056 2.18759 16.7148 1.7742 17.6669 1.65702L19.3979 1.44414L19.4028 2.86952C19.4107 5.07806 19.9402 5.5035 20.2162 3.52313C20.4671 1.72212 20.7958 1.52812 22.5086 2.17099C23.2617 2.45385 23.3543 2.66803 23.3543 4.12401V5.75967H21.5624C20.5769 5.75967 19.3748 5.9081 18.8911 6.08973C18.0201 6.41686 18.0128 6.44551 18.1279 9.18202L18.2439 11.9442H17.3567C16.8687 11.9442 16.4006 12.0543 16.3165 12.1884C16.2324 12.3225 17.9488 12.3798 20.1305 12.3156C22.9771 12.2317 24.0332 12.3007 23.8709 12.5598C23.7466 12.7587 22.7648 12.9208 21.6863 12.9208C18.8687 12.9208 19.2528 13.5587 22.1179 13.6375C25.62 13.7339 26.743 13.6264 27.0305 13.1675C27.2309 12.8472 27.3852 12.8644 27.739 13.2463C28.3895 13.9487 27.7977 46.6934 27.1218 47.3994C26.6154 47.9284 20.419 48.3004 18.0224 47.9453L16.5954 47.7341L16.5433 42.1269C16.5146 39.0431 16.3689 31.6128 16.2196 25.6154C15.9766 15.8607 15.9255 15.1742 15.7362 19.1053C15.6198 21.5222 15.6043 28.8949 15.7019 35.4892C15.907 49.3632 15.5097 48.0726 19.7797 48.7379C22.777 49.205 26.0239 49.0357 27.6849 48.3261L28.8831 47.8141L28.8389 30.4176C28.8033 16.4961 28.707 12.9168 28.3572 12.5005C28.1168 12.2147 27.3899 11.9358 26.742 11.8811L25.5643 11.7815L25.6335 8.74551C25.6981 5.9234 25.655 5.69685 25.0232 5.53377C24.4314 5.38111 24.3434 5.1041 24.3434 3.39781C24.3434 1.94997 24.4858 1.33412 24.8884 1.04377C25.1881 0.827308 25.3447 0.508965 25.2366 0.336448C24.9398 -0.137811 15.5654 -0.100054 13.6805 0.382669ZM19.5627 0.893385C17.3867 1.02456 14.8645 1.36569 13.9578 1.65181C12.0587 2.25106 11.5408 2.31258 11.9961 1.88487C12.9255 1.01187 15.4276 0.584156 19.3979 0.61866L23.5191 0.654791L19.5627 0.893385ZM24.7212 8.6892C24.6573 9.67385 24.5831 10.501 24.5564 10.527C24.53 10.553 23.2471 10.6263 21.7061 10.6898L18.9037 10.805L18.6831 9.02219C18.5618 8.04145 18.5106 7.16259 18.5693 7.06917C18.628 6.97543 20.0626 6.89893 21.7572 6.89893H24.838L24.7212 8.6892ZM37.2018 11.9485C35.5559 12.2349 34.7171 12.7603 33.9677 13.9744C32.7416 15.9613 32.4864 18.3586 32.9114 23.9062C33.1989 27.6579 33.2048 29.8095 32.9351 32.2521C32.735 34.0622 32.615 37.7193 32.6677 40.3783C32.7765 45.8494 32.8738 46.0577 35.667 46.8064C38.0699 47.4505 43.172 46.697 43.5841 45.6372C43.8604 44.9263 43.8802 36.927 43.6191 31.4745C43.4638 28.2351 43.5189 24.8378 43.7721 21.9831C44.0714 18.6141 44.0751 17.1946 43.7879 16.124C43.0088 13.2192 40.1852 11.429 37.2018 11.9485ZM40.6373 13.2303C41.2096 13.5792 42.0154 14.4584 42.4282 15.1833L43.1786 16.5016L42.3118 16.8268C41.8351 17.0058 40.6758 17.165 39.7355 17.181C38.7952 17.1966 37.2842 17.3235 36.3775 17.4628C35.0818 17.662 35.6367 17.7255 38.9686 17.7597L43.2086 17.8033L43.0477 20.1632C42.9594 21.461 42.6933 24.0735 42.4566 25.9686C42.0586 29.1517 42.0824 29.803 42.7678 34.5147C43.1757 37.3199 43.418 39.9001 43.3062 40.2481C43.0408 41.0726 42.3432 41.2679 38.5433 41.5797L35.3884 41.8389L39.4273 41.7656C42.088 41.7174 43.4648 41.8096 43.4625 42.0355C43.4506 43.1562 42.9993 44.8201 42.7071 44.8201C42.5186 44.8201 42.0774 45.0763 41.7269 45.3898C41.2063 45.8549 40.4648 45.9594 37.6792 45.9594C35.3136 45.9594 34.1375 45.8292 33.8395 45.5346C33.5164 45.215 33.4102 43.5497 33.4102 38.8074C33.4102 32.591 33.4214 32.49 34.2345 31.4201C34.9367 30.4957 35.0557 29.998 35.0396 28.0567C35.029 26.8035 34.8484 25.4852 34.6377 25.1271C34.3222 24.5914 34.243 24.965 34.1886 27.2429L34.123 30.0097L33.8672 27.2429C33.7267 25.7212 33.5193 22.6452 33.4066 20.4073C33.2272 16.8548 33.2773 16.1947 33.8002 15.2058C35.0858 12.7749 38.3468 11.8326 40.6373 13.2303ZM35.4118 14.0831C34.8494 14.6388 34.7702 14.9685 35.1167 15.3106C35.3581 15.5492 36.8721 14.281 36.8721 13.8406C36.8721 13.3895 35.9614 13.5408 35.4118 14.0831ZM8.51771 16.1888C6.79502 16.3206 4.14554 16.445 2.6299 16.4648C-0.0957494 16.501 -0.123774 16.5098 0.0697613 17.2711C0.84522 20.3221 2.20227 34.7233 2.31305 41.0768C2.34734 43.0461 2.42878 43.9178 2.49406 43.0142L2.61308 41.3711L6.0588 41.3867L9.50451 41.4023L9.5055 43.4449C9.50682 45.3738 9.45638 45.5063 8.60014 45.8279C7.59719 46.2048 3.76077 46.0854 2.78552 45.6469C2.32756 45.4412 2.20227 45.4825 2.31075 45.8038C2.6843 46.9105 7.796 47.5313 9.50682 46.6778C10.1293 46.3673 10.3423 45.99 10.3769 45.1365C10.4023 44.5148 10.5137 41.1901 10.6248 37.7479C10.7359 34.3057 11.1088 29.2523 11.4537 26.518C11.7982 23.7838 12.1751 20.6417 12.2908 19.5353L12.5015 17.524L11.5813 17.8173C11.0749 17.9788 9.39967 18.2392 7.85831 18.3964L5.05584 18.6825L8.21538 18.731C9.95324 18.758 11.4547 18.8586 11.5523 18.9546C11.6496 19.0506 11.5381 20.0395 11.3044 21.1518C10.4501 25.2209 9.76827 30.7711 9.55759 35.3704C9.34691 39.9753 9.32318 40.0922 8.51771 40.4939C7.52004 40.9909 4.10564 41.0446 3.22072 40.5772C2.63946 40.2699 2.58308 39.8582 2.58308 35.9225C2.58308 30.7584 2.08259 23.9205 1.41758 20.0005C1.15184 18.4338 0.93457 17.1006 0.93457 17.0377C0.93457 16.9749 3.5679 16.9384 6.78678 16.9567C11.76 16.9847 12.639 16.917 12.639 16.5059C12.639 15.9089 12.4105 15.8913 8.51771 16.1888ZM40.5041 43.2112C39.872 43.5591 38.9818 43.8459 38.5259 43.8485C38.0696 43.8514 37.4913 43.982 37.2407 44.1385C36.8816 44.3631 36.9308 44.4692 37.4735 44.6392C38.7161 45.0285 41.635 44.2599 42.2248 43.3879C42.9109 42.3737 42.1651 42.2968 40.5041 43.2112ZM21.1822 45.7501C21.2782 45.9034 22.14 46.1261 23.0975 46.2445C24.0546 46.363 25.3203 46.5469 25.9095 46.6534C26.7285 46.8015 26.981 46.7321 26.981 46.3598C26.981 46.0919 26.647 45.7843 26.2392 45.6762C25.0997 45.3748 20.9847 45.435 21.1822 45.7501Z" fill="black"/>
</svg>
