<svg width="40" height="45" viewBox="0 0 40 45" fill="none" xmlns="http://www.w3.org/2000/svg">
<path fill-rule="evenodd" clip-rule="evenodd" d="M35.7498 0.275337C35.1366 0.51892 31.7562 2.74684 16.244 13.1313C13.1283 15.2172 12.1473 16.2653 11.671 18.0176C11.2353 19.6203 11.4913 21.2269 12.4944 23.1883C13.1926 24.5532 13.2298 24.7788 12.8221 25.1827C12.4144 25.5864 12.1966 25.5821 10.8956 25.1428C8.81805 24.4413 5.51308 24.4919 4.01706 25.2483C2.70781 25.9101 1.20595 27.5555 0.427168 29.1816C-0.390996 30.89 -0.0192995 33.5457 1.41703 36.2544C4.8543 42.7345 13.188 46.6974 18.312 44.2884C18.9354 43.9951 20.0031 43.0156 20.7102 42.0876C21.8625 40.5755 21.9958 40.216 22.1031 38.3332C22.2115 36.4339 22.1198 36.0352 21.0582 33.7938C19.6767 30.8772 19.8087 30.4709 21.9622 31.0083C25.0629 31.7818 27.4703 31.2248 29.306 29.3093C30.2331 28.342 40 4.65801 40 3.3776C40 2.18834 39.0972 0.845426 37.9895 0.386916C36.7972 -0.106653 36.7203 -0.110312 35.7498 0.275337ZM38.6923 1.65879C39.0732 2.08102 39.3846 2.80202 39.3846 3.26053C39.3846 4.23151 30.0602 27.4393 29.166 28.6938C26.6684 32.1976 19.8699 31.0263 15.4338 26.3281C13.1104 23.8673 12.1999 21.993 12.1738 19.6172C12.1396 16.5421 12.211 16.4768 24.5321 8.27884C30.5854 4.25133 35.7461 0.875607 35.9999 0.777442C36.7901 0.471667 37.9701 0.858229 38.6923 1.65879ZM33.8461 3.03829C33.8461 4.06719 36.051 6.05092 37.1944 6.05092C37.7221 6.05092 38.1538 5.91373 38.1538 5.74606C38.1538 5.57839 37.7249 5.4412 37.2003 5.4412C36.119 5.4412 34.4615 3.94555 34.4615 2.97C34.4615 2.65233 34.323 2.39259 34.1538 2.39259C33.9845 2.39259 33.8461 2.68313 33.8461 3.03829ZM13.7061 17.1021C14.5378 19.8267 18.3788 24.3633 21.3527 26.1342C23.4213 27.3659 26.7811 28.6188 27.9368 28.5896C28.4835 28.5755 27.9245 28.2804 26.3075 27.7289C23.2869 26.6988 22.5056 26.2988 20.1324 24.5678C18.0665 23.0609 15.3538 19.7148 14.5741 17.7118C14.0563 16.3814 13.3304 15.8714 13.7061 17.1021ZM11.4205 25.8861C11.8335 26.1049 11.9458 26.3339 11.7581 26.5741C11.6033 26.772 10.8328 27.728 10.0461 28.6987C8.93897 30.0639 8.61497 30.7117 8.61497 31.5589C8.61497 33.9789 11.4876 36.537 14.2049 36.537C15.6698 36.537 15.712 36.5092 17.4489 34.4029C18.4166 33.2292 19.3231 32.2689 19.4634 32.2689C19.6034 32.2689 20.1274 33.1265 20.6281 34.1743C22.2721 37.6174 21.7853 40.6181 19.285 42.4537C18.5588 42.9866 17.9736 43.0915 15.7231 43.0915C13.163 43.0915 12.8966 43.0259 10.3202 41.7611C7.05126 40.1563 4.35953 37.64 2.77458 34.7078C1.84042 32.9789 1.70288 32.4473 1.69765 30.5394C1.69303 28.8005 1.82165 28.1801 2.32627 27.5097C3.31305 26.1985 4.48353 25.4687 5.91647 25.2712C7.43342 25.062 10.5162 25.4065 11.4205 25.8861ZM17.5366 28.8661C18.5456 29.5334 19.5403 30.1355 19.7474 30.2041C20.2714 30.377 15.7101 35.8965 14.8621 36.1157C13.2049 36.5434 9.87806 34.3661 9.23375 32.4314C8.80051 31.1312 8.96513 30.8001 11.6224 27.6177L13.6129 25.234L14.6575 26.443C15.232 27.1082 16.5277 28.1984 17.5366 28.8661ZM2.3755 35.1178C3.53613 37.2784 7.12541 40.7617 9.41898 41.9531C11.9501 43.268 14.8151 43.9692 16.7354 43.7439C17.9043 43.6067 18.1757 43.6488 17.8985 43.9234C17.6994 44.1207 16.644 44.3384 15.5532 44.4073C11.6606 44.653 7.1568 42.5497 3.95552 38.9911C1.78472 36.5781 0.822866 34.4438 0.720095 31.8116L0.637017 29.6776L1.0841 31.6119C1.32995 32.6756 1.91119 34.2533 2.3755 35.1178Z" fill="black"/>
</svg>
