<svg width="50" height="50" viewBox="0 0 50 50" fill="none" xmlns="http://www.w3.org/2000/svg">
<path fill-rule="evenodd" clip-rule="evenodd" d="M39.487 0.321339C36.3532 1.305 32.927 4.33666 32.5056 6.49841C32.2816 7.64853 32.6101 9.91568 33.1874 11.2021C33.4215 11.7243 33.3577 11.7297 32.2459 11.2824C29.8183 10.3061 29.0153 10.5639 26.4822 13.1328C25.2185 14.414 21.3415 18.8609 17.8668 23.0144C10.9683 31.2613 6.00821 36.1976 2.36863 38.4394C1.07719 39.2347 0.0117908 40.1101 0.00110678 40.3849C-0.080359 42.4573 4.35218 47.4023 7.76106 49.0415C9.93293 50.0862 11.6671 50.3109 11.6671 49.5473C11.6671 48.7886 15.4596 43.6071 18.0738 40.7936C19.4164 39.3492 23.7451 35.284 27.6931 31.76C36.9522 23.4958 39.7127 20.7357 39.7127 19.7424C39.7127 19.3191 39.4145 18.4097 39.0499 17.7217C38.6854 17.0334 38.4393 16.4205 38.5027 16.3592C38.5665 16.2981 39.0246 16.3968 39.521 16.5783C40.9998 17.1195 43.766 16.9768 44.9188 16.3003C47.088 15.0271 49.5797 11.2988 49.9367 8.79223C50.6832 3.54837 44.6885 -1.31146 39.487 0.321339ZM44.5539 1.12087C46.2467 1.86512 48.5137 4.22515 49.0569 5.80878C49.521 7.16265 49.3363 9.22542 48.5991 10.9238C48.1998 11.8438 47.9027 12.0575 46.7628 12.2426C44.2901 12.6449 42.2582 11.9148 39.8132 9.74569C38.0673 8.19676 37.1078 6.53729 36.83 4.58571C36.5719 2.77359 37.0737 1.90593 38.8216 1.14208C40.5808 0.373396 42.8344 0.365043 44.5539 1.12087ZM37.038 7.27608C37.827 8.72153 39.3241 10.3579 40.6933 11.2712C42.172 12.2571 45.3873 13.1151 46.7161 12.8779C47.4783 12.7417 47.463 12.7722 46.5572 13.1967C44.439 14.1894 41.5961 13.4316 38.9959 11.1815C36.9509 9.4118 35.7142 7.08263 35.7095 4.9919C35.7048 2.87964 36.1713 2.72217 36.4053 4.75667C36.5145 5.70466 36.7993 6.8384 37.038 7.27608ZM36.1305 8.73439C37.0474 10.4707 38.9812 12.3506 40.7627 13.2372C41.3624 13.5357 42.8101 13.8536 43.9803 13.9442C46.4931 14.1383 46.1241 14.647 43.4651 14.6544C38.4019 14.6685 33.5684 9.30736 34.5603 4.77755L34.8241 3.57248L35.0474 5.33993C35.1703 6.31202 35.6578 7.83974 36.1305 8.73439ZM34.8832 9.86073C36.4828 12.8381 40.3998 15.3013 43.5356 15.3016C45.7001 15.3019 45.1255 15.9706 42.7737 16.1882C38.0994 16.6204 33.0465 12.3798 33.0382 8.01745C33.0332 5.35889 33.4245 4.9302 33.9239 7.04664C34.1617 8.05505 34.5937 9.3215 34.8832 9.86073ZM31.0656 11.4922C32.7617 12.0421 33.0766 12.3544 32.6298 13.0428C31.4746 14.8234 35.7482 18.3464 37.2777 16.8743C37.8193 16.3531 38.7952 17.9367 38.8409 19.4111C38.876 20.5345 38.8136 20.6104 37.7775 20.7061C34.6444 20.996 28.6113 15.5821 28.6113 12.4811C28.6113 11.7873 29.1438 11.1436 29.7301 11.1291C29.8403 11.1265 30.4413 11.2898 31.0656 11.4922ZM37.3385 15.541C37.418 15.5841 37.2143 15.9048 36.8864 16.2538C36.2023 16.981 35.5269 16.776 33.9533 15.3633C32.9811 14.4905 32.7701 13.4361 33.4385 12.7928C33.7533 12.4897 34.2081 12.7391 35.5182 13.9336C36.44 14.7746 37.2594 15.4979 37.3385 15.541ZM28.1709 13.5611C28.9215 16.4392 34.553 21.3694 37.1251 21.4006C37.4467 21.4044 37.7094 21.5355 37.7094 21.6917C37.7094 21.8479 34.6668 24.7028 30.9484 28.0359C27.2301 31.3693 22.6329 35.5434 20.7332 37.3121C17.2829 40.5243 12.9301 45.6969 11.6587 48.0958C10.826 49.6669 10.2488 49.7032 7.60982 48.3493C4.63364 46.8226 0.697573 42.3885 0.656506 40.516C0.6525 40.3325 1.63209 39.5606 2.83338 38.8003C6.1471 36.7034 10.6417 32.397 15.2843 26.8706C21.9932 18.8853 27.3893 12.7311 27.6828 12.7311C27.8324 12.7311 28.0521 13.1045 28.1709 13.5611ZM24.1874 23.606C22.8095 24.4171 18.0498 29.3412 17.4248 30.6022C16.5173 32.4339 17.7279 33.6303 19.604 32.7559C20.7936 32.2013 25.3493 27.7451 26.3636 26.1437C27.8821 23.7468 26.5626 22.2084 24.1874 23.606Z" fill="black"/>
</svg>
