<svg width="22" height="43" viewBox="0 0 22 43" fill="none" xmlns="http://www.w3.org/2000/svg">
<path fill-rule="evenodd" clip-rule="evenodd" d="M9.14443 0.334763C7.94201 0.809916 6.8926 1.86816 6.40098 3.10094C6.16857 3.6837 5.37566 4.75002 4.63873 5.47099C3.90181 6.19162 2.93621 7.55352 2.49276 8.49744L1.68662 10.2134L1.68323 23.9522L1.67983 37.6906L0.831624 38.6897C-0.293443 40.0149 -0.275799 41.4041 0.877428 42.3029C1.73242 42.9697 2.17655 43 11.0712 43H20.3714L21.204 42.1744C22.2659 41.1223 22.2652 39.8333 21.2026 38.7798L20.3683 37.9529L20.2696 23.7467C20.1732 9.89297 20.1525 9.50693 19.4319 8.17294C19.0257 7.42036 18.0859 6.26123 17.3439 5.59676C16.6019 4.93228 15.8836 4.03443 15.7479 3.60198C14.8695 0.79949 11.8048 -0.716424 9.14443 0.334763ZM13.0984 2.70077C13.5005 3.07269 13.9219 3.85587 14.0352 4.44132C14.1736 5.15725 14.6222 5.75009 15.4046 6.25215C16.0445 6.66274 16.9968 7.722 17.521 8.60606L18.4744 10.2134L18.5728 24.9254C18.6498 36.4834 18.7628 39.6373 19.0987 39.6373C19.8584 39.6373 20.368 40.3761 19.9517 40.8734C19.4865 41.4289 2.84222 41.5177 2.01912 40.9692C1.58925 40.6827 1.65507 40.5119 2.44322 39.869L3.37626 39.1076V25.2038C3.37626 15.3107 3.49467 10.9011 3.78679 9.91617C4.05449 9.01429 4.82297 7.92208 5.99214 6.78144C6.97946 5.81836 7.78695 4.87982 7.78695 4.69554C7.78695 3.81182 8.72236 2.5054 9.64487 2.10019C10.869 1.56249 12.0989 1.77636 13.0984 2.70077ZM6.50548 7.94024C6.2673 8.02229 5.76685 8.6834 5.3933 9.40907C4.7948 10.5716 4.72559 11.2767 4.80872 15.3466C4.89795 19.7101 4.9407 19.9653 5.58161 19.9653C6.21844 19.9653 6.27069 19.6852 6.42982 15.4085C6.56282 11.839 6.72805 10.6577 7.19321 9.95585C8.13743 8.5314 7.78492 7.49837 6.50548 7.94024Z" fill="black"/>
</svg>
