<svg width="100" height="100" viewBox="0 0 100 100" fill="none" xmlns="http://www.w3.org/2000/svg">
<path fill-rule="evenodd" clip-rule="evenodd" d="M52.6308 0.801225C50.6614 1.28988 44.8608 1.76287 39.7405 1.85283L30.4309 2.01572L36.3619 2.50778C45.8419 3.29427 44.1977 4.06031 33.7681 3.71613C28.5146 3.54303 24.6475 3.62754 25.1746 3.90356C29.553 6.19555 52.0127 6.50223 56.3546 4.33019C59.2979 2.85741 59.1904 2.81243 58.8811 5.39815C58.7357 6.61605 58.9291 8.37985 59.3115 9.31696C60.5869 12.4438 61.0846 9.0532 60.0333 4.39903C58.9326 -0.472557 58.5388 -0.664067 52.6308 0.801225ZM15.9839 1.16857C12.6424 1.79762 8.94796 3.44284 8.16309 4.6512C7.87879 5.08874 7.71265 7.31462 7.79429 9.59707C7.96688 14.4244 9.15922 15.9217 14.3182 17.7891C16.0906 18.4304 22.0165 21.3105 27.487 24.1887C40.7188 31.1512 42.8256 32.3575 47.2606 35.515C50.4981 37.82 50.8412 38.2718 49.6832 38.7046C48.9413 38.982 42.3258 39.23 34.9819 39.2566C20.9903 39.3064 16.1307 40.0935 9.25661 43.4208C4.32611 45.8075 0.0164781 51.8452 7.28414e-06 56.389C-0.00214109 56.9771 0.471215 58.9815 1.05199 60.8428C2.85662 66.6276 7.16625 69.7776 18.6149 73.6794C32.628 78.4556 44.7971 85.3779 55.7581 94.8075C61.2916 99.5687 63.8632 101.192 62.5706 99.1087C60.6771 96.0582 57.7145 93.1562 52.673 89.4153C44.053 83.0198 35.8577 78.9538 18.973 72.6946C11.4386 69.9017 7.60738 67.718 5.39098 64.9524C3.41806 62.4914 3.06143 61.4282 4.47148 62.2126C4.96417 62.4866 4.83455 62.1213 4.18431 61.4009C2.38326 59.4047 1.47952 55.4035 2.16556 52.4572C2.94112 49.1245 7.32666 45.3311 12.7656 43.2879C16.4279 41.9126 18.4695 41.7265 33.6535 41.3857C51.9232 40.9761 54.169 40.5345 57.3049 36.7404C58.9964 34.6938 59.1904 30.3033 57.6436 29.0814C56.7227 28.3542 56.5694 28.5811 56.5694 30.67C56.5694 33.5767 55.3606 36.3506 53.8532 36.9013C52.3794 37.4397 47.3587 34.1881 46.5545 32.1742C46.0897 31.0121 45.5096 30.6509 44.5078 30.9004C42.2506 31.462 40.2189 29.9851 39.8945 27.5472C39.6267 25.5347 39.5493 25.4727 39.0495 26.8664C38.3778 28.7392 38.3405 28.7406 35.3493 26.9809C33.6026 25.9538 32.9309 25.061 32.9145 23.7436C32.893 22.0282 32.8343 21.9975 31.8768 23.2011C30.8857 24.4463 30.8055 24.4449 28.4981 23.1629C26.9284 22.2899 26.0046 21.1756 25.7489 19.8425C25.3794 17.9206 25.3436 17.9036 24.9025 19.4357C24.4442 21.027 24.4305 21.0291 22.2442 19.7996C20.6294 18.8918 20.0472 18.0617 20.0472 16.6666C20.0472 15.6232 19.7249 14.7692 19.331 14.7692C18.9372 14.7692 18.6149 15.3826 18.6149 16.1323C18.6149 17.8 18.814 17.802 13.9959 16.0866C9.4736 14.4761 8.41947 13.2378 9.42633 10.7168C11.2174 6.23508 14.0955 5.47244 17.5064 8.57614C19.861 10.7189 35.3249 19.5379 42.2821 22.7063C46.0768 24.434 46.5158 24.8416 46.2164 26.3552C45.9386 27.7612 46.5308 28.5559 49.6073 30.9051C51.6568 32.4699 53.4407 33.649 53.571 33.5249C53.7014 33.4009 52.9752 32.0433 51.9576 30.5085C49.9396 27.4675 50.7567 26.7655 53.4801 29.2C54.7226 30.3108 55.1372 30.4287 55.1372 29.6709C55.1372 28.2431 53.6004 26.5365 51.9146 26.0935C51.1269 25.8863 52.2548 25.8325 54.4211 25.9736L58.3597 26.2305L55.8533 25.1544C54.4748 24.5621 51.7356 24.019 49.7663 23.9467C46.6955 23.8336 44.5414 22.9258 34.6425 17.5696C23.9686 11.7957 20.0085 9.12681 20.8807 8.29671C21.0712 8.11474 25.0708 9.20178 29.7678 10.7121C34.4649 12.2223 40.403 13.7142 42.9631 14.0263C48.5696 14.7106 56.4813 13.8008 57.9888 12.2987C58.9735 11.3173 58.9069 11.2702 57.2856 11.7998C56.3009 12.1208 52.4338 12.3648 48.6921 12.3409C43.0741 12.3062 40.322 11.8659 32.8987 9.81516C27.9546 8.44869 22.4762 7.13742 20.7246 6.90025C18.9737 6.66308 16.5396 6.18055 15.3164 5.82752C13.8878 5.41587 12.4147 5.43223 11.1987 5.87182C9.13057 6.62014 8.95799 6.43749 9.99279 4.59803C10.3702 3.92536 12.2235 3.00598 14.1105 2.55481C20.4611 1.03431 21.8726 0.596085 20.4052 0.601537C19.6175 0.604263 17.6281 0.859156 15.9839 1.16857ZM24.5229 1.62656C25.6064 1.78263 27.3781 1.78263 28.4616 1.62656C29.5451 1.47049 28.6585 1.34305 26.4923 1.34305C24.326 1.34305 23.4394 1.47049 24.5229 1.62656ZM59.7082 27.5963C60.7537 28.7215 60.9743 29.739 60.6922 32.1217C60.0448 37.5876 56.3832 41.0109 48.1822 43.8154L43.3212 45.4783L47.2398 45.1314C54.8364 44.4594 61.2944 39.5865 62.0929 33.9243C62.408 31.6862 62.6837 31.2629 63.4385 31.8593C63.9605 32.2716 64.6888 33.8855 65.0562 35.4455L65.7258 38.282L65.8024 34.8226C65.8841 31.1253 65.1636 30.1146 60.5081 27.398L58.3597 26.144L59.7082 27.5963ZM63.4729 45.3325C60.125 48.8533 48.9943 52.327 34.8845 54.2544C25.4245 55.5466 22.9116 55.5425 22.9116 54.2346C22.9116 53.2294 28.0964 50.3567 31.3984 49.5334C33.1121 49.1061 34.3825 48.6304 34.2207 48.4771C33.7137 47.9945 24.9769 49.5423 22.3789 50.5748C19.7686 51.6128 18.6149 51.4097 18.6149 49.911C18.6149 48.6972 20.2083 47.5229 23.4423 46.3521L26.1342 45.3768L23.3599 45.7189C19.7693 46.1619 17.8988 47.8092 17.8988 50.5278C17.8988 54.6517 24.5752 58.775 35.4438 61.3635C45.7825 63.8251 60.009 66.3625 70.2166 67.5654C79.8907 68.7049 94.9228 68.9687 95.5459 68.0091C95.7643 67.6724 91.131 67.3827 85.0253 67.3521C79.0242 67.3214 72.5032 67.0147 70.5338 66.6705C67.3636 66.1165 67.9379 66.0272 75.5467 65.8963C89.2977 65.6591 88.7721 64.8958 74.2083 63.9546C57.8814 62.8996 38.6864 60.3214 32.4461 58.345C29.9089 57.5414 27.9431 56.7795 28.0778 56.6513C28.2117 56.5232 31.2137 56.0775 34.7477 55.6611C38.2811 55.2447 43.2674 54.4207 45.8276 53.8305C51.8982 52.4299 61.4756 48.1629 63.6762 45.8777C64.6315 44.8861 65.2453 44.0751 65.0405 44.0751C64.8364 44.0751 64.131 44.6407 63.4729 45.3325ZM11.3978 47.5822C10.0479 49.9819 11.0133 54.8085 13.2963 57.0759C15.9065 59.6692 16.9922 59.6405 15.0393 57.031C13.118 54.4629 12.4892 50.9094 13.4789 48.2085C14.0969 46.5197 14.0496 46.1196 13.2318 46.1196C12.6754 46.1196 11.8497 46.778 11.3978 47.5822ZM17.772 56.117C19.9483 59.9874 26.2402 63.5696 33.6535 65.1589C35.8198 65.623 38.2367 66.1642 39.0244 66.3611C42.151 67.1422 38.8225 65.3552 34.3696 63.8626C28.2274 61.803 23.1881 59.3666 19.7686 56.8026C17.578 55.1602 17.1519 55.0136 17.772 56.117ZM30.4309 69.657C31.6125 70.1722 33.0627 70.5839 33.6535 70.5723C34.2443 70.5607 33.5998 70.1375 32.2213 69.6325C28.9514 68.4343 27.6653 68.4521 30.4309 69.657ZM35.1452 70.9144C35.3099 71.0576 41.4055 72.7512 48.6921 74.6778C55.9786 76.6052 63.7128 78.8393 65.879 79.6435C70.7788 81.4618 78.0531 84.8661 78.0531 85.3418C78.0531 85.5367 77.5325 86.4527 76.8966 87.3761C75.6076 89.249 76.0559 89.4105 79.4338 88.2894C81.3738 87.646 81.6767 87.2657 81.3215 85.9197C80.8582 84.1634 81.0472 84.0796 87.6635 83.0934C91.4819 82.5243 92.5632 81.3862 90.354 80.261C86.9467 78.5251 65.4229 73.7319 66.6345 74.9784C66.8537 75.2033 70.2374 76.1963 74.1538 77.1852C78.071 78.1734 82.0412 79.3613 82.9765 79.8234L84.6765 80.6637L82.5124 82.1311L80.3476 83.5977L75.7945 81.5695C71.0101 79.439 62.9408 77.1395 46.0431 73.0906C36.0446 70.6957 34.5515 70.3971 35.1452 70.9144ZM80.2015 70.8456C80.3984 71.031 83.4599 71.5421 87.0047 71.9804C95.9462 73.0865 96.6723 73.3052 96.6723 74.8939C96.6723 76.0579 96.33 76.2024 94.3449 75.8767C93.0652 75.6661 90.4063 75.3253 88.4369 75.1195L84.8563 74.7446L89.153 76.7272C96.4331 80.0872 96.2842 80.1035 98.4075 75.6886C99.4337 73.5554 100.14 71.6832 99.9765 71.5278C99.8132 71.3724 95.2165 71.0794 89.7617 70.877C84.3063 70.6739 80.0046 70.6602 80.2015 70.8456ZM39.3825 78.5708C48.049 82.9571 59.7003 90.0675 64.6094 93.9652C68.0883 96.7281 69.4597 96.846 69.4597 94.3829C69.4597 93.1916 69.7805 93.0362 71.5457 93.3722C72.8763 93.6251 73.924 93.4336 74.4396 92.842C75.3498 91.7986 73.5752 90.3537 68.2064 87.768C64.3723 85.9211 64.3079 86.2918 68.0532 88.6506C69.6423 89.6518 70.7515 90.7661 70.5174 91.1266C69.6444 92.4706 67.0828 91.6964 62.7847 88.7883C57.2068 85.0139 46.4284 79.5549 39.1848 76.8349C30.8928 73.721 30.9594 74.3071 39.3825 78.5708Z" fill="black"/>
</svg>
