<svg xmlns="http://www.w3.org/2000/svg" viewBox="0 0 105 95.2"><defs><style>.daca1245-2f77-4b13-bc6c-d5014d9533ae{fill:#fff;fill-rule:evenodd}</style></defs><title>icon-discount-desktop</title><g id="9579c74a-c2a0-47f5-86df-5bb4e5b93a7a" data-name="Layer 2"><path class="daca1245-2f77-4b13-bc6c-d5014d9533ae" d="M44 21.95a2.29 2.29 0 0 0-1 .25 2.07 2.07 0 0 0-.56.44l-.12.15-.14.21a2.07 2.07 0 0 0-.23.54 2.28 2.28 0 0 0 .2 1.58 2.11 2.11 0 0 0 .6.67 2.31 2.31 0 0 0 .42.25 2 2 0 0 0 .78.17 2.39 2.39 0 0 0 .42 0 2.12 2.12 0 0 0 .55-.17 1.87 1.87 0 0 0 .35-.21 2.09 2.09 0 0 0 .3-.29l.13-.16.1-.15a2.16 2.16 0 0 0 .18-.32 1.89 1.89 0 0 0 .14-.49 2.18 2.18 0 0 0 0-.61 2.13 2.13 0 0 0-.24-.74 2.1 2.1 0 0 0-.5-.59 2.17 2.17 0 0 0-.78-.42 2 2 0 0 0-.46-.07zm.12-4.22a6.22 6.22 0 0 1 1 .08 6 6 0 0 1 1.25.36 6.53 6.53 0 0 1 1.46.83 6.77 6.77 0 0 1 .86.76 6.11 6.11 0 0 1 .74.95A6 6 0 0 1 50 22a6.82 6.82 0 0 1 .34 2.41 6 6 0 0 1-.21 1.33 6.09 6.09 0 0 1-.6 1.42q-.13.22-.27.43l-.21.29a7.24 7.24 0 0 1-.48.58 6.21 6.21 0 0 1-.9.8 5.93 5.93 0 0 1-1 .6 6.41 6.41 0 0 1-1.64.49 6.79 6.79 0 0 1-1.06.09 6.08 6.08 0 0 1-1.27-.13 6 6 0 0 1-1.06-.31 6.6 6.6 0 0 1-1.36-.78 6.88 6.88 0 0 1-.78-.67 6.13 6.13 0 0 1-.8-1 6 6 0 0 1-.62-1.24 6.58 6.58 0 0 1-.32-1.31 6.67 6.67 0 0 1-.06-1.49 6 6 0 0 1 .36-1.65 6.37 6.37 0 0 1 .61-1.22c.09-.15.19-.29.3-.43a6.71 6.71 0 0 1 .52-.61 6.29 6.29 0 0 1 .81-.72 6 6 0 0 1 1-.59 6.44 6.44 0 0 1 1.7-.47 7 7 0 0 1 1-.09zM61 39.12h-.36a2.15 2.15 0 0 0-.65.21 2.06 2.06 0 0 0-.58.46l-.12.15-.12.18a2.08 2.08 0 0 0-.23.54 2.28 2.28 0 0 0 .2 1.6 2.1 2.1 0 0 0 .58.65 2.32 2.32 0 0 0 .45.27 2 2 0 0 0 .78.17 2.38 2.38 0 0 0 .44 0 2.13 2.13 0 0 0 .5-.15 1.89 1.89 0 0 0 .36-.21 2 2 0 0 0 .3-.28l.15-.18a2.5 2.5 0 0 0 .21-.33 1.91 1.91 0 0 0 .2-.61 2.17 2.17 0 0 0 0-.63 2.13 2.13 0 0 0-.24-.74 2.11 2.11 0 0 0-.52-.61 2.18 2.18 0 0 0-.74-.4 2 2 0 0 0-.49-.08zm1.18-21.33h.26a2 2 0 0 1 .5.14 2.12 2.12 0 0 1 .44.26 2.15 2.15 0 0 1 .56.61 2.11 2.11 0 0 1 .28.84 2.07 2.07 0 0 1 0 .68 2 2 0 0 1-.2.54 2.37 2.37 0 0 1-.17.26Q54 33.81 44.57 46.71l-.17.2a2 2 0 0 1-.45.36 2.07 2.07 0 0 1-.69.24 2.07 2.07 0 0 1-1.58-.37 2.22 2.22 0 0 1-.27-.23 2 2 0 0 1-.34-.45 2.13 2.13 0 0 1-.25-.78 2.16 2.16 0 0 1 0-.61 2.09 2.09 0 0 1 .22-.63 2.48 2.48 0 0 1 .16-.26l19.21-25.57.13-.16a2.15 2.15 0 0 1 .27-.24 2.1 2.1 0 0 1 .79-.37h.55zM61.06 34.9a6.33 6.33 0 0 1 .88.07 5.93 5.93 0 0 1 1.37.38 6.57 6.57 0 0 1 1.49.86 6.8 6.8 0 0 1 .83.74 6.12 6.12 0 0 1 .69.88 6 6 0 0 1 .63 1.28 6.8 6.8 0 0 1 .36 2.6 6 6 0 0 1-.23 1.29 6.12 6.12 0 0 1-.6 1.38 7.07 7.07 0 0 1-.46.69c-.14.19-.29.37-.45.55a6.22 6.22 0 0 1-.89.8 5.9 5.9 0 0 1-1.06.62 6.42 6.42 0 0 1-1.64.49 6.85 6.85 0 0 1-1.06.09 6.1 6.1 0 0 1-1.23-.12 6 6 0 0 1-1.1-.34 6.57 6.57 0 0 1-1.36-.78 6.78 6.78 0 0 1-.86-.75 6.07 6.07 0 0 1-.74-.93 6 6 0 0 1-.63-1.19 6.81 6.81 0 0 1-.39-2.82 6 6 0 0 1 .39-1.53 6.32 6.32 0 0 1 .59-1.22c.11-.17.22-.34.34-.5a6.71 6.71 0 0 1 .49-.58 6.27 6.27 0 0 1 .78-.7 6 6 0 0 1 1-.6 6.42 6.42 0 0 1 1.72-.56 7.06 7.06 0 0 1 .75-.08h.39zm40-26v45.8a4.91 4.91 0 0 1-4.91 4.91H8.88A4.91 4.91 0 0 1 4 54.7V8.9A4.91 4.91 0 0 1 8.89 4h87.23A4.91 4.91 0 0 1 101 8.91zM52.5 63.53a3.07 3.07 0 1 1-3.07 3.07 3.07 3.07 0 0 1 3.07-3.07zM105 5.37v62.54a5.36 5.36 0 0 1-5.36 5.36H5.36A5.36 5.36 0 0 1 0 67.9V5.36A5.36 5.36 0 0 1 5.36 0h94.28A5.36 5.36 0 0 1 105 5.37zM62.52 88.21h-20l.73-12.78h18.54zM39 90.48a2.36 2.36 0 0 0-2.36 2.36A2.36 2.36 0 0 0 39 95.2h27a2.36 2.36 0 0 0 2.36-2.36A2.36 2.36 0 0 0 66 90.47z" id="83c030c5-2725-4d2d-8a4e-53c16c9359a8" data-name="Layer 1"/></g></svg>