<svg xmlns="http://www.w3.org/2000/svg" viewBox="0 0 80 85.86"><defs><style>.f6f814f0-bbf3-4f39-a329-0289f04621fb{fill:#003d7b;fill-rule:evenodd}</style></defs><title>icon-bags</title><g id="9d128c94-2b0f-4117-bf6b-56d6cee8ee6b" data-name="Layer 2"><g id="3036fada-b8a7-4ada-9b01-cc8bd3477ead" data-name="Layer 1"><path class="f6f814f0-bbf3-4f39-a329-0289f04621fb" d="M39.11 14.88a1.59 1.59 0 0 1-1.59-1.59C37.51 6 44 0 51.92 0s14.4 6 14.4 13.28a1.59 1.59 0 0 1-1.59 1.59h-.27a1.59 1.59 0 0 1-1.59-1.59C62.86 7.71 58 3.19 51.92 3.19S41 7.71 41 13.28a1.59 1.59 0 0 1-1.59 1.59zM33.54 45.18a2.73 2.73 0 1 0-2.83-.11c-.38 5-4.24 8.93-8.93 8.93s-8.55-3.93-8.93-8.93a2.73 2.73 0 1 0-2.83.11c.44 6.65 5.54 11.9 11.76 11.9s11.32-5.26 11.76-11.9zm4.12 40.68H5.9A5.9 5.9 0 0 1 0 79.78l1.16-38.13a5.9 5.9 0 0 1 5.89-5.72H36.5a5.9 5.9 0 0 1 5.89 5.72l1.16 38.13a5.9 5.9 0 0 1-5.89 6.08z"/><path class="f6f814f0-bbf3-4f39-a329-0289f04621fb" d="M64.59 20.26A2.73 2.73 0 1 1 61.86 23a2.73 2.73 0 0 1 2.73-2.74zm-25.4 0A2.73 2.73 0 1 1 36.47 23a2.73 2.73 0 0 1 2.72-2.74zM74.1 81.44H49a2.27 2.27 0 0 1-2.27-2.3c-.18-6.91-.75-27.63-1.11-38.23v-.33c0-.11 0-.4-.06-.59a8.72 8.72 0 0 0-2-4.4 8.75 8.75 0 0 0-3.93-2.66 8.71 8.71 0 0 0-1.77-.39 9 9 0 0 0-.92-.05h-9.56a2.49 2.49 0 0 1-2.48-2.56l.22-7.36A5.9 5.9 0 0 1 31 16.83h41.5a5.9 5.9 0 0 1 5.89 5.72L80 75.37a5.9 5.9 0 0 1-5.89 6.08z"/></g></g></svg>