<svg xmlns="http://www.w3.org/2000/svg" viewBox="0 0 80 77.37"><defs><style>.\32 3ca4178-f88a-4cbd-a434-9c416d393d32{fill:#003d7b;fill-rule:evenodd}</style></defs><title>icon-cake</title><g id="11a4fa69-d313-4e84-a01e-ac6078b55b0f" data-name="Layer 2"><path class="23ca4178-f88a-4cbd-a434-9c416d393d32" d="M60.42 14.78a3.58 3.58 0 0 1-1.91-1.52 3.9 3.9 0 0 1-.29-3.54l4-9.72 4 9.72a3.9 3.9 0 0 1-.22 3.54 3.58 3.58 0 0 1-1.91 1.52 2 2 0 0 0-.11-.89l-1.73-4.83-1.73 4.83a2 2 0 0 0-.1.89zm-23 0a3.58 3.58 0 0 1-1.91-1.52 3.9 3.9 0 0 1-.29-3.54l4-9.72 4 9.72a3.9 3.9 0 0 1-.22 3.54 3.58 3.58 0 0 1-1.91 1.52 2 2 0 0 0-.11-.89l-1.77-4.83-1.73 4.83a2 2 0 0 0-.1.89zm-21.47 0A3.58 3.58 0 0 1 14 13.26a3.9 3.9 0 0 1-.29-3.54l4-9.72 4 9.72a3.9 3.9 0 0 1-.29 3.54 3.58 3.58 0 0 1-1.91 1.52 2 2 0 0 0-.11-.89l-1.65-4.83L16 13.89a2 2 0 0 0-.09.89zm8.32 27.8a2.59 2.59 0 1 1-2.59 2.59 2.59 2.59 0 0 1 2.55-2.59zm38.03 1.47a2.59 2.59 0 1 1-2.59 2.59 2.59 2.59 0 0 1 2.59-2.59zm-2.72-9.28V19a2.87 2.87 0 0 1 .78-2 2.6 2.6 0 0 1 1.89-.82 2.6 2.6 0 0 1 1.89.82 2.87 2.87 0 0 1 .78 2v15.78h8A7.3 7.3 0 0 1 80 42.25V49a13.55 13.55 0 0 0-2.87.55 12.21 12.21 0 0 0-2.53 1.12q-.57.33-1.11.72c-.35.26-.7.53-1 .82s-.75.67-1.12 1l-.69.69-.33.34-.85.88c-.49.5-1 1-1.5 1.44a11.92 11.92 0 0 1-1 .79 9 9 0 0 1-1 .61 8.13 8.13 0 0 1-1 .44 8.5 8.5 0 0 1-1.28.34 10.18 10.18 0 0 1-1.5.16h-.88a11.61 11.61 0 0 1-3-.46 9.69 9.69 0 0 1-1.7-.69q-.45-.23-.88-.51c-.27-.17-.53-.36-.79-.56s-.64-.51-1-.78l-.7-.62-.71-.65-.8-.7c-.34-.29-.68-.57-1-.82s-.63-.44-.95-.63a10.08 10.08 0 0 0-1-.53 9 9 0 0 0-1.86-.62 9.6 9.6 0 0 0-2.08-.2 11.08 11.08 0 0 0-1.87.17 12.55 12.55 0 0 0-2 .53A18.2 18.2 0 0 0 38.56 53c-.66.35-1.31.73-2 1.12l-.28.17c-1.07.65-2.14 1.32-3.24 1.91-.5.27-1 .52-1.52.74s-1 .4-1.47.56a13.27 13.27 0 0 1-1.67.43 12.56 12.56 0 0 1-1.72.2 13.29 13.29 0 0 1-1.73 0l-.9-.1-.71-.12a12.88 12.88 0 0 1-2.12-.58 9.21 9.21 0 0 1-2-1q-.33-.22-.64-.48c-.2-.17-.4-.35-.6-.54s-.43-.44-.64-.67l-.45-.64-.24-.28c-.47-.56-.93-1.13-1.42-1.66-.25-.27-.5-.53-.76-.78s-.57-.52-.86-.75a10.56 10.56 0 0 0-.91-.64 10.06 10.06 0 0 0-1-.54 11.28 11.28 0 0 0-2.6-.87 12.54 12.54 0 0 0-1.74-.24 11.23 11.23 0 0 0-1.17 0h-.72l-.65.09a12.08 12.08 0 0 0-1.22.26 14.79 14.79 0 0 0-2.54 1q-.53.25-1 .54v-7.88a7.3 7.3 0 0 1 7.11-7.47h8V19a2.87 2.87 0 0 1 .78-2 2.6 2.6 0 0 1 1.89-.82 2.6 2.6 0 0 1 1.89.82 2.87 2.87 0 0 1 .78 2v15.78h16.06V19a2.87 2.87 0 0 1 .78-2 2.6 2.6 0 0 1 1.89-.82 2.6 2.6 0 0 1 1.88.82 2.87 2.87 0 0 1 .78 2v15.78zM8.79 61a2.59 2.59 0 1 1-2.59 2.62A2.59 2.59 0 0 1 8.79 61zm35.53 1.81a2.59 2.59 0 1 1-2.59 2.59 2.59 2.59 0 0 1 2.59-2.56zm34.18 4.6l-.55 5a5.6 5.6 0 0 1-5.58 5l-64.56-.19a5.6 5.6 0 0 1-5.54-4.86L0 55.41c.57-.37 1.15-.72 1.74-1a13.86 13.86 0 0 1 2-.89A9.69 9.69 0 0 1 6 53a8.75 8.75 0 0 1 1.35 0 9.49 9.49 0 0 1 1 .12l.71.14a8.38 8.38 0 0 1 1.52.51 7 7 0 0 1 1 .53 7.29 7.29 0 0 1 .6.44c.19.15.37.32.55.49.37.36.72.75 1.06 1.16l.23.28.88 1c.3.35.6.69.92 1s.69.68 1 1a12.43 12.43 0 0 0 1.13.85l.59.37a13.5 13.5 0 0 0 3.87 1.5l.66.14.82.14q.53.08 1.06.12a15.83 15.83 0 0 0 2 0 15 15 0 0 0 2.11-.24 15.74 15.74 0 0 0 1.85-.47A19.69 19.69 0 0 0 33.75 61c.55-.28 1.1-.57 1.64-.88l1-.61.29-.17 1.68-1c.47-.28.94-.55 1.41-.81a15 15 0 0 1 2.55-1.11 9.59 9.59 0 0 1 1.42-.42 8.59 8.59 0 0 1 1.26-.06 7.1 7.1 0 0 1 1.57.15 6.2 6.2 0 0 1 1.16.37 6.92 6.92 0 0 1 .82.42c.24.14.47.3.69.46a21.41 21.41 0 0 1 1.65 1.38l.71.65.77.68c.36.31.72.6 1.08.88s.76.55 1.15.79.69.41 1 .59a12.55 12.55 0 0 0 2.6 1 14.48 14.48 0 0 0 3.1.42h1a12.82 12.82 0 0 0 1.7-.16 11.21 11.21 0 0 0 1.56-.37 10.73 10.73 0 0 0 1.36-.53 11.36 11.36 0 0 0 1.25-.67 13.61 13.61 0 0 0 1.26-.91c.41-.33.8-.68 1.19-1.05s.58-.56.86-.85l.33-.34c.8-.83 1.59-1.68 2.44-2.41.34-.29.68-.57 1-.82a10.17 10.17 0 0 1 1.3-.78 9.55 9.55 0 0 1 1.62-.64 10.88 10.88 0 0 1 1.83-.39l-.93 8.49a2.59 2.59 0 0 0-.56 5.11z" id="711054d2-5e7a-4de6-819a-14f035b16fad" data-name="Layer 1"/></g></svg>