<svg xmlns="http://www.w3.org/2000/svg" viewBox="0 0 49 94.46"><defs><style>.ecc4e009-ab71-4711-9e9c-b5be59c06a95{fill:#fff;fill-rule:evenodd}</style></defs><title>icon-discount-mobile</title><g id="edf81d96-aef2-4cc7-89f6-cbbbb52028a0" data-name="Layer 2"><path class="ecc4e009-ab71-4711-9e9c-b5be59c06a95" d="M24.5 2.33a1.78 1.78 0 1 1-1.78 1.78 1.78 1.78 0 0 1 1.78-1.78zM15 33.12a2.27 2.27 0 0 0-1 .25 2.05 2.05 0 0 0-.55.44l-.12.15-.14.2a2.05 2.05 0 0 0-.22.54 2.26 2.26 0 0 0 .2 1.57 2.09 2.09 0 0 0 .6.66 2.28 2.28 0 0 0 .42.25 2 2 0 0 0 .77.17 2.39 2.39 0 0 0 .41 0 2.12 2.12 0 0 0 .55-.16 1.85 1.85 0 0 0 .35-.21 2.09 2.09 0 0 0 .3-.28l.13-.16.1-.14a2.13 2.13 0 0 0 .17-.32 1.87 1.87 0 0 0 .14-.49 2.17 2.17 0 0 0 0-.6 2.12 2.12 0 0 0-.24-.74 2.09 2.09 0 0 0-.5-.59 2.16 2.16 0 0 0-.78-.42 2 2 0 0 0-.46-.07zm.12-4.19a6.21 6.21 0 0 1 1 .08 5.92 5.92 0 0 1 1.24.35 6.49 6.49 0 0 1 1.44.83 6.77 6.77 0 0 1 .85.76 6.07 6.07 0 0 1 .73.94 6 6 0 0 1 .6 1.28 6.76 6.76 0 0 1 .34 2.39 6 6 0 0 1-.21 1.32 6.05 6.05 0 0 1-.59 1.41q-.13.22-.27.43L20 39a7.05 7.05 0 0 1-.48.57 6.15 6.15 0 0 1-.89.79 5.88 5.88 0 0 1-1 .59 6.37 6.37 0 0 1-1.63.48 6.77 6.77 0 0 1-1.06.09 6 6 0 0 1-1.26-.13 6 6 0 0 1-1.06-.33 6.55 6.55 0 0 1-1.35-.77 6.81 6.81 0 0 1-.77-.66 6.07 6.07 0 0 1-.8-1 5.94 5.94 0 0 1-.61-1.23 6.54 6.54 0 0 1-.31-1.24 6.64 6.64 0 0 1-.06-1.48 6 6 0 0 1 .28-1.6 6.32 6.32 0 0 1 .6-1.21c.09-.15.19-.29.29-.43a6.68 6.68 0 0 1 .51-.6 6.23 6.23 0 0 1 .81-.71 6 6 0 0 1 1-.59 6.39 6.39 0 0 1 1.7-.52 6.94 6.94 0 0 1 1-.09zm16.67 21.23h-.36a2.15 2.15 0 0 0-.64.21 2 2 0 0 0-.58.45l-.12.15-.12.18a2.06 2.06 0 0 0-.23.54 2.26 2.26 0 0 0 .2 1.59 2.08 2.08 0 0 0 .58.65 2.31 2.31 0 0 0 .44.26 2 2 0 0 0 .77.17 2.36 2.36 0 0 0 .44 0 2.11 2.11 0 0 0 .5-.15A1.86 1.86 0 0 0 33 54a2.06 2.06 0 0 0 .3-.28l.15-.18a2.46 2.46 0 0 0 .21-.33 1.9 1.9 0 0 0 .2-.6 2.16 2.16 0 0 0 0-.63 2.12 2.12 0 0 0-.24-.74 2.1 2.1 0 0 0-.52-.6 2.16 2.16 0 0 0-.73-.4 2 2 0 0 0-.48-.08zM33 29h.25a2 2 0 0 1 .49.14 2.18 2.18 0 0 1 1 .86 2.09 2.09 0 0 1 .28.83 2.06 2.06 0 0 1 0 .67 2 2 0 0 1-.2.54 2.32 2.32 0 0 1-.17.26q-9.76 12.59-19.14 25.4l-.17.2a2 2 0 0 1-.45.35 2.06 2.06 0 0 1-.68.24 2.06 2.06 0 0 1-1.57-.37 2.17 2.17 0 0 1-.27-.23 2 2 0 0 1-.34-.45 2.17 2.17 0 0 1-.23-1.38 2.08 2.08 0 0 1 .21-.63 2.44 2.44 0 0 1 .16-.26l19.06-25.36.13-.15a2.11 2.11 0 0 1 .26-.24 2.08 2.08 0 0 1 .78-.37h.6zm-1.13 17a6.25 6.25 0 0 1 .88.07 5.9 5.9 0 0 1 1.36.37 6.53 6.53 0 0 1 1.48.85 6.75 6.75 0 0 1 .82.73 6.06 6.06 0 0 1 .69.87 6 6 0 0 1 .62 1.27 6.74 6.74 0 0 1 .36 2.57 5.92 5.92 0 0 1-.23 1.27 6.07 6.07 0 0 1-.59 1.37 7 7 0 0 1-.46.68c-.14.19-.29.37-.45.54a6.19 6.19 0 0 1-.89.8 5.88 5.88 0 0 1-1.05.62 6.37 6.37 0 0 1-1.63.48 6.77 6.77 0 0 1-1.06.09 6.06 6.06 0 0 1-1.22-.12 6 6 0 0 1-1.09-.34 6.53 6.53 0 0 1-1.35-.77 6.73 6.73 0 0 1-.86-.74 6 6 0 0 1-.74-.93 6 6 0 0 1-.58-1.16 6.75 6.75 0 0 1-.39-2.8 6 6 0 0 1 .32-1.53 6.29 6.29 0 0 1 .6-1.19c.1-.17.22-.33.34-.49a6.66 6.66 0 0 1 .48-.57 6.26 6.26 0 0 1 .77-.69 6 6 0 0 1 1-.6 6.38 6.38 0 0 1 1.76-.56 7 7 0 0 1 .74-.08h.39zm10-38.1H7.11a3.86 3.86 0 0 0-3.62 4.06v64A3.86 3.86 0 0 0 7.11 80h34.78a3.86 3.86 0 0 0 3.62-4.06v-64a3.86 3.86 0 0 0-3.62-4.06zM24.5 84.35a3.14 3.14 0 1 1-3.14 3.14 3.14 3.14 0 0 1 3.14-3.14zm20.07 10.11H4.43C2 94.46 0 92.08 0 89.14V5.32C0 2.38 2 0 4.43 0h40.14C47 0 49 2.38 49 5.32v83.82c0 2.94-2 5.32-4.43 5.32z" id="1fa8aefa-c930-4050-a919-b95b64f27142" data-name="Layer 1"/></g></svg>