<svg xmlns="http://www.w3.org/2000/svg" viewBox="0 0 70 74.38"><defs><style>.\32 319a980-3db5-46eb-8880-4f9f71cd420f{fill:#003d7b;fill-rule:evenodd}</style></defs><title>icon-inteview-2</title><g id="08bb43f7-19fe-42d1-b665-6353024ec92a" data-name="Layer 2"><g id="110366e2-252c-4ff3-804d-8fe2faff9198" data-name="Layer 1"><path class="2319a980-3db5-46eb-8880-4f9f71cd420f" d="M61.43 14a1 1 0 0 0-1.32.46l-2 4a1 1 0 0 0 .46 1.32l8 3.9a1 1 0 0 0 1.32-.46l2-4a1 1 0 0 0-.46-1.32zm-20 41v-1.24a5.89 5.89 0 0 1 .6-2.43l14-28.62a1 1 0 0 1 1.32-.45l8 3.9a1 1 0 0 1 .46 1.33l-14 28.66A5.89 5.89 0 0 1 50.36 58l-.93.79zm-.08 2.81l5.93 2.84-2.12 1.79a2.36 2.36 0 0 1-3.89-1.87z"/><path class="2319a980-3db5-46eb-8880-4f9f71cd420f" d="M24.06 12a1.58 1.58 0 0 1 0 2.24c-3.51 3.41-6.28 5.88-9.78 9.29a1.58 1.58 0 0 1-2.23 0l-1.16-1.2s-1.8-2-4.44-4.68a1.58 1.58 0 0 1 0-2.24l.06-.06a1.58 1.58 0 0 1 2.24 0c2.65 2.72 4.44 4.68 4.44 4.68s4.7-4.34 8.58-8.12A1.58 1.58 0 0 1 24 12zm0 21.69A1.58 1.58 0 0 1 24 36c-3.51 3.41-6.28 5.88-9.78 9.29a1.58 1.58 0 0 1-2.23 0L10.85 44s-1.8-2-4.44-4.68a1.58 1.58 0 0 1 0-2.24l.1-.08a1.58 1.58 0 0 1 2.24 0c2.65 2.72 4.44 4.68 4.44 4.68s4.7-4.34 8.58-8.12a1.58 1.58 0 0 1 2.23 0zm0 21.19a1.58 1.58 0 0 1 0 2.24c-3.51 3.41-6.28 5.88-9.78 9.29a1.58 1.58 0 0 1-2.23 0l-1.16-1.2s-1.8-2-4.44-4.68a1.58 1.58 0 0 1 0-2.24l.06-.06a1.58 1.58 0 0 1 2.24 0c2.65 2.72 4.44 4.68 4.44 4.68s4.7-4.34 8.58-8.12a1.58 1.58 0 0 1 2.23 0zM53 74.38H4.19A4.19 4.19 0 0 1 0 70.19v-66A4.19 4.19 0 0 1 4.19 0H53a4.19 4.19 0 0 1 4.19 4.19v9.9l-.39.8-17.03 34.84c-.08.16-.15.31-.21.47a7.79 7.79 0 0 0-.56 2.12v.57q-.15 5-.28 10.06a3.81 3.81 0 0 0 0 .4 3.71 3.71 0 0 0 5.65 2.77 3.75 3.75 0 0 0 .41-.3q3.84-3.22 7.65-6.49l.3-.27A7.79 7.79 0 0 0 54 57.52c.09-.14.17-.29.25-.44l.07-.13 2.9-5.89v19.13A4.19 4.19 0 0 1 53 74.38z"/></g></g></svg>