<svg xmlns="http://www.w3.org/2000/svg" viewBox="0 0 125 63.37"><defs><style>.\37 0ac80e1-5e95-41c0-b269-3d8478bffb4b{fill:#fff;fill-rule:evenodd}</style></defs><title>icon-discount-text</title><g id="fc60a3ba-0bba-4080-a3d1-2e3c70d4475b" data-name="Layer 2"><path class="70ac80e1-5e95-41c0-b269-3d8478bffb4b" d="M113.84 28.54a3.14 3.14 0 1 1-3.14 3.14 3.14 3.14 0 0 1 3.14-3.14zM35.91 39.27a6.66 6.66 0 0 0 5.81-2.75 23.05 23.05 0 0 0 1.49-2.32l.06-.12c.34-.58.75-1.3 1.24-2.17a83.28 83.28 0 0 1 6.87-11.8 17.45 17.45 0 0 1 14.3-6.85 18.38 18.38 0 1 1-12 32.3l5.5-10.08a7.54 7.54 0 1 0 6.5-11.38 6.66 6.66 0 0 0-5.81 2.75 23.11 23.11 0 0 0-1.49 2.32l-.07.11c-.34.58-.76 1.3-1.24 2.18a83.19 83.19 0 0 1-6.86 11.79 17.45 17.45 0 0 1-14.3 6.85 18.38 18.38 0 1 1 12-32.3l-5.5 10.08a7.54 7.54 0 1 0-6.5 11.38zM96.54 0A9.78 9.78 0 0 1 104 3.43l18.68 21.9a9.78 9.78 0 0 1 0 12.69L104 59.93a9.78 9.78 0 0 1-7.44 3.43H9.78A9.78 9.78 0 0 1 0 53.58V9.78A9.78 9.78 0 0 1 9.78 0z" id="1f8ef486-bdb8-411f-b8e3-3053a0ba5f0f" data-name="Layer 1"/></g></svg>