<svg xmlns="http://www.w3.org/2000/svg" viewBox="0 0 365.92 388.8"><defs><style>.\32 2be6205-e779-433e-94b6-951c53319c4b{fill:#003d7b;fill-rule:evenodd}</style></defs><title>icon-interview</title><g id="3b22c701-060f-4fdf-9495-f298daa95ca1" data-name="Layer 2"><g id="9c2989ee-df21-4fe9-90c6-30f4e0f69f72" data-name="Layer 1"><path class="22be6205-e779-433e-94b6-951c53319c4b" d="M321.1 73.26a5.17 5.17 0 0 0-6.92 2.39l-10.24 21a5.17 5.17 0 0 0 2.39 6.92L348.24 124a5.17 5.17 0 0 0 6.92-2.39l10.24-21a5.17 5.17 0 0 0-2.4-6.94zM216.6 287.44l.18-6.47a30.77 30.77 0 0 1 3.13-12.7l73.3-149.59a5.17 5.17 0 0 1 6.91-2.37L342 136.72a5.17 5.17 0 0 1 2.38 6.93L271 293.45a30.77 30.77 0 0 1-7.73 9.93l-4.86 4.12zm-.4 14.71l31 14.87-11.06 9.38a12.35 12.35 0 0 1-20.33-9.76z"/><path class="22be6205-e779-433e-94b6-951c53319c4b" d="M125.78 62.91a8.26 8.26 0 0 1-.16 11.69c-18.32 17.81-32.82 30.75-51.13 48.55a8.26 8.26 0 0 1-11.68-.15l-6.08-6.25s-9.39-10.28-23.21-24.47a8.26 8.26 0 0 1 .15-11.68l.32-.32a8.26 8.26 0 0 1 11.68.15c13.83 14.19 23.22 24.48 23.22 24.48s24.55-22.7 44.87-42.44a8.26 8.26 0 0 1 11.68.16zm0 113.39a8.26 8.26 0 0 1-.16 11.69c-18.32 17.81-32.82 30.76-51.13 48.56a8.26 8.26 0 0 1-11.68-.16l-6.08-6.25s-9.39-10.28-23.21-24.47a8.26 8.26 0 0 1 .15-11.68l.32-.32a8.26 8.26 0 0 1 11.68.15c13.86 14.18 23.25 24.44 23.25 24.44s24.55-22.7 44.87-42.45a8.26 8.26 0 0 1 11.68.16zm0 110.78a8.26 8.26 0 0 1-.16 11.69c-18.32 17.81-32.82 30.76-51.13 48.56a8.26 8.26 0 0 1-11.68-.16l-6.08-6.25s-9.39-10.28-23.21-24.47a8.26 8.26 0 0 1 .15-11.68l.32-.32a8.26 8.26 0 0 1 11.68.15C59.53 318.76 68.92 329 68.92 329s24.55-22.7 44.87-42.44a8.26 8.26 0 0 1 11.68.16zM277.3 388.8H21.88A21.88 21.88 0 0 1 0 366.92v-345A21.88 21.88 0 0 1 21.88 0H277.3a21.88 21.88 0 0 1 21.88 21.88v51.73l-2 4.19-89.3 182.2c-.4.81-.77 1.64-1.11 2.48a40.75 40.75 0 0 0-2.8 11.06c-.08.73-.14 1.46-.18 2.19v.81q-.81 26.29-1.44 52.59v.17a19.94 19.94 0 0 0 .1 2.12 19.38 19.38 0 0 0 29.52 14.51 19.62 19.62 0 0 0 2.17-1.57q20.09-16.84 40-33.9c.53-.46 1.05-.93 1.56-1.41a40.72 40.72 0 0 0 6.72-8.35c.45-.75.88-1.51 1.29-2.28l.36-.7q7.6-15.39 15.18-30.8v100a21.88 21.88 0 0 1-21.95 21.88z"/></g></g></svg>