<svg xmlns="http://www.w3.org/2000/svg" viewBox="0 0 95 64.41"><defs><style>.\38 c985327-a97e-405d-b230-baffe4d315ce{fill:#fff;fill-rule:evenodd}</style></defs><title>icon-discount-card</title><g id="f19c9036-8e4d-4f28-b625-062851dd3b20" data-name="Layer 2"><path class="8c985327-a97e-405d-b230-baffe4d315ce" d="M39 13a2.29 2.29 0 0 0-1 .25 2.07 2.07 0 0 0-.56.45l-.12.15-.14.21a2.06 2.06 0 0 0-.23.54 2.28 2.28 0 0 0 .21 1.58 2.11 2.11 0 0 0 .6.67 2.34 2.34 0 0 0 .42.25 2 2 0 0 0 .78.17 2.39 2.39 0 0 0 .42 0 2.12 2.12 0 0 0 .55-.17 1.87 1.87 0 0 0 .35-.21 2.11 2.11 0 0 0 .3-.29l.13-.16.1-.15A2.16 2.16 0 0 0 41 16a1.9 1.9 0 0 0 .14-.49 2.19 2.19 0 0 0 0-.61 2.14 2.14 0 0 0-.24-.74 2.11 2.11 0 0 0-.5-.59 2.18 2.18 0 0 0-.78-.42 2 2 0 0 0-.46-.07zm.12-4.23a6.23 6.23 0 0 1 1 .09 6 6 0 0 1 1.25.36 6.54 6.54 0 0 1 1.46.83 6.82 6.82 0 0 1 .86.76 6.14 6.14 0 0 1 .74.95 6 6 0 0 1 .57 1.3 6.83 6.83 0 0 1 .34 2.41 6 6 0 0 1-.21 1.33 6.11 6.11 0 0 1-.6 1.43q-.13.22-.27.43l-.21.29a7.15 7.15 0 0 1-.48.58 6.2 6.2 0 0 1-.9.8 6 6 0 0 1-1 .6 6.43 6.43 0 0 1-1.65.49 6.8 6.8 0 0 1-1.02.08 6 6 0 0 1-2.37-.5 6.62 6.62 0 0 1-1.37-.78 6.89 6.89 0 0 1-.78-.67 6.14 6.14 0 0 1-.8-1 6 6 0 0 1-.62-1.24 6.61 6.61 0 0 1-.32-1.26 6.7 6.7 0 0 1-.06-1.49A6 6 0 0 1 33 13a6.4 6.4 0 0 1 .61-1.22c.09-.15.19-.29.3-.43a6.72 6.72 0 0 1 .52-.61 6.31 6.31 0 0 1 .82-.72 6 6 0 0 1 1-.59A6.44 6.44 0 0 1 38 8.88a7 7 0 0 1 1-.09zM56 30.21h-.36a2.16 2.16 0 0 0-.65.21 2.06 2.06 0 0 0-.58.46l-.12.15-.12.18a2.09 2.09 0 0 0-.23.54 2.28 2.28 0 0 0 .2 1.6 2.1 2.1 0 0 0 .58.65 2.31 2.31 0 0 0 .45.27 2 2 0 0 0 .78.17 2.4 2.4 0 0 0 .44 0 2.13 2.13 0 0 0 .5-.15 1.89 1.89 0 0 0 .36-.21 2.08 2.08 0 0 0 .3-.28l.15-.18a2.5 2.5 0 0 0 .21-.33 1.91 1.91 0 0 0 .2-.61 2.19 2.19 0 0 0 0-.63 2.14 2.14 0 0 0-.24-.74 2.11 2.11 0 0 0-.52-.61 2.18 2.18 0 0 0-.74-.4 2 2 0 0 0-.49-.08zm1.17-21.36h.26a2 2 0 0 1 .5.14 2.12 2.12 0 0 1 .44.26 2.15 2.15 0 0 1 .56.61 2.11 2.11 0 0 1 .28.84 2.08 2.08 0 0 1 0 .68 2 2 0 0 1-.2.54 2.34 2.34 0 0 1-.17.26Q49 24.89 39.55 37.82l-.17.2a2 2 0 0 1-.46.36 2.07 2.07 0 0 1-.69.24 2.08 2.08 0 0 1-1.58-.37 2.22 2.22 0 0 1-.27-.23 2 2 0 0 1-.34-.45 2.19 2.19 0 0 1-.23-1.39 2.09 2.09 0 0 1 .22-.63 2.49 2.49 0 0 1 .16-.26L55.42 9.67l.13-.16a2.15 2.15 0 0 1 .27-.24 2.1 2.1 0 0 1 .79-.37l.3-.05h.25zM56.08 26a6.34 6.34 0 0 1 .89.07 6 6 0 0 1 1.37.38 6.59 6.59 0 0 1 1.49.86 6.77 6.77 0 0 1 .83.74 6.13 6.13 0 0 1 .69.88 6 6 0 0 1 .65 1.26 6.8 6.8 0 0 1 .36 2.6 6 6 0 0 1-.22 1.29 6.12 6.12 0 0 1-.6 1.39 7.08 7.08 0 0 1-.46.69c-.14.19-.29.37-.45.55a6.23 6.23 0 0 1-.9.81 5.92 5.92 0 0 1-1.06.62 6.43 6.43 0 0 1-1.65.49 6.86 6.86 0 0 1-1.07.09 6.11 6.11 0 0 1-1.23-.12 6 6 0 0 1-1.1-.34 6.58 6.58 0 0 1-1.37-.78 6.8 6.8 0 0 1-.86-.75 6.09 6.09 0 0 1-.74-.94 6 6 0 0 1-.65-1.18 6.83 6.83 0 0 1-.39-2.82 6 6 0 0 1 .39-1.54 6.33 6.33 0 0 1 .56-1.25c.11-.17.22-.34.34-.5a6.76 6.76 0 0 1 .49-.58 6.32 6.32 0 0 1 .78-.7 6 6 0 0 1 1-.6 6.43 6.43 0 0 1 1.78-.56 7.08 7.08 0 0 1 .75-.08h.39zM0 45.34V8.48A8.44 8.44 0 0 1 8.44 0h78.09A8.44 8.44 0 0 1 95 8.44V45.3zm95 6.52v4.06a8.44 8.44 0 0 1-8.44 8.45H8.47A8.44 8.44 0 0 1 0 56v-4.09z" id="b5fa4051-c130-41c0-9e5a-ef8c437f2542" data-name="Layer 1"/></g></svg>