<svg xmlns="http://www.w3.org/2000/svg" viewBox="0 0 286.67 414.19"><defs><style>.ec2349ec-2157-4d1c-a34b-e4e2cf0637cd{fill:#003d7b;fill-rule:evenodd}.fdfcbede-50c3-4b3f-b21a-29724c36f8da{fill-rule:evenodd;fill:#fff}</style></defs><title>icon-cart</title><g id="abd203df-1748-4b33-b36f-37419aea22e0" data-name="Layer 2"><g id="f7698e1d-6af0-4920-8032-aab5ae6c3cb1" data-name="Layer 1"><path class="ec2349ec-2157-4d1c-a34b-e4e2cf0637cd" d="M78.16 75.67a8.11 8.11 0 0 1-8.11-8.11C70.05 30.27 102.89 0 143.33 0s73.28 30.27 73.28 67.57a8.11 8.11 0 0 1-8.11 8.11h-1.37a8.11 8.11 0 0 1-8.13-8.11c0-28.34-25-51.35-55.69-51.35s-55.69 23-55.69 51.35a8.11 8.11 0 0 1-8.11 8.11zM207.93 102.91a13.87 13.87 0 1 0 13.53 13.86 13.87 13.87 0 0 0-13.53-13.86zm-129.2 0a13.87 13.87 0 1 0 13.53 13.86 13.87 13.87 0 0 0-13.52-13.86zm169.76-17.44h.65a30 30 0 0 1 30 29.09l7.52 268.71a30 30 0 0 1-30 30.91H30a30 30 0 0 1-30-30.91l7.53-268.71a30 30 0 0 1 30-29.09z"/><path class="fdfcbede-50c3-4b3f-b21a-29724c36f8da" d="M185.77 221.46a14.74 14.74 0 1 1 20.13 5.41 14.75 14.75 0 0 1-20.13-5.41zm-97.65 37.28a14.74 14.74 0 1 1-14.74 14.74 14.75 14.75 0 0 1 14.74-14.74zm110.42 59.11a14.74 14.74 0 1 1-14.74 14.74 14.74 14.74 0 0 1 14.74-14.74zm-36 6.74l-46.64-26.91a36.84 36.84 0 1 1-.16-48.58l46.83-27a36.84 36.84 0 1 1 11 19.15l-48.87 28.18a37.28 37.28 0 0 1 0 7.86l48.85 28.17a36.74 36.74 0 1 1-11.06 19.14z"/></g></g></svg>