<svg xmlns="http://www.w3.org/2000/svg" viewBox="0 0 650.71 582.69"><defs><style>.\33 7eee13e-dea9-4dd8-9653-7f8eb6a835c5,.\34 29ee2ef-c4c6-44c3-9bb9-1c2ede8d3088{fill:#003a7c}.\33 7eee13e-dea9-4dd8-9653-7f8eb6a835c5{fill-rule:evenodd}</style></defs><title>icon-invite</title><g id="b66872cb-7d8c-4d08-b69e-3ac49988ec07" data-name="Layer 2"><g id="61422d7f-bba9-4a5d-b373-f56f0b880980" data-name="Layer 1"><path class="37eee13e-dea9-4dd8-9653-7f8eb6a835c5" d="M298.88 340.63c49.87-18.91 161.14-18.21 200.46 3.49 52.79 29.13 91.43 53.94 132.79 87.21A50.93 50.93 0 0 1 650.59 471s.06 29.48.11 51a22.11 22.11 0 0 1-22.11 22.16H288.4q4.36-5.07 8.3-10.47a166.27 166.27 0 0 0 2.17-193z"/><path class="37eee13e-dea9-4dd8-9653-7f8eb6a835c5" d="M132.88 421.44v-62.37a14.18 14.18 0 0 1 14.18-14.18 14.18 14.18 0 0 1 14.18 14.18v62.36h62.36a14.18 14.18 0 0 1 14.18 14.18 14.18 14.18 0 0 1-14.18 14.18h-62.35v62.37a14.18 14.18 0 0 1-14.18 14.18 14.18 14.18 0 0 1-14.18-14.18V449.8H70.52a14.18 14.18 0 0 1-14.18-14.18 14.18 14.18 0 0 1 14.18-14.18zm14.18-132.88A147.07 147.07 0 1 1 0 435.62a147.14 147.14 0 0 1 147.07-147.07z"/><path class="429ee2ef-c4c6-44c3-9bb9-1c2ede8d3088" d="M403.47 404.37c-1.79 1.44-28 1.63-30.44-.29-20.67-16.6-58.82-48.15-74.31-66.5V288.2a124.45 124.45 0 0 1-15.5-42.13c-5.9-.51-13.73-8.43-22.16-38.51-10.79-38.17-.67-45.76 9.18-45.76C265 139.47 251.78 61.95 309.5 27a31 31 0 0 1-11.2-24.12c.07-9.3 65.81 7.5 97.66.84s66.15 18.45 71.54 42.13c0 0 64.63 0 39.52 115.36 10.11-.42 21.07 6.49 9.94 45.67-8.43 29.66-16.18 38-22.16 38.51a124.47 124.47 0 0 1-15.5 42.13v49.13c-15.95 18.81-55.58 51.49-75.83 67.72z"/></g></g></svg>