<svg xmlns="http://www.w3.org/2000/svg" viewBox="0 0 168.54 166.47" width="21px" height="20px">
    <path class="arrow-top" fill="#b8b4b4" d="M160,44.57h0L134.28,54a9.94,9.94,0,0,1-12.7-5.9,10.18,10.18,0,0,1,.3-7.5,9.73,9.73,0,0,1,5.6-5.1l3.4-1.2c-7-3.6-23.7-12.8-51.3-12.8-38.8,0-62.4,15.7-62.7,15.8a9.37,9.37,0,0,1-4.8,1.3,9.86,9.86,0,0,1-8.5-4.9,9.69,9.69,0,0,1,3.6-13.3c1.1-.6,28-18.4,72.4-18.4a124,124,0,0,1,59.6,14.7l-1.3-3.4a9.94,9.94,0,0,1,5.9-12.7,10.45,10.45,0,0,1,7.6.3,9.73,9.73,0,0,1,5.1,5.6l9.4,25.7a9.81,9.81,0,0,1-5.9,12.4"/>
    <path class="boot" fill="#034078" d="M54.08,100.37c-1-5.3-4-17.8,1-30.2,1.4-3.6,1.5-17.3,1.3-21.2-.1-1.5.4-2.6,2.8-2.6.7,0,7.5.2,7.5.2l3.2.1,6.1.2c1.6-.2,2.3-5.3,10-4.8.6,0,1.9.1,1.9,2.1,0,5.3.3,13.9.3,13.9.6,16.6,7.5,26.7,19.4,28.5h.2a115.62,115.62,0,0,1,12.9,2.3c3.9,1,6.6,3,7.4,4.9.5,1.1,1.2,3.4,1.2,3.4l.4,3.2s.1,3.6.1,3.9c0,1.7-.8,3.7-2.7,3.9-1.3.1-1.4.4-20.9,1.6-20.7,1.2-18.4.8-23.3.8s-9.5-4-9.5-4v2.5c0,1.4-1.1,1.7-2.8,1.7-4.4,0-12.4.1-14.1.1-2.3,0-2.2-.9-2.2-2.1a81,81,0,0,1-.2-8.4"/>
    <path class="arrow-bottom" fill="#034078" d="M163.68,147.27c-1.1.6-28,19.2-72.4,19.2-40.5,0-61.6-16.2-66.2-19.3l1,4a9.88,9.88,0,0,1-14.8,10.7,10,10,0,0,1-4.5-6.1l-6.5-26.6a9.88,9.88,0,0,1,7.2-11.9l26.6-6.5a9.88,9.88,0,0,1,10.7,14.8,10,10,0,0,1-6.1,4.5l-3.1.8.3.2c.2.1,17.5,16,55.2,16,38.8,0,62.4-16.5,62.7-16.6a9.78,9.78,0,0,1,13.3,3.6,9.37,9.37,0,0,1-3.4,13.2"/>
</svg>