<svg width="24" height="24" viewBox="0 0 24 24" fill="none" xmlns="http://www.w3.org/2000/svg">
<g clip-path="url(#clip0)">
<path d="M12.0061 24.003C11.7561 24.003 11.5031 23.941 11.2581 23.815L0.656081 18.919C0.113081 18.703 0.0120813 18.32 0.0010813 18.109C-0.0099187 17.893 0.0540813 17.488 0.612081 17.206L3.19208 16.034C3.64108 15.809 4.16408 15.81 4.63508 16.046L11.9131 19.4C11.9931 19.438 12.0141 19.436 12.0671 19.409L19.3861 16.034C19.8451 15.806 20.3531 15.805 20.8311 16.043L23.3561 17.191C23.9441 17.486 24.0081 17.892 23.9971 18.109C23.9851 18.324 23.8801 18.717 23.3091 18.93L12.7131 23.827C12.4881 23.944 12.2481 24.003 12.0061 24.003ZM2.36608 18.056L11.9141 22.467C11.9941 22.506 12.0051 22.507 12.0601 22.479L21.6321 18.056L20.1901 17.399C20.1111 17.36 20.0921 17.36 20.0351 17.388L12.7161 20.763C12.2571 20.99 11.7501 20.991 11.2701 20.755L3.98808 17.399C3.91108 17.361 3.89008 17.361 3.83708 17.389L2.36608 18.056Z" fill="white"/>
<path d="M11.982 17.9439C11.763 17.9439 11.551 17.9039 11.341 17.8269L0.636 12.8779C0.627 12.8749 0.619 12.8709 0.613 12.8669C0.079 12.5969 0 12.2049 0 11.9949C0.001 11.7859 0.081 11.3929 0.614 11.1259L3.192 9.9579C3.64 9.7279 4.166 9.7289 4.644 9.9729L11.915 13.3219C11.997 13.3619 12.01 13.3619 12.061 13.3349L19.389 9.9599C19.839 9.7289 20.366 9.7299 20.841 9.9729L23.358 11.1129C23.39 11.1279 23.421 11.1439 23.451 11.1629C23.929 11.4299 24.002 11.7999 24.001 12.0019C24 12.2129 23.919 12.6059 23.38 12.8719L12.716 17.8039C12.459 17.8979 12.217 17.9439 11.982 17.9439ZM2.313 12.0009L11.914 16.4419C11.959 16.4559 12.042 16.4549 12.144 16.4179L21.687 12.0019L20.191 11.3239C20.107 11.2829 20.096 11.2819 20.043 11.3089L12.715 14.6839C12.266 14.9139 11.739 14.9139 11.262 14.6719L3.988 11.3219C3.91 11.2819 3.897 11.2809 3.843 11.3089L2.313 12.0009ZM1.277 11.5219L1.279 11.5229C1.278 11.5229 1.278 11.5219 1.277 11.5219Z" fill="white"/>
<path d="M12.0051 11.9C11.7561 11.9 11.5051 11.839 11.2621 11.716L0.63607 6.80402C0.62807 6.80002 0.62007 6.79602 0.61207 6.79202C0.0550705 6.51102 -0.00992957 6.10702 0.00107043 5.89202C0.0130704 5.67802 0.11507 5.28702 0.68207 5.06902L11.2861 0.16902C11.7401 -0.0579798 12.2641 -0.0579798 12.7351 0.17902L23.3621 5.09402C23.8831 5.28602 23.9871 5.67902 23.9991 5.89402C24.0111 6.11102 23.9451 6.51702 23.3831 6.79802L12.7151 11.727C12.4871 11.842 12.2471 11.9 12.0051 11.9ZM2.35507 5.94602L11.9141 10.365C11.9901 10.402 12.0041 10.405 12.0641 10.375L21.6451 5.94802L12.0851 1.53002C12.0111 1.49402 11.9911 1.49202 11.9351 1.52102L2.35507 5.94602ZM22.7931 6.48002C22.7941 6.48002 22.7951 6.48102 22.7961 6.48102L22.7931 6.48002ZM1.27107 5.44502L1.27607 5.44702C1.27407 5.44602 1.27207 5.44502 1.27107 5.44502Z" fill="white"/>
</g>
<defs>
<clipPath id="clip0">
<rect width="24" height="24" fill="white"/>
</clipPath>
</defs>
</svg>
