<svg width="21" height="21" viewBox="0 0 21 21" fill="none" xmlns="http://www.w3.org/2000/svg">
<path d="M16.5923 20.95V20.5258C16.5923 20.4182 16.59 20.3379 16.5817 20.277C16.5733 20.2158 16.5596 20.1808 16.5418 20.159C16.5252 20.1385 16.5 20.1236 16.4543 20.1142C16.4072 20.1045 16.344 20.1016 16.2565 20.1016C16.2203 20.1016 16.1887 20.1034 16.1584 20.1051C16.1429 20.1059 16.1277 20.1068 16.1125 20.1074C16.0709 20.109 16.027 20.1087 15.9887 20.0943C15.9461 20.0784 15.9154 20.0472 15.8966 19.9993C15.8789 19.9545 15.8715 19.8946 15.8707 19.8173C15.8693 19.662 15.8954 19.4149 15.9473 19.0253C15.9818 18.766 16.028 18.4418 16.0856 18.0372C16.1149 17.8321 16.147 17.6064 16.1821 17.3579C16.3676 16.0443 16.4573 15.2964 16.4466 14.8256C16.4413 14.5912 16.4111 14.4294 16.3576 14.3024C16.3044 14.1762 16.2267 14.0808 16.12 13.981C16.0355 13.9022 15.9701 13.8463 15.8822 13.8028C15.7941 13.7593 15.6801 13.7268 15.4977 13.7016C15.1313 13.6508 14.5048 13.6311 13.2922 13.5983L10.7834 13.5305L10.6958 13.5282L10.7424 13.454L11.7477 11.852C12.0242 11.4113 12.2837 11.0025 12.4791 10.699C12.5768 10.5472 12.6586 10.4216 12.7185 10.3314C12.7484 10.2863 12.773 10.2499 12.7914 10.2233C12.8007 10.2101 12.8085 10.1991 12.8148 10.1906C12.8204 10.1831 12.8267 10.1748 12.8323 10.1693C12.8427 10.159 12.8548 10.1545 12.8626 10.1524C12.8709 10.1501 12.8794 10.1491 12.8871 10.1487C12.9024 10.1479 12.9206 10.149 12.9402 10.1513C12.9797 10.1559 13.0326 10.1659 13.0959 10.1803C13.2229 10.2092 13.3976 10.2567 13.6038 10.3173C14.0164 10.4387 14.5586 10.6136 15.1063 10.7998C15.654 10.9861 16.2078 11.1838 16.6436 11.3509C16.8615 11.4344 17.0503 11.5105 17.1943 11.5737C17.2663 11.6053 17.3275 11.6339 17.3759 11.6588C17.4231 11.6832 17.4614 11.7057 17.4848 11.7255L17.4526 11.7637L17.4848 11.7255C17.5201 11.7553 17.558 11.8056 17.5999 11.8746C17.6426 11.9447 17.6917 12.038 17.7487 12.1574C17.8628 12.3963 18.0099 12.743 18.201 13.2247C18.5832 14.1883 19.1426 15.6953 19.967 17.967C20.0713 18.2544 20.1453 18.4812 20.1724 18.6583C20.1995 18.8355 20.1816 18.9758 20.0861 19.0774C19.9936 19.1759 19.8384 19.2263 19.6233 19.2542C19.4063 19.2823 19.116 19.2887 18.7414 19.2887H17.6478V19.6451V20.0016H18.9428C19.564 20.0016 19.9018 19.9948 20.1261 19.9511C20.2367 19.9296 20.318 19.8993 20.3913 19.8571C20.4652 19.8144 20.5327 19.7584 20.6152 19.6826C20.7769 19.5339 20.8849 19.4053 20.9285 19.2028C20.9729 18.9969 20.9518 18.7083 20.8349 18.2376C20.6013 17.2966 19.9933 15.6582 18.8214 12.5644C18.5336 11.8043 18.3638 11.4176 17.9 11.0921C17.666 10.928 17.3556 10.7784 16.9138 10.6074C16.4721 10.4364 15.9022 10.2451 15.1506 9.99647L12.523 9.12731L10.4578 9.13406L8.39251 9.14081L5.80739 10.0029C5.0677 10.2496 4.50632 10.4399 4.07075 10.6103C3.63504 10.7807 3.32819 10.9302 3.09637 11.0943C2.63666 11.4198 2.46545 11.8069 2.17859 12.5644L2.13183 12.5467L2.17859 12.5644C1.00669 15.6582 0.398687 17.2966 0.165064 18.2376C0.048188 18.7083 0.027135 18.9969 0.0714778 19.2028C0.115065 19.4053 0.223119 19.5339 0.384818 19.6826C0.469174 19.7602 0.536504 19.8166 0.612503 19.8594C0.687818 19.9018 0.773925 19.932 0.896306 19.9532C1.14433 19.9964 1.53195 20.0016 2.26191 20.0016H3.76169V19.6451V19.2887H2.46338C1.94265 19.2887 1.59267 19.277 1.35557 19.2448C1.12022 19.2128 0.983616 19.1593 0.904053 19.0642C0.854577 19.005 0.84101 18.9165 0.854489 18.7872C0.868145 18.6562 0.911062 18.4708 0.989867 18.2053C1.14769 17.6735 1.45304 16.8088 1.97103 15.3907C2.35683 14.3345 2.69543 13.4577 2.95893 12.8271C3.09065 12.5119 3.20386 12.2576 3.29499 12.073C3.34053 11.9808 3.3809 11.9053 3.4156 11.848C3.4492 11.7925 3.48061 11.7486 3.50907 11.7251L3.50908 11.7251C3.5317 11.7065 3.56935 11.6849 3.61582 11.6614C3.66348 11.6373 3.72419 11.6093 3.79572 11.5783C3.93884 11.5161 4.12713 11.4407 4.34473 11.3573C4.78002 11.1906 5.33427 10.9917 5.88256 10.8034C6.43084 10.6152 6.97369 10.4374 7.38619 10.313C7.59231 10.2508 7.76659 10.2018 7.89297 10.1715C7.95596 10.1564 8.0083 10.1456 8.0472 10.1403C8.06646 10.1377 8.08421 10.1361 8.09909 10.1365C8.10649 10.1367 8.11485 10.1374 8.12311 10.1394L16.5923 20.95ZM16.5923 20.95H10.7047H4.81716V20.5258C4.81716 20.4157 4.81916 20.3344 4.82762 20.2732C4.83609 20.2119 4.85022 20.178 4.86874 20.1572C4.88645 20.1372 4.91423 20.1223 4.9662 20.1132C5.01897 20.1039 5.08978 20.1016 5.18744 20.1016C5.28382 20.1016 5.36148 20.0998 5.42138 20.091C5.48041 20.0824 5.53228 20.0658 5.56731 20.0276C5.6034 19.9883 5.61241 19.9364 5.61069 19.8803C5.60898 19.8242 5.59615 19.754 5.57815 19.6687C5.52348 19.4096 5.3674 18.2511 5.22465 17.1089C5.15337 16.5385 5.08555 15.9734 5.03556 15.5285C4.98534 15.0814 4.95366 14.7601 4.95366 14.6736C4.95366 14.6035 4.98657 14.4948 5.04531 14.3739C5.10325 14.2546 5.1832 14.1298 5.27055 14.0289L5.27056 14.0289L5.58513 13.6654L7.88933 13.5983L10.2155 13.5305L10.303 13.528L10.2563 13.4539L9.23849 11.8388L9.19619 11.8654L9.23849 11.8388C8.95848 11.3945 8.69727 10.9839 8.50198 10.6804C8.40434 10.5286 8.32311 10.4035 8.26421 10.3143C8.23478 10.2697 8.2108 10.2338 8.19309 10.208C8.18425 10.1952 8.1768 10.1846 8.17093 10.1765C8.16606 10.1698 8.15989 10.1616 8.15446 10.1562L16.5923 20.95ZM11.2396 0.909718L11.2263 0.957843L8.02874 2.54947L7.98129 2.53368C7.98129 2.53369 7.98129 2.53369 7.98129 2.53369C7.87069 2.86621 7.85026 3.40802 7.89805 3.95692C7.94593 4.50684 8.06316 5.07386 8.23449 5.45836L8.28016 5.43801L8.23449 5.45837C8.4247 5.88514 8.72547 6.31705 9.04911 6.66175C9.37131 7.00492 9.72253 7.26841 10.0157 7.34875C10.7904 7.56108 11.5283 7.28912 12.0885 6.69023C12.6478 6.09224 13.0315 5.16779 13.1075 4.06602C13.1514 3.43194 13.1168 2.82865 13.0148 2.52163C12.9086 2.20249 12.6365 1.84756 12.3087 1.55023C11.9806 1.2526 11.5898 1.00627 11.2396 0.909718ZM10.9121 11.7098L10.9121 11.7098C11.0772 11.4313 11.3723 10.9443 11.5676 10.6278L11.9229 10.0519L11.97 9.97568H11.8804H10.4943H9.10801H9.01936L9.06522 10.0515L9.33138 10.4919C9.33138 10.4919 9.33139 10.4919 9.33139 10.4919C9.69736 11.0977 9.96372 11.5281 10.1465 11.8076C10.2377 11.9473 10.3087 12.0501 10.3612 12.1186C10.3873 12.1527 10.4097 12.1795 10.4284 12.1983C10.4377 12.2076 10.4472 12.2161 10.4567 12.2227C10.4647 12.2283 10.4793 12.2372 10.4976 12.2381L10.4977 12.2381C10.5121 12.2388 10.5238 12.234 10.5306 12.2307C10.538 12.2271 10.5448 12.2224 10.5505 12.2179C10.5621 12.2089 10.5744 12.1969 10.587 12.1833C10.6123 12.156 10.643 12.1174 10.6769 12.0711C10.745 11.9781 10.8288 11.8503 10.9121 11.7098ZM15.4898 14.4915L15.4898 14.4915C15.4707 14.4776 15.4437 14.4677 15.4153 14.4598C15.3854 14.4514 15.3482 14.4436 15.3047 14.4362C15.2177 14.4216 15.1021 14.4082 14.9625 14.396C14.6833 14.3716 14.3048 14.3516 13.861 14.336C12.9731 14.3048 11.8212 14.2908 10.6726 14.2934C9.52405 14.2961 8.37819 14.3153 7.50241 14.3506C7.06464 14.3682 6.69368 14.3899 6.42341 14.4156C6.28841 14.4284 6.17751 14.4424 6.09558 14.4575C6.05471 14.465 6.01987 14.4731 5.99238 14.4818C5.96737 14.4898 5.94013 14.5007 5.92246 14.5183C5.86054 14.5797 5.82847 14.6848 5.81674 14.8507C5.80483 15.019 5.8133 15.2619 5.84432 15.6121C5.90642 16.3132 6.0599 17.4543 6.32888 19.3105L6.37836 19.3033L6.32888 19.3105L6.42757 19.991L6.43373 20.0335L6.47663 20.0339L10.7243 20.0696L14.972 20.1054L15.0167 20.1058L15.0221 20.0614L15.1158 19.2804C15.1675 18.8515 15.3301 17.6476 15.4774 16.6051C15.6036 15.7114 15.668 15.2311 15.6723 14.9547C15.6745 14.8162 15.6619 14.7221 15.6304 14.6508C15.5979 14.5773 15.5477 14.5335 15.4898 14.4915ZM7.19549 4.77743C6.95951 3.72457 7.03439 2.76993 7.37863 1.9959C7.72261 1.22248 8.33684 0.62626 9.18617 0.290685C10.842 -0.363506 12.7935 0.360083 13.5978 1.92511C13.974 2.6571 14.0387 3.69967 13.8479 4.71606C13.6573 5.73209 13.2134 6.71137 12.5847 7.31751C11.602 8.26475 10.4347 8.41647 9.4249 7.94317C8.41257 7.46869 7.55065 6.36197 7.19549 4.77743Z" fill="url(#paint0_linear)" stroke="black" stroke-width="0.1"/>
<defs>
<linearGradient id="paint0_linear" x1="0" y1="10.5" x2="21" y2="10.5" gradientUnits="userSpaceOnUse">
<stop stop-color="#A18CD1"/>
<stop offset="1" stop-color="#FBC2EB"/>
</linearGradient>
</defs>
</svg>
