<svg width="21" height="21" viewBox="0 0 21 21" fill="none" xmlns="http://www.w3.org/2000/svg">
<mask id="path-1-inside-1" fill="white">
<path fill-rule="evenodd" clip-rule="evenodd" d="M9.1678 0.244183C7.44535 0.924726 6.67101 2.66598 7.1467 4.78836C7.86208 7.97999 10.6257 9.27523 12.6194 7.35351C13.8964 6.12235 14.4086 3.39313 13.6423 1.90225C12.826 0.313958 10.8471 -0.419288 9.1678 0.244183ZM11.2263 0.95792C11.9065 1.14543 12.7627 1.92217 12.9673 2.53741C13.0661 2.83466 13.1015 3.42972 13.0577 4.06257C12.9068 6.24822 11.5361 7.71363 10.029 7.30053C9.46973 7.1473 8.65539 6.27992 8.28016 5.43801C7.94384 4.68323 7.81417 3.19451 8.02874 2.54947C8.22884 1.94751 8.95432 1.2507 9.62984 1.01171C10.2778 0.782467 10.5557 0.773118 11.2263 0.95792ZM5.79157 9.9555C2.83383 10.942 2.70498 11.0333 2.13183 12.5467C-0.210712 18.731 -0.306123 19.115 0.350969 19.7194C0.690299 20.0314 0.806048 20.0516 2.26191 20.0516H3.81169V19.6451V19.2387H2.46338C1.42164 19.2387 1.0759 19.1917 0.942406 19.0321C0.798949 18.8606 0.981718 18.2448 2.018 15.4078C2.78934 13.2962 3.37122 11.9036 3.54088 11.7637C3.82739 11.5275 8.01604 10.0892 8.11924 10.1917C8.15172 10.2238 8.63628 10.9771 9.19619 11.8654L10.214 13.4806L7.88787 13.5483L5.56171 13.616L5.23275 13.9962C5.05176 14.2053 4.90366 14.5101 4.90366 14.6736C4.90366 15.0338 5.4188 19.1555 5.52922 19.679C5.60156 20.0217 5.57413 20.0516 5.18744 20.0516C4.79815 20.0516 4.76716 20.0866 4.76716 20.5258V21H10.7047H16.6423V20.5258C16.6423 20.0956 16.6064 20.0516 16.2565 20.0516C15.8117 20.0516 15.8142 20.3211 16.2316 17.3649C16.6022 14.7407 16.5935 14.3548 16.1541 13.9445C15.8143 13.6274 15.7154 13.6137 13.2935 13.5483L10.7847 13.4806L11.79 11.8786C12.3428 10.9974 12.8278 10.2442 12.8675 10.2048C12.981 10.0922 17.153 11.5107 17.4526 11.7637C17.6834 11.9587 18.2711 13.4405 19.92 17.9841C20.3378 19.1355 20.2409 19.2387 18.7414 19.2387H17.5978V19.6451V20.0516H18.9428C20.1814 20.0516 20.3164 20.0253 20.649 19.7194C21.3061 19.115 21.2107 18.731 18.8682 12.5467C18.2931 11.0281 18.1719 10.9432 15.1663 9.949L12.5309 9.07729L10.4577 9.08406L8.38431 9.09084L5.79157 9.9555ZM11.5251 10.6015C11.3296 10.9183 11.0344 11.4055 10.8691 11.6843C10.7037 11.9633 10.5375 12.1899 10.5 12.1882C10.438 12.1852 10.1061 11.6775 9.37418 10.466L9.10801 10.0257H10.4943H11.8804L11.5251 10.6015ZM15.4604 14.5319C15.6826 14.6933 15.6808 14.8071 15.4279 16.5981C15.2806 17.6406 15.1179 18.845 15.0662 19.2745L14.9724 20.0554L10.7247 20.0196L6.47705 19.9839L6.37836 19.3033C5.8403 15.5902 5.76536 14.7446 5.95768 14.5537C6.22631 14.2871 15.095 14.2668 15.4604 14.5319Z"/>
</mask>
<path fill-rule="evenodd" clip-rule="evenodd" d="M9.1678 0.244183C7.44535 0.924726 6.67101 2.66598 7.1467 4.78836C7.86208 7.97999 10.6257 9.27523 12.6194 7.35351C13.8964 6.12235 14.4086 3.39313 13.6423 1.90225C12.826 0.313958 10.8471 -0.419288 9.1678 0.244183ZM11.2263 0.95792C11.9065 1.14543 12.7627 1.92217 12.9673 2.53741C13.0661 2.83466 13.1015 3.42972 13.0577 4.06257C12.9068 6.24822 11.5361 7.71363 10.029 7.30053C9.46973 7.1473 8.65539 6.27992 8.28016 5.43801C7.94384 4.68323 7.81417 3.19451 8.02874 2.54947C8.22884 1.94751 8.95432 1.2507 9.62984 1.01171C10.2778 0.782467 10.5557 0.773118 11.2263 0.95792ZM5.79157 9.9555C2.83383 10.942 2.70498 11.0333 2.13183 12.5467C-0.210712 18.731 -0.306123 19.115 0.350969 19.7194C0.690299 20.0314 0.806048 20.0516 2.26191 20.0516H3.81169V19.6451V19.2387H2.46338C1.42164 19.2387 1.0759 19.1917 0.942406 19.0321C0.798949 18.8606 0.981718 18.2448 2.018 15.4078C2.78934 13.2962 3.37122 11.9036 3.54088 11.7637C3.82739 11.5275 8.01604 10.0892 8.11924 10.1917C8.15172 10.2238 8.63628 10.9771 9.19619 11.8654L10.214 13.4806L7.88787 13.5483L5.56171 13.616L5.23275 13.9962C5.05176 14.2053 4.90366 14.5101 4.90366 14.6736C4.90366 15.0338 5.4188 19.1555 5.52922 19.679C5.60156 20.0217 5.57413 20.0516 5.18744 20.0516C4.79815 20.0516 4.76716 20.0866 4.76716 20.5258V21H10.7047H16.6423V20.5258C16.6423 20.0956 16.6064 20.0516 16.2565 20.0516C15.8117 20.0516 15.8142 20.3211 16.2316 17.3649C16.6022 14.7407 16.5935 14.3548 16.1541 13.9445C15.8143 13.6274 15.7154 13.6137 13.2935 13.5483L10.7847 13.4806L11.79 11.8786C12.3428 10.9974 12.8278 10.2442 12.8675 10.2048C12.981 10.0922 17.153 11.5107 17.4526 11.7637C17.6834 11.9587 18.2711 13.4405 19.92 17.9841C20.3378 19.1355 20.2409 19.2387 18.7414 19.2387H17.5978V19.6451V20.0516H18.9428C20.1814 20.0516 20.3164 20.0253 20.649 19.7194C21.3061 19.115 21.2107 18.731 18.8682 12.5467C18.2931 11.0281 18.1719 10.9432 15.1663 9.949L12.5309 9.07729L10.4577 9.08406L8.38431 9.09084L5.79157 9.9555ZM11.5251 10.6015C11.3296 10.9183 11.0344 11.4055 10.8691 11.6843C10.7037 11.9633 10.5375 12.1899 10.5 12.1882C10.438 12.1852 10.1061 11.6775 9.37418 10.466L9.10801 10.0257H10.4943H11.8804L11.5251 10.6015ZM15.4604 14.5319C15.6826 14.6933 15.6808 14.8071 15.4279 16.5981C15.2806 17.6406 15.1179 18.845 15.0662 19.2745L14.9724 20.0554L10.7247 20.0196L6.47705 19.9839L6.37836 19.3033C5.8403 15.5902 5.76536 14.7446 5.95768 14.5537C6.22631 14.2871 15.095 14.2668 15.4604 14.5319Z" fill="url(#paint0_linear)" stroke="black" stroke-width="0.2" mask="url(#path-1-inside-1)"/>
<defs>
<linearGradient id="paint0_linear" x1="0" y1="10.5" x2="21" y2="10.5" gradientUnits="userSpaceOnUse">
<stop stop-color="#A18CD1"/>
<stop offset="1" stop-color="#FBC2EB"/>
</linearGradient>
</defs>
</svg>
