<?xml version="1.0" encoding="utf-8"?>
<!-- Generator: Adobe Illustrator 22.0.1, SVG Export Plug-In . SVG Version: 6.00 Build 0)  -->
<svg version="1.1" id="Слой_1" xmlns="http://www.w3.org/2000/svg" xmlns:xlink="http://www.w3.org/1999/xlink" x="0px" y="0px"
	 viewBox="0 0 50 50" style="enable-background:new 0 0 50 50;fill: #034078;" xml:space="preserve">
<g>
	<path d="M24.4,8.9c4.6,0,9.2,0,13.9,0c2.2,0,3.6,1.4,3.6,3.6c0,0.1,0,0.1,0,0.2c-0.2,2.4,0.4,4.8,0.8,7.1c0.8,4.7,1.7,9.4,2.5,14.1
		c0.3,1.7-0.8,3.4-2.4,3.7c-1.8,0.4-3.6,0.7-5.4,1c-4.9,0.9-9.8,1.8-14.7,2.6c-2.7,0.5-5.3,1-8,1.4C12.7,43,11,41.8,10.7,40
		c-0.4-1.9-0.7-3.8-1-5.7c-0.1-0.3-0.2-0.5-0.5-0.6c-1.4-0.4-2.3-1.7-2.3-3.1c0-6.1,0-12.2,0-18.3c0-1.9,1.5-3.3,3.4-3.3
		C15,8.9,19.7,8.9,24.4,8.9z M8.5,18.9c0,0.2,0,0.3,0,0.4c0,3.7,0,7.3,0,11c0,1.2,0.7,1.9,1.9,1.9c9.3,0,18.6,0,27.9,0
		c1.2,0,1.9-0.7,1.9-1.9c0-3.7,0-7.3,0-11c0-0.1,0-0.3,0-0.4C29.6,18.9,19.1,18.9,8.5,18.9z M41.9,25.2c0,0.1,0,0.2,0,0.2
		c0,1.5,0,3,0,4.6c0,0.3,0,0.7,0,1c-0.3,1.7-1.6,2.9-3.4,2.9c-8.8,0-17.7,0-26.5,0c-0.2,0-0.4,0-0.6,0c0.4,2,0.7,3.9,1,5.8
		c0.2,1,1,1.6,2,1.4c3.1-0.6,6.3-1.1,9.4-1.7c4-0.7,8-1.4,11.9-2.1c2.1-0.4,4.3-0.8,6.4-1.2c0.9-0.2,1.5-1,1.3-1.9
		C42.9,31.2,42.4,28.3,41.9,25.2z M40.2,14.8c0-0.8,0-1.5,0-2.2c0-1.3-0.6-2-2-2c-9.2,0-18.5,0-27.7,0c-0.1,0-0.2,0-0.3,0
		c-0.8,0-1.5,0.6-1.6,1.4c-0.1,0.9,0,1.8,0,2.8C19.1,14.8,29.6,14.8,40.2,14.8z"/>
	<path d="M26,21.5c0,0.6,0,1.1,0,1.6c-4.4,0-8.8,0-13.3,0c0-0.5,0-1.1,0-1.6C17.1,21.5,21.5,21.5,26,21.5z"/>
</g>
</svg>
