<?xml version="1.0" encoding="utf-8"?>
<!-- Generator: Adobe Illustrator 22.0.1, SVG Export Plug-In . SVG Version: 6.00 Build 0)  -->
<svg version="1.1" id="Слой_1" xmlns="http://www.w3.org/2000/svg" xmlns:xlink="http://www.w3.org/1999/xlink" x="0px" y="0px"
	 viewBox="0 0 50 50" style="enable-background:new 0 0 50 50;fill: rgb(245, 73, 102);" xml:space="preserve">
<g>
	<path d="M6.4,27.2c0-3.4,0-6.8,0-10.2c0-0.3-0.1-0.5-0.3-0.6c-1-0.6-1.9-1.3-2.9-1.9c-0.5-0.3-0.5-0.5-0.2-1
		C3.3,12.9,3.6,12.5,4,12c0.4-0.5,0.5-0.6,1.1-0.2c2.5,1.7,5,3.4,7.6,5.1C23.9,24.5,35.2,32,46.4,39.6c0.8,0.5,0.8,0.6,0.3,1.4
		c-0.2,0.4-0.5,0.7-0.7,1.1c-0.4,0.6-0.6,0.6-1.2,0.2c-1.3-0.9-2.5-1.7-3.8-2.6c-0.2-0.1-0.5-0.2-0.8-0.2c-10.5,0-20.9,0-31.4,0
		c-1.5,0-2.4-0.8-2.4-2.3C6.4,33.9,6.4,30.5,6.4,27.2C6.4,27.2,6.4,27.2,6.4,27.2z M37.2,37.4c0,0,0-0.1,0.1-0.1
		c-0.1-0.1-0.3-0.2-0.4-0.3c-5.7-3.8-11.4-7.7-17.1-11.5c-0.2-0.2-0.6-0.3-0.9-0.3c-3.2,0-6.4,0-9.6,0c-0.7,0-0.7,0-0.7,0.7
		c0,3.5,0,7.1,0,10.6c0,0.8,0,0.8,0.8,0.8c9.1,0,18.2,0,27.3,0C36.9,37.4,37,37.4,37.2,37.4z M8.6,18c0,0.9,0,1.7,0,2.4
		c1.2,0,2.3,0,3.4,0c0,0,0-0.1,0-0.1C10.9,19.6,9.8,18.8,8.6,18z"/>
	<path d="M41.4,20.5c0-1.2,0-2.2,0-3.3c0-0.4-0.3-0.4-0.6-0.4c-2.3,0-4.7,0-7,0c-5,0-10.1,0-15.1,0c-0.3,0-0.6-0.1-0.9-0.3
		c-0.6-0.4-1.2-0.8-1.8-1.2c-0.1-0.1-0.2-0.3-0.3-0.5c0.2-0.1,0.4-0.2,0.5-0.2c4.5,0,9,0,13.5,0c3.8,0,7.6,0,11.4,0
		c1.6,0,2.4,0.8,2.4,2.4c0,5.3,0,10.6,0,15.9c0,0.2-0.1,0.4-0.2,0.6c-0.2-0.1-0.4-0.1-0.6-0.2c-1.2-0.5-1.5-1.3-1.4-2.6
		c0.1-1.6,0-3.2,0-4.8c0-0.7,0-0.7-0.7-0.7c-3.1,0-6.3,0-9.4,0c-0.3,0-0.7-0.1-0.9-0.3c-1.9-1.2-3.7-2.5-5.5-3.7
		c-0.2-0.1-0.3-0.4-0.5-0.6c0.2-0.1,0.5-0.2,0.7-0.2c5.3,0,10.5,0,15.8,0C40.9,20.5,41.1,20.5,41.4,20.5z"/>
</g>
</svg>
