<svg width="20" height="20" viewBox="0 0 20 20" fill="none" xmlns="http://www.w3.org/2000/svg">
<mask id="path-1-inside-1" fill="white">
<path fill-rule="evenodd" clip-rule="evenodd" d="M0 0.381785C0 0.763053 0.00141475 0.763699 0.862894 0.801826L1.72566 0.840082L1.83408 1.35706C1.89363 1.64139 2.22572 3.38618 2.57196 5.23436C2.9182 7.08254 3.41106 9.69972 3.6674 11.0503C3.9236 12.4009 4.18945 13.8258 4.25814 14.2168C4.32682 14.6077 4.44283 15.233 4.51576 15.6061L4.64849 16.2847H11.649H18.6495V15.8323V15.38H11.9829H5.31627L5.18071 14.6368C5.10598 14.2281 5.07087 13.85 5.10238 13.7967C5.13402 13.7435 8.00694 13.6997 11.4867 13.6994L17.8135 13.699L18.1101 12.31C18.2733 11.5461 18.5461 10.2813 18.7164 9.49939C19.5199 5.81001 19.92 3.91478 19.9583 3.61882L20 3.29571L11.5188 3.23109L3.03756 3.16646L2.87164 2.26176C2.78032 1.76417 2.64257 1.05178 2.56553 0.678528L2.42547 0H1.21273H0V0.381785ZM18.9825 4.36197C18.9137 4.58362 18.2481 7.64901 17.7407 10.081C17.5999 10.7563 17.4342 11.5124 17.3725 11.7612C17.3109 12.0099 17.2247 12.3735 17.1808 12.5689L17.1012 12.9243H11.005H4.90881L4.77505 12.2975C4.70148 11.9528 4.34945 10.1062 3.99267 8.19403C3.63601 6.28188 3.31421 4.58646 3.27743 4.42659L3.21055 4.13579H11.1316C18.6165 4.13579 19.0489 4.1482 18.9825 4.36197ZM6.30225 8.53007V11.2442H6.6881H7.07396V8.53007V5.81595H6.6881H6.30225V8.53007ZM8.36013 8.53007V11.2442H8.74598H9.13183V8.53007V5.81595H8.74598H8.36013V8.53007ZM10.418 8.53007V11.2442H10.8039H11.1897V8.53007V5.81595H10.8039H10.418V8.53007ZM12.4759 8.53007V11.2442H12.8617H13.2476V8.53007V5.81595H12.8617H12.4759V8.53007ZM14.5338 8.53821V11.2606L14.9518 11.22L15.3698 11.1796L15.4045 8.49776L15.4394 5.81595H14.9865H14.5338V8.53821ZM6.21415 17.2431C5.98881 17.345 5.71383 17.6044 5.60322 17.8194C4.80759 19.3654 6.72347 20.7602 7.91961 19.5057C9.00167 18.3708 7.65916 16.5898 6.21415 17.2431ZM15.8842 17.1834C15.5164 17.3363 15.0954 17.8428 15.0006 18.2467C14.8365 18.9451 15.4279 19.8421 16.1412 19.9766C17.008 20.14 17.8778 19.4236 17.8778 18.5464C17.8778 17.5478 16.7927 16.8059 15.8842 17.1834ZM7.30547 18.1199C7.39035 18.2052 7.45981 18.3972 7.45981 18.5464C7.45981 18.6957 7.39035 18.8876 7.30547 18.9729C7.22058 19.0582 7.02958 19.128 6.88103 19.128C6.36759 19.128 6.09582 18.4825 6.45659 18.1199C6.54148 18.0346 6.73248 17.9648 6.88103 17.9648C7.02958 17.9648 7.22058 18.0346 7.30547 18.1199ZM16.774 18.0433C17.0144 18.136 17.0467 18.7483 16.8232 18.9729C16.7383 19.0582 16.5473 19.128 16.3987 19.128C16.2502 19.128 16.0592 19.0582 15.9743 18.9729C15.8894 18.8876 15.8199 18.6957 15.8199 18.5464C15.8199 18.0616 16.2431 17.8386 16.774 18.0433Z"/>
</mask>
<path fill-rule="evenodd" clip-rule="evenodd" d="M0 0.381785C0 0.763053 0.00141475 0.763699 0.862894 0.801826L1.72566 0.840082L1.83408 1.35706C1.89363 1.64139 2.22572 3.38618 2.57196 5.23436C2.9182 7.08254 3.41106 9.69972 3.6674 11.0503C3.9236 12.4009 4.18945 13.8258 4.25814 14.2168C4.32682 14.6077 4.44283 15.233 4.51576 15.6061L4.64849 16.2847H11.649H18.6495V15.8323V15.38H11.9829H5.31627L5.18071 14.6368C5.10598 14.2281 5.07087 13.85 5.10238 13.7967C5.13402 13.7435 8.00694 13.6997 11.4867 13.6994L17.8135 13.699L18.1101 12.31C18.2733 11.5461 18.5461 10.2813 18.7164 9.49939C19.5199 5.81001 19.92 3.91478 19.9583 3.61882L20 3.29571L11.5188 3.23109L3.03756 3.16646L2.87164 2.26176C2.78032 1.76417 2.64257 1.05178 2.56553 0.678528L2.42547 0H1.21273H0V0.381785ZM18.9825 4.36197C18.9137 4.58362 18.2481 7.64901 17.7407 10.081C17.5999 10.7563 17.4342 11.5124 17.3725 11.7612C17.3109 12.0099 17.2247 12.3735 17.1808 12.5689L17.1012 12.9243H11.005H4.90881L4.77505 12.2975C4.70148 11.9528 4.34945 10.1062 3.99267 8.19403C3.63601 6.28188 3.31421 4.58646 3.27743 4.42659L3.21055 4.13579H11.1316C18.6165 4.13579 19.0489 4.1482 18.9825 4.36197ZM6.30225 8.53007V11.2442H6.6881H7.07396V8.53007V5.81595H6.6881H6.30225V8.53007ZM8.36013 8.53007V11.2442H8.74598H9.13183V8.53007V5.81595H8.74598H8.36013V8.53007ZM10.418 8.53007V11.2442H10.8039H11.1897V8.53007V5.81595H10.8039H10.418V8.53007ZM12.4759 8.53007V11.2442H12.8617H13.2476V8.53007V5.81595H12.8617H12.4759V8.53007ZM14.5338 8.53821V11.2606L14.9518 11.22L15.3698 11.1796L15.4045 8.49776L15.4394 5.81595H14.9865H14.5338V8.53821ZM6.21415 17.2431C5.98881 17.345 5.71383 17.6044 5.60322 17.8194C4.80759 19.3654 6.72347 20.7602 7.91961 19.5057C9.00167 18.3708 7.65916 16.5898 6.21415 17.2431ZM15.8842 17.1834C15.5164 17.3363 15.0954 17.8428 15.0006 18.2467C14.8365 18.9451 15.4279 19.8421 16.1412 19.9766C17.008 20.14 17.8778 19.4236 17.8778 18.5464C17.8778 17.5478 16.7927 16.8059 15.8842 17.1834ZM7.30547 18.1199C7.39035 18.2052 7.45981 18.3972 7.45981 18.5464C7.45981 18.6957 7.39035 18.8876 7.30547 18.9729C7.22058 19.0582 7.02958 19.128 6.88103 19.128C6.36759 19.128 6.09582 18.4825 6.45659 18.1199C6.54148 18.0346 6.73248 17.9648 6.88103 17.9648C7.02958 17.9648 7.22058 18.0346 7.30547 18.1199ZM16.774 18.0433C17.0144 18.136 17.0467 18.7483 16.8232 18.9729C16.7383 19.0582 16.5473 19.128 16.3987 19.128C16.2502 19.128 16.0592 19.0582 15.9743 18.9729C15.8894 18.8876 15.8199 18.6957 15.8199 18.5464C15.8199 18.0616 16.2431 17.8386 16.774 18.0433Z" fill="url(#paint0_linear)" stroke="black" stroke-width="0.2" mask="url(#path-1-inside-1)"/>
<defs>
<linearGradient id="paint0_linear" x1="0" y1="10" x2="20" y2="10" gradientUnits="userSpaceOnUse">
<stop stop-color="#9795F0"/>
<stop offset="1" stop-color="#FBC8D4"/>
</linearGradient>
</defs>
</svg>
