<?xml version="1.0" encoding="utf-8"?>
<!-- Generator: Adobe Illustrator 22.0.1, SVG Export Plug-In . SVG Version: 6.00 Build 0)  -->
<svg version="1.1" id="Слой_1" xmlns="http://www.w3.org/2000/svg" xmlns:xlink="http://www.w3.org/1999/xlink" x="0px" y="0px"
	 viewBox="0 0 50 50" style="enable-background:new 0 0 50 50;fill: rgb(245, 73, 102);" xml:space="preserve">
<g>
	<path d="M3.9,25.7c0-3.2,0-6.4,0-9.6c0-0.3-0.1-0.4-0.4-0.6c-1.1-0.6-0.5-0.3-1.6-0.9c-0.5-0.3-0.6-0.5-0.2-1
		c0.3-0.4,0.7-0.9,1-1.3c0.4-0.5,0.6-0.5,1.2-0.2c2.9,1.6,4,2.2,6.9,3.8c12.8,7.1,23.6,13,36.4,20.1c0.9,0.5,0.9,0.6,0.3,1.3
		c-0.3,0.3-0.5,0.7-0.8,1c-0.5,0.6-0.7,0.6-1.3,0.2c-1.4-0.8-0.8-0.4-2.3-1.2c-0.3-0.1-0.6-0.2-0.9-0.2c-11.9,0-23.8,0-35.7,0
		c-1.7,0-2.7-0.8-2.7-2.2C3.9,31.9,3.9,28.8,3.9,25.7C3.9,25.7,3.9,25.7,3.9,25.7z M6.3,16.5c0,3.3,0,14.6,0,18c0,0.8,0,0.8,0.9,0.8
		c10.4,0,20.7,0,31.1,0c0.2,0,0.4,0,0.6,0c0,0,0-0.1,0.1-0.1c-0.2-0.1-0.3-0.2-0.5-0.3c-6.5-3.6-13-7.2-19.5-10.8"/>
	<path d="M43.7,19.3c0-1.1,0-2.1,0-3.1c0-0.4-0.4-0.4-0.7-0.4c-2.7,0-5.3,0-8,0c-5.7,0-11.5,0-17.2,0c-0.3,0-0.7-0.1-1-0.3
		c-0.7-0.3-1.3-0.7-2-1.1c-0.2-0.1-0.3-0.3-0.4-0.4c0.2-0.1,0.4-0.2,0.6-0.2c5.1,0,10.3,0,15.4,0c4.3,0,8.7,0,13,0
		c1.8,0,2.7,0.8,2.7,2.2c0,5,0,9.9,0,14.9c0,0.2-0.1,0.4-0.2,0.6c-0.2-0.1-0.4-0.1-0.6-0.2c-1.3-0.5-1.7-1.2-1.6-2.4
		c0.1-1.5,0-3,0-4.5"/>
</g>
<g>
	<path d="M20.9,17.8c2.1,0,4.3,0,6.4,0c0.3,0,0.6,0.1,0.9,0.1c1.9,0.2,3.5,1.6,4,3.5c0.1,0.4,0.1,0.8,0.2,1.1c0,0.2,0,0.5,0,0.7
		c0,0.3-0.1,0.6-0.1,0.8c-0.5,2.2-2.4,3.8-4.7,3.8c-1.3,0-2.7,0-4,0c-0.1,0-0.2,0-0.3,0c0,0.5,0,0.9,0,1.4c0.1,0,0.2,0,0.3,0
		c1.8,0,3.6,0,5.4,0c0.4,0,0.5,0.1,0.5,0.5c0,0.4,0,0.8,0,1.2c0,0.4-0.1,0.5-0.5,0.5c-1.8,0-3.6,0-5.4,0c-0.1,0-0.2,0-0.3,0
		c0,0.1,0,0.2,0,0.3c0,0.6,0,1.2,0,1.8c0,0.3-0.1,0.5-0.4,0.5c-0.6,0-1.2,0-1.8,0c-0.3,0-0.4-0.1-0.4-0.4c0-0.4,0-0.7,0-1.1
		c0-0.3,0-0.7,0-1.1c-0.1,0-0.2,0-0.3,0c-0.7,0-1.4,0-2.1,0c-0.2,0-0.4-0.1-0.5-0.2c0-0.6,0-1.1,0-1.7c0.1-0.2,0.3-0.3,0.6-0.2
		c0.2,0,0.5,0,0.7,0c0.6,0,1.1,0,1.7,0c0-0.5,0-0.9,0-1.4c-0.1,0-0.2,0-0.3,0c-0.7,0-1.4,0-2.1,0c-0.2,0-0.4-0.1-0.5-0.2
		c0-0.6,0-1.3,0-1.9c0.1-0.2,0.3-0.3,0.5-0.3c0.6,0,1.3,0,1.9,0c0.2,0,0.3,0,0.5,0c0-0.2,0-0.3,0-0.4c0-2.2,0-4.5,0-6.7
		C20.6,18.2,20.6,17.9,20.9,17.8z M23.2,25.5c0.3,0,0.5,0,0.8,0c1.1,0,2.2,0,3.3-0.1c2.1-0.2,2.8-2.3,2-3.8
		c-0.5-0.9-1.4-1.3-2.4-1.3c-1.2,0-2.4,0-3.5,0c-0.1,0-0.1,0-0.2,0C23.2,22.1,23.2,23.8,23.2,25.5z"/>
</g>
<path d="M43.4,13.9c1.3,0,2.4,1,2.4,2.4c0,1.3-1,2.4-2.3,2.4c-1.4,0-2.5-1-2.5-2.4C41.1,15,42.1,13.9,43.4,13.9z"/>
<path d="M6.3,32.2c1.3,0,2.4,1,2.4,2.4c0,1.3-1,2.4-2.3,2.4c-1.4,0-2.5-1-2.5-2.4C3.9,33.3,5,32.2,6.3,32.2z"/>
<path d="M37.1,24c1,0,1.8,0.8,1.8,1.8c0,1-0.8,1.8-1.8,1.9c-1,0-1.9-0.8-1.9-1.8C35.3,24.9,36.1,24,37.1,24z"/>
</svg>
