<?xml version="1.0" encoding="utf-8"?>
<!-- Generator: Adobe Illustrator 22.0.1, SVG Export Plug-In . SVG Version: 6.00 Build 0)  -->
<svg version="1.1" id="Слой_1" xmlns="http://www.w3.org/2000/svg" xmlns:xlink="http://www.w3.org/1999/xlink" x="0px" y="0px"
	 viewBox="0 0 50 50" style="enable-background:new 0 0 50 50;fill: rgb(245, 73, 102);" xml:space="preserve">
<g>
	<path d="M24.9,26.9c1-0.7,1.9-1.3,2.9-2c0.1-0.1,0.3-0.1,0.4-0.2c0.9-0.5,2.1-0.3,2.9,0.4c0.2,0.1,0.3,0.3,0.4,0.4
		c0.1,0.1,0.1,0.2,0.2,0.3c0.1,0.1,0.1,0.3,0.2,0.4c0.5,1.2,0.1,2.4-1,3.2c-0.6,0.4-1.2,0.8-1.8,1.2c0,0-0.1,0.1-0.1,0.1
		c0.2,0.2,0.3,0.4,0.4,0.6c0.1,0,0.1-0.1,0.2-0.1c0.8-0.5,1.6-1.1,2.4-1.6c0.2-0.1,0.3-0.1,0.4,0.1c0.1,0.2,0.2,0.4,0.4,0.5
		c0.1,0.2,0.1,0.3-0.1,0.4c-0.8,0.5-1.6,1.1-2.4,1.6c0,0-0.1,0.1-0.2,0.1c0,0.1,0.1,0.1,0.1,0.2c0.2,0.3,0.4,0.5,0.5,0.8
		c0.1,0.1,0.1,0.3,0,0.3c-0.3,0.2-0.5,0.4-0.8,0.5c-0.1,0.1-0.2,0.1-0.3-0.1c-0.1-0.2-0.2-0.3-0.3-0.5c-0.1-0.2-0.2-0.3-0.3-0.5
		c-0.1,0-0.1,0.1-0.2,0.1c-0.3,0.2-0.6,0.4-1,0.6c-0.1,0.1-0.2,0.1-0.3,0.1c-0.2-0.3-0.3-0.5-0.5-0.8c0-0.1,0.1-0.2,0.2-0.3
		c0.1-0.1,0.2-0.1,0.3-0.2c0.3-0.2,0.5-0.3,0.8-0.5c-0.1-0.2-0.3-0.4-0.4-0.6c-0.1,0-0.1,0.1-0.1,0.1c-0.3,0.2-0.6,0.4-1,0.6
		c-0.1,0.1-0.2,0.1-0.3,0.1c-0.2-0.3-0.4-0.6-0.6-0.8c0-0.1,0-0.2,0.1-0.3c0.3-0.2,0.6-0.4,0.9-0.6c0.1-0.1,0.2-0.1,0.2-0.2
		c0-0.1-0.1-0.1-0.1-0.2c-0.7-1-1.4-2-2-3C24.8,27.1,24.8,27,24.9,26.9z M28.2,29.6c0.1-0.1,0.2-0.2,0.4-0.2c0.5-0.3,1-0.7,1.5-1
		c0.9-0.7,0.6-1.9-0.3-2.3c-0.5-0.3-1-0.2-1.5,0.1c-0.5,0.3-1.1,0.7-1.6,1.1c0,0-0.1,0-0.1,0.1C27.2,28.1,27.7,28.8,28.2,29.6z"/>
</g>
<g>
	<path d="M18.4,46.8c-0.5-0.7-1-1.5-1.5-2.2c-0.2-0.3-0.4-0.5-0.7-0.7c-2.9-1.6-5.8-3.2-8.7-4.9c-2.2-1.2-4.3-2.4-6.5-3.6
		C6.8,25.1,12.6,14.7,18.4,4.2c2.7,1.5,5.5,3,8.2,4.6c0.5-0.6,1-1.2,1.5-1.8c2.7,2.2,5.5,4.5,8.2,6.7c1-0.6,1.9-1.2,2.8-1.8
		c3.3,5,6.5,10,9.8,15C38.8,33.5,28.6,40.2,18.4,46.8z M2.6,35c3.3,1.8,6.6,3.6,9.8,5.4c0,0,0-0.1,0.1-0.1c-2.3-1.9-4.7-3.8-7-5.7
		C12.3,26.3,19,18.1,25.9,9.8c-2.4-1.3-4.7-2.6-7-3.9C13.4,15.6,8.1,25.3,2.6,35z M28.3,8.7c-6,7.3-11.9,14.5-17.8,21.7
		c0,0,0.1,0.1,0.1,0.1c8.2-5.3,16.4-10.7,24.7-16.1C33,12.5,30.7,10.6,28.3,8.7z M35,29.3c0-3.4-2.7-6.1-6.1-6.1
		c-3.7,0-6.2,2.7-6.3,6.1c-0.1,3.4,2.7,6.2,6.1,6.2C32.3,35.5,35,32.8,35,29.3z M13.5,39.6c0,0,0.1-0.1,0.1-0.1
		c-1.6-2.4-3.1-4.8-4.7-7.2c-0.6,0.7-1.2,1.4-1.7,2.1C9.3,36.2,11.4,37.9,13.5,39.6z"/>
</g>
</svg>
