<?xml version="1.0" encoding="utf-8"?>
<!-- Generator: Adobe Illustrator 22.0.1, SVG Export Plug-In . SVG Version: 6.00 Build 0)  -->
<svg version="1.1" id="Слой_1" xmlns="http://www.w3.org/2000/svg" xmlns:xlink="http://www.w3.org/1999/xlink" x="0px" y="0px"
	 viewBox="0 0 50 50" style="enable-background:new 0 0 50 50;fill: rgb(245, 73, 102);" xml:space="preserve">
<path d="M46.4,39l-44-24.3c-0.2-0.1-0.3-0.4-0.2-0.6L3.3,12c0.1-0.2,0.4-0.3,0.6-0.2l44,24.3c0.2,0.1,0.3,0.4,0.2,0.6l-1.2,2.1
	C46.8,39,46.5,39.1,46.4,39z"/>
<g>
	<path d="M16.6,42.3c-0.7,0-1.4-0.1-2.1-0.1c-3.7-0.1-7.4-0.3-11-1.2c-0.8-0.2-1.6-0.4-2.1-1.2c0-0.1,0-0.2,0-0.3
		c0.4-0.4,0.8-0.9,1.3-1.2c1.3-0.7,2.6-1.3,4-1.8c3.5-1.3,7.1-2.5,10.9-2.9c1.9-0.2,3.6-0.7,4.9-2.2c1-1.2,2.1-2.4,3-3.7
		c4-6,8.8-11.4,13.3-17c0.8-0.9,1.8-1.7,2.6-2.5c0.6-0.6,0.9-0.7,1.4,0c0.6,0.7,1.1,1.5,1.6,2.3c1.9,3,2.8,6.3,1.8,9.8
		c-0.9,3-1.4,6.1-1.5,9.2c-0.1,2.7-0.1,5.4-0.2,8.2c0,1,0,2,0,3c0,0.6-0.3,0.8-0.8,0.9C43,41.6,43.1,41,43,40.6c0-0.2,0-0.4,0-0.6
		c0.1-3.5,0.2-7.1,0.3-10.6c0-1.1-0.1-2.3-0.2-3.4c0-0.6-0.3-1-1-1.1c-2.1-0.5-3.8,0.3-5.3,1.7c-1.9,1.8-3,4.1-4.1,6.4
		c-1,2.1-2.2,4.1-3.4,6.1c-0.8,1.4-2,2.5-3.7,2.9c-0.4,0.1-0.8,0.2-1.3,0.3C21.8,42.3,19.2,42.3,16.6,42.3z M21,37.6
		c0.8-0.2,1.6-0.8,2.1-1.4c1.8-2.3,3.5-4.6,5.1-7.1c3.6-5.5,7.2-11,10.7-16.6c0,0,0-0.1,0-0.3c-0.8,1.1-1.6,2-2.3,3
		c-3.1,3.9-6.2,7.7-9.3,11.6c-1.4,1.8-2.8,3.7-4.2,5.6c-1.4,1.9-3.5,2.4-5.7,2.6c-1,0.1-2,0.2-3,0.4c0,0.1,0,0.2,0,0.2
		C16.4,37,18.4,38.3,21,37.6z"/>
</g>
</svg>
