<?xml version="1.0" encoding="utf-8"?>
<!-- Generator: Adobe Illustrator 22.0.1, SVG Export Plug-In . SVG Version: 6.00 Build 0)  -->
<svg version="1.1" id="Слой_1" xmlns="http://www.w3.org/2000/svg" xmlns:xlink="http://www.w3.org/1999/xlink" x="0px" y="0px"
	 viewBox="0 0 50 50" style="enable-background:new 0 0 50 50;fill: #654670;" xml:space="preserve">
<g>
	<path d="M24.5,42.3c-0.4-0.1-0.8-0.2-1.3-0.3c-1.7-0.4-2.8-1.6-3.7-2.9c-1.2-2-2.3-4-3.4-6.1c-1.1-2.3-2.2-4.6-4.1-6.4
		c-1.5-1.4-3.2-2.2-5.3-1.7c-0.7,0.1-0.9,0.5-1,1.1c-0.1,1.1-0.2,2.3-0.2,3.4C5.8,33,5.9,36.5,6,40.1c0,0.2,0,0.4,0,0.6
		c-0.1,0.4,0,0.9-0.6,0.8c-0.5-0.1-0.8-0.3-0.8-0.9c0-1,0-2,0-3c0-2.7,0-5.5-0.2-8.2c-0.2-3.1-0.6-6.1-1.5-9.2
		c-1.1-3.5-0.2-6.8,1.8-9.8c0.5-0.8,1.1-1.5,1.6-2.3c0.5-0.6,0.8-0.6,1.4,0c0.8,0.9,1.9,1.6,2.6,2.5c4.5,5.6,9.4,10.9,13.3,17
		c0.9,1.3,2,2.5,3,3.7c1.3,1.5,3.1,2,4.9,2.2c3.8,0.4,7.3,1.6,10.9,2.9c1.4,0.5,2.7,1.1,4,1.8c0.5,0.3,0.9,0.8,1.3,1.2
		c0,0.1,0,0.2,0,0.3c-0.5,0.8-1.3,1-2.1,1.2c-3.6,0.8-7.3,1.1-11,1.2c-0.7,0-1.4,0.1-2.1,0.1C29.8,42.3,27.2,42.3,24.5,42.3z
		 M34.5,35.6c0-0.1,0-0.2,0-0.2c-1-0.1-2-0.3-3-0.4c-2.2-0.1-4.3-0.7-5.7-2.6c-1.4-1.8-2.8-3.7-4.2-5.6c-3.1-3.9-6.2-7.7-9.3-11.6
		c-0.8-1-1.5-1.9-2.3-3c0,0.2,0,0.3,0,0.3c3.6,5.5,7.1,11.1,10.7,16.6c1.6,2.4,3.3,4.8,5.1,7.1c0.5,0.6,1.4,1.2,2.1,1.4
		C30.6,38.3,32.6,37,34.5,35.6z"/>
</g>
</svg>
