<svg xmlns="http://www.w3.org/2000/svg" xmlns:xlink="http://www.w3.org/1999/xlink" width="20" height="20">
    <path fill="rgb(255, 255, 255)" d="M19.915,0.554 C19.753,0.189 19.469,-0.000 19.078,-0.000 L0.922,-0.000 C0.531,-0.000 0.247,0.189 0.085,0.554 C-0.076,0.945 -0.009,1.269 0.288,1.553 L7.289,8.562 L7.289,15.463 C7.289,15.706 7.383,15.922 7.558,16.097 L11.187,19.730 C11.362,19.906 11.565,20.000 11.821,20.000 C11.929,20.000 12.050,19.973 12.172,19.933 C12.536,19.770 12.725,19.487 12.725,19.095 L12.725,8.562 L19.726,1.553 C20.009,1.283 20.076,0.945 19.915,0.554 Z"/>
</svg>