<svg width="15" height="23" viewBox="0 0 15 23" fill="none" xmlns="http://www.w3.org/2000/svg">
<path d="M13.927 22.0824H13.977V22.0324V11.4628V0.893204V0.843204H13.927H7.5H1.073H1.023V0.893204V11.4628V22.0324V22.0824H1.073H7.5H13.927ZM11.6767 10.8171L11.6767 10.8171C11.7759 10.7009 11.9557 10.6335 12.1465 10.6268C12.3372 10.6201 12.5246 10.6744 12.6373 10.7841C12.783 10.9258 12.8377 11.1596 12.8069 11.3798C12.7761 11.601 12.6623 11.7897 12.4939 11.8532C12.1812 11.9712 11.8709 11.8378 11.6906 11.6073C11.5104 11.377 11.4682 11.0616 11.6767 10.8171ZM0.128178 22.95L0.0891745 11.4998L0.0501706 0.05H7.5H14.9498L14.9108 11.4998L14.8718 22.95H7.5H0.128178Z" fill="url(#paint0_linear)" stroke="black" stroke-width="0.1"/>
<defs>
<linearGradient id="paint0_linear" x1="0" y1="11.5" x2="15" y2="11.5" gradientUnits="userSpaceOnUse">
<stop stop-color="#9795F0"/>
<stop offset="1" stop-color="#FBC8D4"/>
</linearGradient>
</defs>
</svg>
