<?xml version="1.0" encoding="utf-8"?>
<!-- Generator: Adobe Illustrator 22.0.1, SVG Export Plug-In . SVG Version: 6.00 Build 0)  -->
<svg version="1.1" id="Слой_1" xmlns="http://www.w3.org/2000/svg" xmlns:xlink="http://www.w3.org/1999/xlink" x="0px" y="0px"
	 viewBox="0 0 50 50" style="enable-background:new 0 0 50 50;fill: rgb(245, 73, 102)" xml:space="preserve">
<g>
	<path d="M26.7,50.3c-0.5-0.3-0.7-0.7-0.6-1.2c0-0.4-0.1-0.7-0.3-0.9c-1.7-2-2.9-4.3-3.5-6.8c-0.3-1.3-0.4-2.7-0.5-4.1
		c-0.2-2.1-0.5-4.2-1-6.3c-0.3-1-0.3-2.1-0.2-3.2c0.3-1.8,1.5-2.1,2.8-1.2c0.9,0.7,1.4,1.7,1.7,2.8c0.3,0.8,0.4,1.7,0.6,2.5
		c0.2,0.6,0.4,1.2,0.7,1.8c0.4,0.7,0.9,1.3,1.4,2c0,0,0.1-0.1,0.1-0.1c0-9.3,0-18.7,0-28c-1,0.1-1.9-0.1-2.7-0.8
		c-0.7-0.7-1-1.6-0.9-2.7c-3.1,0-6.1,0-9.2,0c0.1,1-0.1,1.9-0.9,2.6c-0.7,0.7-1.6,1-2.7,0.9c0,7.5,0,14.9,0,22.4
		c1.1-0.2,2.1,0,2.9,0.9c0.8,0.8,1,1.8,0.8,2.9c0.9,0,1.7,0,2.6,0c0.5,0,0.7,0.2,0.7,0.6c0,0.6,0.1,1.3,0.2,1.9c-0.1,0-0.3,0-0.4,0
		c-2.1,0-4.1,0-6.2,0c-1.6,0-2.7-0.8-3.1-2.3c-0.1-0.4-0.1-0.8-0.1-1.1c0-9.3,0-18.7,0-28c0-2.2,1.2-3.4,3.4-3.4c4.9,0,9.8,0,14.8,0
		c2.2,0,3.4,1.2,3.4,3.4c0,5.2,0,10.4,0,15.6c0,0.3,0.1,0.5,0.4,0.7c1.4,1.3,2.7,2.6,4.1,3.9c1.3,1.2,2.5,2.5,3.7,3.8
		c0.5,0.5,0.8,1.2,0.8,1.9c0.1,0.8-0.1,1.7-0.3,2.5c-0.4,1.6-0.7,3.3-1,4.9c-0.5,3.6-0.9,7.3-1.4,10.9c-0.1,0.5-0.2,0.9-0.6,1.1
		C33.1,50.3,29.9,50.3,26.7,50.3z"/>
	<path d="M20.2,7.7c1,0,1.8,0.8,1.8,1.8c0,1-0.8,1.8-1.8,1.9c-1,0-1.9-0.8-1.9-1.8C18.4,8.5,19.2,7.7,20.2,7.7z"/>
</g>
<g>
	<path d="M14,22.2c0-1.6,0-3.1,0-4.7c0-0.2,0.1-0.4,0.1-0.6c0.2-1.4,1.2-2.5,2.5-2.9c0.3-0.1,0.5-0.1,0.8-0.2c0.2,0,0.3,0,0.5,0
		c0.2,0,0.4,0.1,0.6,0.1c1.6,0.4,2.8,1.7,2.8,3.4c0,1,0,1.9,0,2.9c0,0.1,0,0.2,0,0.2c0.4,0,0.7,0,1,0c0-0.1,0-0.2,0-0.2
		c0-1.3,0-2.6,0-3.9c0-0.3,0.1-0.4,0.4-0.4c0.3,0,0.6,0,0.8,0c0.3,0,0.4,0.1,0.4,0.4c0,1.3,0,2.6,0,3.9c0,0.1,0,0.1,0,0.2
		c0.1,0,0.2,0,0.2,0c0.4,0,0.9,0,1.3,0c0.2,0,0.3,0.1,0.3,0.3c0,0.4,0,0.9,0,1.3c0,0.2-0.1,0.3-0.3,0.3c-0.3,0-0.5,0-0.8,0
		c-0.3,0-0.5,0-0.8,0c0,0.1,0,0.2,0,0.2c0,0.5,0,1,0,1.5c0,0.2,0,0.3-0.2,0.4c-0.4,0-0.8,0-1.2,0c-0.1-0.1-0.2-0.2-0.2-0.4
		c0-0.2,0-0.3,0-0.5c0-0.4,0-0.8,0-1.2c-0.4,0-0.7,0-1,0c0,0.1,0,0.2,0,0.2c0,0.5,0,1,0,1.5c0,0.2,0,0.3-0.2,0.4c-0.5,0-0.9,0-1.4,0
		c-0.2-0.1-0.2-0.2-0.2-0.4c0-0.5,0-0.9,0-1.4c0-0.1,0-0.2,0-0.4c-0.1,0-0.2,0-0.3,0c-1.6,0-3.3,0-4.9,0
		C14.3,22.5,14.1,22.4,14,22.2z M19.6,20.5c0-0.2,0-0.4,0-0.6c0-0.8,0-1.6,0-2.4c-0.1-1.6-1.7-2-2.8-1.5c-0.7,0.4-1,1-1,1.7
		c0,0.9,0,1.7,0,2.6c0,0.1,0,0.1,0,0.2C17.1,20.5,18.3,20.5,19.6,20.5z"/>
</g>
</svg>
