<svg width="18" height="18" viewBox="0 0 18 18" fill="none" xmlns="http://www.w3.org/2000/svg">
<path d="M3.70014 0.314318L3.70014 0.314317C4.28215 0.102437 5.04718 0.0281188 5.82427 0.0819862C6.60107 0.135834 7.38522 0.317453 8.00499 0.613441L8.97744 1.07789L8.99899 1.08818L9.02053 1.07789L9.96519 0.626835L9.9652 0.626832C13.9033 -1.25427 18.3069 1.7096 17.927 5.97809C17.8141 7.24786 17.1028 8.86184 15.9184 10.6237C14.7348 12.3842 13.0821 14.2876 11.0928 16.1353C10.5518 16.6377 10.0424 17.0943 9.65732 17.4251C9.46473 17.5906 9.30367 17.7242 9.18556 17.8163C9.1264 17.8625 9.0787 17.8976 9.04353 17.9211C9.02585 17.9329 9.01225 17.9411 9.00248 17.9461C9.00119 17.9468 9.00003 17.9474 8.99899 17.9479C8.99794 17.9474 8.99678 17.9468 8.9955 17.9461C8.98572 17.9411 8.97212 17.9329 8.95445 17.9211C8.91928 17.8976 8.87158 17.8625 8.81242 17.8163C8.6943 17.7242 8.53325 17.5906 8.34066 17.4251C7.95562 17.0943 7.44614 16.6377 6.90521 16.1353C4.91592 14.2876 3.26313 12.3842 2.07956 10.6237C0.895132 8.86184 0.18392 7.24786 0.070963 5.97809C-0.147604 3.52224 1.36242 1.16521 3.70014 0.314318ZM8.99899 2.83839L8.05465 2.18165C7.65471 1.90349 7.34597 1.72819 6.99718 1.61642C6.64887 1.5048 6.26375 1.45755 5.71267 1.4307C4.49759 1.37144 3.47399 1.68954 2.73229 2.31674C1.99036 2.94414 1.53529 3.87682 1.45022 5.03721C1.39033 5.85407 1.46359 6.55468 1.73783 7.32578C2.01156 8.09545 2.48487 8.93343 3.22171 10.026C3.83101 10.9295 5.14695 12.4542 6.36919 13.7517C6.98064 14.4008 7.56964 14.9941 8.03629 15.4254C8.26951 15.6409 8.47294 15.8167 8.63375 15.9389C8.71408 16 8.78479 16.0484 8.84392 16.0818C8.90055 16.1139 8.95464 16.1369 8.99899 16.1369C9.04334 16.1369 9.09743 16.1139 9.15406 16.0818C9.21319 16.0484 9.2839 16 9.36422 15.9389C9.52504 15.8167 9.72847 15.6409 9.96168 15.4254C10.4283 14.9941 11.0173 14.4008 11.6288 13.7517C12.851 12.4542 14.167 10.9295 14.7763 10.026C15.5131 8.93343 15.9864 8.09545 16.2601 7.32578C16.5344 6.55468 16.6077 5.85407 16.5478 5.03721C16.5132 4.56687 16.4537 4.20488 16.3454 3.88669C16.2368 3.56787 16.08 3.29529 15.8537 3.00263C14.4569 1.19554 11.8716 0.840445 9.93772 2.18548L8.99899 2.83839Z" fill="url(#paint0_linear)" stroke="black" stroke-width="0.1"/>
<defs>
<linearGradient id="paint0_linear" x1="0" y1="9" x2="18" y2="9" gradientUnits="userSpaceOnUse">
<stop stop-color="#9795F0"/>
<stop offset="1" stop-color="#FBC8D4"/>
</linearGradient>
</defs>
</svg>
