<svg width="62" height="31" viewBox="0 0 62 31" fill="none" xmlns="http://www.w3.org/2000/svg">
<rect width="62" height="31" rx="15.5" fill="url(#paint0_linear)"/>
<path d="M13.261 9.61414C13.6677 9.72747 13.981 9.93081 14.201 10.2241C14.4277 10.5175 14.541 10.8841 14.541 11.3241C14.541 11.9308 14.331 12.4041 13.911 12.7441C13.4977 13.0775 12.9177 13.2441 12.171 13.2441H9.62102C9.46102 13.2441 9.33435 13.2008 9.24102 13.1141C9.15435 13.0208 9.11102 12.8975 9.11102 12.7441V6.69414C9.11102 6.54081 9.15435 6.42081 9.24102 6.33414C9.33435 6.24081 9.46102 6.19414 9.62102 6.19414H12.061C12.7877 6.19414 13.3543 6.35747 13.761 6.68414C14.1743 7.00414 14.381 7.45414 14.381 8.03414C14.381 8.40747 14.281 8.73081 14.081 9.00414C13.8877 9.27747 13.6143 9.48081 13.261 9.61414ZM10.121 9.24414H11.901C12.8877 9.24414 13.381 8.87081 13.381 8.12414C13.381 7.75081 13.2577 7.47414 13.011 7.29414C12.771 7.11414 12.401 7.02414 11.901 7.02414H10.121V9.24414ZM12.061 12.4141C12.5743 12.4141 12.951 12.3208 13.191 12.1341C13.431 11.9475 13.551 11.6575 13.551 11.2641C13.551 10.8641 13.4277 10.5675 13.181 10.3741C12.941 10.1741 12.5677 10.0741 12.061 10.0741H10.121V12.4141H12.061ZM16.3984 13.2441C16.2384 13.2441 16.1117 13.2008 16.0184 13.1141C15.9317 13.0208 15.8884 12.8975 15.8884 12.7441V6.69414C15.8884 6.54081 15.9317 6.42081 16.0184 6.33414C16.1117 6.24081 16.2384 6.19414 16.3984 6.19414H20.0784C20.2317 6.19414 20.3484 6.23081 20.4284 6.30414C20.515 6.37747 20.5584 6.48081 20.5584 6.61414C20.5584 6.74747 20.515 6.85081 20.4284 6.92414C20.3484 6.99081 20.2317 7.02414 20.0784 7.02414H16.8984V9.24414H19.8784C20.0317 9.24414 20.1484 9.28081 20.2284 9.35414C20.315 9.42747 20.3584 9.53081 20.3584 9.66414C20.3584 9.79747 20.315 9.90081 20.2284 9.97414C20.1484 10.0475 20.0317 10.0841 19.8784 10.0841H16.8984V12.4141H20.0784C20.3984 12.4141 20.5584 12.5508 20.5584 12.8241C20.5584 12.9575 20.515 13.0608 20.4284 13.1341C20.3484 13.2075 20.2317 13.2441 20.0784 13.2441H16.3984ZM23.9703 13.3241C23.4636 13.3241 22.9803 13.2541 22.5203 13.1141C22.067 12.9741 21.7036 12.7808 21.4303 12.5341C21.3036 12.4275 21.2403 12.2908 21.2403 12.1241C21.2403 12.0041 21.2736 11.9041 21.3403 11.8241C21.407 11.7375 21.487 11.6941 21.5803 11.6941C21.6736 11.6941 21.787 11.7375 21.9203 11.8241C22.5136 12.2641 23.1903 12.4841 23.9503 12.4841C24.4836 12.4841 24.8936 12.3841 25.1803 12.1841C25.467 11.9841 25.6103 11.6975 25.6103 11.3241C25.6103 11.0308 25.477 10.8108 25.2103 10.6641C24.9436 10.5175 24.517 10.3775 23.9303 10.2441C23.3703 10.1241 22.9103 9.98747 22.5503 9.83414C22.1903 9.68081 21.907 9.47414 21.7003 9.21414C21.5003 8.94747 21.4003 8.61081 21.4003 8.20414C21.4003 7.79747 21.5103 7.43747 21.7303 7.12414C21.957 6.80414 22.2703 6.55747 22.6703 6.38414C23.0703 6.20414 23.527 6.11414 24.0403 6.11414C24.5136 6.11414 24.9503 6.18081 25.3503 6.31414C25.7503 6.44747 26.0903 6.64414 26.3703 6.90414C26.5036 7.01747 26.5703 7.15414 26.5703 7.31414C26.5703 7.42747 26.5336 7.52747 26.4603 7.61414C26.3936 7.70081 26.3136 7.74414 26.2203 7.74414C26.1336 7.74414 26.0236 7.70081 25.8903 7.61414C25.5836 7.38081 25.2936 7.21414 25.0203 7.11414C24.7536 7.00747 24.4303 6.95414 24.0503 6.95414C23.537 6.95414 23.137 7.06081 22.8503 7.27414C22.5636 7.48081 22.4203 7.77081 22.4203 8.14414C22.4203 8.46414 22.547 8.70747 22.8003 8.87414C23.0536 9.03414 23.4603 9.18081 24.0203 9.31414C24.607 9.44747 25.0803 9.58747 25.4403 9.73414C25.807 9.87414 26.097 10.0708 26.3103 10.3241C26.5303 10.5708 26.6403 10.8908 26.6403 11.2841C26.6403 11.6841 26.527 12.0408 26.3003 12.3541C26.0803 12.6608 25.767 12.9008 25.3603 13.0741C24.9603 13.2408 24.497 13.3241 23.9703 13.3241ZM29.9634 13.2941C29.81 13.2941 29.6834 13.2475 29.5834 13.1541C29.49 13.0541 29.4434 12.9275 29.4434 12.7741V7.05414H27.4434C27.1234 7.05414 26.9634 6.91081 26.9634 6.62414C26.9634 6.48414 27.0034 6.37747 27.0834 6.30414C27.17 6.23081 27.29 6.19414 27.4434 6.19414H32.4834C32.6367 6.19414 32.7534 6.23081 32.8334 6.30414C32.92 6.37747 32.9634 6.48414 32.9634 6.62414C32.9634 6.91081 32.8034 7.05414 32.4834 7.05414H30.4834V12.7741C30.4834 12.9275 30.4367 13.0541 30.3434 13.1541C30.25 13.2475 30.1234 13.2941 29.9634 13.2941Z" fill="white"/>
<path d="M11.441 24.1381C10.9343 24.1381 10.451 24.0681 9.99102 23.9281C9.53768 23.7881 9.17435 23.5948 8.90102 23.3481C8.77435 23.2414 8.71102 23.1048 8.71102 22.9381C8.71102 22.8181 8.74435 22.7181 8.81102 22.6381C8.87768 22.5514 8.95768 22.5081 9.05102 22.5081C9.14435 22.5081 9.25768 22.5514 9.39102 22.6381C9.98435 23.0781 10.661 23.2981 11.421 23.2981C11.9543 23.2981 12.3643 23.1981 12.651 22.9981C12.9377 22.7981 13.081 22.5114 13.081 22.1381C13.081 21.8448 12.9477 21.6248 12.681 21.4781C12.4143 21.3314 11.9877 21.1914 11.401 21.0581C10.841 20.9381 10.381 20.8014 10.021 20.6481C9.66102 20.4948 9.37768 20.2881 9.17102 20.0281C8.97102 19.7614 8.87102 19.4248 8.87102 19.0181C8.87102 18.6114 8.98102 18.2514 9.20102 17.9381C9.42768 17.6181 9.74102 17.3714 10.141 17.1981C10.541 17.0181 10.9977 16.9281 11.511 16.9281C11.9843 16.9281 12.421 16.9948 12.821 17.1281C13.221 17.2614 13.561 17.4581 13.841 17.7181C13.9743 17.8314 14.041 17.9681 14.041 18.1281C14.041 18.2414 14.0043 18.3414 13.931 18.4281C13.8643 18.5148 13.7843 18.5581 13.691 18.5581C13.6043 18.5581 13.4943 18.5148 13.361 18.4281C13.0543 18.1948 12.7643 18.0281 12.491 17.9281C12.2243 17.8214 11.901 17.7681 11.521 17.7681C11.0077 17.7681 10.6077 17.8748 10.321 18.0881C10.0343 18.2948 9.89102 18.5848 9.89102 18.9581C9.89102 19.2781 10.0177 19.5214 10.271 19.6881C10.5243 19.8481 10.931 19.9948 11.491 20.1281C12.0777 20.2614 12.551 20.4014 12.911 20.5481C13.2777 20.6881 13.5677 20.8848 13.781 21.1381C14.001 21.3848 14.111 21.7048 14.111 22.0981C14.111 22.4981 13.9977 22.8548 13.771 23.1681C13.551 23.4748 13.2377 23.7148 12.831 23.8881C12.431 24.0548 11.9677 24.1381 11.441 24.1381ZM15.8905 24.0581C15.7305 24.0581 15.6039 24.0148 15.5105 23.9281C15.4239 23.8348 15.3805 23.7114 15.3805 23.5581V17.5081C15.3805 17.3548 15.4239 17.2348 15.5105 17.1481C15.6039 17.0548 15.7305 17.0081 15.8905 17.0081H19.5705C19.7239 17.0081 19.8405 17.0448 19.9205 17.1181C20.0072 17.1914 20.0505 17.2948 20.0505 17.4281C20.0505 17.5614 20.0072 17.6648 19.9205 17.7381C19.8405 17.8048 19.7239 17.8381 19.5705 17.8381H16.3905V20.0581H19.3705C19.5239 20.0581 19.6405 20.0948 19.7205 20.1681C19.8072 20.2414 19.8505 20.3448 19.8505 20.4781C19.8505 20.6114 19.8072 20.7148 19.7205 20.7881C19.6405 20.8614 19.5239 20.8981 19.3705 20.8981H16.3905V23.2281H19.5705C19.8905 23.2281 20.0505 23.3648 20.0505 23.6381C20.0505 23.7714 20.0072 23.8748 19.9205 23.9481C19.8405 24.0214 19.7239 24.0581 19.5705 24.0581H15.8905ZM21.7302 24.0581C21.5768 24.0581 21.4535 24.0148 21.3602 23.9281C21.2735 23.8414 21.2302 23.7248 21.2302 23.5781V17.4781C21.2302 17.3248 21.2768 17.2014 21.3702 17.1081C21.4635 17.0081 21.5868 16.9581 21.7402 16.9581C21.9002 16.9581 22.0268 17.0048 22.1202 17.0981C22.2135 17.1914 22.2602 17.3181 22.2602 17.4781V23.1981H25.3002C25.4535 23.1981 25.5702 23.2348 25.6502 23.3081C25.7368 23.3814 25.7802 23.4881 25.7802 23.6281C25.7802 23.7681 25.7368 23.8748 25.6502 23.9481C25.5702 24.0214 25.4535 24.0581 25.3002 24.0581H21.7302ZM27.1989 24.0581C27.0456 24.0581 26.9222 24.0148 26.8289 23.9281C26.7422 23.8414 26.6989 23.7248 26.6989 23.5781V17.4781C26.6989 17.3248 26.7456 17.2014 26.8389 17.1081C26.9322 17.0081 27.0556 16.9581 27.2089 16.9581C27.3689 16.9581 27.4956 17.0048 27.5889 17.0981C27.6822 17.1914 27.7289 17.3181 27.7289 17.4781V23.1981H30.7689C30.9222 23.1981 31.0389 23.2348 31.1189 23.3081C31.2056 23.3814 31.2489 23.4881 31.2489 23.6281C31.2489 23.7681 31.2056 23.8748 31.1189 23.9481C31.0389 24.0214 30.9222 24.0581 30.7689 24.0581H27.1989ZM32.6777 24.0581C32.5177 24.0581 32.391 24.0148 32.2977 23.9281C32.211 23.8348 32.1677 23.7114 32.1677 23.5581V17.5081C32.1677 17.3548 32.211 17.2348 32.2977 17.1481C32.391 17.0548 32.5177 17.0081 32.6777 17.0081H36.3577C36.511 17.0081 36.6277 17.0448 36.7077 17.1181C36.7943 17.1914 36.8377 17.2948 36.8377 17.4281C36.8377 17.5614 36.7943 17.6648 36.7077 17.7381C36.6277 17.8048 36.511 17.8381 36.3577 17.8381H33.1777V20.0581H36.1577C36.311 20.0581 36.4277 20.0948 36.5077 20.1681C36.5943 20.2414 36.6377 20.3448 36.6377 20.4781C36.6377 20.6114 36.5943 20.7148 36.5077 20.7881C36.4277 20.8614 36.311 20.8981 36.1577 20.8981H33.1777V23.2281H36.3577C36.6777 23.2281 36.8377 23.3648 36.8377 23.6381C36.8377 23.7714 36.7943 23.8748 36.7077 23.9481C36.6277 24.0214 36.511 24.0581 36.3577 24.0581H32.6777ZM43.5173 23.4181C43.5773 23.5048 43.6073 23.5981 43.6073 23.6981C43.6073 23.8181 43.5573 23.9214 43.4573 24.0081C43.3639 24.0881 43.2539 24.1281 43.1273 24.1281C42.9406 24.1281 42.7906 24.0448 42.6773 23.8781L41.3373 21.7981C41.1839 21.5581 41.0206 21.3914 40.8473 21.2981C40.6739 21.1981 40.4473 21.1481 40.1673 21.1481H39.0373V23.5881C39.0373 23.7481 38.9906 23.8748 38.8973 23.9681C38.8106 24.0614 38.6873 24.1081 38.5273 24.1081C38.3739 24.1081 38.2506 24.0614 38.1573 23.9681C38.0639 23.8748 38.0173 23.7481 38.0173 23.5881V17.5081C38.0173 17.3548 38.0606 17.2348 38.1473 17.1481C38.2406 17.0548 38.3673 17.0081 38.5273 17.0081H41.0173C41.7973 17.0081 42.3906 17.1814 42.7973 17.5281C43.2106 17.8748 43.4173 18.3814 43.4173 19.0481C43.4173 19.6014 43.2606 20.0514 42.9473 20.3981C42.6339 20.7381 42.1873 20.9548 41.6073 21.0481C41.7806 21.0948 41.9373 21.1781 42.0773 21.2981C42.2173 21.4181 42.3539 21.5848 42.4873 21.7981L43.5173 23.4181ZM40.8973 20.3181C41.4173 20.3181 41.8006 20.2181 42.0473 20.0181C42.3006 19.8114 42.4273 19.4948 42.4273 19.0681C42.4273 18.6414 42.3039 18.3314 42.0573 18.1381C41.8106 17.9381 41.4239 17.8381 40.8973 17.8381H39.0273V20.3181H40.8973Z" fill="white"/>
<path d="M43.9302 8.56916H40.1311L38.9651 5L37.7991 8.56916H34L37.1075 10.7653L35.8973 14.3344L38.9651 12.1225L42.0329 14.3344L40.8204 10.7653L43.9302 8.56916Z" fill="white"/>
<defs>
<linearGradient id="paint0_linear" x1="0" y1="15.5" x2="62" y2="15.5" gradientUnits="userSpaceOnUse">
<stop stop-color="#FF0844"/>
<stop offset="1" stop-color="#FFB199"/>
</linearGradient>
</defs>
</svg>
