<svg width="28" height="28" viewBox="0 0 28 28" fill="none" xmlns="http://www.w3.org/2000/svg">
<path d="M8.42818 14.0925C9.60283 16.494 11.5495 18.4318 13.9563 19.5955C14.1324 19.679 14.3272 19.7151 14.5215 19.7004C14.7158 19.6857 14.9029 19.6207 15.0645 19.5117L18.6083 17.1485C18.7651 17.044 18.9454 16.9803 19.133 16.963C19.3206 16.9458 19.5095 16.9756 19.6827 17.0499L26.3126 19.8912C26.5378 19.9869 26.7259 20.1532 26.8484 20.365C26.9709 20.5768 27.0212 20.8227 26.9918 21.0657C26.7823 22.7054 25.9822 24.2126 24.7414 25.3049C23.5007 26.3973 21.9043 26.9999 20.2512 27C15.1455 27 10.2489 24.9718 6.63855 21.3614C3.02825 17.7511 1 12.8545 1 7.74879C1.00009 6.0957 1.60272 4.49932 2.69507 3.25855C3.78742 2.01779 5.29457 1.21773 6.93433 1.00818C7.17725 0.978779 7.42315 1.02912 7.63498 1.15163C7.8468 1.27413 8.01308 1.46216 8.10875 1.68738L10.9526 8.32308C11.0262 8.49472 11.0562 8.68189 11.0399 8.86791C11.0236 9.05394 10.9616 9.23305 10.8593 9.3893L8.50436 12.9875C8.39718 13.1494 8.33382 13.3363 8.32046 13.53C8.30711 13.7237 8.34422 13.9175 8.42818 14.0925V14.0925Z" stroke="url(#paint0_linear)" stroke-width="1.5" stroke-linecap="round" stroke-linejoin="round"/>
<defs>
<linearGradient id="paint0_linear" x1="-0.659133" y1="13.2791" x2="27.3618" y2="14.5432" gradientUnits="userSpaceOnUse">
<stop stop-color="#A48ED2"/>
<stop offset="1" stop-color="#F5BEE9"/>
</linearGradient>
</defs>
</svg>
