<?xml version="1.0" encoding="utf-8"?>
<!-- Generator: Adobe Illustrator 23.1.0, SVG Export Plug-In . SVG Version: 6.00 Build 0)  -->
<svg version="1.1" xmlns="http://www.w3.org/2000/svg" xmlns:xlink="http://www.w3.org/1999/xlink" x="0px" y="0px"
	 viewBox="0 0 190.17 148.3" style="enable-background:new 0 0 190.17 148.3;" xml:space="preserve">
<style type="text/css">
	.st0{fill:#FFC300;}
	.st1{fill:#1D1230;}
</style>
<g id="Слой_1">
</g>
<g id="text">
	<g>
		<g>
			<path class="st0" d="M186.15,19.28l-3.78,88.84c0,4.72-3.08,8.9-7.6,10.32l-61.37,20.32l-14.47,4.87
				c-0.88,0.28-1.79,0.42-2.7,0.42c-0.91,0-1.82-0.14-2.7-0.42l-22.88-7.7l-52.82-17.5c-1.24-0.39-2.36-0.99-3.35-1.75
				c-1.72-1.16-2.99-2.89-3.59-4.89c-0.42-1.16-0.66-2.4-0.66-3.68L6.46,19.28c0-5.79,4.56-10.51,10.31-10.8
				c0.37-0.02,41.33-3.39,79.54-3.39c38.49,0,79.17,3.38,79.54,3.39C181.59,8.77,186.15,13.49,186.15,19.28z"/>
		</g>
		<g>
			<path class="st1" d="M96.24,133.9c-1.17,0-2.35-0.19-3.46-0.56l-18.98-6.38l-46.58-15.43c-4.26-1.41-7.25-5.37-7.44-9.85
				l-3.08-72.46c-0.25-5.93,4.18-10.89,10.09-11.3c14.45-1,42.71-2.68,69.52-2.68c26.99,0,55.14,1.68,69.52,2.68
				c5.91,0.41,10.34,5.38,10.09,11.3l-3.08,72.46c-0.19,4.48-3.18,8.44-7.44,9.85l-55.07,18.24l-10.62,3.57
				C98.59,133.71,97.41,133.9,96.24,133.9z M96.3,19.23c-26.69,0-54.84,1.68-69.24,2.67c-3.73,0.26-6.54,3.4-6.38,7.14l3.08,72.46
				c0.12,2.83,2.01,5.33,4.7,6.23l46.59,15.43l18.99,6.39c1.41,0.47,2.96,0.47,4.38,0l10.63-3.57l55.08-18.24
				c2.69-0.89,4.58-3.39,4.7-6.23l3.08-72.46c0.16-3.74-2.64-6.88-6.37-7.14C151.22,20.9,123.17,19.23,96.3,19.23z"/>
		</g>
		<g>
			<path class="st1" d="M51.33,92.38l-0.02-47.19c0-1.12,0.91-2.03,2.04-2.03h6.72c1.13,0,2.04,0.91,2.04,2.03l-0.04,47.19
				c0,1.12-0.91,2.03-2.04,2.03h-6.67C52.25,94.4,51.33,93.5,51.33,92.38z M106.74,92.39L106.78,69c0-0.6-0.8-0.8-1.09-0.28
				L95.04,88.31c-0.21,0.38-0.6,0.61-1.04,0.61h-2.29c-0.4,0-0.77-0.22-0.96-0.57L80.09,68.67c-0.28-0.51-1.06-0.32-1.06,0.27v23.46
				c0,1.11-0.91,2.02-2.02,2.02h-6.5c-1.12,0-2.02-0.9-2.02-2.02l0.05-47.23c0-1.11,0.91-2.01,2.02-2.01l7.29,0
				c0.76,0,1.45,0.42,1.8,1.09l13.16,25.35c0.22,0.43,0.85,0.42,1.06-0.01l12.36-25.27c0.34-0.69,1.05-1.14,1.82-1.14h7.22
				c1.12,0,2.02,0.9,2.02,2.01v47.22c0,1.11-0.91,2.02-2.02,2.02h-6.49C107.65,94.4,106.74,93.5,106.74,92.39z M148.97,86.88v5.49
				c0,1.13-0.92,2.04-2.05,2.04H125.7c-1.14,0-2.05-0.91-2.05-2.04V45.2c0-1.13,0.92-2.04,2.05-2.04h6.64
				c1.13,0,2.05,0.91,2.05,2.04v38.71c0,0.51,0.41,0.92,0.93,0.92h11.6C148.05,84.83,148.97,85.75,148.97,86.88z"/>
		</g>
	</g>
</g>
</svg>
