<svg width="24" height="24" viewBox="0 0 24 24" fill="none" xmlns="http://www.w3.org/2000/svg">
<g clip-path="url(#clip0)">
<path d="M20.5 24.002H3.5C1.57 24.002 0 22.432 0 20.502V3.50195C0 1.57195 1.57 0.00195312 3.5 0.00195312H20.5C22.43 0.00195312 24 1.57195 24 3.50195V20.502C24 22.432 22.43 24.002 20.5 24.002ZM3.5 1.00195C2.8372 1.00275 2.20178 1.26639 1.73311 1.73506C1.26444 2.20373 1.00079 2.83916 1 3.50195V20.502C1 21.88 2.121 23.002 3.5 23.002H20.5C21.879 23.002 23 21.88 23 20.502V3.50195C23 2.12395 21.879 1.00195 20.5 1.00195H3.5Z" fill="#FF8D74"/>
<path d="M8.5 8.00195H0.5C0.367392 8.00195 0.240215 7.94928 0.146447 7.85551C0.0526784 7.76174 0 7.63456 0 7.50195C0 7.36934 0.0526784 7.24217 0.146447 7.1484C0.240215 7.05463 0.367392 7.00195 0.5 7.00195H8.5C8.63261 7.00195 8.75979 7.05463 8.85355 7.1484C8.94732 7.24217 9 7.36934 9 7.50195C9 7.63456 8.94732 7.76174 8.85355 7.85551C8.75979 7.94928 8.63261 8.00195 8.5 8.00195ZM23.5 8.00195H15.5C15.3674 8.00195 15.2402 7.94928 15.1464 7.85551C15.0527 7.76174 15 7.63456 15 7.50195C15 7.36934 15.0527 7.24217 15.1464 7.1484C15.2402 7.05463 15.3674 7.00195 15.5 7.00195H23.5C23.6326 7.00195 23.7598 7.05463 23.8536 7.1484C23.9473 7.24217 24 7.36934 24 7.50195C24 7.63456 23.9473 7.76174 23.8536 7.85551C23.7598 7.94928 23.6326 8.00195 23.5 8.00195ZM20.5 6.00195H17.5C17.3674 6.00195 17.2402 5.94928 17.1464 5.85551C17.0527 5.76174 17 5.63456 17 5.50195V2.50195C17 2.36934 17.0527 2.24217 17.1464 2.1484C17.2402 2.05463 17.3674 2.00195 17.5 2.00195H20.5C20.6326 2.00195 20.7598 2.05463 20.8536 2.1484C20.9473 2.24217 21 2.36934 21 2.50195V5.50195C21 5.63456 20.9473 5.76174 20.8536 5.85551C20.7598 5.94928 20.6326 6.00195 20.5 6.00195ZM18 5.00195H20V3.00195H18V5.00195ZM2.5 5.00195C2.36739 5.00195 2.24021 4.94928 2.14645 4.85551C2.05268 4.76174 2 4.63456 2 4.50195V1.00195C2 0.869345 2.05268 0.742168 2.14645 0.6484C2.24021 0.554632 2.36739 0.501953 2.5 0.501953C2.63261 0.501953 2.75979 0.554632 2.85355 0.6484C2.94732 0.742168 3 0.869345 3 1.00195V4.50195C3 4.63456 2.94732 4.76174 2.85355 4.85551C2.75979 4.94928 2.63261 5.00195 2.5 5.00195ZM4.5 5.00195C4.36739 5.00195 4.24021 4.94928 4.14645 4.85551C4.05268 4.76174 4 4.63456 4 4.50195V0.501953C4 0.369345 4.05268 0.242168 4.14645 0.1484C4.24021 0.0546315 4.36739 0.00195313 4.5 0.00195312C4.63261 0.00195313 4.75979 0.0546315 4.85355 0.1484C4.94732 0.242168 5 0.369345 5 0.501953V4.50195C5 4.63456 4.94732 4.76174 4.85355 4.85551C4.75979 4.94928 4.63261 5.00195 4.5 5.00195ZM6.5 5.00195C6.36739 5.00195 6.24021 4.94928 6.14645 4.85551C6.05268 4.76174 6 4.63456 6 4.50195V0.501953C6 0.369345 6.05268 0.242168 6.14645 0.1484C6.24021 0.0546315 6.36739 0.00195313 6.5 0.00195312C6.63261 0.00195313 6.75979 0.0546315 6.85355 0.1484C6.94732 0.242168 7 0.369345 7 0.501953V4.50195C7 4.63456 6.94732 4.76174 6.85355 4.85551C6.75979 4.94928 6.63261 5.00195 6.5 5.00195Z" fill="#FF8D74"/>
<path d="M12 18.002C8.691 18.002 6 15.311 6 12.002C6 8.69295 8.691 6.00195 12 6.00195C15.309 6.00195 18 8.69295 18 12.002C18 15.311 15.309 18.002 12 18.002ZM12 7.00195C9.243 7.00195 7 9.24495 7 12.002C7 14.759 9.243 17.002 12 17.002C14.757 17.002 17 14.759 17 12.002C17 9.24495 14.757 7.00195 12 7.00195Z" fill="#FF8D74"/>
<path d="M12 15.002C10.346 15.002 9 13.656 9 12.002C9 10.348 10.346 9.00195 12 9.00195C13.654 9.00195 15 10.348 15 12.002C15 13.656 13.654 15.002 12 15.002ZM12 10.002C10.897 10.002 10 10.899 10 12.002C10 13.105 10.897 14.002 12 14.002C13.103 14.002 14 13.105 14 12.002C14 10.899 13.103 10.002 12 10.002Z" fill="#FF8D74"/>
</g>
<defs>
<clipPath id="clip0">
<rect width="24" height="24" fill="white"/>
</clipPath>
</defs>
</svg>
