<?xml version="1.0" encoding="UTF-8"?>
<svg width="668px" height="514px" viewBox="0 0 668 514" version="1.1" xmlns="http://www.w3.org/2000/svg" xmlns:xlink="http://www.w3.org/1999/xlink">
    <!-- Generator: Sketch 55.2 (78181) - https://sketchapp.com -->
    <title>Wallet_logo_RU_black_vrt</title>
    <desc>Created with Sketch.</desc>
    <g id="Logotype-Wallet" stroke="none" stroke-width="1" fill="none" fill-rule="evenodd">
        <g id="Wallet-logo-RU-1" transform="translate(-396.000000, -857.000000)">
            <g id="Wallet_logo_RU_black_vrt" transform="translate(396.000000, 857.000000)">
                <g id="Group-2" transform="translate(40.000000, 76.000000)">
                    <g id="Group" transform="translate(210.604322, 0.000000)">
                        <path d="M73.1196114,142.403565 L93.1380853,153.940626 L93.1380853,171.87602 C93.1380853,177.371451 87.1898104,180.807489 82.4272891,178.06256 L-8.81072992e-13,130.550209 L-8.81072992e-13,37.3271287 L82.0747678,84.6374415 C88.9189763,88.583451 93.1380853,95.8818965 93.1380853,103.783669 L93.1380853,123.97074 L79.2685308,115.975612 C72.1289289,111.861005 63.2113934,117.013669 63.2113934,125.255423 C63.2113934,132.33093 66.9888057,138.868598 73.1196114,142.403565 Z M74.0448057,134.606295 C72.075981,133.476276 70.8623602,131.380655 70.8623602,129.110863 L70.8623602,126.855005 C70.8623602,123.356266 74.6467393,121.164503 77.6814882,122.906209 C79.6503128,124.034835 80.8639336,126.130456 80.8639336,128.400247 L80.8639336,130.656105 C80.8639336,134.156238 77.0795545,136.348001 74.0448057,134.606295 Z" id="Combined-Shape" fill="#AF59C1"></path>
                        <path d="M73.6797441,7.15381115 L73.6797441,12.6506358 L139.913346,50.8288349 C146.990246,54.9086074 151.352872,62.4578585 151.352872,70.6271571 L151.352872,132.785167 L156.108427,135.527309 C160.869555,138.272238 166.819223,134.834806 166.819223,129.339375 L166.819223,61.2484178 C166.819223,53.3480386 162.600114,46.0468064 155.754512,42.1021903 L84.3891469,0.964484141 C79.6266256,-1.7790514 73.6797441,1.65698651 73.6797441,7.15381115" id="Fill-4" fill="#DE492A"></path>
                        <path d="M49.1272607,21.3647401 L49.1272607,26.729195 L115.431924,64.9464083 C122.510218,69.0275742 126.87145,76.575432 126.87145,84.7447306 L126.87145,147.036503 L131.557336,149.738238 C136.318464,152.483167 142.266739,149.045735 142.266739,143.550304 L142.266739,75.4593467 C142.266739,67.5575742 138.04763,60.2577353 131.203422,56.3131192 L59.8380569,15.1754131 C55.0755355,12.4304841 49.1272607,15.8679154 49.1272607,21.3647401" id="Fill-6" fill="#F99D1C"></path>
                        <path d="M24.5594502,35.5157543 L24.5594502,40.9066832 L90.8278863,79.1043894 C97.9047867,83.1841619 102.267412,90.7320197 102.267412,98.9013183 L102.267412,161.166617 L106.989526,163.890645 C111.750654,166.634181 117.698929,163.198143 117.698929,157.701318 L117.698929,89.6103609 C117.698929,81.7099818 113.47982,74.4087495 106.635611,70.4641334 L35.2702464,29.3278206 C30.5077251,26.5828917 24.5594502,30.0189296 24.5594502,35.5157543" id="Fill-7" fill="#37C2DC"></path>
                    </g>
                    <path d="M251.403441,290.50293 C254.697355,290.50293 257.368436,293.172617 257.368436,296.466532 L257.368436,358.627328 L173.620237,358.627328 C170.310995,358.627328 167.628768,355.943707 167.628768,352.635859 L167.628768,290.50293 L172.357848,290.50293 C175.651763,290.50293 178.32145,293.172617 178.32145,296.466532 L178.32145,349.202607 L207.081896,349.202607 L207.081896,290.50293 L211.950313,290.50293 C215.244227,290.50293 217.913915,293.172617 217.913915,296.466532 L217.913915,349.202607 L246.675754,349.202607 L246.675754,290.50293 L251.403441,290.50293 Z M373.786863,296.53202 C373.786863,293.239498 376.45655,290.569811 379.751858,290.569811 L423.872758,290.569811 L423.872758,358.593887 L419.000161,358.593887 C415.704853,358.593887 413.035166,355.9242 413.035166,352.631678 L413.035166,299.013603 L384.060142,299.013603 L384.060142,310.694181 C384.060142,342.419707 375.996739,357.370513 357.915043,359.173527 L357.722758,359.193034 L357.722758,349.63455 L357.859308,349.603896 C368.875251,347.127887 373.786863,335.128228 373.786863,310.694181 L373.786863,296.53202 Z M562.543223,323.791811 L587.69346,358.628721 L580.160929,358.628721 C576.978483,358.628721 573.999469,357.070939 572.190882,354.463953 L553.801251,327.909205 L541.304161,327.909205 L541.304161,358.628721 L530.536237,358.628721 L530.536237,290.54055 L535.120408,290.54055 C538.531365,290.54055 541.304161,293.300806 541.304161,296.696437 L541.304161,319.153299 L553.528152,319.153299 L570.092474,294.77638 C571.895488,292.123413 574.892616,290.54055 578.109896,290.54055 L584.916483,290.54055 L584.76182,290.759309 L562.43872,322.443034 L562.43872,323.646901 L562.543223,323.791811 Z M113.669318,350.421802 C127.767384,350.421802 139.237564,338.953015 139.237564,324.854949 C139.237564,310.755489 127.767384,299.286702 113.669318,299.286702 C99.5712512,299.286702 88.1010711,310.755489 88.1010711,324.854949 C88.1010711,338.953015 99.5712512,350.421802 113.669318,350.421802 Z M113.669318,288.567546 C133.711479,288.567546 149.958114,304.812787 149.958114,324.854949 C149.958114,344.895716 133.711479,361.142351 113.669318,361.142351 C93.6271564,361.142351 77.3805213,344.895716 77.3805213,324.854949 C77.3805213,304.812787 93.6271564,288.567546 113.669318,288.567546 Z M286.984408,332.465508 L330.702626,308.725356 L330.318057,308.272513 C325.431526,302.510949 318.319791,299.20728 310.802588,299.20728 C296.680834,299.20728 285.193934,310.695574 285.193934,324.815934 C285.193934,327.293337 285.563175,329.77074 286.290512,332.181261 L286.461896,332.749754 L286.984408,332.465508 Z M344.867573,312.360645 L344.930275,312.530636 L291.461289,341.564181 L291.877905,342.019811 C296.736569,347.361972 303.635118,350.424588 310.802588,350.424588 C318.489782,350.424588 325.704626,346.998304 330.60091,341.023555 C331.788057,339.575849 333.579924,338.74401 335.519488,338.74401 C336.645327,338.74401 337.762806,339.028257 338.749308,339.564702 L342.849981,341.792693 L342.751052,341.976617 C336.411242,353.760304 324.169137,361.081043 310.802588,361.081043 C300.743886,361.081043 291.394408,357.059792 284.474957,349.755773 C277.559687,342.457328 274.048408,332.887697 274.593213,322.809489 C275.615943,303.783091 291.363754,288.736143 310.444493,288.555005 L310.801194,288.552219 C322.407924,288.552219 333.402967,294.182806 340.213735,303.610314 C342.170019,306.321802 343.736161,309.265982 344.867573,312.360645 Z M462.283649,273.396588 C459.229393,273.396588 456.745024,270.913612 456.745024,267.86075 C456.745024,264.80928 459.229393,262.326304 462.283649,262.326304 C465.335118,262.326304 467.819488,264.80928 467.819488,267.86075 C467.819488,270.913612 465.335118,273.396588 462.283649,273.396588 Z M490.900578,273.396588 C487.849109,273.396588 485.364739,270.913612 485.364739,267.86075 C485.364739,264.80928 487.849109,262.326304 490.900578,262.326304 C493.953441,262.326304 496.436417,264.80928 496.436417,267.86075 C496.436417,270.913612 493.953441,273.396588 490.900578,273.396588 Z M453.873299,332.214702 L497.591517,308.47455 L497.205555,308.020314 C492.320417,302.260143 485.207289,298.956475 477.691479,298.956475 C463.569725,298.956475 452.082825,310.444769 452.082825,324.565129 C452.082825,327.041138 452.450673,329.518541 453.179403,331.930456 L453.350787,332.497555 L453.873299,332.214702 Z M511.756464,312.108446 L511.819166,312.278437 L458.351573,341.311982 L458.766796,341.767612 C463.62546,347.109773 470.522616,350.172389 477.691479,350.172389 C485.37728,350.172389 492.593517,346.746105 497.489801,340.771356 C498.675555,339.32365 500.467422,338.493205 502.408379,338.493205 C503.532825,338.493205 504.650303,338.777451 505.636806,339.312503 L509.738872,341.540494 L509.63855,341.724418 C503.300133,353.508105 491.056635,360.828844 477.691479,360.828844 C467.632777,360.828844 458.283299,356.807593 451.363848,349.503574 C444.447185,342.206522 440.937299,332.635498 441.480711,322.55729 C442.506227,303.530892 458.252645,288.483944 477.333384,288.301413 L477.690085,288.30002 C489.295422,288.30002 500.290464,293.930607 507.102626,303.359508 C509.057517,306.066816 510.623659,309.010996 511.756464,312.108446 Z M64.9099052,263.043887 L37.5525782,308.666835 L67.1169953,358.492171 L59.7823223,358.492171 C56.29891,358.492171 53.0454028,356.622276 51.2953365,353.611214 L27.9313934,313.471157 L11.4241991,313.471157 L11.4241991,358.492171 L2.4158453e-13,358.492171 L2.4158453e-13,262.464247 L5.46199052,262.464247 C8.75451185,262.464247 11.4241991,265.133934 11.4241991,268.427849 L11.4241991,303.861119 L27.9188531,303.861119 L28.0080284,303.713423 L50.0064739,267.214228 C51.7830142,264.267261 54.9738199,262.464247 58.4168246,262.464247 L65.2568531,262.464247 L64.9099052,263.043887 Z" id="Combined-Shape" fill="#465463"></path>
                </g>
            </g>
        </g>
    </g>
</svg>