<svg width="62" height="31" viewBox="0 0 62 31" fill="none" xmlns="http://www.w3.org/2000/svg">
<rect width="62" height="31" rx="15.5" fill="url(#paint0_linear)"/>
<path d="M13.9413 6.14414C14.088 6.14414 14.2046 6.19414 14.2913 6.29414C14.3846 6.38747 14.4313 6.51081 14.4313 6.66414V12.7741C14.4313 12.9275 14.3846 13.0541 14.2913 13.1541C14.198 13.2475 14.078 13.2941 13.9313 13.2941C13.758 13.2941 13.6246 13.2275 13.5313 13.0941L9.61129 7.92414V12.7741C9.61129 12.9275 9.56462 13.0541 9.47129 13.1541C9.38462 13.2475 9.26796 13.2941 9.12129 13.2941C8.97462 13.2941 8.85796 13.2475 8.77129 13.1541C8.68462 13.0608 8.64129 12.9341 8.64129 12.7741V6.66414C8.64129 6.51081 8.68796 6.38747 8.78129 6.29414C8.87462 6.19414 8.99462 6.14414 9.14129 6.14414C9.31462 6.14414 9.44796 6.21081 9.54129 6.34414L13.4613 11.5241V6.66414C13.4613 6.51081 13.5046 6.38747 13.5913 6.29414C13.678 6.19414 13.7946 6.14414 13.9413 6.14414ZM16.5829 13.2441C16.4229 13.2441 16.2963 13.2008 16.2029 13.1141C16.1163 13.0208 16.0729 12.8975 16.0729 12.7441V6.69414C16.0729 6.54081 16.1163 6.42081 16.2029 6.33414C16.2963 6.24081 16.4229 6.19414 16.5829 6.19414H20.2629C20.4163 6.19414 20.5329 6.23081 20.6129 6.30414C20.6996 6.37747 20.7429 6.48081 20.7429 6.61414C20.7429 6.74747 20.6996 6.85081 20.6129 6.92414C20.5329 6.99081 20.4163 7.02414 20.2629 7.02414H17.0829V9.24414H20.0629C20.2163 9.24414 20.3329 9.28081 20.4129 9.35414C20.4996 9.42747 20.5429 9.53081 20.5429 9.66414C20.5429 9.79747 20.4996 9.90081 20.4129 9.97414C20.3329 10.0475 20.2163 10.0841 20.0629 10.0841H17.0829V12.4141H20.2629C20.5829 12.4141 20.7429 12.5508 20.7429 12.8241C20.7429 12.9575 20.6996 13.0608 20.6129 13.1341C20.5329 13.2075 20.4163 13.2441 20.2629 13.2441H16.5829ZM30.8332 6.45414C30.8732 6.34747 30.9332 6.26747 31.0132 6.21414C31.0932 6.16081 31.1832 6.13414 31.2832 6.13414C31.4099 6.13414 31.5199 6.17747 31.6132 6.26414C31.7132 6.34414 31.7632 6.45081 31.7632 6.58414C31.7632 6.65747 31.7499 6.72414 31.7232 6.78414L29.5132 12.9641C29.4666 13.0775 29.3932 13.1641 29.2932 13.2241C29.1932 13.2841 29.0832 13.3141 28.9632 13.3141C28.8499 13.3141 28.7432 13.2841 28.6432 13.2241C28.5432 13.1641 28.4732 13.0775 28.4332 12.9641L26.6132 7.80414L24.7532 12.9641C24.7132 13.0775 24.6432 13.1641 24.5432 13.2241C24.4432 13.2841 24.3366 13.3141 24.2232 13.3141C24.1032 13.3141 23.9932 13.2841 23.8932 13.2241C23.7999 13.1641 23.7299 13.0775 23.6832 12.9641L21.4732 6.78414C21.4466 6.72414 21.4332 6.65747 21.4332 6.58414C21.4332 6.45081 21.4832 6.34414 21.5832 6.26414C21.6832 6.17747 21.8032 6.13414 21.9432 6.13414C22.0432 6.13414 22.1332 6.16081 22.2132 6.21414C22.2999 6.26747 22.3632 6.34747 22.4032 6.45414L24.2532 11.7741L26.1332 6.50414C26.1732 6.39081 26.2366 6.30414 26.3232 6.24414C26.4166 6.18414 26.5166 6.15414 26.6232 6.15414C26.7299 6.15414 26.8266 6.18747 26.9132 6.25414C26.9999 6.31414 27.0666 6.40081 27.1132 6.51414L28.9532 11.8241L30.8332 6.45414Z" fill="white"/>
<path d="M10.9032 24.1081C10.7499 24.1081 10.6266 24.0614 10.5332 23.9681C10.4399 23.8748 10.3932 23.7481 10.3932 23.5881V17.5081C10.3932 17.3548 10.4366 17.2348 10.5232 17.1481C10.6166 17.0548 10.7432 17.0081 10.9032 17.0081H13.3132C14.0599 17.0081 14.6399 17.1914 15.0532 17.5581C15.4666 17.9248 15.6732 18.4448 15.6732 19.1181C15.6732 19.7848 15.4666 20.3048 15.0532 20.6781C14.6399 21.0514 14.0599 21.2381 13.3132 21.2381H11.4232V23.5881C11.4232 23.7481 11.3766 23.8748 11.2832 23.9681C11.1966 24.0614 11.0699 24.1081 10.9032 24.1081ZM13.2032 20.4081C14.1899 20.4081 14.6832 19.9781 14.6832 19.1181C14.6832 18.2648 14.1899 17.8381 13.2032 17.8381H11.4232V20.4081H13.2032ZM22.4167 23.4181C22.4767 23.5048 22.5067 23.5981 22.5067 23.6981C22.5067 23.8181 22.4567 23.9214 22.3567 24.0081C22.2633 24.0881 22.1533 24.1281 22.0267 24.1281C21.84 24.1281 21.69 24.0448 21.5767 23.8781L20.2367 21.7981C20.0833 21.5581 19.92 21.3914 19.7467 21.2981C19.5733 21.1981 19.3467 21.1481 19.0667 21.1481H17.9367V23.5881C17.9367 23.7481 17.89 23.8748 17.7967 23.9681C17.71 24.0614 17.5867 24.1081 17.4267 24.1081C17.2733 24.1081 17.15 24.0614 17.0567 23.9681C16.9633 23.8748 16.9167 23.7481 16.9167 23.5881V17.5081C16.9167 17.3548 16.96 17.2348 17.0467 17.1481C17.14 17.0548 17.2667 17.0081 17.4267 17.0081H19.9167C20.6967 17.0081 21.29 17.1814 21.6967 17.5281C22.11 17.8748 22.3167 18.3814 22.3167 19.0481C22.3167 19.6014 22.16 20.0514 21.8467 20.3981C21.5333 20.7381 21.0867 20.9548 20.5067 21.0481C20.68 21.0948 20.8367 21.1781 20.9767 21.2981C21.1167 21.4181 21.2533 21.5848 21.3867 21.7981L22.4167 23.4181ZM19.7967 20.3181C20.3167 20.3181 20.7 20.2181 20.9467 20.0181C21.2 19.8114 21.3267 19.4948 21.3267 19.0681C21.3267 18.6414 21.2033 18.3314 20.9567 18.1381C20.71 17.9381 20.3233 17.8381 19.7967 17.8381H17.9267V20.3181H19.7967ZM26.8021 24.1381C26.1355 24.1381 25.5555 23.9914 25.0621 23.6981C24.5755 23.4048 24.1988 22.9881 23.9321 22.4481C23.6655 21.9081 23.5321 21.2714 23.5321 20.5381C23.5321 19.7981 23.6621 19.1581 23.9221 18.6181C24.1888 18.0714 24.5688 17.6548 25.0621 17.3681C25.5555 17.0748 26.1355 16.9281 26.8021 16.9281C27.4755 16.9281 28.0588 17.0748 28.5521 17.3681C29.0455 17.6548 29.4221 18.0714 29.6821 18.6181C29.9488 19.1581 30.0821 19.7948 30.0821 20.5281C30.0821 21.2614 29.9488 21.9014 29.6821 22.4481C29.4221 22.9881 29.0455 23.4048 28.5521 23.6981C28.0588 23.9914 27.4755 24.1381 26.8021 24.1381ZM26.8021 23.2981C27.5088 23.2981 28.0588 23.0581 28.4521 22.5781C28.8455 22.0981 29.0421 21.4148 29.0421 20.5281C29.0421 19.6414 28.8455 18.9614 28.4521 18.4881C28.0655 18.0081 27.5155 17.7681 26.8021 17.7681C26.1021 17.7681 25.5555 18.0081 25.1621 18.4881C24.7755 18.9614 24.5821 19.6414 24.5821 20.5281C24.5821 21.4148 24.7755 22.0981 25.1621 22.5781C25.5555 23.0581 26.1021 23.2981 26.8021 23.2981ZM31.997 24.0581C31.837 24.0581 31.7103 24.0148 31.617 23.9281C31.5303 23.8348 31.487 23.7114 31.487 23.5581V17.5081C31.487 17.3548 31.5303 17.2348 31.617 17.1481C31.7103 17.0548 31.837 17.0081 31.997 17.0081H33.957C35.097 17.0081 35.9803 17.3148 36.607 17.9281C37.2337 18.5414 37.547 19.4081 37.547 20.5281C37.547 21.6481 37.2337 22.5181 36.607 23.1381C35.9803 23.7514 35.097 24.0581 33.957 24.0581H31.997ZM33.897 23.1981C35.6303 23.1981 36.497 22.3081 36.497 20.5281C36.497 18.7548 35.6303 17.8681 33.897 17.8681H32.517V23.1981H33.897ZM41.7679 24.1381C40.8279 24.1381 40.1146 23.8948 39.6279 23.4081C39.1413 22.9214 38.8979 22.2048 38.8979 21.2581V17.4781C38.8979 17.3181 38.9446 17.1914 39.0379 17.0981C39.1313 17.0048 39.2546 16.9581 39.4079 16.9581C39.5613 16.9581 39.6846 17.0048 39.7779 17.0981C39.8713 17.1914 39.9179 17.3181 39.9179 17.4781V21.3281C39.9179 21.9748 40.0713 22.4648 40.3779 22.7981C40.6913 23.1314 41.1546 23.2981 41.7679 23.2981C42.3746 23.2981 42.8346 23.1314 43.1479 22.7981C43.4613 22.4648 43.6179 21.9748 43.6179 21.3281V17.4781C43.6179 17.3248 43.6646 17.2014 43.7579 17.1081C43.8513 17.0081 43.9746 16.9581 44.1279 16.9581C44.2813 16.9581 44.4046 17.0048 44.4979 17.0981C44.5913 17.1914 44.6379 17.3181 44.6379 17.4781V21.2581C44.6379 22.1981 44.3913 22.9148 43.8979 23.4081C43.4113 23.8948 42.7013 24.1381 41.7679 24.1381ZM49.2933 24.1381C48.62 24.1381 48.0333 23.9948 47.5333 23.7081C47.0333 23.4148 46.65 22.9981 46.3833 22.4581C46.1167 21.9114 45.9833 21.2681 45.9833 20.5281C45.9833 19.7948 46.1167 19.1581 46.3833 18.6181C46.65 18.0714 47.0333 17.6548 47.5333 17.3681C48.0333 17.0748 48.62 16.9281 49.2933 16.9281C49.7333 16.9281 50.15 16.9981 50.5433 17.1381C50.9367 17.2714 51.28 17.4681 51.5733 17.7281C51.7 17.8281 51.7633 17.9614 51.7633 18.1281C51.7633 18.2481 51.73 18.3514 51.6633 18.4381C51.5967 18.5181 51.5167 18.5581 51.4233 18.5581C51.31 18.5581 51.2 18.5148 51.0933 18.4281C50.7733 18.1881 50.48 18.0214 50.2133 17.9281C49.9533 17.8281 49.6567 17.7781 49.3233 17.7781C48.59 17.7781 48.0267 18.0148 47.6333 18.4881C47.24 18.9614 47.0433 19.6414 47.0433 20.5281C47.0433 21.4214 47.24 22.1048 47.6333 22.5781C48.0267 23.0514 48.59 23.2881 49.3233 23.2881C49.6433 23.2881 49.9333 23.2381 50.1933 23.1381C50.46 23.0381 50.76 22.8714 51.0933 22.6381C51.2267 22.5514 51.3367 22.5081 51.4233 22.5081C51.5167 22.5081 51.5967 22.5514 51.6633 22.6381C51.73 22.7181 51.7633 22.8181 51.7633 22.9381C51.7633 23.1048 51.7 23.2381 51.5733 23.3381C51.28 23.5981 50.9367 23.7981 50.5433 23.9381C50.15 24.0714 49.7333 24.1381 49.2933 24.1381ZM55.0932 24.1081C54.9399 24.1081 54.8132 24.0614 54.7132 23.9681C54.6199 23.8681 54.5732 23.7414 54.5732 23.5881V17.8681H52.5732C52.2532 17.8681 52.0932 17.7248 52.0932 17.4381C52.0932 17.2981 52.1332 17.1914 52.2132 17.1181C52.2999 17.0448 52.4199 17.0081 52.5732 17.0081H57.6132C57.7666 17.0081 57.8832 17.0448 57.9632 17.1181C58.0499 17.1914 58.0932 17.2981 58.0932 17.4381C58.0932 17.7248 57.9332 17.8681 57.6132 17.8681H55.6132V23.5881C55.6132 23.7414 55.5666 23.8681 55.4732 23.9681C55.3799 24.0614 55.2532 24.1081 55.0932 24.1081Z" fill="white"/>
<path d="M34.5725 6.84863C34.3951 6.84863 34.2329 6.99937 34.2448 7.17633L34.4086 11.6002C34.4086 11.6436 34.4259 11.6853 34.4566 11.716C34.4873 11.7468 34.529 11.764 34.5725 11.764C34.6159 11.764 34.6576 11.7468 34.6883 11.716C34.719 11.6853 34.7363 11.6436 34.7363 11.6002L34.9001 7.17633C34.912 6.99937 34.7498 6.84863 34.5725 6.84863Z" stroke="white" stroke-linecap="round" stroke-linejoin="round"/>
<path d="M34.5728 14.0577C34.7538 14.0577 34.9005 13.911 34.9005 13.73C34.9005 13.5491 34.7538 13.4023 34.5728 13.4023C34.3918 13.4023 34.2451 13.5491 34.2451 13.73C34.2451 13.911 34.3918 14.0577 34.5728 14.0577Z" stroke="white" stroke-linecap="round" stroke-linejoin="round"/>
<defs>
<linearGradient id="paint0_linear" x1="0" y1="15.5" x2="62" y2="15.5" gradientUnits="userSpaceOnUse">
<stop stop-color="#6A11CB"/>
<stop offset="1" stop-color="#2575FC"/>
</linearGradient>
</defs>
</svg>
