<?xml version="1.0" encoding="utf-8"?>
<!-- Generator: Adobe Illustrator 22.0.1, SVG Export Plug-In . SVG Version: 6.00 Build 0)  -->
<svg version="1.1" id="Слой_1" xmlns="http://www.w3.org/2000/svg" xmlns:xlink="http://www.w3.org/1999/xlink" x="0px" y="0px"
	 viewBox="0 0 50 50" style="enable-background:new 0 0 50 50;fill: rgb(245, 73, 102)" xml:space="preserve">
<style type="text/css">
	.st0{fill:#FFFFFF;}
</style>
<g>
	<path d="M47.6,33.2c-0.4,1-0.6,2-1.1,2.9c-1.2,1.8-2.9,2.6-5.1,2.6c-10.7,0-21.3,0-32,0c-3.4,0-6.2-2.6-6.2-6.3
		c0-6.2,0-12.4,0-18.6C3.2,10.6,5,8.3,8,7.6c0.5-0.1,1.1-0.1,1.7-0.1c10.5,0,21,0,31.5,0c3.3,0,5.6,2.1,6.2,4.7
		c0.1,0.3,0.1,0.5,0.2,0.8C47.6,19.7,47.6,26.4,47.6,33.2z M45.2,21.9c-13.3,0-26.5,0-39.7,0c0,0.3,0,0.5,0,0.7c0,3.1,0,6.3,0,9.4
		c0,2.8,1.5,4.3,4.3,4.3c4,0,8.1,0,12.1,0c6.4,0,12.7,0,19.1,0c2.6,0,4.2-1.6,4.2-4.2c0-3.2,0-6.4,0-9.6
		C45.2,22.4,45.2,22.1,45.2,21.9z M45.2,15.3c0-0.7,0-1.4,0-2c-0.2-1.8-1.5-3.2-3.3-3.4c-0.8-0.1-1.5-0.1-2.3-0.1c-10,0-20,0-29.9,0
		C8,9.8,6.6,10.4,5.8,12c-0.5,1-0.3,2.1-0.3,3.2C18.8,15.3,32,15.3,45.2,15.3z"/>
</g>
<rect x="24.3" y="32.9" class="st0" width="19.4" height="6.3"/>
<rect x="8" y="25.8" width="10.6" height="1.4"/>
<rect x="8" y="28.6" width="13" height="1.4"/>
<rect x="8" y="31.4" width="15.8" height="1.4"/>
<g>
	<path d="M34.4,26.5c0.3,0,0.5,0.1,0.8,0.1c1.1,0.2,2.2,0.6,3.1,1.3c1.7,1.2,2.7,2.8,3,4.8c0.4,2.1-0.1,4.1-1.4,5.9
		c-1.2,1.5-2.7,2.4-4.6,2.8c-0.3,0.1-0.6,0.1-0.9,0.1c-0.3,0-0.6,0-0.9,0c-0.3,0-0.5-0.1-0.8-0.1c-1.1-0.2-2.2-0.6-3.1-1.3
		c-1.4-1-2.3-2.3-2.8-3.9c-0.3-0.9-0.4-1.7-0.3-2.6c0.1-1.5,0.6-2.8,1.5-4c1-1.3,2.3-2.2,3.9-2.7c0.5-0.1,1-0.2,1.5-0.3
		c0,0,0.1,0,0.1,0C33.8,26.5,34.1,26.5,34.4,26.5z M27.9,34c0,3.3,2.7,5.9,5.8,6c3.6,0.1,6.1-2.7,6.2-5.8c0.1-3.6-2.8-6.1-5.8-6.2
		C30.6,27.9,27.8,30.8,27.9,34z"/>
	<path d="M34.6,33.3c0.9,0,1.8,0,2.7,0c0.4,0,0.6,0.2,0.7,0.5c0.1,0.4-0.1,0.7-0.5,0.8c-0.1,0-0.1,0-0.2,0c-1.4,0-2.7,0-4.1,0
		c0,0,0,0-0.1,0c0-0.1,0-0.1,0-0.2c0-1.5,0-2.9,0-4.4c0-0.4,0.3-0.7,0.7-0.7c0.4,0,0.7,0.3,0.7,0.7c0,1,0,1.9,0,2.9
		C34.6,33.1,34.6,33.2,34.6,33.3z"/>
</g>
</svg>
