<?xml version="1.0" standalone="no"?>
<!DOCTYPE svg PUBLIC "-//W3C//DTD SVG 20010904//EN"
 "http://www.w3.org/TR/2001/REC-SVG-20010904/DTD/svg10.dtd">
<svg version="1.0" xmlns="http://www.w3.org/2000/svg"
 width="31.000000pt" height="31.000000pt" viewBox="0 0 31.000000 31.000000"
 preserveAspectRatio="xMidYMid meet">

<g transform="translate(0.000000,31.000000) scale(0.100000,-0.100000)"
fill="#000000" stroke="none">
<path d="M114 271 c-17 -10 -34 -30 -38 -44 -7 -29 14 -93 50 -155 20 -33 29
-41 38 -32 22 18 70 133 70 168 0 62 -65 97 -120 63z m70 -2 c54 -25 52 -87
-6 -187 l-22 -40 -19 30 c-10 17 -27 53 -38 81 -23 57 -15 96 24 115 29 14 32
14 61 1z"/>
<path d="M130 226 c-27 -33 18 -72 48 -42 13 13 14 20 6 34 -15 23 -38 26 -54
8z m45 -22 c0 -10 -8 -20 -18 -22 -22 -4 -35 27 -16 39 20 12 34 5 34 -17z"/>
</g>
</svg>
