<svg id="svg" xmlns="http://www.w3.org/2000/svg" xmlns:xlink="http://www.w3.org/1999/xlink" width="40" height="40" viewBox="0, 0, 400,400"><g id="svgg"><path id="path0" d="M16.657 80.916 C 9.054 84.223,6.000 89.326,6.000 98.723 C 6.000 113.130,22.342 118.049,43.494 110.009 C 49.964 107.550,61.821 105.508,74.413 104.682 C 91.961 103.532,95.478 102.703,99.383 98.799 L 103.928 94.253 134.354 97.163 C 265.617 109.714,375.518 148.129,362.418 176.882 C 351.301 201.281,262.018 217.313,171.790 211.112 L 150.580 209.655 149.215 168.327 C 147.353 111.974,145.038 104.000,130.541 104.000 C 115.630 104.000,113.662 111.292,118.900 147.148 C 120.495 158.066,122.411 176.572,123.158 188.272 L 124.515 209.544 118.758 208.626 C 97.226 205.194,90.842 202.940,74.154 192.879 C 53.772 180.592,45.955 179.158,40.955 186.788 C 34.402 196.790,44.610 210.804,61.380 214.826 C 67.607 216.320,80.926 223.696,99.143 235.740 L 127.286 254.346 129.654 279.673 C 132.810 313.424,140.406 323.316,157.066 315.371 C 166.717 310.769,167.527 303.778,160.250 287.884 C 157.006 280.798,153.748 272.932,153.011 270.404 L 151.670 265.808 159.335 269.080 C 257.283 310.881,332.223 330.676,341.120 317.098 C 348.930 305.179,341.017 299.700,303.611 291.130 C 212.123 270.169,150.000 247.417,150.000 234.873 L 150.000 228.302 213.500 229.442 C 326.881 231.478,375.118 220.712,391.102 189.802 C 413.987 145.548,340.248 106.704,198.000 88.079 C 121.753 78.095,31.350 74.524,16.657 80.916 M126.000 227.245 C 126.000 230.022,125.496 230.104,122.500 227.811 C 120.575 226.337,118.625 224.877,118.167 224.566 C 117.708 224.255,119.283 224.000,121.667 224.000 C 124.331 224.000,126.000 225.250,126.000 227.245 " stroke="none" fill="rgb(4,68,116)" fill-rule="evenodd"></path></g></svg>