<svg width="62" height="30" viewBox="0 0 62 30" fill="none" xmlns="http://www.w3.org/2000/svg">
<rect width="62" height="30" rx="15" fill="url(#paint0_linear)"/>
<path d="M10.6744 13.2196C10.1677 13.2196 9.68441 13.1496 9.22441 13.0096C8.77108 12.8696 8.40775 12.6763 8.13441 12.4296C8.00775 12.323 7.94441 12.1863 7.94441 12.0196C7.94441 11.8996 7.97775 11.7996 8.04441 11.7196C8.11108 11.633 8.19108 11.5896 8.28441 11.5896C8.37775 11.5896 8.49108 11.633 8.62441 11.7196C9.21775 12.1596 9.89441 12.3796 10.6544 12.3796C11.1877 12.3796 11.5977 12.2796 11.8844 12.0796C12.1711 11.8796 12.3144 11.593 12.3144 11.2196C12.3144 10.9263 12.1811 10.7063 11.9144 10.5596C11.6477 10.413 11.2211 10.273 10.6344 10.1396C10.0744 10.0196 9.61441 9.88298 9.25441 9.72965C8.89441 9.57631 8.61108 9.36965 8.40441 9.10965C8.20441 8.84298 8.10441 8.50631 8.10441 8.09965C8.10441 7.69298 8.21441 7.33298 8.43441 7.01965C8.66108 6.69965 8.97441 6.45298 9.37441 6.27965C9.77441 6.09965 10.2311 6.00965 10.7444 6.00965C11.2177 6.00965 11.6544 6.07631 12.0544 6.20965C12.4544 6.34298 12.7944 6.53965 13.0744 6.79965C13.2077 6.91298 13.2744 7.04965 13.2744 7.20965C13.2744 7.32298 13.2377 7.42298 13.1644 7.50965C13.0977 7.59631 13.0177 7.63965 12.9244 7.63965C12.8377 7.63965 12.7277 7.59631 12.5944 7.50965C12.2877 7.27631 11.9977 7.10965 11.7244 7.00965C11.4577 6.90298 11.1344 6.84965 10.7544 6.84965C10.2411 6.84965 9.84108 6.95632 9.55441 7.16965C9.26775 7.37631 9.12441 7.66631 9.12441 8.03965C9.12441 8.35965 9.25108 8.60298 9.50441 8.76965C9.75775 8.92965 10.1644 9.07631 10.7244 9.20965C11.3111 9.34298 11.7844 9.48298 12.1444 9.62965C12.5111 9.76965 12.8011 9.96631 13.0144 10.2196C13.2344 10.4663 13.3444 10.7863 13.3444 11.1796C13.3444 11.5796 13.2311 11.9363 13.0044 12.2496C12.7844 12.5563 12.4711 12.7963 12.0644 12.9696C11.6644 13.1363 11.2011 13.2196 10.6744 13.2196ZM20.7851 12.5396C20.8185 12.6196 20.8351 12.6863 20.8351 12.7396C20.8351 12.8663 20.7818 12.973 20.6751 13.0596C20.5751 13.1463 20.4618 13.1896 20.3351 13.1896C20.2485 13.1896 20.1651 13.1663 20.0851 13.1196C20.0118 13.0663 19.9551 12.993 19.9151 12.8996L19.2551 11.3996H15.5951L14.9351 12.8996C14.8951 12.993 14.8351 13.0663 14.7551 13.1196C14.6751 13.1663 14.5918 13.1896 14.5051 13.1896C14.3718 13.1896 14.2518 13.1463 14.1451 13.0596C14.0451 12.973 13.9951 12.8663 13.9951 12.7396C13.9951 12.6863 14.0118 12.6196 14.0451 12.5396L16.8651 6.36965C16.9118 6.26298 16.9851 6.17965 17.0851 6.11965C17.1918 6.05965 17.3018 6.02965 17.4151 6.02965C17.5285 6.02965 17.6351 6.05965 17.7351 6.11965C17.8418 6.17965 17.9185 6.26298 17.9651 6.36965L20.7851 12.5396ZM15.9651 10.5796H18.8951L17.4251 7.26965L15.9651 10.5796ZM22.4089 13.1396C22.2555 13.1396 22.1322 13.0963 22.0389 13.0096C21.9522 12.923 21.9089 12.8063 21.9089 12.6596V6.55965C21.9089 6.40631 21.9555 6.28298 22.0489 6.18965C22.1422 6.08965 22.2655 6.03965 22.4189 6.03965C22.5789 6.03965 22.7055 6.08631 22.7989 6.17965C22.8922 6.27298 22.9389 6.39965 22.9389 6.55965V12.2796H25.9789C26.1322 12.2796 26.2489 12.3163 26.3289 12.3896C26.4155 12.463 26.4589 12.5696 26.4589 12.7096C26.4589 12.8496 26.4155 12.9563 26.3289 13.0296C26.2489 13.103 26.1322 13.1396 25.9789 13.1396H22.4089ZM27.8876 13.1396C27.7276 13.1396 27.601 13.0963 27.5076 13.0096C27.421 12.9163 27.3776 12.793 27.3776 12.6396V6.58965C27.3776 6.43631 27.421 6.31631 27.5076 6.22965C27.601 6.13631 27.7276 6.08965 27.8876 6.08965H31.5676C31.721 6.08965 31.8376 6.12631 31.9176 6.19965C32.0043 6.27298 32.0476 6.37631 32.0476 6.50965C32.0476 6.64298 32.0043 6.74631 31.9176 6.81965C31.8376 6.88631 31.721 6.91965 31.5676 6.91965H28.3876V9.13965H31.3676C31.521 9.13965 31.6376 9.17631 31.7176 9.24965C31.8043 9.32298 31.8476 9.42631 31.8476 9.55965C31.8476 9.69298 31.8043 9.79631 31.7176 9.86965C31.6376 9.94298 31.521 9.97965 31.3676 9.97965H28.3876V12.3096H31.5676C31.8876 12.3096 32.0476 12.4463 32.0476 12.7196C32.0476 12.853 32.0043 12.9563 31.9176 13.0296C31.8376 13.103 31.721 13.1396 31.5676 13.1396H27.8876Z" fill="white"/>
<path d="M9.87371 23.6045C9.72038 23.6045 9.59704 23.5612 9.50371 23.4745C9.41704 23.3878 9.37371 23.2712 9.37371 23.1245V17.0245C9.37371 16.8712 9.42038 16.7478 9.51371 16.6545C9.60704 16.5545 9.73038 16.5045 9.88371 16.5045C10.0437 16.5045 10.1704 16.5512 10.2637 16.6445C10.357 16.7378 10.4037 16.8645 10.4037 17.0245V22.7445H13.4437C13.597 22.7445 13.7137 22.7812 13.7937 22.8545C13.8804 22.9278 13.9237 23.0345 13.9237 23.1745C13.9237 23.3145 13.8804 23.4212 13.7937 23.4945C13.7137 23.5678 13.597 23.6045 13.4437 23.6045H9.87371ZM15.3525 23.6545C15.1991 23.6545 15.0758 23.6078 14.9825 23.5145C14.8891 23.4212 14.8425 23.2945 14.8425 23.1345V17.0245C14.8425 16.8712 14.8891 16.7478 14.9825 16.6545C15.0758 16.5545 15.1991 16.5045 15.3525 16.5045C15.5125 16.5045 15.6391 16.5512 15.7325 16.6445C15.8258 16.7378 15.8725 16.8645 15.8725 17.0245V23.1345C15.8725 23.2945 15.8258 23.4212 15.7325 23.5145C15.6458 23.6078 15.5191 23.6545 15.3525 23.6545ZM23.7685 16.5045C23.9151 16.5045 24.0351 16.5545 24.1285 16.6545C24.2218 16.7478 24.2685 16.8712 24.2685 17.0245V23.1645C24.2685 23.3178 24.2251 23.4378 24.1385 23.5245C24.0585 23.6112 23.9451 23.6545 23.7985 23.6545C23.6585 23.6545 23.5485 23.6112 23.4685 23.5245C23.3885 23.4378 23.3485 23.3178 23.3485 23.1645V18.5145L21.3885 22.2445C21.2618 22.4778 21.0985 22.5945 20.8985 22.5945C20.6985 22.5945 20.5351 22.4778 20.4085 22.2445L18.4385 18.5545V23.1645C18.4385 23.3178 18.3985 23.4378 18.3185 23.5245C18.2385 23.6112 18.1251 23.6545 17.9785 23.6545C17.8385 23.6545 17.7251 23.6112 17.6385 23.5245C17.5585 23.4312 17.5185 23.3112 17.5185 23.1645V17.0245C17.5185 16.8712 17.5651 16.7478 17.6585 16.6545C17.7518 16.5545 17.8718 16.5045 18.0185 16.5045C18.2251 16.5045 18.3918 16.6245 18.5185 16.8645L20.9085 21.4345L23.2785 16.8645C23.4051 16.6245 23.5685 16.5045 23.7685 16.5045ZM26.4267 23.6545C26.2733 23.6545 26.15 23.6078 26.0567 23.5145C25.9633 23.4212 25.9167 23.2945 25.9167 23.1345V17.0245C25.9167 16.8712 25.9633 16.7478 26.0567 16.6545C26.15 16.5545 26.2733 16.5045 26.4267 16.5045C26.5867 16.5045 26.7133 16.5512 26.8067 16.6445C26.9 16.7378 26.9467 16.8645 26.9467 17.0245V23.1345C26.9467 23.2945 26.9 23.4212 26.8067 23.5145C26.72 23.6078 26.5933 23.6545 26.4267 23.6545ZM30.7827 23.6545C30.6294 23.6545 30.5027 23.6078 30.4027 23.5145C30.3094 23.4145 30.2627 23.2878 30.2627 23.1345V17.4145H28.2627C27.9427 17.4145 27.7827 17.2712 27.7827 16.9845C27.7827 16.8445 27.8227 16.7378 27.9027 16.6645C27.9894 16.5912 28.1094 16.5545 28.2627 16.5545H33.3027C33.456 16.5545 33.5727 16.5912 33.6527 16.6645C33.7394 16.7378 33.7827 16.8445 33.7827 16.9845C33.7827 17.2712 33.6227 17.4145 33.3027 17.4145H31.3027V23.1345C31.3027 23.2878 31.256 23.4145 31.1627 23.5145C31.0694 23.6078 30.9427 23.6545 30.7827 23.6545ZM35.1474 23.6045C34.9874 23.6045 34.8607 23.5612 34.7674 23.4745C34.6807 23.3812 34.6374 23.2578 34.6374 23.1045V17.0545C34.6374 16.9012 34.6807 16.7812 34.7674 16.6945C34.8607 16.6012 34.9874 16.5545 35.1474 16.5545H38.8274C38.9807 16.5545 39.0974 16.5912 39.1774 16.6645C39.264 16.7378 39.3074 16.8412 39.3074 16.9745C39.3074 17.1078 39.264 17.2112 39.1774 17.2845C39.0974 17.3512 38.9807 17.3845 38.8274 17.3845H35.6474V19.6045H38.6274C38.7807 19.6045 38.8974 19.6412 38.9774 19.7145C39.064 19.7878 39.1074 19.8912 39.1074 20.0245C39.1074 20.1578 39.064 20.2612 38.9774 20.3345C38.8974 20.4078 38.7807 20.4445 38.6274 20.4445H35.6474V22.7745H38.8274C39.1474 22.7745 39.3074 22.9112 39.3074 23.1845C39.3074 23.3178 39.264 23.4212 39.1774 23.4945C39.0974 23.5678 38.9807 23.6045 38.8274 23.6045H35.1474ZM40.997 23.6045C40.837 23.6045 40.7103 23.5612 40.617 23.4745C40.5303 23.3812 40.487 23.2578 40.487 23.1045V17.0545C40.487 16.9012 40.5303 16.7812 40.617 16.6945C40.7103 16.6012 40.837 16.5545 40.997 16.5545H42.957C44.097 16.5545 44.9803 16.8612 45.607 17.4745C46.2337 18.0878 46.547 18.9545 46.547 20.0745C46.547 21.1945 46.2337 22.0645 45.607 22.6845C44.9803 23.2978 44.097 23.6045 42.957 23.6045H40.997ZM42.897 22.7445C44.6303 22.7445 45.497 21.8545 45.497 20.0745C45.497 18.3012 44.6303 17.4145 42.897 17.4145H41.517V22.7445H42.897Z" fill="white"/>
<path d="M37.2065 13.6049C37.1626 13.6049 37.1192 13.596 37.0793 13.5787C37.0395 13.5615 37.0042 13.5363 36.976 13.505C36.9477 13.4737 36.9271 13.437 36.9157 13.3975C36.9043 13.358 36.9023 13.3166 36.9099 13.2763V13.2746L37.3705 10.919H35.5873C35.5378 10.919 35.4893 10.906 35.4475 10.8814C35.4056 10.8568 35.3721 10.8216 35.3508 10.78C35.3294 10.7384 35.3212 10.6921 35.327 10.6463C35.3328 10.6005 35.3524 10.5572 35.3835 10.5213L38.9746 6.38662C39.0155 6.33829 39.0722 6.30377 39.1361 6.28832C39.2001 6.27287 39.2677 6.27735 39.3286 6.30108C39.3896 6.3248 39.4405 6.36647 39.4736 6.4197C39.5067 6.47293 39.5202 6.5348 39.512 6.59584C39.512 6.60042 39.5107 6.60485 39.5099 6.60942L39.0477 8.96566H40.8305C40.88 8.96566 40.9285 8.97872 40.9703 9.00331C41.0122 9.02791 41.0457 9.06304 41.0671 9.10464C41.0884 9.14624 41.0966 9.19262 41.0908 9.2384C41.085 9.28418 41.0655 9.3275 41.0343 9.36335L37.4428 13.4981C37.4145 13.5313 37.3786 13.5581 37.3377 13.5766C37.2968 13.5951 37.252 13.6048 37.2065 13.6049V13.6049Z" fill="white"/>
<defs>
<linearGradient id="paint0_linear" x1="0" y1="15" x2="62" y2="15" gradientUnits="userSpaceOnUse">
<stop stop-color="#F83600"/>
<stop offset="1" stop-color="#F9D423"/>
</linearGradient>
</defs>
</svg>
