<svg width="21" height="21" viewBox="0 0 21 21" fill="none" xmlns="http://www.w3.org/2000/svg">
<path d="M20.3436 20.9994C20.1748 20.9994 20.005 20.9346 19.8773 20.8042L13.0507 13.8937C12.796 13.6355 12.7987 13.2199 13.0559 12.9653C13.3149 12.7107 13.7305 12.7124 13.9843 12.9705L20.8109 19.8811C21.0655 20.1393 21.0629 20.5549 20.8056 20.8095C20.677 20.9364 20.5099 20.9994 20.3436 20.9994Z" fill="url(#paint0_linear)"/>
<path d="M7.8932 15.7698C3.54105 15.7698 0 12.2331 0 7.8862C0 3.53755 3.54105 0 7.8932 0C12.2454 0 15.7864 3.53755 15.7864 7.88533C15.7864 12.2331 12.2454 15.7698 7.8932 15.7698ZM7.8932 1.31247C4.26466 1.31247 1.31247 4.26116 1.31247 7.8862C1.31247 11.5104 4.26466 14.4582 7.8932 14.4582C11.5217 14.4582 14.4748 11.5095 14.4748 7.88533C14.4748 4.26116 11.5226 1.31247 7.8932 1.31247Z" fill="url(#paint1_linear)"/>
<defs>
<linearGradient id="paint0_linear" x1="12.8613" y1="16.8875" x2="21.0002" y2="16.8875" gradientUnits="userSpaceOnUse">
<stop stop-color="#A18CD1"/>
<stop offset="1" stop-color="#FBC2EB"/>
</linearGradient>
<linearGradient id="paint1_linear" x1="0" y1="7.88489" x2="15.7864" y2="7.88489" gradientUnits="userSpaceOnUse">
<stop stop-color="#A18CD1"/>
<stop offset="1" stop-color="#FBC2EB"/>
</linearGradient>
</defs>
</svg>
