<svg xmlns="http://www.w3.org/2000/svg" xmlns:xlink="http://www.w3.org/1999/xlink" width="21px" height="20px">
    <path fill="#b8b4b4" d="M20.526,15.321 L16.159,19.546 C16.089,19.614 16.004,19.682 15.920,19.736 C15.611,19.940 15.232,20.021 14.867,19.994 C14.516,19.967 14.151,19.790 13.898,19.546 L9.475,15.280 C8.843,14.682 8.843,13.704 9.475,13.093 C10.093,12.481 11.104,12.481 11.736,13.093 L13.421,14.723 L13.421,1.572 C13.421,0.717 14.137,0.024 15.021,0.024 C15.906,0.024 16.622,0.717 16.622,1.572 L16.622,14.723 L18.265,13.133 C18.883,12.522 19.894,12.522 20.526,13.133 C21.158,13.731 21.158,14.709 20.526,15.321 ZM10.388,7.333 C9.966,7.333 9.559,7.183 9.250,6.884 L7.607,5.295 L7.607,18.445 C7.607,19.301 6.891,19.994 6.007,19.994 C5.122,19.994 4.406,19.301 4.406,18.445 L4.406,5.295 L2.721,6.925 C2.398,7.224 1.991,7.373 1.584,7.373 C1.176,7.373 0.769,7.224 0.474,6.911 C-0.158,6.314 -0.158,5.336 0.474,4.724 C0.488,4.711 0.488,4.711 0.488,4.711 C0.657,4.548 0.825,4.385 0.994,4.222 C1.345,3.868 1.696,3.529 2.047,3.189 C2.454,2.782 2.875,2.388 3.297,1.980 C3.648,1.640 3.999,1.301 4.350,0.961 C4.631,0.689 4.925,0.363 5.276,0.173 C5.403,0.119 5.543,0.065 5.670,0.037 C6.189,-0.085 6.695,0.078 7.074,0.418 C7.439,0.744 7.790,1.083 8.141,1.423 C8.492,1.776 8.857,2.116 9.222,2.469 C9.587,2.822 9.952,3.176 10.317,3.529 C10.612,3.800 10.893,4.086 11.174,4.357 C11.286,4.466 11.413,4.588 11.525,4.697 C12.157,5.295 12.157,6.273 11.525,6.884 C11.202,7.183 10.795,7.333 10.388,7.333 Z"/>
</svg>