<svg width="24" height="24" viewBox="0 0 24 24" fill="none" xmlns="http://www.w3.org/2000/svg">
<g clip-path="url(#clip0)">
<path d="M12 24.001C5.383 24.001 0 18.618 0 12.001C0 5.38398 5.383 0.000976562 12 0.000976562C18.617 0.000976562 24 5.38398 24 12.001C24 18.618 18.617 24.001 12 24.001ZM12 1.00098C5.935 1.00098 1 5.93598 1 12.001C1 18.066 5.935 23.001 12 23.001C18.065 23.001 23 18.066 23 12.001C23 5.93598 18.065 1.00098 12 1.00098Z" fill="#63B861"/>
<path d="M17 17.501C16.8972 17.5013 16.7968 17.4695 16.713 17.41C13.771 15.341 8.89698 15.223 5.61398 15.988C5.54962 16.004 5.48272 16.007 5.41717 15.9969C5.35162 15.9868 5.28873 15.9638 5.23217 15.9292C5.17561 15.8945 5.12651 15.849 5.08773 15.7952C5.04894 15.7414 5.02124 15.6804 5.00625 15.6158C4.99126 15.5512 4.98927 15.4842 5.00041 15.4189C5.01154 15.3535 5.03557 15.291 5.07109 15.235C5.10662 15.1789 5.15293 15.1306 5.20734 15.0926C5.26174 15.0547 5.32315 15.028 5.38798 15.014C8.88198 14.2 14.095 14.347 17.289 16.592C17.3753 16.6535 17.4399 16.7409 17.4735 16.8415C17.5071 16.9421 17.5078 17.0507 17.4757 17.1518C17.4436 17.2529 17.3802 17.3411 17.2947 17.4039C17.2092 17.4666 17.106 17.5006 17 17.501V17.501ZM18.5 14.501C18.3955 14.5014 18.2935 14.4684 18.209 14.407C14.809 11.966 10.643 11.358 5.10098 12.49C5.03664 12.5031 4.97033 12.5035 4.90586 12.491C4.84138 12.4785 4.78 12.4534 4.72521 12.4172C4.67043 12.381 4.62331 12.3343 4.58655 12.2799C4.54979 12.2255 4.52412 12.1643 4.51098 12.1C4.49785 12.0357 4.49752 11.9693 4.51001 11.9049C4.52251 11.8404 4.54758 11.779 4.58379 11.7242C4.62001 11.6694 4.66666 11.6223 4.72108 11.5856C4.77551 11.5488 4.83664 11.5231 4.90098 11.51C10.736 10.316 15.15 10.979 18.793 13.593C18.8798 13.6545 18.9448 13.7422 18.9784 13.8432C19.012 13.9442 19.0125 14.0533 18.9798 14.1546C18.9471 14.2559 18.883 14.3441 18.7967 14.4064C18.7104 14.4687 18.6064 14.5018 18.5 14.501ZM20 10.501C19.9001 10.501 19.8026 10.4711 19.72 10.415C15.42 7.495 8.89298 7.48 4.66698 8.972C4.60456 8.99647 4.53786 9.00813 4.47084 9.0063C4.40382 9.00447 4.33786 8.98918 4.27687 8.96134C4.21588 8.9335 4.16111 8.89368 4.11582 8.84424C4.07053 8.79481 4.03565 8.73677 4.01324 8.67358C3.99084 8.61039 3.98137 8.54334 3.9854 8.47642C3.98943 8.40949 4.00688 8.34407 4.03671 8.28402C4.06654 8.22398 4.10815 8.17055 4.15904 8.12691C4.20994 8.08327 4.26909 8.05031 4.33298 8.03C8.79498 6.453 15.707 6.481 20.28 9.588C20.3681 9.64814 20.4347 9.73489 20.47 9.83558C20.5053 9.93626 20.5075 10.0456 20.4762 10.1476C20.4449 10.2496 20.3818 10.3389 20.2961 10.4025C20.2104 10.4661 20.1067 10.5006 20 10.501V10.501Z" fill="#63B861"/>
</g>
<defs>
<clipPath id="clip0">
<rect width="24" height="24" fill="white"/>
</clipPath>
</defs>
</svg>
