<svg width="18" height="13" viewBox="0 0 18 13" fill="none" xmlns="http://www.w3.org/2000/svg">
<mask id="path-1-inside-1" fill="white">
<path fill-rule="evenodd" clip-rule="evenodd" d="M0.0690732 0.186964C-0.0230244 0.431127 -0.0230244 12.5689 0.0690732 12.813C0.132485 12.9813 1.03372 13 9.06978 13H18V6.5V0H9.06978C1.03372 0 0.132485 0.0186728 0.0690732 0.186964ZM16.1981 1.27341C12.5388 4.72775 9.21205 7.74091 9.05736 7.74091C8.90266 7.74091 5.57588 4.72775 1.9166 1.27341L1.4503 0.833182H9.05736H16.6644L16.1981 1.27341ZM3.63545 3.92234C5.11644 5.29963 6.34251 6.46041 6.36016 6.50189C6.38653 6.56405 2.81493 9.94157 1.24706 11.3368L0.811545 11.7245V6.57138C0.811545 3.73714 0.841044 1.41818 0.877163 1.41818C0.913282 1.41818 2.15457 2.54505 3.63545 3.92234ZM17.3032 6.57138V11.7245L16.8677 11.3375C15.3083 9.95185 11.7274 6.56654 11.7542 6.50331C11.8093 6.37343 17.1235 1.43248 17.2161 1.42515C17.2639 1.42125 17.3032 3.73714 17.3032 6.57138ZM7.98192 7.97727C8.49769 8.46477 8.98117 8.86364 9.05654 8.86364C9.13192 8.86364 9.51576 8.55707 9.90946 8.18244C11.2692 6.88823 10.744 6.70126 13.842 9.58242C15.3304 10.9667 16.5657 12.1424 16.5869 12.1951C16.6083 12.2478 13.22 12.2909 9.05736 12.2909C4.89473 12.2909 1.5064 12.2479 1.52777 12.1952C1.57701 12.0733 6.88569 7.1071 6.97663 7.09788C7.01391 7.09398 7.46626 7.48977 7.98192 7.97727Z"/>
</mask>
<path fill-rule="evenodd" clip-rule="evenodd" d="M0.0690732 0.186964C-0.0230244 0.431127 -0.0230244 12.5689 0.0690732 12.813C0.132485 12.9813 1.03372 13 9.06978 13H18V6.5V0H9.06978C1.03372 0 0.132485 0.0186728 0.0690732 0.186964ZM16.1981 1.27341C12.5388 4.72775 9.21205 7.74091 9.05736 7.74091C8.90266 7.74091 5.57588 4.72775 1.9166 1.27341L1.4503 0.833182H9.05736H16.6644L16.1981 1.27341ZM3.63545 3.92234C5.11644 5.29963 6.34251 6.46041 6.36016 6.50189C6.38653 6.56405 2.81493 9.94157 1.24706 11.3368L0.811545 11.7245V6.57138C0.811545 3.73714 0.841044 1.41818 0.877163 1.41818C0.913282 1.41818 2.15457 2.54505 3.63545 3.92234ZM17.3032 6.57138V11.7245L16.8677 11.3375C15.3083 9.95185 11.7274 6.56654 11.7542 6.50331C11.8093 6.37343 17.1235 1.43248 17.2161 1.42515C17.2639 1.42125 17.3032 3.73714 17.3032 6.57138ZM7.98192 7.97727C8.49769 8.46477 8.98117 8.86364 9.05654 8.86364C9.13192 8.86364 9.51576 8.55707 9.90946 8.18244C11.2692 6.88823 10.744 6.70126 13.842 9.58242C15.3304 10.9667 16.5657 12.1424 16.5869 12.1951C16.6083 12.2478 13.22 12.2909 9.05736 12.2909C4.89473 12.2909 1.5064 12.2479 1.52777 12.1952C1.57701 12.0733 6.88569 7.1071 6.97663 7.09788C7.01391 7.09398 7.46626 7.48977 7.98192 7.97727Z" fill="url(#paint0_linear)" stroke="black" stroke-width="0.2" mask="url(#path-1-inside-1)"/>
<defs>
<linearGradient id="paint0_linear" x1="0" y1="6.5" x2="18" y2="6.5" gradientUnits="userSpaceOnUse">
<stop stop-color="#9795F0"/>
<stop offset="1" stop-color="#FBC8D4"/>
</linearGradient>
</defs>
</svg>
