<svg width="24" height="24" viewBox="0 0 24 24" fill="none" xmlns="http://www.w3.org/2000/svg">
<path d="M18.5152 22.6223C18.2137 22.6223 17.883 22.5233 17.5252 22.326L9.42299 16.344C9.33224 16.2773 9.27674 16.173 9.27074 16.0605C9.26549 15.948 9.31049 15.8393 9.39449 15.7635L18.9915 7.12726C19.1452 6.98851 19.3822 7.00051 19.521 7.15501C19.6597 7.30876 19.647 7.54576 19.4932 7.68451L10.2382 16.014L17.9287 21.696C18.132 21.8048 18.4755 21.9428 18.72 21.8295C18.969 21.7155 19.092 21.3518 19.152 21.0668L22.4332 5.60401C22.5607 5.09326 22.4992 4.68226 22.272 4.49326C22.0987 4.34926 21.8407 4.33876 21.5617 4.46476L2.27474 11.9033C1.68299 12.141 1.49699 12.3855 1.49999 12.4665C1.50224 12.5198 1.62974 12.6668 2.00999 12.783L6.79124 14.2755L12.0405 10.9635C12.216 10.854 12.447 10.9058 12.5572 11.0805C12.6675 11.2553 12.6157 11.487 12.4402 11.5973L7.04474 15.0015C6.95174 15.06 6.83699 15.075 6.73274 15.0428L1.78874 13.4993C0.911244 13.2308 0.761244 12.7568 0.750744 12.498C0.735744 12.1433 0.940494 11.6303 2.00099 11.2058L21.2722 3.77476C21.795 3.53626 22.356 3.58726 22.7527 3.91801C23.2125 4.30126 23.3625 4.97776 23.1645 5.77351L19.8862 21.222C19.7482 21.8805 19.4617 22.3148 19.0335 22.5113C18.8722 22.5855 18.6997 22.6223 18.5152 22.6223Z" fill="#B3E6FF"/>
<path d="M18.5152 22.6223C18.2137 22.6223 17.883 22.5233 17.5252 22.326L12.4852 18.6068C12.3187 18.4838 12.2827 18.2483 12.4065 18.0825C12.5295 17.916 12.765 17.88 12.9307 18.0038L17.9287 21.696C18.132 21.8048 18.4755 21.9428 18.72 21.8295C18.969 21.7155 19.092 21.3518 19.152 21.0668L22.4332 5.60401C22.5607 5.09326 22.4992 4.68226 22.272 4.49326C22.0987 4.34926 21.8407 4.33876 21.5617 4.46476L2.27474 11.9033C1.68299 12.141 1.49699 12.3855 1.49999 12.4665C1.50224 12.5198 1.62974 12.6668 2.00999 12.783L6.95549 14.3265C7.07399 14.3633 7.16624 14.457 7.20299 14.5755L8.90324 20.1713C8.94899 20.2965 8.98424 20.421 9.01499 20.529C9.03899 20.6145 9.06899 20.721 9.08924 20.7525C9.08624 20.7488 9.14624 20.7668 9.30599 20.7675C9.64124 20.7675 9.76874 20.6423 10.0237 20.394L11.2687 19.1835C11.4172 19.038 11.6542 19.0425 11.799 19.191C11.943 19.3395 11.94 19.5773 11.7915 19.7213L10.5675 20.91C10.266 21.2048 9.94649 21.5168 9.30599 21.5168C8.57099 21.5168 8.42249 21.1913 8.29274 20.7323C8.26649 20.6393 8.23649 20.532 8.19149 20.4083L6.54299 14.9835L1.78874 13.4993C0.911244 13.2308 0.761244 12.7568 0.750744 12.498C0.735744 12.1433 0.940494 11.6303 2.00099 11.2058L21.2722 3.77476C21.795 3.53626 22.356 3.58726 22.7527 3.91801C23.2125 4.30126 23.3625 4.97776 23.1645 5.77351L19.8862 21.222C19.7482 21.8805 19.4617 22.3148 19.0335 22.5113C18.8722 22.5855 18.6997 22.6223 18.5152 22.6223Z" fill="#B3E6FF"/>
<path d="M13.875 10.5C13.875 10.7063 13.7063 10.875 13.5 10.875C13.2937 10.875 13.125 10.7063 13.125 10.5C13.125 10.2937 13.2937 10.125 13.5 10.125C13.7063 10.125 13.875 10.2937 13.875 10.5Z" fill="#B3E6FF"/>
</svg>
