<?xml version="1.0" encoding="utf-8"?>
<!-- Generator: Adobe Illustrator 23.1.0, SVG Export Plug-In . SVG Version: 6.00 Build 0)  -->
<svg version="1.1" id="icon-clock" xmlns="http://www.w3.org/2000/svg" xmlns:xlink="http://www.w3.org/1999/xlink" x="0px" y="0px"
	 viewBox="0 0 19 19" style="enable-background:new 0 0 19 19;" xml:space="preserve">
<style type="text/css">
	.st0{fill-rule:evenodd;clip-rule:evenodd;fill:#999999;}
</style>
<path class="st0" d="M5.9,6c0.2-0.2,0.6-0.2,0.9,0L10,9.1c0.2,0.2,0.3,0.6,0,0.9c-0.2,0.2-0.6,0.3-0.9,0L5.9,6.9
	C5.6,6.7,5.6,6.3,5.9,6C5.9,6,5.9,6,5.9,6z"/>
<path class="st0" d="M9.5,16.9c3.8,0,6.9-3.1,6.9-6.9s-3.1-6.9-6.9-6.9l0,0c-3.8,0-6.9,3.1-6.9,6.9S5.7,16.9,9.5,16.9z M9.5,18.7
	c4.8,0,8.7-3.9,8.7-8.7s-3.9-8.7-8.7-8.7c0,0,0,0,0,0c-4.8,0-8.7,3.9-8.7,8.7C0.8,14.8,4.7,18.7,9.5,18.7z M0.9,4.4
	C1.8,3,3,1.8,4.4,0.9L3.5,0C2.1,0.9,0.9,2.1,0,3.5C0,3.5,0.9,4.4,0.9,4.4z M19,3.5l-0.9,0.9C17.2,3,16,1.8,14.6,0.9L15.5,0
	C16.9,0.9,18.1,2.1,19,3.5z"/>
</svg>
