<svg width="24" height="24" viewBox="0 0 24 24" fill="none" xmlns="http://www.w3.org/2000/svg">
<g clip-path="url(#clip0)">
<path d="M22.789 19.001H19.221C18.9267 19.0019 18.6352 18.9444 18.3633 18.8318C18.0913 18.7192 17.8445 18.5537 17.637 18.345L15.561 16.269C15.433 16.1418 15.2702 16.0552 15.0932 16.0203C14.9161 15.9854 14.7327 16.0035 14.5659 16.0726C14.3992 16.1416 14.2566 16.2585 14.1561 16.4084C14.0555 16.5582 14.0016 16.7345 14.001 16.915V17.772C14.0007 18.0979 13.8712 18.4103 13.6407 18.6407C13.4103 18.8712 13.0979 19.0007 12.772 19.001H9.50001C7.21001 19.001 3.53201 13.857 0.849006 9.54199C0.292609 8.64441 -0.00148204 7.60903 5.61609e-06 6.55299V6.29799C5.61609e-06 5.58299 0.582006 5.00099 1.29701 5.00099H4.50001C4.5924 5.00099 4.683 5.02659 4.76173 5.07496C4.84045 5.12333 4.90424 5.19257 4.94601 5.27499C5.64901 6.66299 7.63101 10.424 8.35301 11.147C8.53701 11.33 8.71401 11.438 8.82601 11.416C8.89227 11.4051 8.95327 11.3732 9.00001 11.325V7.52799C9.00001 6.99899 8.79401 6.50299 8.42001 6.12899L8.14601 5.85499C8.0754 5.78525 8.0272 5.69604 8.00755 5.59877C7.9879 5.50149 7.99771 5.40057 8.03571 5.3089C8.07371 5.21722 8.13818 5.13896 8.22089 5.08411C8.30359 5.02927 8.40077 5.00033 8.50001 5.00099H12.906C13.509 5.00099 14 5.49199 14 6.09499V11.21C14.277 11.338 14.773 11.484 15.165 11.131C15.584 10.751 16.629 8.66799 17.825 5.82299C18.035 5.32399 18.522 5.00099 19.066 5.00099H22.574C23.36 5.00099 24 5.64099 24 6.42799C24 7.23299 23.723 8.02299 23.22 8.65199L20 12.677V13.295L23.644 16.939C23.8419 16.9399 24.0365 16.9895 24.2107 17.0834C24.385 17.1773 24.5334 17.3126 24.6429 17.4774C24.7525 17.6422 24.8198 17.8315 24.8389 18.0285C24.858 18.2254 24.8284 18.4241 24.7526 18.6069C24.6767 18.7897 24.5571 18.9511 24.4042 19.0767C24.2513 19.2024 24.0699 19.2885 23.8758 19.3274C23.6818 19.3663 23.4812 19.3569 23.2916 19.3C23.1021 19.2431 22.9295 19.1404 22.789 19.001V19.001ZM14.914 15.001C15.425 15.001 15.906 15.2 16.268 15.562L18.344 17.638C18.575 17.869 18.895 18.001 19.221 18.001H22.789C22.8306 18.0024 22.8716 17.9907 22.9063 17.9675C22.9409 17.9444 22.9674 17.911 22.982 17.872C22.9992 17.834 23.0041 17.7917 22.996 17.7508C22.988 17.7099 22.9673 17.6726 22.937 17.644L19.147 13.854C19.1004 13.8078 19.0634 13.7528 19.0381 13.6922C19.0129 13.6316 18.9999 13.5666 19 13.501V12.501C19 12.387 19.039 12.277 19.109 12.188L22.439 8.02599C22.8017 7.57232 22.9996 7.00885 23 6.42799C23 6.31474 22.955 6.20613 22.8749 6.12605C22.7949 6.04597 22.6863 6.00099 22.573 6.00099H19.065C18.9971 6.00048 18.9307 6.02005 18.8739 6.05724C18.8171 6.09442 18.7726 6.14757 18.746 6.20999C17.808 8.43899 16.542 11.231 15.835 11.871C14.908 12.71 13.713 12.262 13.212 11.909C13.1464 11.8631 13.0928 11.8021 13.0559 11.731C13.019 11.66 12.9998 11.5811 13 11.501V6.09499C13 6.07006 12.9901 6.04615 12.9725 6.02852C12.9548 6.01089 12.9309 6.00099 12.906 6.00099H9.58101C9.85401 6.45799 10 6.98199 10 7.52799V11.501C10 11.592 9.97601 11.681 9.92901 11.758C9.89401 11.817 9.56801 12.333 8.95201 12.408C8.51201 12.464 8.06901 12.277 7.64601 11.854C6.77701 10.985 4.77901 7.14499 4.19301 5.99999H1.29701C1.21831 6.00077 1.14307 6.03245 1.08751 6.0882C1.03195 6.14394 1.00053 6.21929 1.00001 6.29799V6.55299C1.00001 7.42699 1.24201 8.27799 1.69901 9.01399C5.14501 14.557 8.13401 18.001 9.50001 18.001H12.771C12.8317 18.0007 12.8898 17.9765 12.9326 17.9336C12.9755 17.8907 12.9997 17.8326 13 17.772V16.915C13 15.86 13.859 15.001 14.914 15.001V15.001Z" fill="#0194FF"/>
</g>
<defs>
<clipPath id="clip0">
<rect width="24" height="24" fill="white"/>
</clipPath>
</defs>
</svg>
