<svg width="24" height="24" viewBox="0 0 24 24" fill="none" xmlns="http://www.w3.org/2000/svg">
<g clip-path="url(#clip0)">
<path d="M0.500024 24.002C0.418703 24.0024 0.338521 23.9828 0.266484 23.9451C0.194447 23.9074 0.132748 23.8526 0.0867774 23.7855C0.0408066 23.7184 0.0119631 23.6411 0.00276714 23.5603C-0.00642882 23.4795 0.0043026 23.3976 0.0340237 23.322L1.89702 18.477C0.65429 16.5464 -0.00443604 14.2979 2.37335e-05 12.002C2.37335e-05 5.38495 5.38302 0.00195312 12 0.00195312C18.617 0.00195312 24 5.38495 24 12.002C24 18.619 18.617 24.002 12 24.002C9.75602 24.002 7.57102 23.376 5.66702 22.188L0.668024 23.973C0.614165 23.9924 0.557293 24.0022 0.500024 24.002V24.002ZM5.73002 21.135C5.82602 21.135 5.92102 21.162 6.00302 21.216C7.78544 22.3827 9.86969 23.0038 12 23.003C18.065 23.003 23 18.068 23 12.003C23 5.93795 18.065 1.00295 12 1.00295C5.93502 1.00295 1.00002 5.93795 1.00002 12.003C1.00002 14.201 1.64602 16.323 2.87002 18.139C2.96102 18.274 2.98002 18.446 2.92202 18.598L1.35802 22.665L5.56202 21.164C5.61599 21.1449 5.67279 21.1351 5.73002 21.135V21.135Z" fill="#BDFBA0"/>
<path d="M15 18.002C13.429 18.002 10.413 16.123 9.146 14.856C7.879 13.588 6 10.572 6 9.00195C6 7.38595 7.375 6.00195 8.5 6.00195H9.5C9.59326 6.00205 9.68464 6.02823 9.76381 6.07753C9.84298 6.12683 9.90678 6.19729 9.948 6.28095C9.949 6.28195 10.551 7.50595 10.945 8.27395C11.389 9.14095 10.554 10.161 10.079 10.642C10.249 11.078 10.646 11.942 11.353 12.649C12.06 13.356 12.924 13.754 13.36 13.923C13.84 13.447 14.86 12.611 15.728 13.057C16.496 13.452 17.719 14.053 17.72 14.053C17.892 14.138 18 14.312 18 14.502V15.502C18 16.628 16.615 18.002 15 18.002V18.002ZM8.5 7.00195C7.935 7.00195 7 7.93695 7 9.00195C7 10.161 8.634 12.928 9.854 14.148C11.187 15.481 13.928 17.002 15 17.002C16.065 17.002 17 16.067 17 15.502V14.813C16.4216 14.5285 15.8452 14.2398 15.271 13.947C15.037 13.821 14.326 14.322 13.875 14.833C13.8122 14.9038 13.7305 14.9555 13.6396 14.9818C13.5486 15.0082 13.452 15.0082 13.361 14.982C13.298 14.964 11.817 14.526 10.646 13.355C9.475 12.184 9.038 10.703 9.019 10.64C8.99271 10.549 8.99275 10.4524 9.01912 10.3614C9.04549 10.2704 9.09712 10.1888 9.168 10.126C9.678 9.67495 10.176 8.96695 10.054 8.72895C9.775 8.18595 9.392 7.41195 9.19 7.00195H8.5V7.00195Z" fill="#BDFBA0"/>
</g>
<defs>
<clipPath id="clip0">
<rect width="24" height="24" fill="white"/>
</clipPath>
</defs>
</svg>
