<svg width="32" height="96" viewBox="0 0 32 96" fill="none" xmlns="http://www.w3.org/2000/svg">
<path fill-rule="evenodd" clip-rule="evenodd" d="M9.41915 1.5445C7.05265 4.0785 5.17765 10.9355 5.46715 16C5.49065 16.4125 5.27565 19.868 4.98965 23.679C4.70315 27.4905 4.58515 30.7965 4.72715 31.026C4.86915 31.256 4.93915 36.8005 4.88215 43.347C4.82515 49.8935 4.82015 59.2575 4.87115 64.156L4.96415 73.062L3.39465 74.3825C1.30365 76.142 0.559648 78.0965 0.161148 82.8785C-0.141852 86.512 -0.0778519 86.961 0.880148 87.919C1.89165 88.9305 1.89915 89.027 1.08015 90.454C0.252148 91.897 0.261648 91.9735 1.43715 93.2245C3.24665 95.1505 5.95965 95.704 13.7111 95.728C21.2431 95.7515 24.8826 95.0305 28.2556 92.846C29.9276 91.7635 30.5456 89.92 29.4611 89.25C28.6291 88.736 28.8921 88.192 30.2781 87.5605C31.5456 86.983 31.5841 86.8445 31.3101 83.8555C30.8966 79.344 30.1206 77.179 28.1251 74.9705L26.3551 73.0115L26.1831 63.131C25.6476 32.4485 25.4321 25.749 24.9176 23.843C24.6071 22.6915 24.3071 19.8375 24.2511 17.5C24.1126 11.709 21.6431 3.9885 19.1736 1.625C17.6081 0.1265 17.2181 0 14.1691 0C11.1181 0 10.7506 0.1195 9.41915 1.5445Z" fill="black"/>
</svg>
