<svg width="33" height="94" viewBox="0 0 33 94" fill="none" xmlns="http://www.w3.org/2000/svg">
<path fill-rule="evenodd" clip-rule="evenodd" d="M15.907 1.41838C14.4985 2.92638 13.494 5.28688 12.079 10.4144C11.256 13.3954 10.9285 15.4984 9.39352 27.6644C8.83852 32.0644 8.28602 36.0019 8.16652 36.4144C8.04652 36.8269 7.48302 43.0144 6.91452 50.1644C5.37302 69.5554 4.67202 74.3374 3.13602 75.9409C2.28052 76.8334 1.91852 77.7224 1.99602 78.7399C2.06352 79.6269 1.66402 80.8564 1.01052 81.7749C-1.25948 84.9629 0.405022 88.2114 4.89952 89.3629C6.83352 89.8589 7.59152 90.3244 7.93502 91.2279C8.48702 92.6799 10.47 93.5169 12.876 93.3139C14.2445 93.1984 14.877 92.7989 15.6545 91.5589C16.8595 89.6364 18.0915 89.5039 23.0125 90.7649C27.539 91.9249 28.602 91.4979 30.732 87.6644C32.633 84.2429 32.816 82.3349 31.4565 80.1054C30.265 78.1514 28.4735 77.6659 26.104 78.6559C25.1055 79.0729 24.201 79.4144 24.094 79.4144C23.987 79.4144 24.043 78.5154 24.2185 77.4169C24.4295 76.0974 24.319 75.1564 23.893 74.6424C23.5375 74.2144 23.282 72.8099 23.3235 71.5149C23.4365 68.0104 23.4345 67.8609 23.1725 58.4144C23.039 53.6019 22.809 42.8019 22.6615 34.4144C22.514 26.0269 22.3165 15.4674 22.222 10.9489L22.0505 2.73388L20.473 1.32388C18.4705 -0.465119 17.651 -0.448119 15.907 1.41838Z" fill="black"/>
</svg>
