<svg width="57" height="93" viewBox="0 0 57 93" fill="none" xmlns="http://www.w3.org/2000/svg">
<path fill-rule="evenodd" clip-rule="evenodd" d="M37.2398 1.21227C35.8458 2.71677 35.4618 4.75227 35.4543 10.6773C35.4498 14.4983 35.5973 15.3028 36.4743 16.2363C37.7528 17.5973 39.2393 24.5113 39.9908 32.5938C40.8583 41.9143 39.9638 58.1763 38.2138 64.9113C36.3823 71.9588 34.2393 74.4538 30.0148 74.4573C28.1558 74.4588 27.5518 74.1798 25.9503 72.5783C23.5118 70.1398 22.7093 66.6078 23.1463 60.2338C23.3163 57.7453 23.5893 51.3218 23.7523 45.9593C24.0283 36.8743 23.9638 35.7943 22.8043 30.1263C22.1203 26.7803 20.9728 22.7593 20.2548 21.1908C19.5363 19.6218 18.9488 17.6833 18.9488 16.8828C18.9488 14.5648 17.7058 12.2063 15.6643 10.6503C14.0858 9.44727 13.3133 9.21427 10.9863 9.23877C5.45033 9.29777 3.64632 11.5438 2.22182 20.1523C1.77232 22.8708 1.07682 25.7288 0.676324 26.5023C-0.406676 28.5978 -0.217176 29.4833 1.44882 30.1123C2.88332 30.6538 2.94982 30.8108 2.97082 33.6938C2.98282 35.3523 3.19832 38.3968 3.44932 40.4593C3.74232 42.8658 3.70332 47.9033 3.34032 54.5203C2.70182 66.1653 3.10332 70.9648 5.13832 76.0028C7.32833 81.4243 9.47783 84.4263 13.3933 87.5318C18.1738 91.3233 21.6618 92.4663 28.3763 92.4413C38.2078 92.4053 42.6833 90.2643 47.7398 83.1783C53.6958 74.8318 56.2388 64.2288 56.7903 45.4423C57.0643 36.1048 56.9913 34.6793 55.9843 29.6923C54.1758 20.7378 49.7838 7.98577 47.1083 3.92127C44.6493 0.186266 39.5008 -1.22723 37.2398 1.21227Z" fill="black"/>
</svg>
