<svg width="156" height="94" viewBox="0 0 156 94" fill="none" xmlns="http://www.w3.org/2000/svg">
<path fill-rule="evenodd" clip-rule="evenodd" d="M123.345 0.67614C107.419 2.84764 86.3216 11.0546 62.7071 24.2646C48.4416 32.2446 37.8726 39.1536 22.4571 50.5756C13.2581 57.3911 4.21256 66.4446 1.92406 71.1271C-0.984945 77.0781 -0.559445 84.2361 2.95706 88.5021C7.83006 94.4141 18.5291 95.0456 26.6421 89.9001C29.7641 87.9201 33.1551 84.4621 34.4356 81.9521C35.0116 80.8231 35.7436 78.0451 36.0621 75.7796C36.6171 71.8346 36.7916 71.4506 40.1741 66.7151C44.4061 60.7921 53.2636 51.3836 57.8221 47.9696C68.0426 40.3156 78.1261 37.2811 106.207 33.4081C133.311 29.6701 144.135 26.1851 151.493 18.8271C154.547 15.7731 155.957 13.0931 155.957 10.3441C155.957 8.51364 155.674 7.96764 153.792 6.16364C151.088 3.57264 146.046 1.62514 139.479 0.635139C133.782 -0.223361 129.87 -0.21336 123.345 0.67614Z" fill="black"/>
</svg>
