<svg width="55" height="86" viewBox="0 0 55 86" fill="none" xmlns="http://www.w3.org/2000/svg">
<path fill-rule="evenodd" clip-rule="evenodd" d="M44.3005 0.133594C44.0944 0.203854 43.5901 0.375782 43.1798 0.515671C42.4727 0.756597 42.0922 0.976837 41.3833 1.55569C40.5476 2.23798 40.2532 2.53491 39.9187 3.03278C39.7188 3.33035 39.5192 3.6023 39.4752 3.63699C39.315 3.76351 38.7725 4.84856 38.6239 5.33988C38.3441 6.26423 38.1237 6.63356 37.3999 7.38939C36.5835 8.24197 36.2786 8.62316 36.0879 9.02946C36.0147 9.18549 35.9075 9.31327 35.8498 9.31327C35.7922 9.31327 35.745 9.36423 35.745 9.42655C35.745 9.51926 35.1427 10.6067 34.6198 11.4576C34.5559 11.5617 34.1973 12.2566 33.823 13.0018C33.4485 13.7471 33.1141 14.2863 33.0797 14.2002C33.0453 14.114 33.0125 14.1926 33.0072 14.375C33.0018 14.5573 32.9147 14.7755 32.8139 14.86C32.7132 14.9446 32.6428 15.0599 32.6578 15.1164C32.6728 15.173 32.4748 15.4098 32.2178 15.6427C31.8371 15.9877 31.7262 16.1996 31.6186 16.787C31.4867 17.5078 31.2319 18.167 30.4275 19.8676C30.1922 20.3651 29.9998 20.8269 29.9998 20.8939C29.9998 20.9607 29.9158 21.178 29.8132 21.3768C29.7106 21.5754 29.6263 21.849 29.6258 21.9849C29.6254 22.1206 29.4214 22.4095 29.1724 22.6267C28.7798 22.9694 28.7133 23.1089 28.6715 23.6793C28.645 24.0409 28.546 24.4616 28.4515 24.6141C28.3571 24.7668 28.1242 25.374 27.934 25.9637C27.7437 26.5534 27.5147 27.1502 27.4251 27.2898C27.3355 27.4294 27.1993 27.8268 27.1226 28.1728C26.9274 29.054 25.6262 31.6735 25.306 31.8302C25.1631 31.9001 25.0701 32.0297 25.0993 32.1182C25.1285 32.2067 25.0979 32.3482 25.0312 32.4326C24.9647 32.517 24.7293 33.182 24.5084 33.9105C24.2876 34.6389 24.0568 35.3485 23.9955 35.4872C23.9343 35.626 23.8247 36.0183 23.752 36.359C23.6793 36.6998 23.3406 37.8089 22.9994 38.824C22.4685 40.4028 22.3715 40.8417 22.3286 41.8624C22.3008 42.5187 22.2213 43.2042 22.1517 43.3857C22.082 43.5673 21.966 44.0214 21.8937 44.3948C21.4222 46.8292 21.0316 48.6529 20.9547 48.7787C20.9054 48.8593 20.8187 48.8962 20.762 48.8609C20.6423 48.7862 20.2578 49.6942 20.2578 50.0514C20.2578 50.1847 20.2039 50.3273 20.1383 50.3684C20.0724 50.4094 20.0233 50.5972 20.029 50.7858C20.0347 50.9743 20.0005 51.2704 19.953 51.4439C19.9056 51.6173 19.8131 52.2133 19.7477 52.7683C19.6823 53.3234 19.5457 54.0687 19.4444 54.4248C19.3432 54.7809 19.2014 55.5188 19.1297 56.0646C19.0579 56.6104 18.9496 57.199 18.889 57.3724C18.7076 57.8926 18.4036 59.0198 18.1919 59.9583C18.0822 60.4439 17.9317 61.0016 17.8573 61.1976L17.7219 61.5538L16.8776 60.6615C16.4133 60.1707 15.9699 59.7691 15.8922 59.7691C15.8146 59.7691 15.6303 59.6556 15.483 59.5168C15.3355 59.378 15.1471 59.2645 15.0643 59.2645C14.9816 59.2645 14.8832 59.1835 14.8455 59.0845C14.7494 58.8316 13.7645 58.4157 12.876 58.253C11.9447 58.0825 10.9317 58.1088 9.95376 58.3288C9.5416 58.4215 9.06387 58.5236 8.89213 58.5556C8.4455 58.6387 6.88166 59.4423 6.55556 59.756C6.40381 59.9019 6.24531 60.0214 6.20322 60.0214C5.98453 60.0214 4.76803 61.2652 4.7047 61.5534C4.66449 61.7371 4.52735 61.9824 4.4002 62.0988C4.27293 62.2149 4.1007 62.4763 4.01739 62.6794C3.93409 62.8826 3.81731 63.0487 3.75786 63.0487C3.69841 63.0487 3.57189 63.2331 3.47671 63.4587C3.38154 63.6842 3.18133 64.0105 3.03196 64.184C2.27096 65.0674 2.02666 65.3964 2.02478 65.54C2.02366 65.6268 1.96658 65.6976 1.89789 65.6976C1.8292 65.6976 1.77299 65.7882 1.77299 65.899C1.77299 66.0096 1.66883 66.2509 1.54143 66.4351C1.35808 66.7001 1.10492 67.396 1.13339 67.5564C1.13627 67.5728 1.05283 67.8283 0.947796 68.1241C0.618942 69.0511 0.46257 72.1948 0.679517 73.5183C0.946922 75.1493 1.36146 76.7858 1.54243 76.9243C1.63585 76.9958 1.83881 77.9404 1.79522 78.1002C1.77961 78.1574 1.81159 78.1762 1.86629 78.1421C1.92099 78.108 2.07324 78.3425 2.20464 78.6634C2.50102 79.3868 2.89369 79.7463 3.74824 80.0762C4.72669 80.4538 5.26624 80.5512 7.25411 80.7084C9.12282 80.8562 9.42719 80.9622 9.25596 81.4048C8.90287 82.3175 9.47478 84.2402 10.0994 84.2402C10.1926 84.2402 10.5069 84.3448 10.7982 84.4729C11.43 84.7506 12.084 84.9493 13.7007 85.3545C16.1843 85.977 21.0726 86.1881 24.3794 85.8158C27.7835 85.4324 28.675 85.2538 31.2487 84.4391C31.8326 84.2542 32.479 84.0569 32.6851 84.0005C33.0717 83.8947 34.1656 83.4245 34.4961 83.222C34.5991 83.1588 34.9363 82.9692 35.2454 82.8005C35.9697 82.4053 36.7096 81.6668 36.9405 81.1084C37.0993 80.7248 37.0997 80.5782 36.9433 79.963C36.7763 79.3057 36.7801 79.2404 36.9979 79.0038C37.4642 78.4973 37.7579 77.5984 37.7293 76.765C37.6957 75.7883 37.8033 74.7897 38.0021 74.2348C38.1057 73.9454 38.1142 73.7412 38.029 73.5875C37.948 73.4412 37.9462 73.1662 38.0242 72.7972C38.1178 72.354 38.1017 72.1451 37.9501 71.8341C37.8436 71.6157 37.7297 71.1124 37.6969 70.7157C37.6562 70.2226 37.5423 69.8636 37.3367 69.5805C37.1395 69.3088 37.0281 68.9713 37.0129 68.5989C36.9746 67.6702 36.8526 66.8374 36.7448 66.7702C36.6894 66.7356 36.6427 66.141 36.641 65.4489C36.6394 64.7568 36.604 64.1348 36.5622 64.0667C36.5206 63.9985 36.5726 63.7347 36.6778 63.4804C36.8049 63.173 36.8691 62.608 36.8691 61.7954C36.8691 60.5744 37.0642 58.7742 37.4179 56.7318C37.5211 56.1365 37.6389 55.058 37.6799 54.3351C37.7876 52.4358 37.9434 51.556 38.4483 49.9933C39.5397 46.6161 39.7245 46.0327 39.9671 45.2C40.1086 44.7143 40.3122 43.872 40.4197 43.3281C40.5272 42.7841 40.6497 42.2827 40.692 42.2136C40.7342 42.1446 40.8401 41.7666 40.9273 41.3735C41.0144 40.9805 41.3818 39.8075 41.7435 38.7669C42.1052 37.7262 42.4732 36.5909 42.5613 36.2441C43.1226 34.0341 43.8815 31.9629 44.557 30.7976C44.725 30.5077 44.8625 30.1945 44.8625 30.1016C44.8625 30.0086 45.003 29.7238 45.1748 29.4685C45.3465 29.2133 45.487 28.8901 45.487 28.7504C45.487 28.6106 45.5904 28.3948 45.717 28.2707C45.9574 28.0345 46.7377 26.482 46.7873 26.1409C46.8031 26.0323 46.8861 25.8997 46.9717 25.8464C47.0677 25.7863 47.1493 25.3433 47.1844 24.6897C47.2157 24.1069 47.3083 23.4978 47.39 23.3361C47.5308 23.0569 47.5857 23.0457 48.4653 23.1146C49.4113 23.1887 50.3164 22.9964 50.6614 22.648C50.7484 22.5601 50.8563 21.9688 50.9057 21.3098C50.9541 20.6604 51.0973 19.6964 51.2237 19.1677C51.6201 17.5088 52.528 15.1157 52.7607 15.1157C52.8212 15.1157 52.8385 15.0631 52.7991 14.9988C52.7598 14.9344 52.8463 14.5796 52.9916 14.2104C53.1368 13.841 53.5227 12.7159 53.8488 11.7099C54.528 9.6155 54.7193 7.9772 54.4821 6.28592C54.3491 5.33698 53.8981 4.01541 53.7073 4.01541C53.6512 4.01541 53.6053 3.95701 53.6053 3.88561C53.6053 3.81409 53.3805 3.46847 53.1057 3.11742C52.831 2.76638 52.6062 2.52457 52.6062 2.58032C52.6062 2.63595 52.3393 2.42214 52.0129 2.10503C51.0909 1.20931 49.8314 0.560955 48.2348 0.160336C47.4382 -0.0395952 44.8595 -0.0571286 44.3005 0.133594Z" fill="black"/>
</svg>
