<svg width="84" height="79" viewBox="0 0 84 79" fill="none" xmlns="http://www.w3.org/2000/svg">
<path fill-rule="evenodd" clip-rule="evenodd" d="M75.0848 0.141C74.2187 0.418077 73.534 0.862536 72.7635 1.64785C72.3318 2.08766 71.899 2.60415 71.8016 2.79558C71.7043 2.9869 71.5898 3.16677 71.5473 3.19515C71.4289 3.27409 70.5351 5.01447 70.1957 5.82661C69.5844 7.2897 69.1305 9.0986 68.8411 11.2249C68.7039 12.2324 68.7807 14.7106 68.992 16.0945C69.226 17.628 69.2065 17.5206 69.4911 18.8291C70.0318 21.3139 70.3312 23.9057 70.2543 25.4336C70.188 26.7495 69.6729 28.7756 68.89 30.7997C68.7802 31.0835 68.452 31.9658 68.1605 32.7604C67.5748 34.3571 66.8453 36.1969 66.4829 36.9914C66.3534 37.2752 66.1207 37.786 65.9659 38.1265C65.3785 39.4179 64.5759 41.0426 64.1815 41.7383C63.9562 42.1356 63.7129 42.5768 63.6406 42.7187C63.5092 42.9768 62.194 44.9851 61.647 45.7629C60.9476 46.7575 60.8269 46.8747 60.197 47.1718C59.8252 47.3473 59.3878 47.6575 59.1726 47.8983C58.9662 48.1295 58.4861 48.6492 58.1056 49.0531C57.7252 49.457 57.3084 49.9036 57.1794 50.0455C57.0503 50.1874 56.8404 50.3963 56.7129 50.5099C56.5853 50.6234 56.2876 50.9074 56.0514 51.141C55.1101 52.0718 54.8135 52.3168 54.7299 52.2326C54.6063 52.108 55.1027 49.2054 55.3598 48.5492C55.4043 48.4356 55.5473 48.0665 55.6775 47.7289C55.9362 47.0581 56.1203 46.7405 56.7659 45.8505C57.6409 44.6444 57.7692 43.5236 57.2192 41.8931C56.9829 41.1931 56.8719 40.6434 56.8307 39.9709C56.7774 39.099 56.7919 38.9974 57.0252 38.6033C57.1638 38.3691 57.3154 38.2125 57.3623 38.2552C57.409 38.2979 57.4177 38.2807 57.3815 38.2168C57.2516 37.9877 58.8723 36.053 59.0837 36.1847C59.1408 36.2202 59.1584 36.2019 59.1228 36.1439C59.0322 35.9962 59.4224 35.6639 59.5749 35.7589C59.652 35.8069 59.6732 35.7934 59.6304 35.7237C59.5924 35.6617 59.6273 35.5733 59.708 35.5271C59.7887 35.4811 60.0089 35.3041 60.1974 35.1339C60.3859 34.9636 60.7102 34.6961 60.9181 34.5395C62.1926 33.579 62.704 32.5473 62.4755 31.3968C62.3473 30.7508 61.2614 30.5402 60.2713 30.9692L59.761 31.1904L59.4535 30.8936C59.1865 30.6358 59.069 30.5973 58.5619 30.6014C57.8815 30.6067 57.2453 30.8595 56.0315 31.6066C54.5071 32.5449 53.9447 32.9972 52.5837 34.3803C51.3797 35.6036 51.0957 35.9539 50.1376 37.3959C48.8409 39.3474 48.1926 40.6962 47.9383 41.9705C47.9016 42.155 47.8518 42.3059 47.8276 42.3059C47.8035 42.3059 47.473 41.9894 47.0931 41.6026C46.444 40.9417 45.5042 40.1904 45.3266 40.1904C45.2829 40.1904 45.064 40.0697 44.8403 39.9222C44.2899 39.5592 42.7553 38.9351 41.6636 38.6306C41.1274 38.4809 40.2343 38.3398 39.4367 38.2787C38.7042 38.2226 37.621 38.1265 37.0294 38.0653C35.759 37.9337 34.1926 37.9123 33.5465 38.0175C31.705 38.3176 30.6583 39.34 30.9799 40.5242C31.2836 41.642 31.8569 41.9792 33.6814 42.1129C36.2922 42.3042 37.0851 42.41 37.7613 42.6573C38.6132 42.9688 38.7726 43.057 39.0235 43.3559C39.2823 43.6639 39.2842 44.6041 39.0293 46.1197C38.7157 47.9837 38.9843 49.2256 39.8977 50.1367C40.1112 50.3497 40.6941 50.7359 41.1929 50.995C41.6918 51.2541 42.0886 51.518 42.0744 51.5813C42.0604 51.6447 42.1141 51.6966 42.1939 51.6966C42.5388 51.6966 43.227 52.9152 44.262 55.3582C44.5986 56.1531 44.9171 57.4887 44.9171 58.106V58.4042H42.4526C39.4856 58.4042 38.5679 58.2547 36.6973 57.4664C36.0357 57.1876 35.4682 56.9595 35.4361 56.9595C35.404 56.9595 35.1386 56.847 34.8462 56.7097C34.2918 56.449 33.0194 56.2108 32.4042 56.2526C32.0006 56.28 31.6 56.0653 30.5758 55.2729C29.4665 54.4146 27.5768 52.5675 27.1285 51.903C26.9207 51.5951 26.5762 51.14 26.0348 50.4583C25.786 50.1449 24.0898 47.6714 22.7443 45.6597C22.2508 44.9219 21.6753 44.1092 21.4653 43.8538C20.5541 42.7451 19.6922 41.1773 19.3378 39.984C19.0853 39.1334 19.0826 35.6949 19.3332 34.2567C19.7014 32.1439 20.3642 28.387 20.4984 27.6523C20.9149 25.3706 20.9877 24.6526 20.9901 22.8021C20.9915 21.7328 20.9347 20.5299 20.8612 20.0675C20.5337 18.011 20.192 16.5962 19.6647 15.1141C19.4628 14.5466 19.2254 13.8732 19.137 13.6178C19.0486 13.3624 18.7973 12.7768 18.5786 12.3164C18.3599 11.856 18.1809 11.451 18.1809 11.4165C18.1809 11.3818 17.9735 11 17.72 10.568C17.4664 10.136 17.259 9.76544 17.259 9.7447C17.259 9.70652 16.6696 8.80563 16.5185 8.61286C16.474 8.5561 16.2435 8.25426 16.0062 7.9421C15.4886 7.26101 14.4947 6.25105 13.9298 5.83198C13.7044 5.6647 13.497 5.50051 13.4688 5.46708C13.4406 5.43364 13.1897 5.25625 12.911 5.07298C11.5185 4.15702 9.44066 4.08706 7.83476 4.90188C7.24257 5.20238 6.1388 6.14579 5.48771 6.90788C4.66903 7.86615 4.22036 8.58717 3.55995 10.006C2.81461 11.6071 2.88611 11.4215 2.36696 13.1018C1.62931 15.4897 1.34761 16.7114 1.0109 18.9839C0.52268 22.2791 0.438784 27.0622 0.810017 30.4385C1.41931 35.9799 1.77293 37.8439 2.79966 40.9276C3.58709 43.2928 5.06209 46.399 6.44222 48.5983C6.67291 48.9658 6.9077 49.3502 6.96404 49.4525C7.27729 50.0212 9.45193 53.4836 10.242 54.6715C10.7491 55.4339 11.2101 56.1327 11.2664 56.2244C11.3227 56.3161 11.4888 56.5539 11.6355 56.7527C11.7821 56.9516 12.1249 57.4394 12.3974 57.8367C13.1874 58.9886 14.8318 61.2453 15.5412 62.1508C15.6388 62.2754 15.7547 62.4237 15.7987 62.4804C15.9247 62.6426 17.0203 63.9802 17.4414 64.4859C18.5823 65.856 22.008 69.0585 22.5151 69.229C22.5821 69.2515 22.8444 69.4409 23.0979 69.6499C23.3514 69.8587 23.8276 70.2072 24.156 70.4241C24.4844 70.6411 24.9274 71.0554 25.1404 71.3448C25.4663 71.7876 26.0989 72.4171 26.7863 72.9825C26.8711 73.0524 27.2168 73.1948 27.5545 73.2991C27.8922 73.4034 28.3299 73.5901 28.5271 73.7138C29.2024 74.1375 29.808 74.3841 30.4734 74.5063C30.8396 74.5736 31.3928 74.7133 31.7026 74.8168C32.0125 74.9204 32.5657 75.0595 32.9319 75.1261C33.2981 75.1927 33.6727 75.2854 33.7644 75.3322C33.8561 75.3789 34.0949 75.4482 34.2951 75.486C34.9656 75.6128 34.8331 75.8614 34.0117 76.0176C33.9014 76.0387 33.6797 76.2163 33.5193 76.4124C33.3587 76.6085 33.1956 76.7643 33.1565 76.7587C32.8629 76.7162 32.2745 77.0538 32.2622 77.2717C32.2439 77.5921 32.0667 77.933 31.8788 78.0092L31.6514 78.1013L31.8819 78.1079C32.0087 78.1114 32.1124 78.1636 32.1124 78.2237C32.1124 78.2838 32.1657 78.2999 32.2307 78.2594C32.2993 78.2166 32.3213 78.2308 32.283 78.2931C32.2468 78.3523 32.2857 78.4579 32.3696 78.5281C32.4535 78.5983 32.5221 78.6223 32.5221 78.5816C32.5221 78.5409 32.7264 78.6281 32.976 78.7756C33.3528 78.998 33.4768 79.0255 33.7055 78.9379C33.8901 78.8672 34.0221 78.8666 34.105 78.9358C34.2729 79.0762 36.3635 78.9737 37.8877 78.7503C38.2753 78.6935 38.6562 78.6718 38.7341 78.7019C38.8121 78.732 38.9329 78.7107 39.0026 78.6545C39.0723 78.5984 39.3829 78.527 39.6927 78.4959C40.2685 78.4381 42.5678 78.0531 42.86 77.9655C42.9491 77.9389 43.2755 77.8898 43.5854 77.8565C43.8952 77.8232 44.3101 77.7531 44.5073 77.7007C44.7045 77.6484 45.419 77.5131 46.0951 77.4C46.7712 77.287 47.4665 77.1515 47.6402 77.099C47.814 77.0464 48.2404 76.9703 48.588 76.9296C48.9355 76.889 49.2454 76.8138 49.2769 76.7628C49.3082 76.7116 49.4473 76.6697 49.5858 76.6697C49.8629 76.6697 51.1862 76.3335 51.8316 76.0992C52.0569 76.0174 52.3796 75.9241 52.5486 75.8918C52.8667 75.8312 52.9545 75.8085 53.2145 75.7195C53.299 75.6906 53.5525 75.6108 53.7779 75.5423C54.0032 75.4738 54.2914 75.3744 54.4181 75.3213C55.2094 74.9904 55.9227 74.7469 56.36 74.658C56.5407 74.6214 56.8727 74.5017 57.0978 74.3922C57.3228 74.2826 57.5921 74.193 57.6963 74.193C57.8004 74.193 57.9293 74.1521 57.9829 74.1023C58.0364 74.0524 58.2646 73.9522 58.49 73.8795C58.7154 73.8069 59.0509 73.662 59.2357 73.5574C59.4206 73.4529 59.6626 73.3675 59.7735 73.3675C59.8846 73.3675 59.9753 73.3296 59.9753 73.2834C59.9753 73.1742 60.5497 72.8995 60.9744 72.8055C61.1571 72.765 61.3645 72.649 61.435 72.5476C61.5054 72.4462 61.6092 72.3507 61.6655 72.3354C61.9786 72.2504 62.2322 72.0751 62.2851 71.9071C62.3182 71.8022 62.3881 71.7163 62.4407 71.7163C62.4932 71.7163 62.5363 71.6235 62.5363 71.51C62.5363 71.3964 62.5873 71.3036 62.6497 71.3036C62.712 71.3036 62.7414 71.2456 62.715 71.1746C62.6887 71.1037 62.7035 70.9527 62.7481 70.8392C62.8137 70.6722 62.8306 70.6981 62.8364 70.9743C62.8404 71.1636 62.8872 71.2886 62.9415 71.2548C63.0356 71.1961 63.0251 71.104 62.879 70.7102C62.8422 70.6109 62.8237 70.4367 62.8378 70.3232C62.852 70.2097 62.8297 70.1503 62.7884 70.1911C62.7469 70.2321 62.5926 70.1834 62.4454 70.083C62.2982 69.9826 62.0394 69.839 61.8704 69.7639C61.4605 69.582 60.2026 69.6151 60.0062 69.8131C59.791 70.0297 59.7083 69.9959 59.9084 69.7731C60.0019 69.6692 60.045 69.5506 60.0043 69.5096C59.9637 69.4687 60.0172 69.4688 60.1234 69.5097C60.2536 69.5601 60.2932 69.5468 60.2454 69.4688C60.1631 69.3346 60.5234 69.1077 60.6441 69.2175C60.6887 69.258 60.6873 69.2253 60.6408 69.1447C60.5774 69.0346 60.6001 69.0151 60.7321 69.0662C60.8354 69.106 60.8824 69.0925 60.846 69.0333C60.7675 68.9052 61.3135 68.2077 61.4923 68.2077C61.5661 68.2077 61.5979 68.1613 61.5631 68.1045C61.5013 68.0039 61.636 67.9594 61.8977 67.994C61.969 68.0034 62.0181 67.9741 62.007 67.9288C61.9958 67.8836 62.2029 67.615 62.4671 67.3319C62.7314 67.049 62.9726 66.7378 63.0033 66.6407C63.0339 66.5435 63.1373 66.4373 63.2329 66.4046C63.4293 66.3377 64.0728 65.7709 64.0728 65.6648C64.0728 65.5055 64.6079 64.9055 64.7499 64.9055C64.8349 64.9055 64.879 64.8641 64.8481 64.8136C64.817 64.7631 64.9068 64.6457 65.0476 64.5528C65.1884 64.4598 65.4481 64.1257 65.6249 63.8101C65.8018 63.4945 66.0595 63.1844 66.1978 63.121C66.3362 63.0574 66.6537 62.69 66.9036 62.3044C67.2299 61.8007 67.4194 61.6033 67.5763 61.6033C67.6964 61.6033 67.7689 61.5773 67.7373 61.5455C67.7058 61.5136 67.837 61.3163 68.0289 61.1069C68.2209 60.8974 68.4692 60.5379 68.5809 60.3078C68.6924 60.0778 68.9651 59.7527 69.1868 59.5854C69.4643 59.3761 69.7306 59.008 70.0416 58.4042C70.3311 57.842 70.5452 57.5395 70.6379 57.5615C70.7174 57.5804 70.7518 57.5651 70.7143 57.5273C70.677 57.4895 70.7586 57.2919 70.8959 57.0882C71.1611 56.6945 71.4332 55.8727 71.4683 55.36C71.4799 55.1897 72.1164 53.7966 72.8828 52.2642C73.6493 50.7317 74.3961 49.1993 74.5426 48.8587C74.8854 48.062 75.3409 46.8831 75.3409 46.7929C75.3409 46.7544 75.4083 46.5765 75.4908 46.3977C75.6746 45.9989 76.1618 44.6649 76.6272 43.2862C76.9563 42.3115 77.1407 41.7903 78.1248 39.0553C78.3494 38.4309 78.6642 37.5486 78.8245 37.0946C78.9847 36.6405 79.2371 35.9439 79.3855 35.5466C82.1772 28.0693 82.7241 25.9543 83.4012 20.0159C83.6098 18.1863 83.6448 12.3211 83.4551 10.9863C82.9609 7.50951 81.7175 3.97251 80.3969 2.28693C80.0029 1.78417 79.0387 0.920119 78.5099 0.596192C77.6086 0.0439974 76.0397 -0.164456 75.0848 0.141Z" fill="black"/>
</svg>
