<svg width="20" height="82" viewBox="0 0 20 82" fill="none" xmlns="http://www.w3.org/2000/svg">
<path fill-rule="evenodd" clip-rule="evenodd" d="M9.65987 0.203738C9.186 0.419686 7.89208 1.70435 7.89208 1.9589C7.89208 2.03209 7.82917 2.15608 7.75233 2.23446C7.31246 2.68311 5.14734 6.49477 4.92315 7.21506C4.88925 7.3242 4.81864 7.38635 4.76613 7.35337C4.71372 7.32027 4.69885 7.36769 4.73306 7.45869C4.76738 7.54969 4.71892 7.74305 4.62554 7.88847C4.53216 8.03377 4.48141 8.15278 4.51282 8.15278C4.54412 8.15278 4.48796 8.30785 4.38782 8.49749C4.28779 8.68703 4.19597 8.9138 4.1839 9.0013C4.16571 9.13282 3.64899 10.7617 3.44362 11.3347C3.33787 11.63 3.0571 12.9366 2.84902 14.1021C2.51346 15.9815 2.48143 16.9598 2.3869 28.1991C2.19505 50.9943 2.08388 58.9355 1.95286 59.1896C1.90222 59.2879 1.8575 59.5265 1.85355 59.7199C1.8495 59.9133 1.80863 60.1671 1.76256 60.2837C1.7166 60.4004 1.714 60.5674 1.75685 60.655C1.79958 60.7425 1.86499 61.9226 1.90211 63.2777C1.93924 64.6327 1.98832 65.8021 2.0112 65.8763C2.03418 65.9505 2.08222 66.7749 2.11799 67.7083C2.20274 69.9175 2.35945 72.8165 2.44493 73.754C2.5773 75.2061 3.26445 76.818 4.23236 77.9465C4.4811 78.2366 4.66932 78.478 4.6506 78.4832C4.63178 78.4883 4.14855 78.5141 3.57662 78.5405C3.00469 78.5668 2.29893 78.6312 2.00818 78.6833C1.43001 78.7872 0.683074 79.1807 0.775311 79.3328C0.807131 79.3854 0.787061 79.4285 0.730492 79.4285C0.58491 79.4285 0.301025 79.7366 0.301025 79.8946C0.301025 80.1164 1.32363 80.8915 1.91314 81.1165C2.21803 81.2328 3.185 81.4792 4.06193 81.664L5.65636 82L8.568 81.9354C11.2157 81.8768 12.6971 81.7384 13.3283 81.4912C13.43 81.4513 13.5635 81.3227 13.6251 81.2054C13.7183 81.0278 13.6914 80.9542 13.4653 80.7671L13.1935 80.5421L13.4086 80.2239C13.5269 80.0489 13.6633 79.8072 13.7116 79.6868C13.7788 79.5196 14.0166 79.4121 14.7194 79.2314C15.8436 78.9425 16.5808 78.5064 17.2988 77.706C18.1036 76.8084 18.5909 75.8043 18.9085 74.3886C19.0237 73.8751 19.0862 70.588 19.1184 63.3596C19.1266 61.5163 19.177 60.1296 19.244 59.899C19.3319 59.5968 19.3208 59.4036 19.1923 58.9975C19.0546 58.5623 19.0197 57.5415 18.9721 52.541C18.8993 44.9078 18.8236 39.0809 18.7565 35.9418C18.7271 34.5709 18.6563 29.8219 18.5991 25.3883C18.542 20.9548 18.4488 16.7925 18.392 16.1386C18.0427 12.1176 16.6859 8.03176 14.4487 4.26369C12.8729 1.60984 12.0993 0.655681 11.157 0.20395C10.5899 -0.0678948 10.256 -0.0680009 9.65987 0.203738Z" fill="black"/>
</svg>
