<svg width="30" height="83" viewBox="0 0 30 83" fill="none" xmlns="http://www.w3.org/2000/svg">
<path fill-rule="evenodd" clip-rule="evenodd" d="M18.4136 0.110083C17.7339 0.371978 17.0967 1.05408 16.6239 2.02585C16.2889 2.71465 16.1157 3.24761 15.7779 4.62992C15.1042 7.38585 14.9053 9.04493 14.9006 11.9461C14.8949 15.4386 15.326 18.5013 16.3957 22.5691C16.7998 24.1053 17.2712 26.3855 17.5581 28.1905C17.6268 28.6225 17.7044 29.6641 17.7306 30.5053C17.7799 32.0932 17.7357 32.543 17.4501 33.3573C17.3705 33.5847 17.2209 34.0471 17.1178 34.3849C17.0147 34.7227 16.6163 35.6527 16.2324 36.4516C15.1329 38.7398 14.8857 39.3855 14.7841 40.2352C14.6939 40.9894 14.4151 41.105 13.8113 40.6382C13.1733 40.145 12.6949 39.5655 12.0663 38.5242C11.6017 37.7546 11.0023 36.2765 10.3066 34.184C9.1316 30.6509 8.8447 29.3962 8.93598 28.1905C9.03652 26.8633 8.75658 25.9925 7.94722 25.1145C7.62377 24.7636 7.34984 24.5659 6.87935 24.3438C6.5313 24.1795 6.01516 23.9205 5.73238 23.7683C3.5313 22.5838 1.53652 23.4047 0.611274 25.8758C0.0680851 27.3264 -0.100559 29.178 0.151933 30.9186C0.424674 32.7989 1.23008 35.9155 1.87167 37.5735C3.70343 42.3068 5.76868 45.3471 8.38227 47.1574C9.85569 48.1781 11.0042 48.8774 12.0605 49.397C13.4368 50.0742 13.6505 50.2105 13.8998 50.5703C14.0362 50.7669 14.1621 51.073 14.1891 51.2729C14.2555 51.7667 14.1568 56.5999 14.0423 58.4473C13.9902 59.2885 13.894 60.1999 13.8284 60.4727C13.7628 60.7455 13.6917 61.2664 13.6704 61.6301C13.649 61.9938 13.5773 62.426 13.5111 62.5904C13.4217 62.8124 13.404 63.0357 13.4423 63.4584C13.4707 63.7714 13.5111 64.6728 13.5322 65.4616C13.5645 66.6679 13.5496 66.953 13.4389 67.2562C13.2975 67.6432 13.3351 68.3012 13.5114 68.525C13.5617 68.5888 13.6254 69.0352 13.653 69.517C13.6805 69.9988 13.7404 70.6534 13.7861 70.9717C13.8318 71.29 13.9092 72.0154 13.9581 72.5837C14.2258 75.6956 15.0427 78.4291 16.2202 80.1537C16.6137 80.73 17.5782 81.7436 17.8964 81.9152C18.0148 81.9791 18.1397 82.0808 18.1738 82.1413C18.2078 82.2018 18.4036 82.3056 18.6088 82.372C18.814 82.4384 19.1776 82.5703 19.4169 82.665C19.6813 82.7698 20.0604 82.8417 20.3832 82.8484C20.6754 82.8545 20.8958 82.8911 20.8729 82.9297C20.8501 82.9684 20.867 83 20.9105 83C20.954 83 21.0089 82.9674 21.0325 82.9275C21.0561 82.8877 21.2312 82.814 21.4217 82.7639C23.5705 82.1984 25.1692 79.9708 26.0579 76.3038C26.3253 75.2005 26.4953 73.7196 26.7722 70.0814C26.9927 67.1831 26.7761 62.2145 26.2345 57.7447C26.1147 56.7557 26.0313 55.6884 26.0407 55.2646C26.0564 54.556 25.9749 53.9613 25.3941 50.5525C25.233 49.6069 25.0862 48.7122 24.6616 46.0884C24.3215 43.987 24.2867 43.6479 24.2843 42.4096C24.2804 40.3884 24.5096 39.2064 25.4307 36.4988C26.7382 32.6548 27.845 28.1613 28.4748 24.1398C28.5897 23.4064 28.7399 22.0236 28.9059 20.1717C29.1963 16.9328 28.9963 13.229 28.3884 10.5846C28.1889 9.71687 27.6333 7.91584 27.4441 7.52333C27.3894 7.40966 27.194 7.00045 27.01 6.61397C26.3222 5.16942 25.3236 3.81026 24.1442 2.71357C23.0386 1.68559 21.8267 0.920734 20.3168 0.298072C19.5405 -0.0220215 18.9165 -0.0836923 18.4136 0.110083Z" fill="black"/>
</svg>
