<svg width="51" height="79" viewBox="0 0 51 79" fill="none" xmlns="http://www.w3.org/2000/svg">
<path fill-rule="evenodd" clip-rule="evenodd" d="M18.5015 0.597635C17.8308 1.22464 17.7728 1.38585 17.4068 3.63863C17.1552 5.18691 16.0742 8.03444 15.2357 9.3574C14.8931 9.89777 14.4099 10.6895 14.1616 11.1168C13.9132 11.5441 13.5554 12.0655 13.3662 12.2754C13.1773 12.4854 13.0612 12.7599 13.1084 12.8854C13.1556 13.011 13.0343 13.2888 12.8391 13.5028C12.6436 13.7169 12.5254 13.9344 12.5762 13.9863C12.6271 14.0382 12.3718 14.703 12.0091 15.4637C11.6464 16.2245 11.3782 16.8468 11.4132 16.8468C11.4686 16.8468 10.9388 18.407 10.0837 20.7627C9.94173 21.1535 9.86884 21.5175 9.92156 21.5715C9.97447 21.6255 9.91737 21.8607 9.79481 22.0944C9.60526 22.4559 9.02937 25.8224 8.7654 28.1127C8.57661 29.7501 8.07837 37.0107 7.67624 43.9843C7.46975 47.5651 7.59973 52.4787 7.99901 56.1801C8.9717 65.2 8.15469 69.1724 5.21415 69.7178C4.49153 69.8518 4.12803 69.8081 3.34565 69.4934C2.81144 69.2784 2.37429 69.15 2.37429 69.2079C2.37429 69.2658 2.19006 69.1815 1.96492 69.0207C1.60903 68.7662 1.4722 68.7635 0.918195 68.9997C0.567637 69.149 0.274744 69.2102 0.267512 69.1356C0.26009 69.0611 0.186058 69.1747 0.103081 69.3883C-0.156507 70.0556 0.380749 71.4282 1.17569 72.1294C1.57325 72.4802 1.8985 72.8714 1.8985 72.9989C1.8985 73.1265 2.06978 73.3277 2.27913 73.4462C2.48847 73.5647 2.71209 73.7346 2.77623 73.8238C2.84017 73.9131 2.92581 73.9623 2.96654 73.9333C3.14353 73.8065 4.07169 74.598 3.96093 74.7812C3.89204 74.8948 3.92896 74.9269 4.04467 74.8538C4.30121 74.692 5.64407 75.5956 5.4587 75.8054C5.38467 75.8891 5.43111 75.8947 5.56166 75.818C5.83685 75.6566 6.62589 76.1531 6.42302 76.3601C6.34842 76.4363 6.44871 76.4353 6.64588 76.3582C6.92183 76.25 6.96827 76.2813 6.84742 76.4936C6.76102 76.6453 6.75969 76.7055 6.84419 76.6274C6.99244 76.4907 8.44149 77.1888 8.67215 77.5081C8.734 77.5938 8.86246 77.6491 8.95762 77.6307C9.34948 77.5553 9.62124 77.6557 9.51239 77.8356C9.44578 77.9455 9.52209 77.9781 9.69147 77.9119C9.85438 77.848 9.98684 77.8977 9.98684 78.0226C9.98684 78.1471 10.0725 78.1951 10.1772 78.1291C10.2818 78.063 10.3675 78.1067 10.3675 78.2262C10.3675 78.3457 10.4375 78.3991 10.5233 78.3451C10.609 78.2911 11.3154 78.4156 12.0934 78.6217C13.3706 78.9602 14.2187 78.9967 20.8477 78.9998C27.5046 79.0028 28.3182 78.9682 29.5918 78.6269C30.3643 78.4198 31.065 78.294 31.1492 78.347C31.2333 78.4 31.302 78.3606 31.302 78.2592C31.302 78.158 31.6143 78.0154 31.9959 77.9424C32.3776 77.8692 32.87 77.693 33.0902 77.5506C33.3104 77.4083 34.2614 76.9576 35.2034 76.5493C36.1455 76.1409 37.3267 75.5645 37.8286 75.2683C38.3305 74.9721 38.7726 74.7299 38.8112 74.7299C38.8498 74.7299 39.3309 74.4277 39.8806 74.0582C40.4302 73.6888 40.973 73.4405 41.0866 73.5066C41.2004 73.5726 41.2293 73.5546 41.1511 73.4666C41.0727 73.3784 41.212 73.1676 41.4604 72.9983C42.6005 72.2209 43.0464 71.8973 43.5772 71.4616C44.364 70.816 46.1434 69.2625 46.5415 68.8736C46.7889 68.6318 46.9239 68.6081 47.0902 68.7765C47.2571 68.9453 47.2807 68.9191 47.1875 68.6689C47.1195 68.4869 47.2002 68.1398 47.3666 67.8974C47.5329 67.655 47.669 67.5198 47.669 67.5969C47.669 67.6742 47.8402 67.5625 48.0496 67.3488C48.2589 67.1352 48.4302 66.8924 48.4302 66.8092C48.4302 66.5919 49.2573 65.8897 49.4434 65.949C49.5299 65.9764 49.5538 65.922 49.4971 65.8281C49.3673 65.6137 49.7921 64.4353 49.9994 64.4353C50.0837 64.4353 50.022 64.1769 49.8619 63.8613C49.6438 63.4307 49.393 63.257 48.858 63.1663C48.4656 63.0997 48.0163 62.9969 47.8593 62.9377C47.5751 62.8305 47.137 62.7448 46.2528 62.6234C45.9974 62.5883 45.6699 62.4593 45.5251 62.3365C45.3291 62.1704 45.2071 62.1697 45.0462 62.3338C44.8852 62.4981 44.7545 62.4898 44.5322 62.3016C44.3684 62.1627 44.1845 62.0995 44.124 62.1615C44.0635 62.2233 43.8041 62.1924 43.5479 62.0929C43.0352 61.894 42.5912 61.8132 40.9692 61.6231C40.1006 61.5213 39.8589 61.4158 39.7589 61.0948C39.6902 60.8739 39.5793 60.7706 39.5123 60.8648C39.3479 61.0957 38.8525 61.0819 38.6795 60.8419C38.5937 60.7226 38.5387 60.744 38.5368 60.8972C38.5349 61.0705 38.4321 61.0946 38.2009 60.9759C37.8339 60.7873 35.1747 60.8065 34.9861 60.9988C34.9212 61.0652 34.6976 61.0266 34.4894 60.9127C34.2073 60.7587 34.1456 60.7638 34.248 60.9326C34.3293 61.0668 34.2804 61.1412 34.1281 61.1151C33.7715 61.0538 32.8245 61.4729 32.8245 61.692C32.8245 61.7911 32.5676 61.9636 32.2535 62.0753C31.9395 62.187 31.6826 62.3849 31.6826 62.5152C31.6826 62.6454 31.6326 62.7007 31.5713 62.6384C31.5102 62.5758 31.1497 62.8235 30.7704 63.1886C30.3911 63.5538 29.9917 63.8529 29.8826 63.8535C29.7736 63.8539 29.4274 64.0983 29.1134 64.3966C28.2366 65.2293 26.7514 66.217 26.5588 66.0956C26.464 66.0358 26.3576 66.0682 26.3224 66.1679C26.2874 66.2675 26.0446 66.4015 25.7829 66.4658C25.1145 66.63 24.0765 65.6244 23.3859 64.1439C22.6256 62.5137 22.5455 60.6315 23.1373 58.2952C23.4928 56.8914 23.5741 56.0601 23.5726 53.8493C23.5714 52.2433 23.4723 50.7811 23.3301 50.2776C22.9204 48.8255 22.7289 46.807 22.6372 42.9719C22.4977 37.1496 22.4082 35.639 22.1599 34.911C22.0324 34.5371 21.7248 33.6609 21.4765 32.9638C20.6827 30.7351 20.9672 29.2639 22.5264 27.5377C22.9567 27.0613 23.3088 26.6025 23.3088 26.518C23.3088 26.4337 23.4424 26.3645 23.6055 26.3645C23.7686 26.3645 23.8529 26.2831 23.7928 26.1837C23.7324 26.0842 23.7635 25.9524 23.8613 25.8906C24.2819 25.6253 25.1215 23.754 25.9113 21.3215C26.908 18.252 27.1191 16.106 26.7523 12.7678C26.5466 10.8948 25.871 7.94936 25.5941 7.71764C25.5301 7.66422 25.3242 7.18348 25.1366 6.64933C24.6157 5.1669 24.263 4.41345 23.5659 3.29502C23.2152 2.73193 22.9282 2.19855 22.9282 2.10939C22.9282 2.02024 22.723 1.7213 22.4724 1.44529C22.2217 1.16908 22.0562 0.902977 22.1045 0.853446C22.1528 0.80411 21.8767 0.65746 21.4907 0.527515C21.1025 0.396598 20.8823 0.232272 20.998 0.159433C21.1128 0.0869819 20.747 0.0168617 20.185 0.00326499C19.2852 -0.0181012 19.0844 0.0527961 18.5015 0.597635Z" fill="black"/>
</svg>
