<svg width="47" height="82" viewBox="0 0 47 82" fill="none" xmlns="http://www.w3.org/2000/svg">
<path fill-rule="evenodd" clip-rule="evenodd" d="M7.64567 0.0840464C6.93956 0.356598 5.22926 2.14637 4.68343 3.18386C3.77285 4.91469 3.54496 6.90611 3.69933 11.7828C3.79247 14.7219 4.04021 17.4525 4.45224 20.0777C5.94979 29.6222 7.09156 38.9267 6.86746 39.761C6.79986 40.0135 6.86108 40.2197 7.00386 40.2197C7.14641 40.2197 6.65826 40.5745 5.91882 41.0082C4.6397 41.7581 3.66009 42.5217 3.97662 42.5217C4.0577 42.5217 3.85653 42.8631 3.5296 43.2802C2.9528 44.0168 1.49946 47.9103 1.49946 48.7195C1.49946 48.94 1.43067 49.1875 1.34675 49.2694C1.26283 49.3511 1.16993 49.7052 1.14061 50.0558C1.11106 50.4066 0.954099 52.0016 0.791697 53.6001C0.391011 57.5408 0.588399 67.4233 1.12407 70.2602C1.99352 74.8637 3.21685 77.8684 4.94346 79.6407C5.40585 80.1153 5.69259 80.5039 5.58031 80.5039C5.46802 80.5039 5.24983 80.3808 5.09499 80.23C4.66097 79.8073 4.10025 79.811 4.09623 80.2364C4.09339 80.5249 4.0447 80.5456 3.89837 80.3209C3.7537 80.099 3.30432 80.0629 2.13488 80.1796C1.27181 80.2657 0.625513 80.4307 0.698795 80.546C0.772076 80.6616 1.00894 80.735 1.22501 80.7092C1.44083 80.6832 1.91716 80.782 2.2831 80.9284C3.1613 81.2797 11.9007 81.2999 11.9007 80.9507C11.9007 80.8168 11.7676 80.7815 11.6052 80.8729C11.4428 80.9643 11.8362 80.5819 12.4797 80.0233C13.1231 79.4646 13.7427 79.0362 13.8564 79.0709C13.9704 79.1057 14.0058 79.0436 13.9356 78.9326C13.8652 78.8216 14.0595 78.3988 14.367 77.9925C14.6748 77.5864 15.1679 76.6127 15.4627 75.8289C15.7575 75.0451 16.1036 74.1448 16.2317 73.8283C16.3596 73.5117 16.4972 73.0948 16.5369 72.9017C17.4657 68.4025 17.7782 62.0715 17.3605 56.2183C17.0517 51.8941 16.8071 50.1847 16.1163 47.5305C15.8613 46.5503 15.7291 45.6279 15.8225 45.4806C15.9282 45.314 15.8894 45.2748 15.7197 45.3773C15.5625 45.4716 15.4466 45.4035 15.4466 45.2168C15.4466 44.7256 14.3034 42.7174 13.6278 42.0224C13.2995 41.6845 12.5603 41.1665 11.9849 40.8714L10.9391 40.3348L11.0634 39.1839C11.6804 33.4681 12.0452 30.5752 12.7603 25.7174C13.2172 22.6156 13.7543 18.9382 13.9538 17.5455C14.4895 13.8097 14.5039 6.41465 13.9786 4.76967C13.0657 1.90996 11.2887 0.133308 9.2243 0.0163691C8.55105 -0.0216132 7.84069 0.0087726 7.64567 0.0840464ZM10.42 1.11279C10.988 1.38051 11.3946 1.65628 11.3237 1.72534C11.2525 1.7944 11.4081 1.99651 11.6691 2.17445C12.6239 2.8259 13.2763 4.68381 13.6718 7.87731C13.9058 9.76767 13.3626 15.9823 12.374 22.7226C11.2247 30.5603 10.567 35.5953 10.3592 38.148L10.1999 40.1046H9.04653H7.89341L7.77758 39.1839C7.71399 38.6774 7.59626 37.538 7.51589 36.6517C7.28942 34.1486 6.56275 28.6655 5.65501 22.6098C3.53905 8.49239 4.01255 3.09385 7.5374 1.14985C8.70305 0.506915 9.12312 0.501621 10.42 1.11279ZM12.5267 41.7736C13.3293 42.6154 13.85 43.625 13.6467 43.9452C13.5505 44.0971 13.5883 44.1404 13.7382 44.0502C13.9009 43.9524 14.1143 44.422 14.3238 45.3384L14.6535 46.7803L13.0037 46.8487C11.0864 46.9281 10.7086 46.8312 10.7462 46.2695C10.772 45.8853 10.7805 45.8848 10.8817 46.2624C10.9412 46.484 11.0885 46.6652 11.2088 46.6652C11.5239 46.6652 11.4797 45.7997 11.1594 45.6956C10.9902 45.6406 10.9112 45.1006 10.9459 44.2378C11.0263 42.239 11.0065 42.0189 10.7181 41.7393C10.5278 41.5546 10.337 41.6403 10.0153 42.0549C9.7725 42.3679 9.63515 42.7206 9.71009 42.8387C9.78502 42.9565 9.72451 42.98 9.57605 42.8905C9.3815 42.7735 9.41294 42.5684 9.68834 42.1591C10.4857 40.9743 11.6183 40.8203 12.5267 41.7736ZM8.31726 42.0882C8.78083 42.811 8.54467 42.7772 7.9239 42.0316C7.62179 41.669 7.51754 41.4257 7.69247 41.4911C7.86741 41.5563 8.14848 41.8251 8.31726 42.0882ZM11.852 41.7317C12.1433 41.9303 12.3099 42.2054 12.2227 42.3428C12.1279 42.492 12.174 42.5268 12.3369 42.4285C12.487 42.3382 12.6099 42.2261 12.6099 42.1792C12.6099 41.9805 11.8445 41.3707 11.5948 41.3707C11.4452 41.3707 11.561 41.5332 11.852 41.7317ZM6.33629 44.0242C6.33109 44.6538 6.15592 45.4997 5.94719 45.9042L5.56754 46.6397L6.31099 46.7306C6.71995 46.7808 6.34527 46.8383 5.47842 46.8586C4.61133 46.8788 3.76032 46.9267 3.58728 46.9651C3.414 47.0034 3.51187 46.9315 3.80429 46.8054C4.18724 46.6406 4.33712 46.3793 4.33948 45.8726C4.34373 44.921 4.58344 44.1126 4.81912 44.2544C4.92526 44.3181 5.14865 44.003 5.31531 43.5537C5.7758 42.3138 6.34787 42.5774 6.33629 44.0242ZM10.6984 45.284C10.6899 45.5117 10.6164 45.4726 10.4824 45.1689C10.2032 44.5361 10.2032 44.1727 10.4824 44.5934C10.6084 44.7834 10.7058 45.0941 10.6984 45.284ZM29.6302 53.5605C29.1751 53.6523 28.3773 53.9189 27.8572 54.153C27.3372 54.3873 26.7828 54.5865 26.6252 54.5957C26.4677 54.6049 26.2018 54.7614 26.0342 54.9437C25.7692 55.2322 25.7912 55.2324 26.2025 54.9451C26.6691 54.6191 26.6696 54.6214 26.2299 55.1235C25.985 55.4032 25.6659 55.5659 25.5207 55.4854C25.3756 55.4048 25.3252 55.4133 25.4087 55.5042C25.4921 55.5954 25.1957 56.2593 24.7501 56.9798C23.2618 59.3858 22.5514 62.4771 22.5431 66.5831C22.5316 72.2947 23.627 76.2154 25.9593 78.8101L26.9644 79.9284L23.7466 79.7751C21.977 79.6909 20.1568 79.6817 19.7017 79.7546C18.9192 79.8799 18.9575 79.904 20.4109 80.1987C24.3116 80.9894 34.1214 81.5234 34.4762 80.9643C34.5566 80.8377 34.4831 80.7295 34.3129 80.724C34.1427 80.7182 34.3812 80.5193 34.8427 80.2815C35.8773 79.7489 37.4777 78.0866 38.0968 76.9011C40.9492 71.4418 40.4161 60.8839 37.0593 56.3426C35.4526 54.1691 32.3591 53.0105 29.6302 53.5605Z" fill="black"/>
<path d="M24.0716 16.0076L17.453 14.6452C25.3832 16.2776 31.5802 22.4746 33.2125 30.4048L31.8502 23.7861C31.0445 19.872 27.9858 16.8133 24.0716 16.0076Z" stroke="black"/>
<path d="M28.4156 9.84312L16.3382 7.35711C27.5807 9.67127 36.3659 18.4565 38.6801 29.699L36.1941 17.6216C35.3884 13.7075 32.3297 10.6488 28.4156 9.84312Z" stroke="black"/>
</svg>
