<svg width="99" height="99" viewBox="0 0 99 99" fill="none" xmlns="http://www.w3.org/2000/svg">
<path fill-rule="evenodd" clip-rule="evenodd" d="M83.3157 0.141772C73.6679 0.758372 62.5323 3.55677 54.6499 7.34557C44.4939 12.2272 38.2365 18.112 35.0621 25.7676C34.0473 28.2148 33.6317 30.3744 33.3259 34.7906C33.0303 39.06 32.7187 40.6662 31.6493 43.4352C29.0891 50.064 23.1671 54.6354 17.6121 54.271C16.1599 54.1758 15.9191 54.081 11.7121 51.9486C6.84648 49.4824 4.89128 48.8184 3.08028 49.017C-0.718315 49.4332 -0.985915 52.048 2.17948 57.817C4.42448 61.9084 7.49528 65.9844 12.8041 71.919C20.0129 79.9776 24.7913 84.4838 32.5677 90.557C37.8043 94.6468 42.3051 97.3168 45.1795 98.039C47.7299 98.6798 49.0261 97.5812 49.0261 94.779C49.0261 92.6208 48.5763 91.3268 46.1941 86.629C44.0469 82.3952 43.9591 82.1722 43.8713 80.724C43.5553 75.5196 47.7863 69.8202 53.9261 67.1792C57.0983 65.8148 59.1341 65.4016 63.9939 65.1356C68.0191 64.9154 70.2041 64.454 73.2491 63.181C83.7939 58.7728 92.2795 46.1958 96.4261 28.829C97.0395 26.2598 97.8513 21.548 98.2693 18.129C98.6161 15.2934 98.5991 6.62877 98.2437 5.02937C97.8073 3.06577 96.5565 1.60657 94.5481 0.718172C93.0633 0.0611715 88.3545 -0.180428 83.3157 0.141772ZM95.7001 1.77097C95.6405 1.86757 95.6891 2.06397 95.8081 2.20737C95.9695 2.40177 95.9229 2.56037 95.6253 2.82957C95.4057 3.02837 95.2261 3.35697 95.2261 3.55997C95.2261 3.79917 95.0813 3.92897 94.8143 3.92897C94.5879 3.92897 94.4575 4.01797 94.5247 4.12677C94.5937 4.23817 94.5171 4.27457 94.3491 4.21017C94.1853 4.14737 94.1001 3.96917 94.1595 3.81417C94.2189 3.65917 94.1233 3.47697 93.9469 3.40917C93.7705 3.34157 93.6333 3.09337 93.6419 2.85757C93.6505 2.62177 93.7033 2.54197 93.7589 2.68017C93.8147 2.81837 93.9469 2.87797 94.0529 2.81237C94.1715 2.73917 94.1555 2.58477 94.0113 2.41117C93.8375 2.20157 93.8363 2.12897 94.0065 2.12897C94.1327 2.12897 94.3215 2.35397 94.4261 2.62897C94.6869 3.31517 94.8419 3.25777 94.6961 2.52897C94.6147 2.12197 94.6553 1.92897 94.8225 1.92897C94.9593 1.92897 95.0177 2.06237 94.9537 2.22897C94.8905 2.39397 94.9259 2.52897 95.0323 2.52897C95.1969 2.52897 95.3067 2.13657 95.2609 1.71237C95.2539 1.64817 95.3743 1.59557 95.5285 1.59557C95.6825 1.59557 95.7597 1.67457 95.7001 1.77097ZM93.1845 2.62517C93.1523 2.65057 92.8319 2.72757 92.4721 2.79597C91.9405 2.89717 91.8637 2.87177 92.0615 2.65997C92.1955 2.51677 92.5159 2.43977 92.7739 2.48917C93.0319 2.53857 93.2167 2.59977 93.1845 2.62517ZM93.2661 3.76897C93.0795 3.95557 93.0261 3.90237 93.0261 3.52897C93.0261 3.15557 93.0795 3.10237 93.2661 3.28897C93.4527 3.47557 93.4527 3.58237 93.2661 3.76897ZM93.7627 4.16657C93.6989 4.32597 93.6515 4.27857 93.6419 4.04557C93.6333 3.83477 93.6805 3.71677 93.7469 3.78317C93.8133 3.84957 93.8205 4.02217 93.7627 4.16657ZM90.7261 7.72897C90.7941 7.83897 90.7543 7.92897 90.6379 7.92897C90.5215 7.92897 90.4261 7.83897 90.4261 7.72897C90.4261 7.61897 90.4657 7.52897 90.5143 7.52897C90.5629 7.52897 90.6581 7.61897 90.7261 7.72897ZM89.3719 9.04977C89.3055 9.11617 89.1329 9.12337 88.9887 9.06557C88.8291 9.00177 88.8765 8.95437 89.1095 8.94477C89.3203 8.93617 89.4383 8.98337 89.3719 9.04977ZM85.8261 10.2076C85.8261 10.2508 85.6865 10.3398 85.5157 10.4054C85.3377 10.4736 85.2575 10.44 85.3275 10.3268C85.4449 10.1366 85.8261 10.0456 85.8261 10.2076ZM85.4261 11.929C85.4261 12.039 85.3865 12.129 85.3379 12.129C85.2893 12.129 85.1941 12.039 85.1261 11.929C85.0581 11.819 85.0979 11.729 85.2143 11.729C85.3307 11.729 85.4261 11.819 85.4261 11.929ZM85.4261 12.529C85.4261 12.639 85.3361 12.729 85.2261 12.729C85.1161 12.729 85.0261 12.639 85.0261 12.529C85.0261 12.419 85.1161 12.329 85.2261 12.329C85.3361 12.329 85.4261 12.419 85.4261 12.529Z" fill="black"/>
</svg>
