<svg width="47" height="91" viewBox="0 0 47 91" fill="none" xmlns="http://www.w3.org/2000/svg">
<path fill-rule="evenodd" clip-rule="evenodd" d="M28.0319 0.88534C23.8799 2.73434 20.9374 8.06184 19.3189 16.6613C18.7499 19.6863 18.0739 22.8363 17.8169 23.6613C17.5599 24.4863 17.1084 27.2988 16.8134 29.9113C15.8284 38.6338 14.6869 41.9143 10.8109 47.1613C6.35187 53.1973 4.15187 60.0933 3.02187 71.5748C2.80137 73.8173 2.38787 75.2758 1.81637 75.8248C-3.37513 80.8168 2.84887 86.4753 16.8234 89.4683C23.9204 90.9883 35.5164 91.1038 40.2239 89.7008C45.5189 88.1228 47.6339 84.8953 45.5039 81.6448C44.7814 80.5413 44.7624 79.7148 45.3234 73.7203C46.1134 65.2858 45.7814 58.0833 44.4339 54.4113C40.5209 43.7498 40.7339 44.6788 40.9594 39.2458C41.0759 36.4493 41.4364 29.9238 41.7614 24.7443C42.4304 14.0648 42.0844 9.94034 40.1674 5.75334C37.8344 0.657341 32.9474 -1.30316 28.0319 0.88534Z" fill="black"/>
</svg>
