<svg width="20" height="18" viewBox="0 0 20 18" fill="none" xmlns="http://www.w3.org/2000/svg">
<path fill-rule="evenodd" clip-rule="evenodd" d="M13.1971 0.115085C12.6017 0.233068 12.3269 0.473136 11.5018 1.59541C11.334 1.82372 10.7778 2.23782 10.2658 2.51562C9.70166 2.82172 9.16994 3.23582 8.916 3.5668C7.84568 4.96196 7.75154 5.02525 6.74716 5.02525C3.06685 5.02525 0.562644 7.16494 0.0634979 10.7361C-0.307486 13.3903 0.978776 16.1405 3.09412 17.2158C3.86787 17.6092 4.0805 17.6561 5.03828 17.6449C5.62984 17.6381 6.38187 17.5455 6.70956 17.4394C7.28483 17.253 7.33051 17.2601 8.03355 17.6431C8.68509 17.9983 8.85933 18.0337 9.68855 17.9797C11.7418 17.8462 13.1067 16.3885 13.5137 13.8946C13.6689 12.9438 13.6977 12.8894 14.1977 12.6028C14.9204 12.1886 15.3946 11.6808 15.8684 10.8139C16.1594 10.2814 16.6158 9.78914 17.4965 9.05773C19.4592 7.4277 20.0056 6.48288 20 4.72886C19.997 3.82902 19.9363 3.55409 19.5712 2.78836C19.0865 1.77191 18.5323 1.25568 17.2813 0.655511C16.0122 0.0467296 14.5303 -0.149453 13.1971 0.115085ZM16.0182 0.581002C17.601 1.00672 18.7979 1.86186 19.2951 2.92248C19.7438 3.87933 19.7276 5.4049 19.2585 6.39265C18.919 7.10725 17.3881 8.85157 17.2372 8.69558C17.198 8.65511 17.4926 8.1665 17.892 7.60967C18.5911 6.63532 18.9866 5.84553 18.7755 5.84553C18.72 5.84553 18.5812 6.04554 18.4669 6.28985C18.3526 6.53415 17.8757 7.20869 17.4069 7.78849C16.9382 8.36842 16.3861 9.16819 16.1802 9.56575C15.5827 10.7193 14.2892 12.2568 13.9077 12.2671C13.7386 12.2716 13.5988 11.8352 13.5962 11.2942C13.5933 10.7186 13.1031 9.24256 12.7254 8.67165C12.535 8.38387 12.3539 8.17443 12.323 8.20642C12.2922 8.23827 12.4143 8.60835 12.5943 9.02874C13.5101 11.1672 13.3291 14.286 12.1908 15.9822C11.3106 17.2936 9.68603 17.7722 8.05302 17.201C7.24008 16.9167 7.17997 16.9142 6.26099 17.1253C5.50803 17.2984 5.17796 17.3131 4.67444 17.1966C2.83502 16.7709 1.51605 15.487 0.878417 13.5014C0.641025 12.7622 0.601173 12.3714 0.640892 11.1773C0.684981 9.85886 0.728011 9.65817 1.1685 8.71649C2.24465 6.41617 3.92414 5.47326 6.69261 5.61517C7.46649 5.65482 8.27849 5.72317 8.49695 5.76692L8.89415 5.84662L8.45856 5.63841L8.02283 5.43006L8.45856 4.86626C9.36179 3.69736 9.97758 3.10513 10.7473 2.66519C11.3344 2.32969 11.6654 2.01826 12.0176 1.46991C12.2827 1.05758 12.6646 0.653187 12.8787 0.558855C13.4116 0.323983 15.107 0.335876 16.0182 0.581002ZM14.8309 1.12006C14.0155 1.38337 13.5177 1.80567 12.7357 2.89746C12.3495 3.43665 11.7155 4.23724 11.3265 4.67664C10.7108 5.37237 10.6717 5.4477 11.0245 5.25931C11.5869 4.95895 12.1207 4.41388 12.7933 3.45306C13.8668 1.91928 14.3931 1.49862 15.7127 1.11951C16.3056 0.949169 16.3063 0.948348 15.8451 0.945204C15.5903 0.943563 15.1339 1.02217 14.8309 1.12006ZM10.9487 3.51567C9.57508 4.00524 8.54753 5.56787 9.52305 5.68366C9.72337 5.70745 9.88715 5.66138 9.88715 5.58113C9.88715 5.50101 9.79778 5.43539 9.68855 5.43539C9.57932 5.43539 9.48995 5.3479 9.48995 5.24085C9.48995 4.86038 10.1845 4.20293 11.0227 3.78978C11.802 3.40576 12.0325 3.24088 11.7738 3.2525C11.7193 3.25496 11.3479 3.37336 10.9487 3.51567ZM15.7714 5.975C15.983 7.26009 15.9876 7.8913 15.7926 8.84391C15.6782 9.40279 15.6126 9.88908 15.6471 9.92462C15.6813 9.96017 15.8357 9.6944 15.9901 9.33416C16.4984 8.14763 16.4583 6.48015 15.9046 5.77294C15.704 5.51687 15.6975 5.52672 15.7714 5.975ZM3.31404 8.24921C3.18164 8.45797 3.04884 9.05896 2.9894 9.71887C2.93405 10.3331 2.77531 11.2662 2.63668 11.7925C2.4165 12.6281 2.37082 12.7062 2.27682 12.4077C2.1243 11.9236 2.16124 10.2268 2.33455 9.75701C2.54228 9.19403 2.40406 9.15425 2.11847 9.69495C1.93245 10.047 1.87724 10.4503 1.87817 11.4507C1.87923 12.6566 1.9155 12.8341 2.38473 13.9321C2.71083 14.6953 3.10114 15.3423 3.4855 15.7564C4.15041 16.473 4.40276 16.5001 3.88508 15.7993C2.93869 14.518 2.68594 13.2841 3.0548 11.7439C3.15635 11.3195 3.27723 10.8005 3.32344 10.5907C3.46643 9.94034 3.63802 10.3137 3.51317 11.0037C3.40116 11.6229 3.43955 11.9845 3.79981 13.7065C3.8627 14.0073 3.95141 14.4379 3.99682 14.6635C4.04224 14.8891 4.19516 15.1967 4.33656 15.3471C4.4781 15.4974 4.71747 15.7743 4.86841 15.9623C5.08991 16.238 5.12447 16.2513 5.04755 16.0306C4.99512 15.8802 4.8843 15.263 4.80115 14.659C4.6955 13.8904 4.55184 13.4184 4.32279 13.0868C4.02569 12.6567 3.99709 12.4926 4.01324 11.314C4.03125 10.0064 3.92043 9.67075 3.56957 9.97151C3.31748 10.1874 3.34383 8.81411 3.60161 8.29952C3.85026 7.80312 3.62253 7.7632 3.31404 8.24921ZM6.44476 8.24374C6.44476 8.28434 6.66097 8.94576 6.9251 9.7134C7.33554 10.9058 7.41432 11.3278 7.46635 12.6128C7.50462 13.558 7.45775 14.561 7.33991 15.3129C7.23691 15.9709 7.19467 16.5091 7.24604 16.5091C7.61941 16.5091 7.92737 12.1105 7.64827 10.7632C7.47668 9.9346 6.73432 8.16964 6.55756 8.16964C6.49547 8.16964 6.44476 8.203 6.44476 8.24374ZM4.85596 12.1853C4.85596 12.3137 4.9689 12.6473 5.10699 12.9266C5.52286 13.7684 5.67684 14.5428 5.53425 15.0758C5.39695 15.5893 5.55199 15.724 5.77813 15.2877C6.03988 14.7824 5.92668 14.0352 5.4372 13.0389C4.88496 11.9149 4.85596 11.8722 4.85596 12.1853Z" fill="url(#paint0_linear)"/>
<defs>
<linearGradient id="paint0_linear" x1="0" y1="9" x2="20" y2="9" gradientUnits="userSpaceOnUse">
<stop stop-color="#434343"/>
<stop offset="1"/>
</linearGradient>
</defs>
</svg>
