<svg width="42" height="94" viewBox="0 0 42 94" fill="none" xmlns="http://www.w3.org/2000/svg">
<path fill-rule="evenodd" clip-rule="evenodd" d="M15.7212 0.96265C11.9462 2.46865 8.7932 5.80665 6.0412 11.2136C-3.0978 29.1696 -1.5068 84.0097 8.3782 91.7857C10.6032 93.5347 12.4192 93.8397 20.6322 93.8397C31.2842 93.8397 33.5832 92.9397 36.2872 87.7097C42.2852 76.1107 43.1612 34.1516 37.7692 16.7556C33.7992 3.95365 24.6522 -2.59835 15.7212 0.96265Z" fill="black"/>
<path d="M8 33.5C12.4 57.9 24.8333 70 30.5 73" stroke="#646464"/>
<path d="M12 22C16.4 46.4 28.8333 58.5 34.5 61.5" stroke="#646464"/>
<path d="M16 10C20.4 34.4 32.8333 46.5 38.5 49.5" stroke="#646464"/>
<path d="M4 45C8.4 69.4 20.8333 81.5 26.5 84.5" stroke="#646464"/>
</svg>
