<svg width="43" height="88" viewBox="0 0 43 88" fill="none" xmlns="http://www.w3.org/2000/svg">
<path fill-rule="evenodd" clip-rule="evenodd" d="M7.29478 0.7876C4.28718 2.4678 2.12498 5.65 1.17098 9.8C0.43198 13.0138 0.11098 17.2586 0.49518 18.7336C0.73738 19.664 0.734379 20.0104 0.471379 21.3528C0.284979 22.3042 0.21498 23.3364 0.28958 24.0332C0.36458 24.7336 0.331379 25.2156 0.202779 25.295C-0.0524211 25.4528 -0.0722193 26.4492 0.174581 26.71C0.273381 26.8144 0.455981 27.6812 0.580181 28.6358C0.704381 29.5906 0.99118 30.8956 1.21758 31.5358C1.96218 33.6408 2.09178 34.6836 1.83198 36.4808C1.70158 37.3828 1.59478 38.8982 1.59478 39.8486C1.59478 40.7988 1.50478 41.632 1.39478 41.7C1.09158 41.8874 1.15558 42.7184 1.49478 43C1.71018 43.1788 1.79478 43.6518 1.79478 44.6786C1.79478 45.4936 1.96678 46.7286 2.19478 47.5514C2.70118 49.3788 2.70118 51.1416 2.19478 52.8C1.93898 53.6376 1.79738 54.6782 1.79638 55.7256C1.79518 56.925 1.71618 57.4162 1.49478 57.6C1.13558 57.898 1.10578 58.6606 1.42958 59.2632C1.55878 59.5034 1.68878 60.381 1.71878 61.2132C1.74858 62.0454 1.95818 63.3948 2.18458 64.2118L2.59618 65.6972L2.14558 66.0442C1.89758 66.235 1.63378 66.3932 1.55938 66.3956C1.17498 66.4082 0.79478 67.773 0.79478 69.1406C0.79478 71.051 1.12478 71.7052 2.35898 72.2422C2.87358 72.466 3.45218 72.7872 3.64478 72.9556C4.23478 73.472 4.07478 74.847 3.08098 77.8C1.95458 81.1468 1.19478 83.9618 1.19478 84.788C1.19478 85.5184 1.76918 86.7346 2.37138 87.2792C2.90398 87.7608 4.50258 87.9242 5.52138 87.6012C8.22618 86.7436 12.3522 82.8412 14.9682 78.666L15.616 77.6318L16.7386 78.1458C17.3558 78.4284 18.4986 78.7334 19.2778 78.8236C20.0572 78.9136 21.1008 79.0446 21.597 79.1144C22.2888 79.2116 23.1756 79.0676 25.397 78.497C26.9908 78.0878 28.9698 77.5952 29.7948 77.4026C32.012 76.8848 34.6408 76.0884 35.4146 75.7C35.7888 75.5122 36.749 74.7158 37.5488 73.9304C38.6236 72.8744 39.1058 72.2262 39.3988 71.4436C40.059 69.6788 39.8438 67.6042 38.8614 66.2634C38.6048 65.9132 38.3948 65.5426 38.3948 65.44C38.3948 65.3372 38.7508 65.0174 39.1862 64.7294C40.0988 64.1254 41.4362 62.411 41.7676 61.4202C42.412 59.4924 41.733 57.0838 40.1532 55.6932C38.3552 54.1106 36.5122 53.5336 33.59 53.6388C32.0644 53.6936 31.824 53.6518 31.3034 53.2424C30.6024 52.691 30.1182 52.739 30.0288 53.3686C29.9648 53.8182 29.95 53.8216 29.567 53.4748C29.2618 53.1986 29.0942 53.1666 28.833 53.335C28.647 53.455 28.5232 53.707 28.5578 53.895C28.637 54.325 28.0436 54.7754 27.563 54.6496C27.1038 54.5296 26.8928 55.0358 27.179 55.5706C27.3624 55.9132 27.328 55.9816 26.9444 56.0362C26.6476 56.0784 26.472 56.2612 26.4276 56.5744C26.3908 56.8352 26.1698 57.3752 25.9368 57.7744C25.6064 58.34 25.5018 58.8924 25.4622 60.2804C25.4154 61.9212 25.3676 62.107 24.853 62.6488C24.3372 63.192 23.0212 64.0002 22.6528 63.9998C22.5658 63.9998 22.5202 62.7624 22.5514 61.2498C22.6254 57.6536 22.6298 57.8268 22.4078 55.4C22.302 54.245 22.077 52.805 21.9076 52.2C21.5522 50.931 21.4998 48.6152 21.8036 47.5986C21.9324 47.1674 21.9928 44.7946 21.9614 41.4C21.8832 32.9634 21.8958 32.3506 22.1618 31.6C22.4292 30.8458 23.0632 25.874 22.9218 25.641C22.8746 25.5634 22.78 23.34 22.7114 20.7C22.5016 12.632 22.0074 9.7 20.238 6.0254C19.0402 3.5384 17.5532 1.9352 15.4102 0.8202L13.8338 0L11.2642 0.0026001L8.69478 0.00519981L7.29478 0.7876ZM8.89598 21.3152L10.992 23.2304L10.483 23.8978C9.28658 25.4662 8.45098 25.0998 5.72878 21.814C4.58598 20.4346 4.80418 19.422 6.24758 19.406C6.67098 19.4014 7.29038 19.848 8.89598 21.3152ZM21.317 21.3716C21.4698 22.1022 21.5948 22.7674 21.5948 22.85C21.5948 23.231 21.2326 22.9058 20.5306 21.8944L19.7662 20.7934L20.2104 20.0748C20.5966 19.45 20.6796 19.4012 20.8468 19.6998C20.9524 19.8888 21.164 20.6412 21.317 21.3716ZM13.0806 19.9142C13.2534 20.0872 13.3948 20.3726 13.3948 20.5486C13.3948 20.9202 12.8302 21.6 12.5214 21.6C12.2756 21.6 10.5948 19.9934 10.5948 19.7584C10.5948 19.4506 12.7522 19.586 13.0806 19.9142ZM16.2708 21.6664C15.322 22.7258 14.8044 23.0896 14.574 22.8592C14.3022 22.5874 16.0514 20.8 16.589 20.8C17.017 20.8 16.9964 20.8562 16.2708 21.6664ZM5.24478 24.1396C6.51438 25.7494 6.59478 25.9126 6.59478 26.8794C6.59478 27.7874 6.49918 28.0234 5.77478 28.9036C5.32378 29.4516 4.89638 29.9188 4.82478 29.9418C4.69418 29.9838 3.83038 28.8638 3.10758 27.7152C2.33858 26.4938 2.74898 22.3662 3.63458 22.414C3.77778 22.4218 4.50218 23.1982 5.24478 24.1396ZM19.37 23.464C20.2166 24.6946 20.438 25.6684 20.176 27.0086C20.0566 27.6182 19.788 28.3382 19.579 28.6086L19.199 29.1L18.4932 28.3C16.7006 26.2682 16.523 24.3694 17.9832 22.8456C18.4982 22.3082 18.6086 22.3574 19.37 23.464ZM15.7948 28.1798C16.1798 28.5886 16.832 29.3598 17.2442 29.8936L17.9936 30.864L17.604 31.482C17.317 31.9372 17.0404 32.1152 16.5546 32.1574C15.9616 32.2092 15.718 32.037 14.147 30.4556L12.3992 28.6964L12.847 28.1924C13.4118 27.5566 14.1774 27.2008 14.6948 27.3338C14.9148 27.3904 15.4098 27.771 15.7948 28.1798ZM9.06858 29.05C8.71098 29.6464 6.90198 31.4 6.64438 31.4C6.24378 31.4 6.37678 31.134 7.39738 29.8934C8.01018 29.1486 8.44118 28.8022 8.75658 28.8014C9.07278 28.8004 9.17118 28.8788 9.06858 29.05ZM20.8704 30.55C20.7076 31.2286 20.6728 31.2718 20.4156 31.1128C20.2762 31.0266 20.2822 30.827 20.4344 30.4928C20.7376 29.8276 21.0344 29.8664 20.8704 30.55ZM3.53958 31.8C3.44278 32.3766 2.95518 32.0934 2.67918 31.3C2.27018 30.1244 2.33718 30.0192 2.99778 30.8C3.32358 31.185 3.56738 31.635 3.53958 31.8ZM12.5498 31.4296C14.2262 32.962 14.3544 33.1218 14.588 33.9678C14.8414 34.8858 14.5092 35.6158 13.2246 36.9644C12.0798 38.166 12.138 38.1708 10.6298 36.7552C8.58498 34.8362 8.20338 33.9902 8.78718 32.6704C9.19298 31.753 10.535 30.2264 10.9498 30.21C11.0902 30.2046 11.8102 30.7534 12.5498 31.4296ZM19.0796 33.9C18.8866 34.9106 18.7756 35.2 18.5814 35.2C18.3212 35.2 18.3474 33.6622 18.6162 33.1598C18.9226 32.5874 19.235 33.0862 19.0796 33.9ZM8.36418 37.0646C9.09598 37.7602 9.95258 38.5598 10.2678 38.8416L10.841 39.3538L10.3954 39.7994C9.72618 40.4686 8.82678 40.2452 7.84258 39.1656C6.32538 37.5012 5.79478 36.8456 5.79478 36.635C5.79478 36.4074 6.56878 35.8 6.85878 35.8C6.95498 35.8 7.63238 36.3692 8.36418 37.0646ZM20.4574 36.4744C20.5152 36.6254 20.625 37.1654 20.7014 37.6744C20.871 38.8052 20.603 38.884 19.9858 37.8852C19.6214 37.2958 19.5828 37.0856 19.7652 36.6852C20.0112 36.145 20.2974 36.0578 20.4574 36.4744ZM17.1926 36.6974C17.3976 36.9444 17.2614 37.191 16.392 38.1474C15.0624 39.6102 14.5898 39.8804 13.9056 39.5686C13.6248 39.4406 13.3948 39.275 13.3948 39.2008C13.3948 39.1264 14.016 38.4658 14.7754 37.7328C16.1634 36.3928 16.7362 36.1474 17.1926 36.6974ZM3.43138 37.0434C3.28798 37.1868 3.19478 37.1986 3.19478 37.0734C3.19478 36.9596 3.25478 36.8066 3.32818 36.7334C3.40138 36.66 3.50798 36.6464 3.56478 36.7034C3.62158 36.7602 3.56158 36.9132 3.43138 37.0434ZM6.13058 39.6182C6.77098 40.2882 7.40418 41.0306 7.53778 41.2682C8.12338 42.3094 7.71158 43.43 6.06338 45.2806L5.23198 46.214L4.84018 45.657C3.86598 44.2716 3.70658 43.7456 3.70198 41.9C3.69818 40.3562 3.76658 39.979 4.18298 39.25C4.44998 38.7824 4.73558 38.4 4.81738 38.4C4.89938 38.4 5.49038 38.9482 6.13058 39.6182ZM18.9838 39.1316C19.2138 39.4238 19.5462 40.1592 19.7226 40.7658C19.9928 41.6954 20.005 42.039 19.8 42.955C19.5478 44.0814 18.8882 45.4 18.5766 45.4C18.4118 45.4 18.1022 45.088 17.0178 43.8294C16.3568 43.0626 16.1114 42.067 16.3702 41.2032C16.5858 40.484 18.0526 38.6 18.3972 38.6C18.49 38.6 18.754 38.8392 18.9838 39.1316ZM12.3626 41.1094C12.6758 41.7968 12.6548 42.304 12.283 43.0226C11.8904 43.782 11.5478 43.6798 11.309 42.7324C11.1656 42.164 11.1992 41.8352 11.4556 41.2976C11.8516 40.4674 12.0512 40.426 12.3626 41.1094ZM16.1596 45.4792C17.415 46.7794 17.5834 47.1314 17.1548 47.56C16.6068 48.108 15.9232 47.8182 14.5498 46.4554C13.8046 45.7158 13.1948 45.0282 13.1948 44.9274C13.1948 44.614 13.8704 44.213 14.4096 44.2064C14.7848 44.2018 15.2598 44.5472 16.1596 45.4792ZM10.2472 44.65C10.5382 44.8714 10.394 45.091 8.98978 46.5644C7.77158 47.843 7.29838 48.214 6.94918 48.1644C5.97218 48.0258 6.44758 46.9936 8.42938 44.951C9.00098 44.3618 9.71298 44.244 10.2472 44.65ZM20.501 46.55C20.3256 47.7476 20.0838 48.0144 19.7794 47.3462C19.5796 46.9076 19.6096 46.7408 19.9836 46.2158C20.2248 45.8772 20.4712 45.6 20.5312 45.6C20.5912 45.6 20.5776 46.0274 20.501 46.55ZM13.3522 47.457C14.6872 48.804 15.071 49.6372 14.7966 50.5936C14.5646 51.4028 14.2914 51.7536 12.8786 53.0578L11.6626 54.1804L10.3538 52.9344C8.85518 51.5078 8.53218 50.6156 9.05858 49.3558C9.35918 48.6362 11.5378 46.2238 11.9006 46.2086C12.0138 46.2038 12.667 46.7656 13.3522 47.457ZM4.07338 47.5164C4.23458 47.9362 4.22718 48 4.01818 48C3.92098 48 3.79438 47.82 3.73678 47.6C3.61338 47.1276 3.89718 47.0572 4.07338 47.5164ZM18.9948 50.3382C18.9948 51.6696 18.555 51.7864 18.208 50.5468C18.0276 49.9026 18.0248 49.5476 18.1968 49.0968C18.4158 48.523 18.4358 48.515 18.7098 48.8882C18.872 49.1092 18.9948 49.734 18.9948 50.3382ZM17.2678 52.4146C17.5576 52.6424 17.7948 52.9186 17.7948 53.0278C17.7948 53.3026 16.8794 54.531 15.9156 55.55C14.974 56.5452 14.3804 56.6324 13.4948 55.9054L12.8948 55.413L14.617 53.7064C15.5642 52.768 16.4296 52 16.54 52C16.6504 52 16.978 52.1866 17.2678 52.4146ZM4.05438 53.3336C3.88638 53.5902 3.66918 53.8 3.57178 53.8C3.32558 53.8 3.34758 53.6714 3.71498 52.961C3.94798 52.5104 4.07938 52.4134 4.19758 52.6044C4.29298 52.759 4.23398 53.0594 4.05438 53.3336ZM8.94478 54.065C9.63238 54.7378 10.1948 55.4036 10.1948 55.5442C10.1948 55.9358 9.31018 55.8484 8.74078 55.4004C7.90338 54.7418 6.55578 53.0248 6.69698 52.7966C6.93698 52.408 7.68058 52.8276 8.94478 54.065ZM20.6984 53.4166C20.7724 53.7532 20.7864 54.075 20.7298 54.1316C20.5398 54.3216 19.9494 53.207 20.0714 52.8888C20.2416 52.445 20.5402 52.6964 20.6984 53.4166ZM7.70138 57.2652C7.88918 58.2662 7.71558 58.8196 6.89518 59.8342C6.51018 60.3104 5.94758 61.034 5.64498 61.4424C5.34238 61.8508 5.02878 62.1882 4.94818 62.1924C4.86758 62.1966 4.56798 61.739 4.28238 61.1754C3.85358 60.3296 3.76318 59.8754 3.76318 58.57C3.76318 57.2148 3.84078 56.8542 4.30678 56.0446C5.35958 54.215 5.34138 54.2198 6.52438 55.451C7.23378 56.1892 7.60778 56.7654 7.70138 57.2652ZM19.6078 55.65C20.0116 56.3556 20.0944 56.7716 20.0946 58.1C20.0948 59.5336 20.0324 59.7988 19.4948 60.6496C19.1648 61.172 18.7986 61.5994 18.6808 61.5996C18.468 61.6 18.1014 61.2232 17.2444 60.123C16.7332 59.467 16.6406 58.1714 17.0394 57.2594C17.3044 56.6538 18.774 54.8 18.9892 54.8C19.0618 54.8 19.3402 55.1826 19.6078 55.65ZM12.2718 57.493C12.6128 58.0132 12.7188 59.4 12.4178 59.4C12.0772 59.4 11.5948 58.4078 11.5948 57.707C11.5948 56.8778 11.8218 56.806 12.2718 57.493ZM10.7642 60.3734C11.001 60.5788 11.1948 60.8476 11.1948 60.9708C11.1948 61.094 10.4004 62.0058 9.42958 62.9974C7.54578 64.9208 6.99918 65.1686 6.33918 64.3978C5.85958 63.8374 5.89418 63.689 6.74478 62.6642C8.74898 60.2492 9.02438 60 9.68958 60C10.0438 60 10.5274 60.168 10.7642 60.3734ZM16.4762 62.0428C17.4588 63.1526 17.5414 63.5342 16.7802 63.4448C16.2584 63.3836 15.657 62.8796 14.758 61.75L14.1612 61H14.857C15.4444 61 15.6966 61.1624 16.4762 62.0428ZM20.9984 63.4642C20.8126 64.0864 20.718 64.1854 20.4902 63.9962C19.9502 63.548 19.9616 63.0278 20.533 62.0556L21.0948 61.1L21.1606 61.9C21.1968 62.34 21.1238 63.044 20.9984 63.4642ZM13.515 62.95C13.8994 63.2524 14.4046 63.8052 14.638 64.178C15.0492 64.8356 15.0508 64.8644 14.6902 65.128C14.2938 65.418 9.99478 65.5342 9.99478 65.255C9.99478 65.1154 12.6154 62.4 12.7502 62.4C12.7864 62.4 13.1306 62.6476 13.515 62.95ZM21.0782 67.1286C21.2558 67.5918 21.1736 67.6172 20.2868 67.3722C19.8548 67.253 19.0948 67.1996 18.598 67.2538C17.628 67.3594 17.1948 67.276 17.1948 66.9834C17.1948 66.8826 18.0402 66.8 19.0734 66.8C20.6316 66.8 20.9736 66.856 21.0782 67.1286ZM13.8272 70.8972C13.7102 71.3348 13.6384 71.4022 13.5462 71.1616C13.3838 70.7388 13.5996 69.9248 13.8164 70.1416C13.9088 70.234 13.9136 70.574 13.8272 70.8972ZM22.5298 71.4504C22.5618 72.0406 22.548 72.0572 22.3796 71.6316C22.2774 71.3738 22.2446 71.0814 22.3062 70.9816C22.4746 70.7092 22.4918 70.7452 22.5298 71.4504ZM24.0734 71.1164C24.1402 71.2904 24.1948 71.6486 24.1948 71.9126C24.1948 72.4846 23.5404 72.7224 22.79 72.423L22.2948 72.2254L22.8448 72.2126C23.46 72.1984 23.5712 71.805 23.0948 71.3286C22.666 70.8996 22.7184 70.8 23.3734 70.8C23.7166 70.8 24.0014 70.9288 24.0734 71.1164ZM13.2654 73.7134C13.419 74.4446 13.351 74.6966 12.5916 76.2134C10.632 80.1266 8.07778 83.2562 5.75778 84.5866C4.48578 85.3162 4.19478 85.3462 4.19478 84.7486C4.19478 84.2298 5.19438 81.622 6.27338 79.3262C8.20278 75.2204 10.6364 72.7336 12.5948 72.8662C13.009 72.8942 13.124 73.0394 13.2654 73.7134Z" fill="black"/>
</svg>
