<svg width="45" height="94" viewBox="0 0 45 94" fill="none" xmlns="http://www.w3.org/2000/svg">
<path fill-rule="evenodd" clip-rule="evenodd" d="M36.3859 0.381923C34.7927 1.01441 33.4848 2.1774 32.7361 3.62808C31.3592 6.29572 31.0381 8.31476 31.0339 14.3295L31.0296 20.067L28.2445 22.7823C24.5186 26.415 23.0625 29.2368 23.0943 32.7633C23.1106 34.536 23.3408 35.7119 23.9194 36.9748C24.7131 38.7061 24.7198 38.8446 24.4984 48.7134C24.2692 58.9288 23.9322 62.8095 23.0448 65.4575C22.7679 66.2834 22.5415 67.9591 22.5415 69.1816C22.5415 70.7294 22.3806 71.5364 22.011 71.8402C21.3313 72.3991 21.3313 73.3837 22.011 73.9426C22.7329 74.5362 22.6788 74.9791 21.7677 75.9399C21.13 76.6123 21.054 76.9249 21.3348 77.7147C21.6517 78.6051 21.5898 78.7025 20.4581 79.0901C19.6846 79.3546 18.1932 79.4335 16.3693 79.3059C11.3345 78.9541 8.36435 80.2222 3.99264 84.5904C1.0738 87.5072 0.395111 88.4683 0.079991 90.1321C-0.109222 91.1314 0.0103182 91.5431 0.730743 92.3732L1.61315 93.3901H7.03773C12.0888 93.3901 12.5836 93.3309 14.2303 92.5264C15.9573 91.683 19.7111 88.3054 20.8651 86.5572C21.4317 85.6987 21.4437 85.7278 21.4621 87.9991C21.4759 89.7526 21.6496 90.5301 22.1748 91.1917C23.7787 93.2121 29.4512 94.4189 34.7431 93.8656C37.9138 93.5341 39.9258 92.8158 41.3918 91.492C42.3672 90.6114 42.382 90.5368 42.3792 86.5628C42.3778 84.3433 42.3863 82.1635 42.398 81.7188C42.4096 81.2738 42.138 80.6021 41.7946 80.2257C41.1951 79.5694 41.2008 79.5088 41.9354 78.7344C42.8853 77.7322 42.908 76.7508 42.0064 75.6158C41.3939 74.8438 41.3716 74.6641 41.8186 74.0793C42.4712 73.225 42.4835 72.0381 41.8452 71.5132C41.4162 71.1604 41.453 70.8615 42.0998 69.4557C42.695 68.1613 42.8556 67.1384 42.8528 64.6568C42.8489 61.3767 42.2774 59.4652 40.3898 56.4223C39.6899 55.294 39.6103 54.5431 39.3928 47.0286C39.1371 38.1932 38.9401 37.1924 37.0682 35.2228C36.2837 34.3972 36.0263 33.7283 35.8685 32.107C35.7582 30.9713 35.4996 29.8752 35.2942 29.6716C35.0883 29.4677 34.92 28.6124 34.92 27.771C34.92 26.9297 34.7665 25.9573 34.579 25.6097C34.2572 25.014 32.3315 24.3297 31.5601 24.5364C31.3656 24.5887 30.8881 24.6615 30.4991 24.6987C29.6036 24.7838 28.9196 26.0926 28.9129 27.7339C28.9101 28.433 28.6689 29.5711 28.3771 30.2631C28.0853 30.9548 27.8423 32.1175 27.837 32.8463C27.8296 33.8674 27.5445 34.4729 26.5942 35.4856C25.9163 36.2085 25.2995 36.7996 25.2238 36.7996C24.8768 36.7996 24.3099 34.434 24.3081 32.9805C24.3049 29.9814 25.2683 28.1432 28.5539 24.8791C30.2073 23.2368 33.4063 20.5173 35.663 18.836C43.8158 12.7625 45.732 9.96692 44.7743 5.54305C44.4701 4.13757 44.0248 3.38805 42.735 2.11012C40.7223 0.115965 38.5479 -0.475871 36.3859 0.381923ZM41.3083 2.65045C42.6904 3.59935 43.7617 5.58965 43.7617 7.20853C43.7617 9.6477 41.5262 12.3914 36.4722 16.1547C34.6823 17.4877 33.1233 18.5785 33.0077 18.5785C32.8924 18.5785 32.798 16.14 32.798 13.1595C32.798 7.42998 33.1725 5.46281 34.66 3.3849C36.1794 1.26214 38.8556 0.966399 41.3083 2.65045ZM33.8501 23.0623L34.0209 24.7106L34.1408 23.3503C34.207 22.6022 34.1302 21.8607 33.9704 21.7024C33.8105 21.544 33.7564 22.1561 33.8501 23.0623ZM40.5734 59.8388C40.5762 60.0798 40.4195 60.2768 40.225 60.2768C40.0305 60.2768 39.8738 59.843 39.8767 59.3132C39.8809 58.5622 39.958 58.4655 40.225 58.8752C40.4135 59.1642 40.5702 59.598 40.5734 59.8388Z" fill="black"/>
</svg>
