<svg width="70" height="95" viewBox="0 0 70 95" fill="none" xmlns="http://www.w3.org/2000/svg">
<path fill-rule="evenodd" clip-rule="evenodd" d="M23.5873 8.73373C18.8168 9.09855 11.4799 9.44265 7.28273 9.49759C-0.26515 9.59758 -0.342755 9.6219 0.193184 11.7288C2.34059 20.1718 6.09856 60.0251 6.40533 77.6074C6.50028 83.0571 6.21816 91.3425 6.39894 88.8419V89.9591L13.846 91.2616L20.0281 91.3167L26.3075 89.8478C22.9975 90.9812 26.1867 89.8652 23.8156 90.7552C21.0382 91.7983 10.4144 91.4677 7.71367 90.2543C6.4455 89.685 6.09856 89.7995 6.39894 90.6885C7.43338 93.7512 21.5887 95.469 26.3264 93.1071C28.0501 92.2478 28.6399 91.2038 28.7358 88.8419C28.8061 87.1214 29.1147 77.9209 29.4224 68.3951C29.7301 58.8694 30.7627 44.8847 31.7177 37.3182C32.6718 29.7516 33.7154 21.0564 34.0359 17.9947L35 9.6111L34.0359 10.8587L29.4873 11.083C28.0849 11.5298 25.8347 11.4746 21.5663 11.9096H13.2587L3.56649 11.7288C4.66174 17.9947 4.80669 27.3169 5.07695 27.5826C5.34629 27.8483 7.02572 39.0558 6.3784 42.1337C6.9631 53.4119 7.39541 50.6155 6.81199 63.3435C6.22858 76.0869 8.06855 76.2247 8.06855 76.2247C8.06855 76.2247 11.3694 77.5182 8.91885 76.2247C7.30921 75.3744 7.15309 74.2349 7.15309 63.3435C7.15309 49.0527 5.76713 30.13 3.92558 19.2819C3.18969 14.9464 2.58802 11.2568 2.58802 11.083C2.58802 10.9091 18.794 10.8587 18.794 10.8587C32.5659 10.9361 35 10.7488 35 9.6111C35 7.95906 34.3673 7.91042 23.5873 8.73373Z" fill="black"/>
<path d="M69.9647 76.1163C69.9647 85.1648 62.5867 92.5 53.4853 92.5C44.384 92.5 37.0059 85.1648 37.0059 76.1163C37.006 69.7111 35.8152 42.2011 58.9648 0C49.9403 56.6163 68.1527 59.1364 69.9647 76.1163Z" fill="black"/>
</svg>
