<svg width="36" height="90" viewBox="0 0 36 90" fill="none" xmlns="http://www.w3.org/2000/svg">
<path fill-rule="evenodd" clip-rule="evenodd" d="M2.65012 1.09123C0.264478 2.70701 -0.2699 4.03898 0.11207 7.41844C0.290671 8.99785 0.41593 11.2377 0.391164 12.3955C0.357349 13.9582 0.63692 14.8489 1.47611 15.8515C3.92986 18.7816 5.16673 29.0205 5.14149 46.1858C5.12101 60.2794 4.54853 69.0188 3.38786 72.9554C2.97636 74.3505 2.69203 77.3121 2.69203 80.201C2.69203 86.7618 2.72347 86.7967 10.3243 88.5733C17.123 90.1623 24.3981 90.4715 26.5056 89.2606C27.1605 88.8844 28.4464 88.5676 29.3632 88.5571C32.378 88.5216 34.5474 87.6448 35.3157 86.1511C37.0412 82.798 35.339 76.4554 32.0527 73.9915C30.2591 72.6467 26.6337 71.7636 23.5418 71.9177C21.7438 72.0077 21.0751 71.8115 20.2079 70.9399L19.1234 69.8501V49.6423C19.1234 28.1475 18.8481 24.613 16.4305 15.0762C15.8971 12.9703 15.2618 10.4232 15.0189 9.4152C14.4497 7.05279 12.5728 3.34021 11.4178 2.29158C10.1547 1.14435 7.26662 0 5.63539 0C4.88002 0 3.53646 0.491053 2.65012 1.09123Z" fill="black"/>
</svg>
