<svg width="31" height="85" viewBox="0 0 31 85" fill="none" xmlns="http://www.w3.org/2000/svg">
<path fill-rule="evenodd" clip-rule="evenodd" d="M4.84305 0.663813C3.33297 1.05399 1.55401 1.91338 0.890297 2.57402C-0.244816 3.70389 -0.258999 3.83263 0.645801 4.73381C1.5506 5.63442 1.82062 5.61861 5.16583 4.46786C7.12292 3.79479 10.0637 3.07769 11.7019 2.87442L14.6801 2.50514L14.6886 4.97774C14.7023 8.80888 15.6133 9.54688 16.0881 6.11155C16.5198 2.98735 17.0854 2.65081 20.0323 3.766C21.328 4.25668 21.4874 4.62822 21.4874 7.1539V9.99126H18.4043C16.7087 9.99126 14.6404 10.2487 13.8082 10.5638C12.3095 11.1313 12.297 11.181 12.495 15.928L12.6947 20.7196H11.1681C10.3286 20.7196 9.52305 20.9105 9.3784 21.1431C9.23374 21.3757 12.187 21.4751 15.9406 21.3639C20.8384 21.2182 22.6554 21.3379 22.3763 21.7874C22.1625 22.1324 22.5856 21.7874 20.73 21.7874C15.8821 21.7874 9.15597 20.6019 8.9539 22.9816C8.5294 27.9807 8.38 34.0092 8.38 33.1419C8.8045 29.4872 12.395 25.5836 29.0316 30.5588C30.0952 31.0517 29.1325 80.9988 27.9696 82.2235C27.0983 83.1411 27.7274 82.2235 23.5787 82.8285L27.8801 81.9612L28.8064 72.0905C28.7571 66.741 29.2885 43.7934 29.0316 33.3897C30.6793 27.3183 8.70561 26.3226 8.38 33.1419C8.17975 37.3344 8.15309 50.1237 8.321 61.563C8.67385 85.63 7.99028 83.3912 15.337 84.5453C20.4941 85.3556 26.0806 85.062 28.9385 83.8311L31 82.9429L30.924 52.7652C30.8627 28.6157 30.6971 22.4068 30.0952 21.6846C29.6817 21.1888 28.4308 20.7049 27.3161 20.6101L25.2898 20.4373L25.409 15.1708C25.5201 10.2753 25.4458 9.88228 24.3589 9.59939C23.3407 9.33457 23.1892 8.85406 23.1892 5.89416C23.1892 3.3826 23.4343 2.31429 24.1269 1.81062C24.6426 1.43513 24.912 0.882898 24.726 0.583634C24.2154 -0.239061 8.08615 -0.173562 4.84305 0.663813ZM17.7502 79.3624C17.9153 79.6284 19.3981 80.0146 21.0455 80.2201C22.6923 80.4257 24.8701 80.7447 25.8838 80.9293C27.2929 81.1862 27.7274 81.066 27.7274 80.42C27.7274 79.9553 27.1528 79.4217 26.451 79.2343C24.4905 78.7114 17.4104 78.8158 17.7502 79.3624Z" fill="black"/>
</svg>
