<svg width="78" height="78" viewBox="0 0 78 78" fill="none" xmlns="http://www.w3.org/2000/svg">
<path fill-rule="evenodd" clip-rule="evenodd" d="M54.2965 3.69031V7.38062H59.8897H65.4828L57.6654 15.2018L49.8478 23.0231L49.1395 22.4831C44.9556 19.2942 39.3823 17.1331 33.8768 16.5653C31.8526 16.3564 27.779 16.4835 25.8764 16.8149C22.7086 17.3665 20.1541 18.1728 17.4713 19.4675C5.05007 25.4625 -1.84028 38.7732 0.428731 52.3903C1.41194 58.2912 4.20158 63.9243 8.28948 68.2639C13.1082 73.379 18.7874 76.4041 26.0168 77.7064C28.0467 78.072 33.1761 78.1027 35.249 77.7616C40.3059 76.9296 44.705 75.1684 48.5459 72.4382C59.0569 64.9668 63.8012 52.0394 60.631 39.509C59.7484 36.0203 57.89 32.0688 55.8053 29.2482L55.0488 28.2247L62.8358 20.4346L70.6229 12.6446V18.1797V23.7148H74.3114H78V11.8574V0H66.1482H54.2965V3.69031Z" fill="black"/>
<circle cx="30.5216" cy="46.7999" r="23.0783" fill="black" stroke="white" stroke-width="2"/>
</svg>
