<svg width="50" height="87" viewBox="0 0 50 87" fill="none" xmlns="http://www.w3.org/2000/svg">
<path fill-rule="evenodd" clip-rule="evenodd" d="M12.1932 4.625C11.8672 10.839 11.4912 16.364 10.8237 24.75C10.5172 28.6 10.0972 35.292 9.89073 39.6205C9.68373 43.9495 9.39773 47.608 9.25523 47.7505C9.11273 47.893 7.82273 47.522 6.38873 46.926C3.92873 45.904 3.68623 45.888 2.10273 46.643C1.17973 47.083 0.277733 47.9065 0.0977329 48.4735C-0.414767 50.0885 1.17373 58.859 2.87023 63.782C3.71723 66.2395 4.62573 69.1175 4.88923 70.1775C5.43973 72.395 6.61573 74.858 7.73123 76.13C8.40073 76.893 8.41073 77.182 7.80773 78.3085C7.17073 79.4995 7.21023 79.686 8.28123 80.5535C9.47973 81.524 11.1592 81.769 12.1442 81.1175C12.4497 80.9155 13.0587 80.0485 13.4982 79.1915C14.1932 77.8345 14.2042 77.5105 13.5837 76.6915C12.7822 75.6325 12.6197 74.5 13.2692 74.5C13.5062 74.5 14.5287 75.0625 15.5417 75.75C18.0982 77.485 18.4477 77.3135 16.1742 75.44C14.9427 74.4245 13.7422 72.674 12.7382 70.4285C11.2487 67.097 10.2597 65.9105 11.3392 68.75C11.9382 70.3255 11.8067 70.648 10.7322 70.2355C9.93723 69.9305 9.14773 67.67 8.57673 64.0615C8.36873 62.7515 8.41623 61.9885 8.69423 62.1605C8.95623 62.3225 9.06373 61.8035 8.94123 60.9675C8.82173 60.1535 8.52473 59.3645 8.28173 59.2145C7.67373 58.8385 7.72173 57 8.33923 57C8.61423 57 8.83923 57.1835 8.83923 57.4075C8.83923 58.481 15.4737 60.0995 21.1847 60.4195C30.0782 60.9175 35.7982 60.388 38.6302 58.805C39.9057 58.092 41.1147 57.6115 41.3177 57.7365C41.5202 57.862 41.8262 60.265 41.9972 63.0765C42.3292 68.5235 41.4437 74.7175 40.0487 76.7095C39.6587 77.2665 39.3392 78.5175 39.3392 79.4895C39.3392 80.4615 39.1287 81.9905 38.8712 82.888C38.6142 83.785 38.5892 84.4045 38.8157 84.2645C39.0427 84.124 39.3837 83.39 39.5742 82.6325C40.3632 79.487 42.3392 79.5595 42.3392 82.7335C42.3392 84.7445 43.7032 86.049 45.8707 86.1105C47.0017 86.1425 47.7852 85.8085 48.4212 85.023C49.7372 83.3975 49.5577 82.5185 47.8392 82.175L46.3392 81.875V77.4695C46.3392 74.4055 46.7312 71.493 47.6257 67.907C48.5467 64.216 48.9907 60.831 49.1872 56C49.4527 49.4785 49.4242 49.216 48.3472 48.25C47.5372 47.523 46.5647 47.26 44.7862 47.2865C42.3807 47.3225 42.3392 47.297 42.3357 45.7865C42.3337 44.9415 42.1907 42.752 42.0177 40.921L41.7032 37.592L43.9907 38.08C45.6107 38.4255 46.5912 38.4 47.3527 37.993C48.9412 37.1425 48.6487 36.2785 43.3917 26.3045C42.5377 24.6845 41.8392 22.863 41.8392 22.2565C41.8392 21.65 41.5147 20.5005 41.1177 19.702C40.4327 18.323 40.0952 15.1355 39.5227 4.625C39.2777 0.129 39.2367 0 38.0547 0C36.8767 0 36.8377 0.1195 36.7837 3.875C36.6692 11.886 35.5642 28.4415 35.1147 28.8915C35.0192 28.9865 34.1872 28.9235 33.2652 28.751L31.5892 28.437L31.7627 25.677C32.0267 21.4845 30.4787 15.638 28.5467 13.5295C26.5347 11.334 23.9182 11.194 21.9362 13.1755C20.7947 14.3175 20.6642 14.843 20.6557 18.3485C20.6502 20.494 20.9587 23.199 21.3417 24.359C21.7242 25.5195 21.9277 26.578 21.7942 26.7115C21.6602 26.8455 20.6612 26.649 19.5732 26.275C18.1902 25.7995 17.3142 25.7455 16.6602 26.0955C15.8067 26.5525 15.7457 26.4285 15.9647 24.673C16.0967 23.6155 16.5077 22.0225 16.8782 21.133C17.4697 19.7145 17.4517 19.4385 16.7342 18.883C16.1187 18.4065 15.7832 16.746 15.3777 12.164C15.0817 8.8165 14.8392 4.7105 14.8392 3.039C14.8392 0.1635 14.7747 0 13.6377 0C12.4727 0 12.4282 0.142 12.1932 4.625ZM42.8167 32.4165C42.8307 33.133 42.5982 33.504 42.2142 33.3775C41.8467 33.2565 41.5472 32.1575 41.4872 30.711L41.3857 28.25L42.0897 29.75C42.4772 30.575 42.8042 31.775 42.8167 32.4165ZM34.4272 39.375C34.2662 43.145 33.9637 44.7545 33.0942 46.4755L31.9692 48.7015L31.1542 47.1255C29.2182 43.3815 31.2782 34.5 34.0827 34.5C34.4627 34.5 34.5702 36.0235 34.4272 39.375ZM39.8427 39.375C39.8447 40.681 39.9867 43.2375 40.1587 45.0555L40.4707 48.361L38.0657 49.1805C36.7432 49.6315 35.5887 50 35.5002 50C35.1212 50 35.3842 44.8405 35.8807 42.5245C36.3497 40.3375 36.5837 40 37.6307 40C38.6402 40 38.8392 39.753 38.8392 38.5C38.8392 37.675 39.0642 37 39.3392 37C39.6142 37 39.8407 38.069 39.8427 39.375ZM13.5752 38.5C13.9342 38.5 14.3687 39.25 14.5407 40.167C14.8907 42.034 15.0417 49.464 14.7357 49.77C14.6272 49.8785 13.7062 49.712 12.6887 49.4C11.0027 48.8825 10.8402 48.674 10.8492 47.041C10.8547 46.056 11.0822 43.7055 11.3552 41.8175C11.8732 38.233 12.3647 36.826 12.7222 37.8995C12.8327 38.23 13.2162 38.5 13.5752 38.5ZM17.2952 46.1545C17.3207 46.9725 17.1302 47.43 16.8392 47.25C16.5642 47.08 16.3692 45.323 16.4062 43.3455L16.4727 39.75L16.8622 42.25C17.0762 43.625 17.2712 45.382 17.2952 46.1545Z" fill="black"/>
</svg>
