<svg width="88" height="78" viewBox="0 0 88 78" fill="none" xmlns="http://www.w3.org/2000/svg">
<path fill-rule="evenodd" clip-rule="evenodd" d="M57.8475 0.692466C57.4717 1.29821 56.9888 1.39558 55.056 1.2548C52.7366 1.08561 52.7173 1.09332 52.5864 2.24638C52.4592 3.3682 52.3637 3.41567 49.8369 3.61164C48.1051 3.74593 46.7293 4.12123 45.772 4.72129C44.594 5.4593 43.5823 5.6581 40.335 5.78956C38.1404 5.87881 35.852 6.18229 35.2491 6.46427C33.1919 7.42664 32.7747 11.578 34.5552 13.3717C35.1867 14.0079 35.9032 14.1604 38.2564 14.1604H41.1743L38.5585 15.6965C36.1537 17.1088 35.8178 17.1997 34.4005 16.8215C33.0767 16.4682 32.6349 16.54 31.2728 17.3299C30.0916 18.0148 29.6421 18.1158 29.5128 17.7263C29.4174 17.4387 29.0718 16.2592 28.7452 15.1053C27.9288 12.2227 27.3884 11.3204 26.4778 11.3204C24.7532 11.3204 24.4467 13.7628 25.6646 17.7973C26.452 20.4065 26.452 20.4244 25.6614 21.2723C25.2244 21.7409 24.8668 22.4165 24.8668 22.7735C24.8668 23.5062 21.5893 25.6699 19.2485 26.4826C17.9267 26.9411 17.5554 26.9313 16.7096 26.4144C15.4116 25.6209 13.9863 26.0168 13.035 27.4356C12.619 28.056 10.7418 29.7503 8.86337 31.2007C1.59989 36.8095 1.54834 36.8577 1.27448 38.3289C0.98007 39.91 1.5713 40.9381 2.7751 40.9381C3.94628 40.9381 7.79248 39.4848 9.09616 38.5496C10.1844 37.769 10.9121 37.7093 20.6517 37.603L31.0457 37.4894L31.3385 38.5821C31.5954 39.5408 31.5008 39.7006 30.5648 39.8873C23.4576 41.3049 20.6074 41.3641 19.737 40.1124C19.2376 39.3939 18.8397 39.275 17.468 39.4329C14.621 39.7611 11.4876 40.7462 8.55568 42.2348C7.00511 43.0219 5.06792 43.7891 4.25035 43.9388C1.0437 44.5271 -1.51291 50.0413 1.0425 50.8584C2.19515 51.2268 6.56894 50.1484 10.7035 48.476C12.7708 47.6402 14.5707 47.0653 14.7036 47.1988C14.8361 47.3323 14.9001 48.4042 14.8461 49.5804C14.7704 51.2288 14.938 51.9624 15.5783 52.7823C16.0354 53.3674 16.4092 54.0458 16.4092 54.2896C16.4092 54.5975 19.3432 54.7326 26.0319 54.7326C34.6667 54.7326 35.6813 54.8024 35.914 55.4134C36.0566 55.7875 35.9398 56.3235 35.6551 56.6042C33.7662 58.4637 17.6271 71.508 16.8127 71.8334C15.0729 72.5284 14.3834 73.404 14.6589 74.5684C14.7966 75.151 15.0656 75.8286 15.2565 76.0744C15.4672 76.3459 18.0999 76.6218 21.9469 76.7759C25.4355 76.9159 33.5709 77.2482 40.0253 77.5152L51.7604 78L62.1435 68.2935C81.7668 49.9492 85.3895 46.6182 85.7181 46.6182C85.8989 46.6182 86.524 46.1378 87.1072 45.5503C87.9719 44.6792 88.1217 44.2386 87.9207 43.1594L87.6746 41.8368L80.2142 41.5402C76.1111 41.3771 71.6906 41.3645 70.3909 41.5126C69.0913 41.6611 67.5632 41.6647 66.9954 41.5211C66.1432 41.3057 66.032 41.13 66.3574 40.5169C66.9724 39.3594 66.8339 38.9456 65.7388 38.6689C65.1814 38.5277 64.3634 37.9487 63.9208 37.3819C63.0924 36.3206 63.1705 35.5448 64.0203 36.4009C64.6776 37.063 66.5524 37.0038 67.1303 36.3023C67.3925 35.9842 67.5504 34.9342 67.4815 33.9694C67.3623 32.3003 67.2898 32.2086 65.9889 32.0836C65.2318 32.0106 64.4895 32.1668 64.326 32.4337C64.1013 32.8001 63.7622 32.7831 62.9063 32.3623C61.9401 31.8868 61.6671 31.3363 60.9611 28.4374C60.4427 26.3094 60.2853 24.962 60.5342 24.7859C61.1371 24.3591 61.9192 22.356 61.9192 21.2391C61.9192 20.4718 62.5386 19.7983 64.6079 18.317C66.0868 17.2581 68.1041 15.7813 69.0913 15.0352C70.078 14.289 71.4505 13.3563 72.1416 12.9619C73.2101 12.3521 73.3905 12.0231 73.3503 10.7548C73.3245 9.93523 73.2085 9.16882 73.0925 9.05237C72.9081 8.86655 65.4879 9.29621 58.5764 9.89303L56.2409 10.0951L56.3613 7.80802C56.5047 5.09252 57.2325 4.33626 58.8587 5.21302C60.3187 6.00013 61.1137 5.21992 61.1137 3.00021C61.1137 1.6098 60.9192 1.14201 60.1209 0.615379C58.8479 -0.224872 58.4069 -0.20986 57.8475 0.692466ZM63.1274 13.9425C63.1274 14.1454 58.4532 17.4062 58.162 17.4062C58.0649 17.4062 57.8861 16.9043 57.7645 16.2905C57.4536 14.7211 58.7452 13.7754 61.2144 13.7636C62.2668 13.7588 63.1274 13.8391 63.1274 13.9425ZM27.2418 15.479C27.8878 17.2058 28.158 19.0291 27.7682 19.0291C27.5571 19.0291 27.2792 18.5025 27.1516 17.8594C27.0239 17.2159 26.8004 16.2117 26.655 15.6279C26.3312 14.3292 26.7702 14.2176 27.2418 15.479ZM48.6846 16.2024C47.5578 17.1486 46.8856 17.209 46.238 16.4231C45.7329 15.8101 46.3967 15.5391 48.6287 15.4461L49.6355 15.4048L48.6846 16.2024ZM56.671 18.0148C56.671 18.6867 56.6042 18.7215 56.2808 18.2176C56.0661 17.8829 55.8905 17.2439 55.8905 16.7976C55.8905 16.1257 55.9574 16.0908 56.2808 16.5947C56.4954 16.9295 56.671 17.5685 56.671 18.0148ZM43.7957 18.7524C43.7957 19.4908 42.925 20.2864 39.7482 22.4513C37.5222 23.9683 35.6088 25.1169 35.4964 25.0037C35.3836 24.8906 35.8339 24.409 36.4964 23.9339C37.1585 23.4584 37.7582 22.6692 37.8283 22.1803C37.956 21.2918 42.2697 17.8541 43.2923 17.8257C43.5694 17.818 43.7957 18.2351 43.7957 18.7524ZM54.6698 18.1844C54.6698 18.3893 54.7729 18.8278 54.899 19.1589C55.0577 19.5756 54.0532 20.5307 51.6359 22.2611C49.7153 23.6365 48.097 24.7043 48.0403 24.6341C47.9831 24.5639 47.8208 24.0195 47.6794 23.4247C47.4446 22.4384 47.6975 22.1446 50.5425 20.1018C53.5723 17.9255 54.6698 17.4159 54.6698 18.1844ZM46.6149 25.3235C46.6149 25.5762 44.5428 27.2758 42.0104 29.1003C38.0204 31.9753 37.1827 32.4179 35.7344 32.4179C34.815 32.4179 34.123 32.2426 34.1971 32.0284C34.2709 31.8142 36.8685 29.8205 39.9697 27.5979C44.9532 24.0264 45.6665 23.6328 46.1115 24.2106C46.3886 24.57 46.6149 25.0711 46.6149 25.3235ZM56.7286 26.1596C56.8756 26.8125 57.2667 28.465 57.5978 29.8318L58.1999 32.3173L54.723 32.9656C50.6303 33.7292 43.9496 33.717 44.72 32.9478C45.9101 31.7594 55.7169 24.7806 56.0689 24.8715C56.2848 24.9271 56.5816 25.5068 56.7286 26.1596ZM59.6928 29.4764C60.2631 32.9449 59.2885 30.877 58.4971 26.9407L58.2526 25.7235L58.831 26.7378C59.1487 27.2957 59.5366 28.5279 59.6928 29.4764ZM28.5958 28.9989C28.7658 29.8964 28.4963 30.2412 26.6739 31.4604C24.9945 32.5839 24.2317 32.8512 22.9989 32.7494L21.4435 32.6208L24.8632 30.2879C26.744 29.005 28.3086 27.955 28.3405 27.955C28.3719 27.955 28.4867 28.4248 28.5958 28.9989ZM65.9466 40.0771C65.9466 40.2727 65.6748 40.6602 65.3425 40.9381C64.8524 41.3479 64.7384 41.3316 64.7384 40.8525C64.7384 40.5275 64.8592 40.14 65.007 39.9915C65.3892 39.6061 65.9466 39.6568 65.9466 40.0771ZM51.0451 41.7004C51.0451 42.1102 49.7261 42.6689 46.7245 43.5306C44.5932 44.1421 43.7096 43.8808 44.807 42.963C45.1369 42.6871 45.4067 42.21 45.4067 41.9029C45.4067 41.4813 46.0998 41.3438 48.2259 41.3438C49.7765 41.3438 51.0451 41.5041 51.0451 41.7004ZM32.7062 43.643C32.9184 44.7827 32.8347 45.2148 32.3486 45.4891C31.9994 45.6858 31.7134 46.1731 31.7134 46.5719C31.7134 47.1464 30.885 47.5205 27.7126 48.3774C23.1422 49.612 22.4503 49.6798 22.4503 48.8939C22.4503 48.5835 22.0911 47.5339 21.6521 46.561L20.8535 44.7924L21.7109 44.1839C22.6243 43.5359 28.5213 42.2705 30.9639 42.1983C32.3433 42.1577 32.4456 42.2425 32.7062 43.643ZM35.3381 44.8164C35.3381 45.1381 35.1569 45.401 34.9354 45.401C34.7139 45.401 34.5326 45.0249 34.5326 44.5656C34.5326 44.1064 34.7139 43.8431 34.9354 43.981C35.1569 44.1189 35.3381 44.4946 35.3381 44.8164ZM78.9883 46.135C79.2501 46.5614 68.521 56.2663 68.1939 55.8987C67.9885 55.6678 66.7521 51.2215 66.7521 50.7144C66.7521 50.4697 67.2145 50.2697 67.7799 50.2697C68.5588 50.2697 68.9092 49.9764 69.2274 49.0574C69.5915 48.0045 70.0514 47.714 72.73 46.845C75.8288 45.84 78.6133 45.524 78.9883 46.135ZM63.9639 54.0863C64.8379 57.2721 64.9764 58.3046 64.6317 59.067C64.3924 59.5956 61.011 62.9664 57.1177 66.557L50.0383 73.0859L38.3051 72.7938C31.852 72.6327 25.9884 72.3811 25.2748 72.2343L23.9779 71.9669L28.7045 67.9141C31.3042 65.6851 34.8117 62.7992 36.4992 61.5009C38.1863 60.2022 40.5001 58.2186 41.6407 57.0923C43.0442 55.706 44.2154 54.9343 45.2653 54.7038C46.1184 54.5168 50.0785 53.3645 54.0657 52.1437C58.0529 50.9229 61.6631 49.9561 62.0883 49.9954C62.7094 50.0526 63.0783 50.8576 63.9639 54.0863Z" fill="black"/>
</svg>
