<svg width="98" height="68" viewBox="0 0 98 68" fill="none" xmlns="http://www.w3.org/2000/svg">
<path fill-rule="evenodd" clip-rule="evenodd" d="M35.6995 0.118232C32.7185 0.486857 28.253 1.91448 25.012 3.53511C23.7003 4.19098 20.7851 6.00248 19.512 6.95299C15.2718 10.1182 11.314 14.1471 7.67288 19.0049C7.20913 19.6236 6.77951 20.19 6.71826 20.2636C6.51988 20.5016 3.64301 24.8699 3.47251 25.1921C3.38151 25.3639 3.23401 25.5889 3.14451 25.6921C2.81876 26.0682 0.883008 29.677 0.384883 30.8369C-0.212867 32.2286 -0.139742 32.9536 0.783258 34.7881C1.12863 35.4746 1.17476 35.6515 1.03538 35.7541C0.941508 35.8232 0.836258 36.0297 0.801508 36.2129C0.654133 36.9894 1.63951 37.7625 8.55476 42.2951C12.0988 44.6181 14.5655 46.2639 17.7785 48.4487C19.3506 49.5179 20.8309 50.5023 21.0678 50.6363C21.3048 50.7703 21.586 50.9474 21.6928 51.0299C23.4549 52.391 28.8321 56.0946 30.7349 57.2578C31.6604 57.8235 32.0639 58.0859 33.0745 58.779C33.2464 58.8969 34.1745 59.5614 35.137 60.2556C36.0995 60.9499 37.7026 62.0746 38.6995 62.7551C39.6964 63.4355 40.5308 64.0373 40.5536 64.0924C40.5766 64.1474 40.6478 64.1924 40.7119 64.1924C40.8146 64.1924 42.1388 65.0949 42.5358 65.4356C42.6176 65.5058 42.8884 65.6778 43.1375 65.8176C43.3866 65.9576 43.7195 66.1566 43.8774 66.26C44.0351 66.3635 44.2566 66.4126 44.3694 66.3694C44.4823 66.326 44.5745 66.3416 44.5745 66.4039C44.5745 66.5619 45.5155 66.8809 47.137 67.2726C47.2745 67.3059 47.9776 67.3638 48.6995 67.4013C49.7928 67.458 50.1895 67.424 51.0745 67.1974C52.3506 66.8706 53.912 66.274 56.012 65.3108C56.4245 65.1215 57.3808 64.7151 58.137 64.4078C59.5945 63.8154 63.4224 62.1926 64.262 61.8114C64.7088 61.6084 65.7078 61.2135 67.8245 60.403C68.2026 60.2583 68.5401 60.1329 68.5745 60.1244C68.6089 60.1159 68.8058 60.0379 69.012 59.951C69.2183 59.8641 69.7808 59.6625 70.262 59.5029C70.7433 59.3433 71.4464 59.0914 71.8245 58.9431C72.2026 58.7949 72.6526 58.6289 72.8245 58.5742C72.9964 58.5196 74.0786 58.1019 75.2295 57.6461C76.3804 57.1903 77.4591 56.8174 77.6268 56.8174C77.7943 56.8174 78.3995 56.6441 78.9718 56.4325C79.5439 56.2209 80.8748 55.7455 81.9293 55.3763C82.9836 55.0069 83.9118 54.6521 83.9918 54.5876C84.0716 54.5232 84.5308 54.3151 85.012 54.1251C85.4933 53.9351 85.9058 53.7319 85.9286 53.6735C85.9516 53.6151 86.0519 53.5674 86.1515 53.5674C86.3424 53.5674 88.526 52.5127 88.7924 52.292C88.8779 52.2211 89.277 52.0075 89.6795 51.8171C90.0819 51.6269 90.6911 51.2744 91.0333 51.0339C91.3754 50.7934 91.8199 50.5079 92.0211 50.3993C92.2224 50.2906 92.6114 50.0029 92.8856 49.7596C93.1599 49.5164 93.424 49.3174 93.4725 49.3174C93.521 49.3174 93.8796 49.0221 94.2694 48.6611C94.6591 48.3003 95.0505 47.963 95.139 47.9117C95.3255 47.8039 95.8814 46.8932 96.284 46.0362C96.4374 45.7097 96.6865 44.866 96.8376 44.1612C97.0955 42.9581 97.1071 42.6852 97.0275 39.6924C96.9199 35.6442 96.7675 33.4619 96.517 32.382C96.2315 31.1509 95.2479 29.0195 94.497 28.0049C93.2343 26.2986 91.1093 24.3854 89.262 23.2915C88.5711 22.8822 80.734 18.9165 64.4495 10.7356C57.3859 7.18711 52.851 4.96523 50.9779 4.13523C50.3091 3.83898 48.7901 3.14086 47.6023 2.58386C45.0189 1.37248 42.7729 0.539482 41.3245 0.255232C39.92 -0.020268 37.33 -0.0833932 35.6995 0.118232ZM77.6958 46.4104C76.0264 46.8235 69.7869 48.8788 68.4069 49.47C67.9366 49.6715 67.5289 49.8134 67.5009 49.7854C67.4473 49.7318 67.5845 49.6601 68.6995 49.1596C69.4113 48.8403 75.72 46.7616 77.262 46.3386C77.7433 46.2066 78.1916 46.1306 78.2583 46.1699C78.325 46.2091 78.0719 46.3172 77.6958 46.4104ZM77.9495 47.0641C77.9495 47.1311 77.7668 47.2789 77.5433 47.3925C77.0091 47.6642 76.9894 47.6875 77.1901 47.8115C77.3191 47.8914 77.2684 47.965 76.9826 48.1128C76.5173 48.3534 75.9495 49.0096 75.9495 49.3069C75.9495 49.4281 75.8089 49.5914 75.637 49.6696C75.2065 49.8657 75.2273 50.1189 75.6649 50.009C75.9858 49.9285 75.9939 49.9367 75.8066 50.1517C75.6974 50.2772 75.5714 50.5345 75.5264 50.7236C75.4316 51.1228 75.1995 51.1865 75.1995 50.8135C75.1995 50.5166 74.9174 50.3741 74.6058 50.5135C74.4113 50.6005 74.417 50.6166 74.6565 50.659C74.8161 50.6872 74.9573 50.8311 75.0026 51.012C75.0448 51.18 75.1519 51.3174 75.2405 51.3174C75.3291 51.3174 75.5001 51.3894 75.6205 51.4774C75.8013 51.6095 75.8161 51.6981 75.706 51.9879C75.591 52.2904 75.6114 52.3708 75.8549 52.5754C76.0311 52.7234 76.0891 52.8484 76.0095 52.9086C75.9393 52.9615 75.809 53.1736 75.7198 53.3799C75.4669 53.9648 74.9323 54.6924 74.7554 54.6924C74.6674 54.6924 74.5759 54.7506 74.5521 54.8219C74.4959 54.9906 73.6085 55.3049 73.1683 55.3119C72.6551 55.3201 72.1139 54.7124 72.4495 54.5049C72.5183 54.4624 72.5745 54.3715 72.5745 54.303C72.5745 54.2345 72.3918 54.3678 72.1683 54.5991C71.5501 55.2394 71.2013 55.4539 71.6371 54.9258C71.8434 54.676 72.2184 54.3385 72.4706 54.1758C72.8589 53.9253 72.9535 53.7715 73.0875 53.1728L73.2459 52.4656L73.6798 52.536C73.9184 52.5748 74.2173 52.7101 74.344 52.8369C74.4708 52.9636 74.7169 53.0674 74.8909 53.0674C75.065 53.0674 75.2398 53.1518 75.2793 53.2549C75.3773 53.5101 75.6028 53.4935 75.5524 53.2347C75.5301 53.1205 75.287 52.9014 75.012 52.7477C74.737 52.594 74.4925 52.3715 74.4688 52.253C74.4424 52.1217 74.479 52.0709 74.5625 52.1225C74.6379 52.169 74.6995 52.1475 74.6995 52.0748C74.6995 51.8836 74.5053 51.9121 74.3245 52.1299C74.1181 52.3785 73.915 52.3664 73.3665 52.0724C72.8885 51.8161 72.6995 51.8345 72.6995 52.1373C72.6995 52.2364 72.642 52.3174 72.5716 52.3174C72.5013 52.3174 72.5323 52.4524 72.6404 52.6174C72.7764 52.825 72.793 52.932 72.6941 52.965C72.6158 52.9911 72.5426 53.1745 72.5318 53.3723C72.517 53.6404 72.3315 53.891 71.8039 54.3556C71.4008 54.7106 71.0006 55.2 70.8749 55.492C70.6413 56.0339 70.1103 56.6924 69.9068 56.6924C69.8403 56.6924 69.8879 56.5795 70.0128 56.4416C70.1375 56.3036 70.2035 56.1547 70.1594 56.1105C70.0359 55.987 69.1744 56.6435 68.8245 57.1279C68.6526 57.3659 68.4751 57.562 68.43 57.5639C68.2529 57.5714 68.4835 57.1056 68.8893 56.6361C69.124 56.3645 69.299 56.1252 69.2781 56.1042C69.2113 56.0375 68.4815 56.4407 68.3224 56.6325C68.1031 56.8966 67.9616 56.8608 68.04 56.5608C68.0769 56.4196 68.3349 56.1243 68.6133 55.9045C69.3315 55.3374 69.9739 54.675 69.8884 54.5896C69.8484 54.5496 69.6798 54.6549 69.5135 54.8234C68.942 55.403 68.4863 55.6924 68.1453 55.6924C67.7795 55.6924 67.9476 55.483 68.4451 55.3187C68.9895 55.1391 69.3733 54.7864 69.5083 54.3418C69.5564 54.1833 69.8185 53.8921 70.0909 53.6949C70.5351 53.3731 70.5629 53.3228 70.3615 53.2056C70.163 53.0901 70.174 53.0745 70.4566 53.0711C70.6925 53.0684 70.883 52.9163 71.1824 52.4914C71.4058 52.1745 71.701 51.8859 71.8385 51.8499C71.9766 51.8138 72.061 51.7126 72.027 51.6237C71.993 51.5354 72.0461 51.432 72.1449 51.3941C72.3604 51.3115 72.3851 51.0674 72.1781 51.0674C72.0976 51.0674 71.9231 51.1656 71.7905 51.2856C71.5949 51.4626 71.5546 51.4685 71.5768 51.3169C71.6456 50.8462 71.5825 50.7913 71.0433 50.8521C70.7511 50.885 70.3846 50.9538 70.2289 51.0048C69.9998 51.0799 69.9606 51.0589 70.0235 50.895C70.1141 50.6587 70.0288 50.6411 69.6848 50.8252C69.5481 50.8984 69.3483 50.9406 69.2406 50.919C68.812 50.8332 70.1333 50.1189 71.137 49.8938C72.7959 49.5215 72.6995 49.522 72.6995 49.8866C72.6995 50.1283 72.7551 50.1999 72.9183 50.168C73.0386 50.1445 73.137 50.0138 73.137 49.8775C73.137 49.7414 73.1801 49.5635 73.2328 49.4823C73.2855 49.4011 73.2714 49.2994 73.2015 49.2561C72.9739 49.1155 73.0679 48.9234 73.3245 49.0049C73.5323 49.0708 73.5745 49.0274 73.5745 48.748C73.5745 48.465 73.6039 48.4361 73.7599 48.5656C73.9139 48.6935 73.9675 48.6614 74.0759 48.3761C74.2723 47.8599 74.3639 48.0943 74.1913 48.6709C74.0164 49.2544 74.0965 49.5674 74.4206 49.5674C74.7829 49.5674 74.9578 49.3271 74.7905 49.0594C74.6708 48.8676 74.7336 48.7568 75.2056 48.3278C75.7859 47.8005 76.8955 47.1937 77.2855 47.1905C77.4101 47.1894 77.5964 47.134 77.6995 47.0674C77.9348 46.9154 77.9495 46.9151 77.9495 47.0641ZM73.3974 49.8978C73.286 50.188 73.3501 50.196 73.6276 49.9262C73.8266 49.7329 73.8344 49.6924 73.6723 49.6924C73.5645 49.6924 73.4408 49.7848 73.3974 49.8978ZM68.1333 50.3552C68.1359 50.5431 68.2089 50.624 68.3644 50.6111C68.5095 50.5991 68.568 50.6541 68.526 50.7634C68.49 50.8574 68.5144 50.9677 68.5804 51.0085C68.6464 51.0494 68.6658 51.2206 68.6235 51.3891C68.5813 51.5576 68.5389 51.9219 68.5293 52.1985C68.5191 52.4939 68.4346 52.7505 68.3245 52.8201C68.1646 52.921 68.1693 52.9389 68.3558 52.9405C68.6276 52.9429 68.6281 52.9944 68.3599 53.4037C68.1879 53.6662 68.1816 53.7181 68.3286 53.665C68.4295 53.6285 68.4939 53.5213 68.4719 53.4268C68.4404 53.2923 68.465 53.2876 68.5853 53.4059C68.7054 53.5238 68.706 53.5965 68.5881 53.7385C68.4976 53.8475 68.4849 53.9495 68.5561 53.9935C68.6214 54.0339 68.6693 54.2601 68.6626 54.4965C68.65 54.9404 68.3881 55.1363 68.0701 54.9396C67.8426 54.7991 68.0224 54.4424 68.3206 54.4424C68.4603 54.4424 68.5745 54.3824 68.5745 54.309C68.5745 54.2356 68.4758 54.2069 68.355 54.2452C68.134 54.3154 68.1014 54.1515 68.0259 52.594C68.0183 52.4369 67.9279 52.2562 67.8251 52.1927C67.6643 52.0934 67.6713 52.0531 67.8755 51.9037C68.0061 51.8082 68.0728 51.6656 68.0238 51.5864C67.9676 51.4955 68.0298 51.4424 68.1921 51.4424C68.3336 51.4424 68.4495 51.3824 68.4495 51.309C68.4495 51.2297 68.3415 51.2099 68.1839 51.2599C68.0054 51.3165 67.9463 51.2989 68.0036 51.206C68.0505 51.13 67.9914 50.9027 67.8721 50.7009C67.6908 50.3937 67.6823 50.3013 67.8203 50.135C68.0161 49.899 68.1281 49.9777 68.1333 50.3552ZM73.1293 50.4808C73.0814 50.6051 72.9698 50.6789 72.8813 50.645C72.6658 50.5622 72.5231 50.9584 72.7236 51.0823C72.8149 51.1388 72.9878 51.0909 73.1341 50.9686C73.2733 50.8525 73.4063 50.7471 73.4298 50.7344C73.4533 50.7216 73.4148 50.6085 73.3444 50.483C73.2211 50.2635 73.213 50.2634 73.1293 50.4808ZM73.6995 50.8799C73.4871 51.1358 73.8075 51.1386 74.1444 50.8839C74.3823 50.7039 74.3818 50.7002 74.121 50.6964C73.9748 50.6941 73.7851 50.7768 73.6995 50.8799ZM74.1319 51.5758C74.0865 51.649 74.0795 51.739 74.1161 51.7757C74.2058 51.8652 74.4495 51.7075 74.4495 51.56C74.4495 51.4002 74.2338 51.4109 74.1319 51.5758ZM71.9471 53.5078C71.815 53.6669 71.8228 53.6853 71.9944 53.6194C72.1071 53.576 72.1995 53.4904 72.1995 53.429C72.1995 53.2683 72.1271 53.2909 71.9471 53.5078ZM73.9495 53.7929C73.9495 53.853 74.0938 53.968 74.27 54.0482C74.453 54.1316 74.5573 54.1405 74.513 54.069C74.3996 53.8855 73.9495 53.665 73.9495 53.7929ZM71.2031 54.0625C71.102 54.1265 71.0611 54.2206 71.1124 54.2719C71.1635 54.3231 71.3005 54.2699 71.4168 54.1536C71.6426 53.9278 71.5075 53.87 71.2031 54.0625ZM73.5745 54.4424C73.5745 54.5111 73.6261 54.5674 73.6893 54.5674C73.7524 54.5674 73.9071 54.6001 74.033 54.6401C74.2425 54.7066 74.2414 54.696 74.0194 54.5151C73.7415 54.2886 73.5745 54.2614 73.5745 54.4424ZM78.1995 54.4881C78.1995 54.5701 76.3143 55.2239 76.2534 55.163C76.2209 55.1305 76.5751 54.9594 77.0406 54.7828C77.8468 54.4771 78.1995 54.3874 78.1995 54.4881ZM75.8245 55.3799C75.6526 55.4781 75.4276 55.558 75.3245 55.5573C75.2214 55.5566 75.3058 55.4789 75.512 55.3844C76.0086 55.157 76.2198 55.154 75.8245 55.3799ZM74.8245 55.7431C74.8245 55.8189 73.665 56.1996 73.608 56.1425C73.581 56.1155 73.8015 56.0076 74.098 55.9027C74.6823 55.6961 74.8245 55.6649 74.8245 55.7431ZM73.387 56.3174C73.3445 56.3861 73.2535 56.4424 73.1848 56.4424C73.116 56.4424 73.0945 56.3861 73.137 56.3174C73.1795 56.2486 73.2705 56.1924 73.3393 56.1924C73.408 56.1924 73.4295 56.2486 73.387 56.3174ZM71.4495 57.0713C70.7276 57.3406 69.9683 57.5888 69.762 57.6226C69.4746 57.6698 69.5039 57.643 69.887 57.5084C70.162 57.4116 70.8089 57.166 71.3245 56.9625C71.8401 56.7589 72.3745 56.5899 72.512 56.5869C72.6495 56.5839 72.1714 56.8019 71.4495 57.0713ZM69.3245 57.7475C69.3245 57.7779 69.2683 57.8374 69.1995 57.8799C69.1308 57.9224 69.0745 57.8975 69.0745 57.8248C69.0745 57.752 69.1308 57.6924 69.1995 57.6924C69.2683 57.6924 69.3245 57.7171 69.3245 57.7475ZM68.6995 58.0674C68.5964 58.134 68.4276 58.1885 68.3245 58.1885C68.1579 58.1885 68.1579 58.1751 68.3245 58.0674C68.4276 58.0008 68.5964 57.9463 68.6995 57.9463C68.8661 57.9463 68.8661 57.9596 68.6995 58.0674Z" fill="black"/>
</svg>
