<svg width="50" height="95" viewBox="0 0 50 95" fill="none" xmlns="http://www.w3.org/2000/svg">
<path fill-rule="evenodd" clip-rule="evenodd" d="M23.7467 0.0395118C23.7117 0.0749118 23.2658 0.163812 22.7557 0.237112C20.6823 0.535112 19.46 1.37181 18.8999 2.87671C18.6085 3.65941 18.5427 4.99461 18.7391 6.14201C19.0167 7.76541 19.3074 10.7296 20.1017 20.042C20.3732 23.2252 20.4531 27.8509 20.3011 31.592C20.0331 38.1892 19.5444 45.0139 19.0086 49.642C18.8355 51.1381 18.6917 53.0054 18.6506 54.292C18.6127 55.4745 18.5459 56.532 18.502 56.642C18.458 56.752 18.4193 56.79 18.4158 56.7265C18.4024 56.4802 16.8331 56.8401 15.5357 57.387C13.6863 58.1667 12.0225 59.4756 11.0549 60.9122C10.7227 61.4055 10.3567 62.3689 10.4461 62.5148C10.4851 62.5786 10.466 62.5941 10.3994 62.5525C10.3193 62.5025 10.3045 62.5781 10.3487 62.812C10.384 62.9993 10.3734 63.1067 10.3242 63.0604C10.2393 62.9807 9.97622 64.042 9.98167 64.442C9.98316 64.552 9.9453 64.732 9.89744 64.842C9.84967 64.952 9.76583 65.222 9.71113 65.442C9.10722 67.8737 8.96383 68.4635 8.94549 68.592C8.9337 68.6745 8.87741 68.8574 8.82043 68.9985C8.76335 69.1396 8.68437 69.5158 8.64493 69.8345C8.60548 70.1532 8.46595 70.7123 8.33484 71.077C8.06252 71.8347 7.81249 72.857 7.7564 73.442C7.73529 73.662 7.69694 73.977 7.67108 74.142C7.64521 74.307 7.59081 74.7104 7.55028 75.0384C7.49438 75.4904 7.45643 75.5872 7.3933 75.4384C7.33424 75.299 7.31947 75.3571 7.34237 75.6387C7.38349 76.1427 7.00206 77.4031 6.65581 77.9072C6.51053 78.1189 6.3603 78.292 6.32214 78.292C6.20293 78.292 5.42758 79.0778 5.42758 79.1987C5.42758 79.2661 5.35731 79.2862 5.25712 79.2474C5.16348 79.2111 5.11442 79.2093 5.14812 79.2434C5.22006 79.3159 4.57443 79.992 4.43331 79.992C4.38059 79.992 4.33749 80.0429 4.33749 80.1051C4.33749 80.1672 4.1814 80.4373 3.99064 80.7053C3.79987 80.9732 3.64379 81.24 3.64379 81.2981C3.64379 81.3563 3.59216 81.3716 3.52904 81.3323C3.45104 81.2836 3.43162 81.3273 3.46829 81.4689C3.50773 81.621 3.48414 81.6623 3.38078 81.6223C3.30299 81.5921 3.25225 81.6069 3.26811 81.6552C3.28396 81.7034 3.17684 81.9902 3.03007 82.2925C2.65914 83.0562 2.48176 83.4917 2.39901 83.842C2.36006 84.007 2.29704 84.187 2.25908 84.242C2.22103 84.297 2.02392 84.863 1.82106 85.4998C1.52793 86.4195 1.36233 86.768 1.01529 87.1949C0.775073 87.4904 0.59719 87.751 0.619983 87.774C0.642776 87.797 0.596199 87.8816 0.516524 87.962C0.436848 88.0424 0.402956 88.1607 0.441208 88.2251C0.479362 88.2894 0.434172 88.2794 0.340722 88.2029C0.192172 88.0812 0.178596 88.0844 0.233199 88.2279C0.267884 88.3191 0.246974 88.392 0.185929 88.392C0.125578 88.392 0.0726589 88.3132 0.0683977 88.217C0.0633436 88.1031 0.0424338 88.0877 0.00864105 88.1728C-0.0890706 88.4192 0.660019 89.385 1.33895 89.8881C5.93903 93.2967 17.9798 95.3728 28.9197 94.6438C35.3646 94.2143 40.1548 93.2737 44.3225 91.6193C46.3279 90.8233 48.2457 89.6546 48.9727 88.7856C49.3147 88.3768 49.7226 87.5295 49.7239 87.2249C49.7283 86.2206 48.2379 82.2569 47.9284 82.4499C47.8808 82.4796 47.842 82.4535 47.842 82.392C47.842 82.3305 47.8056 82.3029 47.761 82.3307C47.7165 82.3584 47.5974 82.2373 47.4962 82.0616C47.395 81.8858 47.1861 81.5855 47.032 81.3942C46.8779 81.2029 46.7519 80.9892 46.7519 80.9192C46.7519 80.8492 46.7103 80.792 46.6594 80.792C46.6086 80.792 46.5421 80.7132 46.5115 80.617C46.4809 80.5208 46.2122 80.176 45.9143 79.8508C45.6164 79.5257 45.3954 79.2225 45.4233 79.177C45.4511 79.1315 45.3969 79.1241 45.3029 79.1605C45.1718 79.2112 45.1468 79.1876 45.1955 79.0594C45.2395 78.9437 45.2065 78.8903 45.0889 78.8865C44.9951 78.8834 44.8071 78.7389 44.6708 78.5652C44.5345 78.3916 44.4867 78.2892 44.5644 78.3376C44.6422 78.386 44.4736 78.1441 44.1898 77.8C43.9061 77.4559 43.5405 76.9078 43.3775 76.5819C42.8088 75.4451 40.9266 69.2405 39.7652 64.6737C38.9593 61.505 38.6141 60.7752 37.2899 59.442C35.7947 57.9366 34.0102 57.0688 31.5355 56.6439C30.993 56.5508 30.5353 56.4608 30.5184 56.4439C30.5015 56.427 30.4472 55.2047 30.398 53.7276C30.314 51.2167 30.1995 49.9744 29.8596 47.892C29.0271 42.7925 28.4928 29.8177 28.8068 22.3265C29.1262 14.7052 29.4474 10.4126 30.0163 6.16171C30.2124 4.69571 30.2265 4.38031 30.1267 3.68921C29.9789 2.66551 29.6292 1.93321 29.0088 1.34751C28.4055 0.778112 27.6876 0.444212 26.6064 0.230112C25.7382 0.0582118 23.8528 -0.0673882 23.7467 0.0395118ZM22.2124 63.5243C22.2666 63.7334 22.1281 63.992 21.9622 63.992C21.9128 63.992 21.5391 64.1516 21.1318 64.3466L20.3912 64.7012L19.9332 64.4968C19.5312 64.3173 19.4913 64.2727 19.6073 64.1316C19.7357 63.9755 20.5843 63.5509 21.0852 63.392C21.2215 63.3488 21.5188 63.3143 21.7458 63.3153C22.0794 63.3167 22.169 63.3568 22.2124 63.5243ZM27.5322 63.6372C28.4383 63.9465 28.5423 64.045 28.2326 64.3004C27.825 64.6364 27.594 64.6319 26.8679 64.2737C25.9942 63.843 25.9509 63.5247 26.7491 63.402C26.7848 63.3965 27.1372 63.5023 27.5322 63.6372Z" fill="black"/>
</svg>
