<svg width="120" height="88" viewBox="0 0 120 88" fill="none" xmlns="http://www.w3.org/2000/svg">
<path fill-rule="evenodd" clip-rule="evenodd" d="M86.8811 0.242809C86.1936 0.343809 83.9436 0.675809 81.8811 0.981309C74.9701 2.00331 68.0496 5.12331 65.6881 8.28081C64.3076 10.1268 64.0921 13.3988 65.1561 16.3578C66.0206 18.7623 66.0206 19.0693 65.1446 24.6548C63.1106 37.6308 65.1831 48.5083 71.5706 58.3833C72.9381 60.4968 74.8531 64.6963 76.4231 69.0243C80.6046 80.5523 82.7461 84.0193 86.9946 86.1363C91.7291 88.4953 96.5556 87.5748 100.604 83.5398C103.152 81.0003 104.385 78.7688 107.392 71.2508C108.805 67.7188 111.167 62.5438 112.641 59.7508C118.819 48.0488 120.433 37.4573 118.294 22.6623C117.791 19.1878 117.826 18.3103 118.547 16.1938C119.988 11.9653 119.485 9.60881 116.551 6.82831C114.761 5.13181 109.541 2.68431 105.631 1.70781C99.9066 0.277809 91.2506 -0.398191 86.8811 0.242809ZM16.2916 9.13681C7.94213 10.6188 2.07363 13.6683 0.52263 17.3318C-0.19087 19.0163 -0.183869 19.4618 0.605631 22.5583C1.36063 25.5213 1.38913 26.3943 0.83513 29.5583C-0.10437 34.9253 0.0311302 44.9698 1.09663 48.9223C2.35563 53.5918 4.17363 57.6993 6.62963 61.4233C7.87713 63.3148 9.65613 67.1808 10.8856 70.6733C13.5926 78.3593 15.4266 81.9688 17.8631 84.4053C20.9126 87.4548 25.7376 88.3153 29.2761 86.4403C33.4666 84.2198 35.1386 81.9118 38.5776 73.6028C40.0411 70.0663 42.3786 64.9233 43.7721 62.1733C45.1651 59.4233 46.6406 56.1528 47.0506 54.9058C49.4931 47.4768 50.1101 39.2093 48.9026 30.0858C48.3436 25.8663 48.3416 24.7263 48.8881 23.4058C49.9991 20.7238 49.7296 17.7248 48.1971 15.7153C46.5351 13.5363 40.8306 10.6868 36.0386 9.64131C31.1246 8.56931 20.9531 8.30931 16.2916 9.13681ZM96.2561 70.2383C97.0526 70.4518 97.3811 70.9148 97.3811 71.8248C97.3811 73.0378 95.5581 80.1938 95.0211 81.0893C94.6146 81.7663 91.8786 78.8518 90.6411 76.4233C90.0101 75.1858 89.2646 73.3398 88.9841 72.3208L88.4741 70.4688L91.5526 70.2923C93.2456 70.1953 94.7436 70.0758 94.8811 70.0263C95.0186 69.9773 95.6371 70.0728 96.2561 70.2383ZM29.6881 72.6413C29.9941 73.4393 28.5876 80.2803 27.8826 81.4208C26.9026 83.0068 23.3056 77.8698 22.1961 73.2983L21.8621 71.9233H25.6371C28.4571 71.9233 29.4821 72.1048 29.6881 72.6413Z" fill="black"/>
</svg>
