<svg width="94" height="68" viewBox="0 0 94 68" fill="none" xmlns="http://www.w3.org/2000/svg">
<path fill-rule="evenodd" clip-rule="evenodd" d="M60.6127 0.197572C60.571 0.306286 60.6366 0.633572 60.7583 0.924857C60.9022 1.26914 60.935 1.53771 60.8522 1.69243C60.7713 1.84343 60.7973 2.13886 60.9233 2.50086C61.0325 2.81471 61.1229 3.11514 61.124 3.16843C61.1252 3.22186 60.7566 3.34143 60.3047 3.43443C58.9949 3.70386 58.9882 3.71129 59.1897 4.67457C59.4879 6.09943 59.49 6.10114 60.8199 5.94357C62.1765 5.78286 62.1506 5.76857 63.135 7.22743C63.8877 8.34286 64.5506 8.93729 65.6675 9.49829C67.5086 10.423 69.1052 10.3069 71.62 9.06529C72.4885 8.63657 73.297 8.28572 73.4167 8.28572C73.5363 8.28572 74.28 8.56986 75.0693 8.91729C77.1937 9.85229 77.9683 10.0441 79.3275 9.97243C80.5535 9.90786 81.6589 9.50143 82.436 8.82958C82.8257 8.49272 83.918 6.73143 84.26 5.88857L84.45 5.42014L85.481 5.51357C86.4587 5.60215 86.5163 5.59086 86.5937 5.29514C86.6386 5.12357 86.6383 4.62614 86.5933 4.18957C86.5176 3.45643 86.4753 3.38086 86.0376 3.198C85.4093 2.93543 85.1255 2.94829 84.8965 3.25C84.735 3.46286 84.7295 3.42572 84.8587 3C85.155 2.02557 85.1472 1.94 84.7359 1.64543L84.3405 1.36243L84.6476 1.75372C84.9366 2.122 84.9429 2.18414 84.7547 2.80943C84.52 3.58943 84.5065 3.761 84.6883 3.64857C84.7617 3.60329 84.6986 4.00129 84.548 4.533C84.2407 5.61786 83.1839 7.85715 82.979 7.85715C82.9059 7.85715 83.0773 7.43614 83.36 6.92172C83.6429 6.40714 83.8455 5.95729 83.8102 5.92215C83.7749 5.88686 83.5956 6.17914 83.4117 6.57172C83.2279 6.96443 82.9656 7.38672 82.829 7.51029C82.6032 7.71472 82.5409 7.71443 82.1392 7.50672C81.6339 7.24543 81.6192 7.17872 81.9119 6.478C82.2156 5.75114 82.184 4.73943 81.8399 4.17514C81.4716 3.571 81.4767 3.19657 81.8549 3.09772C82.0219 3.054 82.1127 2.951 82.0599 2.86543C82.0075 2.78072 82.1632 2.54443 82.4057 2.34029C82.6485 2.13614 82.9177 1.83143 83.0045 1.66314C83.1235 1.432 83.044 1.46686 82.6797 1.80543C81.6443 2.76814 80.4975 3.00372 78.5547 2.653C77.0017 2.37272 75.7562 2.37072 74.9656 2.64729C74.1912 2.91829 72.984 3.72257 72.9836 3.968C72.9833 4.15729 72.7565 4.05657 71.7556 3.42257C71.2535 3.10443 69.9833 2.68986 69.9833 2.84414C69.9833 2.90014 70.297 3.02643 70.6803 3.12457C71.0637 3.22286 71.7205 3.52429 72.1397 3.79443C73.0035 4.351 73.0643 4.36729 73.1769 4.07386C73.2242 3.95072 73.3525 3.89814 73.4832 3.94829C73.607 3.99586 73.8183 3.944 73.9529 3.83314C74.4075 3.45872 75.2247 3.15572 75.375 3.306C75.4529 3.38386 75.734 3.48143 75.9999 3.52286C76.2657 3.56429 76.5073 3.62172 76.5367 3.65029C76.5662 3.67886 76.2369 3.85843 75.805 4.04943C74.7997 4.494 74.6922 4.67286 75.178 5.09086C75.389 5.27229 75.5555 5.47072 75.5479 5.53172C75.5217 5.74586 75.0867 6.13529 74.9607 6.05743C74.8906 6.01414 74.851 6.061 74.8726 6.16143C74.8942 6.262 74.8207 6.34715 74.7095 6.35072C74.3826 6.36115 74.3695 6.68157 74.6889 6.85243C74.8509 6.93914 74.9833 7.10429 74.9833 7.21929C74.9833 7.49043 74.2186 7.50057 73.9512 7.23315C73.8436 7.12557 73.6102 6.99157 73.4323 6.935C73.2075 6.86372 73.1207 6.73829 73.1479 6.52329C73.2216 5.937 72.8166 4.85957 72.4149 4.57357C71.6226 4.00943 70.5455 3.71986 69.2995 3.736C68.078 3.75186 67.731 3.65257 68.163 3.41072C68.2999 3.33414 68.4119 3.17543 68.4119 3.058C68.4119 2.94072 68.4923 2.855 68.5905 2.86786C69.09 2.93271 69.8472 2.84072 69.775 2.72386C69.6597 2.53743 68.9579 2.56186 67.6462 2.79786C67.0285 2.909 66.1606 2.99957 65.7176 2.99914C64.2863 2.99786 63.9113 2.80943 62.4207 1.34286C61.0676 0.0115716 60.7592 -0.183857 60.6127 0.197572ZM83.8296 0.392857L83.4833 0.785715L83.8656 0.449285C84.2763 0.0879995 84.502 0.134714 84.6986 0.621714C84.8032 0.881 84.8237 0.888143 84.8315 0.668429C84.8409 0.397857 84.5269 0 84.3042 0C84.2336 0 84.0202 0.176714 83.8296 0.392857ZM83.2096 1.09157C83.1343 1.28771 83.1553 1.29657 83.3372 1.14557C83.585 0.939857 83.6109 0.857143 83.4272 0.857143C83.357 0.857143 83.2592 0.962714 83.2096 1.09157ZM51.2072 2.681C51.1626 2.72543 51.1262 2.871 51.1262 3.00443C51.1262 3.39829 50.1626 3.44643 44.6976 3.326C36.8747 3.15372 25.2755 3.22229 21.4119 3.46372C17.9163 3.68229 10.349 3.79086 9.92618 3.62857C9.74232 3.558 9.70489 3.43486 9.77303 3.12472C9.85561 2.74872 9.82932 2.714 9.45889 2.711C9.23661 2.70914 8.68961 2.88414 8.24318 3.1C7.30789 3.55214 7.23075 3.74529 7.25489 5.57143C7.27375 6.986 7.35103 7.04272 9.09032 6.915C10.2119 6.83272 10.4119 6.85043 10.4119 7.03186C10.4119 7.14958 10.164 7.78515 9.86118 8.44429C9.20132 9.88015 8.88932 10.8247 8.7576 11.7857C8.70375 12.1786 8.51375 12.7909 8.33546 13.1464C8.15703 13.502 7.86818 14.2734 7.69346 14.8607C7.51889 15.448 7.26346 16.025 7.12603 16.1429C6.98861 16.2607 6.82803 16.55 6.76932 16.7857C6.71046 17.0214 6.63403 17.1376 6.59932 17.0437C6.41632 16.5486 5.69761 17.51 5.69761 18.25C5.69761 18.474 5.6256 18.7291 5.53775 18.817C5.41975 18.935 5.42861 19.1767 5.57103 19.7384C5.67732 20.1573 5.74632 20.6687 5.72418 20.8747C5.69232 21.1739 5.78832 21.311 6.19903 21.5533C6.83803 21.9304 6.81918 21.9317 6.98332 21.5C7.10389 21.183 7.36189 21.06 7.75346 21.1327C7.97761 21.1743 10.0255 20.8437 10.9119 20.6229C12.0196 20.3469 13.9749 19.6501 17.2812 18.3531C18.7415 17.7804 20.3906 17.1766 20.9457 17.0111C21.501 16.8459 22.8455 16.3573 23.9336 15.9256L25.9119 15.1407L26.8352 15.6061C27.7289 16.0566 27.8133 16.0711 29.478 16.0629C31.0052 16.0553 31.3027 16.0113 32.1373 15.67C33.285 15.2007 33.4745 15.196 34.1185 15.6199C34.3977 15.8036 35.2047 16.2919 35.9119 16.7049C36.619 17.1179 38.2905 18.2136 39.6262 19.1399C43.3922 21.7513 44.3007 22.1803 46.4089 22.343C47.4796 22.4257 47.5879 22.4129 47.3413 22.2326C47.0816 22.0427 47.0999 22.0286 47.6056 22.0286C47.9647 22.0286 48.3905 21.8784 48.8613 21.5857C49.5587 21.1522 49.8405 21.051 49.8405 21.2343C49.8405 21.2846 49.7345 21.4031 49.6049 21.4979C49.3992 21.6483 49.4259 21.6814 49.8167 21.7596C50.304 21.857 50.7239 21.553 51.1083 20.8243C51.3747 20.3194 51.2037 18.9347 50.8287 18.5597C50.678 18.409 50.5547 18.1864 50.5547 18.065C50.5547 17.7536 49.8722 17.1063 49.6735 17.2291C49.4687 17.3557 49.6096 14.8274 49.8709 13.6839C49.9759 13.2247 50.0457 11.7246 50.0492 9.85715C50.0526 7.98415 50.1105 6.74329 50.1976 6.67686C50.2762 6.617 50.8307 6.60857 51.4299 6.65814C52.8486 6.77529 53.45 6.58072 53.9355 5.84729C54.3392 5.23714 54.334 4.99443 53.891 3.76543C53.6519 3.10172 53.5643 3.00929 52.9835 2.808C52.355 2.59014 51.3685 2.51971 51.2072 2.681ZM51.7952 3.31257C51.7496 3.42643 51.7157 3.39257 51.7089 3.22614C51.7027 3.07557 51.7365 2.99129 51.7839 3.03871C51.8313 3.08614 51.8365 3.20943 51.7952 3.31257ZM84.2833 4.37143C84.2012 4.669 84.1596 4.93829 84.191 4.96972C84.2225 5.00114 84.3155 4.78329 84.3976 4.48572C84.4797 4.18814 84.5213 3.91886 84.4899 3.88743C84.4585 3.856 84.3655 4.07386 84.2833 4.37143ZM51.8405 4.85714C51.8405 4.93572 51.7723 5 51.6892 5C51.606 5 51.5776 4.93572 51.6262 4.85714C51.6747 4.77857 51.7427 4.71429 51.7775 4.71429C51.8122 4.71429 51.8405 4.77857 51.8405 4.85714ZM42.0547 5.28886C44.0783 5.29672 43.4882 5.56514 41.2106 5.67272C39.474 5.75472 39.4415 5.75072 39.2685 5.42757C39.0929 5.09943 39.0935 5.09914 39.8595 5.19114C40.2812 5.24186 41.269 5.28572 42.0547 5.28886ZM21.7585 5.92472C21.6177 6.13943 21.3315 6.31472 21.0285 6.37143C20.4575 6.47857 19.1696 6.35243 18.3589 6.10986C17.6047 5.88429 17.9835 5.76229 19.5509 5.72614C20.2166 5.71072 20.7899 5.66972 20.8247 5.63486C20.8596 5.6 21.136 5.57143 21.439 5.57143H21.9899L21.7585 5.92472ZM25.1669 5.765C25.3409 5.87157 25.6876 5.94943 25.9373 5.93815C26.187 5.92686 26.3635 5.96286 26.3293 6.018C26.2952 6.07329 26.348 6.15643 26.4467 6.203C26.5455 6.24943 26.4333 6.246 26.1976 6.19529C25.9619 6.14457 25.6083 6.11143 25.4119 6.12172C25.2155 6.132 24.8619 6.01286 24.6262 5.85686C24.2245 5.59115 24.218 5.57329 24.524 5.57243C24.7036 5.57186 24.9929 5.65857 25.1669 5.765ZM70.0566 5.79572C70.3517 5.919 70.7769 6.15572 71.0013 6.32157C71.3805 6.60186 71.393 6.64129 71.1795 6.87715C70.9377 7.14429 69.9226 7.52272 69.1976 7.61615C68.7012 7.68015 67.756 7.38286 67.3833 7.04557C67.2419 6.91757 67.1262 6.85986 67.1262 6.91743C67.1262 7.06014 66.4943 6.29029 66.2852 5.89286L66.1162 5.57143H67.818C69.0412 5.57143 69.6707 5.63457 70.0566 5.79572ZM75.0557 5.71272C75.0057 5.79357 75.063 5.81757 75.1902 5.76886C75.4376 5.67386 75.4829 5.57143 75.2775 5.57143C75.2035 5.57143 75.1037 5.635 75.0557 5.71272ZM79.905 5.89286C79.498 7.23515 77.3622 7.83486 75.7167 7.06886C75.034 6.75114 74.9715 6.68629 75.1453 6.47614C75.2526 6.34643 75.6619 6.09043 76.0547 5.90729C76.6697 5.62057 76.9937 5.574 78.3857 5.57286C79.9963 5.57143 80.0022 5.57272 79.905 5.89286ZM28.0232 6.18372C28.0647 6.29172 27.987 6.36729 27.8347 6.36729C27.6923 6.36729 27.6036 6.32229 27.6376 6.26729C27.6716 6.21229 27.6186 6.13472 27.5199 6.09486C27.4212 6.05515 27.4782 6.01743 27.6466 6.01129C27.815 6.00514 27.9845 6.08272 28.0232 6.18372ZM23.6976 6.33972C23.6976 6.36929 23.5852 6.48186 23.4476 6.58972C23.221 6.76729 23.216 6.76229 23.3936 6.53572C23.5803 6.29772 23.6976 6.22215 23.6976 6.33972ZM34.6976 7.08172C34.6976 7.37015 34.245 7.55557 33.8786 7.41715C33.4895 7.27029 33.5856 6.896 34.0312 6.82343C34.4529 6.75472 34.6976 6.84943 34.6976 7.08172ZM23.1439 7.181C23.0027 7.321 22.9865 7.30457 23.0639 7.101C23.1176 6.96015 23.1975 6.88086 23.2415 6.92486C23.2855 6.96872 23.2416 7.084 23.1439 7.181ZM38.5526 7.06615C38.549 7.30229 38.3115 7.61414 38.2375 7.47957C38.001 7.04914 38.0127 6.87715 38.2772 6.897C38.4299 6.90857 38.5537 6.98457 38.5526 7.06615ZM26.5597 7.494C26.4592 7.61514 26.2883 7.71429 26.1802 7.71429C25.8993 7.71429 25.9365 7.32629 26.2333 7.15886C26.5686 6.96972 26.7987 7.206 26.5597 7.494ZM47.7325 7.64286C47.8015 7.87857 47.8173 9.33972 47.7677 10.8897C47.6682 13.9993 47.7763 14.738 48.7015 17.2731C48.9867 18.0547 49.069 18.447 48.9617 18.5134C48.3717 18.878 46.4712 18.3416 44.3546 17.2131C43.561 16.7901 42.2047 16.127 41.3405 15.7394C40.4762 15.352 39.3512 14.8406 38.8405 14.603C38.3297 14.3654 37.2556 13.9699 36.4533 13.724C35.6512 13.4781 34.962 13.2241 34.9222 13.1594C34.8437 13.0326 36.7782 11.1101 37.8629 10.2371C38.2289 9.94258 38.6332 9.48029 38.7616 9.20986C38.8899 8.93943 39.1206 8.65086 39.2742 8.56857C39.9007 8.23343 46.0232 7.14772 47.0452 7.19072C47.5382 7.21143 47.6226 7.267 47.7325 7.64286ZM17.2945 8.07C21.6705 8.95 21.5029 8.89329 21.6236 9.53615C21.7023 9.95572 22.0262 10.3753 23.1645 11.532C23.9572 12.3376 24.5697 13.0327 24.5257 13.0767C24.4816 13.1207 23.8435 13.2179 23.1073 13.2926C20.6423 13.5429 19.7277 13.7057 18.3872 14.133C17.6543 14.3666 15.769 14.9111 14.1976 15.343C10.9113 16.2464 9.58332 16.6843 8.54103 17.2077C8.13403 17.4121 7.78503 17.5616 7.7656 17.5397C7.74618 17.5179 7.82232 17.0179 7.93489 16.4286C8.04746 15.8393 8.23103 14.8801 8.34289 14.2971C8.45475 13.7141 8.61132 13.172 8.69089 13.0924C8.78846 12.9949 8.79061 13.1043 8.69761 13.4287C8.62175 13.6933 8.57989 13.9299 8.60461 13.9547C8.62946 13.9794 8.84875 13.6944 9.09189 13.3213C9.33518 12.9481 10.057 11.9679 10.6959 11.1429C11.3349 10.3179 12.1129 9.18158 12.4247 8.61772C12.7366 8.05372 13.0702 7.56057 13.166 7.52172C13.5537 7.36472 14.2435 7.45629 17.2945 8.07ZM23.0357 8.35786C23.2162 8.476 23.6283 8.59043 23.9517 8.61215C24.275 8.63386 24.5859 8.69772 24.6425 8.75429C24.6989 8.81086 24.9236 8.85715 25.1416 8.85715C25.3596 8.85715 25.5837 8.93143 25.6397 9.02215C25.7076 9.13186 25.6785 9.14786 25.5526 9.07C25.4175 8.98658 25.3879 9.01729 25.4492 9.17686C25.4965 9.3 25.4972 9.43857 25.4509 9.48486C25.3405 9.59515 24.9675 9.284 25.05 9.15043C25.085 9.09386 25.0227 9.04757 24.9117 9.04757C24.8007 9.04757 24.68 9.12529 24.6436 9.22029C24.6072 9.31529 24.6772 9.385 24.7993 9.37515C24.9213 9.36529 25.0403 9.478 25.0637 9.62586C25.0949 9.82229 25.0639 9.852 24.9482 9.73629C24.8326 9.62072 24.737 9.62229 24.5929 9.74186C24.4402 9.86857 24.4056 9.85986 24.4396 9.70272C24.4666 9.57743 24.3877 9.516 24.2333 9.542C24.0077 9.57986 23.9136 9.42072 23.9699 9.09657C23.9812 9.03172 23.9235 9.02015 23.8416 9.07072C23.7599 9.12129 23.7309 9.23857 23.7773 9.33129C23.8237 9.42415 23.7702 9.38843 23.6583 9.25229C23.5466 9.116 23.403 9.05172 23.3393 9.10943C23.2756 9.167 23.2673 9.09272 23.321 8.94415C23.4036 8.71486 23.3855 8.70129 23.2009 8.85443C23.0207 9.004 22.9833 8.99372 22.9833 8.79472C22.9833 8.66272 22.9263 8.58972 22.8567 8.63286C22.787 8.67586 22.6966 8.58329 22.6557 8.427C22.5667 8.08615 22.6093 8.07843 23.0357 8.35786ZM32.1859 10.0451C32.513 10.2844 32.4322 10.7196 32.033 10.867C31.571 11.0376 31.203 10.7111 31.3222 10.2366C31.4273 9.81715 31.7702 9.74129 32.1859 10.0451ZM28.3167 10.7961C28.2046 11.0884 27.8565 11.0486 27.9136 10.75C27.9399 10.6124 27.9663 10.4439 27.9723 10.3754C27.9785 10.3069 28.0759 10.3276 28.1892 10.4216C28.3023 10.5154 28.3597 10.684 28.3167 10.7961ZM69.6976 12.2311C67.0695 12.5846 65.7307 13.109 64.7589 14.1659C64.1962 14.7777 64.0439 15.074 63.6965 16.2343C63.537 16.7666 63.5576 16.9454 63.901 18.02C64.4086 19.6076 65.0187 20.4276 66.0807 20.949C66.8662 21.3347 67.0142 21.3572 68.769 21.3559C70.438 21.3549 70.7492 21.313 71.8405 20.9427C74.124 20.168 75.799 20.2741 78.6976 21.3774C80.1096 21.9149 81.8176 21.9453 82.9066 21.4527C84.3407 20.804 84.6267 20.2644 85.083 17.3459C85.1683 16.8001 84.8185 15.5884 84.3397 14.7716C83.5423 13.411 81.4116 12.4164 78.7182 12.1476C76.6462 11.9409 71.5019 11.9884 69.6976 12.2311ZM33.8405 12.4743C33.8405 12.5829 33.0183 13.4286 32.9127 13.4286C32.8486 13.4286 32.9027 13.3109 33.0329 13.167C33.1632 13.0231 33.2213 12.8521 33.1622 12.787C33.103 12.7217 33.1279 12.7103 33.2172 12.7613C33.3065 12.8123 33.4589 12.7583 33.556 12.6413C33.7225 12.4409 33.8405 12.3716 33.8405 12.4743ZM32.6976 12.6254C32.6976 12.655 32.5852 12.7676 32.4476 12.8754C32.221 13.053 32.216 13.048 32.3936 12.8214C32.5803 12.5834 32.6976 12.5079 32.6976 12.6254ZM6.20132 17.6071C6.11989 17.9079 6.12903 17.9056 6.34346 17.5714C6.57103 17.2169 6.57218 17.2167 6.50261 17.5471C6.46418 17.7303 6.52389 18.1387 6.63546 18.4547C6.75746 18.8007 6.78989 19.1157 6.71689 19.2463C6.61832 19.4221 6.52446 19.3699 6.21803 18.968C5.80718 18.4294 5.76761 18.2103 5.97975 17.6521C6.15146 17.2006 6.32061 17.1661 6.20132 17.6071ZM10.4119 18.8377C10.4119 19.0263 9.24961 19.4286 8.70475 19.4286C8.01161 19.4286 8.28161 19.2506 9.38518 18.9803C9.91061 18.8514 10.3565 18.739 10.3762 18.7303C10.3959 18.7214 10.4119 18.7699 10.4119 18.8377ZM46.3005 19.951C47.4766 20.0603 47.4029 20.2747 46.1503 20.3883C45.3527 20.4607 45.247 20.4353 44.8125 20.0672L44.3405 19.6674L44.8287 19.7636C45.0973 19.8164 45.7596 19.9007 46.3005 19.951ZM50.3496 21.0539C50.3869 21.26 50.3519 21.4286 50.2719 21.4286C50.1917 21.4286 50.1262 21.225 50.1262 20.9762C50.1262 20.458 50.2492 20.5009 50.3496 21.0539ZM69.9833 23.577C69.4692 23.8539 68.9902 24 68.5976 24C68.2067 24 67.9547 24.0764 67.8749 24.2192C67.7702 24.4063 66.9393 24.4594 62.1892 24.5827C59.1295 24.662 56.369 24.7292 56.0547 24.7316C55.7405 24.7342 54.8083 24.5969 53.9833 24.4264C52.3215 24.0833 50.433 24.0853 49.8863 24.4307C49.4667 24.6959 49.269 25.1734 49.269 25.9219C49.269 26.4733 49.2365 26.5362 48.9847 26.4703C48.7805 26.4169 48.6665 26.4879 48.5797 26.7224C48.5005 26.9367 48.4235 26.9914 48.3556 26.8816C48.1859 26.6072 47.7192 26.6914 47.4923 27.0376C47.3757 27.2154 47.1959 27.6917 47.0923 28.096C46.9826 28.5247 46.7659 28.9432 46.5722 29.1C46.2492 29.3616 46.2463 29.3834 46.4689 29.9162C46.5947 30.2172 46.6976 30.6239 46.6976 30.8199C46.6976 31.138 46.7397 31.1653 47.0905 31.0744C48.2056 30.7857 48.8417 30.82 49.4159 31.2C49.7246 31.4043 50.1553 31.5663 50.3732 31.56C50.9746 31.5426 52.2022 31.0829 52.1627 30.8899C52.126 30.7102 52.1676 30.6982 53.8017 30.418C54.8792 30.2333 55.6555 30.3157 58.9127 30.9606C60.0227 31.1803 60.0766 31.1782 60.7369 30.886C61.1569 30.7003 61.512 30.4189 61.6646 30.1506C61.8006 29.9116 61.9512 29.7157 61.9992 29.7152C62.0473 29.7147 62.0005 30.2446 61.8953 30.8929C61.3347 34.3476 60.9886 37.1279 60.9129 38.7857C60.8106 41.0236 60.5895 42.4243 60.3222 42.5269C60.2143 42.5682 60.1262 42.6903 60.1262 42.7982C60.1262 42.906 59.8809 43.1193 59.5812 43.2723C59.2815 43.4252 58.8315 43.7416 58.5812 43.9753C58.1352 44.392 58.1263 44.4253 58.1306 45.6644C58.1392 48.054 59.0826 52.0116 60.1847 54.281L60.6379 55.2143L59.132 55.9644C57.2683 56.8927 56.8486 56.9566 51.8666 57.069C49.7989 57.1157 47.9135 57.1926 47.6769 57.2399C47.1295 57.3493 46.9475 57.8043 47.0729 58.75C47.1376 59.2369 47.2729 59.558 47.4946 59.7509C47.6743 59.907 47.8616 60.2734 47.9107 60.5652C48.0557 61.423 48.4667 61.9622 49.1266 62.1599C49.606 62.3036 50.0925 62.2917 51.812 62.0949C52.9669 61.9626 54.2199 61.855 54.5965 61.8557C55.5523 61.8577 57.2186 62.2206 58.9833 62.8112C60.3623 63.2727 60.656 63.3189 62.6262 63.3839C63.9366 63.427 65.0157 63.5357 65.4042 63.6636C65.7873 63.7897 66.2493 63.8373 66.5686 63.7835C66.9625 63.7169 67.2556 63.7745 67.7149 64.0089C68.0596 64.1847 68.7123 64.354 69.1935 64.3923C69.9396 64.4517 70.0912 64.4206 70.3269 64.159C70.6233 63.8302 71.3552 63.7783 72.7959 63.9837C73.2946 64.0549 73.5282 64.0397 73.5102 63.9376C73.4953 63.854 73.5959 63.7947 73.7333 63.8056C73.9415 63.8222 73.9835 63.7024 73.9842 63.0913C73.985 62.2583 74.2215 61.2732 74.4635 61.0937C74.5552 61.0257 74.5013 61.0216 74.3405 61.084C73.9725 61.227 72.2466 61.2332 71.3912 61.0946C70.8772 61.0113 70.709 60.9164 70.6457 60.6746C70.6009 60.5027 70.6263 60.2999 70.7025 60.2237C70.7785 60.1477 71.6375 60.0823 72.6113 60.0785C74.1273 60.0725 74.4239 60.0335 74.6739 59.8072C74.91 59.5936 75.2229 59.5387 76.3067 59.5215C77.2453 59.5065 77.6479 59.4483 77.6487 59.3277C77.6495 59.233 77.6009 59.1859 77.5407 59.2229C77.4807 59.26 77.3903 59.2235 77.3397 59.1417C77.2892 59.0599 77.3007 59.0022 77.3656 59.0134C77.914 59.1087 77.9435 59.0312 77.8825 57.655C77.8289 56.4487 77.8495 56.3029 78.0816 56.2396C78.224 56.2007 78.0512 56.2033 77.6976 56.245C77.344 56.2869 76.8619 56.4036 76.6262 56.5043C76.3905 56.6052 75.8323 56.7257 75.3859 56.7725C74.6596 56.8485 74.5645 56.8273 74.4835 56.5719C74.3667 56.2042 73.8702 56.0852 72.88 56.1873C72.2812 56.249 71.9885 56.3642 71.681 56.6587C71.3455 56.9803 71.305 57.0864 71.4502 57.266C71.5943 57.444 71.5895 57.4613 71.4233 57.3612C71.2699 57.2687 71.2435 57.2986 71.3146 57.484C71.3737 57.6382 71.3526 57.6946 71.2576 57.6359C71.1746 57.5846 71.1405 57.4547 71.1816 57.3473C71.2229 57.2399 71.1949 57.114 71.1196 57.0674C71.0443 57.0209 70.9202 57.1474 70.8437 57.3486C70.7673 57.5497 70.6672 57.7143 70.6213 57.7143C70.5756 57.7143 70.1079 57.7766 69.5822 57.8527C68.4049 58.0233 63.4817 58.6969 62.9593 58.759L62.578 58.8043L63.1913 57.9379C63.5286 57.4613 63.9049 56.8739 64.0275 56.6323C64.3027 56.0902 64.6512 54.1893 64.7719 52.5714C64.9003 50.8513 65.3815 46.5472 65.5813 45.3319C65.7816 44.1133 65.7376 44.0309 64.5633 43.4222C63.1623 42.696 63.1422 42.6649 63.2819 41.4267C63.3485 40.8363 63.3522 38.1684 63.2902 35.4982L63.1773 30.6429L62.7073 29.242C62.4489 28.4716 62.2605 27.8196 62.2889 27.7932C62.4279 27.6636 65.5693 28.3913 65.7309 28.5904C65.8523 28.7402 66.3589 28.8643 67.269 28.9673C68.0155 29.0517 68.8237 29.2213 69.0653 29.3442C69.3186 29.4729 69.8627 29.5666 70.351 29.5656C70.8166 29.5646 71.8245 29.5697 72.5905 29.577C73.4892 29.5854 73.9833 29.5362 73.9833 29.438C73.9833 29.3542 74.0515 29.2857 74.1346 29.2857C74.2177 29.2857 74.2499 29.344 74.2059 29.4153C74.1617 29.4864 74.2467 29.5132 74.3946 29.4744C74.6043 29.4197 74.6845 29.2189 74.7586 28.5627C74.811 28.1 74.9519 27.6233 75.0716 27.5036C75.3242 27.2509 75.3626 27.259 74.0222 27.2844C72.671 27.3103 71.6976 27.1603 71.6976 26.9264C71.6976 26.6842 73.1745 26.512 74.1279 26.6432C74.6087 26.7093 74.9167 26.6859 75.0527 26.5732C75.1647 26.4802 75.3236 26.4454 75.4056 26.4962C75.5006 26.5549 75.5547 26.3584 75.5547 25.9549C75.5547 24.9183 75.6963 24.4521 76.0353 24.3729C76.2032 24.3337 75.9226 24.3357 75.4119 24.3776C73.7006 24.5174 72.8405 24.4107 72.8405 24.0584C72.8405 23.9406 72.6826 23.6864 72.4897 23.4936C71.9827 22.9864 71.021 23.0186 69.9833 23.577ZM34.291 24.0449C34.2053 24.1482 33.8117 24.3841 33.4165 24.5693C33.021 24.7544 32.6976 24.9714 32.6976 25.0516C32.6976 25.1316 33.0263 25.5009 33.4282 25.8723L34.1589 26.5474L33.1356 27.2279L32.1125 27.9082L32.8537 28.597C33.2616 28.9757 33.6262 29.2857 33.664 29.2857C33.7017 29.2857 34.1489 28.9887 34.6576 28.6257L35.5825 27.9657L36.3313 28.7052L37.08 29.4446L38.109 28.7359L39.1379 28.027L38.4177 27.4197C38.0217 27.0857 37.6976 26.7606 37.6976 26.6973C37.6976 26.6339 38.0833 26.3202 38.5547 26C39.0262 25.6799 39.4119 25.3746 39.4119 25.3216C39.4119 25.1472 38.2136 24 38.0313 24C37.9333 24 37.486 24.2572 37.0375 24.5714C36.5887 24.8857 36.1493 25.1429 36.0607 25.1429C35.9723 25.1429 35.616 24.8536 35.269 24.5C34.5783 23.7962 34.52 23.769 34.291 24.0449ZM41.1262 24.4514C40.694 24.7627 40.283 25.0742 40.2127 25.1434C40.0956 25.2593 40.2559 25.4274 41.3085 26.2929L41.6262 26.5542L41.1262 26.9834C40.8512 27.2196 40.4493 27.4884 40.2333 27.5809C40.0173 27.6733 39.8405 27.8004 39.8405 27.8634C39.8405 27.9264 40.1926 28.2789 40.6232 28.6466L41.4057 29.3152L42.3439 28.6457L43.282 27.9763L43.9542 28.5214C44.3237 28.8213 44.6476 29.1159 44.6737 29.1762C44.7677 29.3923 45.0183 29.2756 45.8757 28.6157L46.7465 27.9457L46.0077 27.2943C45.6013 26.936 45.2689 26.5967 45.269 26.5403C45.269 26.484 45.6226 26.1709 46.0547 25.8446C46.4869 25.5183 46.8405 25.2049 46.8405 25.148C46.8405 25.0913 46.5163 24.7714 46.1203 24.4374C45.4819 23.8992 45.3702 23.852 45.1372 24.0223C44.9925 24.1279 44.5742 24.4284 44.2076 24.6902L43.541 25.166L42.8693 24.6289C42.4999 24.3334 42.1333 24.0453 42.0547 23.9886C41.9762 23.9319 41.5583 24.1402 41.1262 24.4514ZM7.98332 24.3333C7.72246 24.4702 7.53518 24.481 7.28903 24.3732C7.02046 24.2556 6.91575 24.2753 6.77332 24.47C6.67503 24.6043 6.52146 24.7143 6.43189 24.7143C6.34232 24.7143 6.26446 24.7947 6.25903 24.8929C6.25346 24.9912 6.19375 24.9429 6.12618 24.7857C6.05861 24.6286 5.99889 24.5804 5.99332 24.6786C5.98789 24.7769 5.89003 24.8572 5.77618 24.8572C5.66218 24.8572 5.51046 24.9617 5.43903 25.0894C5.33089 25.2827 5.29246 25.2557 5.21046 24.929C5.12146 24.5742 5.09475 24.5599 4.93303 24.7809C4.83475 24.9154 4.62903 25.0037 4.47589 24.977C4.30632 24.9476 4.21232 25.0007 4.23532 25.1133C4.26403 25.2537 4.20603 25.262 3.99332 25.1482C3.83946 25.0659 3.67403 24.9346 3.62575 24.8564C3.47146 24.6069 3.26903 24.7039 3.26903 25.0273C3.26903 25.3346 3.26489 25.3353 3.03975 25.063C2.83718 24.8182 2.83775 24.832 3.04403 25.1801C3.17246 25.397 3.30646 26.0077 3.34161 26.5373C3.37675 27.0667 3.53461 28.1107 3.69246 28.8572C3.87332 29.7122 3.98075 30.7693 3.98289 31.7143C3.98461 32.5393 4.04789 34.3072 4.12346 35.6429C4.19903 36.9786 4.29861 38.7464 4.34461 39.5714C4.39075 40.3964 4.49603 41.3422 4.57861 41.673C4.68546 42.1013 4.68289 42.4719 4.56975 42.9587C4.48232 43.335 4.38346 44.0309 4.35018 44.505C4.24061 46.0683 2.92303 52.7367 2.63403 53.1916C2.46175 53.4627 2.17018 54.623 2.05661 55.4893C2.03532 55.6523 1.79546 56.3 1.52375 56.9286C0.662177 58.9209 0.272034 60.8253 0.0287485 64.2247C-0.0305372 65.0539 3.40598e-05 65.4755 0.137605 65.7247C0.243034 65.9155 0.337177 66.3792 0.347034 66.7552C0.356891 67.1312 0.443034 67.5169 0.538463 67.6123C0.787605 67.8615 1.95989 67.813 2.61246 67.5267C3.31732 67.2173 3.22989 67.1106 2.43661 67.312C2.00475 67.4216 1.73618 67.4223 1.51261 67.3145C1.23575 67.1806 1.27189 67.161 1.81046 67.1526C3.17346 67.131 4.31103 66.1494 4.97832 64.4194C5.68418 62.5889 5.79832 61.305 5.48932 58.6745C5.27703 56.8682 5.25761 56.2237 5.38003 55.0596C5.46189 54.2804 5.52989 53.3364 5.53103 52.9619C5.53318 52.2636 5.88618 50.123 6.12561 49.3572C6.19918 49.1214 6.29046 48.7036 6.32818 48.4286C6.56518 46.7053 6.86132 45.4832 7.08118 45.3213C7.25346 45.1946 7.32403 44.9352 7.32403 44.4287C7.32403 44.0362 7.36889 43.7874 7.42361 43.8762C7.47846 43.9649 7.56646 43.7817 7.61932 43.4692C7.67718 43.1263 8.06618 42.3743 8.59932 41.574C10.0235 39.4366 10.1416 39.1944 11.5979 35.4286C12.4055 33.3397 12.7623 32.2344 13.121 30.7096C13.4785 29.1906 14.6595 26.243 15.2612 25.3686C15.627 24.8369 15.6726 24.6957 15.4996 24.6293C15.0849 24.4702 14.8055 24.649 14.5859 25.2143C14.4637 25.5286 14.2709 25.9143 14.1573 26.0714C13.9587 26.346 13.9542 26.3432 14.0403 26C14.0897 25.8036 14.1693 25.3753 14.2172 25.0482L14.3045 24.4536L13.472 24.3496C12.9387 24.2829 12.622 24.2981 12.5907 24.392C12.543 24.5353 11.7559 24.4269 11.4439 24.2342C11.3645 24.185 11.0247 24.2417 10.6889 24.3603C10.1046 24.5664 9.23961 24.5151 8.55475 24.2337C8.43689 24.1854 8.17975 24.2302 7.98332 24.3333ZM25.2163 24.2446C24.9935 24.3019 24.9613 24.4116 25.0219 24.9066C25.0619 25.233 25.1407 25.6126 25.1972 25.75C25.2722 25.9333 25.2287 26.004 25.0343 26.0147C24.8885 26.0229 25.0113 26.0939 25.3075 26.1724C25.6035 26.251 26.0053 26.2753 26.2003 26.2264C26.5353 26.1423 26.5547 26.0827 26.5547 25.1402V24.1429L26.019 24.1594C25.7245 24.1686 25.3632 24.2069 25.2163 24.2446ZM20.9357 24.381C20.8833 24.4333 20.8405 24.8464 20.8405 25.299C20.8405 25.9626 20.792 26.1346 20.5905 26.1873C20.3782 26.2427 20.3756 26.255 20.5737 26.2692C20.8536 26.289 21.0136 26.9622 20.8233 27.3179C20.6782 27.589 20.5276 28.2662 20.195 30.1429C20.0767 30.8107 19.8872 31.6786 19.7737 32.0714C19.6603 32.4643 19.5387 32.9907 19.5035 33.2413L19.4396 33.697L20.9875 33.7413C22.4683 33.7839 22.5255 33.7746 22.3032 33.5296C22.0882 33.2926 22.0887 33.2803 22.3099 33.3652C22.6877 33.5102 23.1246 34.339 23.1427 34.9454C23.1525 35.2706 23.19 35.3819 23.2335 35.2143L23.3076 34.9286L23.4212 35.2143C23.5135 35.4464 23.5366 35.4122 23.5447 35.0312C23.5595 34.3404 23.2165 33.6444 22.6737 33.2642C22.1455 32.8939 22.1392 32.8317 22.478 31.3572C22.5865 30.8857 22.7489 29.9214 22.8389 29.2143C22.9786 28.1176 23.1615 27.3383 23.5259 26.2857C23.5667 26.1679 23.5873 26.0157 23.5719 25.9476C23.5563 25.8794 23.5395 25.4776 23.5343 25.0547L23.5252 24.2857H22.278C21.5922 24.2857 20.988 24.3286 20.9357 24.381ZM29.7662 24.4332C29.5373 24.8036 26.6976 45.8906 26.6976 47.2202C26.6976 47.3433 26.8502 47.3854 27.1619 47.3483L27.6262 47.293L27.1656 47.4679C26.9122 47.5642 26.5586 47.7999 26.3799 47.9917C26.1785 48.2077 26.1562 48.2637 26.3212 48.139C26.5609 47.9579 26.5816 47.9659 26.527 48.2189C26.4936 48.3734 26.3867 48.4829 26.2895 48.462C26.1902 48.4407 26.1313 48.5347 26.1552 48.6763C26.1843 48.8497 26.1187 48.9153 25.9453 48.8862C25.8066 48.8627 25.7052 48.8949 25.7197 48.9576C25.7792 49.2106 25.5139 50.4286 25.3993 50.4286C25.1959 50.4286 24.8359 51.2506 24.931 51.4983C24.9836 51.6353 24.893 51.8634 24.7079 52.0604C24.4425 52.343 24.4293 52.4047 24.6185 52.4773C24.9867 52.6186 25.207 52.4453 25.2419 51.9867C25.2803 51.4833 25.6219 50.9077 26.0036 50.7034C26.3646 50.5103 26.3625 50.5494 25.7667 54.9403C24.875 61.5145 24.566 63.3225 24.2622 63.7443C23.9187 64.2209 23.9137 64.398 24.2333 64.763C24.4727 65.0363 24.4719 65.0443 24.2132 64.9496C23.9936 64.8692 23.9739 64.888 24.1085 65.05C24.1995 65.1597 24.2385 65.342 24.195 65.4552C24.1516 65.5683 24.2447 65.7773 24.402 65.9197C24.7165 66.2043 24.7202 66.172 24.4715 65.3182C24.3792 65.0012 24.397 64.9952 25.2157 65.066C25.7395 65.1113 25.9206 65.0955 25.6976 65.0237C25.361 64.9156 25.3733 64.9016 25.9119 64.7803C26.4372 64.662 26.6356 64.6287 27.0675 64.5866C27.2897 64.565 27.5485 63.9353 27.4203 63.728C27.2893 63.516 27.349 62.7242 27.7065 59.9286C27.8572 58.75 28.1446 56.5 28.3452 54.9286C28.7929 51.4216 28.9385 49.2203 28.7313 49.0923C28.5682 48.9914 28.6617 48.4286 28.8419 48.4286C29.0553 48.4286 29.141 47.9212 29.4202 45.0074C29.5749 43.3926 29.8625 40.7536 30.0593 39.1429C30.2562 37.5322 30.5156 35.4107 30.6359 34.4286C30.9983 31.4677 31.8356 25.2379 31.9205 24.8707C31.9679 24.6657 31.9245 24.4793 31.813 24.4086C31.5442 24.2381 29.8745 24.2582 29.7662 24.4332ZM17.5315 24.7797C17.411 25.0442 17.4163 25.2913 17.553 25.7797C17.7312 26.4159 17.7463 26.4286 18.3233 26.4264C18.647 26.4252 18.9775 26.377 19.0575 26.3193C19.1376 26.2616 19.2239 25.8126 19.2492 25.3214L19.2953 24.4286H18.4935C17.7803 24.4286 17.6737 24.4674 17.5315 24.7797ZM77.8457 25.1692C78.1247 25.6627 78.1292 25.7226 77.917 26.133C77.6916 26.5689 76.9599 26.9839 76.3587 27.0166C76.1339 27.0289 76.117 27.0496 76.294 27.0964C76.7227 27.2097 77.6755 26.859 77.9756 26.4773C78.2329 26.1503 78.424 24.9403 78.1799 25.1844C78.1309 25.2334 77.9686 25.1317 77.8195 24.9582C77.583 24.6833 77.5863 24.7104 77.8457 25.1692ZM5.08089 25.1697C5.03532 25.2836 5.00146 25.2497 4.99461 25.0833C4.98846 24.9327 5.02218 24.8484 5.06961 24.8959C5.11703 24.9433 5.12218 25.0666 5.08089 25.1697ZM68.9392 26.6336C68.6792 26.8307 68.0817 26.8039 67.5003 26.569C67.2889 26.4836 67.499 26.4453 68.1976 26.4422C69.0747 26.4382 69.1659 26.4617 68.9392 26.6336ZM4.05918 28.6749C4.10732 29.3829 4.09075 29.5277 3.9976 29.2143C3.79589 28.5356 3.68175 27.1666 3.85132 27.4606C3.92946 27.596 4.02303 28.1424 4.05918 28.6749ZM77.0639 28.1847C77.1176 28.3256 77.1975 28.4049 77.2415 28.3609C77.2855 28.317 77.2416 28.2017 77.1439 28.1047C77.0027 27.9647 76.9865 27.9812 77.0639 28.1847ZM85.16 28.4643C84.7487 28.9026 84.0459 30.445 83.7443 31.5714C83.475 32.5763 83.3887 35.7259 83.5929 37.0887C83.6999 37.8029 83.6926 37.8246 83.2883 37.992C82.7149 38.2296 82.1746 38.8416 82.0607 39.3824C81.9787 39.7722 82.0395 39.9184 82.4909 40.4182C82.78 40.7382 82.9447 41 82.857 41C82.6363 41 82.6565 41.5023 82.8847 41.6919C83.129 41.8946 85.546 42.2844 86.5632 42.2852C86.9999 42.2854 87.4686 42.2043 87.6047 42.1047C87.8369 41.935 87.8333 41.9033 87.5469 41.596C87.379 41.4157 87.0739 41.2044 86.8689 41.1264L86.496 40.9847L87.1326 40.624C88.1092 40.0704 88.269 39.8776 88.269 39.2526C88.269 38.5333 87.7006 37.934 86.8042 37.7083C86.1816 37.5514 86.1587 37.5262 86.0725 36.8962C86.0235 36.5384 85.9833 35.6956 85.9833 35.0229C85.9833 33.9563 86.0502 33.6276 86.5056 32.452C86.9329 31.3493 86.9975 31.0556 86.861 30.8372C86.7307 30.6283 86.7415 30.4573 86.9103 30.0533C87.3832 28.9214 87.0156 28.1429 86.0082 28.1429C85.626 28.1429 85.371 28.2396 85.16 28.4643ZM47.2952 28.6024C47.1927 28.7049 47.1262 28.7133 47.1262 28.6239C47.1262 28.5426 47.169 28.4333 47.2215 28.381C47.2737 28.3286 47.3499 28.319 47.3905 28.3596C47.431 28.4002 47.3882 28.5094 47.2952 28.6024ZM77.269 28.8C77.269 28.9257 77.0505 29.2472 76.7833 29.5143C76.2429 30.0547 76.2477 30.0923 76.8197 29.7964C77.3313 29.5319 77.7956 28.5714 77.4119 28.5714C77.3333 28.5714 77.269 28.6743 77.269 28.8ZM51.0939 28.9257C51.1153 28.9442 51.0923 29.0647 51.0429 29.1939C50.936 29.4723 49.7765 29.5289 49.6126 29.2636C49.545 29.1546 49.5739 29.1379 49.6976 29.2143C49.825 29.293 49.8502 29.2743 49.7766 29.1552C49.7173 29.0592 49.5755 29.0163 49.4615 29.06C49.3475 29.1039 49.29 29.0816 49.3339 29.0106C49.3777 28.9396 49.3329 28.8454 49.2342 28.8013C49.1355 28.7572 49.5047 28.7596 50.0547 28.8067C50.6047 28.8539 51.0723 28.9073 51.0939 28.9257ZM12.0605 31.6402C11.8446 32.2317 11.6215 32.7446 11.5643 32.7797C11.5073 32.815 11.6513 32.2986 11.8845 31.632C12.1175 30.9654 12.3407 30.4527 12.3805 30.4924C12.4202 30.5322 12.2762 31.0486 12.0605 31.6402ZM41.4476 32.0767C41.2707 32.2006 41.1262 32.4276 41.1262 32.5813C41.1262 32.8232 41.0545 32.8497 40.5905 32.7793C39.91 32.6762 38.849 33.1912 38.6642 33.7143C38.5426 34.0584 38.5553 34.0552 39.0106 33.6243C39.6293 33.039 40.0719 32.8207 40.4173 32.9303C40.6563 33.0062 40.6973 33.1494 40.6956 33.9024C40.6927 35.1936 40.614 35.3643 39.8627 35.7087C39.3302 35.9529 39.283 35.9997 39.6262 35.944C39.8619 35.9057 40.2316 35.8309 40.4476 35.7777C40.8186 35.6864 40.8405 35.7083 40.8405 36.1703C40.8405 36.4394 40.9276 36.7789 41.0342 36.9246C41.218 37.176 41.441 37.1844 45.427 37.0927C47.7366 37.0396 50.7866 36.9553 52.2047 36.9053L54.7835 36.8143L54.9547 35.9109C55.1685 34.7844 55.1739 33.522 54.9689 32.5666C54.825 31.8956 54.7832 31.8406 54.4749 31.9179C54.048 32.025 52.3742 32.0276 46.4833 31.9297C42.338 31.8609 41.7302 31.8786 41.4476 32.0767ZM70.874 33.0053C70.6962 33.0767 70.4917 33.2897 70.42 33.4787C70.2925 33.8142 70.464 40.9303 70.6385 42.5456C70.688 43.0032 70.9109 43.664 71.199 44.2072C71.4622 44.7032 71.7486 45.3729 71.8353 45.6954C72.039 46.4516 72.0499 49.921 71.8506 50.5704C71.5706 51.4836 71.6546 52.1217 72.1152 52.5824C72.3449 52.8122 72.6255 53 72.7387 53C72.852 53 73.098 53.1193 73.2855 53.265C73.6895 53.579 74.3715 53.806 75.3066 53.9374C75.8967 54.0203 75.9753 54.0024 75.8985 53.8022C75.8335 53.6329 75.8935 53.5714 76.1243 53.5714C76.3185 53.5714 76.4672 53.6806 76.5133 53.8572C76.6555 54.4006 77.15 54.1763 78.167 53.1072C79.405 51.8056 79.703 51.1763 79.7589 49.7444C79.7825 49.1386 79.8467 48.225 79.9017 47.7143C79.9767 47.0167 79.9413 46.5902 79.759 46C79.4887 45.1249 79.4686 43.9993 79.715 43.5389C79.8473 43.2917 79.8295 43.2024 79.617 43.047C79.3136 42.8253 79.132 43.0052 79.1283 43.5307C79.1272 43.7047 78.9936 43.918 78.8315 44.0047C78.6423 44.106 78.5517 44.2766 78.5786 44.4813C78.6016 44.6566 78.4862 44.9707 78.322 45.1794C78.0979 45.4643 77.999 45.8627 77.9245 46.7807C77.8699 47.4529 77.862 48.0623 77.907 48.135C77.952 48.2077 77.7946 48.5733 77.5575 48.9473C77.3203 49.3213 77.1262 49.6876 77.1262 49.7612C77.1262 49.8347 76.991 50.1136 76.8259 50.3807L76.5256 50.8666L75.8616 50.2816C75.4965 49.9597 75.1173 49.6336 75.019 49.5569C74.6326 49.2549 74.73 45.652 75.1499 44.7143C75.6555 43.585 75.8373 42.8113 75.8382 41.7857C75.8392 40.5653 75.4416 33.9057 75.3422 33.4786C75.2997 33.2959 75.0882 33.1077 74.82 33.0143C74.2825 32.8269 71.3347 32.8202 70.874 33.0053ZM19.1152 33.4643C19.0382 33.7163 19.0247 34.0062 19.0935 33.9376C19.1976 33.8333 19.2705 33.4286 19.185 33.4286C19.1526 33.4286 19.1213 33.4447 19.1152 33.4643ZM37.0569 34.2822C37.0096 34.3589 36.7807 34.3994 36.5485 34.3724C36.3162 34.3453 36.1262 34.3859 36.1262 34.4626C36.1262 34.5393 36.033 34.5663 35.9192 34.5226C35.787 34.4719 35.7385 34.5119 35.785 34.633C35.8876 34.9004 35.1646 35.4286 34.6959 35.4286C34.2312 35.4286 33.9163 35.1042 34.0392 34.7519C34.1145 34.5357 34.0967 34.5389 33.9146 34.774C33.7727 34.9572 33.7486 35.1036 33.8416 35.2157C33.9182 35.308 33.9416 35.4226 33.8937 35.4704C33.8459 35.5183 33.9716 35.5989 34.1732 35.6494C34.6335 35.765 35.5193 35.4816 35.7245 35.153C35.823 34.995 36.0159 34.9207 36.253 34.9494L36.6262 34.9947L36.269 34.8687C35.9499 34.7562 35.9727 34.7414 36.4833 34.7307C36.9015 34.7219 36.9973 34.7559 36.8405 34.8572C36.6573 34.9754 36.6625 34.996 36.8762 34.9979C37.0459 34.9993 37.1262 34.8892 37.1262 34.6547C37.1262 34.4649 37.2066 34.2772 37.3047 34.2374C37.4335 34.1856 37.4359 34.1623 37.3132 34.1542C37.2196 34.148 37.1043 34.2056 37.0569 34.2822ZM38.503 34.5C38.5483 34.6179 38.6427 34.7143 38.7129 34.7143C38.783 34.7143 38.8405 34.6179 38.8405 34.5C38.8405 34.3822 38.746 34.2857 38.6306 34.2857C38.5029 34.2857 38.453 34.3694 38.503 34.5ZM17.7003 35.4286C17.6986 36.1004 18.095 36.9422 18.4833 37.0912C18.6003 37.1362 18.6703 37.2143 18.639 37.265C18.5679 37.38 19.018 37.4307 20.5086 37.4754C21.2247 37.497 21.6442 37.4576 21.5923 37.3739C21.5422 37.2927 21.6173 37.2792 21.7769 37.3404C21.9249 37.3972 22.0007 37.3984 21.9455 37.3432C21.8902 37.2879 21.9565 37.1562 22.0927 37.0506C22.2983 36.8912 22.2555 36.8914 21.8405 37.0522C21.153 37.3184 19.8196 37.3413 19.2452 37.0967C18.445 36.756 18.0786 36.2436 18.0786 35.4654C18.0786 35.0916 18.0493 34.8733 18.0136 34.9804C17.9589 35.1449 17.9295 35.1449 17.8253 34.9804C17.7455 34.8543 17.7015 35.0122 17.7003 35.4286ZM38.1262 35.1207C38.1262 35.4583 38.5682 35.8604 38.9232 35.8459C39.1265 35.8376 39.142 35.8139 38.9833 35.7549C38.6513 35.6313 38.3123 35.2273 38.3772 35.0326C38.4093 34.9362 38.366 34.8572 38.2809 34.8572C38.1959 34.8572 38.1262 34.9757 38.1262 35.1207ZM10.3569 36.8074C10.1587 37.1883 9.9936 37.44 9.99003 37.3666C9.97989 37.1643 10.578 35.9756 10.6523 36.05C10.688 36.0857 10.5552 36.4266 10.3569 36.8074ZM10.9833 36.5714C10.7477 37.14 10.6485 37.0407 10.8563 36.4444C10.9443 36.192 11.0497 36.0187 11.0905 36.0596C11.1313 36.1003 11.083 36.3307 10.9833 36.5714ZM22.6867 36.5357L22.3405 36.9286L22.7333 36.5823C22.9493 36.3917 23.1262 36.215 23.1262 36.1894C23.1262 36.0773 23.0105 36.1686 22.6867 36.5357ZM41.3512 37.5492C41.1999 37.6124 41.0365 37.7772 40.988 37.9152C40.9227 38.1014 40.716 38.1762 40.1882 38.2046C39.4112 38.2464 38.983 38.4504 38.6985 38.914C38.5213 39.2029 38.5249 39.2049 38.7897 38.9697C39.206 38.6002 40.1122 38.262 40.4223 38.3604C40.7279 38.4574 40.7623 38.86 40.5666 40.0504C40.4463 40.7832 40.297 40.9552 39.6619 41.0932C39.4459 41.1402 39.269 41.2423 39.269 41.3203C39.269 41.3983 39.4133 41.4219 39.5905 41.3727C40.6006 41.0923 40.5547 41.085 40.5547 41.5274C40.5547 41.756 40.6352 42.1139 40.7333 42.3226C40.9842 42.8557 41.3199 42.8777 48.4833 42.8282L54.6262 42.7857L54.6756 42.4286C54.7027 42.2322 54.7772 42.0072 54.8409 41.9286C54.9683 41.7716 55.2437 39.4586 55.2599 38.4099L55.27 37.7483L50.2339 37.6579C47.4639 37.608 44.394 37.5374 43.4119 37.5007C42.4297 37.4642 41.5025 37.4859 41.3512 37.5492ZM19.9476 37.8152C20.1245 37.8492 20.4136 37.8492 20.5905 37.8152C20.7673 37.781 20.6226 37.7532 20.269 37.7532C19.9155 37.7532 19.7707 37.781 19.9476 37.8152ZM19.7089 39.2262C19.7157 39.3926 19.7496 39.4264 19.7952 39.3126C19.8365 39.2094 19.8313 39.0862 19.7839 39.0387C19.7365 38.9913 19.7027 39.0756 19.7089 39.2262ZM20.2423 39.3833C20.3453 39.4246 20.4686 39.4194 20.516 39.372C20.5635 39.3246 20.4792 39.2909 20.3286 39.297C20.1622 39.3039 20.1283 39.3377 20.2423 39.3833ZM37.3956 39.3913C38.199 39.4626 38.4716 39.7274 38.3596 40.3279C38.2797 40.7557 38.288 40.7676 38.4859 40.5084C39.0112 39.8204 38.4803 39.2619 37.3477 39.3107L36.769 39.3356L37.3956 39.3913ZM35.0792 39.9166C35.025 40.0576 35.0687 40.1429 35.195 40.1429C35.3065 40.1429 35.4632 40.2554 35.5433 40.3929C35.6242 40.5316 35.6909 40.5634 35.6933 40.4643C35.6962 40.3439 35.9506 40.2857 36.4749 40.2857C37.2407 40.2857 37.6162 40.109 37.1943 39.9472C37.0756 39.9016 36.616 39.8986 36.1732 39.9406C35.6465 39.9906 35.3329 39.9606 35.2669 39.8537C35.1973 39.7413 35.1389 39.7609 35.0792 39.9166ZM37.8405 40.2857C37.8405 40.6476 37.7849 40.7143 37.4833 40.7143C37.2869 40.7143 37.1262 40.65 37.1262 40.5714C37.1262 40.4929 36.9897 40.4286 36.823 40.4286C36.5696 40.4286 36.549 40.4639 36.6976 40.6429C36.8047 40.7719 37.1173 40.8572 37.4833 40.8572C37.8493 40.8572 38.1619 40.9424 38.269 41.0714C38.3669 41.1893 38.6157 41.277 38.8222 41.2663C39.1366 41.25 39.1477 41.237 38.891 41.1869C38.4655 41.1036 38.0905 40.6503 38.0905 40.219C38.0905 40.02 38.0342 39.8572 37.9655 39.8572C37.8967 39.8572 37.8405 40.05 37.8405 40.2857ZM20.7939 40.2477C20.7575 40.3079 20.8173 40.44 20.9269 40.5413C21.0906 40.6927 21.1262 40.6877 21.1262 40.514C21.1262 40.2714 20.8929 40.0843 20.7939 40.2477ZM34.3762 40.3803C34.4745 40.42 34.6352 40.42 34.7333 40.3803C34.8316 40.3407 34.7512 40.3083 34.5547 40.3083C34.3583 40.3083 34.278 40.3407 34.3762 40.3803ZM33.4937 40.6672C33.4435 40.7984 33.4573 40.943 33.5246 40.9886C33.5919 41.0342 33.6892 41.1856 33.7406 41.325C33.8129 41.5207 33.9237 41.556 34.2276 41.4797C34.444 41.4254 34.6889 41.381 34.7717 41.381C34.8546 41.381 35.0442 41.2149 35.193 41.0119C35.4599 40.648 35.4599 40.646 35.1877 40.8712C35.036 40.9967 34.7903 41.1429 34.6417 41.1959C34.2955 41.3193 33.6475 40.9083 33.7533 40.6323C33.7963 40.5203 33.776 40.4286 33.7085 40.4286C33.6407 40.4286 33.5442 40.536 33.4937 40.6672ZM35.8405 40.6019C35.8405 40.7509 36.006 40.7407 36.2672 40.5756C36.4342 40.47 36.4113 40.4464 36.16 40.4653C35.9843 40.4786 35.8405 40.54 35.8405 40.6019ZM5.71503 40.9536C5.54661 41.2432 5.50603 41.1504 5.64389 40.7913C5.69275 40.6636 5.76303 40.5892 5.79975 40.626C5.8366 40.6627 5.79846 40.8102 5.71503 40.9536ZM6.41189 41.0562C6.41189 41.087 6.31218 41.1506 6.19018 41.1974C6.06303 41.2462 6.00575 41.2222 6.05575 41.1413C6.13961 41.0054 6.41189 40.9404 6.41189 41.0562ZM20.8405 41.1473C20.8405 41.2234 20.9369 41.2857 21.0547 41.2857C21.1726 41.2857 21.269 41.2604 21.269 41.2296C21.269 41.1987 21.1726 41.1364 21.0547 41.0912C20.9369 41.046 20.8405 41.0713 20.8405 41.1473ZM20.9833 41.5799C20.9833 41.663 21.0476 41.6914 21.1262 41.6429C21.2047 41.5943 21.269 41.5263 21.269 41.4916C21.269 41.4569 21.2047 41.4286 21.1262 41.4286C21.0476 41.4286 20.9833 41.4967 20.9833 41.5799ZM20.8405 41.9762C20.8405 42.0417 20.9369 42.0953 21.0547 42.0953C21.1726 42.0953 21.269 42.0417 21.269 41.9762C21.269 41.9107 21.1726 41.8572 21.0547 41.8572C20.9369 41.8572 20.8405 41.9107 20.8405 41.9762ZM5.62618 42.8572C5.57761 42.9357 5.47746 43 5.40346 43C5.32946 43 5.26903 42.9357 5.26903 42.8572C5.26903 42.7786 5.36932 42.7143 5.49175 42.7143C5.61418 42.7143 5.67475 42.7786 5.62618 42.8572ZM6.41189 42.7773C6.41189 42.812 6.34761 42.88 6.26903 42.9286C6.19046 42.9772 6.12618 42.9487 6.12618 42.8656C6.12618 42.7824 6.19046 42.7143 6.26903 42.7143C6.34761 42.7143 6.41189 42.7426 6.41189 42.7773ZM62.4476 42.9987C62.6952 42.9996 62.8405 43.0767 62.8405 43.2074C62.8405 43.4123 61.8893 44.4286 61.6976 44.4286C61.4612 44.4286 60.5547 43.3876 60.5547 43.1162C60.5547 42.8396 60.6103 42.824 61.3047 42.9074C61.7172 42.957 62.2316 42.9982 62.4476 42.9987ZM16.4833 43.2857C16.5319 43.3643 16.5999 43.4286 16.6346 43.4286C16.6693 43.4286 16.6976 43.3643 16.6976 43.2857C16.6976 43.2072 16.6295 43.1429 16.5463 43.1429C16.4632 43.1429 16.4347 43.2072 16.4833 43.2857ZM6.23032 43.5149C6.18289 43.5623 6.05961 43.5674 5.95661 43.5262C5.84261 43.4806 5.87646 43.4467 6.04289 43.4399C6.19346 43.4337 6.27775 43.4674 6.23032 43.5149ZM41.225 43.5714C40.3682 43.723 40.1262 43.9192 40.1262 44.4613C40.1262 44.7477 40.0665 44.8649 39.9445 44.818C39.8057 44.7647 39.7635 45.0444 39.7659 45.9984C39.7685 47.0489 39.8032 47.2359 39.9833 47.169C40.1665 47.1009 40.1695 47.124 40.0036 47.328C39.6115 47.8102 37.886 48.042 37.5653 47.6556C37.4509 47.5177 37.4455 47.4247 37.5477 47.3614C37.7866 47.2139 37.7212 46.5494 37.4476 46.3417C37.142 46.1099 36.9833 46.0936 36.9833 46.2942C36.9833 46.3773 37.0443 46.4077 37.119 46.3616C37.3173 46.239 37.5855 46.8209 37.4816 47.1483C37.3586 47.5359 37.209 47.4989 37.026 47.0357L36.8709 46.6429L36.8556 47.1072C36.8427 47.5032 36.7879 47.5714 36.4833 47.5714C36.2869 47.5714 36.1262 47.5146 36.1262 47.4453C36.1262 47.3759 35.9632 47.2879 35.7639 47.2497C35.4142 47.1829 35.4103 47.19 35.6513 47.4563C35.8303 47.6542 36.0642 47.7243 36.4779 47.7044C36.7952 47.6892 37.2343 47.7489 37.4539 47.8372C38.2205 48.1454 38.5237 48.1632 39.2662 47.9427L40.0139 47.7206L39.9262 48.1887C39.8693 48.4912 39.91 48.7549 40.041 48.934C40.2263 49.1874 40.5006 49.2196 43.2207 49.3066C44.858 49.3589 47.9726 49.4077 50.1422 49.4152L54.0866 49.4286L54.3332 48.5357C54.6142 47.5189 54.8135 45.5659 54.7015 44.9286C54.5507 44.0704 54.4106 43.977 53.1842 43.9166C52.563 43.886 50.8012 43.7976 49.269 43.72C44.7865 43.4933 41.9615 43.441 41.225 43.5714ZM20.8517 44.187C20.8449 44.3446 20.776 44.4056 20.6755 44.3436C20.5692 44.2779 20.5496 44.3046 20.6202 44.419C20.7629 44.6499 21.0452 44.3852 20.9392 44.1196C20.889 43.9939 20.8592 44.0169 20.8517 44.187ZM5.80775 44.5983C5.77661 44.6916 5.67475 44.7933 5.58146 44.8244C5.47703 44.8593 5.44518 44.7939 5.49846 44.6549C5.59818 44.3952 5.89346 44.3412 5.80775 44.5983ZM62.0182 44.6663C61.9195 44.7062 61.875 44.7974 61.9195 44.8693C61.9639 44.9412 61.8699 45 61.7105 45C61.5117 45 61.4466 44.9327 61.503 44.7857C61.5483 44.6679 61.723 44.5766 61.8915 44.5827C62.0599 44.5889 62.1169 44.6266 62.0182 44.6663ZM38.1555 44.9064C37.9752 45.0064 37.6955 45.3096 37.5339 45.5799L37.24 46.0714L37.7992 45.5329C38.1813 45.1649 38.5592 44.9549 38.9923 44.8699L39.6262 44.7456L39.0547 44.735C38.7405 44.7292 38.3357 44.8063 38.1555 44.9064ZM88.0547 44.8222C87.2572 44.9644 86.927 45.2299 86.2485 46.2737C85.8612 46.8696 85.4196 47.7604 85.2673 48.2534C84.7319 49.9869 84.4342 53.8577 84.6877 55.791C85.0429 58.4994 86.8127 62.6299 88.3666 64.3765C88.7906 64.853 88.9406 64.9286 89.4626 64.9286C89.8012 64.9286 90.2376 64.817 90.4543 64.675C90.8749 64.3994 91.5432 63.4309 91.6325 62.9676C91.663 62.8087 91.7819 62.5355 91.8966 62.3605C92.2423 61.8329 92.6727 60.1923 93.0526 57.9556C93.4716 55.4877 93.4899 54.8714 93.1907 53.2942C92.8289 51.387 91.3717 47.6576 90.8432 47.2857C90.7873 47.2464 90.6946 47.0214 90.637 46.7857C90.4933 46.1966 90.0189 45.4586 89.6132 45.1927C89.2135 44.9307 88.4557 44.7506 88.0547 44.8222ZM5.69761 45.2059C5.69761 45.2406 5.63332 45.3086 5.55475 45.3572C5.47618 45.4057 5.41189 45.3773 5.41189 45.2942C5.41189 45.211 5.47618 45.1429 5.55475 45.1429C5.63332 45.1429 5.69761 45.1712 5.69761 45.2059ZM62.8097 45.5282C63.023 45.6616 63.2173 45.783 63.2413 45.7982C63.2653 45.8132 63.1882 46.2023 63.0697 46.6627C62.8145 47.655 62.5776 49.4847 62.4965 51.0904C62.4479 52.0519 62.5083 52.4957 62.8559 53.7303C63.2659 55.1864 63.2776 55.4402 62.9722 56.2435C62.821 56.6413 62.8197 56.6402 62.532 55.8569C61.866 54.0437 61.4697 52.1169 61.1955 49.3572C61.1407 48.8072 60.9742 47.8809 60.8253 47.2986C60.4753 45.9293 60.4745 45.9366 61.019 45.5879C61.5839 45.2262 62.289 45.2027 62.8097 45.5282ZM20.4833 45.5714C20.5319 45.65 20.5999 45.7143 20.6346 45.7143C20.6693 45.7143 20.6976 45.65 20.6976 45.5714C20.6976 45.4929 20.6295 45.4286 20.5463 45.4286C20.4632 45.4286 20.4347 45.4929 20.4833 45.5714ZM5.65889 45.6577C5.61146 45.7052 5.48818 45.7103 5.38518 45.669C5.27118 45.6234 5.30503 45.5896 5.47146 45.5827C5.62203 45.5766 5.70632 45.6103 5.65889 45.6577ZM88.6515 45.943C88.7585 46.2216 88.4775 46.419 88.1103 46.323C87.8422 46.2529 87.7535 45.9919 87.9357 45.8096C88.1149 45.6304 88.5636 45.714 88.6515 45.943ZM5.55475 46.2143C5.55475 46.3322 5.45832 46.4286 5.34046 46.4286C5.11732 46.4286 5.05703 46.2596 5.22146 46.0953C5.38575 45.9309 5.55475 45.9912 5.55475 46.2143ZM36.1619 46.0984C36.2993 46.1344 36.5245 46.1344 36.6619 46.0984C36.7993 46.0626 36.6869 46.0332 36.4119 46.0332C36.1369 46.0332 36.0245 46.0626 36.1619 46.0984ZM35.7629 46.7043C35.8119 46.7836 35.4742 46.8097 34.9266 46.7692C34.3735 46.7282 33.972 46.7599 33.917 46.8489C33.8637 46.935 33.912 46.9636 34.0329 46.9172C34.4385 46.7616 34.464 47.1842 34.0696 47.5234C33.42 48.0822 32.3645 47.8447 32.6135 47.1959C32.6893 46.9982 32.6686 46.989 32.4866 47.1402C32.231 47.3522 32.1866 47.7822 32.4362 47.6279C32.5483 47.5586 32.5735 47.6023 32.5126 47.7609C32.4472 47.9313 32.52 48.0217 32.774 48.0854C33.2705 48.21 33.7535 48.0593 34.1382 47.6596C34.3197 47.4709 34.5682 47.3477 34.6902 47.386C34.8815 47.446 34.883 47.4352 34.7016 47.3069C34.5206 47.179 34.5265 47.1447 34.7427 47.0617C34.881 47.0087 35.2329 47.0032 35.5245 47.0496C36.1987 47.1567 36.5859 46.9603 36.1549 46.7296C35.794 46.5366 35.6536 46.5274 35.7629 46.7043ZM5.34818 47.1304C5.29532 47.2159 5.17561 47.2847 5.08203 47.2836C4.97975 47.2822 4.99746 47.226 5.12618 47.1429C5.28189 47.0423 5.28932 47.0037 5.15346 47.0022C5.05061 47.001 5.00961 46.9302 5.06246 46.8447C5.12646 46.7412 5.20603 46.737 5.30132 46.8323C5.37989 46.9109 5.40089 47.045 5.34818 47.1304ZM35.0547 47.2857C35.1033 47.3643 35.1713 47.4286 35.206 47.4286C35.2407 47.4286 35.269 47.3643 35.269 47.2857C35.269 47.2072 35.2009 47.1429 35.1177 47.1429C35.0346 47.1429 35.0062 47.2072 35.0547 47.2857ZM86.1976 47.7143C86.3195 47.95 86.3822 48.1429 86.337 48.1429C86.2919 48.1429 86.3177 48.2553 86.3947 48.3927C86.4962 48.574 86.4712 48.7127 86.3039 48.8976C86.0889 49.1352 86.1066 49.1833 86.5639 49.603C86.8339 49.8509 87.2726 50.2023 87.539 50.3839C88.3297 50.9234 89.4433 50.7666 89.9132 50.0494C90.0339 49.8652 90.2277 49.7143 90.3437 49.7143C90.609 49.7143 90.6107 49.5226 90.3497 49.018C90.1669 48.6643 90.1719 48.5802 90.3966 48.2376L90.6485 47.8536L91.232 49.1053C91.941 50.6267 92.0149 50.8674 92.4915 53.2143C92.8242 54.8519 92.8587 55.2826 92.7845 56.8572C92.6217 60.3047 91.786 62.8575 90.6397 63.4087C89.8535 63.7867 89.192 63.7802 88.5263 63.3877C87.9209 63.0307 87.081 62.0525 86.6606 61.2143C86.1973 60.2907 85.3996 57.4974 85.1833 56.0417C84.8917 54.079 84.9675 50.208 85.3223 48.9286C85.5767 48.0119 85.8433 47.2857 85.9256 47.2857C85.9533 47.2857 86.0757 47.4786 86.1976 47.7143ZM5.20532 47.9876C5.05432 48.2319 4.86075 48.169 4.91361 47.8929C4.93989 47.7554 4.96632 47.614 4.97232 47.5786C4.97846 47.5433 5.05489 47.5859 5.14232 47.6733C5.22975 47.7607 5.25803 47.9022 5.20532 47.9876ZM28.893 47.8266C28.9312 47.8883 28.8432 47.9387 28.6976 47.9387C28.552 47.9387 28.464 47.8883 28.5022 47.8266C28.5405 47.7649 28.6283 47.7143 28.6976 47.7143C28.7669 47.7143 28.8547 47.7649 28.893 47.8266ZM20.1986 47.9984C20.1486 48.0793 20.2059 48.1033 20.333 48.0546C20.5805 47.9596 20.6257 47.8572 20.4203 47.8572C20.3463 47.8572 20.2466 47.9207 20.1986 47.9984ZM5.02618 48.6202C5.13432 48.9016 4.93718 49.1482 4.71432 49.0103C4.57918 48.9269 4.57061 48.8643 4.68475 48.7937C4.77289 48.7392 4.80818 48.6347 4.76289 48.5616C4.71775 48.4884 4.74189 48.4286 4.81675 48.4286C4.89161 48.4286 4.98589 48.5147 5.02618 48.6202ZM14.6976 48.4847C14.6976 48.5156 14.7973 48.5792 14.9193 48.626C15.0465 48.6747 15.1037 48.6507 15.0537 48.5699C14.9699 48.434 14.6976 48.369 14.6976 48.4847ZM14.6976 49.112C14.2012 49.3554 13.9626 49.7184 14.3047 49.7097C14.403 49.7073 14.6053 49.6129 14.7543 49.5C14.9035 49.3872 15.083 49.3304 15.1535 49.374C15.2239 49.4176 15.3779 49.3733 15.4956 49.2754C15.6637 49.136 15.7467 49.1352 15.8822 49.2717C16.0175 49.4079 15.9929 49.4259 15.769 49.3549C15.499 49.2692 15.4979 49.2734 15.7485 49.4333C15.9592 49.5679 16.0567 49.5593 16.2247 49.3912C16.4113 49.2047 16.3886 49.1686 16.0312 49.0832C15.8085 49.03 15.5297 48.9596 15.4119 48.9266C15.294 48.8937 14.9726 48.9772 14.6976 49.112ZM14.769 49.2857C14.7205 49.3643 14.6042 49.4276 14.5106 49.4264C14.4083 49.425 14.426 49.3689 14.5547 49.2857C14.8292 49.1083 14.8786 49.1083 14.769 49.2857ZM4.90575 49.4187C4.95103 49.4919 4.92161 49.5927 4.84046 49.6429C4.75932 49.693 4.72989 49.7939 4.77518 49.867C4.82032 49.9402 4.79675 50 4.72275 50C4.56689 50 4.40418 49.4839 4.52261 49.3654C4.64246 49.2456 4.81346 49.2694 4.90575 49.4187ZM16.279 49.5273C16.2846 49.5909 16.3443 49.7714 16.4119 49.9286C16.5303 50.204 16.535 50.203 16.5447 49.9013C16.5502 49.7292 16.4905 49.5486 16.4119 49.5C16.3333 49.4514 16.2736 49.4637 16.279 49.5273ZM26.269 49.7773C26.269 49.812 26.2047 49.88 26.1262 49.9286C26.0476 49.9772 25.9833 49.9487 25.9833 49.8656C25.9833 49.7824 26.0476 49.7143 26.1262 49.7143C26.2047 49.7143 26.269 49.7426 26.269 49.7773ZM40.0547 50.117C39.6993 50.1987 39.6185 50.2957 39.5809 50.6859C39.544 51.0694 39.487 51.1406 39.2715 51.0723C39.1262 51.0262 38.9665 51.0546 38.9165 51.1354C38.8642 51.2202 38.912 51.2493 39.0293 51.2043C39.1976 51.1397 39.2132 51.2457 39.1187 51.813C39.0559 52.1909 38.9636 52.8643 38.9136 53.3097C38.8276 54.0772 38.7955 54.1307 38.2959 54.338C37.9 54.5023 37.8466 54.5586 38.0812 54.564C38.2529 54.5682 38.5666 54.5056 38.7783 54.425C39.1509 54.2834 39.1606 54.2923 39.079 54.7002C39.0295 54.9482 39.0806 55.294 39.2035 55.5403C39.3947 55.9239 39.4926 55.9663 40.3763 56.0497C41.629 56.1682 46.6525 56.1677 50.7285 56.0492L53.9485 55.9554L54.1366 55.0134C54.3372 54.009 54.3722 51.7043 54.2 50.8263L54.096 50.2954L52.0755 50.3799C50.3579 50.4516 43.5102 50.26 41.1976 50.0754C40.8047 50.0442 40.2905 50.0629 40.0547 50.117ZM4.73661 50.5807C4.69675 50.7327 4.61132 50.8572 4.54646 50.8572C4.35889 50.8572 4.26075 50.6163 4.35189 50.379C4.47218 50.0653 4.82332 50.2492 4.73661 50.5807ZM13.5365 50.3072C13.5265 50.4133 13.5259 50.7224 13.5353 50.9944C13.5447 51.2663 13.301 53.1306 12.9937 55.1373C12.6863 57.1439 12.3943 59.2036 12.3447 59.7143C12.2953 60.225 12.1337 61.4786 11.9857 62.5C11.5909 65.2259 11.5365 65.806 11.6375 66.2086C11.7229 66.5489 11.7843 66.5715 12.6237 66.5715C13.1162 66.5715 13.7127 66.5327 13.9496 66.4853C14.4792 66.3794 14.4999 66.276 14.7012 62.7575C14.878 59.6662 15.1253 57.7282 15.7732 54.3572C16.0449 52.9429 16.2837 51.4372 16.3039 51.0113L16.3405 50.2367L14.9476 50.1756C13.8493 50.1273 13.5509 50.1552 13.5365 50.3072ZM37.9323 51.004C37.47 51.1426 37.0823 51.4607 36.6689 52.0407C36.4415 52.3597 36.4197 52.4802 36.5589 52.6479C36.7532 52.882 37.1937 52.9392 37.0533 52.712C37.0039 52.6322 36.9037 52.6037 36.8306 52.649C36.594 52.7952 36.6889 52.528 37.0676 51.9814C37.3996 51.5023 37.667 51.3319 38.6262 50.988L38.9119 50.8856L38.6262 50.8837C38.469 50.8826 38.1567 50.9367 37.9323 51.004ZM4.55475 51.437C4.55475 51.5896 4.46718 51.7143 4.36032 51.7143C4.23018 51.7143 4.18832 51.5967 4.23375 51.3589C4.31089 50.9556 4.55475 51.015 4.55475 51.437ZM75.8077 51.4554C75.7195 51.7203 75.4119 51.7642 75.4119 51.5119C75.4119 51.3874 75.5136 51.2857 75.638 51.2857C75.7625 51.2857 75.8389 51.362 75.8077 51.4554ZM24.3327 51.7267C24.28 51.8122 24.3083 51.9536 24.3957 52.041C24.4832 52.1284 24.5596 52.171 24.5657 52.1357C24.5717 52.1003 24.5982 51.9589 24.6245 51.8214C24.6773 51.5453 24.4837 51.4824 24.3327 51.7267ZM4.41189 52.3656C4.41189 52.576 4.24175 52.6393 4.08846 52.486C3.95961 52.3573 4.13689 51.9899 4.28403 52.0807C4.35432 52.1242 4.41189 52.2523 4.41189 52.3656ZM77.9805 52.3606C77.881 52.4803 77.7703 52.5489 77.7343 52.513C77.6353 52.4139 77.8366 52.1429 78.0092 52.1429C78.104 52.1429 78.0932 52.2249 77.9805 52.3606ZM35.2925 52.6673C35.1853 52.8589 34.9722 52.8992 34.214 52.8717C33.6173 52.8502 33.269 52.8937 33.269 52.9902C33.269 53.0742 33.3655 53.1429 33.4833 53.1429C33.8739 53.1429 33.7055 53.5433 33.1779 53.8693C32.7293 54.1466 32.5985 54.1682 32.223 54.0263C31.9836 53.936 31.7562 53.8939 31.7175 53.9326C31.6065 54.0435 32.1697 54.419 32.4547 54.424C32.7776 54.4297 33.4452 54.0899 33.6897 53.7952C33.8065 53.6546 34.1209 53.5677 34.5365 53.5614C35.1966 53.5514 36.0615 53.3176 35.519 53.2957C35.2557 53.2852 35.1595 52.8572 35.4203 52.8572C35.5035 52.8572 35.5353 52.7983 35.4909 52.7264C35.4465 52.6546 35.4909 52.5633 35.5896 52.5234C35.7203 52.4707 35.7225 52.448 35.5976 52.4399C35.5033 52.4337 35.366 52.536 35.2925 52.6673ZM32.9119 53.1429C32.9605 53.2214 33.0285 53.2857 33.0632 53.2857C33.0979 53.2857 33.1262 53.2214 33.1262 53.1429C33.1262 53.0643 33.058 53 32.9749 53C32.8917 53 32.8633 53.0643 32.9119 53.1429ZM36.9357 53.0953C36.8833 53.1476 36.8405 53.2569 36.8405 53.3382C36.8405 53.4276 36.907 53.4192 37.0095 53.3167C37.1025 53.2237 37.1453 53.1144 37.1047 53.0739C37.0642 53.0333 36.988 53.0429 36.9357 53.0953ZM4.21646 53.8102C4.10989 54.5872 4.09789 54.6064 3.79332 54.4896C3.59175 54.4122 3.58618 54.3439 3.74989 53.9505C3.85289 53.7027 3.91018 53.4197 3.87689 53.3214C3.84375 53.2233 3.92718 53.1429 4.06232 53.1429C4.27246 53.1429 4.29475 53.239 4.21646 53.8102ZM31.7469 53.3633C31.7003 53.4846 31.6942 53.6157 31.7332 53.6547C31.7723 53.6937 31.8385 53.5944 31.8803 53.4343C31.9695 53.0939 31.8705 53.0413 31.7469 53.3633ZM34.8762 53.3866C34.6993 53.4206 34.4102 53.4206 34.2333 53.3866C34.0565 53.3524 34.2012 53.3246 34.5547 53.3246C34.9083 53.3246 35.053 53.3524 34.8762 53.3866ZM3.26903 53.7143C3.26903 53.7929 3.20475 53.8572 3.12618 53.8572C3.04761 53.8572 2.98332 53.7929 2.98332 53.7143C2.98332 53.6357 3.04761 53.5714 3.12618 53.5714C3.20475 53.5714 3.26903 53.6357 3.26903 53.7143ZM24.0562 53.7166C24.1056 53.7964 24.2057 53.8249 24.2789 53.7796C24.477 53.6572 24.4402 53.5714 24.1892 53.5714C24.0667 53.5714 24.0069 53.6367 24.0562 53.7166ZM36.4119 53.7464C36.4119 54.082 36.9755 54.5756 37.3317 54.552C37.6176 54.5332 37.6179 54.5309 37.3405 54.4742C37.1833 54.442 36.9102 54.2106 36.7333 53.9599C36.5149 53.6502 36.4119 53.5817 36.4119 53.7464ZM2.74932 53.9286C2.79446 54.0464 2.76918 54.1429 2.69318 54.1429C2.61703 54.1429 2.55475 54.0464 2.55475 53.9286C2.55475 53.8107 2.58003 53.7143 2.61089 53.7143C2.64175 53.7143 2.70403 53.8107 2.74932 53.9286ZM19.1976 54.1429C19.149 54.2214 19.1775 54.2857 19.2606 54.2857C19.3437 54.2857 19.4119 54.2214 19.4119 54.1429C19.4119 54.0643 19.3836 54 19.3489 54C19.3142 54 19.2462 54.0643 19.1976 54.1429ZM23.9946 54.2262C24.0015 54.3926 24.0353 54.4264 24.0809 54.3126C24.1222 54.2094 24.117 54.0862 24.0696 54.0387C24.0222 53.9913 23.9885 54.0756 23.9946 54.2262ZM19.0666 55.5523C19.005 55.6519 18.9933 55.7719 19.0405 55.819C19.1683 55.9469 19.3077 55.7589 19.2386 55.5517C19.1903 55.4066 19.1566 55.4066 19.0666 55.5523ZM78.528 56.0976C78.631 56.1389 78.7543 56.1337 78.8017 56.0863C78.8492 56.0389 78.7649 56.0052 78.6143 56.0113C78.4479 56.0182 78.414 56.052 78.528 56.0976ZM79.5022 56.398C79.464 56.4597 79.552 56.5102 79.6976 56.5102C79.8432 56.5102 79.9312 56.4597 79.893 56.398C79.8547 56.3363 79.7669 56.2857 79.6976 56.2857C79.6283 56.2857 79.5405 56.3363 79.5022 56.398ZM4.52261 57.2135C4.66146 57.326 4.97846 60.0045 4.97932 61.0715C4.98132 63.9156 3.69461 65.9823 1.69089 66.3532C0.836748 66.5113 0.641748 66.2352 0.672748 64.9117C0.712605 63.2105 1.41175 60.0026 2.03746 58.6496C2.77103 57.0636 2.86789 56.9757 3.75703 57.089C4.15646 57.1399 4.50103 57.1959 4.52261 57.2135ZM18.9119 57.1429C18.9605 57.2214 19.0285 57.2857 19.0632 57.2857C19.0979 57.2857 19.1262 57.2214 19.1262 57.1429C19.1262 57.0643 19.058 57 18.9749 57C18.8917 57 18.8633 57.0643 18.9119 57.1429ZM71.4146 58.2176C71.5656 58.3995 71.5567 58.4205 71.3606 58.3452C71.2317 58.2956 71.1262 58.1977 71.1262 58.1276C71.1262 57.9439 71.2089 57.9697 71.4146 58.2176ZM35.8396 58.2763C35.0917 58.5039 34.5345 58.8876 34.1187 59.4616C33.882 59.7883 33.7197 60.1375 33.7582 60.2376C33.7966 60.3376 33.7665 60.4574 33.6913 60.5039C33.4769 60.6364 33.5316 60.9524 33.769 60.9524C33.8869 60.9524 33.9833 60.8629 33.9833 60.7534C33.9833 60.6442 34.0403 60.5897 34.1099 60.6329C34.2425 60.7147 34.4586 60.2007 34.4212 59.8929C34.4092 59.7947 34.5346 59.7143 34.6997 59.7143C34.865 59.7143 34.9676 59.6614 34.9276 59.5969C34.8287 59.4369 35.3036 59.0476 35.5977 59.0476C35.7667 59.0476 35.7946 59.0974 35.6936 59.2192C35.5963 59.3364 35.7576 59.3226 36.2049 59.1755C38.2139 58.514 39.5919 60.7813 37.9899 62.112C37.3607 62.6346 36.0945 62.7582 35.4407 62.3606L35.0547 62.1259L35.3876 62.4166C35.7812 62.7602 36.458 62.9623 37.0547 62.9146C37.2905 62.8957 37.6066 62.8752 37.7572 62.8687C37.9077 62.8625 37.9912 62.8173 37.9425 62.7687C37.7992 62.6254 38.2513 62.2579 38.4329 62.3702C38.5296 62.43 38.5606 62.4107 38.507 62.324C38.4565 62.2422 38.51 62.0965 38.6262 62C38.7423 61.9036 38.802 61.7677 38.759 61.6982C38.716 61.6285 38.742 61.5715 38.817 61.5715C39.0159 61.5715 39.1039 60.4176 38.937 60C38.8585 59.8036 38.7956 59.5037 38.7972 59.3337C38.7992 59.131 38.7332 59.0502 38.606 59.099C38.4993 59.1399 38.4119 59.113 38.4119 59.0392C38.4119 58.7619 38.614 58.7203 38.9362 58.9315C39.1193 59.0513 39.269 59.1166 39.269 59.0766C39.269 58.994 38.1765 58.2857 38.0492 58.2857C38.0036 58.2857 38.0129 58.3609 38.0697 58.4529C38.1402 58.5669 38.0937 58.5896 37.9236 58.5243C37.7865 58.4716 37.5992 58.4276 37.5073 58.4264C37.4116 58.4252 37.4317 58.3652 37.5547 58.2857C37.8163 58.1167 36.39 58.1089 35.8396 58.2763ZM71.9156 58.9725C71.8717 59.0165 71.7565 58.9726 71.6595 58.8749C71.5195 58.7337 71.5359 58.7175 71.7395 58.7949C71.8803 58.8486 71.9596 58.9285 71.9156 58.9725ZM73.516 58.8006C73.4686 58.848 73.3453 58.8532 73.2423 58.8119C73.1283 58.7663 73.1622 58.7324 73.3286 58.7256C73.4792 58.7194 73.5635 58.7532 73.516 58.8006ZM79.8405 59.3572C79.644 59.4694 79.5513 59.5636 79.6346 59.5665C79.7177 59.5692 79.9106 59.477 80.0632 59.3617C80.4159 59.0949 80.3032 59.0926 79.8405 59.3572ZM69.3047 60.0946C69.2066 60.1343 69.0459 60.1343 68.9476 60.0946C68.8495 60.055 68.9297 60.0226 69.1262 60.0226C69.3226 60.0226 69.403 60.055 69.3047 60.0946ZM18.769 60.5715C18.7205 60.65 18.7489 60.7143 18.832 60.7143C18.9152 60.7143 18.9833 60.65 18.9833 60.5715C18.9833 60.4929 18.955 60.4286 18.9203 60.4286C18.8856 60.4286 18.8176 60.4929 18.769 60.5715ZM67.9297 60.875C67.8806 61.1206 67.8405 61.4056 67.8405 61.5085C67.8405 61.6112 67.6686 61.7157 67.4586 61.7406C67.2486 61.7655 67.052 61.861 67.0219 61.9532C66.9849 62.0659 67.1096 62.098 67.4037 62.0517C67.7907 61.9907 67.8405 62.0227 67.8405 62.3333C67.8405 62.8577 67.4699 62.9113 67.1313 62.4357C66.801 61.9719 66.7703 61.6885 67.0016 61.2406C67.4577 60.3579 68.0823 60.1119 67.9297 60.875ZM22.3405 60.7143C22.389 60.7929 22.457 60.8572 22.4917 60.8572C22.5265 60.8572 22.5547 60.7929 22.5547 60.7143C22.5547 60.6357 22.4866 60.5715 22.4035 60.5715C22.3203 60.5715 22.2919 60.6357 22.3405 60.7143ZM68.3636 61.3215C68.324 61.4197 68.2916 61.3393 68.2916 61.1429C68.2916 60.9465 68.324 60.8662 68.3636 60.9643C68.4033 61.0626 68.4033 61.2233 68.3636 61.3215ZM38.8985 62.6387C38.159 63.3905 37.0973 63.7339 36.0465 63.5615C35.6582 63.4977 35.2679 63.4417 35.1792 63.4372C35.0903 63.4325 34.7483 63.167 34.4189 62.8473C34.0895 62.5276 33.8892 62.3954 33.9737 62.5537C34.0585 62.7119 34.1927 62.8815 34.2722 62.9305C34.3516 62.9796 34.3789 63.0806 34.3329 63.155C34.2869 63.2295 34.1957 63.2573 34.1303 63.2169C34.0649 63.1765 34.1023 63.4453 34.2133 63.8143C34.5582 64.9599 35.3472 65.5715 36.4807 65.5715C37.4245 65.5715 38.0369 65.261 38.9949 64.297C39.8473 63.4392 40.0199 63.0599 39.6262 62.9089C39.5083 62.8636 39.4119 62.7654 39.4119 62.6906C39.4119 62.6157 39.4923 62.6 39.5905 62.6555C39.728 62.733 39.7306 62.7146 39.6016 62.575C39.5096 62.4753 39.4682 62.3052 39.5097 62.1969C39.6139 61.9257 39.5657 61.9605 38.8985 62.6387ZM68.2246 62.8215C68.1887 62.9589 68.1593 62.8465 68.1593 62.5715C68.1593 62.2965 68.1887 62.184 68.2246 62.3215C68.2606 62.4589 68.2606 62.684 68.2246 62.8215ZM18.9833 63.1429C18.9833 63.2215 19.0515 63.2857 19.1346 63.2857C19.2177 63.2857 19.2462 63.2215 19.1976 63.1429C19.149 63.0643 19.081 63 19.0463 63C19.0116 63 18.9833 63.0643 18.9833 63.1429ZM69.1619 63.0946C69.0637 63.1343 68.903 63.1343 68.8047 63.0946C68.7066 63.055 68.7869 63.0226 68.9833 63.0226C69.1797 63.0226 69.2602 63.055 69.1619 63.0946ZM77.0639 63.5296C76.9865 63.7332 77.0027 63.7496 77.1439 63.6096C77.2416 63.5126 77.2855 63.3973 77.2415 63.3535C77.1975 63.3095 77.1176 63.3887 77.0639 63.5296ZM19.1262 64.0085C19.1262 64.0916 19.1905 64.12 19.269 64.0715C19.3476 64.0229 19.4119 63.9549 19.4119 63.9202C19.4119 63.8854 19.3476 63.8572 19.269 63.8572C19.1905 63.8572 19.1262 63.9253 19.1262 64.0085ZM74.0309 64.3509C74.0309 64.4653 74.0856 64.5252 74.1523 64.4839C74.219 64.4426 74.2367 64.349 74.1915 64.2759C74.076 64.089 74.0309 64.11 74.0309 64.3509ZM76.269 64.2857C76.1403 64.3689 76.1226 64.425 76.2249 64.4264C76.3185 64.4276 76.4347 64.3643 76.4833 64.2857C76.5929 64.1083 76.5435 64.1083 76.269 64.2857ZM89.6619 64.6699C89.5245 64.7059 89.2993 64.7059 89.1619 64.6699C89.0245 64.634 89.1369 64.6046 89.4119 64.6046C89.6869 64.6046 89.7993 64.634 89.6619 64.6699ZM26.4603 64.8943C26.4069 64.9807 26.4362 65.0019 26.5297 64.944C26.6187 64.889 26.8216 64.9135 26.9803 64.9985C27.2005 65.1162 27.269 65.1093 27.2689 64.9693C27.2687 64.7467 26.5905 64.6837 26.4603 64.8943ZM74.8047 64.8089C74.903 64.8486 75.0637 64.8486 75.1619 64.8089C75.2602 64.7693 75.1797 64.7369 74.9833 64.7369C74.7869 64.7369 74.7066 64.7693 74.8047 64.8089ZM26.8972 65.4525C26.8567 65.5179 26.862 65.5715 26.909 65.5715C26.9562 65.5715 26.9117 65.6617 26.8103 65.772C26.709 65.8825 26.594 65.9686 26.5547 65.9637C26.5155 65.9587 26.3677 66.005 26.2265 66.0667C26.0853 66.1283 25.7122 66.1442 25.3973 66.1019C24.9985 66.0485 24.8416 66.0755 24.8799 66.1912C24.91 66.2825 25.2303 66.3917 25.5916 66.434C25.9873 66.4803 26.2153 66.4572 26.165 66.3757C26.1167 66.2977 26.2176 66.2763 26.4037 66.325C26.5809 66.3713 26.6877 66.3712 26.6412 66.3246C26.5946 66.278 26.6842 66.1505 26.8403 66.0412C27.2512 65.7535 27.4549 65.3333 27.1836 65.3333C27.0666 65.3333 26.9376 65.3869 26.8972 65.4525ZM24.4665 65.6503C24.5152 65.7775 24.4912 65.8347 24.4103 65.7847C24.3326 65.7367 24.269 65.637 24.269 65.563C24.269 65.3576 24.3715 65.4029 24.4665 65.6503Z" fill="black"/>
</svg>
