<svg width="42" height="83" viewBox="0 0 42 83" fill="none" xmlns="http://www.w3.org/2000/svg">
<path fill-rule="evenodd" clip-rule="evenodd" d="M16.7024 0.273387C16.5997 0.423611 16.4644 0.737529 16.4015 0.971117C16.2835 1.40905 15.7279 3.10132 14.8674 5.64288C14.5964 6.44376 14.3189 7.29013 14.2509 7.52372C14.1831 7.75731 13.9777 8.38527 13.7947 8.91919C13.6117 9.4531 13.4036 10.0811 13.3322 10.3146C13.2608 10.5482 13.0527 11.1762 12.8697 11.7101C12.6867 12.244 12.4788 12.872 12.4078 13.1056C12.3367 13.3392 12.059 14.1855 11.7904 14.9864C11.5219 15.7873 11.2442 16.6337 11.1731 16.8673C11.1021 17.1008 10.9043 17.7015 10.7334 18.202C10.2345 19.6642 9.46305 21.9887 9.32368 22.4491C9.17105 22.9534 8.46247 25.0919 7.77547 27.1209C7.50444 27.9217 7.22693 28.7681 7.15894 29.0017C7.0911 29.2353 6.88574 29.8632 6.70274 30.3972C6.51973 30.9311 6.31192 31.559 6.24084 31.7926C6.16977 32.0262 5.90212 32.8453 5.64588 33.6128C4.53044 36.9545 4.20251 37.9462 4.08117 38.3452C4.0101 38.5788 3.80228 39.2068 3.61928 39.7407C3.43627 40.2746 3.22845 40.9026 3.15738 41.1362C3.0863 41.3697 2.81434 42.2025 2.55286 42.9867C2.29138 43.7708 1.86371 45.0541 1.60223 45.8383C1.34075 46.6224 1.06879 47.4552 0.997721 47.6888C0.926647 47.9223 0.719593 48.5503 0.537361 49.0842C-0.03863 50.7725 -0.0699345 50.9009 0.0689754 51.0102C0.145908 51.0707 0.401218 51.0056 0.663313 50.8586C0.916156 50.7169 1.16545 50.601 1.21741 50.601C1.26937 50.601 1.81376 50.3633 2.42706 50.0728C3.3336 49.6434 5.91923 48.4624 9.24659 46.9583C9.50098 46.8432 10.3335 46.4621 11.0967 46.1113C13.125 45.1789 13.4746 45.0215 14.4114 44.6198C14.8778 44.4199 15.3287 44.2153 15.4135 44.1653C15.4983 44.1152 15.8105 43.966 16.1073 43.8338C16.4041 43.7014 17.5141 43.1973 18.5741 42.7135C19.634 42.2297 20.8134 41.6965 21.195 41.5286C21.5766 41.3606 22.3906 40.9852 23.0039 40.6943C23.6172 40.4034 24.1479 40.1654 24.183 40.1654C24.2182 40.1654 24.7037 39.947 25.2621 39.68C25.8204 39.4131 26.3573 39.1946 26.4554 39.1946C26.6385 39.1946 26.6143 39.4758 26.2721 41.3182C26.1854 41.7853 26.0505 42.5498 25.9727 43.017C25.8947 43.4842 25.7591 44.2623 25.6714 44.7461C25.5837 45.2299 25.4477 45.9945 25.3692 46.445C25.2909 46.8954 25.1469 47.7009 25.0493 48.2348C24.8762 49.1818 24.761 49.8335 24.4382 51.6931C24.3512 52.1937 24.2154 52.9581 24.1362 53.3919C24.0569 53.8258 23.9495 54.4537 23.8972 54.7874C23.8449 55.1211 23.7393 55.6945 23.6627 56.0615C23.5861 56.4286 23.4535 57.1385 23.3679 57.639C23.2213 58.4972 23.1158 59.1064 22.7378 61.2793C22.6507 61.7799 22.514 62.5444 22.4339 62.9782C22.1851 64.3272 21.9902 65.4256 21.8097 66.4972C21.5669 67.9386 21.3239 68.9245 21.2124 68.9211C21.1605 68.9196 20.0799 67.6858 18.811 66.1797C17.5423 64.6735 16.3723 63.3233 16.2112 63.1794C15.9187 62.918 15.9184 62.9185 16.0185 63.4635C16.0737 63.7639 16.1788 64.228 16.2522 64.495C16.3934 65.0087 16.578 65.7273 16.8758 66.9219C16.9757 67.3223 17.1154 67.8683 17.1865 68.1353C17.4555 69.1463 18.7336 74.2787 19.181 76.144C19.3571 76.8782 19.5659 77.6973 19.6451 77.9642C19.7242 78.2312 19.936 79.0775 20.1158 79.8451C20.2956 80.6126 20.5051 81.4589 20.5816 81.7259C20.658 81.9929 20.7635 82.3887 20.8159 82.6056C20.8683 82.8226 20.9656 83 21.032 83C21.0986 83 22.6988 81.1844 24.588 78.9653C26.4774 76.7462 29.6509 73.0194 31.6404 70.6835C33.6298 68.3477 35.2923 66.3683 35.3347 66.2848C35.3772 66.2014 35.3444 66.1331 35.2619 66.1331C35.1794 66.1331 33.4983 66.9837 31.5261 68.0235C29.5541 69.0632 27.8348 69.9459 27.7054 69.985C27.4589 70.0593 27.4587 70.0604 27.8186 68.924C27.9643 68.4637 28.6392 66.4297 29.2883 64.495C30.0593 62.1965 30.7829 60.0043 30.9101 59.5805C30.9802 59.3469 31.1772 58.7463 31.3479 58.2457C31.765 57.022 32.9068 53.557 33.0673 53.0279C33.1382 52.7943 33.3357 52.1937 33.5063 51.6931C33.6769 51.1926 34.1031 49.9094 34.4534 48.8415C34.8037 47.7737 35.2997 46.2721 35.5558 45.5046C35.8118 44.737 36.0793 43.918 36.1504 43.6844C36.2215 43.4508 36.4293 42.8228 36.6123 42.2889C36.7953 41.755 37.0034 41.127 37.0748 40.8935C37.1462 40.6599 37.3543 40.0319 37.5373 39.498C37.7203 38.9641 37.928 38.3361 37.9988 38.1025C38.1235 37.6907 39.1192 34.6701 39.6987 32.9454C40.3555 30.9903 40.9634 29.1562 41.086 28.759C41.158 28.5254 41.2956 28.1159 41.3917 27.8489C41.5676 27.36 41.725 26.858 41.9382 26.1059C42.0486 25.7164 42.037 25.7019 41.6863 25.7895C41.484 25.8401 41.0748 26.0036 40.777 26.1533C40.3334 26.3759 34.4924 29.0354 32.4496 29.9448C32.1529 30.0769 31.0428 30.582 29.9829 31.0672C26.437 32.6902 23.2828 34.1251 22.5826 34.4337C22.201 34.6018 21.1421 35.0865 20.2296 35.5109C19.3169 35.9352 18.5018 36.2824 18.418 36.2824C18.3342 36.2824 18.2657 36.337 18.2657 36.4037C18.2657 36.4705 18.2017 36.5251 18.1237 36.5251C18.0456 36.5251 17.3692 36.8051 16.6205 37.1473C13.1738 38.7231 13.4207 38.6282 13.3587 38.402C13.3308 38.3006 13.5647 37.7412 13.8784 37.159C14.192 36.5768 14.5443 35.9229 14.6613 35.706C14.7782 35.489 14.9726 35.1342 15.0931 34.9172C15.2137 34.7003 15.4602 34.2269 15.6408 33.8653C15.8215 33.5036 16.1007 32.9805 16.2615 32.7027C16.4223 32.425 16.6998 31.9062 16.8782 31.5499C17.0565 31.1937 17.334 30.6749 17.4949 30.3972C17.6557 30.1194 17.9349 29.5963 18.1156 29.2346C18.2961 28.873 18.5497 28.3859 18.6789 28.1523C18.8081 27.9187 18.9691 27.6184 19.0366 27.4849C19.2321 27.0984 19.7859 26.0762 20.335 25.0883C20.4556 24.8714 20.7021 24.398 20.8827 24.0364C21.0633 23.6747 21.3426 23.1516 21.5034 22.8738C21.6642 22.596 21.9434 22.0729 22.124 21.7112C22.3046 21.3496 22.5511 20.8762 22.6717 20.6593C22.7922 20.4423 22.9896 20.0875 23.1101 19.8705C23.2307 19.6536 23.4789 19.1768 23.6616 18.8108C23.8443 18.445 24.1621 17.8563 24.3674 17.5029C24.5729 17.1493 24.741 16.8338 24.741 16.8016C24.741 16.7696 24.8725 16.5118 25.0333 16.2289C25.1941 15.946 25.5842 15.223 25.8999 14.6224C26.4708 13.5366 26.6885 13.1287 27.1307 12.3168C27.6914 11.2871 27.8636 10.9669 27.9789 10.7394C28.0466 10.6059 28.2478 10.2378 28.4257 9.92161C28.6038 9.60526 28.7495 9.31804 28.7495 9.28322C28.7495 9.24839 28.8963 8.96117 29.0757 8.64483C29.6241 7.67844 29.7917 7.36755 30.133 6.68414C30.3137 6.32241 30.5929 5.79929 30.7537 5.52154C30.9145 5.24378 31.1937 4.72164 31.3743 4.36112C31.5548 4.00061 31.8707 3.41633 32.0761 3.06286C32.2816 2.70926 32.4496 2.39376 32.4496 2.36161C32.4496 2.32957 32.5964 2.04453 32.7759 1.72819C32.9553 1.41196 33.2037 0.971845 33.3278 0.75027C33.7709 -0.0406536 34.2194 0.000362185 25.1367 0.000362185H16.889L16.7024 0.273387Z" fill="black"/>
</svg>
