<svg width="121" height="61" viewBox="0 0 121 61" fill="none" xmlns="http://www.w3.org/2000/svg">
<path fill-rule="evenodd" clip-rule="evenodd" d="M33 0.5C33 0.775 32.1 1 31 1C29.9 1 29 1.225 29 1.5C29 1.775 28.325 2 27.5 2C26.675 2 26 2.225 26 2.5C26 2.775 25.55 3 25 3C24.45 3 24 3.225 24 3.5C24 3.775 23.55 4 23 4C22.45 4 22 4.225 22 4.5C22 4.775 21.6405 5 21.2005 5C20.761 5 19.7705 5.675 19 6.5C18.2295 7.325 17.349 8 17.044 8C16.197 8 5 19.3835 5 20.2445C5 20.66 4.775 21 4.5 21C4.225 21 4 21.4005 4 21.8895C4 22.379 3.55 23.1035 3 23.5C2.413 23.9235 2 24.7945 2 25.6105C2 26.3745 1.775 27 1.5 27C1.225 27 1 27.675 1 28.5C1 29.325 0.775 30 0.5 30C0.2035 30 0 31.8335 0 34.5C0 37.1665 0.2035 39 0.5 39C0.775 39 1 39.45 1 40C1 40.55 1.225 41 1.5 41C1.775 41 2 41.6255 2 42.3895C2 43.2055 2.413 44.0765 3 44.5C3.55 44.8965 4 45.5135 4 45.871C4 46.7185 9.2815 52 10.129 52C10.4865 52 11.1035 52.45 11.5 53C11.8965 53.55 12.5715 54 13 54C13.4285 54 14.1035 54.45 14.5 55C14.9235 55.587 15.7945 56 16.6105 56C17.3745 56 18 56.225 18 56.5C18 56.775 18.45 57 19 57C19.55 57 20 57.225 20 57.5C20 57.775 20.45 58 21 58C21.55 58 22 58.225 22 58.5C22 58.775 22.675 59 23.5 59C24.325 59 25 59.225 25 59.5C25 59.775 25.675 60 26.5 60C27.325 60 28 60.225 28 60.5C28 60.8205 32.6665 61 41 61C49.3335 61 54 60.8205 54 60.5C54 60.225 54.9 60 56 60C57.1 60 58 59.775 58 59.5C58 59.222 59.3335 59 61 59C62.6665 59 64 58.778 64 58.5C64 58.225 64.9 58 66 58C67.1 58 68 57.775 68 57.5C68 57.225 68.675 57 69.5 57C70.325 57 71 56.775 71 56.5C71 56.225 71.675 56 72.5 56C73.325 56 74 55.775 74 55.5C74 55.225 74.675 55 75.5 55C76.325 55 77 54.775 77 54.5C77 54.225 77.675 54 78.5 54C79.325 54 80 53.775 80 53.5C80 53.225 80.45 53 81 53C81.55 53 82 52.775 82 52.5C82 52.225 82.675 52 83.5 52C84.325 52 85 51.775 85 51.5C85 51.225 85.675 51 86.5 51C87.325 51 88 50.775 88 50.5C88 50.225 88.45 50 89 50C89.55 50 90 49.775 90 49.5C90 49.225 90.675 49 91.5 49C92.325 49 93 48.775 93 48.5C93 48.225 93.45 48 94 48C94.55 48 95 47.775 95 47.5C95 47.225 95.675 47 96.5 47C97.325 47 98 46.775 98 46.5C98 46.225 98.45 46 99 46C99.55 46 100 45.775 100 45.5C100 45.225 100.401 45 100.89 45C101.379 45 102.104 44.55 102.5 44C102.896 43.45 103.572 43 104 43C104.428 43 105.104 42.55 105.5 42C105.896 41.45 106.572 41 107 41C107.428 41 108.104 40.55 108.5 40C108.896 39.45 109.514 39 109.873 39C110.671 39 115 34.7475 115 33.964C115 33.6545 115.675 32.7705 116.5 32C117.325 31.2295 118 30.239 118 29.7995C118 29.3595 118.225 29 118.5 29C118.775 29 119 28.55 119 28C119 27.45 119.225 27 119.5 27C119.775 27 120 26.1 120 25C120 23.9 120.225 23 120.5 23C120.775 23 121 22.1 121 21C121 19.9 120.775 19 120.5 19C120.225 19 120 18.325 120 17.5C120 16.675 119.775 16 119.5 16C119.225 16 119 15.55 119 15C119 14.222 118.666 14 117.5 14C116.675 14 116 13.775 116 13.5C116 13.2035 114.167 13 111.5 13C108.833 13 107 13.2035 107 13.5C107 13.775 106.325 14 105.5 14C104.675 14 104 14.225 104 14.5C104 14.775 103.416 15 102.701 15C101.902 15 100.862 15.5775 100 16.5C99.2295 17.325 98.345 18 98.0345 18C97.7245 18 94.784 20.7 91.5 24C88.216 27.3 85.1855 30 84.7645 30C84.344 30 84 30.225 84 30.5C84 30.775 83.5995 31 83.1105 31C82.621 31 81.8965 31.45 81.5 32C81.1025 32.5515 80.2055 33 79.5 33C78.7945 33 77.8975 33.4485 77.5 34C77.0765 34.587 76.2055 35 75.3895 35C74.6255 35 74 35.225 74 35.5C74 35.775 73.55 36 73 36C72.45 36 72 36.225 72 36.5C72 36.775 71.1 37 70 37C68.9 37 68 37.225 68 37.5C68 37.8 66 38 63 38C60 38 58 37.8 58 37.5C58 37.225 57.2065 37 56.237 37C54.8155 37 54.04 36.5665 52.237 34.763C51.0065 33.533 50 32.2895 50 32C50 31.7105 48.9935 30.467 47.763 29.237C45.6535 27.1275 45.369 27 42.763 27C41.2435 27 40 27.225 40 27.5C40 27.775 39.5995 28 39.1105 28C38.621 28 37.8965 28.45 37.5 29C37.1035 29.55 36.469 30 36.09 30C35.7115 30 34.7705 30.675 34 31.5C33.2295 32.325 32.2885 33 31.91 33C31.531 33 30.8965 33.45 30.5 34C30.1035 34.55 29.379 35 28.8895 35C28.4005 35 28 35.225 28 35.5C28 35.775 27.55 36 27 36C26.45 36 26 36.225 26 36.5C26 36.775 25.344 37 24.5415 37C23.7395 37 22.952 37.281 22.7915 37.625C22.5585 38.125 22.4415 38.125 22.2085 37.625C22.048 37.2815 21.5875 37 21.1855 37C20.0055 37 18 34.6535 18 33.2725C18 32.5725 18.225 32 18.5 32C18.775 32 19 31.4215 19 30.7145C19 29.2675 20.034 28 21.2145 28C21.6465 28 22 27.775 22 27.5C22 27.225 22.675 27 23.5 27C24.325 27 25 26.775 25 26.5C25 26.2035 26.8335 26 29.5 26C32.1665 26 34 25.7965 34 25.5C34 25.222 35.3335 25 37 25C38.6665 25 40 24.778 40 24.5C40 24.225 41.1065 24 42.4585 24C43.936 24 45.033 23.7505 45.2085 23.375C45.4415 22.875 45.5585 22.875 45.7915 23.375C45.967 23.7505 47.064 24 48.5415 24C49.8935 24 51 24.225 51 24.5C51 24.775 52.1065 25 53.4585 25C54.936 25 56.033 25.2495 56.2085 25.625C56.4415 26.125 56.5585 26.125 56.7915 25.625C56.967 25.2495 58.064 25 59.5415 25C61.6665 25 62 24.8645 62 24C62 23.45 62.225 23 62.5 23C62.775 23 63 22.55 63 22C63 21.45 63.225 21 63.5 21C63.775 21 64 20.55 64 20C64 19.45 64.225 19 64.5 19C64.775 19 65 18.1 65 17C65 15.9 64.775 15 64.5 15C64.225 15 64 14.6405 64 14.2005C64 13.761 63.325 12.7705 62.5 12C61.675 11.2295 61 10.3415 61 10.0265C61 9.2845 58.7155 7 57.9735 7C57.6585 7 56.7705 6.325 56 5.5C55.2295 4.675 54.239 4 53.7995 4C53.3595 4 53 3.775 53 3.5C53 3.225 52.55 3 52 3C51.45 3 51 2.775 51 2.5C51 2.225 50.325 2 49.5 2C48.675 2 48 1.775 48 1.5C48 1.225 47.1 1 46 1C44.9 1 44 0.775 44 0.5C44 0.197 41.8335 0 38.5 0C35.1665 0 33 0.197 33 0.5Z" fill="black"/>
</svg>
