<svg width="43" height="95" viewBox="0 0 43 95" fill="none" xmlns="http://www.w3.org/2000/svg">
<path fill-rule="evenodd" clip-rule="evenodd" d="M23.7352 1.61696C23.3862 2.52696 23.6292 5.24696 24.2752 7.66096C24.9212 10.076 25.1822 13.115 24.8562 14.414C24.5302 15.714 24.8642 17.831 25.5982 19.12C26.3322 20.409 27.0582 23.488 27.2102 25.963C28.2482 42.828 28.4862 48.232 28.4542 54.127C28.4332 57.792 28.8702 61.982 29.4242 63.439C30.1122 65.25 30.0862 67.457 29.3392 70.423L28.2472 74.76L21.5902 74.611C16.0852 74.489 14.6302 74.09 13.1832 72.305C12.2212 71.119 11.4332 69.232 11.4332 68.112C11.4332 66.992 10.5502 65.458 9.47117 64.702C7.73217 63.484 7.63717 62.908 8.63817 59.646C10.0902 54.916 9.03017 53.912 5.89517 57.046C3.80117 59.14 3.40117 60.524 3.30817 65.993C3.23817 70.145 2.52117 73.824 1.30717 76.261C-0.129829 79.145 -0.333829 80.53 0.459171 82.011C1.71217 84.353 5.12717 84.55 7.48417 82.417C9.03217 81.016 9.55817 81.059 13.0632 82.875C15.1922 83.978 19.8582 85.236 23.4332 85.672C29.1412 86.367 29.9722 86.739 30.2542 88.728C30.4312 89.973 30.9952 90.734 31.5062 90.418C32.0182 90.101 32.8752 90.995 33.4102 92.403C33.9452 93.811 34.8392 94.963 35.3972 94.963C37.3852 94.963 40.4332 91.479 40.4332 89.206C40.4332 87.933 41.0542 85.896 41.8122 84.678C42.8982 82.934 42.9882 80.974 42.2352 75.463C41.2362 68.145 40.4632 55.131 40.4992 46.259C40.5122 43.105 39.7722 39.56 38.6202 37.259C37.3782 34.779 36.8782 32.185 37.1782 29.777C37.4772 27.378 37.0782 25.294 36.0352 23.805C35.1542 22.547 34.4172 19.706 34.3982 17.49C34.3782 15.275 33.7192 12.338 32.9332 10.963C32.1472 9.58797 31.4882 7.08996 31.4682 5.41296C31.4492 3.73496 30.8932 1.82296 30.2332 1.16296C28.4852 -0.585035 24.4732 -0.305035 23.7352 1.61696ZM26.2512 78.32C28.3202 79.468 28.4002 79.746 26.9962 80.911C25.0812 82.5 17.2552 82.473 14.2552 80.868C12.1462 79.739 12.1362 79.654 13.9442 78.331C16.2842 76.62 23.1762 76.614 26.2512 78.32Z" fill="black"/>
</svg>
