<svg width="62" height="91" viewBox="0 0 62 91" fill="none" xmlns="http://www.w3.org/2000/svg">
<path fill-rule="evenodd" clip-rule="evenodd" d="M57.2729 1.1857C53.9434 4.4327 51.3994 7.31103 48.7838 10.7904C47.4957 12.5038 45.7644 14.9779 44.9964 16.2024C40.2695 23.7396 37.1825 30.2224 35.3931 36.3696C34.5314 39.3299 34.0852 41.6827 34.003 43.6989L33.9307 45.4732L33.3695 45.4456C33.0609 45.4304 32.441 45.3624 31.992 45.2945C30.9301 45.1338 29.5346 45.2287 29.0382 45.4952C28.7549 45.6474 28.4099 45.7015 27.7023 45.705C27.1777 45.7076 26.5862 45.7515 26.3878 45.8025L26.0271 45.8952L26.1445 45.521C26.6324 43.9648 26.6352 43.9436 26.6204 41.9801C26.6073 40.2524 26.5669 39.8596 26.2576 38.4551C25.0058 32.7697 21.2713 25.2774 16.0519 17.9801C12.093 12.4453 7.33266 7.08581 3.65536 4.02359C2.4731 3.03915 2.16079 2.82837 2.0158 2.91703C1.63918 3.14748 0.690565 8.42948 0.258173 12.7024C0.0127434 15.1283 -0.0838802 21.5871 0.0842285 24.3319C0.432342 30.0147 1.26133 35.3068 2.42047 39.2465C3.61698 43.3129 6.0779 47.8012 8.31965 50.0052C9.46454 51.131 11.1399 52.2669 12.6449 52.938C13.221 53.1949 13.7178 53.4302 13.7488 53.4611C13.7799 53.4919 13.5866 53.6144 13.3191 53.7331C12.346 54.1656 9.61649 56.2939 8.60088 57.4124C7.72061 58.3818 6.85055 59.5706 6.10629 60.8209C5.70869 61.489 5.25677 62.247 5.10213 62.5052C4.88195 62.873 4.66323 63.0486 4.09325 63.3152C3.26449 63.7029 2.81336 64.1583 2.35718 65.0682C1.91457 65.9509 1.72694 66.6886 1.72469 67.5544C1.72312 68.2127 1.76363 68.3525 2.08762 68.8077C2.28827 69.0895 2.45133 69.431 2.44998 69.5667C2.44875 69.7025 2.31902 70.4135 2.1618 71.1468C1.76722 72.9867 1.66982 75.6908 1.93915 77.3255C2.73076 82.1305 5.36619 85.6412 9.85193 87.8665C14.2735 90.0598 19.1141 90.2595 22.0912 88.3715C23.721 87.3378 25.2049 85.2439 26.1877 82.5912C26.4141 81.9801 26.667 81.3301 26.7496 81.1468C26.8322 80.9635 27.0062 80.5312 27.1364 80.1862C27.4536 79.345 27.9013 78.758 28.5498 78.3327C29.5418 77.6822 30.6559 77.891 31.5991 78.9041C32.3015 79.6587 32.404 79.8947 33.3198 82.869C33.5175 83.5107 33.88 84.4357 34.1257 84.9246C34.6535 85.9746 35.3407 87.1316 35.4678 87.1838C35.5174 87.2042 35.5579 87.2719 35.5579 87.3342C35.5579 87.5347 36.9396 88.879 37.6149 89.3358C38.9899 90.2657 40.2461 90.6282 42.4034 90.7179C44.2865 90.7961 45.5908 90.603 47.5643 89.9537C49.1759 89.4235 51.7421 88.1918 52.6948 87.4913C54.9478 85.8345 56.966 82.7746 57.6122 80.0357C58.1213 77.878 58.0353 74.7651 57.3819 71.6965C57.3216 71.4125 57.3777 71.2768 57.7267 70.8631L58.1437 70.369L58.0761 69.2023C58.0391 68.5607 57.9325 67.7661 57.8395 67.4367C57.5943 66.5695 56.9038 65.5215 56.423 65.2871C55.7782 64.9728 55.4894 64.5763 54.4994 62.6468C52.7899 59.315 51.6698 57.7119 49.6163 55.6585C48.8588 54.901 48.239 54.2649 48.239 54.2449C48.239 54.2249 48.5459 54.0578 48.9211 53.8735C50.7672 52.9666 52.7367 51.4089 54.1243 49.7582C56.4587 46.9812 58.6206 42.2614 59.5702 37.869C59.6428 37.5329 59.7741 36.9329 59.8619 36.5357C60.2895 34.6017 60.513 32.7091 60.9448 27.369C61.1378 24.9797 61.1362 15.2093 60.9423 12.8135C60.561 8.10314 59.3822 0.953368 58.845 0.0928128C58.6986 -0.141632 58.4732 0.0151459 57.2729 1.1857ZM22.4279 62.5238C22.4279 62.6307 22.155 62.7601 21.9417 62.7544C21.8697 62.7525 21.9087 62.6775 22.0285 62.5877C22.2758 62.4025 22.4279 62.3781 22.4279 62.5238ZM23.1421 62.9111C23.6068 63.1034 23.9992 63.5875 23.9983 63.9674C23.9957 65.1751 23.2198 65.9029 22.365 65.4993C21.6899 65.1806 21.4345 64.1592 21.9284 63.7533C22.0207 63.6775 22.0688 63.5296 22.0351 63.4246C22.0014 63.3196 22.0508 63.1706 22.1447 63.0933C22.2469 63.0095 22.3157 62.9995 22.3157 63.0683C22.3157 63.1319 22.2562 63.2035 22.1836 63.2275C22.1089 63.252 22.0892 63.3316 22.1382 63.41C22.2049 63.5169 22.2549 63.5083 22.3547 63.3733C22.426 63.2768 22.6435 63.1862 22.8379 63.1722C23.2912 63.1396 23.2026 62.9807 22.7299 62.9785C22.4574 62.9771 22.4121 62.951 22.5401 62.869C22.7513 62.7339 22.7061 62.7307 23.1421 62.9111ZM4.29761 65.2271C4.39367 65.3629 4.47234 65.5781 4.47234 65.7052C4.47234 65.9945 3.92728 67.0993 3.69296 67.2851C3.40252 67.5153 2.87295 67.406 2.68767 67.0776C2.54044 66.8166 2.54492 66.7291 2.73009 66.2442C2.95745 65.6489 3.5832 64.9801 3.9128 64.9801C4.02839 64.9801 4.20155 65.0912 4.29761 65.2271ZM13.9669 65.3165C15.7637 65.4582 16.5082 65.6366 17.6829 66.2066C18.8778 66.7864 20.2658 68.0684 21.2151 69.469C21.592 70.0251 21.956 70.5169 22.0239 70.5618C22.0918 70.6067 22.1077 70.6441 22.0592 70.6451C22.0108 70.646 22.0277 70.7515 22.0968 70.8795C22.1857 71.0439 22.2939 71.0945 22.4656 71.0517C22.686 70.9968 22.6905 71.0045 22.5147 71.1348C22.3389 71.2652 22.3371 71.2979 22.4951 71.4903C22.5907 71.607 22.637 71.6399 22.5979 71.5635C22.5588 71.4871 22.5538 71.4246 22.5867 71.4246C22.6197 71.4246 22.7249 71.5746 22.8207 71.7579C22.9164 71.9412 22.9621 72.0912 22.922 72.0912C22.882 72.0912 22.9091 72.1626 22.982 72.2497C23.0551 72.3368 23.0992 72.4993 23.08 72.6108C23.0605 72.7239 23.1054 72.8018 23.1813 72.787C23.2656 72.7707 23.2903 72.831 23.246 72.9452C23.195 73.0769 23.2214 73.112 23.3382 73.0676C23.4386 73.0295 23.5071 73.0758 23.5152 73.1872C23.5224 73.2872 23.5629 73.494 23.6051 73.6468C23.6645 73.8617 23.6546 73.8868 23.5615 73.7579C23.4612 73.6189 23.441 73.6315 23.4396 73.8334C23.4387 73.9665 23.5011 74.1415 23.5782 74.2222C23.6554 74.3029 23.734 74.469 23.7531 74.5912C23.7723 74.7135 23.7999 74.8893 23.8146 74.9821C23.8293 75.0748 23.8742 75.2035 23.9145 75.268C23.9934 75.3945 24.3263 76.8052 24.4172 77.3983C24.5099 78.0035 24.2957 78.1457 22.0973 78.9377C19.2137 79.9766 17.5333 80.3131 15.2275 80.3133C12.2919 80.3136 10.3475 79.7115 8.95034 78.3695C7.89568 77.3566 7.23446 76.0632 6.87827 74.3165C6.54497 72.682 6.74809 69.1897 7.33086 66.5357C7.65529 65.0587 7.35465 65.2023 10.1208 65.2023C11.4402 65.2023 13.1709 65.2537 13.9669 65.3165ZM49.249 66.2037C50.7055 66.3125 52.9523 66.5487 52.9523 66.593C52.9523 66.6048 53.0616 67.2841 53.1953 68.1028C53.4957 69.9429 53.5545 73.7719 53.3018 75.0357C52.8715 77.1871 51.9151 78.8889 50.5672 79.9013C49.5896 80.6357 49.1163 80.8786 48.024 81.2071C47.2659 81.4351 47.0439 81.4511 45.4443 81.3936C42.5496 81.2892 39.5647 80.5227 36.7371 79.1572C34.8697 78.2556 34.8511 78.2269 35.2689 76.8997C36.0853 74.3058 37.0717 72.0655 38.0529 70.5761C38.6051 69.7379 39.8218 68.3807 40.1995 68.1815C40.416 68.0672 40.4244 68.073 40.2856 68.2397C40.1529 68.3988 40.1568 68.4246 40.3136 68.4246C40.4137 68.4246 40.4956 68.3716 40.4956 68.3069C40.4956 68.2422 40.5484 68.2215 40.6128 68.2609C40.6772 68.3003 40.7984 68.2764 40.882 68.2076C41.0074 68.1046 41.3207 68.0412 41.9751 67.9866C42.0172 67.983 42.0821 67.8851 42.1193 67.7689C42.1565 67.6528 42.3115 67.5269 42.4636 67.489C42.6156 67.4512 42.7401 67.3462 42.7401 67.2558C42.7401 67.1463 42.855 67.0912 43.0834 67.0912C43.2837 67.0912 43.3978 67.0449 43.3573 66.9801C43.3151 66.9126 43.4993 66.864 43.8276 66.8562L44.3673 66.8435L43.9452 66.7625C43.4534 66.668 43.2653 66.5387 43.6522 66.561C44.3215 66.5997 44.6408 66.5356 44.5786 66.3751C44.5303 66.2503 44.6495 66.2055 45.1152 66.1735C46.4009 66.0851 47.7979 66.0953 49.249 66.2037ZM44.3393 66.387C44.2622 66.4179 44.1359 66.4179 44.0587 66.387C43.9816 66.3562 44.0447 66.331 44.199 66.331C44.3533 66.331 44.4165 66.3562 44.3393 66.387ZM3.48243 66.8075C3.23576 66.9801 3.1544 67.0957 3.24182 67.1492C3.31881 67.1963 3.52014 67.0853 3.7246 66.8829C4.13635 66.4751 4.01234 66.4366 3.48243 66.8075ZM56.9835 66.8848C57.3349 67.2089 57.5722 67.8106 57.5722 68.3776C57.5722 69.4508 57.0524 69.6079 56.4985 68.7023C56.0744 68.009 56.0097 67.0642 56.3685 66.8045C56.6514 66.5997 56.6783 66.6032 56.9835 66.8848ZM43.6098 67.0537C43.687 67.0846 43.8133 67.0846 43.8904 67.0537C43.9676 67.0229 43.9044 66.9977 43.7501 66.9977C43.5958 66.9977 43.5327 67.0229 43.6098 67.0537ZM41.2779 67.7536C41.3687 67.8105 41.3997 67.8971 41.3467 67.9463C41.2938 67.9955 41.2279 67.9732 41.2004 67.8968C41.1297 67.701 40.8323 67.7235 40.8323 67.9246C40.8323 68.1097 40.6572 68.1492 40.556 67.9869C40.4905 67.882 40.7918 67.655 41.0006 67.6519C41.0624 67.6509 41.1872 67.6967 41.2779 67.7536Z" fill="black"/>
</svg>
