<svg width="86" height="86" viewBox="0 0 86 86" fill="none" xmlns="http://www.w3.org/2000/svg">
<path d="M29.5187 30.6512L30.5 30.6329V29.6514V15.3444C30.5 11.4205 30.5736 7.78511 30.6917 5.09133C30.7508 3.74239 30.8206 2.64141 30.8965 1.8625C30.9224 1.5966 30.9482 1.37697 30.9731 1.20271C31.1043 1.18602 31.2631 1.16932 31.4504 1.1532C32.1121 1.09625 33.0469 1.05334 34.1939 1.02766C36.4831 0.976399 39.5624 0.994841 42.8754 1.09594C42.8754 1.09594 42.8755 1.09595 42.8755 1.09595L54.0182 1.43684L54.2772 15.1043V15.1044L54.5532 29.7233L54.5717 30.7044H55.553H70.527H84.5V42.7044V54.7044H70.5H55.5H54.5V55.7044V70.7344V84.7422L42.772 84.4847L30.9818 84.2257L30.7228 70.4627L30.7228 70.4626L30.4468 55.7387L30.4288 54.7756L29.4657 54.7576L14.7418 54.4816H14.7417L1 54.223V42.7044V31.1858L14.7687 30.9272H14.7688L29.5187 30.6512Z" fill="black" stroke="black" stroke-width="2"/>
</svg>
