<svg width="140" height="92" viewBox="0 0 140 92" fill="none" xmlns="http://www.w3.org/2000/svg">
<path fill-rule="evenodd" clip-rule="evenodd" d="M83.4843 0.119068C82.9156 0.171192 82.3015 0.318501 82.0952 0.452354C81.8917 0.584365 81.639 0.692439 81.5335 0.692439C81.4281 0.692439 81.1361 0.842722 80.8847 1.02643C80.3965 1.38323 79.2003 1.58876 76.5835 1.76553C75.8452 1.81539 75.0087 1.95519 74.7245 2.07643C74.4402 2.19754 73.886 2.34867 73.4927 2.41227C73.0995 2.47601 72.3087 2.6134 71.7354 2.71765C70.9899 2.85335 70.501 2.86836 70.0192 2.77063C69.441 2.65335 69.1936 2.68578 68.2731 2.9998C66.6186 3.56425 63.6566 4.09272 62.4817 4.03323C61.9312 4.00533 61.4164 4.02742 61.3377 4.08252C61.2059 4.17459 60.5462 4.38337 59.4787 4.67048C58.289 4.9906 56.615 5.24074 55.6632 5.24074C54.7437 5.24074 53.47 5.4372 52.4717 5.73295C51.9252 5.89499 49.2156 6.34711 48.6037 6.37842C48.2484 6.39669 47.8884 6.32799 47.7523 6.21609C47.613 6.10165 47.477 6.07672 47.4201 6.15533C47.367 6.22842 47.0349 6.30674 46.6818 6.32912C46.3287 6.35164 45.9059 6.45689 45.742 6.56326C45.4935 6.72459 43.6609 7.13847 42.6047 7.27176C42.3324 7.30604 41.3087 7.47388 40.788 7.56949C40.646 7.59555 40.5076 7.4991 40.456 7.33819C40.4074 7.18649 40.2981 7.10476 40.2132 7.15674C40.1282 7.20873 39.8594 7.26779 39.6157 7.28791C38.8054 7.35504 36.4374 7.94555 35.9296 8.20717C35.777 8.28592 35.6704 8.27388 35.6369 8.17417C35.5986 8.06029 35.5002 8.0617 35.2785 8.17927C35.1105 8.26822 34.6489 8.34116 34.2528 8.34116H33.5325L33.2183 7.31425C33.0457 6.74952 32.7929 6.03989 32.6568 5.73762C32.4108 5.19131 32.4034 5.18748 31.4737 5.12927C30.8548 5.09046 30.257 5.15221 29.7074 5.31156C29.2505 5.444 28.7158 5.57034 28.5192 5.59216C28.3226 5.61383 28.0008 5.66822 27.8042 5.71284C27.301 5.82714 22.6079 6.21581 22.5402 6.14881C22.4198 6.02969 22.6878 5.79159 22.9422 5.79159C23.0902 5.79159 23.2511 5.72785 23.2997 5.64995C23.5397 5.26524 19.3532 5.82714 16.4449 6.57006C12.8819 7.48012 11.7375 7.9838 9.94238 9.43224C9.51381 9.77799 8.9012 10.1929 8.58088 10.3542C7.3066 10.9958 6.20007 11.8703 4.42201 13.6412C1.85172 16.2007 1.08939 17.5896 0.331921 21.093C0.0573608 22.3628 0.00974174 23.0247 0.000875739 25.6924C-0.0102783 29.0982 0.073663 29.7028 0.925943 32.3526C2.02647 35.7752 3.64351 38.2944 6.37725 40.8455C7.03304 41.4577 7.9644 42.2186 8.44688 42.5365C8.92937 42.8545 9.96898 43.6339 10.7573 44.2686C11.5457 44.9035 12.2817 45.4771 12.393 45.5434C12.75 45.7563 13.5051 47.3028 14.3884 49.6301C16.4636 55.0977 19.0051 59.2556 22.8414 63.4591C26.017 66.9386 28.8503 69.1396 39.3157 76.2569C42.619 78.5035 46.4693 81.1954 47.8717 82.2392C49.2742 83.2829 50.5685 84.2032 50.748 84.2841C51.0168 84.4055 51.1814 84.3603 51.6831 84.0278C52.018 83.806 52.4448 83.5288 52.6317 83.412C52.8188 83.2951 52.9511 83.1358 52.926 83.0579C52.8195 82.7274 43.0846 75.8861 37.0992 71.9353C30.254 67.4169 28.3027 65.9155 25.2984 62.8548C22.7695 60.2783 21.0439 58.0776 19.2607 55.1542C18.4264 53.7865 18.1041 53.1004 18.2957 53.1004C18.3878 53.1004 20.434 54.4747 21.0609 54.9577C21.2454 55.0998 21.8843 55.9351 22.481 56.814C24.8563 60.3128 26.6305 62.5458 28.8018 64.7688C30.9607 66.9793 33.1009 68.6028 36.9562 70.9548C38.018 71.6025 40.7529 73.3206 43.0337 74.7727C45.3146 76.2249 47.8555 77.8226 48.6804 78.3233C49.505 78.8239 50.5045 79.5522 50.901 79.9417C51.6722 80.6991 53.8823 83.2815 56.1564 86.0825C57.042 87.1733 57.6507 87.8029 57.8201 87.8029C57.9668 87.8029 58.3241 87.5429 58.614 87.2252C59.0776 86.7168 59.1184 86.6158 58.9523 86.3858C58.8487 86.242 58.1921 85.4124 57.4936 84.5423L56.2233 82.9601L56.5911 82.5958L56.9589 82.2315L59.9297 85.1057C61.5637 86.6865 63.5142 88.4689 64.2642 89.0668C66.032 90.476 67.9021 91.7689 68.1727 91.7689C68.4302 91.7689 69.7264 90.3529 69.6592 90.1451C69.6331 90.0644 69.0836 89.6413 68.438 89.205C66.4653 87.8716 62.1139 84.045 62.8651 84.3042C62.9974 84.3498 63.6836 84.7322 64.3902 85.1542C65.0968 85.5761 66.1665 86.1693 66.7674 86.4726C68.0138 87.1015 68.0308 87.0954 68.5102 85.8523C68.8196 85.0495 68.7337 84.913 67.4626 84.191C65.8936 83.2999 64.1329 82.0836 64.1295 81.8883C64.1276 81.7904 63.6596 81.4144 63.0895 81.0528C60.2483 79.2505 55.8225 76.2923 55.8808 76.2345C55.9172 76.1985 56.645 76.4713 57.4983 76.8407C58.3516 77.2101 60.3936 78.0715 62.0361 78.7548L65.0225 79.9973L66.4843 81.5151C68.105 83.1982 67.9864 83.1601 69.1727 82.377C69.8273 81.9447 69.8541 81.9012 69.7786 81.3924C69.7195 80.9955 69.7892 80.6849 70.0524 80.1703C70.2466 79.7909 70.3693 79.4447 70.3251 79.4011C70.2435 79.32 70.6158 78.246 70.948 77.6046C71.2721 76.979 71.185 76.8012 70.4657 76.6219C70.0986 76.5304 69.583 76.3664 69.3198 76.2574L68.8415 76.0594L69.1288 75.5927C69.5897 74.844 69.5112 74.6046 68.6307 74.0761C68.1981 73.8165 67.8442 73.5634 67.8442 73.5137C67.8442 73.4641 67.9749 73.3426 68.1345 73.2438C68.3802 73.0919 68.5616 73.1189 69.3123 73.4192C70.3396 73.8302 70.314 73.843 70.9985 72.5763C71.251 72.1089 71.5077 71.6715 71.5689 71.6043C71.6978 71.4627 72.3231 71.9308 75.1547 74.2882C77.3227 76.0931 78.3081 76.8533 79.8998 77.9488C80.8461 78.5999 80.883 78.612 81.2293 78.3872C81.5659 78.1688 81.5988 78.1723 81.829 78.4526L82.0727 78.7491L82.7239 78.3392C83.4552 77.879 84.4904 76.9358 84.6184 76.6131C84.6806 76.4563 84.9025 76.6142 85.4642 77.2151C85.8831 77.663 86.2632 78.0295 86.309 78.0295C86.3546 78.0295 86.6983 77.6434 87.0726 77.1716L87.7531 76.3135L85.7801 74.3413C84.6951 73.2566 83.8352 72.3441 83.8695 72.3137C83.9037 72.2832 84.1408 72.1529 84.3965 72.024L84.8612 71.79L84.8546 70.6958C84.8511 70.0941 84.764 68.7094 84.6613 67.6188C84.5585 66.5281 84.4999 65.6065 84.531 65.5706C84.6487 65.4352 88.2987 67.3477 91.0255 68.9735C92.5849 69.9033 93.9248 70.6641 94.0031 70.6641C94.2017 70.6641 94.4808 69.5611 94.3816 69.1691C94.3364 68.991 94.3377 68.7467 94.3843 68.6263C94.4564 68.4404 94.5967 68.4709 95.3097 68.8274C95.7718 69.0586 96.2201 69.2477 96.3059 69.2477C96.4801 69.2477 96.3553 68.0752 96.1365 67.657C96.0447 67.4818 96.1341 67.165 96.4504 66.5446C96.6935 66.0674 96.8591 65.5912 96.8183 65.4861C96.7777 65.381 95.3254 64.6127 93.5912 63.7787C91.8571 62.9447 90.4382 62.1793 90.4382 62.0776C90.4382 61.9759 90.5669 61.5693 90.7242 61.174C90.8815 60.7787 91.0102 60.4035 91.0102 60.34C91.0102 60.2766 89.8852 59.5726 88.5102 58.7756L86.0102 57.3264L86.3294 56.7726C86.505 56.4679 86.6809 56.2185 86.7202 56.2184C86.7595 56.2182 87.6124 56.8842 88.6154 57.6985C90.4928 59.2225 92.8652 60.9422 93.9793 61.5869C94.3275 61.7883 94.9118 62.1311 95.278 62.3488C96.2347 62.9175 98.1848 63.8652 98.3983 63.8652C98.6355 63.8652 99.7827 62.3594 99.6759 62.1882C99.6307 62.1159 98.8084 61.6191 97.8485 61.0842C96.8885 60.5494 95.4092 59.6337 94.561 59.0494C92.2485 57.4563 88.1205 54.3077 87.0355 53.3094L86.0779 52.4283L86.3275 51.9096C86.4648 51.6244 86.5772 51.3681 86.5772 51.34C86.5772 51.3118 85.9177 50.9223 85.1115 50.4744C83.4979 49.5777 83.1133 49.3001 83.229 49.1147C83.2713 49.0468 83.5755 49.1718 83.9048 49.3924C84.2343 49.6131 84.8694 49.9981 85.3161 50.2478C86.0706 50.6696 86.1388 50.6841 86.2725 50.4494C86.3972 50.2303 86.6409 50.4321 88.105 51.9672C92.064 56.1179 92.5409 56.5693 92.7684 56.3822C92.8855 56.2859 93.0598 56.0196 93.1556 55.7906C93.3714 55.2744 93.3281 55.2185 90.5686 52.4502C88.661 50.5365 88.3443 50.1259 88.7756 50.1259C89.0654 50.1259 91.4803 52.6657 94.098 55.7236C96.4016 58.4147 99.4241 61.7406 99.5659 61.7406C99.8287 61.7406 100.591 61.374 100.591 61.2477C100.591 61.1637 100.167 60.6825 99.6481 60.1784C99.1293 59.6743 97.8282 58.242 96.7565 56.9955C93.9135 53.6886 92.9833 52.6399 91.3774 50.931C90.066 49.5354 89.9313 49.3406 89.8662 48.7456L89.7947 48.0922L88.6853 47.7587C87.7322 47.4723 87.4502 47.3072 86.6833 46.5851C85.9083 45.8555 85.8349 45.7441 86.1262 45.7399C86.7069 45.7314 90.5828 47.1746 92.2778 48.0305C93.1715 48.4818 93.9597 48.8511 94.0295 48.8511C94.0992 48.8511 94.1562 48.6917 94.1562 48.497C94.1562 48.3005 94.2392 48.1429 94.3425 48.1429C94.4449 48.1429 95.0724 48.4033 95.7368 48.7216C96.4012 49.0399 97.8778 49.7174 99.0182 50.2271C100.159 50.7369 101.796 51.4708 102.657 51.8582C104.133 52.5226 104.252 52.5531 104.773 52.3985C105.443 52.1997 105.534 52.0079 105.263 51.3655C105.118 51.0229 104.931 50.8416 104.648 50.7712C104.424 50.7155 101.762 49.4464 98.7336 47.9509C87.6031 42.4555 84.3175 41.1339 76.9962 39.2079C72.1807 37.941 67.1245 36.512 62.4102 35.0855C50.0918 31.3582 51.2322 31.6456 42.8907 30.1669C38.3891 29.3689 37.6042 29.2593 34.1677 28.9473C29.9116 28.561 27.4778 27.9787 26.0909 27.015C24.1919 25.6951 23.4825 25.1219 23.2884 24.7502C23.0272 24.2495 23.0741 24.165 23.8689 23.7036C24.4021 23.394 24.5374 23.3667 24.7825 23.5182C25.0233 23.6672 25.2994 23.6322 26.473 23.3046C27.2445 23.0892 27.9722 22.8754 28.0902 22.8295C28.4208 22.7008 28.5072 22.6821 29.8062 22.4597C31.1636 22.2273 31.2122 22.2232 32.5461 22.2308C33.0699 22.2339 33.5402 22.1695 33.5913 22.0876C33.6423 22.0059 33.9651 21.9389 34.3086 21.9389C34.9215 21.9389 34.9399 21.9249 35.2898 21.1953C35.6026 20.5431 35.7976 19.5645 35.8088 18.5906C35.8106 18.424 35.8927 18.2948 35.991 18.3038C36.46 18.346 37.5006 18.0426 38.0896 17.6917C38.6708 17.3456 39.6336 17.0363 40.2452 16.9994C40.3632 16.9923 40.8458 16.9226 41.3177 16.8444C41.7896 16.7664 42.5457 16.7416 42.998 16.7895C43.6029 16.8533 43.8202 16.8301 43.8202 16.7012C43.8202 16.6019 43.9153 16.5623 44.04 16.6097C44.1608 16.6556 44.9169 16.4759 45.7203 16.2101C47.3362 15.6756 49.7526 15.2698 51.3992 15.2562C51.9891 15.2514 52.5334 15.2113 52.6087 15.1672C52.6839 15.123 52.8986 15.0708 53.0856 15.0511C53.2727 15.0312 53.5787 14.9158 53.7659 14.7943C53.9531 14.6729 54.3176 14.5725 54.576 14.5713C54.8344 14.5702 55.3321 14.4705 55.6824 14.3498C56.0649 14.2178 56.9493 14.1133 57.8989 14.0878C58.7677 14.0645 59.7528 13.9703 60.088 13.8787C60.4231 13.7869 60.777 13.7269 60.8745 13.7453C60.9719 13.7637 61.3697 13.6317 61.7584 13.4519C62.6176 13.0546 64.8783 12.6689 66.0925 12.7123C67.7946 12.7732 68.4397 12.6729 69.0915 12.2456C69.4146 12.0338 69.7972 11.8752 69.9415 11.8931C70.0857 11.9111 70.3002 11.8871 70.4182 11.8396C71.2542 11.5041 73.5296 11.3532 73.9994 11.6022C74.1684 11.6919 74.3693 11.6981 74.5262 11.6188C75.1517 11.3021 75.5519 11.1903 76.3509 11.109C76.8216 11.0611 77.2689 10.9606 77.3447 10.8855C77.4204 10.8106 77.6423 10.7491 77.8376 10.7491C78.0331 10.7491 78.5695 10.6444 79.0297 10.5165C79.821 10.2965 79.8767 10.2977 80.0523 10.5356C80.227 10.7722 80.2804 10.7737 80.9409 10.5599C81.5246 10.3709 81.9213 10.3533 83.2808 10.4558C84.2879 10.5317 85.0547 10.5276 85.2739 10.445C85.4698 10.3712 85.7628 10.3261 85.9248 10.3447C86.4617 10.4063 87.775 10.0058 89.0797 9.38238C89.7876 9.04428 90.5658 8.76723 90.809 8.7668C91.9146 8.76496 94.4973 9.95292 96.2545 11.2715C97.7043 12.3596 99.4754 13.295 100.853 13.7001C101.84 13.9907 104.219 14.3956 107.312 14.7995C109.479 15.0825 113.724 15.1181 116.035 14.8726C119.604 14.4936 124.016 13.5698 125.545 12.8818C126.525 12.4406 127.89 11.099 128.476 10.0018C128.672 9.6338 128.907 9.33266 128.997 9.33266C129.088 9.33266 129.359 9.10958 129.601 8.83691C129.843 8.56425 130.172 8.34116 130.333 8.34116C130.496 8.34116 130.735 8.16921 130.874 7.95164C131.189 7.45972 131.184 7.46071 133.41 7.33691C135.317 7.23082 136.762 7.05533 138.272 6.74626L139.13 6.57063V5.72077V4.87091L138.593 4.91241C138.061 4.95363 138.057 4.95023 138.055 4.41666C138.051 3.46666 138.002 3.45618 136.114 4.00575C132.969 4.92133 131.43 5.26184 131.168 5.10009C130.994 4.993 130.908 4.99966 130.857 5.12388C130.818 5.2185 130.782 5.08861 130.776 4.8355C130.765 4.42643 130.719 4.37516 130.357 4.37516C129.685 4.37516 129.098 4.64924 128.914 5.04924C128.767 5.37077 128.778 5.45278 128.993 5.60873C129.132 5.70929 129.185 5.79301 129.111 5.79456C129.037 5.79626 128.693 6.17261 128.347 6.63111L127.717 7.46468L126.416 7.5583C125.701 7.60972 124.157 7.74315 122.986 7.85476C120.822 8.06128 115.732 8.13564 115.559 7.9634C115.463 7.86878 114.685 7.77615 113.747 7.74754C113.472 7.73904 113.215 7.68762 113.175 7.63309C113.06 7.47388 111.471 7.35759 111.381 7.50179C111.253 7.70717 111.03 7.65547 111.03 7.42048C111.03 7.30363 110.966 7.20802 110.887 7.20802C110.809 7.20802 110.744 7.27487 110.744 7.35674C110.744 7.45306 110.661 7.45958 110.509 7.37516C110.38 7.30363 110.145 7.2787 109.987 7.31963C109.815 7.36411 109.734 7.33706 109.787 7.25235C109.841 7.16638 109.385 7.03635 108.63 6.92233C107.258 6.71524 107.314 6.72289 106.097 6.57346C105.625 6.51553 105.217 6.41114 105.191 6.34145C105.164 6.27176 105.093 6.24513 105.033 6.28224C104.972 6.31935 104.494 6.22827 103.97 6.07997C103.41 5.92148 103.057 5.87459 103.114 5.96652C103.178 6.06893 103.126 6.09017 102.962 6.02813C102.825 5.97587 102.65 5.93323 102.573 5.93323C102.496 5.93323 102.463 5.88536 102.498 5.827C102.534 5.76864 102.237 5.70462 101.838 5.68493C101.428 5.66453 100.902 5.5253 100.626 5.36411C100.315 5.18224 99.9634 5.09839 99.654 5.13224C99.3874 5.16128 99.1955 5.14286 99.2279 5.09131C99.26 5.03961 98.6308 4.81793 97.8296 4.59867C97.0282 4.37927 96.2487 4.13536 96.0972 4.0566C95.9456 3.97785 95.5917 3.90037 95.3107 3.88437C95.0297 3.86836 93.8855 3.46227 92.7683 2.9821C91.651 2.50179 90.6942 2.10887 90.642 2.10887C90.4075 2.10887 88.7538 1.02473 88.3895 0.632241C88.1245 0.346688 88.0138 0.286631 88.0683 0.457595C88.1359 0.669917 88.0693 0.650229 87.7108 0.351362C87.2984 0.00759461 87.1822 -0.0145016 85.887 0.0050451C85.1262 0.0163765 84.045 0.067793 83.4843 0.119068ZM92.3132 3.35674C94.5795 4.3304 103.826 6.88946 108.506 7.83847C111.309 8.40689 117.638 8.72615 121.398 8.48876C126.504 8.16638 128.116 8.07884 128.159 8.12176C128.183 8.1457 127.927 8.73068 127.589 9.42176C126.887 10.8575 126.534 11.1603 125.058 11.5933C121.908 12.5175 116.574 13.196 109.334 13.5934C105.282 13.8158 102.421 13.7143 101.092 13.3007C99.5609 12.8245 97.9985 11.9964 96.3221 10.7726C94.2311 9.24612 91.9194 8.20986 90.5812 8.19924C90.3059 8.19697 90.0089 8.14839 89.9213 8.09116C89.8205 8.02544 89.7288 7.10009 89.6725 5.57912C89.6234 4.25476 89.5429 2.96298 89.4937 2.7083L89.404 2.24555L90.5289 2.65944C91.1475 2.8872 91.9504 3.20094 92.3132 3.35674ZM137.303 5.16893C137.256 5.21595 137.133 5.22105 137.029 5.18012C136.915 5.13493 136.949 5.10136 137.116 5.09456C137.267 5.08847 137.351 5.1219 137.303 5.16893ZM101.422 5.4634C101.526 5.50434 101.649 5.49924 101.696 5.45221C101.744 5.40519 101.66 5.37176 101.509 5.37785C101.342 5.38465 101.308 5.41822 101.422 5.4634ZM103.88 6.21652C104.142 6.3838 103.916 6.3838 103.523 6.21652C103.334 6.13621 103.31 6.09215 103.451 6.08706C103.569 6.08266 103.762 6.14102 103.88 6.21652ZM103.308 6.35816C103.57 6.52544 103.344 6.52544 102.951 6.35816C102.762 6.27785 102.738 6.2338 102.879 6.2287C102.997 6.22431 103.19 6.28266 103.308 6.35816ZM19.0199 25.055C19.0199 25.2109 19.0069 25.3383 18.9908 25.3383C18.9747 25.3383 18.8581 25.299 18.7317 25.2509C18.5538 25.1834 18.539 25.1193 18.6661 24.9676C18.8962 24.6931 19.0199 24.7237 19.0199 25.055ZM79.3211 50.3145C80.1672 50.7689 80.8235 51.1985 80.7793 51.2693C80.6181 51.5277 78.4252 50.3815 77.8105 49.7176C77.4211 49.2971 77.4412 49.3052 79.3211 50.3145ZM77.9569 55.962C78.6051 56.2142 79.3866 56.9247 79.0158 56.9247C78.6916 56.9247 75.4232 55.3033 75.4232 55.1424C75.4232 55.0159 75.6876 55.0676 76.317 55.3172C76.8086 55.5123 77.5465 55.8023 77.9569 55.962ZM25.271 56.7157C26.0442 56.9325 26.2262 57.0777 28.0595 58.9389C30.4314 61.3471 33.0762 63.7827 34.8786 65.2185C36.3214 66.3679 38.3756 68.8227 37.8947 68.8227C37.6725 68.8227 34.0479 66.5685 32.8092 65.6599C30.5707 64.0176 27.8298 61.2424 25.0918 57.8454C23.7569 56.1892 23.8317 56.3049 24.1589 56.4005C24.3156 56.4463 24.816 56.5882 25.271 56.7157ZM84.7897 59.1515C85.741 59.6213 86.7196 60.2297 86.7199 60.3515C86.7202 60.4684 83.9896 59.288 83.3231 58.8831C83.067 58.7276 82.8914 58.5458 82.933 58.4793C83.0125 58.3516 83.6034 58.5657 84.7897 59.1515ZM80.9257 63.6458L81.8082 64.1346L81.9776 66.2308C82.161 68.4982 82.1986 70.6641 82.0546 70.6641C82.0051 70.6641 81.4421 70.23 80.8033 69.6994C80.1644 69.1688 79.3247 68.4837 78.9372 68.1767C78.4654 67.8031 77.816 66.9923 76.9709 65.7216C76.2771 64.6781 75.7092 63.7691 75.7092 63.7014C75.7092 63.6335 75.9183 63.6659 76.174 63.7732C79.2429 65.0608 78.9276 65.0369 79.3743 64.0164C79.5812 63.5437 79.8165 63.157 79.897 63.157C79.9773 63.157 80.4404 63.377 80.9257 63.6458ZM39.1012 65.2987C42.0984 67.8668 45.6984 71.3723 45.3389 71.3723C45.1411 71.3723 43.2199 69.6648 41.0317 67.5444C39.6947 66.2488 38.2571 64.9227 37.8371 64.5978C37.333 64.2077 37.163 64.0077 37.3366 64.0094C37.4813 64.0108 38.2754 64.591 39.1012 65.2987ZM57.8883 73.8188C60.1407 74.8138 61.937 75.6902 62.0178 75.8332C62.1451 76.0582 62.1152 76.0753 61.7493 75.9866C60.4335 75.6675 54.5309 72.8533 53.5442 72.0747L53.1867 71.7926L53.5442 71.925C53.7408 71.998 55.6957 72.8501 57.8883 73.8188ZM79.5664 74.3988C79.9306 75.0157 79.5724 75.0083 78.9872 74.3869C78.6786 74.0593 78.4262 73.7188 78.4262 73.6302C78.4262 73.3838 79.3247 73.9895 79.5664 74.3988Z" fill="black"/>
</svg>
