<svg width="88" height="84" viewBox="0 0 88 84" fill="none" xmlns="http://www.w3.org/2000/svg">
<path fill-rule="evenodd" clip-rule="evenodd" d="M14.8437 0.402684C12.1037 0.932684 10.6692 2.49518 11.2817 4.28168C11.8762 6.01519 16.5222 8.43869 22.2572 10.0072C25.6722 10.9412 27.3912 11.0872 34.0072 11.0062C43.0217 10.8952 46.8507 11.4137 53.8362 13.6907C72.3792 19.7347 82.5072 30.2307 82.5072 43.4032C82.5072 49.3882 80.2362 56.2002 77.3802 58.7817C75.6257 60.3672 71.6362 59.8662 63.2522 57.0067C53.7687 53.7722 46.0902 52.4242 37.1287 52.4202C22.0402 52.4142 7.27374 56.4307 2.35024 61.8802C-1.02426 65.6157 -0.78376 68.6917 3.19374 72.6692C10.0477 79.5237 28.4572 84.2662 42.7572 82.8617C61.3752 81.0327 77.6442 71.8442 83.4282 59.8907C88.3572 49.7052 88.7717 40.3922 84.6607 32.2032C78.6227 20.1752 67.4127 12.6297 44.5072 5.17468C42.1697 4.41368 39.7827 3.36018 39.2027 2.83368C37.7707 1.53318 34.8022 0.779685 32.5847 1.15468C31.5482 1.32968 29.3462 1.13168 27.5057 0.698184C24.1297 -0.0973159 18.1517 -0.236816 14.8437 0.402684Z" fill="black"/>
</svg>
