<svg width="96" height="78" viewBox="0 0 96 78" fill="none" xmlns="http://www.w3.org/2000/svg">
<path fill-rule="evenodd" clip-rule="evenodd" d="M31.0615 0.136772C30.8658 0.187878 30.7575 0.313522 30.8209 0.41634C30.8844 0.518956 30.709 0.602988 30.4313 0.602988C30.1535 0.602988 29.8742 0.687222 29.8107 0.79004C29.7471 0.89306 29.1995 0.926188 28.5939 0.863568C27.2496 0.724794 26.3503 1.04941 26.1782 1.7354C26.0012 2.44038 26.3634 2.97366 27.1233 3.12657C28.443 3.39241 28.5036 3.42917 28.2862 3.83519C28.0293 4.31555 28.0293 4.49896 28.2864 4.33999C28.5371 4.18505 28.5396 4.6743 28.2982 6.86499C28.1941 7.80934 28.0624 9.50432 28.0055 10.6315L27.9018 12.681L28.5533 12.7571C29.1819 12.8305 29.2019 12.8103 29.1276 12.1742C29.0728 11.7047 29.1441 11.4793 29.3756 11.3904C29.7144 11.2605 29.8269 10.401 29.5292 10.217C29.435 10.1588 29.3001 9.29667 29.2294 8.30121C29.1589 7.30575 28.9922 6.08446 28.8593 5.58734C28.6507 4.80762 28.6648 4.61127 28.9615 4.15819C29.2516 3.71561 29.4558 3.63279 30.2606 3.63178C30.7858 3.63117 31.5508 3.53764 31.9606 3.42372C32.5998 3.24616 32.7147 3.12435 32.7686 2.56643C32.8036 2.20343 32.9464 1.91599 33.0912 1.91599C33.2342 1.91599 33.4374 1.77964 33.5427 1.61299C33.8188 1.17606 33.7841 0.401594 33.4879 0.397958C33.3197 0.395736 33.3364 0.32948 33.5384 0.198988C33.7051 0.0913217 33.7461 0.0018356 33.6293 1.75978e-05C33.5128 -0.0015984 33.3059 0.108289 33.1698 0.244437C32.9745 0.439771 32.8387 0.439771 32.5262 0.244437C32.1273 -0.00462859 31.7186 -0.034726 31.0615 0.136772ZM1.42045 1.18192C1.42045 1.30777 1.52246 1.41099 1.64709 1.41099C1.80687 1.41099 1.80162 1.49805 1.62972 1.7051C1.274 2.13395 1.52832 2.3915 2.56559 2.65268C3.29662 2.8367 3.54064 3.01245 3.75779 3.51098C3.93111 3.90953 4.03352 4.00487 4.03857 3.77257C4.04281 3.57158 4.13735 3.46331 4.24845 3.53199C4.57084 3.73116 4.48236 3.39786 4.09695 2.96154C3.75052 2.56946 3.75779 2.56441 4.45045 2.71369C6.70416 3.1995 8.75143 3.26535 11.9218 2.95407C14.6929 2.68217 15.0884 2.68157 15.3827 2.94801C15.6534 3.19283 15.6726 3.34049 15.4863 3.74227C15.29 4.16566 15.1136 4.23818 14.2474 4.25151C12.9128 4.27252 13.6231 4.60865 15.0443 4.62885C15.8491 4.64016 16.1469 4.54381 16.5759 4.13274L17.1086 3.62248L19.819 3.82933C23.2914 4.09415 25.0347 4.079 26.6704 3.77015L27.9834 3.52209L24.3474 3.13768C22.3476 2.92619 19.8705 2.70116 18.8425 2.63773L16.9738 2.52199L16.974 3.07749C16.9744 3.70813 16.8167 3.76368 16.2555 3.32999C15.8709 3.03264 15.8707 3.02133 16.247 2.73025C16.6199 2.44179 16.6171 2.4222 16.146 2.02992C15.8071 1.74772 15.358 1.6247 14.6514 1.62026C13.5875 1.614 10.4094 2.11375 9.62993 2.41008C9.37763 2.50603 8.63165 2.63834 7.97232 2.70419C6.98757 2.80236 6.87263 2.78479 7.32895 2.60562C7.91596 2.37493 8.06443 1.81075 7.63195 1.45422C7.25764 1.14576 1.42045 0.889625 1.42045 1.18192ZM47.0724 1.43422C44.1269 1.72873 41.9946 2.8064 41.4371 4.28242C41.2324 4.82418 41.205 4.83145 39.1516 4.88842C37.2096 4.94215 37.0694 4.97407 37.0124 5.37423C36.9337 5.92549 37.3952 6.05073 39.5221 6.05416L41.1627 6.05699L41.2862 6.82782C41.4265 7.70592 42.2715 8.89489 43.0268 9.27687C43.3076 9.41908 44.223 9.58128 45.0611 9.63764C46.4289 9.72955 46.7454 9.67562 48.1568 9.11042C50.2772 8.26141 51.5678 8.26202 53.6827 9.11285C56.4642 10.2319 58.5305 9.91337 59.7805 8.17294C60.1237 7.69501 60.4045 7.07951 60.4045 6.805C60.4045 6.19435 60.8036 6.06345 62.677 6.05982C63.9657 6.05719 64.0405 6.03134 64.0405 5.59077C64.0405 5.13244 64.01 5.12597 62.2523 5.21L60.4642 5.29545L60.3337 4.64339C60.16 3.77479 58.985 2.72742 57.587 2.19495C55.3993 1.3621 50.9882 1.04294 47.0724 1.43422ZM85.0485 3.25242C83.8811 3.67763 80.9141 3.82327 79.2268 3.53805C78.5412 3.4223 78.3461 3.46876 78.0455 3.81984C77.7009 4.22243 77.5557 4.23495 74.6505 4.11516C71.649 3.99134 71.6074 3.99558 70.8854 4.49371C69.9096 5.16718 68.8107 5.51038 68.118 5.35827C67.8061 5.28979 67.3292 5.32232 67.0581 5.43059C66.6042 5.61198 66.6252 5.62834 67.3258 5.64026C67.7439 5.64713 68.254 5.75803 68.4594 5.8863C68.7462 6.06527 69.4145 6.04184 71.3353 5.78469C74.3978 5.37504 77.6769 5.35423 78.374 5.74025C78.7335 5.93942 79.0119 5.96023 79.384 5.8158C79.6664 5.70632 80.761 5.60613 81.8165 5.5936C83.346 5.57502 83.9728 5.66087 84.9046 6.01578C85.9783 6.42463 86.4277 6.46099 90.4154 6.46099C95.3923 6.46099 95.0505 6.60946 95.0121 4.46604C94.9976 3.65036 94.8929 3.1187 94.7269 3.01608C94.5829 2.927 92.5962 2.85266 90.3122 2.85105C86.6564 2.84802 86.0265 2.89609 85.0485 3.25242ZM7.68245 3.83499C7.8491 3.94265 8.2127 4.02305 8.49045 4.01376L8.99545 3.99679L8.49045 3.83499C8.2127 3.74611 7.8491 3.66551 7.68245 3.65622C7.41318 3.64107 7.41318 3.66086 7.68245 3.83499ZM11.6744 4.3818C11.9257 4.43008 12.2893 4.42826 12.4824 4.37776C12.6755 4.32726 12.4698 4.28767 12.0254 4.28989C11.581 4.29211 11.4231 4.33352 11.6744 4.3818ZM4.58841 6.05759C4.47974 7.18677 4.52196 7.84085 4.75385 8.62158C4.92515 9.19829 5.08594 10.484 5.11139 11.4791C5.13664 12.4739 5.21623 13.2522 5.28814 13.2084C5.36005 13.1646 5.70103 13.1852 6.04564 13.254C6.50297 13.3456 6.67669 13.4956 6.68841 13.8087C6.69709 14.0449 6.75123 14.1214 6.80839 13.9788C6.86576 13.8362 6.84233 13.5635 6.75648 13.3728C6.67063 13.1821 6.57953 12.4982 6.55428 11.853C6.52701 11.1563 6.21532 9.80268 5.78708 8.51998C5.39035 7.33201 4.9912 5.95094 4.9001 5.45099L4.73426 4.54199L4.58841 6.05759ZM3.60568 5.55361C3.41863 5.9972 3.20875 6.93569 3.13927 7.63905C3.06958 8.34262 2.91141 9.14052 2.78758 9.41221C2.61972 9.78066 2.62275 9.96609 2.7995 10.1428C2.92979 10.2731 3.03645 10.6343 3.03645 10.9454C3.03645 11.4391 3.11341 11.511 3.64245 11.511H4.24845L4.22199 9.64249C4.20744 8.61471 4.13937 7.09305 4.07049 6.26061L3.94545 4.74722L3.60568 5.55361ZM27.9178 4.98033C27.8249 5.60289 26.54 7.46331 26.2006 7.46695C25.8962 7.47038 25.8416 7.61098 25.8893 8.2703C25.921 8.71006 25.8824 9.13426 25.8037 9.21304C25.7249 9.29182 25.6604 9.87661 25.6604 10.5125C25.6604 11.6669 25.6615 11.669 26.3169 11.7439L26.9734 11.819L27.0011 10.6612C27.0177 9.97256 27.2482 8.90196 27.5702 8.01942C27.9479 6.98397 28.0875 6.26505 28.0321 5.63986C27.9887 5.14718 27.9372 4.85044 27.9178 4.98033ZM14.4999 6.19617C14.2679 6.25697 14.1464 6.48583 14.1464 6.86297C14.1464 7.1789 14.0457 7.47099 13.9222 7.512C13.7723 7.56209 13.7891 7.66208 13.9727 7.81419C14.1931 7.99659 14.2563 7.91943 14.2921 7.42534C14.3165 7.08618 14.4896 6.63976 14.6769 6.43291C14.864 6.22626 14.9803 6.06749 14.9353 6.08042C14.8902 6.09335 14.6945 6.14547 14.4999 6.19617ZM9.99717 6.47452C9.78991 6.80984 9.97596 6.8563 10.2658 6.54159C10.4092 6.38625 10.4373 6.25899 10.3282 6.25899C10.2194 6.25899 10.0703 6.35595 9.99717 6.47452ZM22.5799 6.39817C22.3701 6.45311 22.2264 6.68299 22.2264 6.96397C22.2264 7.22435 22.1129 7.47786 21.9739 7.52755C21.8352 7.57704 21.7875 7.68854 21.8681 7.7752C22.0927 8.01639 22.6218 7.48109 22.4921 7.14355C22.4293 6.97972 22.5482 6.71652 22.7567 6.55876C23.1546 6.25737 23.1468 6.2501 22.5799 6.39817ZM18.3884 6.96599C18.3884 7.24374 18.4567 7.47099 18.5399 7.47099C18.6232 7.47099 18.6914 7.24374 18.6914 6.96599C18.6914 6.68824 18.6232 6.46099 18.5399 6.46099C18.4567 6.46099 18.3884 6.68824 18.3884 6.96599ZM9.83718 7.20172C9.76305 7.27566 9.70245 7.43018 9.70245 7.54512C9.70245 7.67157 9.79658 7.65966 9.94141 7.51482C10.0729 7.38332 10.1335 7.22879 10.0761 7.17142C10.0188 7.11405 9.91111 7.12759 9.83718 7.20172ZM10.3084 7.52149C10.3084 7.69743 10.1949 7.88711 10.0559 7.94326C9.85819 8.02305 9.8596 8.04851 10.0622 8.06103C10.3503 8.07881 10.6314 7.52472 10.4345 7.32757C10.3652 7.25828 10.3084 7.34555 10.3084 7.52149ZM9.09645 12.218V15.551H10.3084H11.5204V12.3426C11.5204 8.73308 11.5982 8.89408 9.85395 8.88782L9.09645 8.88499V12.218ZM12.9478 9.17183C12.7599 9.39827 12.7169 10.2541 12.7821 12.4638L12.8704 15.45L14.1194 15.5102L15.3685 15.5706L15.313 12.2782L15.2574 8.98599L14.2295 8.926C13.5007 8.88358 13.1278 8.95508 12.9478 9.17183ZM21.1659 9.04841C20.847 9.11002 20.8124 9.42918 20.8124 12.3085V15.5005L21.455 15.629C21.8085 15.6997 22.4056 15.6999 22.7819 15.6292L23.4661 15.5009L23.4019 12.4111C23.3663 10.7119 23.2801 9.26435 23.2098 9.19445C23.0617 9.04699 21.6839 8.94862 21.1659 9.04841ZM17.0635 9.34838C17.0084 9.4922 16.9884 10.9692 17.0193 12.6309L17.0754 15.652L18.3379 15.7122L19.6004 15.7722V12.4297V9.08699H18.3822C17.5718 9.08699 17.1302 9.17446 17.0635 9.34838ZM2.66436 12.117C2.66436 12.3947 2.71022 12.5085 2.76617 12.3695C2.82233 12.2307 2.82233 12.0035 2.76617 11.8645C2.71022 11.7257 2.66436 11.8392 2.66436 12.117ZM25.2564 12.3071C25.2564 12.5228 25.3342 12.7472 25.4294 12.806C25.5243 12.8648 25.5592 12.6882 25.5067 12.4139C25.3928 11.8178 25.2564 11.7597 25.2564 12.3071ZM3.64245 12.925C3.46045 13.0426 3.4354 13.1219 3.58003 13.124C3.71234 13.1256 3.87677 13.0361 3.94545 12.925C4.10038 12.6741 4.03049 12.6741 3.64245 12.925ZM27.4944 13.2448C27.5041 13.4801 27.552 13.528 27.6164 13.367C27.6748 13.2211 27.6675 13.0468 27.6005 12.9797C27.5334 12.9127 27.4857 13.0318 27.4944 13.2448ZM35.3059 14.1507C34.3549 14.6529 34.3212 14.8173 35.249 14.4297C36.141 14.057 37.8415 14.053 38.5481 14.4218C39.1781 14.7509 39.7067 15.6576 40.0966 17.0781C40.3459 17.9865 40.3719 18.0166 40.3885 17.413C40.4232 16.1319 39.5181 14.6266 38.3461 14.0168C37.5799 13.6183 36.1996 13.6791 35.3059 14.1507ZM75.2597 13.9035C75.3367 14.0528 75.426 16.2798 75.4579 18.8525C75.4898 21.4251 75.6094 23.8027 75.7233 24.136C75.8758 24.5822 75.8979 24.1297 75.8061 22.419C75.6252 19.0355 75.6312 15.7287 75.8195 15.1343C75.9453 14.7367 75.8831 14.5022 75.5514 14.1243C75.3141 13.8536 75.1828 13.7542 75.2597 13.9035ZM28.0467 14.073C28.1923 14.1313 28.3666 14.1241 28.4337 14.057C28.5008 13.9899 28.3816 13.9423 28.1687 13.9509C27.9334 13.9606 27.8855 14.0085 28.0467 14.073ZM89.1335 14.2495C88.5578 14.6527 88.534 15.6282 89.0885 16.1029C89.7007 16.627 89.6316 17.7479 88.9537 18.2883C88.5645 18.5988 88.4152 18.904 88.4152 19.389C88.4152 19.874 88.5645 20.1792 88.9537 20.4897C89.6813 21.0698 89.6975 22.0986 88.9875 22.6571C88.2657 23.2248 88.271 24.4931 88.9969 24.9688C89.4531 25.2676 89.5048 25.4221 89.4514 26.3303C89.3953 27.2884 89.35 27.3666 88.7505 27.5377C88.3982 27.6381 87.8197 28.0196 87.4652 28.3855C86.2045 29.6863 86.5132 31.8338 88.1055 32.8392C90.2974 34.2227 93.1125 32.6137 92.8588 30.1225C92.7481 29.0363 92.2384 28.3194 91.141 27.7063C90.3501 27.2646 90.3005 27.1832 90.3005 26.3331C90.3005 25.6057 90.4051 25.3397 90.8372 24.968C91.5591 24.3469 91.55 23.2991 90.8176 22.7151C90.0962 22.1398 90.09 20.9258 90.8055 20.3628C91.1648 20.0802 91.3105 19.7702 91.3105 19.288C91.3105 18.8058 91.1648 18.4957 90.8055 18.2131C90.1615 17.7065 90.1106 16.5458 90.7045 15.9085C90.9267 15.67 91.1085 15.3102 91.1085 15.1088C91.1085 14.6402 90.4075 13.935 89.9415 13.935C89.7439 13.935 89.3803 14.0766 89.1335 14.2495ZM6.02867 14.477C6.17432 14.5353 6.34864 14.5281 6.41571 14.461C6.48277 14.3939 6.36359 14.3463 6.15068 14.3549C5.91535 14.3646 5.86748 14.4125 6.02867 14.477ZM62.1417 14.6622C62.075 14.8359 62.0233 15.1751 62.0269 15.4161C62.0332 15.8445 62.0396 15.8455 62.3299 15.4619C62.5786 15.1329 62.6265 15.123 62.6265 15.3995C62.6265 15.5809 62.7174 15.7853 62.8285 15.854C62.946 15.9267 63.0305 15.7237 63.0305 15.368C63.0305 14.6555 62.3511 14.1162 62.1417 14.6622ZM33.2256 14.7971C33.1714 14.9379 33.3039 15.5516 33.5201 16.1606C33.9117 17.265 33.913 17.266 33.9277 16.5236C33.9358 16.1142 34.0362 15.5326 34.1509 15.231C34.3339 14.7497 34.3216 14.7141 34.0499 14.9397C33.7936 15.1524 33.7404 15.1401 33.7404 14.8686C33.7404 14.4812 33.3668 14.4291 33.2256 14.7971ZM73.5345 14.8321C73.5345 14.9923 73.6254 15.1793 73.7365 15.248C73.8476 15.3167 73.9385 15.1856 73.9385 14.9569C73.9385 14.7282 73.8476 14.541 73.7365 14.541C73.6254 14.541 73.5345 14.6719 73.5345 14.8321ZM50.9104 15.4478C50.9104 15.8851 50.9921 16.1305 51.1124 16.056C51.2235 15.9873 51.3144 15.7829 51.3144 15.6015C51.3144 15.3239 51.3631 15.3338 51.6221 15.6639C51.915 16.0372 51.9269 16.0271 51.8746 15.45C51.8332 14.9963 51.7053 14.8278 51.3649 14.7793C50.9652 14.7226 50.9104 14.8032 50.9104 15.4478ZM62.6856 16.4481C62.4626 16.8466 62.8682 18.457 63.2514 18.6937C63.4753 18.8321 63.4716 18.7796 63.1541 17.273C62.9393 16.2552 62.866 16.1259 62.6856 16.4481ZM51.0755 17.006C51.1314 17.3886 51.2209 17.5203 51.3179 17.3635C51.4021 17.227 51.5811 17.1832 51.7152 17.266C51.8772 17.3662 51.9358 17.2975 51.8893 17.0622C51.851 16.8672 51.632 16.6384 51.4029 16.5539C51.0308 16.4166 50.9959 16.4646 51.0755 17.006ZM73.6789 18.884C73.6062 20.3283 73.5007 21.9645 73.4448 22.52C73.3886 23.0755 73.5167 22.621 73.729 21.51C74.1257 19.4363 74.2107 17.6542 73.9556 16.763C73.8677 16.4551 73.7597 17.2831 73.6789 18.884ZM50.9076 18.0255C50.9062 18.1645 50.8539 18.5052 50.7917 18.783C50.6824 19.2704 50.6895 19.2743 50.9965 18.8959C51.352 18.4574 51.4227 17.773 51.1124 17.773C51.0013 17.773 50.9092 17.8867 50.9076 18.0255ZM34.3598 18.581C34.3604 18.7476 34.4977 19.1112 34.665 19.389L34.9692 19.894L34.8355 19.389C34.7618 19.1112 34.6244 18.7476 34.5301 18.581C34.3778 18.3117 34.3588 18.3117 34.3598 18.581ZM52.1224 18.5612C52.1224 18.7709 52.5067 19.0745 52.6206 18.9547C52.6575 18.9159 52.5606 18.7668 52.405 18.6236C52.2497 18.4802 52.1224 18.4521 52.1224 18.5612ZM61.5371 18.6986C61.3161 19.2745 61.4086 19.474 61.711 19.0741C61.8742 18.8585 62.0105 18.6137 62.014 18.5305C62.0259 18.2483 61.6605 18.377 61.5371 18.6986ZM52.5264 19.3771C52.5264 19.4817 52.6163 19.6227 52.7262 19.6906C52.8406 19.7613 52.8745 19.6803 52.8056 19.5005C52.6713 19.1506 52.5264 19.0866 52.5264 19.3771ZM38.9924 20.298C38.6484 20.7979 38.4125 21.207 38.4681 21.207C38.5236 21.207 38.8504 20.7979 39.1944 20.298C39.5385 19.798 39.7744 19.389 39.7188 19.389C39.6633 19.389 39.3365 19.798 38.9924 20.298ZM13.3384 22.744C13.0607 22.7957 11.379 23.0708 9.60145 23.3557C2.31187 24.5232 1.29723 24.8474 0.421154 26.2881C-0.05193 27.066 0.165018 27.8324 1.07462 28.598C2.08058 29.4444 3.16694 29.7663 7.88445 30.6164C15.067 31.9106 16.219 31.8229 18.8967 29.7791C19.432 29.3704 20.1707 28.9105 20.5383 28.7569C21.7176 28.2643 22.1844 26.6293 21.4843 25.4441C21.129 24.8424 20.703 24.6503 19.7014 24.6406C19.289 24.6367 19.1821 24.58 19.3665 24.463C19.6849 24.2612 18.8737 23.6112 17.6827 23.1135C16.9387 22.8026 14.2513 22.5741 13.3384 22.744ZM36.4252 24.0673C36.4018 24.5976 36.4674 25.0836 36.5709 25.1474C36.6743 25.2114 36.7472 24.9563 36.7331 24.58C36.7189 24.2041 36.7575 23.814 36.8187 23.7132C36.8799 23.6124 36.826 23.434 36.6987 23.3167C36.5278 23.1591 36.4563 23.3553 36.4252 24.0673ZM60.4717 23.3191C60.4717 23.4809 60.5475 23.5664 60.6402 23.5092C60.7327 23.452 60.8085 23.3197 60.8085 23.2151C60.8085 23.1104 60.7327 23.025 60.6402 23.025C60.5475 23.025 60.4717 23.1573 60.4717 23.3191ZM18.1709 23.7053C19.0674 24.0017 19.1296 24.2596 18.4044 24.6721C17.635 25.1098 17.1114 25.9316 17.1324 26.6683C17.1538 27.4189 17.7128 28.3733 18.3216 28.6994C18.9092 29.0137 18.9082 29.1185 18.3097 29.8296C17.4108 30.8979 15.6847 31.1074 11.8234 30.6172C4.93949 29.7429 3.5768 29.4791 2.02645 28.72C0.0846221 27.7692 -0.0385978 26.3699 1.7283 25.3345C2.42742 24.9248 3.18431 24.7598 5.80587 24.4461C7.5762 24.2342 9.26916 23.9994 9.56771 23.9245C9.86627 23.8496 11.2231 23.6698 12.583 23.5251C15.1459 23.2526 16.9807 23.3116 18.1709 23.7053ZM35.6847 24.8022C35.63 24.8909 35.6685 25.0953 35.7708 25.2567C35.9156 25.4858 35.957 25.4504 35.9594 25.0955C35.9624 24.6283 35.8598 24.5186 35.6847 24.8022ZM52.9977 25.348C52.9977 25.5146 53.0735 25.651 53.1662 25.651C53.2587 25.651 53.3344 25.5146 53.3344 25.348C53.3344 25.1813 53.2587 25.045 53.1662 25.045C53.0735 25.045 52.9977 25.1813 52.9977 25.348ZM19.9667 25.8025C19.9297 25.997 19.6958 26.1851 19.4469 26.2206C19.1033 26.2695 18.9944 26.1845 18.9944 25.8671C18.9944 25.5526 19.1233 25.449 19.5142 25.449C19.9004 25.449 20.0168 25.5399 19.9667 25.8025ZM76.0094 26.964C76.0116 27.4084 76.053 27.5664 76.1013 27.3151C76.1495 27.0638 76.1477 26.7002 76.0972 26.5071C76.0467 26.314 76.0071 26.5196 76.0094 26.964ZM72.9794 27.772C72.9816 28.2164 73.023 28.3744 73.0713 28.1231C73.1195 27.8718 73.1177 27.5082 73.0672 27.3151C73.0167 27.122 72.9771 27.3276 72.9794 27.772ZM90.9428 28.5111C91.5236 28.7333 92.1189 29.756 92.1176 30.5295C92.1156 31.8906 90.6434 32.8947 89.225 32.503C88.1441 32.2045 87.5735 31.444 87.5735 30.3018C87.5735 28.4735 88.9424 27.7459 90.9428 28.5111ZM72.7774 29.388C72.7796 29.8324 72.821 29.9904 72.8693 29.7391C72.9175 29.4878 72.9157 29.1242 72.8652 28.9311C72.8147 28.738 72.7751 28.9436 72.7774 29.388ZM75.7958 29.186C75.7999 29.5193 75.8451 29.6312 75.8964 29.4347C75.9477 29.2381 75.9443 28.9654 75.889 28.8287C75.8336 28.6919 75.7918 28.8527 75.7958 29.186ZM70.9632 29.6797C70.9785 29.8831 71.1597 30.1546 71.3658 30.2835C71.6979 30.4907 71.7171 30.4733 71.5336 30.1307C71.4197 29.918 71.3728 29.6979 71.4292 29.6415C71.4858 29.5851 71.3977 29.4874 71.2337 29.4244C71.0331 29.3474 70.9444 29.4312 70.9632 29.6797ZM77.4423 30.2271C77.4201 30.6105 77.4623 30.6822 77.5908 30.4794C77.811 30.1316 77.8302 29.691 77.625 29.6912C77.5415 29.6912 77.4595 29.9324 77.4423 30.2271ZM71.0072 30.8446C71.2603 31.1327 71.351 31.1442 71.5635 30.9151C71.7708 30.6919 71.7569 30.6626 71.4886 30.7565C71.3076 30.8198 71.0573 30.7879 70.9323 30.6858C70.8073 30.5838 70.841 30.6553 71.0072 30.8446ZM76.9685 30.903C76.9685 31.0272 76.8549 31.0634 76.716 30.9834C76.5772 30.9034 76.6709 31.0662 76.9246 31.3452C77.3333 31.7944 77.3506 31.8817 77.0761 32.1093C76.4521 32.6273 76.8446 33.529 77.6942 33.529C78.1126 33.529 78.3825 33.185 78.3825 32.6519C78.3825 32.521 78.1552 32.1687 77.8775 31.8692C77.5997 31.5698 77.3725 31.2351 77.3725 31.1258C77.3725 31.0163 77.2816 30.8707 77.1705 30.802C77.0594 30.7333 76.9685 30.7788 76.9685 30.903ZM71.262 32.0079C70.8295 32.6026 70.8135 32.9967 71.2088 33.3248C71.6732 33.7102 72.5259 33.413 72.5178 32.8687C72.5121 32.4877 71.9007 31.4953 71.6841 31.5153C71.6464 31.5189 71.4563 31.7405 71.262 32.0079ZM33.4374 32.5133L28.7914 32.62L28.7282 33.2765L28.6648 33.933L31.2532 33.932C32.6767 33.9316 34.8642 33.8722 36.1139 33.8003L38.3864 33.6692V32.9931C38.3864 32.6212 38.3182 32.3372 38.2349 32.3618C38.1517 32.3865 35.9927 32.4546 33.4374 32.5133ZM39.0066 32.4566C39.0145 32.5465 39.0989 32.8018 39.1944 33.024C39.3619 33.4135 39.3686 33.412 39.3823 32.9854C39.39 32.742 39.3055 32.4867 39.1944 32.418C39.0833 32.3493 38.9989 32.3667 39.0066 32.4566ZM4.85869 37.1296C4.38177 37.6068 4.26663 37.9294 4.15714 39.0991C4.08523 39.8686 3.9408 41.2706 3.83637 42.215C3.4964 45.2906 3.53983 46.3505 4.04039 47.1993C4.92515 48.6988 4.45368 50.0871 3.05564 50.0995C2.1931 50.1071 1.62245 50.4861 1.62245 51.0513C1.62245 51.6389 2.07028 51.7031 6.1933 51.7062C9.31946 51.7086 9.89455 51.6613 10.1256 51.3828C10.3587 51.102 10.3185 50.9899 9.83617 50.5748C9.48893 50.2762 9.0209 50.093 8.60498 50.093C8.23593 50.093 7.8194 49.955 7.67962 49.7866C7.26027 49.2814 7.3944 48.0475 7.9806 47.0131L8.52438 46.0542L8.20442 43.1236C8.02847 41.5116 7.88445 39.7979 7.88445 39.3151C7.88445 38.0599 7.52691 37.1993 6.86253 36.8559C6.01817 36.4192 5.49822 36.4901 4.85869 37.1296ZM50.5569 38.1386C50.3069 38.174 50.0893 38.3103 50.0734 38.4416C49.9402 39.5339 49.9631 40.8159 50.1174 40.9113C50.2309 40.9814 50.2196 41.188 50.0889 41.4322C49.9326 41.7243 49.9364 41.914 50.1024 42.114C50.2594 42.3031 50.2693 42.5093 50.1336 42.7628C50.0043 43.0044 50.0035 43.2573 50.1313 43.4856C50.2471 43.6928 50.3208 46.2322 50.3105 49.6765C50.3002 53.1749 50.3705 55.564 50.4856 55.6351C50.5913 55.7005 50.7196 55.5937 50.7707 55.3979C50.8286 55.1759 50.8725 55.2511 50.887 55.5975C50.8999 55.9029 50.9785 56.1423 51.0619 56.1292C51.4664 56.0651 51.6985 56.1843 51.797 56.5065C51.9528 57.0149 51.7283 53.0646 51.5132 51.507C51.3193 50.1039 51.2104 43.9633 51.3746 43.691C51.5294 43.4345 51.4326 40.0435 51.2658 39.8768C51.1834 39.7944 51.2173 39.605 51.3413 39.4557C51.7035 39.0192 51.1306 38.057 50.5569 38.1386ZM39.4235 38.764C39.1334 39.2066 39.0862 40.3217 39.0343 47.9627C39.0015 52.7451 39.026 56.8624 39.0886 57.1125C39.1914 57.5244 39.3227 57.567 40.4893 57.567H41.7762L41.8695 56.8095C42.0319 55.4888 41.6399 40.4178 41.4227 39.6334C41.1258 38.5614 40.9177 38.3115 40.2994 38.2845C39.9243 38.2681 39.6506 38.418 39.4235 38.764ZM63.4664 38.3901C63.206 38.4946 62.9169 38.5327 62.8238 38.4752C62.7307 38.4176 62.5972 38.463 62.5271 38.5762C62.4489 38.703 62.2687 38.7133 62.0586 38.6034C61.6217 38.3746 60.8085 38.6754 60.8085 39.0658C60.8085 39.2551 60.661 39.3355 60.4045 39.286C60.1823 39.2432 60.0005 39.2939 60.0005 39.3985C60.0005 39.5033 59.8544 39.589 59.6758 39.589C59.4702 39.589 59.3938 39.7001 59.4676 39.892C59.5314 40.0586 59.4985 40.195 59.3945 40.195C59.2904 40.195 59.2631 40.3463 59.334 40.5311C59.4209 40.7572 59.3858 40.8194 59.2268 40.7212C59.0858 40.6339 58.9905 40.6996 58.9905 40.8838C58.9905 41.0751 58.8753 41.148 58.6875 41.0761C58.5208 41.0121 58.3729 41.0377 58.3586 41.1329C58.3445 41.228 58.2911 41.5332 58.2398 41.811C58.0829 42.6638 58.0972 43.5096 58.2756 43.9047C58.4192 44.2233 58.38 44.2609 58.0213 44.1469C57.6609 44.0326 57.6882 44.11 58.2029 44.661C58.6182 45.1054 58.7343 45.3555 58.5723 45.4557C58.4073 45.5577 58.4463 45.6635 58.7018 45.8066C58.903 45.9191 59.4367 46.3427 59.8875 46.7477C60.8773 47.6369 62.4873 48.7053 63.384 49.0683L64.0405 49.3341V50.9254V52.517H64.6465H65.2525V50.8C65.2525 49.6951 65.331 49.083 65.4726 49.083C65.5938 49.083 66.601 48.1673 67.7106 47.0483C69.0993 45.648 69.6904 44.9147 69.6068 44.6968C69.5116 44.4487 69.5447 44.4293 69.7591 44.6073C69.9687 44.7812 70.0332 44.7642 70.0332 44.5348C70.0332 44.3699 69.9463 44.235 69.8401 44.235C69.7338 44.235 69.7643 44.0936 69.9079 43.9207C70.0514 43.7478 70.0853 43.6221 69.9831 43.6415C69.5128 43.731 69.4619 43.5953 69.8166 43.1981C70.1998 42.7693 70.1992 42.7681 69.6965 42.9198C69.4187 43.0038 69.0931 43.1507 68.9729 43.2462C68.7289 43.4403 68.7107 42.8681 68.9489 42.4828C69.0436 42.3295 68.9559 42.2879 68.6867 42.3584C68.3843 42.4374 68.2825 42.3647 68.2825 42.07C68.2825 41.8532 68.0098 41.4329 67.6765 41.1359C67.3432 40.8388 67.0705 40.4946 67.0705 40.3707C67.0705 40.2168 66.9907 40.2099 66.818 40.3489C66.4499 40.6457 65.6322 40.2909 65.7825 39.8997C65.8479 39.7288 65.7989 39.589 65.673 39.589C65.5474 39.589 65.3601 39.3672 65.2571 39.0963C65.0593 38.5764 64.2425 37.9914 64.2425 38.3699C64.2425 38.4849 64.1461 38.579 64.0285 38.579C63.911 38.579 63.8708 38.4881 63.9395 38.377C64.0847 38.1421 64.0857 38.1421 63.4664 38.3901ZM83.4325 38.32C80.542 38.7438 79.6522 39.3409 79.1042 41.2244L78.7865 42.316L76.7275 42.3596C74.8782 42.3988 74.6208 42.4507 74.2025 42.8691C73.7847 43.287 73.7603 43.4072 73.9655 44.0374C74.3879 45.3345 74.3982 45.3422 75.8247 45.4056C76.7509 45.447 77.5807 45.3365 78.516 45.0476C79.3428 44.7923 79.9407 44.7024 80.0548 44.8166C80.1689 44.9307 80.4885 44.9287 80.8774 44.8115C81.2272 44.7063 83.0133 44.6438 84.8465 44.6731C87.4918 44.7154 88.2837 44.7931 88.6845 45.0499C90.4437 46.1772 93.6098 46.3316 94.492 45.3331C95.1143 44.6285 95.0891 43.6276 94.4293 42.8434C93.6936 41.9692 92.8608 41.8732 90.4214 42.3818C88.7343 42.7335 87.7177 42.8038 84.5435 42.7879C82.4326 42.7774 80.5919 42.7252 80.453 42.6723C80.3063 42.6162 80.2005 42.2196 80.2005 41.7262C80.2005 40.7388 80.8994 39.91 81.9976 39.5949C83.4569 39.1765 86.9549 39.1169 88.9525 39.4765C91.3375 39.9059 92.4146 39.8078 90.3005 39.3537C88.8125 39.0339 88.8026 39.0276 89.745 39.0056C90.2728 38.9931 90.7045 38.9046 90.7045 38.8087C90.7045 38.7129 90.5 38.6382 90.25 38.6426C89.7027 38.6527 85.1553 38.3883 84.4425 38.3051C84.1647 38.2726 83.7102 38.2794 83.4325 38.32ZM85.2505 38.781C84.9727 38.8699 84.2701 38.9517 83.689 38.9628C81.3995 39.0064 79.7965 40.1625 79.7965 41.7698C79.7965 42.3887 79.7209 42.6261 79.544 42.5638C79.2036 42.4441 79.2696 41.4228 79.6722 40.5792C80.0649 39.7567 81.0202 39.066 82.1221 38.8081C83.1383 38.5701 85.9857 38.5455 85.2505 38.781ZM27.717 40.1114C26.2085 41.168 25.7249 43.6615 26.7391 45.1541C27.4075 46.1376 27.4201 46.9289 26.7894 48.3546C26.5216 48.9602 26.3549 49.5082 26.4192 49.5724C26.5961 49.7492 31.3813 49.7058 31.6663 49.5248C31.8568 49.4038 31.8255 49.1991 31.5338 48.6548C31.3239 48.2633 31.0415 47.5734 30.9062 47.122C30.6779 46.3596 30.7018 46.2245 31.2409 45.2335C32.2004 43.4692 31.7994 41.2581 30.3303 40.212C29.6196 39.706 28.3648 39.6577 27.717 40.1114ZM19.7087 42.2083C18.2361 43.1789 17.7396 45.6102 18.6967 47.164C19.3049 48.1514 19.334 49.1327 18.7924 50.396C18.5702 50.9143 18.3884 51.422 18.3884 51.5238C18.3884 51.7684 23.5821 51.765 23.7332 51.5203C23.7974 51.4165 23.6578 50.9634 23.4233 50.5134C22.751 49.2234 22.6971 48.2296 23.2506 47.3246C23.8915 46.2766 23.8917 44.4503 23.251 43.383C22.3802 41.9322 20.8815 41.4353 19.7087 42.2083ZM93.4042 43.2397C94.3978 44.0213 93.9199 45.0987 92.5875 45.0804C91.8181 45.0697 88.8865 44.0789 88.8865 43.8294C88.8865 43.7264 89.7395 43.4369 91.3105 43.007C92.2487 42.7503 92.8697 42.8192 93.4042 43.2397ZM75.7017 43.347C75.6346 43.4141 75.4603 43.4213 75.3147 43.363C75.1535 43.2985 75.2014 43.2507 75.4367 43.241C75.6496 43.2323 75.7688 43.2799 75.7017 43.347ZM79.1905 43.831C79.1905 43.9421 79.0644 44.033 78.9105 44.033C78.7566 44.033 78.3703 44.1687 78.052 44.3348C77.3704 44.6903 76.744 44.7147 75.706 44.4263C74.8973 44.2019 74.724 43.9193 75.302 43.7682C76.0227 43.5799 79.1905 43.631 79.1905 43.831ZM82.5235 48.056C81.4131 48.2407 80.2033 48.8753 79.732 49.5207C79.5155 49.8173 79.2327 50.4766 79.1032 50.986L78.8681 51.9126L76.7832 52.0001C75.0212 52.074 74.6291 52.1528 74.2499 52.5091C73.8356 52.8982 73.8193 53.001 74.035 53.8504C74.1635 54.3564 74.3988 54.8529 74.558 54.9537C74.9969 55.2313 76.3043 55.1731 77.8775 54.8059C78.6552 54.6243 79.5884 54.4831 79.9512 54.4922C80.3768 54.5029 80.5628 54.4309 80.4754 54.2897C80.4004 54.1681 80.433 54.1279 80.5485 54.1995C80.8856 54.4077 87.8765 54.4608 87.8765 54.2552C87.8765 54.1536 88.0356 54.2136 88.23 54.3885C88.4243 54.5635 89.2198 54.9491 89.9975 55.2454C91.1907 55.7001 91.6165 55.7668 92.7245 55.6714C93.8049 55.5783 94.1178 55.466 94.492 55.0363C95.0323 54.4158 95.0784 53.5098 94.6101 52.717C93.9603 51.6169 92.9178 51.4739 90.0956 52.098C88.7212 52.4021 87.5967 52.4754 84.4956 52.4625C82.3612 52.4536 80.5127 52.3831 80.3875 52.3057C80.0932 52.1239 80.094 50.8713 80.3889 50.32C80.515 50.0849 81.0012 49.6943 81.4696 49.4523C82.6436 48.8456 87.2769 48.6762 89.3535 49.1638C90.9669 49.5427 91.7145 49.5743 91.7145 49.2634C91.7145 49.1404 91.6009 49.0832 91.462 49.1363C91.3232 49.1895 90.6641 49.1157 89.9975 48.9729L88.7855 48.7129L89.745 48.696C90.2728 48.6867 90.7045 48.5917 90.7045 48.4851C90.7045 48.3784 90.4544 48.299 90.149 48.3083C89.8435 48.3178 88.4572 48.2253 87.0685 48.1029C84.3136 47.8599 83.7381 47.854 82.5235 48.056ZM86.0073 48.3934C85.9423 48.4586 85.1771 48.5578 84.3071 48.614C82.0889 48.757 81.2353 49.0177 80.4651 49.788C79.9021 50.3509 79.7965 50.6032 79.7965 51.3858C79.7965 52.2801 79.5017 52.6325 79.2664 52.0195C79.0941 51.5708 79.7512 49.7993 80.2576 49.3466C80.7347 48.9202 81.5965 48.5485 82.4225 48.413C83.2349 48.2794 86.137 48.2637 86.0073 48.3934ZM93.2248 52.7535C93.8346 53.0315 94.0637 53.7199 93.7445 54.3162C93.5712 54.64 93.3238 54.739 92.6871 54.739C91.8944 54.739 88.8933 53.7635 88.8887 53.5046C88.885 53.3064 91.3498 52.5511 92.0585 52.5334C92.4144 52.5243 92.9392 52.6234 93.2248 52.7535ZM75.605 53.0547C75.4662 53.1109 75.2389 53.1109 75.1 53.0547C74.9612 52.9988 75.0747 52.9529 75.3525 52.9529C75.6302 52.9529 75.7439 52.9988 75.605 53.0547ZM79.1905 53.527C79.1905 53.6381 79.0268 53.729 78.8269 53.729C78.6269 53.729 78.3659 53.8264 78.2469 53.9453C77.954 54.2382 76.0013 54.2197 75.2515 53.9171L74.6455 53.6722L75.1505 53.5187C75.9197 53.285 79.1905 53.2917 79.1905 53.527ZM63.8825 56.9656C63.5124 57.5581 63.8926 58.173 64.6289 58.173C65.447 58.173 65.7954 57.6991 65.4508 57.0551C65.1163 56.4303 64.2477 56.3807 63.8825 56.9656ZM64.8485 57.163C64.8485 57.2741 64.7576 57.365 64.6465 57.365C64.5354 57.365 64.4445 57.2741 64.4445 57.163C64.4445 57.0519 64.5354 56.961 64.6465 56.961C64.7576 56.961 64.8485 57.0519 64.8485 57.163ZM1.31884 57.7696C1.12553 57.9831 1.02008 58.2952 1.08452 58.4629C1.15017 58.634 1.0417 58.8812 0.83788 59.026C0.6379 59.1678 0.426608 59.4203 0.36823 59.587C0.194106 60.0841 0.852424 60.9822 1.56266 61.2165C2.15876 61.4133 2.32036 61.3717 3.1633 60.8026L4.10079 60.17L11.3962 60.2698C15.4085 60.3247 18.8732 60.3871 19.0954 60.4087C19.3176 60.4301 19.8176 60.3863 20.2064 60.3114C20.5953 60.2364 21.6245 60.1453 22.4935 60.109C24.481 60.0257 24.9082 59.7038 23.4096 59.4187C21.5901 59.0727 20.4939 58.9838 20.823 59.2089C21.0268 59.3482 20.8399 59.3749 20.2064 59.2965C19.7065 59.2349 19.4536 59.2525 19.6443 59.3355C19.8503 59.4252 19.4344 59.5036 18.6199 59.5282C17.8657 59.551 17.0278 59.6492 16.7579 59.7466C16.4882 59.8437 13.5255 59.9466 10.1741 59.9746L4.08079 60.0259L3.67659 59.1123C3.38045 58.4427 3.05847 58.0894 2.47145 57.7898C1.68163 57.387 1.66547 57.3866 1.31884 57.7696ZM22.4828 58.919C22.6793 58.9703 22.952 58.9669 23.0888 58.9115C23.2255 58.8562 23.0647 58.8143 22.7314 58.8184C22.3981 58.8224 22.2862 58.8677 22.4828 58.919ZM23.6404 59.7108C23.6404 59.7538 23.3168 59.789 22.9215 59.789C22.5262 59.789 22.2495 59.7132 22.3066 59.6207C22.405 59.4616 23.6404 59.545 23.6404 59.7108ZM23.4007 60.533C23.5463 60.5913 23.7206 60.5841 23.7877 60.517C23.8548 60.4499 23.7356 60.4023 23.5227 60.411C23.2874 60.4207 23.2395 60.4685 23.4007 60.533ZM82.9903 61.3525C83.1416 61.4022 82.8549 61.6933 82.3225 62.031C81.1785 62.7564 80.9178 63.343 80.6242 65.849C80.5006 66.9044 80.2623 68.7224 80.0946 69.889C79.9271 71.0555 79.6645 72.9475 79.511 74.0934C79.3577 75.2392 79.1795 76.2294 79.1151 76.2936C79.0509 76.3578 78.8666 76.3015 78.7059 76.168C78.4667 75.9696 78.4002 76.0102 78.3396 76.3918C78.2574 76.9103 78.556 77.767 78.819 77.767C79.0917 77.767 79.0137 77.3652 78.736 77.3404C78.5972 77.3279 79.1198 77.1972 79.8975 77.0497C82.5299 76.551 93.0977 76.8519 94.3744 77.462C94.9085 77.7173 94.9123 77.7137 94.8061 77.059C94.7263 76.5665 94.8032 76.2942 95.1089 75.9886C95.3343 75.7632 95.5718 75.6165 95.6367 75.6628C95.7015 75.7092 95.7098 75.6872 95.6553 75.6141C95.6005 75.541 95.6573 75.3592 95.7809 75.2101C95.9047 75.0608 95.9193 74.939 95.8132 74.939C95.7074 74.939 95.4991 75.1662 95.3505 75.444C95.2018 75.7217 94.9592 75.949 94.8113 75.949C94.6634 75.949 94.5425 76.0399 94.5425 76.151C94.5425 76.2621 94.4178 76.353 94.2657 76.353C94.0665 76.353 93.8926 75.6876 93.6456 73.9795C93.2559 71.2868 92.4695 67.005 91.9991 65.0139C91.7155 63.8138 91.5583 63.5539 90.4934 62.5239L89.3044 61.3737L86.621 61.4234C85.145 61.4506 83.6648 61.4264 83.3315 61.3692C82.9982 61.3123 82.8446 61.3048 82.9903 61.3525ZM92.9551 63.684C92.9283 64.777 93.3943 66.4584 93.6524 66.2003C93.7155 66.1373 93.6524 65.8732 93.5123 65.6139C93.3721 65.3543 93.1959 64.5511 93.1206 63.829L92.9838 62.516L92.9551 63.684ZM79.3165 63.7359C79.1216 64.2437 79.1789 64.3748 79.4171 63.9653C79.5351 63.7625 79.589 63.5541 79.5369 63.5022C79.485 63.45 79.3856 63.5553 79.3165 63.7359ZM28.142 64.4671C27.7202 64.8889 27.6732 64.895 27.3183 64.5738C27.111 64.3863 26.8805 64.233 26.806 64.233C26.7315 64.233 26.6733 67.1644 26.6765 70.7475C26.6799 74.3306 26.7573 77.1256 26.8486 76.959C26.9399 76.7923 27.1292 75.7242 27.2692 74.5855C27.4094 73.4468 27.5849 72.515 27.6594 72.515C27.734 72.515 27.9107 73.4899 28.0521 74.6812C28.3044 76.8047 28.3832 77.1317 28.5923 76.9224C28.6494 76.8653 28.6723 73.9387 28.6428 70.419L28.5894 64.0195L28.142 64.4671ZM50.158 64.4691C49.7382 64.8891 49.6912 64.895 49.3363 64.5738C49.129 64.3863 48.9012 64.233 48.8296 64.233C48.7581 64.233 48.7 67.1644 48.7004 70.7475C48.7012 77.502 48.8569 78.4407 49.3183 74.4716C49.4567 73.2804 49.6344 72.3756 49.713 72.4609C49.8316 72.5895 50.3044 76.0116 50.3044 76.7408C50.3044 76.8608 50.441 76.959 50.6081 76.959C50.8717 76.959 50.9102 76.1754 50.901 71.0271C50.8949 67.7646 50.8256 64.8541 50.7468 64.5594L50.6034 64.0237L50.158 64.4691ZM31.1144 66.7255C31.1144 68.0964 31.0547 71.0052 30.9815 73.1895C30.8945 75.7868 30.9183 77.161 31.05 77.161C31.2344 77.161 31.4526 76.1363 31.8453 73.424L31.9917 72.414L32.1545 73.222C32.244 73.6664 32.4186 74.6889 32.5422 75.4945C32.6658 76.3001 32.8496 76.959 32.9506 76.959C33.0571 76.959 33.1344 74.2819 33.1344 70.596C33.1344 65.1715 33.0912 64.233 32.8415 64.233C32.6804 64.233 32.4606 64.3902 32.3531 64.5823C32.1677 64.9133 32.1374 64.9133 31.7716 64.5823C31.5593 64.3902 31.3245 64.233 31.25 64.233C31.1755 64.233 31.1144 65.3547 31.1144 66.7255ZM35.3564 70.697C35.3564 74.2522 35.431 77.161 35.5221 77.161C35.6849 77.161 36.1644 74.0902 36.1644 73.0477C36.1644 72.7546 36.2448 72.515 36.343 72.515C36.4412 72.515 36.646 73.4848 36.7983 74.6699C36.9799 76.0837 37.1678 76.8558 37.3441 76.9146C37.5653 76.9883 37.6011 75.8882 37.5453 70.7364C37.508 67.2891 37.4098 64.4009 37.3272 64.3182C37.2445 64.2356 36.9864 64.3407 36.7535 64.5513C36.3533 64.9135 36.3157 64.9152 36.0733 64.5839C35.411 63.6779 35.3564 64.1437 35.3564 70.697ZM40.0253 70.7475L40.0479 77.262L40.4172 75.444C40.6202 74.4441 40.7975 73.3533 40.8113 73.02C40.8502 72.0698 41.1355 72.9525 41.3007 74.535C41.4928 76.3754 41.6217 76.959 41.8364 76.959C41.9459 76.959 42.0224 74.3372 42.0224 70.596C42.0224 64.1455 41.9669 63.6793 41.3056 64.5839C41.0619 64.917 41.0294 64.917 40.6614 64.5839C40.4481 64.391 40.2125 64.233 40.138 64.233C40.0635 64.233 40.0128 67.1644 40.0253 70.7475ZM44.3947 64.4855C44.3424 64.6245 44.283 67.5555 44.2628 70.999C44.2234 77.6935 44.3796 78.5441 44.9502 74.7449C45.1244 73.5858 45.2969 72.6073 45.3334 72.5708C45.37 72.534 45.4595 72.9384 45.5322 73.469C45.8293 75.6387 46.1142 76.959 46.2847 76.959C46.3873 76.959 46.4632 74.2084 46.4604 70.596C46.4551 63.9536 46.4378 63.8308 45.6073 64.5823C45.2415 64.9133 45.2112 64.9133 45.0258 64.5823C44.7961 64.1716 44.5283 64.1306 44.3947 64.4855ZM79.3925 65.6351C79.3925 65.7397 79.4823 65.8807 79.5922 65.9486C79.7066 66.0193 79.7405 65.9383 79.6716 65.7585C79.5373 65.4086 79.3925 65.3446 79.3925 65.6351ZM59.9661 67.1919L58.8252 68.3328L57.5851 67.2543L56.3453 66.1756L55.1933 67.3398L54.0415 68.5041L55.252 69.6153L56.4626 70.7267L55.555 71.5866C53.9889 73.0707 54.0073 72.9394 55.2007 74.1033C55.7853 74.6734 56.3578 75.14 56.4731 75.1404C56.5883 75.1408 57.1302 74.6865 57.6775 74.131C58.2247 73.5755 58.7539 73.121 58.8535 73.121C58.9533 73.121 59.532 73.5755 60.1398 74.131C60.7476 74.6865 61.309 75.141 61.3872 75.141C61.4654 75.141 62.0261 74.6364 62.6333 74.0197L63.7375 72.8982L62.576 71.8482C61.937 71.2705 61.4145 70.7067 61.4145 70.5952C61.4145 70.4837 61.869 69.9841 62.4245 69.485C62.98 68.9859 63.4345 68.4831 63.4345 68.3677C63.4345 68.1649 61.3993 66.051 61.204 66.051C61.1506 66.051 60.5937 66.5645 59.9661 67.1919ZM67.6203 67.1194L66.4533 68.172L67.3722 69.081C68.8557 70.5485 68.8553 70.5376 67.4745 71.6224C66.8079 72.1461 66.2627 72.6748 66.2631 72.7974C66.2641 73.1774 68.313 75.1454 68.5578 75.0016C68.684 74.9273 69.2735 74.4552 69.8677 73.9524L70.9478 73.0382L72.0897 74.2912L73.2315 75.5444L74.3812 74.5851C75.0137 74.0577 75.5363 73.5246 75.5427 73.4006C75.5492 73.2765 75.0993 72.6857 74.543 72.0876L73.5318 71L74.7889 69.8538L76.0461 68.7077L75.0286 67.6318C74.4689 67.0402 73.9407 66.5233 73.8546 66.4835C73.7688 66.4435 73.2062 66.8358 72.6046 67.3549C71.8831 67.9779 71.3914 68.2609 71.1593 68.1865C70.9658 68.1247 70.4162 67.6189 69.9378 67.0626C69.4595 66.5061 69.005 66.0546 68.9278 66.0589C68.8507 66.0631 68.2622 66.5404 67.6203 67.1194ZM27.9744 66.6285C28.1093 67.0535 27.9271 67.667 27.6659 67.667C27.3861 67.667 27.0654 66.916 27.1979 66.5705C27.3647 66.1358 27.8291 66.1704 27.9744 66.6285ZM32.3921 66.5366C32.5519 66.9531 32.3192 67.667 32.0234 67.667C31.7277 67.667 31.495 66.9531 31.6548 66.5366C31.7148 66.3807 31.8806 66.253 32.0234 66.253C32.1663 66.253 32.3321 66.3807 32.3921 66.5366ZM36.7555 66.6291C37.0341 67.1495 36.4854 67.9344 36.1713 67.465C35.8217 66.9424 35.9477 66.253 36.3929 66.253C36.4816 66.253 36.6448 66.4223 36.7555 66.6291ZM41.3064 66.6285C41.4373 67.0406 41.2617 67.667 41.0155 67.667C40.6878 67.667 40.3788 67.0622 40.5044 66.6667C40.6682 66.1504 41.1474 66.1276 41.3064 66.6285ZM45.7334 66.7027C45.878 66.9321 45.8602 67.1208 45.6726 67.347C45.2989 67.7973 45.0799 67.7456 44.9363 67.1735C44.7155 66.294 45.2692 65.967 45.7334 66.7027ZM50.0014 66.9628C50.0014 67.8359 49.4154 67.7741 49.3308 66.8919C49.2771 66.3316 49.3282 66.2298 49.6338 66.2888C49.8914 66.3384 50.0014 66.54 50.0014 66.9628ZM93.5991 66.7414C93.6736 66.9354 93.7345 67.2283 93.7345 67.3925C93.7345 67.5565 93.8169 67.6399 93.9175 67.5777C94.1393 67.4406 93.9706 66.7018 93.6757 66.5196C93.5426 66.4374 93.5141 66.5196 93.5991 66.7414ZM78.9729 67.5155C78.864 67.8718 78.845 68.2817 78.9422 68.1847C79.0895 68.0373 79.1925 67.465 79.0717 67.465C79.0258 67.465 78.9816 67.4878 78.9729 67.5155ZM9.70689 68.3481C9.70305 68.8408 9.6568 68.8905 9.39945 68.677C8.99929 68.3449 9.01585 68.5633 9.44207 69.2396C9.78567 69.7848 9.78527 69.786 9.37561 69.4345C8.78355 68.9265 8.59246 68.9992 8.97686 69.586C9.41177 70.2496 9.20593 70.23 8.57327 69.5474C8.22058 69.1666 8.11291 69.117 8.21452 69.3816C8.3539 69.7448 8.33935 69.7444 7.83981 69.3697C7.55398 69.1553 7.35763 68.9182 7.40349 68.8424C7.44954 68.7669 7.39238 68.6465 7.27683 68.575C7.16109 68.5035 7.0914 68.5653 7.1219 68.7125C7.1524 68.8596 7.04837 68.9521 6.89081 68.9182C6.65366 68.8669 6.64922 68.9107 6.86495 69.1707C7.00858 69.3436 7.05342 69.485 6.96494 69.485C6.87647 69.485 7.00858 69.7028 7.25845 69.9688C7.87637 70.6265 7.4861 70.8091 6.54297 70.3035C5.69396 69.8486 5.39641 69.9223 5.95535 70.4493C6.15896 70.641 6.26178 70.6845 6.18401 70.5455C6.10624 70.4067 6.09028 70.293 6.14846 70.293C6.20664 70.293 6.34622 70.4651 6.45893 70.6754C6.63427 71.0032 6.59468 71.0535 6.17997 71.0289C5.91394 71.0129 5.73032 70.9661 5.77173 70.9245C5.84384 70.8523 4.52115 69.889 4.34985 69.889C4.3044 69.889 4.41308 70.1431 4.59144 70.4538C4.76981 70.7645 5.24269 71.1711 5.64245 71.3573L6.36945 71.6959L5.46045 71.6036C4.9605 71.5529 4.43792 71.5193 4.29895 71.5292C4.16017 71.5391 3.46327 71.5603 2.75062 71.5765C1.739 71.5995 1.50084 71.6613 1.66426 71.8585C1.81091 72.035 1.80566 72.111 1.64709 72.111C1.52246 72.111 1.24006 72.2914 1.01948 72.512C0.61972 72.9117 0.619922 72.9131 1.17098 73.0549L1.72345 73.197L1.21845 73.3408L0.713448 73.4848L1.26895 73.5048C2.2337 73.5397 1.7889 74.131 0.797884 74.131C0.378532 74.131 0.24602 74.5322 0.662948 74.5394C0.801924 74.5419 0.689612 74.7176 0.413478 74.9297C0.137344 75.1418 -0.0444559 75.3442 0.00947814 75.3798C0.0634121 75.4151 0.289248 75.5492 0.511448 75.6777C0.733648 75.8062 0.8904 76.0175 0.859898 76.1472C0.829396 76.2768 0.897672 76.3255 1.0114 76.255C1.12533 76.1847 1.21845 76.2205 1.21845 76.3348C1.21845 76.449 1.37055 76.4839 1.5566 76.4126C1.81475 76.3134 1.86323 76.3645 1.76183 76.6285C1.65881 76.8976 1.77435 76.8657 2.28238 76.4851C3.06453 75.8991 3.97858 75.5684 3.73759 75.9585C3.55397 76.2556 3.93858 76.067 4.50095 75.584C4.90555 75.2365 4.95403 75.3854 4.63225 75.9866C4.45449 76.3191 4.46378 76.3686 4.67931 76.2354C4.82718 76.1439 5.1017 76.0579 5.28895 76.0439C5.47641 76.0302 5.87556 75.7266 6.17613 75.3695C6.81183 74.614 7.092 74.678 6.57872 75.4612L6.22825 75.9961L7.10695 75.3963C7.97292 74.8051 9.36592 74.3463 8.9098 74.8024C8.79022 74.922 8.69245 75.1107 8.69245 75.2218C8.69245 75.3341 8.80011 75.3161 8.93485 75.1814C9.26795 74.8483 9.70245 74.8768 9.70245 75.2317C9.70245 75.4868 9.79335 75.4864 10.4094 75.2291C11.0573 74.9584 11.1164 74.9626 11.1164 75.2798C11.1164 75.5488 11.1704 75.5719 11.3588 75.3834C11.6627 75.0796 12.1986 75.063 12.0129 75.3632C11.9166 75.5193 12.003 75.5171 12.304 75.3561C12.5864 75.205 12.7324 75.1982 12.7324 75.3359C12.7324 75.6125 13.4003 75.6044 13.6804 75.3242C13.84 75.1646 14.0158 75.165 14.3153 75.3252C14.8789 75.6268 17.5804 75.5896 17.5804 75.2804C17.5804 75.1903 17.9214 75.1448 18.3379 75.1794C18.8116 75.2186 19.0765 75.3365 19.0449 75.4945C19.0167 75.6359 19.1942 75.7484 19.4489 75.75C19.6988 75.7519 20.039 75.8389 20.2044 75.9435C20.4087 76.0726 20.6603 76.0324 20.987 75.8183C21.372 75.566 21.5697 75.549 21.9746 75.7335C22.7646 76.0934 22.7159 75.8565 21.9115 75.426C21.2669 75.0812 20.888 74.5443 20.5418 73.4856C20.4775 73.2897 20.1204 73.0852 19.7065 73.0077C19.309 72.9329 18.8918 72.7008 18.7799 72.4916C18.6678 72.2823 18.628 72.111 18.6914 72.111C18.7549 72.111 18.707 71.9248 18.5852 71.6973C18.4022 71.3553 17.6447 70.8857 17.1621 70.815C17.0985 70.8057 16.8876 70.6388 16.6931 70.4445C16.4987 70.2502 16.2208 70.091 16.0758 70.091C15.9305 70.091 15.6598 69.8866 15.474 69.6365L15.1362 69.182L15.2284 69.6365C15.3471 70.2221 15.1389 70.2124 14.5694 69.6062C14.319 69.3396 13.9622 69.1464 13.7768 69.1772C13.5912 69.2077 13.2671 69.0848 13.0565 68.9042C12.6888 68.5891 12.6842 68.596 12.9381 69.081C13.1801 69.5432 13.174 69.5624 12.8666 69.3089C12.6817 69.1563 12.5304 69.0992 12.5304 69.182C12.5304 69.2648 12.3941 69.2194 12.2274 69.081C12.0608 68.9426 11.9244 68.8893 11.9244 68.9624C11.9244 69.0353 11.7198 68.982 11.4699 68.8437C11.2201 68.7055 10.8854 68.619 10.7264 68.652C10.5674 68.6847 10.2739 68.4992 10.0743 68.2397L9.71134 67.768L9.70689 68.3481ZM5.95757 68.6897C5.88465 68.8079 5.98423 69.0806 6.17896 69.2957C6.55832 69.7149 6.31006 69.8498 5.90485 69.4446C5.75799 69.2977 5.66245 69.2848 5.66245 69.4121C5.66245 69.585 6.49933 70.1156 6.87445 70.1807C6.93 70.1904 7.1118 70.2797 7.27845 70.3793C7.4451 70.4786 7.36107 70.3183 7.0918 70.0225C6.82233 69.727 6.68356 69.485 6.78314 69.485C6.88273 69.485 6.76072 69.3424 6.51206 69.1683C6.2632 68.9939 6.1121 68.7667 6.17593 68.6633C6.23997 68.5596 6.24683 68.475 6.19128 68.475C6.13573 68.475 6.03049 68.5716 5.95757 68.6897ZM93.5355 68.5913C93.5302 68.9612 94.4837 69.7436 94.6372 69.4951C94.7127 69.3729 94.6661 69.2979 94.5338 69.3284C94.4015 69.359 94.2651 69.2165 94.231 69.0119C94.1524 68.5425 93.9375 68.3126 93.9334 68.6938C93.9308 68.9295 93.8956 68.9265 93.7345 68.677C93.6268 68.5103 93.5373 68.4718 93.5355 68.5913ZM10.6735 69.3893C10.6112 69.4515 10.4983 69.3394 10.4224 69.1402C10.3129 68.8523 10.3359 68.8291 10.5355 69.0271C10.6737 69.1642 10.7357 69.3272 10.6735 69.3893ZM27.7814 69.283C27.8501 69.3941 27.8099 69.485 27.6924 69.485C27.5748 69.485 27.4784 69.3941 27.4784 69.283C27.4784 69.1719 27.5184 69.081 27.5675 69.081C27.6166 69.081 27.7128 69.1719 27.7814 69.283ZM32.0604 69.523C31.996 69.684 31.9481 69.6361 31.9384 69.4008C31.9297 69.1879 31.9774 69.0687 32.0445 69.1357C32.1115 69.2028 32.1188 69.3771 32.0604 69.523ZM36.5684 69.283C36.5684 69.3941 36.4775 69.485 36.3664 69.485C36.2553 69.485 36.1644 69.3941 36.1644 69.283C36.1644 69.1719 36.2553 69.081 36.3664 69.081C36.4775 69.081 36.5684 69.1719 36.5684 69.283ZM49.9004 69.2711C49.9004 69.3757 49.8095 69.5173 49.6984 69.586C49.5873 69.6547 49.4964 69.569 49.4964 69.3959C49.4964 69.2228 49.5873 69.081 49.6984 69.081C49.8095 69.081 49.9004 69.1664 49.9004 69.2711ZM83.0531 69.2636C82.9 69.3606 82.8333 69.5347 82.9048 69.6504C82.9765 69.7664 82.9426 69.9181 82.8297 69.988C82.7168 70.0577 82.6245 69.9427 82.6245 69.7327C82.6245 69.3008 82.7909 69.0796 83.1127 69.084C83.2329 69.0858 83.2062 69.1664 83.0531 69.2636ZM84.2835 69.687C84.2346 70.0203 84.1698 70.293 84.1395 70.293C84.1092 70.293 84.0443 70.0203 83.9954 69.687C83.9405 69.3125 83.9954 69.081 84.1395 69.081C84.2835 69.081 84.3384 69.3125 84.2835 69.687ZM85.2505 69.1701C85.2505 69.2192 85.1596 69.3153 85.0485 69.384C84.9374 69.4527 84.8465 69.4125 84.8465 69.2949C84.8465 69.1774 84.9374 69.081 85.0485 69.081C85.1596 69.081 85.2505 69.121 85.2505 69.1701ZM86.158 69.2808C86.2302 69.3973 86.1302 69.4325 85.9175 69.3652C85.5932 69.2626 85.5963 69.285 85.9465 69.5702C86.2518 69.8187 86.2857 69.9446 86.098 70.1322C85.9106 70.3197 85.7999 70.3168 85.604 70.1195C85.4013 69.9153 85.4312 69.8942 85.7555 70.0122C86.1439 70.1538 86.1457 70.1439 85.8055 69.7553C85.6108 69.5331 85.5124 69.2905 85.5866 69.2161C85.7801 69.0228 86.015 69.0493 86.158 69.2808ZM88.2255 69.4208C88.2691 69.5523 88.1176 69.7599 87.8888 69.8823C87.5179 70.0809 87.4725 70.0478 87.4725 69.5783C87.4725 69.1949 87.5642 69.0691 87.8092 69.1168C87.9944 69.1527 88.1817 69.2895 88.2255 69.4208ZM90.9 69.4727C91.0529 69.7587 91.0412 69.9037 90.8566 70.0102C90.7174 70.0902 90.6685 70.0837 90.7479 69.9959C90.8273 69.9078 90.8014 69.666 90.6903 69.4585C90.5792 69.2509 90.5338 69.081 90.5893 69.081C90.6449 69.081 90.7846 69.2573 90.9 69.4727ZM88.9359 69.788C88.9891 70.0657 88.9541 70.293 88.8584 70.293C88.7628 70.293 88.6845 70.0657 88.6845 69.788C88.6845 69.5102 88.7194 69.283 88.7618 69.283C88.8044 69.283 88.8828 69.5102 88.9359 69.788ZM90.1778 69.6026C90.3461 70.0409 90.3518 70.0304 89.8805 70.1536C89.5652 70.2362 89.4896 70.1876 89.5775 69.9587C89.6417 69.791 89.6945 69.5704 89.6945 69.4684C89.6945 69.162 90.0461 69.2596 90.1778 69.6026ZM78.0104 69.889C78.0104 70.1667 78.0562 70.2805 78.1122 70.1415C78.1683 70.0027 78.1683 69.7755 78.1122 69.6365C78.0562 69.4977 78.0104 69.6112 78.0104 69.889ZM94.1534 70.78C94.0233 70.9368 93.994 71.1127 94.0882 71.1709C94.1825 71.2293 94.3695 71.101 94.5037 70.8859C94.7842 70.4366 94.5077 70.353 94.1534 70.78ZM3.18795 71.4367C3.32692 71.4929 3.55417 71.4929 3.69295 71.4367C3.83192 71.3808 3.7182 71.3349 3.44045 71.3349C3.1627 71.3349 3.04917 71.3808 3.18795 71.4367ZM27.7814 71.909C27.8501 72.0201 27.7592 72.111 27.5794 72.111C27.3997 72.111 27.3088 72.0201 27.3774 71.909C27.4461 71.7979 27.537 71.707 27.5794 71.707C27.6219 71.707 27.7128 71.7979 27.7814 71.909ZM32.2147 72.1282C32.1497 72.2334 32.0105 72.2663 31.9053 72.2013C31.8 72.1362 31.7671 71.9971 31.8322 71.8918C31.8972 71.7866 32.0364 71.7537 32.1416 71.8187C32.2469 71.8838 32.2798 72.0229 32.2147 72.1282ZM36.5684 71.909C36.5684 72.0201 36.4775 72.111 36.3664 72.111C36.2553 72.111 36.1644 72.0201 36.1644 71.909C36.1644 71.7979 36.2553 71.707 36.3664 71.707C36.4775 71.707 36.5684 71.7979 36.5684 71.909ZM41.1134 71.909C41.1821 72.0201 41.1419 72.111 41.0244 72.111C40.9068 72.111 40.8104 72.0201 40.8104 71.909C40.8104 71.7979 40.8504 71.707 40.8995 71.707C40.9486 71.707 41.0448 71.7979 41.1134 71.909ZM45.4564 71.909C45.4564 72.0201 45.3601 72.111 45.2425 72.111C45.125 72.111 45.0848 72.0201 45.1534 71.909C45.2221 71.7979 45.3183 71.707 45.3674 71.707C45.4165 71.707 45.4564 71.7979 45.4564 71.909ZM49.9004 71.909C49.9004 72.0201 49.8095 72.111 49.6984 72.111C49.5873 72.111 49.4964 72.0201 49.4964 71.909C49.4964 71.7979 49.5873 71.707 49.6984 71.707C49.8095 71.707 49.9004 71.7979 49.9004 71.909ZM94.0504 72.3722C94.1263 72.5714 94.2393 72.6835 94.3015 72.6213C94.3637 72.5592 94.3017 72.3962 94.1635 72.2591C93.9639 72.0611 93.9409 72.0843 94.0504 72.3722ZM78.7865 72.7051C78.7865 72.8097 78.8763 72.9507 78.9862 73.0186C79.1006 73.0893 79.1345 73.0083 79.0656 72.8285C78.9313 72.4786 78.7865 72.4146 78.7865 72.7051ZM95.0782 73.9908C95.3945 74.358 95.6815 74.5922 95.7157 74.511C95.7959 74.3211 94.9325 73.323 94.6881 73.323C94.5861 73.323 94.7616 73.6236 95.0782 73.9908ZM78.0253 74.737C78.0253 75.1258 78.0669 75.2848 78.1176 75.0905C78.1685 74.8962 78.1685 74.5778 78.1176 74.3835C78.0669 74.1892 78.0253 74.3481 78.0253 74.737Z" fill="black"/>
</svg>
