<svg width="38" height="94" viewBox="0 0 38 94" fill="none" xmlns="http://www.w3.org/2000/svg">
<path fill-rule="evenodd" clip-rule="evenodd" d="M17.3679 0.469625C16.2754 1.31691 15.8471 2.60904 15.8471 5.05706C15.8471 6.98642 15.7154 7.49604 15.167 7.68372C10.3408 9.3351 7.67774 11.4506 5.29611 15.5256L3.48969 18.616L3.2631 54.0202C3.08471 81.864 3.13835 89.466 3.51495 89.6199C3.77806 89.7275 3.34161 89.8295 2.54488 89.8464C1.43957 89.87 0.9421 90.1154 0.445409 90.8814C-0.172151 91.8331 -0.16516 91.9407 0.577156 92.9427L1.36068 94L18.6116 93.9568C30.3075 93.9274 36.2068 93.7727 36.9312 93.4758C37.754 93.1386 38 92.7742 38 91.8924C38 91.1766 37.7447 90.6348 37.3199 90.4483C36.946 90.2842 32.2675 90.0317 26.9236 89.8873L17.2074 89.625L26.2434 89.5547L35.2795 89.4848L35.2655 57.9766C35.2581 40.6473 35.0976 24.7268 34.9095 22.5976C34.3172 15.897 31.5586 11.8628 25.369 8.64447L22.6484 7.22985L22.5338 4.59965C22.4304 2.22034 22.3072 1.87444 21.2411 0.967868C19.9815 -0.102428 18.3725 -0.309736 17.3679 0.469625Z" fill="black"/>
</svg>
