<svg width="20" height="14" viewBox="0 0 20 14" fill="none" xmlns="http://www.w3.org/2000/svg">
<path fill-rule="evenodd" clip-rule="evenodd" d="M0.122566 0.207134C-0.145176 0.536603 0.0283584 1.66356 0.61745 3.42053C1.06104 4.74372 1.09832 4.96297 0.925361 5.23239C0.589563 5.75589 0.269226 7.08099 0.270671 7.94059C0.271682 8.4961 0.435391 9.23944 0.776391 10.2361C1.3295 11.8529 1.39351 12.5533 1.06205 13.3635C0.83332 13.9225 0.84878 14.1397 1.09456 13.8191C1.31347 13.5338 1.56965 12.6768 1.56965 12.2305C1.56965 12.0118 1.33572 11.142 1.04991 10.2975C0.58046 8.91085 0.53639 8.64778 0.594476 7.58176C0.651983 6.52563 1.01841 5.2889 1.27127 5.29761C1.31621 5.29923 1.60173 5.73493 1.90588 6.26595C2.63455 7.53824 4.10865 9.11683 5.06504 9.64888C6.12893 10.2408 7.86948 10.3389 9.19418 9.88141C10.0649 9.58086 10.1178 9.57865 10.5668 9.8246C10.923 10.0198 11.3939 10.0816 12.551 10.0853C13.8537 10.0893 14.1648 10.0415 14.7518 9.74626C16.028 9.10443 17.6809 7.27856 18.4169 5.69775C18.5593 5.39204 18.7443 5.16511 18.8283 5.19374C19.171 5.3103 19.5351 6.69354 19.5347 7.87685C19.5341 8.84416 19.4516 9.27868 19.0768 10.2845C18.7835 11.0722 18.6196 11.7778 18.6196 12.2541C18.6196 12.9862 18.9648 14 19.2141 14C19.4005 14 19.3713 13.8132 19.13 13.4613C18.7365 12.8877 18.712 12.0745 19.0592 11.1204C19.2359 10.6348 19.5097 9.74168 19.6678 9.13557C19.9207 8.16575 19.9347 7.91817 19.7848 7.06993C19.6912 6.53994 19.4619 5.78436 19.2751 5.39071C18.9565 4.71952 18.9488 4.64236 19.1512 4.14764C19.8022 2.55709 20.1656 0.746708 19.9259 0.289317C19.7055 -0.131041 19.3462 -0.0945972 18.6527 0.418272C17.8499 1.01214 16.8938 1.26061 14.4187 1.51881C12.2879 1.74102 11.0114 2.09011 10.3596 2.62924C10.0432 2.89084 10.0215 2.88878 9.5229 2.55282C8.67473 1.98122 7.81053 1.74943 5.68766 1.52398C2.87889 1.22579 2.28806 1.08105 1.47732 0.492339C0.70689 -0.0668588 0.398112 -0.131926 0.122566 0.207134ZM2.62848 1.89727C3.01225 1.98417 4.26933 2.15636 5.42223 2.28C7.82266 2.53747 8.81156 2.85514 9.51293 3.59405L10 4.10721L10.476 3.60688C11.1801 2.8665 12.2229 2.53673 14.6928 2.27277C17.0068 2.02563 18.1631 1.74751 18.8003 1.28451C19.1853 1.00477 19.1976 1.00447 19.1976 1.2733C19.1976 1.42601 19.0119 2.11106 18.7848 2.79568C17.6586 6.19262 15.876 8.54833 13.9153 9.23044C12.7361 9.64076 10.8157 9.32398 10.2481 8.6255C10.0815 8.42056 10.015 8.43546 9.63329 8.76346C9.06558 9.25124 8.65537 9.35305 7.27706 9.34833C6.34625 9.34508 5.99456 9.27632 5.47092 8.99525C4.53823 8.49463 3.18882 7.01489 2.45033 5.68315C1.79751 4.50588 0.850804 1.94242 0.848492 1.34589L0.847191 1.01185L1.38903 1.37555C1.68712 1.57562 2.24486 1.81051 2.62848 1.89727ZM2.58109 3.61028C2.58109 3.87084 2.89218 3.82554 2.98148 3.552C3.01298 3.4555 2.93567 3.37671 2.80982 3.37671C2.68411 3.37671 2.58109 3.48191 2.58109 3.61028ZM17.1747 3.59803C17.1747 3.71975 17.2723 3.81935 17.3915 3.81935C17.5107 3.81935 17.6082 3.71975 17.6082 3.59803C17.6082 3.4763 17.5107 3.37671 17.3915 3.37671C17.2723 3.37671 17.1747 3.4763 17.1747 3.59803ZM5.25418 4.35907C4.2176 4.58142 4.28985 4.50514 4.53837 5.11332C5.04496 6.35374 6.32039 7.2129 7.65505 7.2129C8.54584 7.2129 8.79422 7.04573 8.79422 6.4461C8.79422 5.34718 6.62078 4.0659 5.25418 4.35907ZM13.2816 4.4957C12.3159 4.76275 11.6592 5.25585 11.3322 5.95935C11.1067 6.44463 11.1045 6.5246 11.3084 6.84212C11.4316 7.03422 11.6803 7.21408 11.8611 7.24167C12.4892 7.33787 13.6074 7.07421 14.1624 6.69914C15.0783 6.08019 15.8791 4.74711 15.477 4.51075C15.1375 4.31126 13.9768 4.3033 13.2816 4.4957ZM7.05541 5.47924C7.40422 5.66175 7.7903 5.97086 7.91326 6.16606L8.13679 6.52106L7.43774 6.44064C6.74418 6.36068 5.63275 5.72254 5.50647 5.33169C5.40705 5.02406 6.35911 5.1148 7.05541 5.47924ZM14.4863 5.35618C14.3379 5.75116 13.2876 6.3623 12.6266 6.43828C11.871 6.52534 11.8131 6.39151 12.3704 5.84722C12.8647 5.36459 13.3349 5.16865 14.0276 5.15655C14.4339 5.14947 14.5457 5.19816 14.4863 5.35618Z" fill="black"/>
</svg>
