<svg width="20" height="21" viewBox="0 0 20 21" fill="none" xmlns="http://www.w3.org/2000/svg">
<path fill-rule="evenodd" clip-rule="evenodd" d="M15.7948 0.134962C14.5413 0.548102 13.1708 1.8214 13.0023 2.72933C12.9126 3.21238 13.0441 4.16459 13.275 4.70487C13.3686 4.92419 13.3431 4.92649 12.8984 4.73861C11.9273 4.32857 11.6061 4.43682 10.5929 5.51576C10.0874 6.05388 8.53659 7.92158 7.14673 9.66605C4.38731 13.1297 2.40328 15.203 0.94745 16.1445C0.430877 16.4786 0.00471633 16.8462 0.000442713 16.9616C-0.0321436 17.8321 1.74087 19.909 3.10442 20.5974C3.97317 21.0362 4.66683 21.1306 4.66683 20.8099C4.66683 20.4912 6.18383 18.315 7.22953 17.1333C7.76654 16.5266 9.49802 14.8193 11.0773 13.3392C14.7809 9.86823 15.8851 8.70898 15.8851 8.2918C15.8851 8.11404 15.7658 7.73208 15.62 7.44311C15.4741 7.15401 15.3757 6.89662 15.4011 6.87084C15.4266 6.8452 15.6098 6.88664 15.8084 6.96289C16.3999 7.19018 17.5064 7.13025 17.9675 6.84615C18.8352 6.3114 19.8319 4.74549 19.9747 3.69274C20.2733 1.49032 17.8754 -0.550814 15.7948 0.134962ZM17.8216 0.470764C18.4987 0.783352 19.4055 1.77456 19.6228 2.43969C19.8084 3.00831 19.7345 3.87468 19.4397 4.58798C19.2799 4.9744 19.1611 5.06415 18.7051 5.1419C17.7161 5.31088 16.9033 5.00423 15.9253 4.09319C15.2269 3.44264 14.8431 2.74566 14.732 1.926C14.6288 1.16491 14.8295 0.800492 15.5286 0.479672C16.2323 0.156826 17.1338 0.153318 17.8216 0.470764ZM14.8152 3.05596C15.1308 3.66304 15.7296 4.35031 16.2773 4.73389C16.8688 5.14797 18.1549 5.50834 18.6864 5.40873C18.9913 5.3515 18.9852 5.36432 18.6229 5.54262C17.7756 5.95954 16.6384 5.64128 15.5983 4.69623C14.7803 3.95296 14.2857 2.9747 14.2838 2.0966C14.2819 1.20945 14.4685 1.14331 14.5621 1.9978C14.6058 2.39596 14.7197 2.87213 14.8152 3.05596ZM14.4522 3.66844C14.8189 4.39768 15.5925 5.18725 16.3051 5.55962C16.545 5.68501 17.124 5.81849 17.5921 5.85656C18.5972 5.93808 18.4496 6.15173 17.3861 6.15484C15.3608 6.16078 13.4273 3.90909 13.8241 2.00657L13.9296 1.50044L14.019 2.24277C14.0681 2.65105 14.2631 3.29269 14.4522 3.66844ZM13.9533 4.14151C14.5931 5.39199 16.1599 6.42653 17.4142 6.42666C18.28 6.4268 18.0502 6.70767 17.1095 6.79904C15.2398 6.98057 13.2186 5.19953 13.2153 3.36733C13.2133 2.25073 13.3698 2.07068 13.5696 2.95959C13.6647 3.38312 13.8375 3.91503 13.9533 4.14151ZM12.4263 4.82674C13.1047 5.05768 13.2306 5.18887 13.0519 5.47797C12.5899 6.22583 14.2993 7.70549 14.9111 7.0872C15.1277 6.86828 15.5181 7.53341 15.5364 8.15264C15.5504 8.62449 15.5254 8.65635 15.111 8.69657C13.8578 8.81831 11.4445 6.54449 11.4445 5.24204C11.4445 4.95065 11.6575 4.6803 11.892 4.67423C11.9361 4.67315 12.1765 4.74171 12.4263 4.82674ZM14.9354 6.52722C14.9672 6.5453 14.8857 6.68 14.7546 6.82658C14.4809 7.13201 14.2108 7.0459 13.5813 6.45258C13.1924 6.086 13.108 5.64317 13.3754 5.37296C13.5013 5.24569 13.6832 5.35042 14.2073 5.8521C14.576 6.20531 14.9037 6.50913 14.9354 6.52722ZM11.2684 5.69567C11.5686 6.90445 13.8212 8.97514 14.8501 8.98823C14.9787 8.98985 15.0838 9.04492 15.0838 9.11052C15.0838 9.17611 13.8667 10.3752 12.3794 11.7751C10.892 13.1751 9.05317 14.9282 8.29326 15.6711C6.91315 17.0202 5.17205 19.1927 4.66349 20.2002C4.33042 20.8601 4.09951 20.8753 3.04393 20.3067C1.85346 19.6655 0.279029 17.8032 0.262603 17.0167C0.261 16.9396 0.652837 16.6155 1.13335 16.2961C2.45884 15.4154 4.2567 13.6067 6.11372 11.2857C8.79728 7.93183 10.9557 5.34705 11.0731 5.34705C11.1329 5.34705 11.2208 5.50388 11.2684 5.69567ZM9.67498 9.91453C9.12381 10.2552 7.21992 12.3233 6.96991 12.8529C6.60692 13.6223 7.09118 14.1247 7.8416 13.7575C8.31744 13.5245 10.1397 11.6529 10.5455 10.9804C11.1528 9.97364 10.6251 9.32755 9.67498 9.91453Z" fill="url(#paint0_linear)"/>
<defs>
<linearGradient id="paint0_linear" x1="0" y1="10.5" x2="20" y2="10.5" gradientUnits="userSpaceOnUse">
<stop stop-color="#434343"/>
<stop offset="1"/>
</linearGradient>
</defs>
</svg>
