<svg width="20" height="16" viewBox="0 0 20 16" fill="none" xmlns="http://www.w3.org/2000/svg">
<path fill-rule="evenodd" clip-rule="evenodd" d="M12.5098 0.133613C11.1617 0.287297 10.4591 0.499253 10.0648 0.871084C9.75545 1.16298 9.73324 1.26996 9.73324 2.46876C9.73324 3.17555 9.68577 3.75368 9.62786 3.75368C9.56995 3.75368 8.98979 3.63633 8.33876 3.49287C6.18035 3.01742 5.68679 3.00773 4.29839 3.4132C2.06937 4.06428 0.513857 5.14761 0.234618 6.24332C-0.143254 7.72674 -0.0544056 10.8556 0.427123 13.0259C0.689703 14.2096 0.95572 14.4638 2.54416 15.0488C3.67738 15.4661 6.27422 16 7.17143 16C8.32184 16 10.2375 14.9327 11.4943 13.5915C12.1993 12.8392 12.2802 12.6619 12.4209 11.559C12.4421 11.3932 12.8247 11.3417 14.5606 11.2705C16.8471 11.1766 18.5086 10.9802 19.0194 10.7434C19.5518 10.4964 19.7579 9.95584 19.9137 8.398C20.0955 6.57841 19.9743 3.23489 19.6979 2.44669C19.4658 1.78471 18.3673 0.697886 17.4969 0.26913C16.9954 0.021916 16.7021 -0.0121321 15.2115 0.00307483C14.2709 0.0126296 13.0552 0.0714391 12.5098 0.133613ZM17.851 0.858972C18.1039 1.05532 18.5377 1.49766 18.8149 1.84177C19.2853 2.42596 19.3247 2.54412 19.4065 3.61534C19.5383 5.34086 19.5274 8.86241 19.3883 9.47311C19.321 9.76918 19.1487 10.108 19.0055 10.2261C18.7222 10.4597 16.919 10.6862 14.1266 10.839L12.5095 10.9275L12.5358 8.45088C12.5703 5.19484 12.4322 4.86661 10.7579 4.22644L10.1299 3.98622V2.8021C10.1299 1.51193 10.2517 1.01212 10.5993 0.876333C10.8427 0.781323 14.5862 0.412855 15.8813 0.356469C16.8845 0.312866 17.2764 0.412856 17.851 0.858972ZM12.5351 1.22057C11.8486 1.37695 11.6869 1.67988 12.1057 2.0252C12.4774 2.33149 13.1213 2.34172 14.4491 2.06248C15.0336 1.93961 15.6644 1.8882 15.9614 1.93934C16.621 2.05279 17.4017 1.7983 17.4017 1.46981C17.4017 1.3355 17.3076 1.18882 17.1926 1.14387C16.8343 1.00391 15.2628 1.04913 15.3524 1.19675C15.3973 1.27077 15.8173 1.33133 16.2857 1.33133C16.7541 1.33133 17.1373 1.38529 17.1373 1.45137C17.1373 1.64314 16.4954 1.7543 15.9004 1.66561C15.5784 1.61757 14.9981 1.66979 14.493 1.79212C13.6003 2.00824 12.683 2.06342 12.3223 1.92252C11.8721 1.74663 12.1299 1.48044 12.9395 1.28517C13.394 1.17563 13.6171 1.08708 13.4353 1.08842C13.2535 1.0899 12.8484 1.14938 12.5351 1.22057ZM13.1369 1.41073C12.9076 1.64408 13.0817 1.73505 13.758 1.73505C14.1537 1.73505 14.5141 1.6745 14.5591 1.60048C14.605 1.52485 14.4999 1.4659 14.319 1.4659C14.142 1.4659 13.8257 1.43105 13.6161 1.38839C13.4066 1.34573 13.1909 1.35582 13.1369 1.41073ZM9.07216 4.08164C10.7673 4.4824 11.5105 4.88438 11.7791 5.54568C12.0044 6.10026 12.1705 9.54982 12.0502 11.1736L11.9567 12.4338L11.131 13.2412C10.2618 14.0913 8.83008 15.0313 7.95957 15.3235C6.63689 15.7675 1.89233 14.7031 1.15325 13.7966C0.657442 13.1886 0.467581 6.9711 0.917775 6.08856C1.1633 5.60732 1.66783 5.22526 3.25468 4.31903L4.51073 3.60174L6.03121 3.6619C7.02335 3.70119 8.08002 3.84694 9.07216 4.08164ZM4.18019 5.00388C3.73648 5.23158 3.6787 5.70569 4.06873 5.91818C4.2344 6.00848 4.72888 6.12946 5.16758 6.1872C5.60613 6.24493 6.12812 6.33348 6.3275 6.38408C7.38271 6.65189 8.6849 5.98561 8.66467 5.18838L8.65396 4.76299L8.46225 5.20978C8.23524 5.73879 7.31819 6.216 6.655 6.15019L6.22953 6.10807L6.69228 5.85116C7.24283 5.54554 7.00537 5.39348 6.38806 5.6563C5.83302 5.89275 4.37997 5.89598 4.15375 5.66128C4.01215 5.51446 4.05181 5.42564 4.37851 5.1573C4.80716 4.80538 4.71143 4.73123 4.18019 5.00388ZM17.8451 5.87323C17.8806 6.00283 17.9467 6.24049 17.9921 6.40171C18.0374 6.5628 17.9856 6.91094 17.8771 7.17552C17.705 7.59458 17.6213 7.65635 17.2255 7.65635C16.8598 7.65635 16.6736 7.54614 16.2692 7.0906C15.9528 6.73398 15.7459 6.58958 15.7096 6.69993C15.6782 6.79615 15.4746 7.08104 15.2573 7.33297C14.445 8.27459 13.3209 7.71341 13.4897 6.45056C13.5543 5.96811 13.5373 5.88373 13.4035 6.01992C13.3119 6.11318 13.2369 6.49443 13.2369 6.86734C13.2369 7.44305 13.2927 7.59391 13.6079 7.86992C14.1754 8.36677 14.8997 8.31819 15.4333 7.74719L15.8515 7.29986L16.1692 7.59943C17.2874 8.65423 18.8175 7.41842 18.1737 5.98049C18.0009 5.59426 17.7459 5.51096 17.8451 5.87323ZM17.2983 7.13878C17.367 7.34845 17.6627 7.38505 17.6732 7.18534C17.677 7.11132 17.5809 7.02991 17.4596 7.0042C17.3217 6.97527 17.2613 7.0256 17.2983 7.13878ZM14.0963 7.31992C14.0963 7.44332 14.1603 7.52245 14.2385 7.49594C14.3166 7.46943 14.3806 7.39016 14.3806 7.31992C14.3806 7.24967 14.3166 7.1704 14.2385 7.14389C14.1603 7.11738 14.0963 7.19651 14.0963 7.31992ZM10.7594 8.19465C10.7164 8.30568 10.6461 8.69541 10.6031 9.06078C10.5136 9.82126 10.1703 10.5998 9.8324 10.8089C9.47211 11.0318 9.15942 10.7431 8.98107 10.0229C8.74387 9.06441 8.66639 8.99107 8.73594 9.79071C8.77045 10.1873 8.92104 10.7229 9.07044 10.9808C9.39662 11.5434 9.29587 12.1022 8.72748 12.8816L8.36719 13.3758L8.79491 12.9721C9.04982 12.7314 9.28543 12.3299 9.37798 11.978C9.46868 11.6332 9.66026 11.3029 9.83848 11.1841C10.1201 10.9962 10.1588 11.0028 10.3425 11.2698C10.5499 11.5713 10.9804 11.6567 11.1215 11.4245C11.1665 11.3504 11.0881 11.2899 10.9471 11.2899C10.5945 11.2899 10.3483 10.9489 10.4374 10.5842C10.4783 10.4172 10.6073 9.8938 10.7242 9.42104C10.9229 8.61803 10.949 7.70467 10.7594 8.19465ZM2.63274 9.71912C2.25434 9.88545 1.90423 10.0626 1.85492 10.1129C1.72112 10.2491 2.72965 11.538 3.20418 11.8373C3.76001 12.1879 4.33277 12.1645 5.07767 11.7609C5.41918 11.5758 5.80313 11.4245 5.93099 11.4245C6.05884 11.4245 6.16342 11.3967 6.16342 11.3627C6.16342 11.3288 5.91591 10.9641 5.61341 10.5524C5.0737 9.81776 4.6518 9.5653 4.23585 9.72773C4.12069 9.77268 3.8991 9.71871 3.74335 9.60769C3.39655 9.36034 3.46438 9.35361 2.63274 9.71912ZM3.68002 9.9409C3.81144 10.155 3.93691 10.1915 4.3247 10.1284C4.75863 10.0577 4.84074 10.0959 5.15435 10.5145C5.34567 10.7699 5.50234 11.0128 5.50234 11.0542C5.50234 11.0958 5.23884 11.2869 4.91689 11.479C4.06159 11.9891 3.71228 11.9411 3.03375 11.2202C2.71895 10.8859 2.46245 10.5376 2.46364 10.4464C2.46588 10.2843 3.21898 9.67498 3.41691 9.67498C3.47191 9.67498 3.59025 9.79461 3.68002 9.9409ZM9.75968 9.83647C9.56942 10.0301 9.55012 10.3479 9.72861 10.3479C9.84642 10.3479 10.1299 9.92636 10.1299 9.75115C10.1299 9.62047 9.92561 9.66758 9.75968 9.83647ZM3.51911 10.7502C3.51911 10.9584 4.03885 11.1764 4.31928 11.0857C4.46313 11.0393 4.54458 10.942 4.50055 10.8693C4.45639 10.7968 4.35141 10.7622 4.26719 10.7925C4.18297 10.8228 3.98015 10.7972 3.8166 10.7356C3.64115 10.6695 3.51911 10.6755 3.51911 10.7502Z" fill="url(#paint0_linear)"/>
<defs>
<linearGradient id="paint0_linear" x1="0" y1="8" x2="20" y2="8" gradientUnits="userSpaceOnUse">
<stop stop-color="#434343"/>
<stop offset="1"/>
</linearGradient>
</defs>
</svg>
