<svg width="18" height="20" viewBox="0 0 18 20" fill="none" xmlns="http://www.w3.org/2000/svg">
<path fill-rule="evenodd" clip-rule="evenodd" d="M5.59657 0.156191C5.23753 0.247997 4.81455 0.450208 4.65674 0.605652C4.38685 0.871503 4.38348 0.901795 4.59861 1.11384C4.81374 1.32575 4.87794 1.32203 5.67332 1.05126C6.13865 0.892893 6.83786 0.724163 7.22739 0.676333L7.9355 0.589444L7.93752 1.17123C7.94076 2.07268 8.15737 2.24633 8.27026 1.43801C8.3729 0.702905 8.50738 0.623721 9.20807 0.886117C9.51613 1.00157 9.55403 1.08899 9.55403 1.68327V2.35088H8.82097C8.41782 2.35088 7.92605 2.41147 7.72819 2.4856C7.37184 2.61913 7.36887 2.63082 7.41595 3.74776L7.46342 4.8752H7.10046C6.90085 4.8752 6.70932 4.92011 6.67492 4.97485C6.64053 5.02958 7.34271 5.05297 8.23519 5.02679C9.39973 4.99252 9.83175 5.02068 9.76539 5.12644C9.71454 5.20761 9.31287 5.27378 8.87168 5.27378C7.71902 5.27378 7.87615 5.53418 9.04824 5.56633C10.4809 5.60566 10.9403 5.56182 11.0579 5.37448C11.1399 5.24375 11.2031 5.25079 11.3478 5.40664C11.6139 5.69335 11.3718 19.0585 11.0953 19.3467C10.8881 19.5626 8.35321 19.7145 7.37278 19.5695L6.78903 19.4833L6.76772 17.1947C6.75599 15.936 6.69637 12.9032 6.63527 10.4553C6.53587 6.47376 6.51496 6.19356 6.43754 7.79809C6.38993 8.78457 6.38359 11.7938 6.42351 14.4854C6.50741 20.1482 6.34488 19.6215 8.09168 19.893C9.31786 20.0837 10.6461 20.0146 11.3257 19.725L11.8158 19.516L11.7977 12.4153C11.7832 6.7331 11.7438 5.27218 11.6007 5.10226C11.5023 4.98561 11.2049 4.87175 10.9399 4.84943L10.4581 4.80877L10.4864 3.5696C10.5129 2.41771 10.4952 2.32524 10.2368 2.25868C9.99468 2.19637 9.95867 2.08331 9.95867 1.38686C9.95867 0.795906 10.0169 0.544538 10.1816 0.426028C10.3042 0.337677 10.3683 0.207741 10.3241 0.137326C10.2027 -0.0562496 6.36767 -0.0408382 5.59657 0.156191ZM8.00293 0.364647C7.11274 0.418189 6.08092 0.557425 5.71001 0.674208C4.93311 0.918801 4.72122 0.943911 4.90748 0.769335C5.2877 0.413008 6.31129 0.238431 7.9355 0.252514L9.62147 0.267262L8.00293 0.364647ZM10.1132 3.54661C10.0871 3.94851 10.0567 4.28611 10.0458 4.29673C10.035 4.30736 9.5102 4.33726 8.87978 4.36316L7.73331 4.4102L7.64308 3.68253C7.59344 3.28223 7.57254 2.92351 7.59655 2.88538C7.62055 2.84711 8.20741 2.81589 8.90068 2.81589H10.161L10.1132 3.54661ZM15.2189 4.87693C14.5456 4.99384 14.2025 5.20828 13.8959 5.70384C13.3943 6.51481 13.2899 7.49332 13.4637 9.75763C13.5814 11.289 13.5838 12.1672 13.4735 13.1641C13.3916 13.903 13.3425 15.3956 13.3641 16.4809C13.4086 18.714 13.4484 18.7991 14.5911 19.1046C15.574 19.3676 17.6613 19.06 17.8299 18.6274C17.9429 18.3372 17.951 15.0722 17.8442 12.8467C17.7807 11.5245 17.8032 10.1379 17.9068 8.9727C18.0292 7.59761 18.0307 7.01821 17.9132 6.58124C17.5945 5.39561 16.4394 4.66489 15.2189 4.87693ZM16.6243 5.40013C16.8585 5.54255 17.1881 5.9014 17.357 6.19728L17.664 6.73536L17.3094 6.86808C17.1144 6.94115 16.6401 7.00612 16.2554 7.01263C15.8708 7.01901 15.2526 7.07083 14.8817 7.12769C14.3516 7.209 14.5786 7.2349 15.9417 7.24886L17.6763 7.26666L17.6104 8.22988C17.5743 8.75959 17.4654 9.82592 17.3686 10.5994C17.2058 11.8986 17.2155 12.1645 17.4959 14.0876C17.6628 15.2326 17.7619 16.2858 17.7162 16.4278C17.6076 16.7643 17.3222 16.844 15.7677 16.9713L14.4771 17.0771L16.1293 17.0472C17.2178 17.0275 17.7811 17.0651 17.7801 17.1573C17.7753 17.6148 17.5906 18.2939 17.4711 18.2939C17.394 18.2939 17.2135 18.3985 17.0701 18.5264C16.8571 18.7163 16.5538 18.7589 15.4142 18.7589C14.4465 18.7589 13.9654 18.7058 13.8434 18.5856C13.7112 18.4551 13.6678 17.7754 13.6678 15.8398C13.6678 13.3024 13.6724 13.2612 14.005 12.8245C14.2923 12.4472 14.341 12.2441 14.3344 11.4517C14.3301 10.9402 14.2562 10.4021 14.17 10.256C14.0409 10.0373 14.0085 10.1898 13.9863 11.1196L13.9594 12.2489L13.8548 11.1196C13.7973 10.4984 13.7125 9.24293 13.6663 8.32953C13.593 6.87951 13.6135 6.61007 13.8274 6.20645C14.3533 5.21426 15.6873 4.82963 16.6243 5.40013ZM14.4867 5.74822C14.2566 5.97501 14.2242 6.10959 14.3659 6.24923C14.4647 6.34661 15.084 5.82899 15.084 5.64924C15.084 5.46509 14.7115 5.52687 14.4867 5.74822ZM3.48452 6.60768C2.77978 6.66149 1.6959 6.71224 1.07587 6.72034C-0.0391702 6.73509 -0.0506347 6.73868 0.0285387 7.04943C0.345772 8.29472 0.90093 14.1728 0.946249 16.7661C0.960276 17.5699 0.993591 17.9256 1.0203 17.5568L1.06899 16.8862L2.4786 16.8925L3.88821 16.8989L3.88861 17.7326C3.88915 18.5199 3.86852 18.574 3.51824 18.7053C3.10794 18.8591 1.5385 18.8104 1.13953 18.6314C0.952184 18.5474 0.90093 18.5643 0.945305 18.6954C1.09812 19.1472 3.18927 19.4005 3.88915 19.0522C4.1438 18.9254 4.23093 18.7714 4.2451 18.4231C4.25548 18.1693 4.30107 16.8123 4.34652 15.4073C4.39198 14.0023 4.54453 11.9397 4.68561 10.8237C4.82656 9.70767 4.98072 8.42519 5.02806 7.9736L5.11425 7.15267L4.73781 7.27237C4.53063 7.33827 3.84532 7.44456 3.21476 7.50873L2.0683 7.62551L3.36084 7.64531C4.07178 7.65633 4.68601 7.69739 4.72594 7.73658C4.76573 7.77577 4.72014 8.1794 4.62451 8.63338C4.27504 10.2942 3.99611 12.5596 3.90992 14.4369C3.82374 16.3165 3.81403 16.3642 3.48452 16.5281C3.07638 16.731 1.67958 16.7529 1.31757 16.5621C1.07978 16.4367 1.05671 16.2686 1.05671 14.6622C1.05671 12.5544 0.851969 9.76347 0.57992 8.16345C0.471209 7.52401 0.382324 6.97982 0.382324 6.95418C0.382324 6.92853 1.4596 6.91365 2.77641 6.92109C4.81091 6.93252 5.1705 6.90488 5.1705 6.73708C5.1705 6.49342 5.07702 6.48625 3.48452 6.60768ZM16.5698 17.6372C16.3113 17.7792 15.9471 17.8963 15.7606 17.8974C15.5739 17.8985 15.3373 17.9518 15.2348 18.0157C15.0879 18.1074 15.108 18.1507 15.33 18.2201C15.8384 18.379 17.0325 18.0653 17.2738 17.7094C17.5545 17.2954 17.2494 17.264 16.5698 17.6372ZM8.66546 18.6735C8.7047 18.7361 9.05728 18.827 9.44896 18.8753C9.84051 18.9237 10.3583 18.9988 10.5993 19.0422C10.9344 19.1026 11.0377 19.0743 11.0377 18.9224C11.0377 18.813 10.9011 18.6875 10.7342 18.6434C10.2681 18.5203 8.58466 18.5449 8.66546 18.6735Z" fill="url(#paint0_linear)"/>
<defs>
<linearGradient id="paint0_linear" x1="0" y1="10" x2="18" y2="10" gradientUnits="userSpaceOnUse">
<stop stop-color="#434343"/>
<stop offset="1"/>
</linearGradient>
</defs>
</svg>
