<svg width="129" height="96" viewBox="0 0 129 96" fill="none" xmlns="http://www.w3.org/2000/svg">
<path fill-rule="evenodd" clip-rule="evenodd" d="M119.354 0.986962C117.567 1.53546 115.548 2.13646 114.868 2.32346C114.018 2.55696 113.472 3.20646 113.118 4.40546C112.348 7.01596 111.882 7.52046 110.484 7.25296C109.51 7.06696 108.533 7.60646 106.09 9.67896C102.848 12.4295 96.0409 16.8985 95.0939 16.8985C94.7989 16.8985 93.6679 17.8175 92.5809 18.941C91.4939 20.0645 88.6919 22.3565 86.3544 24.0345C84.0169 25.713 81.3884 27.698 80.5139 28.4465C79.6389 29.195 77.6139 30.188 76.0139 30.6525C73.6334 31.344 72.5919 32.0305 70.2879 34.4285C68.4939 36.295 66.4674 37.8035 64.7069 38.582C62.8894 39.386 60.8569 40.921 58.7734 43.064C56.4399 45.4645 54.8794 46.5955 52.8544 47.3535C51.0599 48.0255 49.6194 48.994 48.7079 50.141C47.8019 51.2815 46.8874 51.8985 46.1024 51.8985C45.3549 51.8985 44.1369 52.662 42.9129 53.8985C41.8239 54.9985 40.6339 55.9 40.2684 55.902C39.9034 55.9035 38.0364 56.916 36.1194 58.152C34.2029 59.3875 32.0649 60.3985 31.3679 60.3985C30.6114 60.3985 28.5924 61.5225 26.3529 63.191C24.2914 64.7265 20.8659 66.7805 18.7409 67.755C15.8294 69.0905 14.6299 69.9465 13.8729 71.229C12.8964 72.8845 12.8354 72.909 11.6444 72.1285C10.4314 71.334 10.3759 71.371 5.88742 75.9875C2.11842 79.8635 1.21992 81.1005 0.551922 83.334C-0.125578 85.5985 -0.159078 86.501 0.340422 89.084C1.21442 93.6055 2.88042 95.8515 5.38392 95.8825C6.08742 95.8915 7.09992 95.568 7.63392 95.1645C8.16742 94.7605 9.07892 94.423 9.65942 94.4145C10.2394 94.4055 12.0394 93.751 13.6594 92.9595C22.3944 88.6925 32.6379 83.8985 33.0204 83.8985C33.1604 83.8985 35.0364 82.69 37.1894 81.213C39.3429 79.736 42.1099 78.0185 43.3389 77.397C44.5679 76.775 46.1429 75.876 46.8389 75.3985C47.5349 74.9215 50.4669 73.224 53.3544 71.6265C65.6664 64.8155 79.8079 55.9615 87.1044 50.496C89.3044 48.848 92.7919 46.427 94.8544 45.116C96.9169 43.805 99.4049 42.0385 100.383 41.1905C108.01 34.5805 110.931 32.0865 118.497 25.724C120.082 24.3905 121.717 22.6465 122.13 21.849C122.542 21.051 123.188 20.3985 123.565 20.3985C124.764 20.3985 127.284 17.005 128.083 14.315C129.492 9.57046 128.604 3.10146 126.241 0.900462C124.928 -0.322538 123.569 -0.305538 119.354 0.986962Z" fill="black"/>
</svg>
