<svg width="41" height="83" viewBox="0 0 41 83" fill="none" xmlns="http://www.w3.org/2000/svg">
<path fill-rule="evenodd" clip-rule="evenodd" d="M16.2973 0.212311C15.6543 0.334811 14.0443 1.48531 12.7188 2.76931C8.50077 6.85531 8.04677 12.2713 11.4483 17.9293C13.7288 21.7228 13.8193 22.9633 12.0148 25.6903C9.25127 29.8658 8.54127 34.9013 10.0158 39.8663C10.6748 42.0848 11.4773 43.2113 14.5598 46.2443L18.3038 49.9283L18.1558 66.0158L18.0078 82.1038L19.3618 82.2618C21.1398 82.4698 22.0693 80.4138 21.1738 78.2528C20.4838 76.5863 20.7988 50.4978 21.5243 49.2333C21.7673 48.8103 23.1163 47.4338 24.5228 46.1738C27.2073 43.7693 28.8438 40.7268 29.4503 37.0143C29.9153 34.1668 28.6183 29.3078 26.4508 25.7783C25.4968 24.2243 24.7158 22.4808 24.7158 21.9038C24.7158 21.3273 25.5033 19.3098 26.4658 17.4213C28.6448 13.1458 28.8068 9.87781 27.0273 6.10381C24.7758 1.32981 21.0823 -0.698188 16.2973 0.212311ZM4.36177 53.1858C1.47777 55.0558 0.0447688 57.8148 0.000768836 61.5818C-0.0432312 65.3873 1.80627 68.9388 4.28077 69.8018C6.23077 70.4813 10.7108 70.5213 12.4128 69.8738C14.3808 69.1258 16.3533 65.7213 16.6093 62.6298C17.2758 54.5923 10.3858 49.2798 4.36177 53.1858ZM28.7078 58.7818C26.0228 60.2118 24.0023 63.8478 23.9823 67.2878C23.9633 70.5058 25.6228 74.4893 27.3893 75.4658C29.0838 76.4028 35.7778 76.2558 37.3158 75.2483C39.1198 74.0663 40.7158 70.5133 40.7158 67.6798C40.7158 60.4388 34.3938 55.7538 28.7078 58.7818Z" fill="black"/>
</svg>
