<svg width="85" height="50" viewBox="0 0 85 50" fill="none" xmlns="http://www.w3.org/2000/svg">
<path fill-rule="evenodd" clip-rule="evenodd" d="M38.6364 0.960697C21.4424 2.9587 7.53939 6.7067 2.93039 10.5847C-0.29861 13.3017 -0.72961 15.8777 1.00339 22.1167C1.89839 25.3407 2.52139 25.9157 5.74739 26.4967C10.4464 27.3427 11.6774 28.3367 12.4634 31.9157C13.2384 35.4427 18.5154 42.9107 20.2174 42.8897C21.0374 42.8797 21.1024 42.6237 20.4084 42.1397C18.0604 40.5007 14.1904 34.1977 13.5994 31.0467C13.0164 27.9437 13.1384 27.7327 15.2144 28.2517C16.4504 28.5607 22.2984 29.1247 28.2114 29.5067C34.1244 29.8877 38.9614 30.5607 38.9614 31.0017C38.9614 32.3317 33.0154 40.7137 31.6924 41.2487C30.8024 41.6087 30.8394 41.7687 31.8274 41.8257C32.5784 41.8687 34.8374 40.1047 36.8484 37.9047C38.8594 35.7047 41.1924 33.9047 42.0334 33.9047C42.8734 33.9047 44.0584 33.4077 44.6654 32.8007C45.4694 31.9967 46.8104 33.0407 49.6154 36.6567C53.8374 42.1007 61.9264 48.6067 65.6274 49.5357C68.9944 50.3807 70.9614 48.2847 70.9614 43.8507C70.9614 40.6877 70.4094 39.6527 67.7114 37.7557C65.9244 36.4987 63.9964 35.0057 63.4284 34.4377C61.7394 32.7487 57.7144 26.8067 58.1024 26.5767C58.2994 26.4587 62.5114 25.3067 67.4614 24.0157C72.4114 22.7247 77.2274 21.4497 78.1644 21.1827C79.5554 20.7847 79.7764 21.2187 79.3744 23.5507C78.5634 28.2607 77.8034 30.2547 75.6194 33.4047C73.9474 35.8167 73.8874 36.1247 75.3164 34.9777C77.7214 33.0457 79.6384 29.1477 80.5314 24.3697C80.9404 22.1887 81.8774 19.9547 82.6144 19.4047C83.3514 18.8547 84.2404 15.6417 84.5894 12.2637C85.1994 6.3587 85.1174 6.0537 82.4714 4.3187C76.3994 0.340697 56.8544 -1.1563 38.6364 0.960697ZM74.5664 10.7357C74.2834 11.1927 71.5574 12.1247 68.5074 12.8067C65.4574 13.4897 62.9614 14.5207 62.9614 15.0987C62.9614 15.7947 62.5024 15.7687 61.6014 15.0207C60.5794 14.1727 57.8224 14.3897 50.5134 15.8937C45.1624 16.9947 40.2624 18.2187 39.6234 18.6137C38.0784 19.5687 29.4004 19.2287 19.0594 17.8087C14.1634 17.1367 11.2414 16.3427 12.0594 15.9067C13.2084 15.2927 28.0594 12.3547 38.9614 10.5837C43.8644 9.7867 75.0704 9.9197 74.5664 10.7357ZM64.3794 43.5117C65.2494 43.8457 65.9614 44.7617 65.9614 45.5467C65.9614 46.6647 65.5274 46.7427 63.9614 45.9047C62.8614 45.3157 61.9614 44.3997 61.9614 43.8697C61.9614 42.7397 62.2554 42.6967 64.3794 43.5117Z" fill="black"/>
</svg>
