<svg width="51" height="49" viewBox="0 0 51 49" fill="none" xmlns="http://www.w3.org/2000/svg">
<path fill-rule="evenodd" clip-rule="evenodd" d="M38.4817 0.82359C37.4509 1.29972 36.4149 1.56784 36.0029 1.46529C34.3941 1.06439 33.1628 1.66815 30.8579 3.98675C26.8931 7.97614 25.3589 12.1105 27.1442 13.9964C27.8838 14.7776 27.8841 14.7847 27.2799 15.8983C26.9462 16.513 26.266 17.1833 25.7677 17.3881C24.7508 17.8061 23.0854 19.5547 22.7728 20.532C22.6598 20.8856 21.9176 21.4868 21.1236 21.8684C20.2531 22.2867 19.2635 23.1374 18.6311 24.0112C18.0542 24.8085 17.1734 25.6704 16.6732 25.9269C15.8222 26.3639 15.6991 26.3391 14.7412 25.5392C13.8782 24.8188 13.4875 24.7075 12.2455 24.8287C10.2982 25.0191 7.65609 26.2983 5.27345 28.2044C2.77743 30.2012 1.86486 31.5489 1.86324 33.2409C1.86227 34.0047 1.52472 35.2193 1.06018 36.1276C0.0245135 38.1536 -0.246307 39.6524 0.22115 40.7725C0.427181 41.266 2.2685 43.3251 4.31327 45.3483C7.96935 48.9663 8.05422 49.0261 9.47117 48.9962C14.5193 48.8892 23.2451 40.5137 23.2451 35.7752C23.2451 34.6098 23.0423 34.1645 21.9934 33.0255C20.7452 31.6698 20.7433 31.6636 21.2645 30.6342C21.5522 30.0668 22.1868 29.4351 22.6747 29.2303C23.7094 28.7966 25.6734 26.7358 25.9874 25.7543C26.1066 25.3811 26.3913 25.0756 26.6197 25.0756C27.3447 25.0756 29.6813 23.1972 30.2039 22.1941C30.4805 21.663 31.1521 21.0001 31.6963 20.721C32.6766 20.2179 32.6983 20.225 34.113 21.5193C35.318 22.6214 35.7567 22.8252 36.9248 22.8249C38.6226 22.8246 41.8249 21.3794 44.2788 19.5061C48.0045 16.6619 51.4231 11.2065 50.9573 8.84899C50.8264 8.18607 49.554 6.61944 46.9666 3.93531C43.2042 0.032718 43.154 -0.00489595 41.7102 0.000247922C40.8381 0.00346284 39.5407 0.334279 38.4817 0.82359ZM45.6721 3.44857C47.2348 4.99205 48.5131 6.36643 48.5131 6.50274C48.5131 6.63905 48.0836 6.75061 47.5588 6.75061C47.0336 6.75061 45.5195 7.30775 44.1933 7.98867L41.7824 9.22674L41.6441 7.57009C41.487 5.6929 40.0814 3.34055 38.6677 2.58986C38.2031 2.34296 37.8228 2.04719 37.8228 1.93209C37.8228 1.46625 40.0205 0.682133 41.3798 0.662844C42.7805 0.642911 42.9305 0.740321 45.6721 3.44857ZM37.0998 2.4259C39.5093 3.42478 41.0623 5.68487 41.0623 8.19186C41.0623 9.57138 40.9204 9.80928 38.6722 12.1947C36.2688 14.7455 34.2594 18.0723 34.2594 19.501C34.2594 19.9147 34.1671 20.2533 34.054 20.2533C33.6892 20.2533 27.3029 13.4338 27.0454 12.7693C26.3972 11.0972 28.2028 7.52573 31.2816 4.39054C33.8272 1.79803 34.7965 1.47075 37.0998 2.4259ZM34.7129 4.73775C33.9092 5.28911 33.5959 6.36514 33.9895 7.22224C34.6692 8.70271 36.6744 8.7535 37.4879 7.31097C37.9342 6.51881 37.9342 6.3391 37.4888 5.54502C36.9854 4.64805 35.4813 4.21082 34.7129 4.73775ZM49.8643 7.92566C52.2103 10.0324 46.6248 18.1224 40.8274 21.0146C38.3816 22.2349 36.0673 22.5619 35.296 21.7964C34.5642 21.0702 34.8545 18.8384 35.9601 16.6937C38.9194 10.9525 47.3297 5.64918 49.8643 7.92566ZM44.5966 9.05635C40.5375 11.0493 35.5685 16.8834 35.5584 19.6678C35.5419 24.143 44.1132 19.989 48.2484 13.518C49.6074 11.3917 49.978 9.7871 49.3353 8.81362C48.6177 7.72698 47.1506 7.80189 44.5966 9.05635ZM49.024 9.46721C49.3923 10.9236 47.7771 13.6733 44.8664 16.5458C41.8867 19.4865 39.254 21.0101 37.449 20.8387C36.4888 20.7474 36.3534 20.6162 36.2636 19.6913C35.9319 16.2783 43.7349 8.71557 47.6161 8.68824C48.632 8.68085 48.8565 8.80526 49.024 9.46721ZM28.2987 16.2668C28.1834 16.5648 28.0162 16.7365 27.9272 16.6481C27.8381 16.5596 27.8595 16.2433 27.9748 15.9453C28.0901 15.6473 28.2573 15.4756 28.3463 15.564C28.4354 15.6524 28.4141 15.9687 28.2987 16.2668ZM29.7241 16.7069C29.7241 16.8779 29.5054 16.9348 29.2382 16.8332C28.9709 16.7313 28.7523 16.5911 28.7523 16.5217C28.7523 16.4523 28.9709 16.3954 29.2382 16.3954C29.5054 16.3954 29.7241 16.5355 29.7241 16.7069ZM29.7795 17.8919C30.1054 18.1845 30.3626 18.7271 30.3516 19.0975C30.3312 19.7614 30.327 19.7611 30.0458 19.0686C29.2706 17.1592 26.6472 17.4431 24.7508 19.6418C23.2429 21.3901 23.0239 22.37 23.8827 23.5232C24.6031 24.4902 24.2844 24.775 23.4301 23.9276C22.0417 22.5494 23.5924 19.229 26.3226 17.7341C27.2893 17.2049 29.107 17.2878 29.7795 17.8919ZM29.3849 20.0877C29.7235 20.1944 30.5213 20.0655 31.1582 19.8016C32.4644 19.2599 32.7673 19.6244 31.4906 20.2015C29.6865 21.0174 27.4565 20.2224 27.4565 18.7631C27.4565 18.3764 27.6298 18.4561 28.1128 19.0657C28.4737 19.5212 29.0461 19.981 29.3849 20.0877ZM29.4002 19.0284C29.4002 19.4511 28.6638 19.1866 28.5025 18.7059C28.4234 18.4709 28.5718 18.3992 28.887 18.5191C29.1692 18.6268 29.4002 18.8557 29.4002 19.0284ZM31.5058 18.6458C31.616 18.8226 31.5515 18.9673 31.363 18.9673C31.1744 18.9673 31.0199 18.8226 31.0199 18.6458C31.0199 18.469 31.084 18.3243 31.1628 18.3243C31.2415 18.3243 31.3957 18.469 31.5058 18.6458ZM27.6706 20.1694C28.9149 21.4788 28.8666 21.9684 27.4124 22.7885C26.6796 23.2017 26.5471 23.1592 25.5818 22.2012C25.0094 21.6331 24.5409 21.0281 24.5409 20.857C24.5409 20.5175 26.0084 18.9673 26.3298 18.9673C26.4389 18.9673 27.0421 19.5084 27.6706 20.1694ZM29.7477 21.8167C29.3529 22.549 27.2284 24.4327 26.7972 24.4327C26.2099 24.4327 26.4833 23.8935 27.2456 23.5489C27.6641 23.3595 28.3567 22.7657 28.7843 22.2288C29.6493 21.1441 30.2489 20.8872 29.7477 21.8167ZM25.8367 24.142C25.8367 25.1978 24.6167 27.2361 23.4606 28.1112C22.341 28.9586 21.9464 29.1107 21.9532 28.6924C21.9555 28.56 22.4427 28.1395 23.0355 27.7585C24.8331 26.6037 25.8037 23.7318 24.7029 22.8252C24.4356 22.605 24.2215 22.2619 24.2273 22.0626C24.2452 21.4232 25.8367 23.4791 25.8367 24.142ZM22.2733 22.3111C22.2733 22.3822 21.7644 22.7381 21.1424 23.1023C18.764 24.495 17.9573 27.3582 19.6007 28.5751C20.2907 29.0859 20.3636 29.237 19.9247 29.2447C19.0911 29.2599 18.062 28.0935 18.062 27.1335C18.062 25.9009 18.9567 24.2452 20.2149 23.1486C21.1589 22.3259 22.2733 21.8726 22.2733 22.3111ZM22.5972 23.6055C22.5972 23.8581 22.9617 24.3491 23.4071 24.6966C24.4331 25.4978 24.4224 25.7244 23.3083 26.7837C22.3089 27.7341 21.6254 27.8983 21.6254 27.1885C21.6254 26.9361 21.1774 26.3819 20.6299 25.9565L19.6344 25.1833L20.8032 24.1652C22.076 23.056 22.5972 22.8934 22.5972 23.6055ZM17.3726 29.0139L20.9558 32.6307L19.9137 32.9065C16.946 33.6919 13.677 35.546 11.9069 37.4479C9.72353 39.7935 6.93854 39.8183 4.50958 37.5138C3.00451 36.0858 2.51244 35.0104 2.51244 33.1477C2.51244 31.6868 2.63813 31.4167 3.91675 30.1295C6.67938 27.3486 10.1664 25.4161 12.4431 25.4042C13.733 25.3975 13.9394 25.5486 17.3726 29.0139ZM20.5518 26.739C21.0494 27.2033 21.3014 27.8045 21.3014 28.5285C21.3014 29.7199 20.8162 30.8625 20.3098 30.8625C20.1333 30.8625 20.2114 30.4355 20.4832 29.9141C21.1667 28.6024 21.1058 28.0671 20.1676 27.1361C18.8955 25.8736 19.2408 25.5167 20.5518 26.739ZM17.0836 26.8516C16.8582 27.121 16.6071 27.2753 16.5255 27.1946C16.301 26.9715 16.7574 26.3616 17.1488 26.3616C17.3639 26.3616 17.3392 26.5461 17.0836 26.8516ZM20.0056 27.6476C20.0056 27.8244 19.8599 27.9691 19.6817 27.9691C19.5035 27.9691 19.3578 27.8244 19.3578 27.6476C19.3578 27.4708 19.5035 27.3261 19.6817 27.3261C19.8599 27.3261 20.0056 27.4708 20.0056 27.6476ZM17.738 27.9691C17.738 28.1459 17.6739 28.2906 17.5951 28.2906C17.5164 28.2906 17.3622 28.1459 17.2521 27.9691C17.1419 27.7922 17.2064 27.6476 17.395 27.6476C17.5835 27.6476 17.738 27.7922 17.738 27.9691ZM19.6817 29.898C19.6817 30.0748 19.5359 30.2195 19.3578 30.2195C19.1796 30.2195 19.0338 30.0748 19.0338 29.898C19.0338 29.7212 19.1796 29.5765 19.3578 29.5765C19.5359 29.5765 19.6817 29.7212 19.6817 29.898ZM5.42797 32.4699C4.10043 33.7874 5.00004 35.6849 6.95247 35.6849C8.10605 35.6849 8.74844 35.0483 8.74844 33.9051C8.74844 32.0893 6.70239 31.2052 5.42797 32.4699ZM21.8771 33.935C25.1133 36.1845 17.5861 46.0745 11.0916 48.1063C7.9619 49.0853 6.5579 47.9527 7.32501 45.0676C8.40182 41.0194 13.8092 35.5257 18.2 34.0195C20.2476 33.3168 20.9642 33.3004 21.8771 33.935ZM18.7099 34.5072C14.2786 35.9691 8.5395 41.6974 7.86763 45.3296C6.92656 50.4175 15.6268 46.8139 20.1518 40.2417C22.9345 36.2002 22.2176 33.3499 18.7099 34.5072ZM20.9435 35.0142C21.652 35.4595 21.1877 37.7148 20.0141 39.5299C17.8012 42.9519 12.1026 47.2573 9.78508 47.2582C8.20227 47.2589 7.97161 46.0366 9.12746 43.773C10.8544 40.3909 14.149 37.1956 17.6816 35.4772C19.3014 34.6892 20.2191 34.559 20.9435 35.0142ZM2.66631 36.3028C3.18171 37.9147 6.41245 39.8572 8.58647 39.8623C9.34062 39.8643 9.5635 40.3169 8.98525 40.6718C8.53334 40.949 7.04707 43.9077 6.60196 45.4164L6.23784 46.6513L3.36604 43.5296C0.498773 40.4124 0.494886 40.4053 0.688284 39.0052C0.898202 37.4836 1.70386 35.6849 2.17488 35.6849C2.33653 35.6849 2.55779 35.963 2.66631 36.3028Z" fill="black"/>
</svg>
