<svg width="100" height="100" viewBox="0 0 100 100" fill="none" xmlns="http://www.w3.org/2000/svg">
<path fill-rule="evenodd" clip-rule="evenodd" d="M75.4543 1.6808C73.4332 2.65249 71.4018 3.19968 70.5939 2.99038C67.4395 2.17221 65.0251 3.40438 60.5057 8.13622C52.7316 16.2778 49.7233 24.7153 53.2239 28.5641C54.674 30.1584 54.6747 30.1728 53.49 32.4456C52.8358 33.7001 51.5019 35.068 50.5249 35.486C48.5311 36.3389 45.2655 39.9075 44.6526 41.902C44.4309 42.6237 42.9757 43.8507 41.4188 44.6295C39.712 45.4831 37.7715 47.2191 36.5316 49.0024C35.4004 50.6295 33.6733 52.3886 32.6925 52.9121C31.0239 53.8038 30.7825 53.7533 28.9042 52.1209C27.2121 50.6505 26.446 50.4235 24.0107 50.6709C20.1926 51.0593 15.0119 53.6699 10.3401 57.56C5.44593 61.6351 3.6566 64.3855 3.65342 67.8385C3.65151 69.3974 2.98964 71.8762 2.07878 73.7297C0.0480657 77.8645 -0.482956 80.9232 0.433628 83.2091C0.83761 84.2162 4.44805 88.4186 8.45738 92.5475C15.6262 99.9313 15.7926 100.053 18.5709 99.9923C28.4691 99.7738 45.5787 82.681 45.5787 73.0106C45.5787 70.6322 45.1811 69.7235 43.1243 67.3989C40.6769 64.6321 40.6731 64.6197 41.6951 62.5188C42.2592 61.3608 43.5035 60.0716 44.4601 59.6536C46.4889 58.7685 50.3401 54.5629 50.9556 52.5598C51.1893 51.7981 51.7477 51.1748 52.1955 51.1748C53.6171 51.1748 58.1987 47.3411 59.2233 45.2941C59.7657 44.2102 61.0825 42.8573 62.1496 42.2878C64.0717 41.261 64.1143 41.2755 66.8881 43.9169C69.2511 46.1661 70.1111 46.582 72.4016 46.5814C75.7307 46.5807 82.0095 43.6315 86.8211 39.8084C94.1265 34.0038 100.83 22.8704 99.9163 18.0592C99.6596 16.7063 97.1646 13.5091 92.0913 8.03124C84.7142 0.0667715 84.6157 -0.00999173 81.7847 0.000505962C80.0747 0.00706702 77.5308 0.682203 75.4543 1.6808ZM89.5531 7.03789C92.6173 10.1879 95.1237 12.9927 95.1237 13.2709C95.1237 13.5491 94.2815 13.7768 93.2525 13.7768C92.2228 13.7768 89.2539 14.9138 86.6534 16.3034L81.9263 18.8301L81.6551 15.4492C81.347 11.6182 78.5909 6.81744 75.819 5.28544C74.9081 4.78155 74.1624 4.17793 74.1624 3.94305C74.1624 2.99235 78.4715 1.39211 81.1368 1.35274C83.8834 1.31206 84.1775 1.51086 89.5531 7.03789ZM72.7446 4.95082C77.4692 6.98934 80.5143 11.6018 80.5143 16.7181C80.5143 19.5334 80.2361 20.0189 75.8278 24.8872C71.1153 30.0928 67.1752 36.8822 67.1752 39.7979C67.1752 40.6423 66.9942 41.3332 66.7725 41.3332C66.0573 41.3332 53.5351 27.4159 53.0301 26.0597C51.7591 22.6473 55.2997 15.3586 61.3366 8.96028C66.3279 3.66945 68.2284 3.00153 72.7446 4.95082ZM68.0645 9.66888C66.4886 10.7941 65.8744 12.9901 66.6461 14.7393C67.9788 17.7606 71.9106 17.8643 73.5056 14.9203C74.3809 13.3037 74.3809 12.9369 73.5075 11.3164C72.5204 9.48582 69.5712 8.59352 68.0645 9.66888ZM97.7731 16.1748C102.373 20.4743 91.4212 36.9845 80.0538 42.8868C75.2581 45.3774 70.7203 46.0447 69.2079 44.4825C67.773 43.0004 68.3421 38.4457 70.51 34.0688C76.3125 22.3521 92.8034 11.5289 97.7731 16.1748ZM87.4443 18.4823C79.4853 22.5495 69.7421 34.4559 69.7224 40.1384C69.69 49.2714 86.4965 40.7939 94.6048 27.5878C97.2694 23.2483 97.9961 19.9737 96.7359 17.987C95.3289 15.7693 92.4521 15.9222 87.4443 18.4823ZM96.1254 19.3208C96.8476 22.293 93.6806 27.9047 87.9734 33.767C82.1309 39.7684 76.9686 42.8777 73.4294 42.528C71.5466 42.3416 71.2811 42.0739 71.1052 40.1863C70.4547 33.2211 85.7546 17.7869 93.3649 17.7311C95.3569 17.716 95.797 17.9699 96.1254 19.3208ZM55.4877 33.1975C55.2616 33.8057 54.9338 34.156 54.7591 33.9756C54.5845 33.7952 54.6264 33.1496 54.8525 32.5414C55.0786 31.9332 55.4064 31.5828 55.5811 31.7632C55.7558 31.9437 55.7138 32.5893 55.4877 33.1975ZM58.2825 34.0957C58.2825 34.4447 57.8538 34.5609 57.3298 34.3535C56.8057 34.1455 56.377 33.8595 56.377 33.7178C56.377 33.576 56.8057 33.4599 57.3298 33.4599C57.8538 33.4599 58.2825 33.746 58.2825 34.0957ZM58.3912 36.5141C59.0302 37.1111 59.5345 38.2187 59.5129 38.9745C59.4729 40.3293 59.4646 40.3287 58.9133 38.9154C57.3933 35.0188 52.2495 35.5982 48.5311 40.0853C45.5742 43.6532 45.1449 45.653 46.8288 48.0064C48.2414 49.98 47.6164 50.5613 45.9414 48.8318C43.2189 46.0191 46.2596 39.2428 51.613 36.1919C53.5084 35.112 57.0725 35.2813 58.3912 36.5141ZM57.6175 40.9953C58.2813 41.2131 59.8458 40.95 61.0945 40.4114C63.6556 39.3058 64.2496 40.0498 61.7463 41.2276C58.2089 42.8928 53.8362 41.2702 53.8362 38.2921C53.8362 37.5028 54.176 37.6656 55.1231 38.9095C55.8307 39.8392 56.9531 40.7775 57.6175 40.9953ZM57.6474 38.8334C57.6474 39.6962 56.2036 39.1562 55.8872 38.1753C55.7322 37.6957 56.0232 37.5494 56.6412 37.7942C57.1945 38.014 57.6474 38.4811 57.6474 38.8334ZM61.7761 38.0527C61.9921 38.4135 61.8657 38.7088 61.496 38.7088C61.1263 38.7088 60.8233 38.4135 60.8233 38.0527C60.8233 37.6918 60.9491 37.3966 61.1034 37.3966C61.2578 37.3966 61.5601 37.6918 61.7761 38.0527ZM54.2561 41.1619C56.6958 43.8343 56.6012 44.8335 53.7498 46.5072C52.313 47.3503 52.0532 47.2637 50.1603 45.3085C49.0379 44.1492 48.1195 42.9144 48.1195 42.5654C48.1195 41.8725 50.9969 38.7088 51.627 38.7088C51.8411 38.7088 53.0238 39.813 54.2561 41.1619ZM58.3289 44.5238C57.5546 46.0184 53.389 49.8626 52.5436 49.8626C51.392 49.8626 51.9281 48.7623 53.4227 48.0589C54.2434 47.6725 55.6014 46.4607 56.4399 45.365C58.1358 43.1513 59.3116 42.627 58.3289 44.5238ZM50.6602 49.2694C50.6602 51.4241 48.2681 55.5838 46.0011 57.3697C43.8059 59.0992 43.0322 59.4095 43.0455 58.556C43.05 58.2856 44.0053 57.4275 45.1677 56.65C48.6924 54.2932 50.5954 48.4322 48.4371 46.582C47.913 46.1326 47.4932 45.4325 47.5046 45.0258C47.5395 43.7208 50.6602 47.9165 50.6602 49.2694ZM43.6731 45.5329C43.6731 45.6779 42.6752 46.4042 41.4557 47.1476C36.7921 49.9898 35.2104 55.8331 38.4328 58.3165C39.7857 59.359 39.9287 59.6674 39.068 59.6831C37.4336 59.714 35.4156 57.3336 35.4156 55.3745C35.4156 52.859 37.17 49.48 39.6371 47.2421C41.4881 45.5631 43.6731 44.638 43.6731 45.5329ZM44.3083 48.1744C44.3083 48.6901 45.0229 49.692 45.8963 50.4012C47.9079 52.0362 47.887 52.4988 45.7026 54.6607C43.743 56.6001 42.4027 56.9354 42.4027 55.4867C42.4027 54.9717 41.5243 53.8405 40.4508 52.9725L38.4988 51.3946L40.7906 49.3167C43.2863 47.0531 44.3083 46.7211 44.3083 48.1744ZM34.0639 59.2121L41.0898 66.5932L39.0464 67.1562C33.2274 68.7591 26.8176 72.5428 23.3469 76.4243C19.0657 81.2113 13.605 81.2618 8.84231 76.5588C5.89121 73.6444 4.92635 71.4497 4.92635 67.6483C4.92635 64.6669 5.1728 64.1158 7.67991 61.4887C13.0968 55.8134 19.934 51.8696 24.3982 51.8453C26.9275 51.8315 27.3321 52.1399 34.0639 59.2121ZM40.2977 54.5695C41.2734 55.5169 41.7675 56.7438 41.7675 58.2213C41.7675 60.6529 40.816 62.9847 39.8232 62.9847C39.477 62.9847 39.6301 62.1134 40.163 61.0492C41.5033 58.3722 41.3839 57.2798 39.5444 55.3797C37.05 52.8032 37.7271 52.0749 40.2977 54.5695ZM33.4973 54.7991C33.0552 55.3489 32.563 55.6638 32.4029 55.4992C31.9627 55.0438 32.8577 53.7992 33.625 53.7992C34.0468 53.7992 33.9985 54.1758 33.4973 54.7991ZM39.2268 56.4236C39.2268 56.7845 38.9409 57.0797 38.5916 57.0797C38.2422 57.0797 37.9564 56.7845 37.9564 56.4236C37.9564 56.0628 38.2422 55.7675 38.5916 55.7675C38.9409 55.7675 39.2268 56.0628 39.2268 56.4236ZM34.7804 57.0797C34.7804 57.4406 34.6546 57.7358 34.5003 57.7358C34.3459 57.7358 34.0436 57.4406 33.8276 57.0797C33.6117 56.7189 33.7381 56.4236 34.1077 56.4236C34.4774 56.4236 34.7804 56.7189 34.7804 57.0797ZM38.5916 61.0164C38.5916 61.3772 38.3057 61.6725 37.9564 61.6725C37.607 61.6725 37.3212 61.3772 37.3212 61.0164C37.3212 60.6555 37.607 60.3602 37.9564 60.3602C38.3057 60.3602 38.5916 60.6555 38.5916 61.0164ZM10.6431 66.2652C8.04006 68.9539 9.80399 72.8263 13.6323 72.8263C15.8942 72.8263 17.1538 71.5272 17.1538 69.1941C17.1538 65.4884 13.1419 63.6841 10.6431 66.2652ZM42.8963 69.2551C49.2418 73.8458 34.4825 94.0296 21.7482 98.1762C15.6116 100.174 12.8586 97.8626 14.3628 91.9747C16.4742 83.713 27.0768 72.5015 35.6862 69.4276C39.7013 67.9934 41.1063 67.9599 42.8963 69.2551ZM36.686 70.4229C27.9972 73.4063 16.7441 85.0967 15.4267 92.5094C13.5815 102.893 30.6409 95.5387 39.5132 82.1259C44.9695 73.878 43.5639 68.061 36.686 70.4229ZM41.0656 71.4576C42.4548 72.3663 41.5446 76.9689 39.2433 80.6733C34.9043 87.6569 23.7306 96.4434 19.1864 96.4454C16.0829 96.4467 15.6306 93.9522 17.897 89.3326C21.2832 82.4303 27.7431 75.9093 34.6699 72.4024C37.8459 70.7943 39.6454 70.5286 41.0656 71.4576ZM5.22806 74.0873C6.23865 77.377 12.5734 81.3412 16.8362 81.3517C18.3149 81.3556 18.752 82.2794 17.6181 83.0038C16.732 83.5693 13.8178 89.6075 12.945 92.6866L12.2311 95.2067L6.60008 88.8359C0.977987 82.4743 0.970365 82.4599 1.34958 79.6025C1.76118 76.4972 3.34091 72.8263 4.26448 72.8263C4.58144 72.8263 5.01527 73.3938 5.22806 74.0873Z" fill="black"/>
</svg>
