<svg width="70" height="78" viewBox="0 0 70 78" fill="none" xmlns="http://www.w3.org/2000/svg">
<path fill-rule="evenodd" clip-rule="evenodd" d="M21.7646 0.609081C20.3683 0.967122 18.7234 1.75574 18.1097 2.36198C17.0601 3.39879 17.047 3.51693 17.8836 4.3439C18.7202 5.17035 18.9699 5.15584 22.063 4.09985C23.8726 3.48222 26.5918 2.82417 28.1066 2.63763L30.8604 2.29877L30.8682 4.56774C30.8808 8.08338 31.7232 8.7606 32.1622 5.60818C32.5614 2.74127 33.0843 2.43245 35.8092 3.45579C37.0073 3.90606 37.1547 4.247 37.1547 6.56469V9.16839H34.3039C32.7361 9.16839 30.8236 9.40466 30.0542 9.69379C28.6684 10.2145 28.6568 10.2601 28.8399 14.6162L29.0245 19.0132H27.613C26.8367 19.0132 26.0919 19.1884 25.9581 19.4018C25.8244 19.6153 28.5551 19.7065 32.0258 19.6044C36.5546 19.4707 38.2347 19.5806 37.9766 19.993C37.7788 20.3096 38.1701 19.993 36.4543 19.993C31.9717 19.993 25.7525 18.9052 25.5656 21.0889C25.1731 25.6764 25.035 31.2084 25.035 30.4125C25.4275 27.0588 28.7474 23.4767 44.1303 28.0422C45.1138 28.4944 44.2237 74.3282 43.1484 75.4521C42.3427 76.2941 42.9244 75.4521 39.0883 76.0073L43.0656 75.2114L43.9222 66.1535C43.8765 61.2446 44.3679 40.1868 44.1303 30.6399C45.6539 25.0685 25.336 24.1548 25.035 30.4125C24.8498 34.2598 24.8252 45.9958 24.9804 56.493C25.3067 78.5781 24.6746 76.5236 31.4678 77.5827C36.2362 78.3263 41.4017 78.0568 44.0443 76.9273L45.9504 76.1122L45.8801 48.4197C45.8235 26.259 45.6703 20.5614 45.1138 19.8987C44.7314 19.4438 43.5749 18.9997 42.5442 18.9127L40.6706 18.7541L40.7807 13.9214C40.8835 9.42901 40.8148 9.06838 39.8098 8.80879C38.8683 8.56578 38.7282 8.12483 38.7282 5.4087C38.7282 3.10397 38.9548 2.12363 39.5953 1.66144C40.0721 1.31687 40.3212 0.810123 40.1492 0.535505C39.6771 -0.219439 24.7633 -0.159334 21.7646 0.609081ZM59.1847 19.02C56.5663 19.4759 55.2319 20.3122 54.0397 22.2449C52.089 25.4077 51.683 29.2239 52.3591 38.0547C52.8165 44.0269 52.8259 47.4518 52.3969 51.34C52.0785 54.2215 51.8875 60.0429 51.9715 64.2756C52.1446 72.9847 52.2993 73.3163 56.7431 74.508C60.5658 75.5334 68.6828 74.3339 69.3385 72.6468C69.7781 71.5152 69.8095 58.7817 69.3941 50.1022C69.1471 44.9455 69.2347 39.5376 69.6375 34.9934C70.1138 29.6306 70.1195 27.371 69.6627 25.6668C68.4232 21.0428 63.9312 18.193 59.1847 19.02ZM56.3371 22.418C55.4422 23.3025 55.3164 23.8273 55.8676 24.3719C56.2516 24.7517 58.6602 22.733 58.6602 22.032C58.6602 21.3138 57.2115 21.5547 56.3371 22.418ZM13.551 25.7699C10.8104 25.9797 6.59527 26.1777 4.18403 26.2093C-0.152228 26.2668 -0.196813 26.2808 0.111084 27.4927C1.34477 32.3493 3.50372 55.2738 3.67996 65.3876C3.73451 68.5224 3.57243 73.2883 3.67628 71.8499V72.4925L7.95464 73.2417L11.5062 73.2734L15.1137 72.4285C13.2122 73.0805 15.0443 72.4385 13.6821 72.9505C12.0865 73.5505 5.98315 73.3603 4.4316 72.6624C3.70304 72.3349 3.50372 72.4007 3.67628 72.9121C4.27057 74.6738 12.4028 75.6619 15.1246 74.3034C16.1149 73.809 16.4537 73.2085 16.5088 71.8499C16.5492 70.8603 16.7265 65.5679 16.9032 60.0884C17.08 54.609 17.6733 46.5648 18.2219 42.2123C18.77 37.8599 19.3696 32.8582 19.5537 31.097L20.1076 26.2746L19.5537 26.9922L16.9405 27.1212C16.1349 27.3782 14.8421 27.3465 12.39 27.5967H7.61723L2.04905 27.4927C2.67826 31.097 2.76154 36.4593 2.9168 36.6122C3.07154 36.765 4.03637 43.2118 3.66448 44.9823C4.0004 51.4698 4.24876 49.8612 3.91359 57.1827C3.57841 64.5129 4.63548 64.5922 4.63548 64.5922C4.63548 64.5922 6.5318 65.3363 5.12397 64.5922C4.19924 64.1031 4.10954 63.4476 4.10954 57.1827C4.10954 48.9622 3.31331 38.0775 2.25535 31.8374C1.83258 29.3436 1.48692 27.2212 1.48692 27.1212C1.48692 27.0212 10.7972 26.9922 10.7972 26.9922C18.7092 27.0368 20.1076 26.929 20.1076 26.2746C20.1076 25.3243 19.7441 25.2963 13.551 25.7699ZM64.4384 68.7851C63.4329 69.339 62.0167 69.7955 61.2912 69.7996C60.5653 69.8043 59.6453 70.012 59.2466 70.2613C58.6754 70.6188 58.7536 70.7877 59.6169 71.0582C61.5939 71.6779 66.2375 70.4545 67.1759 69.0664C68.2674 67.4519 67.0809 67.3296 64.4384 68.7851ZM33.6991 72.8266C33.8517 73.0707 35.2228 73.4251 36.7461 73.6137C38.2687 73.8023 40.2824 74.0951 41.2197 74.2645C42.5227 74.5002 42.9244 74.3899 42.9244 73.7971C42.9244 73.3707 42.3931 72.881 41.7443 72.709C39.9315 72.2292 33.3849 72.3251 33.6991 72.8266Z" fill="black"/>
</svg>
