<svg width="70" height="85" viewBox="0 0 70 85" fill="none" xmlns="http://www.w3.org/2000/svg">
<path fill-rule="evenodd" clip-rule="evenodd" d="M0.548918 0.212702C0.025849 0.34899 -0.0568866 0.688151 0.0296569 2.33991L0.132471 4.30551L18.5662 4.39533L37 4.48515V2.58682C37 1.06511 36.8671 0.617407 36.3305 0.329572C35.6665 -0.0262342 1.89277 -0.136515 0.548918 0.212702ZM0.423603 6.47295C0.541648 7.37876 1.02698 10.3646 1.50194 13.1074C3.44501 24.3267 4.77882 37.8546 5.50578 53.723C6.16005 68.0035 6.46122 72.166 6.87006 72.5756C7.38655 73.0933 29.5296 73.1356 30.0447 72.62C30.4102 72.2541 30.7671 67.569 31.6433 51.6423C32.6617 33.1293 33.7657 22.65 35.9591 10.6788C36.5313 7.55494 36.9997 4.96025 36.9997 4.9124C37 4.86454 28.7219 4.8257 18.6047 4.8257H0.208976L0.423603 6.47295ZM21.6742 31.0191C25.0532 32.4333 26.6286 34.7429 26.8838 38.6571C27.0724 41.5507 26.4064 43.2108 24.321 45.045C21.2799 47.7201 17.7212 48.232 14.607 46.4425C9.3137 43.4015 8.37349 36.9943 12.5996 32.7606C13.3169 32.0421 14.3883 31.2427 14.9802 30.9847C16.4383 30.3487 20.1181 30.3678 21.6742 31.0191ZM7.83484 73.8646C7.18957 74.2412 7.05734 75.6974 7.45128 78.085L7.66591 79.3855H11.6462H15.6265L16.9676 78.1717C17.705 77.5041 18.4634 76.9579 18.6528 76.9579C18.8421 76.9579 19.6006 77.5041 20.338 78.1717L21.679 79.3855H25.5316H29.3842L29.388 77.7382C29.3901 76.8321 29.4884 75.5059 29.6064 74.7905L29.821 73.49L19.1308 73.5005C12.5162 73.507 8.20975 73.6458 7.83484 73.8646ZM7.96293 80.1065C7.23319 80.3991 7.16084 80.5979 7.32874 81.8525C7.43501 82.6453 7.87361 83.6493 8.32572 84.1341L9.13299 85L18.4797 84.8526C23.6204 84.7718 28.0974 84.5845 28.4291 84.4372C29.1287 84.1254 29.8515 81.9951 29.6774 80.7574C29.559 79.9171 29.505 79.9043 25.6393 79.8075L21.7216 79.709L20.7592 80.7411C19.244 82.3661 18.3319 82.4161 16.6027 80.9686C15.1395 79.7441 15.0955 79.7326 11.956 79.7541C10.2131 79.7662 8.41607 79.9247 7.96293 80.1065Z" fill="black"/>
<path d="M70 67.7651C70 75.6268 63.5081 82 55.5 82C47.4919 82 41 75.6268 41 67.7651C41 59.9034 45.2747 51.6541 55.5 42C47.6913 62.8578 68.4056 53.0122 70 67.7651Z" fill="black"/>
</svg>
