<svg width="60" height="90" viewBox="0 0 60 90" fill="none" xmlns="http://www.w3.org/2000/svg">
<path fill-rule="evenodd" clip-rule="evenodd" d="M34.8077 0.0924056C34.7733 0.148306 34.7036 0.168206 34.6527 0.136506C34.6018 0.104906 34.5601 0.121306 34.5601 0.173106C34.5601 0.288206 32.723 0.632206 32.5222 0.554706C32.443 0.524106 32.3379 0.571706 32.2885 0.660406C32.235 0.756606 32.1336 0.796606 32.0373 0.759405C31.9486 0.725105 31.8759 0.731506 31.8759 0.773606C31.8759 0.815706 31.7528 0.847206 31.6025 0.843606C31.4522 0.840006 31.27 0.894206 31.1978 0.963906C31.0833 1.07451 30.7423 1.13801 30.6515 1.06581C30.6342 1.05201 30.4973 1.17411 30.3473 1.33691C30.1228 1.58051 30.0581 1.60711 29.9825 1.48691C29.9199 1.38731 29.8902 1.38061 29.8891 1.46581C29.8864 1.69131 29.689 1.59641 29.6809 1.36581C29.6737 1.15861 29.6653 1.16201 29.5753 1.40961C29.4786 1.67541 29.4754 1.67621 29.2849 1.48461C29.0763 1.27471 28.8934 1.23091 28.8934 1.39081C28.8934 1.44581 28.8263 1.49081 28.7443 1.49081C28.6623 1.49081 28.5944 1.52461 28.5934 1.56581C28.5925 1.60701 28.3702 1.88031 28.0995 2.17301C27.0221 3.33801 25.6369 6.04491 24.7389 8.74081C24.3011 10.0549 23.7002 12.2256 23.5348 13.0908C22.9163 16.3238 22.5672 17.634 21.7921 19.6295C20.8791 21.9803 20.5957 23.4082 20.6683 25.2908C20.736 27.0436 20.9121 27.623 22.066 29.8908C22.6117 30.9633 23.2525 32.2233 23.4899 32.6908C24.5926 34.862 25.1098 36.6003 25.1864 38.3935C25.2324 39.4718 25.2097 39.7634 25.0229 40.4883C24.6616 41.89 23.6319 43.916 22.0655 46.3071C21.0781 47.8143 20.2816 49.6676 19.8001 51.5781C18.9088 55.1151 19.4228 57.9571 21.6833 61.9908C23.0079 64.3546 23.6059 65.6302 24.1227 67.1945C25.3699 70.9699 25.3962 74.2523 24.1997 76.7895C23.8017 77.6333 22.5322 78.9261 21.715 79.3195C20.4469 79.9302 18.8756 80.0852 17.408 79.7445C16.138 79.4497 11.4932 77.4398 10.054 76.5622C9.94442 76.4954 9.58066 76.2721 9.24563 76.0658C8.9106 75.8596 8.58641 75.6908 8.52517 75.6908C8.46403 75.6908 8.41392 75.6548 8.41392 75.6107C8.41392 75.5667 8.21718 75.4056 7.97669 75.2527C7.73631 75.0998 7.44552 74.8866 7.3305 74.7789C7.21557 74.6711 7.12152 74.609 7.12152 74.6408C7.12152 74.7046 7.13733 74.7167 6.241 73.9684C5.89345 73.6782 5.49082 73.3648 5.34627 73.2719C5.20182 73.1791 5.03878 73.0666 4.984 73.0219C4.92932 72.9773 4.70564 72.8074 4.48692 72.6444C4.26831 72.4814 4.03021 72.2902 3.95803 72.2194C3.88576 72.1487 3.79629 72.0904 3.7592 72.09C3.72202 72.0895 3.42378 71.8417 3.0963 71.5392C2.76883 71.2366 2.41094 70.9617 2.30098 70.9281C2.19103 70.8946 2.03395 70.8094 1.95194 70.7389C1.86992 70.6684 1.64623 70.5885 1.45486 70.5614C1.26349 70.5343 1.02887 70.4801 0.933428 70.4409C0.62882 70.316 0.100329 70.9545 0.0196037 71.5451C-0.143238 72.736 0.724755 75.1094 2.01586 77.0032C4.94234 81.296 9.36334 84.7609 14.9256 87.121C21.3785 89.8591 29.5155 90.4777 37.5929 88.8444C39.4319 88.4725 41.1737 87.9063 43.3391 86.9765C51.2589 83.5758 57.0215 78.4196 59.2489 72.7408C59.886 71.1164 59.9379 69.9551 59.3994 69.3751C59.1316 69.0867 59.0764 69.0696 58.5402 69.1086C58.0941 69.1411 57.8579 69.2254 57.4727 69.4897C57.2007 69.6764 56.9633 69.8655 56.9451 69.91C56.9268 69.9544 56.8523 69.9908 56.7794 69.9908C56.7065 69.9908 56.632 70.0262 56.6137 70.0695C56.5955 70.1128 56.3793 70.304 56.1332 70.4945C55.8871 70.685 55.5954 70.9308 55.4848 71.0408C55.3742 71.1508 55.0834 71.4034 54.8386 71.6022C54.5938 71.8009 54.2369 72.1113 54.0455 72.2919C53.8541 72.4725 53.2725 72.9392 52.7531 73.329C51.527 74.2489 51.5718 74.2135 51.3862 74.4107C51.2983 74.5041 51.1827 74.5534 51.1293 74.5202C51.0755 74.4867 51.0639 74.5114 51.1034 74.5755C51.1462 74.6453 51.0795 74.7274 50.9353 74.7826C50.8039 74.8329 50.6142 74.9566 50.514 75.0574C50.4136 75.1583 50.3061 75.2469 50.2748 75.2543C49.9668 75.3272 49.7826 75.4293 49.8273 75.5022C49.8573 75.5509 49.8405 75.5908 49.7902 75.5908C49.7398 75.5908 49.5328 75.7232 49.3303 75.8851C49.1276 76.0472 48.8963 76.154 48.8155 76.1229C48.7247 76.0878 48.6799 76.1185 48.6978 76.2035C48.7147 76.2839 48.6519 76.3346 48.5461 76.3258C48.4468 76.3176 48.3906 76.336 48.4213 76.3668C48.5167 76.4628 48.0871 76.7064 47.9561 76.6306C47.8879 76.5911 47.8649 76.5953 47.9051 76.6399C48.0004 76.7459 47.4952 77.0095 47.3589 76.9248C47.3013 76.8889 47.2837 76.9074 47.3197 76.966C47.3768 77.0589 44.8689 78.3897 44.6335 78.3914C44.5883 78.3918 44.4215 78.4601 44.2628 78.5433C44.1043 78.6266 43.8806 78.6683 43.7658 78.6362C43.5991 78.5895 43.5872 78.5988 43.7063 78.6827C43.8326 78.7716 43.8249 78.7903 43.6566 78.8045C43.3063 78.834 43.2613 78.8446 43.128 78.9285C43.056 78.9738 42.9752 78.9887 42.9484 78.9617C42.9215 78.9347 42.6225 78.9974 42.2839 79.1009C41.519 79.3349 40.106 79.3524 39.2875 79.138C37.4265 78.6504 35.9298 77.1588 35.3049 75.1694C34.8641 73.7656 34.7258 72.618 34.7898 70.8941C34.8957 68.0352 35.622 65.58 37.4944 61.7494C38.8149 59.0481 39.3004 57.3117 39.3981 54.9408C39.539 51.5221 38.4568 48.8066 35.0293 43.9791C33.9759 42.4955 33.3776 41.3279 33.051 40.1192C32.7614 39.0472 32.7381 36.7979 33.0046 35.6408C33.2151 34.7269 34.0746 32.5324 35.0802 30.3414C35.943 28.4615 36.1905 27.7513 36.39 26.5831C36.6941 24.8028 36.5327 22.8509 35.9538 21.3036C35.7968 20.8841 35.3559 19.8433 34.9742 18.9908C33.6886 16.1206 32.974 13.6207 32.9711 11.9834C32.9671 9.83911 33.8561 6.94241 35.2993 4.39671C36.2564 2.70811 36.3048 1.24581 35.4324 0.368206C35.0433 -0.0231941 34.9138 -0.0802944 34.8077 0.0924056ZM29.3261 1.06681C29.3622 1.12561 29.3355 1.19651 29.2668 1.22441C29.1915 1.25491 29.211 1.27811 29.316 1.28291C29.5127 1.29181 29.5486 1.13911 29.3751 1.03131C29.3073 0.989106 29.2872 1.00361 29.3261 1.06681Z" fill="black"/>
</svg>
