<svg width="84" height="81" viewBox="0 0 84 81" fill="none" xmlns="http://www.w3.org/2000/svg">
<path fill-rule="evenodd" clip-rule="evenodd" d="M67.093 0.808478C65.051 2.23848 64.478 4.25498 63.7245 12.6595C62.4935 26.3995 61.852 29.423 58.1655 38.865C54.7675 47.569 55.152 50.6565 60.307 56.0615L63.1655 59.058L63.3715 63.168C63.4845 65.4285 63.3575 67.8405 63.0885 68.528C62.7985 69.271 61.5145 70.3625 59.9245 71.2185C56.5895 73.014 56.0205 73.755 56.0005 76.3255C55.972 79.9935 56.102 80.028 70.0715 80.028C81.312 80.028 82.398 79.952 83.157 79.1135C84.104 78.0675 84.237 75.629 83.4425 73.885C83.144 73.2305 81.657 72.0445 80.1375 71.2495C76.748 69.4765 76.3295 68.521 76.5975 63.168L76.8035 59.058L79.662 56.0615C84.957 50.51 85.2295 47.7185 81.4345 37.899C78.312 29.8195 77.6985 27.0425 76.714 16.528C75.6735 5.41248 75.187 3.15398 73.4655 1.43248C71.837 -0.196023 68.933 -0.480522 67.093 0.808478ZM36.556 6.29448C34.582 7.95598 34.151 9.50098 33.4935 17.278C32.7565 25.9915 31.862 30.985 29.482 39.665C26.5435 50.3815 26.777 53.3245 31.0005 58.799C32.959 61.337 32.9845 61.426 32.9845 65.6635C32.9845 70.495 32.823 70.7905 29.2435 72.524C26.5155 73.844 25.879 74.8805 26.0815 77.672L26.2345 79.778L39.3375 79.9115C52.246 80.0425 52.449 80.029 53.0085 78.9835C53.7245 77.645 53.234 74.902 52.0995 73.905C51.624 73.4865 50.269 72.659 49.0895 72.066C46.423 70.725 45.8485 69.3335 46.072 64.757C46.233 61.4505 46.387 61.0445 48.6045 58.0945C52.6255 52.746 52.7785 50.3935 49.7895 39.889C47.3315 31.25 46.6215 27.3775 45.748 17.845C44.918 8.78598 44.366 7.00948 42.001 5.78648C39.8935 4.69648 38.2755 4.84748 36.556 6.29448ZM9.40001 10.293C7.70801 11.2115 7.14601 13.063 6.74751 19.028C6.31151 25.553 5.30951 31.631 3.18551 40.635C0.815514 50.6805 0.930513 53.4735 3.91651 58.4155C5.88301 61.67 5.98451 62.0345 5.98451 65.8375C5.98451 70.245 5.73301 70.7795 2.85301 72.496C0.692013 73.7845 -0.021987 74.879 0.000513025 76.87C0.035513 79.964 0.276512 80.028 11.927 80.028H22.5095L23.03 78.658C23.949 76.241 23.181 74.161 20.835 72.7145C17.744 70.8085 17.4845 70.2895 17.4845 66.007C17.4845 62.811 17.704 61.7715 18.8115 59.7275C19.541 58.3805 20.488 56.603 20.916 55.778C22.3715 52.971 22.205 48.8845 20.3035 40.778C18.0115 31.003 17.624 28.708 16.795 19.9905C16.078 12.4455 15.6055 10.9715 13.613 10.0635C12.0625 9.35748 11.018 9.41398 9.40001 10.293Z" fill="black"/>
</svg>
