<svg width="54" height="83" viewBox="0 0 54 83" fill="none" xmlns="http://www.w3.org/2000/svg">
<path fill-rule="evenodd" clip-rule="evenodd" d="M18.0822 0.115139C16.8838 0.284317 16.0871 0.525687 16.1881 0.688975C16.2375 0.769112 16.2085 0.788838 16.1208 0.734592C15.9266 0.614592 14.4577 1.29884 14.3593 1.555C14.3192 1.65952 14.2401 1.71651 14.1836 1.68158C14.0186 1.57966 12.934 2.57665 13.0338 2.73829C13.0837 2.81884 13.0623 2.84637 12.9863 2.79939C12.9103 2.7524 12.7004 2.8798 12.5199 3.0824C12.3395 3.28486 12.2941 3.37254 12.4193 3.27692C12.5771 3.15651 12.6747 3.14829 12.7377 3.25021C12.7877 3.33117 12.7778 3.38596 12.7156 3.37212C12.4932 3.32254 12.1358 3.55651 11.9118 3.89829C11.7521 4.14226 11.7393 4.21706 11.8693 4.14884C11.9714 4.09541 11.9221 4.16486 11.7599 4.30322C11.4295 4.58514 10.4188 6.5261 10.5395 6.64678C10.5821 6.68952 10.523 6.82829 10.4081 6.95527C10.1685 7.22007 9.74261 8.67226 9.52384 9.9702C9.31521 11.2077 8.97932 17.396 8.97562 20.0686L8.97261 22.2946H8.50987C7.96466 22.2946 7.80795 22.4569 7.68288 23.1507L7.59028 23.6644H6.64589H5.70151L5.65891 23.1507L5.61644 22.637L3.43726 22.6606C1.01425 22.6869 0.821644 22.749 0.273973 23.6788C0.0282192 24.0961 0 24.3902 0 26.5412C0 28.7055 0.0271238 28.9846 0.278768 29.4131C0.76548 30.2416 1.13288 30.3601 3.53507 30.4636L5.68493 30.5564V29.987V29.4179H6.6422H7.59946L7.68767 29.9688C7.73603 30.2718 7.82946 30.5531 7.89507 30.5936C7.96069 30.6342 7.95028 30.7872 7.87192 30.9336C7.78713 31.0921 7.73617 32.1557 7.74589 33.5623C7.76274 35.9918 7.68357 36.7443 7.42781 36.5862C7.33727 36.5302 7.31466 36.5806 7.36795 36.7198C7.46987 36.9851 7.25452 37.1644 7.11165 36.9332C7.04548 36.8262 7.0722 36.8098 7.19178 36.8836C7.31398 36.9591 7.33809 36.9412 7.26768 36.8272C7.13905 36.6188 7.00973 36.7366 6.98398 37.0855C6.97274 37.2384 7.02699 37.3155 7.11247 37.2681C7.1937 37.2228 7.12165 37.3206 6.95206 37.4853C6.67521 37.7542 6.58945 37.941 6.62219 38.2031C6.62822 38.2507 6.52918 38.2816 6.40206 38.2716C6.27493 38.2617 6.16946 38.3303 6.16767 38.4243C6.16589 38.5181 5.9948 38.7746 5.78767 38.9942C5.58055 39.2136 5.41192 39.445 5.41302 39.5083C5.41425 39.5716 5.48055 39.5309 5.56041 39.4179C5.68959 39.2353 5.69918 39.2353 5.64644 39.4179C5.6137 39.5309 5.49055 39.6155 5.37274 39.6061C5.25165 39.5964 5.18781 39.6647 5.22562 39.7635C5.26247 39.8595 5.07274 40.158 4.80384 40.4268C4.53507 40.6957 4.31603 40.9639 4.31713 41.0229C4.31836 41.082 4.38576 41.0377 4.46713 40.9247C4.59 40.7538 4.60123 40.7614 4.53343 40.9702C4.48863 41.1081 4.45206 41.2813 4.45206 41.355C4.45206 41.4285 4.39041 41.4507 4.31507 41.4042C4.23973 41.3576 4.17808 41.389 4.17808 41.4738C4.17808 41.5585 4.03384 41.8242 3.85754 42.064C3.68124 42.3039 3.45822 42.6996 3.36219 42.9435C3.26603 43.1875 3.1263 43.3492 3.05164 43.3031C2.96658 43.2506 2.95329 43.3409 3.01603 43.5446C3.0711 43.7235 3.0663 43.8225 3.00521 43.7644C2.86959 43.6357 2.21904 45.1306 2.33151 45.3127C2.37548 45.3839 2.32055 45.4072 2.20945 45.3646C1.96836 45.2721 1.72055 45.6802 1.68658 46.2257C1.67343 46.4369 1.61603 46.6729 1.55918 46.7503C1.38123 46.992 1.02753 49.5028 0.896028 51.4584C0.691096 54.5077 1.04329 58.0162 1.79274 60.3885C2.1426 61.4962 2.94589 63.2628 3.58932 64.3399C4.10411 65.2016 5.71987 66.8637 6.87178 67.7169L7.85329 68.4436L7.93768 69.3759C8.04562 70.5666 8.23083 70.9284 8.90603 71.2672C9.33987 71.4848 9.71932 71.5403 10.7534 71.5368C12.6718 71.5305 13.1449 71.2277 13.3432 69.8799L13.4615 69.0754L13.4566 70.1028C13.4526 70.93 13.5522 71.4372 13.9681 72.7055C15.7864 78.2517 18.3318 80.6637 23.6674 81.8972C26.731 82.6054 28.648 82.6796 31.7115 82.2091C37.8107 81.2722 41.6193 78.4913 43.6555 73.4879C44.0287 72.5706 44.4622 71.0206 44.6499 69.9316L44.7385 69.4179L45.8624 69.4174C47.3161 69.4168 49.8861 69.1762 51.0571 68.9311C52.2718 68.677 53.1874 68.2337 53.4139 67.7905C54.1269 66.3943 53.6207 65.4824 50.8904 63.2455C49.3418 61.9766 48.6352 61.0918 48.245 59.9324C47.9889 59.1718 47.9563 58.7594 47.9561 56.2672C47.9555 52.1039 48.3185 50.5506 49.815 48.3136C50.9833 46.5666 51.194 46.0192 51.2721 44.5269C51.4372 41.3716 50.2551 31.9805 48.9651 26.1987C47.3248 18.8466 46.2073 16.3272 44.2167 15.4929C43.4824 15.1853 41.8493 15.3506 41.8493 15.7327C41.8493 15.8006 41.76 15.8562 41.6508 15.8562C41.5417 15.8562 41.2796 16.0872 41.0687 16.3695C40.8576 16.6517 40.5617 16.9955 40.411 17.1334C40.2603 17.2712 40.2202 17.341 40.3219 17.2886C40.4699 17.2121 40.4766 17.2495 40.3554 17.476C40.2722 17.6314 40.1389 17.799 40.0593 17.8481C39.9332 17.9261 39.7045 18.3746 39.5733 18.8014C39.5502 18.8768 39.4423 19.2158 39.3337 19.5549C38.926 20.8265 38.5419 22.3521 38.4644 23.0066C38.4169 23.4081 38.3413 23.614 38.2784 23.5125C37.8807 22.869 36.8719 29.3814 36.0056 38.185C35.7263 41.0236 35.6748 46.1495 35.9247 46.2329C36.0189 46.2643 36.0959 46.3502 36.0959 46.4236C36.0959 46.4972 36.0221 46.5117 35.9319 46.4559C35.8418 46.4003 35.9034 46.5448 36.0689 46.7773C36.2344 47.0098 36.3699 47.3086 36.3699 47.4413C36.3699 47.574 36.4097 47.6428 36.4584 47.5942C36.5071 47.5455 36.6822 47.7664 36.8476 48.085C37.0129 48.4038 37.3156 48.9727 37.5203 49.3494C37.725 49.7261 37.9043 50.2038 37.9188 50.4107C37.9333 50.6177 37.9951 50.7873 38.056 50.7874C38.117 50.7876 38.1245 50.8562 38.0728 50.9401C38.021 51.0238 38.0363 51.1317 38.1069 51.1798C38.3739 51.3618 38.5347 53.428 38.5082 56.3357C38.4858 58.7879 38.435 59.4975 38.2355 60.144C37.9386 61.1059 37.6755 61.6366 37.5551 61.5162C37.5059 61.4672 37.4658 61.5025 37.4658 61.5948C37.4658 61.6872 37.398 61.7209 37.3151 61.6696C37.2059 61.6021 37.2059 61.6542 37.3155 61.8588C37.427 62.0672 37.4251 62.1666 37.308 62.239C37.203 62.3039 37.1869 62.2764 37.2603 62.1576C37.3336 62.039 37.3176 62.0113 37.213 62.0761C37.126 62.1298 37.0548 62.2373 37.0548 62.315C37.0548 62.5228 36.3359 63.2487 36.2082 63.1698C36.1482 63.1326 36.134 63.1932 36.1766 63.3043C36.2217 63.422 36.1432 63.5658 35.9887 63.6485C35.7333 63.7853 35.5086 63.9821 34.1195 65.2872C33.2734 66.0821 32.9581 66.9111 33.2255 67.637C33.2395 67.6747 33.2591 67.798 33.2692 67.911C33.2962 68.2107 34.3678 68.6869 35.548 68.9233C36.7052 69.1554 39.4243 69.4143 40.7254 69.4165L41.5878 69.4179L41.5017 69.9316C40.8777 73.6535 39.2589 76.1117 36.2791 77.8621C35.4358 78.3574 33.1937 79.0816 31.7225 79.3336C27.8712 79.9935 23.4103 79.1192 20.6849 77.1706C18.1503 75.3581 16.5549 71.0513 16.8177 66.7301C16.8817 65.6768 16.9196 65.5676 17.5303 64.6758C18.7845 62.8439 19.6108 60.7279 20.1586 57.945C20.3907 56.7665 20.4841 52.7944 20.3707 48.9384C20.3459 48.0972 20.4048 47.2514 20.5234 46.7466C21.1551 44.0585 21.6278 41.8735 21.9164 40.3083C23.3238 32.6769 23.7874 30.6558 26.0486 22.2946C27.7921 15.848 28.2104 13.5462 28.2022 10.4453C28.1971 8.53705 28.151 8.08404 27.8455 6.94336C27.2462 4.70623 26.0623 2.7376 24.6133 1.56829C22.9965 0.26377 20.681 -0.251436 18.0822 0.115139ZM21.6482 3.22267C23.2096 4.01363 24.2677 5.44801 24.9552 7.70555C25.268 8.73267 25.3084 12.8314 25.0186 14.1439C24.9189 14.596 24.5397 16.2295 24.1762 17.774C23.8125 19.3186 23.3167 21.4453 23.0745 22.5001C22.8323 23.5549 21.9688 27.0994 21.1556 30.3768C20.3425 33.6542 19.5828 36.798 19.4674 37.3631C18.7314 40.9684 18.4373 42.1576 18.2817 42.1576C18.2267 42.1576 17.9188 41.7107 17.5971 41.1644C16.9678 40.0954 15.7988 38.4984 14.6375 37.1213C14.2396 36.6494 13.8499 36.0329 13.7716 35.7514C13.6933 35.4701 13.6141 34.2072 13.5955 32.9451L13.5617 30.6503L13.9078 30.6506C14.3954 30.6509 14.8559 30.2881 15.1047 29.7081C15.3874 29.049 15.513 25.0139 15.2844 23.9376C15.0438 22.806 14.7582 22.5414 13.5856 22.3654L12.6027 22.2179L12.4803 16.8795C12.3506 11.2223 12.3984 10.3531 12.9623 8.11651C13.8127 4.74377 16.511 2.60719 19.7304 2.75719C20.6188 2.79856 20.9884 2.88829 21.6482 3.22267ZM38.1073 25.0601C38.0636 25.1692 38.0311 25.1368 38.0245 24.9772C38.0187 24.8328 38.051 24.752 38.0965 24.7975C38.1419 24.8429 38.1469 24.9612 38.1073 25.0601ZM36.3807 31.0046C36.3873 31.1642 36.4197 31.1966 36.4634 31.0875C36.503 30.9886 36.4981 30.8703 36.4526 30.8249C36.4071 30.7794 36.3748 30.8602 36.3807 31.0046ZM35.9856 33.8699C35.9884 34.096 36.0191 34.1718 36.0539 34.0386C36.0886 33.9053 36.0863 33.7203 36.0488 33.6276C36.0113 33.5349 35.9829 33.6439 35.9856 33.8699ZM35.8565 35.1028C35.858 35.4042 35.886 35.5113 35.9188 35.3409C35.9515 35.1705 35.9503 34.9239 35.916 34.7929C35.8818 34.662 35.855 34.8014 35.8565 35.1028ZM35.7117 36.0617C35.7144 36.2877 35.7451 36.3636 35.7799 36.2303C35.8147 36.097 35.8123 35.9121 35.7748 35.8194C35.7373 35.7266 35.7089 35.8357 35.7117 36.0617ZM35.5747 37.1576C35.5774 37.3836 35.6081 37.4595 35.6429 37.3262C35.6777 37.1929 35.6754 37.008 35.6378 36.9153C35.6003 36.8225 35.5719 36.9316 35.5747 37.1576ZM6.35945 37.6028L6.0274 37.9795L6.40411 37.6475C6.75617 37.337 6.8437 37.2261 6.73617 37.2261C6.71165 37.2261 6.54219 37.3957 6.35945 37.6028ZM35.5588 37.8539C35.5654 38.0135 35.5978 38.0459 35.6415 37.9368C35.6811 37.8379 35.6762 37.7196 35.6307 37.6742C35.5852 37.6287 35.5529 37.7095 35.5588 37.8539ZM35.4482 38.7329C35.4482 39.072 35.4749 39.2107 35.5077 39.0412C35.5403 38.8716 35.5403 38.5943 35.5077 38.4247C35.4749 38.2551 35.4482 38.3939 35.4482 38.7329ZM35.3113 39.9658C35.3113 40.3049 35.338 40.4436 35.3707 40.274C35.4033 40.1044 35.4033 39.8272 35.3707 39.6576C35.338 39.488 35.3113 39.6268 35.3113 39.9658ZM35.1819 41.5412C35.1826 42.0686 35.2073 42.2675 35.237 41.9833C35.2666 41.6991 35.2662 41.2676 35.2359 41.0244C35.2056 40.7812 35.1814 41.0138 35.1819 41.5412ZM2.94521 42.4833C2.94521 42.5117 3.05302 42.6196 3.18493 42.7231C3.40219 42.8933 3.40699 42.8885 3.23671 42.6713C3.05767 42.4431 2.94521 42.3706 2.94521 42.4833ZM35.0676 44.0754C35.1111 45.6612 35.2515 46.4076 35.5943 46.8765C35.7392 47.0747 35.8044 47.0913 35.8907 46.9517C35.9637 46.8335 35.9477 46.8059 35.8432 46.8706C35.7522 46.9268 35.685 46.8864 35.685 46.7758C35.685 46.6699 35.5819 46.3766 35.4559 46.1242C35.3077 45.8269 35.1913 45.1075 35.1256 44.0827L35.0243 42.5001L35.0676 44.0754ZM2.04918 44.9065C1.99945 44.9868 1.98822 45.082 2.02411 45.1179C2.06 45.1538 2.12589 45.088 2.17055 44.9717C2.26315 44.7303 2.18425 44.6879 2.04918 44.9065ZM35.8788 47.245C35.8123 47.3525 35.8395 47.3684 35.961 47.2932C36.09 47.2136 36.1189 47.2424 36.0613 47.3927C36.013 47.5185 36.145 47.7912 36.3871 48.0658C36.6177 48.3272 36.7351 48.4038 36.658 48.2422C36.5832 48.0854 36.4296 47.8805 36.317 47.787C36.2044 47.6935 36.1436 47.5353 36.1819 47.4354C36.2721 47.2003 36.0087 47.0348 35.8788 47.245ZM36.7808 48.7249C36.7808 48.7958 36.8418 48.8914 36.9163 48.9375C36.9939 48.9854 37.0169 48.9305 36.9702 48.8085C36.8791 48.5713 36.7808 48.5279 36.7808 48.7249Z" fill="black"/>
</svg>
