<svg width="29" height="83" viewBox="0 0 29 83" fill="none" xmlns="http://www.w3.org/2000/svg">
<path fill-rule="evenodd" clip-rule="evenodd" d="M18.3765 0.110083C17.6968 0.371978 17.0596 1.05408 16.5868 2.02585C16.2517 2.71465 16.0786 3.24761 15.7407 4.62992C15.0671 7.38585 14.8682 9.04493 14.8635 11.9461C14.8578 15.4386 15.2889 18.5013 16.3586 22.5691C16.7627 24.1053 17.2341 26.3855 17.521 28.1905C17.5897 28.6225 17.6673 29.6641 17.6934 30.5053C17.7428 32.0932 17.6986 32.543 17.413 33.3573C17.3334 33.5847 17.1838 34.0471 17.0807 34.3849C16.9776 34.7227 16.5791 35.6527 16.1953 36.4516C15.0958 38.7398 14.8486 39.3855 14.747 40.2352C14.6568 40.9894 14.378 41.105 13.7742 40.6382C13.1362 40.145 12.6578 39.5655 12.0292 38.5242C11.5646 37.7546 10.9652 36.2765 10.2695 34.184C9.09449 30.6509 8.80759 29.3962 8.89887 28.1905C8.99941 26.8633 8.71947 25.9925 7.91011 25.1145C7.58666 24.7636 7.31273 24.5659 6.84224 24.3438C6.49419 24.1795 5.97805 23.9205 5.69527 23.7683C3.49419 22.5838 1.49941 23.4047 0.574165 25.8758C0.0309758 27.3264 -0.137668 29.178 0.114823 30.9186C0.387565 32.7989 1.19297 35.9155 1.83457 37.5735C3.66632 42.3068 5.73157 45.3471 8.34516 47.1574C9.81858 48.1781 10.9671 48.8774 12.0234 49.397C13.3997 50.0742 13.6134 50.2105 13.8627 50.5703C13.9991 50.7669 14.125 51.073 14.152 51.2729C14.2184 51.7667 14.1196 56.5999 14.0052 58.4473C13.9531 59.2885 13.8569 60.1999 13.7913 60.4727C13.7257 60.7455 13.6546 61.2664 13.6332 61.6301C13.6119 61.9938 13.5402 62.426 13.474 62.5904C13.3846 62.8124 13.3669 63.0357 13.4052 63.4584C13.4336 63.7714 13.474 64.6728 13.4951 65.4616C13.5274 66.6679 13.5125 66.953 13.4018 67.2562C13.2604 67.6432 13.298 68.3012 13.4743 68.525C13.5246 68.5888 13.5883 69.0352 13.6158 69.517C13.6434 69.9988 13.7033 70.6534 13.749 70.9717C13.7947 71.29 13.8721 72.0154 13.921 72.5837C14.1887 75.6956 15.0056 78.4291 16.1831 80.1537C16.5766 80.73 17.5411 81.7436 17.8593 81.9152C17.9777 81.9791 18.1026 82.0808 18.1366 82.1413C18.1707 82.2018 18.3665 82.3056 18.5717 82.372C18.7769 82.4384 19.1405 82.5703 19.3798 82.665C19.6442 82.7698 20.0233 82.8417 20.3461 82.8484C20.6383 82.8545 20.8587 82.8911 20.8358 82.9297C20.813 82.9684 20.8299 83 20.8734 83C20.9169 83 20.9718 82.9674 20.9954 82.9275C21.0189 82.8877 21.1941 82.814 21.3846 82.7639C23.5334 82.1984 25.1321 79.9708 26.0208 76.3038C26.2882 75.2005 26.4582 73.7196 26.735 70.0814C26.9556 67.1831 26.739 62.2145 26.1974 57.7447C26.0776 56.7557 25.9942 55.6884 26.0036 55.2646C26.0193 54.556 25.9378 53.9613 25.357 50.5525C25.1959 49.6069 25.0491 48.7122 24.6245 46.0884C24.2844 43.987 24.2496 43.6479 24.2472 42.4096C24.2433 40.3884 24.4725 39.2064 25.3936 36.4988C26.7011 32.6548 27.8079 28.1613 28.4377 24.1398C28.5526 23.4064 28.7028 22.0236 28.8688 20.1717C29.1592 16.9328 28.9592 13.229 28.3512 10.5846C28.1518 9.71687 27.5962 7.91584 27.407 7.52333C27.3523 7.40966 27.1569 7.00045 26.9729 6.61397C26.2851 5.16942 25.2865 3.81026 24.1071 2.71357C23.0015 1.68559 21.7896 0.920734 20.2797 0.298072C19.5034 -0.0220215 18.8794 -0.0836923 18.3765 0.110083Z" fill="black"/>
</svg>
