<svg width="10" height="27" viewBox="0 0 10 27" fill="none" xmlns="http://www.w3.org/2000/svg">
<path fill-rule="evenodd" clip-rule="evenodd" d="M5.97597 0.0350426C5.75493 0.118411 5.54773 0.335543 5.39398 0.644885C5.28501 0.864148 5.2287 1.03381 5.11884 1.47383C4.89978 2.35112 4.83508 2.87925 4.83357 3.80278C4.83171 4.91454 4.97191 5.88949 5.31977 7.18436C5.45116 7.67338 5.60447 8.39923 5.69777 8.97383C5.7201 9.11133 5.74534 9.44291 5.75385 9.71067C5.7699 10.2161 5.75552 10.3593 5.66266 10.6186C5.63676 10.6909 5.58811 10.8381 5.5546 10.9457C5.52105 11.0532 5.39148 11.3493 5.26665 11.6036C4.90909 12.3319 4.8287 12.5375 4.79568 12.808C4.76635 13.0481 4.67567 13.0849 4.47933 12.9363C4.27184 12.7793 4.11627 12.5948 3.91184 12.2633C3.76077 12.0183 3.56586 11.5478 3.3396 10.8817C2.9575 9.75702 2.8642 9.35762 2.89388 8.97383C2.92658 8.55133 2.83554 8.27415 2.57234 7.99465C2.46716 7.88294 2.37808 7.82001 2.22507 7.7493C2.11189 7.69699 1.94404 7.61454 1.85208 7.56609C1.1363 7.18904 0.487604 7.45036 0.186717 8.23699C0.0100732 8.69875 -0.0447693 9.28817 0.0373402 9.84225C0.126035 10.4408 0.387951 11.4329 0.596595 11.9607C1.19227 13.4674 1.86389 14.4352 2.71382 15.0115C3.19297 15.3364 3.56645 15.559 3.90996 15.7244C4.35755 15.94 4.42703 15.9834 4.50811 16.0979C4.55246 16.1605 4.59341 16.2579 4.60218 16.3216C4.62379 16.4788 4.59166 18.0173 4.55444 18.6054C4.53751 18.8732 4.50621 19.1633 4.48488 19.2501C4.46356 19.337 4.44043 19.5028 4.43349 19.6186C4.42654 19.7344 4.40324 19.8719 4.38171 19.9243C4.35264 19.9949 4.34688 20.066 4.35933 20.2006C4.36856 20.3002 4.38171 20.5871 4.38857 20.8383C4.39907 21.2222 4.39423 21.313 4.35822 21.4095C4.31223 21.5327 4.32447 21.7422 4.38181 21.8134C4.39817 21.8337 4.41888 21.9758 4.42783 22.1292C4.43678 22.2826 4.45625 22.4909 4.47112 22.5923C4.48599 22.6936 4.51117 22.9245 4.52707 23.1054C4.61412 24.096 4.87977 24.9661 5.26269 25.5151C5.39066 25.6986 5.70431 26.0213 5.80779 26.0759C5.8463 26.0962 5.88689 26.1286 5.89798 26.1479C5.90907 26.1671 5.97273 26.2001 6.03946 26.2213C6.10618 26.2424 6.22444 26.2844 6.30225 26.3146C6.38824 26.3479 6.51151 26.3708 6.61649 26.3729C6.71151 26.3749 6.78318 26.3865 6.77574 26.3988C6.76831 26.4111 6.77381 26.4212 6.78796 26.4212C6.80211 26.4212 6.81996 26.4108 6.82763 26.3981C6.83529 26.3854 6.89224 26.362 6.95419 26.346C7.65299 26.166 8.17289 25.4569 8.46189 24.2896C8.54884 23.9384 8.60412 23.467 8.69415 22.3089C8.76587 21.3863 8.69544 19.8046 8.51931 18.3817C8.48034 18.0669 8.45322 17.7272 8.45629 17.5923C8.4614 17.3667 8.43488 17.1774 8.24602 16.0923C8.19362 15.7913 8.14588 15.5064 8.0078 14.6712C7.89721 14.0023 7.88589 13.8943 7.88512 13.5001C7.88383 12.8568 7.95838 12.4805 8.25791 11.6186C8.68312 10.3949 9.04304 8.96451 9.24785 7.68436C9.2852 7.45091 9.33405 7.01073 9.38804 6.4212C9.48247 5.39017 9.41744 4.21115 9.21973 3.36936C9.15486 3.09315 8.9742 2.51983 8.91267 2.39488C8.89487 2.3587 8.83133 2.22844 8.7715 2.10541C8.54784 1.64557 8.22308 1.21291 7.83954 0.863806C7.48 0.536569 7.08592 0.293095 6.59488 0.0948847C6.34243 -0.00701006 6.13952 -0.0266416 5.97597 0.0350426Z" fill="black"/>
</svg>
