<svg width="63" height="92" viewBox="0 0 63 92" fill="none" xmlns="http://www.w3.org/2000/svg">
<path fill-rule="evenodd" clip-rule="evenodd" d="M35.191 0.0932633C33.5597 0.330763 31.8388 0.917063 29.9593 1.87566C27.4807 3.13976 25.3551 4.76996 23.2874 6.99266C20.6257 9.85376 18.0206 14.7548 16.6946 19.396C14.4545 27.2367 14.7811 34.2668 17.8044 43.2818C19.0672 47.0473 21.0832 51.6397 22.9467 54.9958C23.6289 56.2245 24.7667 58.5035 25.0623 59.2334C25.9869 61.5167 25.78 63.1384 24.3946 64.4688C23.2667 65.5518 21.2869 66.7231 15.8389 69.5304C7.75988 73.6935 4.98109 75.2308 2.08889 77.1377C0.785189 77.9972 0.156989 78.5213 0.029989 78.8552C-0.157111 79.3474 0.537789 80.4675 1.93199 81.9208C2.34829 82.3547 2.98139 82.9011 3.33889 83.1351C3.69639 83.369 4.39309 83.8841 4.88719 84.2797C5.99959 85.1705 7.02858 85.8421 7.21678 85.8001C7.29678 85.7823 7.33008 85.8151 7.29298 85.8751C7.25678 85.9338 7.27108 85.9818 7.32478 85.9818C7.37858 85.9818 7.50108 86.0119 7.59708 86.0488C7.72968 86.0997 7.75108 86.0817 7.68608 85.9738C7.61598 85.8575 7.62809 85.8541 7.75289 85.9551C7.87489 86.0538 7.94358 86.0494 8.09708 85.9333C8.20258 85.8535 8.36768 85.7867 8.46388 85.785C8.56008 85.7832 8.63888 85.7341 8.63888 85.6759C8.63888 85.6177 8.68368 85.5977 8.73848 85.6316C8.87598 85.7166 9.06888 85.7508 10.8389 86.0046C12.195 86.1991 12.8143 86.2272 15.7889 86.229C19.2642 86.2312 20.2806 86.1626 22.4889 85.7771C23.0939 85.6715 24.7139 85.4493 26.0889 85.2833C27.4639 85.1174 29.1064 84.914 29.7389 84.8313C32.14 84.5176 32.653 84.4737 34.9709 84.383C37.4013 84.288 40.8462 84.3799 42.5306 84.5847C45.1946 84.9085 49.3428 85.8123 51.5026 86.5394C54.2869 87.4767 57.3594 89.0925 58.702 90.3256C58.9147 90.521 59.1458 90.6811 59.2154 90.6813C59.285 90.6816 59.5808 90.8166 59.8727 90.9814C60.433 91.2976 61.756 91.6818 62.2848 91.6818C62.4575 91.6818 62.6528 91.6278 62.7188 91.5618C62.9922 91.2884 62.8007 89.8463 62.1372 87.1818C61.5994 85.0227 60.9802 83.3895 59.9837 81.5026C57.9629 77.676 54.8128 74.3601 47.0961 67.9368C45.12 66.292 43.0463 64.493 42.4877 63.939C37.2578 58.7523 34.5321 52.7776 35.0405 47.6152C35.1761 46.2388 35.4086 45.2741 36.2655 42.5318C38.0345 36.8709 38.7537 33.5306 38.7524 30.9818C38.7518 29.8169 38.6879 29.2523 38.2771 26.7818C38.0046 25.1431 38.2209 24.3764 39.4308 22.6925C40.7964 20.7918 41.9726 18.6036 42.6817 16.6446C44.2939 12.191 44.214 7.52656 42.4657 4.03176C40.9292 0.960363 38.4508 -0.381537 35.191 0.0932633Z" fill="black"/>
</svg>
