<svg width="12" height="24" viewBox="0 0 12 24" fill="none" xmlns="http://www.w3.org/2000/svg">
<path fill-rule="evenodd" clip-rule="evenodd" d="M2.42835 0.0111215C4.25445 0.0172069 7.24256 0.0172069 9.06861 0.0111215C10.8947 0.00499419 9.40063 0 5.74848 0C2.09634 0 0.602301 0.00499419 2.42835 0.0111215ZM4.8143 0.636066C4.75875 0.646852 4.61297 0.697004 4.49026 0.747533C4.31065 0.821523 4.24344 0.88267 4.14467 1.06196C4.07725 1.18438 4.01105 1.34503 3.99762 1.41898C3.98414 1.49293 3.91329 1.63843 3.84012 1.7423C3.7669 1.84617 3.60668 2.10113 3.48407 2.30887C3.36142 2.51661 3.23286 2.71491 3.19837 2.74953C3.16393 2.78415 3.01239 3.02022 2.86166 3.27413C1.95697 4.79803 1.8131 5.04681 1.78149 5.1417C1.76225 5.19941 1.67166 5.36938 1.58011 5.51942C1.48856 5.66945 1.34147 5.95273 1.25325 6.14894C1.16498 6.34514 1.03813 6.61898 0.971379 6.75747C0.904623 6.89597 0.824334 7.12259 0.792925 7.26109C0.761466 7.39958 0.695821 7.62621 0.646991 7.7647C0.282761 8.79757 0.137584 9.42021 0.11375 10.052C0.101934 10.3636 0.0697169 10.8047 0.0420954 11.0322C-0.0434958 11.7373 -0.00193735 12.4166 0.197826 13.5773C0.324117 14.3113 0.678854 15.2337 1.09605 15.9127C1.43473 16.464 1.58097 16.8635 1.68519 17.5223C1.77589 18.0953 2.03988 19.3957 2.10851 19.6076C2.13799 19.6985 2.18364 19.885 2.21 20.022C2.23636 20.1591 2.29115 20.3656 2.33175 20.481C2.37235 20.5964 2.45319 20.8403 2.51131 21.023C2.56949 21.2057 2.657 21.393 2.70578 21.4394C2.7697 21.5001 2.77334 21.514 2.7187 21.4893C2.65715 21.4614 2.65477 21.4655 2.70608 21.5114C2.74082 21.5425 2.7692 21.6397 2.7692 21.7274C2.7692 21.8152 2.78899 21.8869 2.81318 21.8869C2.83737 21.8869 2.87216 21.9808 2.89049 22.0956C2.90882 22.2103 2.98876 22.437 3.06824 22.5992C3.14767 22.7614 3.2022 22.8942 3.18948 22.8942C3.1767 22.8942 3.21326 22.949 3.27073 23.016C3.32814 23.0831 3.37515 23.1503 3.37515 23.1654C3.37515 23.2041 3.67874 23.5209 3.82962 23.6396C3.89905 23.6942 4.10356 23.7991 4.28409 23.8726C4.5755 23.9913 4.65594 24.0054 5.00149 23.9986C5.50433 23.9885 5.74702 23.8985 6.13023 23.5797C6.60823 23.1819 6.93272 22.5346 7.14703 21.5512C7.1646 21.4704 7.22024 21.3571 7.27064 21.2994C7.32104 21.2417 7.44309 20.9678 7.54186 20.6908C7.64058 20.4138 7.76601 20.1186 7.8206 20.0346C7.90205 19.9093 7.91982 19.7995 7.91982 19.4209C7.91982 19.1062 7.94517 18.9014 7.99955 18.7761C8.10262 18.5387 8.11206 18.147 8.03238 17.4173C7.93916 16.564 8.0352 15.773 8.32026 15.046C8.43337 14.7575 8.54855 14.4838 8.57627 14.4376C8.66393 14.2916 8.83077 13.8653 8.97863 13.4094C9.30024 12.4179 9.90231 11.2744 10.4836 10.5513C10.5466 10.4729 10.611 10.3615 10.6266 10.3038C10.6423 10.2461 10.6684 10.1705 10.6846 10.1359C10.7009 10.1013 10.7423 9.9974 10.7765 9.90507C10.8108 9.81274 10.8777 9.65221 10.9253 9.54834C10.9813 9.42609 11.0099 9.25074 11.0064 9.05115C11.0011 8.7538 11.0066 8.73886 11.1611 8.63147C11.5086 8.39002 11.6336 8.1835 11.8636 7.47093C12.2377 6.31185 11.8246 5.16567 10.8428 4.6383C10.4577 4.4314 10.0998 4.34431 9.63478 4.34431C9.05518 4.34431 8.68489 4.46669 8.30228 4.78464C8.13423 4.92435 7.91982 5.24406 7.91982 5.35507C7.91982 5.3826 7.83206 5.55832 7.7248 5.74558C7.41627 6.28407 7.16238 6.78655 7.16238 6.85849C7.16238 6.88241 7.06012 7.08146 6.93514 7.30079C6.81016 7.52015 6.70791 7.71745 6.70791 7.73923C6.70791 7.76105 6.67584 7.83235 6.63666 7.8977C6.55041 8.04144 6.29768 8.73781 6.17472 9.17063C6.06363 9.56143 5.82554 10.144 5.78923 10.1138C5.77433 10.1014 5.74949 10.1702 5.73394 10.2665C5.71838 10.3629 5.6845 10.4532 5.65865 10.4672C5.63279 10.4812 5.58396 10.5632 5.55013 10.6494C5.5163 10.7357 5.46722 10.8172 5.44101 10.8307C5.4148 10.8441 5.40526 10.8712 5.41985 10.8908C5.44974 10.931 5.24327 11.4343 5.06673 11.7517C4.84591 12.1485 4.71315 12.6632 4.66079 13.3255C4.59171 14.1991 4.50738 14.455 4.23667 14.6126C4.08523 14.7008 3.92072 14.6563 3.70545 14.4689C3.39116 14.1954 3.29557 13.965 3.15252 13.1364C3.05501 12.5719 3.02229 12.2116 3.02289 11.7097C3.02385 10.8918 3.01916 10.8037 2.97573 10.8261C2.8607 10.8851 3.11313 9.0629 3.27901 8.6365C3.30799 8.56205 3.34026 8.44504 3.35066 8.37655C3.36112 8.30806 3.40535 8.19462 3.44903 8.12441C3.49271 8.05424 3.53099 7.90252 3.53412 7.78724C3.53725 7.67195 3.55931 7.58768 3.58315 7.59989C3.60698 7.61215 3.61284 7.59263 3.59618 7.55654C3.57951 7.52045 3.61168 7.39203 3.66763 7.27107C3.72358 7.15017 3.86244 6.85114 3.97626 6.60655C4.09003 6.36197 4.18309 6.14931 4.18309 6.13395C4.18309 6.07532 4.69038 5.17423 4.74168 5.1417C4.75991 5.13016 4.80364 5.04518 4.83884 4.95285C4.98013 4.58223 5.05128 4.43841 5.21251 4.19743C5.30517 4.05893 5.40455 3.94969 5.43333 3.95468C5.46227 3.95968 5.47378 3.92602 5.45914 3.87943C5.44394 3.83117 5.4554 3.80041 5.486 3.80742C5.51539 3.81417 5.61795 3.75882 5.71394 3.68441C5.89825 3.54155 5.89426 3.55301 6.0658 2.66559C6.16073 2.17436 6.14589 1.38385 6.03732 1.15009C5.94698 0.955526 5.70526 0.735069 5.5823 0.735069C5.54594 0.735069 5.49459 0.718114 5.46823 0.697381C5.40995 0.651594 4.95443 0.608871 4.8143 0.636066Z" fill="black"/>
</svg>
