<svg width="38" height="76" viewBox="0 0 38 76" fill="none" xmlns="http://www.w3.org/2000/svg">
<path fill-rule="evenodd" clip-rule="evenodd" d="M7.68977 0.0352181C13.4724 0.0544884 22.9348 0.0544884 28.7173 0.0352181C34.4999 0.0158149 29.7686 0 18.2035 0C6.6384 0 1.90729 0.0158149 7.68977 0.0352181ZM15.2453 2.01421C15.0694 2.04836 14.6077 2.20718 14.2192 2.36719C13.6504 2.60149 13.4376 2.79512 13.1248 3.36286C12.9113 3.75053 12.7017 4.25926 12.6591 4.49343C12.6164 4.7276 12.3921 5.18836 12.1604 5.51728C11.9285 5.84621 11.4212 6.65356 11.0329 7.31141C10.6445 7.96926 10.2374 8.59721 10.1282 8.70685C10.0191 8.81649 9.53923 9.56404 9.06192 10.3681C6.19706 15.1938 5.74149 15.9816 5.64139 16.2821C5.58046 16.4648 5.2936 17.003 5.00369 17.4781C4.71378 17.9533 4.24798 18.8503 3.96862 19.4716C3.68911 20.0929 3.28743 20.9601 3.07603 21.3987C2.86464 21.8372 2.61039 22.5549 2.51093 22.9934C2.41131 23.432 2.20343 24.1497 2.0488 24.5882C0.895409 27.859 0.435683 29.8307 0.360208 31.8312C0.32279 32.818 0.22077 34.2147 0.133302 34.9352C-0.137737 37.1683 -0.00613493 39.3192 0.626449 42.9947C1.02637 45.3191 2.1497 48.2399 3.47084 50.3902C4.54332 52.1361 5.00641 53.4012 5.33645 55.4871C5.62364 57.3019 6.45962 61.4199 6.67693 62.0907C6.77032 62.3787 6.91487 62.9693 6.99834 63.4031C7.08181 63.837 7.25531 64.491 7.38387 64.8565C7.51244 65.2219 7.76844 65.9942 7.95249 66.5727C8.1367 67.1512 8.41382 67.7446 8.56829 67.8913C8.77073 68.0838 8.78224 68.1278 8.60922 68.0494C8.4143 67.961 8.40678 67.9741 8.56925 68.1195C8.67926 68.218 8.76913 68.5258 8.76913 68.8036C8.76913 69.0813 8.83181 69.3086 8.90841 69.3086C8.985 69.3086 9.09518 69.6059 9.15322 69.9693C9.21127 70.3327 9.4644 71.0503 9.71609 71.5641C9.96762 72.0778 10.1403 72.4981 10.1 72.4981C10.0596 72.4981 10.1753 72.6718 10.3573 72.8841C10.5391 73.0964 10.688 73.3092 10.688 73.3571C10.688 73.4797 11.6493 74.4829 12.1271 74.8587C12.347 75.0316 12.9946 75.3637 13.5663 75.5965C14.4891 75.9725 14.7438 76.0172 15.838 75.9955C17.4304 75.9637 18.1989 75.6787 19.4124 74.6689C20.9261 73.4094 21.9536 71.3595 22.6322 68.2454C22.6879 67.9896 22.8641 67.6307 23.0237 67.448C23.1833 67.2653 23.5698 66.3981 23.8825 65.521C24.1952 64.6438 24.5924 63.7088 24.7652 63.443C25.0231 63.0461 25.0794 62.6985 25.0794 61.4995C25.0794 60.503 25.1597 59.8544 25.3319 59.4576C25.6583 58.7059 25.6882 57.4655 25.4359 55.1549C25.1407 52.4528 25.4448 49.9478 26.3475 47.6456C26.7057 46.7322 27.0704 45.8653 27.1582 45.7191C27.4358 45.2569 27.9641 43.9068 28.4323 42.4631C29.4508 39.3232 31.3573 35.7024 33.198 33.4125C33.3977 33.1642 33.6016 32.8113 33.651 32.6286C33.7006 32.4458 33.7832 32.2066 33.8347 32.097C33.8862 31.9873 34.0172 31.6584 34.1256 31.366C34.2342 31.0737 34.4462 30.5653 34.5968 30.2364C34.7742 29.8493 34.8647 29.294 34.8535 28.662C34.8367 27.7204 34.8541 27.6731 35.3436 27.333C36.4439 26.5684 36.8398 25.9144 37.568 23.6579C38.7526 19.9875 37.4446 16.3579 34.3357 14.6879C33.1159 14.0328 31.9829 13.757 30.5101 13.757C28.6747 13.757 27.5022 14.1445 26.2906 15.1514C25.7584 15.5938 25.0794 16.6062 25.0794 16.9577C25.0794 17.0449 24.8015 17.6013 24.4619 18.1943C23.4849 19.8996 22.6809 21.4908 22.6809 21.7185C22.6809 21.7943 22.3571 22.4246 21.9613 23.1192C21.5655 23.8138 21.2417 24.4386 21.2417 24.5076C21.2417 24.5767 21.1402 24.8025 21.0161 25.0094C20.743 25.4646 19.9426 27.6697 19.5533 29.0403C19.2015 30.2779 18.4475 32.1226 18.3326 32.027C18.2854 31.9879 18.2067 32.2056 18.1575 32.5107C18.1082 32.8158 18.0009 33.1018 17.9191 33.1461C17.8372 33.1903 17.6826 33.45 17.5754 33.7231C17.4683 33.9962 17.3129 34.2546 17.2299 34.2971C17.1469 34.3398 17.1166 34.4254 17.1629 34.4874C17.2575 34.6148 16.6037 36.2085 16.0446 37.2136C15.3454 38.4704 14.925 40.1 14.7592 42.1973C14.5404 44.9638 14.2734 45.7742 13.4161 46.2733C12.9366 46.5525 12.4156 46.4115 11.7339 45.8182C10.7387 44.952 10.436 44.2224 9.98297 41.5986C9.67419 39.8111 9.57057 38.67 9.57249 37.0807C9.57553 34.4908 9.56066 34.2118 9.42314 34.2825C9.05888 34.4695 9.85824 28.6992 10.3835 27.3489C10.4753 27.1132 10.5775 26.7426 10.6104 26.5257C10.6435 26.3089 10.7836 25.9496 10.9219 25.7273C11.0602 25.5051 11.1815 25.0247 11.1914 24.6596C11.2013 24.2945 11.2712 24.0277 11.3466 24.0663C11.4221 24.1051 11.4407 24.0433 11.3879 23.929C11.3351 23.8148 11.437 23.4081 11.6142 23.0251C11.7913 22.6422 12.2311 21.6953 12.5915 20.9208C12.9518 20.1462 13.2465 19.4728 13.2465 19.4242C13.2465 19.2385 14.8529 16.3851 15.0153 16.2821C15.0731 16.2455 15.2115 15.9764 15.323 15.684C15.7704 14.5104 15.9957 14.0549 16.5063 13.2918C16.7997 12.8533 17.1144 12.5073 17.2056 12.5232C17.2972 12.539 17.3336 12.4324 17.2873 12.2849C17.2391 12.132 17.2754 12.0346 17.3723 12.0568C17.4654 12.0782 17.7902 11.9029 18.0941 11.6673C18.6778 11.2149 18.6652 11.2512 19.2084 8.44105C19.509 6.88547 19.462 4.3822 19.1182 3.64195C18.8321 3.02583 18.0666 2.32772 17.6773 2.32772C17.5621 2.32772 17.3995 2.27403 17.316 2.20837C17.1315 2.06338 15.689 1.92809 15.2453 2.01421Z" fill="black"/>
</svg>
