<svg width="25" height="95" viewBox="0 0 25 95" fill="none" xmlns="http://www.w3.org/2000/svg">
<path fill-rule="evenodd" clip-rule="evenodd" d="M10.3966 0.229518C9.52011 0.480018 8.37211 1.23302 7.84561 1.90252C6.71011 3.34552 5.48611 8.64802 5.91211 10.277C6.49911 12.5215 5.70611 15.165 4.21411 15.9365C2.64361 16.7485 2.26161 17.733 0.756109 24.8495C-0.375391 30.1995 -0.329893 30.959 1.52961 37.7205C2.68511 41.9215 3.18911 45.3035 4.31011 56.385C4.76811 60.9135 4.72861 62.6645 4.07761 66.635C3.64611 69.2685 3.15811 75.36 2.99311 80.172C2.73811 87.603 2.54561 89.17 1.71661 90.5755C1.17961 91.4855 0.740108 92.4245 0.740108 92.662C0.740108 93.305 3.76461 93.8485 4.31011 93.303C4.56911 93.044 5.00361 90.0875 5.27511 86.733C5.54711 83.379 6.10611 78.787 6.51811 76.5285C6.93011 74.2705 7.49761 70.2855 7.77911 67.673C8.06111 65.0605 8.83711 60.543 9.50461 57.634C10.1716 54.725 10.8671 50.7315 11.0506 48.759C11.3241 45.8125 11.5391 45.173 12.2536 45.173C12.9576 45.173 13.1916 45.809 13.4801 48.503C13.6766 50.335 14.6001 54.5535 15.5326 57.878C16.4651 61.203 17.3596 65.3855 17.5201 67.173C17.6806 68.9605 18.2296 72.3355 18.7401 74.673C19.5961 78.592 20.5906 86.754 20.8731 92.173L20.9901 94.423L22.7401 94.2505C23.7026 94.1555 24.5866 93.9835 24.7046 93.869C24.8226 93.7545 24.5616 92.91 24.1236 91.9925C23.5831 90.8585 23.1481 87.5385 22.7651 81.6235C22.4556 76.8385 21.9531 71.348 21.6486 69.423C20.9866 65.234 20.5316 52.0715 20.9866 50.2595C21.2411 49.2455 21.4051 49.1275 21.7666 49.699C22.1456 50.298 22.2261 50.272 22.2326 49.548C22.2366 49.0665 22.4546 48.673 22.7166 48.673C24.1191 48.673 24.6616 40.0215 23.7511 32.173C21.9706 16.823 22.1156 17.4225 19.8316 15.9805C17.9486 14.792 17.9416 14.775 17.8876 11.269C17.7626 3.15052 14.9051 -1.06048 10.3966 0.229518ZM4.21911 24.9975C3.35111 28.0975 3.12261 27.4135 3.84611 23.8815C4.17961 22.2545 4.53861 21.3435 4.64461 21.858C4.75011 22.372 4.55861 23.785 4.21911 24.9975ZM20.9481 31.313C21.3836 34.2775 21.7326 37.8775 21.7236 39.313L21.7076 41.923L20.7861 39.255C20.2791 37.7875 19.3616 35.907 18.7471 35.0755C17.7126 33.6765 17.6731 33.3715 18.2196 30.9935C18.5441 29.5795 18.9336 27.6735 19.0846 26.7575C19.5211 24.1085 20.0956 25.5135 20.9481 31.313ZM3.81761 30.423C4.14261 30.7525 4.21111 30.4115 4.01761 29.423C3.78661 28.24 3.82461 28.1345 4.19711 28.923C4.64111 29.8625 4.67211 29.85 4.70511 28.7145C4.74861 27.2205 4.99611 27.4605 5.43511 29.423C5.68011 30.5185 5.63361 30.7205 5.26311 30.173C4.90561 29.645 4.75311 29.6125 4.74761 30.0635C4.74361 30.416 5.07761 30.834 5.49011 30.992C6.54811 31.398 6.39211 33.7005 5.21111 35.119C4.66311 35.7765 4.13461 36.2265 4.03661 36.119C3.63911 35.6825 2.74461 30.5165 2.80811 29.0235C2.86611 27.662 2.90961 27.6095 3.10061 28.673C3.22411 29.3605 3.54661 30.148 3.81761 30.423Z" fill="black"/>
</svg>
