<svg width="51" height="51" viewBox="0 0 51 51" fill="none" xmlns="http://www.w3.org/2000/svg">
<path fill-rule="evenodd" clip-rule="evenodd" d="M43.9991 0.0624441C43.8801 0.120849 43.7826 0.205382 43.7826 0.250146C43.7826 0.29491 43.6319 0.331509 43.4477 0.331509C42.7152 0.331509 42.0504 0.809122 42.0504 1.33534C42.0504 1.43582 41.959 1.48423 41.7691 1.48423C41.6048 1.48423 41.361 1.59067 41.1831 1.74024C40.9315 1.95147 40.8847 2.05157 40.9153 2.31304C40.9471 2.58499 40.9145 2.64561 40.6858 2.74022C40.31 2.89555 39.6785 3.60938 39.5996 3.96778C39.5271 4.29717 39.6759 4.86508 39.8787 5.03309C39.983 5.11955 39.9479 5.25903 39.6896 5.78524C39.3251 6.52798 39.1634 7.21107 39.1634 8.00885C39.1634 8.5466 39.1471 8.58329 38.7414 8.95658C38.5092 9.17022 38.1514 9.45082 37.946 9.58011C37.7407 9.70951 37.5174 9.88203 37.4497 9.96339C37.3399 10.0954 37.2827 10.0872 36.9218 9.88827C36.6992 9.76551 35.9541 9.50499 35.266 9.30941C34.3555 9.05053 33.9295 8.87887 33.7005 8.67858C33.5275 8.52719 33.2759 8.3758 33.1414 8.34208C32.2484 8.11836 30.8146 8.84707 29.0448 10.4242C27.9896 11.3645 27.2709 11.8508 26.1025 12.4147C25.2276 12.8369 25.1296 12.8625 24.4454 12.8474C23.7026 12.8312 22.4487 12.5224 21.5393 12.132C21.1435 11.9619 21.0902 11.9079 21.1704 11.7582C21.4154 11.3012 21.1622 10.706 20.7228 10.706C20.6187 10.706 20.3687 10.8744 20.1674 11.0803C19.8067 11.4489 19.7927 11.4538 19.2342 11.4032C18.4882 11.3357 17.9341 11.5478 17.4299 12.0939C17.218 12.3233 16.9992 12.6751 16.9438 12.8755C16.7496 13.5776 17.0264 14.0314 17.8961 14.437C18.3209 14.6352 18.5791 14.6852 19.2033 14.6908L19.9813 14.6978L20.4895 15.1416C21.2388 15.7959 22.0307 16.1406 23.4481 16.429C24.8633 16.7171 25.4564 16.6992 26.5257 16.3362C27.3564 16.0542 27.6611 15.898 28.2377 15.4586C28.4881 15.2678 28.7119 15.1306 28.735 15.1536C28.8529 15.2713 28.3225 16.3386 27.9661 16.7009C27.6014 17.0715 27.4484 17.1414 26.1721 17.5208C22.912 18.4896 21.7468 19.0172 19.3754 20.5981C16.8753 22.2647 14.7232 23.987 13.8357 25.0313C13.5945 25.3151 12.4531 26.7793 11.2993 28.2851C9.31402 30.8758 7.69732 32.9446 5.92828 35.158C5.39862 35.8207 4.91544 36.3048 4.43476 36.6542C2.15107 38.3141 1.35157 38.9247 0.884173 39.366C0.0402157 40.1628 -0.211913 40.8787 0.1811 41.3627C0.340653 41.5592 0.448529 41.5893 0.988584 41.5877C1.58792 41.5862 1.69493 41.5449 3.76354 40.5175C4.947 39.9297 6.03625 39.3531 6.18416 39.236C6.33207 39.1189 6.66609 38.5995 6.9264 38.0816C7.28121 37.376 7.491 37.0767 7.7641 36.8869C7.96456 36.7476 8.97297 36.0768 10.0051 35.3964C12.1629 33.9737 13.7107 32.7667 14.4047 31.9655C15.1712 31.0806 15.9501 29.9475 16.3209 29.178C16.7 28.3911 16.954 28.1783 18.0129 27.7598C18.6012 27.5274 22.6133 26.4298 22.6695 26.4859C22.685 26.5013 22.3906 27.0313 22.0155 27.6637C20.9758 29.416 19.8383 31.6638 18.8084 34.0007C17.1483 37.7678 15.2985 41.4341 14.2681 42.9997C14.0358 43.3527 13.2172 44.4549 12.4491 45.4493C10.7931 47.5926 9.80808 49.0282 9.57452 49.6387C9.34202 50.2463 9.43306 50.7114 9.82396 50.9132C10.5184 51.2717 11.8766 50.509 13.5386 48.8272C14.751 47.6004 15.3083 46.8868 16.7153 44.7595C17.7789 43.1513 18.0901 42.7629 19.3324 41.4934C21.1865 39.5985 22.0062 38.5156 22.8378 36.8629C23.4403 35.6653 24.1468 34.819 25.986 33.0918C30.1596 29.1722 31.5586 27.5455 32.2885 25.7639C32.3913 25.5131 32.5059 25.3078 32.5432 25.3076C32.5806 25.3074 32.7678 25.4134 32.9594 25.5431C33.7992 26.112 35.2008 26.3688 35.9219 26.0859C36.0708 26.0275 36.3779 25.9796 36.6042 25.9796C38.4411 25.9796 40.6525 23.9162 42.2076 20.7513C43.1127 18.9091 43.3368 18.2426 43.2803 17.5615C43.2445 17.1307 43.1806 16.9818 42.9135 16.7067C42.7356 16.5236 42.5304 16.3736 42.4575 16.3736C42.3251 16.3736 40.8956 13.5259 40.8956 13.2623C40.8956 13.0453 41.8666 12.22 42.5391 11.8656C43.2963 11.4664 43.9009 11.0605 44.3743 10.6337L44.7329 10.3103L44.8879 10.5465C45.1582 10.9582 45.5035 11.0337 46.0796 10.8071C46.3551 10.6986 46.6871 10.61 46.8175 10.61C47.0152 10.61 47.0545 10.5635 47.0545 10.3297C47.0545 9.72315 47.2658 9.59519 47.7018 9.93755C48.0428 10.2053 48.3549 10.1774 48.7172 9.84697C48.8877 9.69145 49.2623 9.3513 49.5496 9.09107C50.0051 8.67849 50.0744 8.56783 50.091 8.22672C50.1052 7.93431 50.1761 7.77879 50.3719 7.61068C50.5987 7.41587 50.6334 7.31549 50.6298 6.86218C50.6271 6.50983 50.6767 6.28245 50.7816 6.1668C50.9252 6.0083 50.9248 5.96862 50.7763 5.65748C50.5679 5.22147 50.5731 5.07392 50.8075 4.77651C50.9134 4.64213 51 4.40649 51 4.2527C51 3.92014 50.627 3.50813 50.3066 3.4869C49.6657 3.44444 49.6282 3.39507 49.7035 2.69354C49.7626 2.14263 49.7482 2.07443 49.5145 1.7972C49.2106 1.43659 48.702 1.25052 48.2511 1.33496C48.0517 1.37232 47.9206 1.3584 47.9206 1.2998C47.9206 1.24639 47.7827 1.04591 47.6141 0.854366C47.315 0.514216 47.2955 0.507396 46.7958 0.569739C46.3751 0.622188 46.2734 0.60605 46.2245 0.478962C46.1274 0.226323 45.6371 0.032569 45.1497 0.0542786C44.9006 0.0654216 44.5885 0.0478428 44.4562 0.0152783C44.3239 -0.0172862 44.1181 0.00394325 43.9991 0.0624441ZM44.5495 0.728719C44.7934 0.908832 44.8532 0.915941 45.1662 0.802974C45.4934 0.684916 45.5279 0.692312 45.7836 0.936978C46.1218 1.26032 46.2875 1.26205 46.6636 0.9462C46.98 0.680401 47.2466 0.694426 47.2475 0.976939C47.2494 1.61103 47.7138 2.34878 48.1109 2.34878C48.3011 2.34878 48.3029 2.33812 48.1523 2.10863C48.0002 1.87703 48.0024 1.86848 48.2109 1.86848C48.614 1.86848 49.0424 2.22553 49.2206 2.70997C49.3126 2.96039 49.3979 3.29497 49.4101 3.45347C49.4759 4.30351 49.7088 4.60793 49.9497 4.15856C50.1397 3.80409 50.2581 4.17969 50.086 4.59093C49.9173 4.9939 49.9659 5.17267 50.3569 5.58851L50.6483 5.89831L50.3988 6.12904C50.1752 6.33596 49.9434 6.89445 49.942 7.2299C49.9416 7.30434 49.856 7.34373 49.7328 7.32596C49.4531 7.28571 49.3393 7.6907 49.4205 8.43718L49.4821 9.00202L49.0549 8.93804C48.4957 8.85437 48.2912 8.93449 48.3604 9.21018C48.3936 9.34217 48.3557 9.47185 48.2611 9.55024C48.133 9.65638 48.0552 9.64851 47.7829 9.50211C47.4773 9.33785 47.4426 9.33698 47.2124 9.48761C47.0584 9.58828 46.9431 9.77598 46.9025 9.99221C46.8444 10.3017 46.8134 10.3304 46.5965 10.2761C46.4584 10.2415 46.1561 10.2871 45.89 10.3827C45.4891 10.5266 45.3909 10.5317 45.181 10.4195C44.8642 10.2502 44.8728 10.2081 45.267 9.99615C45.4483 9.89874 45.719 9.68943 45.8684 9.53112L46.1403 9.24313L45.6405 9.49308C44.4558 10.0858 42.2965 10.4949 41.2509 10.3249C40.3929 10.1854 39.9343 9.88866 39.6129 9.26513C39.3709 8.79568 39.3451 8.66014 39.3813 8.04949C39.4439 6.99455 40.0998 5.71627 41.4096 4.09679C41.7599 3.66375 42.0035 3.30938 41.9511 3.30938C41.8987 3.30938 41.5099 3.63935 41.087 4.04261L40.3182 4.77575V4.00025C40.3182 3.55895 40.3621 3.19757 40.4199 3.16193C40.4758 3.12744 40.6324 3.12696 40.7678 3.16087C40.9811 3.21428 41.0065 3.26058 40.9572 3.50611C40.91 3.74223 40.9317 3.78969 41.0871 3.78969C41.3407 3.78969 41.5051 3.44829 41.4412 3.05482C41.3832 2.69815 41.7903 1.62333 41.9469 1.71987C41.9946 1.74936 42.0629 1.94609 42.0986 2.15714C42.1665 2.5579 42.3251 2.64522 42.5322 2.39604C42.6069 2.30622 42.6313 2.11919 42.5963 1.90421C42.5545 1.64648 42.5999 1.43928 42.7734 1.0975C43.0386 0.575118 43.0632 0.561286 43.7653 0.542842C44.1496 0.532756 44.3475 0.579633 44.5495 0.728719ZM42.3391 3.45098C42.3391 3.47605 42.4648 3.56144 42.6185 3.64079C42.772 3.72004 43.0596 3.93733 43.2574 4.12349C43.6634 4.50582 43.8788 4.555 43.8788 4.26566C43.8788 3.98776 43.4876 3.63147 43.0491 3.50996C42.6556 3.40093 42.3391 3.37461 42.3391 3.45098ZM41.6334 4.04588C41.406 4.27287 41.7086 5.03578 42.0958 5.21186C42.5015 5.39639 42.5602 5.34759 42.347 5.00312C42.143 4.67373 42.0839 4.36605 42.2245 4.36605C42.4165 4.36605 42.6752 4.6622 42.7809 5.00293L42.8963 5.37468L42.9064 4.92694C42.9151 4.53876 42.8771 4.44607 42.6204 4.23051C42.3385 3.99372 41.7886 3.89084 41.6334 4.04588ZM43.1743 5.35201C42.9841 5.80167 42.7846 5.88419 42.4146 5.66594C42.1367 5.50206 42.1178 5.50273 41.872 5.68525C41.5525 5.92242 41.5035 6.22357 41.7302 6.55699L41.9061 6.81559L41.9542 6.38332L42.0023 5.95104L42.5316 5.94326C42.8227 5.93894 43.1107 5.92809 43.1717 5.91925C43.3303 5.896 43.4788 5.40965 43.3967 5.18256C43.3361 5.01494 43.3077 5.03655 43.1743 5.35201ZM44.9246 5.59082C44.9741 5.68332 45.1972 5.92732 45.4201 6.13318C45.8429 6.52357 46.1757 7.1251 46.1961 7.53604C46.2059 7.73249 46.2229 7.715 46.2894 7.43998C46.4991 6.57352 45.7953 5.42425 45.0543 5.4231C44.8746 5.42281 44.8509 5.45345 44.9246 5.59082ZM40.7031 6.6715C40.4437 6.93048 40.4393 7.19666 40.6968 7.0591C40.9859 6.90473 41.1729 6.93951 41.4292 7.19551C41.636 7.40185 41.6655 7.51693 41.6655 8.11778V8.80433L40.9678 8.73564C40.5841 8.69789 40.2377 8.64775 40.1979 8.62421C40.0809 8.55476 40.115 8.16159 40.2701 7.79099C40.5074 7.22404 40.4352 7.18494 40.0776 7.68695C39.5272 8.45976 39.6767 9.12767 40.4426 9.31748C40.8265 9.41258 41.5398 9.12037 41.7055 8.8001C41.9346 8.35755 42.061 7.73796 41.9944 7.38369C41.8505 6.61838 41.1458 6.22962 40.7031 6.6715ZM44.3103 6.5836C44.1414 6.6494 44.148 6.65882 44.3673 6.66477C44.6608 6.67275 44.9931 6.99839 45.085 7.36794C45.1694 7.70703 45.0688 7.70079 44.5714 7.33556C44.2543 7.10281 44.1675 7.07293 44.1675 7.19628C44.1675 7.70568 44.7425 8.20846 45.3252 8.20846C45.6136 8.20846 45.6236 8.1953 45.5636 7.89627C45.3531 6.8471 44.8869 6.35873 44.3103 6.5836ZM42.1212 6.72894C42.0331 6.81684 42.163 7.08504 42.3825 7.26871C42.8078 7.62442 43.3826 7.39195 43.2623 6.9129C43.1828 6.59705 43.0916 6.60829 42.8837 6.95968C42.6924 7.28302 42.5316 7.33566 42.5316 7.07495C42.5316 6.80896 42.2656 6.58476 42.1212 6.72894ZM33.4857 8.7368C33.7008 8.85956 33.7059 8.87484 33.5338 8.88089C33.2618 8.89049 33.0328 9.03564 32.1728 9.74341C31.5709 10.2389 31.348 10.3669 31.0799 10.3716C30.8947 10.3747 30.6945 10.3424 30.635 10.2999C30.3871 10.1222 30.2619 10.3232 30.2473 10.9232C30.2392 11.2529 30.1181 12.0147 29.9781 12.6162C29.6226 14.1433 29.4552 14.3275 27.5674 15.2702C25.5467 16.2793 24.3784 16.5506 23.3726 16.2445C23.1392 16.1734 22.3138 15.7724 21.5384 15.3532L20.1285 14.5909L20.4619 14.3978L20.7954 14.2047L19.5413 14.2437C18.1112 14.2882 17.6749 14.2316 17.4096 13.9667C16.8677 13.4258 17.6998 12.1769 18.8049 11.8725C19.2721 11.7438 19.3506 11.7949 18.9872 11.9915C18.8177 12.0832 18.7734 12.1407 18.8704 12.1431C19.1562 12.1501 19.8368 11.8637 20.2403 11.5664L20.6387 11.273L20.6647 11.5899C20.7045 12.0765 20.778 12.3391 20.8741 12.3391C20.9221 12.3391 20.9754 12.2766 20.9926 12.2003C21.0156 12.0975 21.1668 12.1578 21.5756 12.433C22.6101 13.1293 24.1833 13.5715 24.9868 13.3918C25.6346 13.2468 26.4222 12.8017 27.2937 12.088C28.0937 11.4326 31.1843 9.3123 31.9941 8.86312C32.5318 8.56485 33.1001 8.51672 33.4857 8.7368ZM39.7974 10.0175C39.9752 10.2247 40.3274 10.496 40.5803 10.6204C40.985 10.8196 41.1782 10.8469 42.1968 10.8484L43.3535 10.8501L42.9185 11.2101C42.1855 11.8165 41.7403 12.1466 41.0881 12.5672C40.4824 12.9578 40.4628 12.9831 40.47 13.3627C40.4796 13.8786 41.0271 15.0207 41.6028 15.7263L42.0526 16.2775H41.7736C41.0243 16.2775 39.3812 17.8522 38.4534 19.4595C38.1998 19.8988 38.1923 19.9032 37.7736 19.8562C37.5176 19.8274 37.1734 19.8687 36.9026 19.9608C36.3305 20.1554 35.3365 20.8624 34.8924 21.3907L34.5474 21.801L34.0406 21.5247C33.1369 21.0321 31.7502 20.1009 31.6544 19.9224C31.603 19.8267 31.5611 19.3761 31.5611 18.9211C31.5611 18.171 31.5391 18.072 31.3248 17.8582C31.1949 17.7285 31.0542 17.6226 31.0121 17.6228C30.7982 17.6237 30.2859 18.049 30.0033 18.4604C29.6856 18.9227 29.6832 18.924 29.2515 18.864C28.4168 18.748 27.8078 19.0864 27.4228 19.8803C27.2123 20.3145 27.172 21.009 27.3327 21.4345C27.478 21.8191 27.9836 22.3226 28.4335 22.5311C28.6989 22.654 29.0434 22.71 29.5424 22.7115L30.2664 22.7136L31.3489 23.9608L32.4315 25.208L32.1495 25.7657C31.4241 27.2002 29.7661 29.0126 26.9901 31.4056C25.1692 32.9752 23.5069 34.5781 22.9983 35.2547C22.7976 35.5216 22.4972 36.0094 22.3307 36.3385C21.4948 37.9914 20.5577 39.2381 18.675 41.202C17.5118 42.4152 17.2495 42.7553 16.3083 44.2702C14.9525 46.4525 13.9481 47.7922 12.7992 48.9507C11.6912 50.0679 10.9209 50.5853 10.2732 50.6475C10.0199 50.6717 9.80962 50.6537 9.80596 50.6073C9.8023 50.561 9.78142 50.3934 9.75958 50.2349C9.66816 49.5712 10.4615 48.3272 13.014 45.1322C15.6765 41.7993 17.3079 38.9796 19.3434 34.1928C20.6941 31.0168 22.6912 26.9519 24.0277 24.6588C24.4612 23.9153 24.1878 24.2351 23.4918 25.2858L22.8061 26.3209L20.6776 26.7412C18.4275 27.1856 17.2587 27.5322 16.6465 27.9365C16.3867 28.1082 16.1629 28.394 15.9062 28.8819C15.7039 29.2665 15.2821 29.9272 14.9686 30.3501C13.8141 31.9079 12.8121 32.728 9.11809 35.1381L6.93314 36.5638L6.39328 37.6173C5.77364 38.8265 5.99391 38.6509 3.39506 40.0082C2.02539 40.7237 1.42278 40.9875 1.06143 41.0303C0.58258 41.0869 0.574305 41.0835 0.574305 40.8296C0.574305 40.2225 1.19452 39.579 3.57896 37.7122C5.30229 36.3628 5.27881 36.3868 6.88358 34.3369C8.52242 32.2435 10.2822 30.0922 12.6672 27.2666C14.7492 24.7999 15.34 24.2421 17.9613 22.267C19.564 21.0593 21.9026 19.5193 22.7558 19.1096C23.1263 18.9317 24.2956 18.4543 25.3541 18.0487C26.4127 17.643 27.4608 17.226 27.6833 17.122C28.2965 16.8355 28.8296 16.1831 29.3805 15.0455L29.877 14.0201L30.3582 14.184C31.4795 14.5659 32.6544 14.2331 33.1413 13.3954L33.3366 13.0595L33.0984 13.2271C32.3869 13.728 31.7607 13.863 30.7396 13.7357L30.1859 13.6666L30.2445 12.7756C30.2769 12.2856 30.3805 11.6518 30.475 11.3673L30.6469 10.8501L31.8196 10.8003C32.4645 10.7728 33.0197 10.7229 33.0532 10.6895C33.1143 10.6285 32.2722 10.418 31.9654 10.4176C31.8753 10.4175 32.0615 10.262 32.3791 10.0722C32.6966 9.88241 33.0514 9.63957 33.1676 9.53247C33.356 9.35869 33.4763 9.34207 34.2878 9.37752L35.197 9.41719L36.5701 10.1221C37.8507 10.7794 37.9293 10.8074 37.7361 10.5366L37.5289 10.2462L37.7667 10.1866C38.0406 10.1181 38.8156 9.35322 39.0413 8.92892L39.1946 8.64074L39.3344 9.14073C39.4114 9.41575 39.6198 9.81027 39.7974 10.0175ZM33.419 11.7534C33.4292 12.2766 33.4746 12.682 33.5198 12.6541C33.6698 12.5618 33.9627 11.8153 33.9648 11.52C33.9672 11.1907 33.7339 10.8021 33.5339 10.8021C33.428 10.8021 33.4044 10.9978 33.419 11.7534ZM37.5275 11.5562C37.5275 11.7471 38.0244 11.9511 38.833 12.092C39.2989 12.1732 39.7046 12.215 39.7346 12.1851C39.7645 12.1551 39.6674 12.0262 39.5189 11.8986C39.289 11.701 39.1489 11.6666 38.5743 11.6666C38.2033 11.6666 37.816 11.6219 37.7136 11.5672C37.6083 11.5109 37.5275 11.5061 37.5275 11.5562ZM37.1542 13.7135C38.0493 14.0181 38.4561 14.359 38.8001 15.0925C39.5975 16.7938 38.722 18.1987 36.8643 18.1987C36.2374 18.1987 35.7452 17.9784 35.1965 17.4519C34.6025 16.882 34.4246 16.3852 34.4632 15.4043C34.4813 14.9435 34.4678 14.5842 34.433 14.6057C34.2934 14.692 34.0631 15.5721 34.0631 16.0193C34.0631 16.7318 34.2445 17.2051 34.72 17.733C35.4765 18.5729 36.4036 18.8513 37.4411 18.5502C39.0305 18.089 39.8787 16.1182 39.119 14.6515C38.9121 14.2523 38.2578 13.7086 37.8471 13.5948C37.6448 13.5388 37.2628 13.4937 36.9982 13.4948L36.517 13.4968L37.1542 13.7135ZM37.0449 15.1969C37.044 15.2894 36.9999 15.4298 36.9468 15.5091C36.8634 15.6335 36.8297 15.6269 36.7001 15.461C36.5528 15.2726 36.5506 15.2732 36.5816 15.4993C36.6267 15.827 36.8745 15.9585 37.1832 15.8181C37.4516 15.6961 37.5201 15.348 37.3158 15.144C37.1521 14.9806 37.0466 15.0012 37.0449 15.1969ZM42.6037 17.0016C42.7855 17.2091 42.8203 17.3604 42.8203 17.9438C42.8203 19.7698 41.9358 21.3066 39.4608 23.7809C37.8173 25.4239 37.2598 25.7434 35.9842 25.773C35.0526 25.7947 33.9853 25.5619 33.2032 25.1663C32.7637 24.9439 30.4063 22.8629 30.4063 22.6972C30.4063 22.6611 30.4821 22.6119 30.5747 22.5877C30.6673 22.5635 30.5887 22.5388 30.3999 22.5326C28.6437 22.4756 27.6566 21.7793 27.6696 20.6069C27.6824 19.4689 28.327 18.8425 29.2863 19.0361L29.7539 19.1304L30.3121 18.5575C30.6191 18.2425 30.916 18.013 30.972 18.0475C31.0344 18.0859 31.0659 18.4541 31.0533 18.9951C31.037 19.6918 31.0692 19.9469 31.2048 20.1953C31.5362 20.8024 33.7193 22.005 35.0107 22.2918C35.5795 22.4181 35.8063 22.5196 36.0127 22.7402C36.317 23.0655 36.2747 22.8024 35.9678 22.4612C35.7852 22.2583 35.7858 22.2565 36.0543 22.1905C36.6332 22.0483 37.1442 21.6475 37.6284 20.9561C37.895 20.5755 38.4917 19.8534 38.9545 19.3515C39.4173 18.8496 40.113 18.0607 40.5004 17.5985C41.252 16.7018 41.5538 16.5276 42.0985 16.6759C42.2573 16.7191 42.4847 16.8657 42.6037 17.0016ZM37.762 20.4158C37.3479 20.8492 36.2759 21.7044 35.9204 21.8849C35.5631 22.0662 35.3329 22.0801 34.9696 21.9421L34.7087 21.8432L34.9098 21.6295C35.2363 21.2827 36.1266 20.7875 37.0252 20.453C38.0831 20.0592 38.1036 20.0583 37.762 20.4158ZM27.0182 25.0457C23.8448 28.6611 20.8249 33.1037 17.8292 38.5636C15.7254 42.3978 15.2428 43.1124 12.9013 45.8598C10.8223 48.2993 9.80606 49.6924 9.81645 50.0886C9.81857 50.1691 9.8891 50.1052 9.97321 49.9467C10.2087 49.5026 10.83 48.775 12.5468 46.9322C15.6391 43.6129 16.0571 42.9993 18.2812 38.5155C20.118 34.8125 20.6587 33.9383 23.1836 30.5905C25.8432 27.0642 28.1778 23.8618 28.0837 23.869C28.0644 23.8705 27.5849 24.4 27.0182 25.0457ZM28.7871 25.5018C28.9102 25.6618 29.107 25.9104 29.2244 26.0542L29.4379 26.3159L29.4409 26.0887C29.4428 25.9469 29.3102 25.7392 29.0884 25.5363C28.6469 25.1327 28.4889 25.1146 28.7871 25.5018ZM28.416 26.1586C28.5844 26.4156 28.8038 26.7721 28.9036 26.9511C29.0925 27.29 29.2188 27.206 29.1187 26.8081C29.0596 26.5729 28.3275 25.6915 28.1913 25.6915C28.1465 25.6915 28.2475 25.9016 28.416 26.1586Z" fill="black"/>
</svg>
