<svg width="73" height="76" viewBox="0 0 73 76" fill="none" xmlns="http://www.w3.org/2000/svg">
<path d="M36.1835 10.2386C39.3111 12.8834 41.6451 16.7009 42.848 20.6885C44.054 24.6858 44.0909 28.7397 42.7805 31.8755L42.7805 31.8755L41.2375 35.5685L40.9926 36.1545L41.4189 36.6252L45.6148 41.2591L45.6149 41.2592L49.8098 45.8932L50.2548 46.3847L50.8807 46.1662L57.4587 43.8702L57.4588 43.8702C60.4252 42.8346 62.0376 42.3437 63.255 42.2266C64.3776 42.1185 65.188 42.3263 66.5805 42.9029C70.7711 44.6388 72.6585 48.8405 71.2003 53.7059L71.2002 53.7061C69.9291 57.9492 66.2997 62.7981 61.7764 66.8058C57.2526 70.8139 52.0127 73.8228 47.6695 74.557C45.5519 74.9145 43.6967 74.6124 42.1248 73.7388C40.5459 72.8613 39.1752 71.3633 38.1151 69.2009L37.2172 69.641L38.1151 69.2008C37.494 67.9341 37.3804 66.168 37.878 64.0614C38.3725 61.968 39.4523 59.6267 41.0868 57.2974L41.0868 57.2973L43.0418 54.5103L43.5045 53.8507L42.9585 53.2583L38.6146 48.5454C38.6146 48.5454 38.6145 48.5453 38.6145 48.5453C37.4102 47.2381 36.2538 46.0503 35.3581 45.1877C34.9121 44.7583 34.5194 44.3984 34.2121 44.1425C34.0609 44.0166 33.9113 43.8998 33.7757 43.8101C33.7094 43.7663 33.6229 43.7132 33.5256 43.6686L33.523 43.6674C33.4636 43.64 33.2324 43.5339 32.9375 43.5628L32.9339 43.5632C32.6146 43.5957 30.1823 43.9962 27.5745 44.4424L27.5744 44.4424C19.3444 45.8517 10.7539 41.0957 6.3702 32.444L6.37019 32.444C3.94191 27.6519 2.22017 21.6665 1.45053 16.1294C0.67379 10.5411 0.897001 5.62389 2.15615 2.86069L2.15616 2.86066C2.47401 2.16309 2.64619 1.81376 2.84974 1.57782C2.99837 1.40555 3.19365 1.26088 3.67125 1.15557C4.19665 1.03972 4.98618 0.989299 6.26704 1.00192C7.53389 1.0144 9.20172 1.08628 11.4523 1.18507L11.4524 1.18507C15.1798 1.34854 17.6481 1.57701 19.8368 2.063C22.0128 2.54619 23.9528 3.29309 26.6099 4.54108C30.1507 6.20503 34.468 8.78827 36.1835 10.2386ZM36.1835 10.2386L36.8292 9.47503M36.1835 10.2386L36.8292 9.47503M36.8292 9.47503C35.0172 7.94303 30.6102 5.31603 27.0352 3.63603M36.8292 9.47503C43.4172 15.046 46.5532 25.441 43.7032 32.261L42.1602 35.954L46.3562 40.588L27.0352 3.63603M27.0352 3.63603C21.6572 1.11003 18.9752 0.51403 11.4962 0.18603C2.52017 -0.20797 2.44817 -0.19197 1.24617 2.44603L27.0352 3.63603Z" stroke="black" stroke-width="2"/>
</svg>
