<svg width="18" height="28" viewBox="0 0 18 28" fill="none" xmlns="http://www.w3.org/2000/svg">
<path fill-rule="evenodd" clip-rule="evenodd" d="M13.7663 0.0422433C13.7014 0.0644599 13.5426 0.118825 13.4134 0.163058C13.1908 0.239241 13.071 0.308882 12.8477 0.491919C12.5846 0.707663 12.4919 0.801555 12.3866 0.958985C12.3236 1.05308 12.2608 1.13907 12.247 1.15004C12.1965 1.19005 12.0257 1.53315 11.9789 1.6885C11.8908 1.98079 11.8214 2.09757 11.5935 2.33657C11.3364 2.60616 11.2405 2.7267 11.1804 2.85517C11.1574 2.90451 11.1236 2.94491 11.1054 2.94491C11.0873 2.94491 11.0725 2.96103 11.0725 2.98073C11.0725 3.01005 10.8828 3.3539 10.7182 3.62298C10.698 3.65588 10.5851 3.87561 10.4673 4.11126C10.3494 4.34691 10.2441 4.51742 10.2332 4.49018C10.2224 4.46294 10.2121 4.48779 10.2104 4.54546C10.2087 4.6031 10.1813 4.6721 10.1496 4.69882C10.1178 4.72559 10.0957 4.76204 10.1004 4.77991C10.1051 4.79778 10.0428 4.87269 9.96185 4.94632C9.84199 5.05541 9.80707 5.12241 9.77317 5.30816C9.73164 5.53607 9.65142 5.74452 9.39816 6.28226C9.32407 6.43957 9.26347 6.5856 9.26347 6.60677C9.26347 6.62791 9.23704 6.6966 9.20471 6.75946C9.17243 6.82228 9.14588 6.90879 9.14573 6.95175C9.14561 6.99467 9.08135 7.08601 9.00297 7.15469C8.87933 7.26306 8.85841 7.30717 8.84524 7.48754C8.8369 7.60189 8.80572 7.73491 8.77598 7.78313C8.74625 7.8314 8.67291 8.02341 8.61302 8.20988C8.55313 8.39634 8.481 8.58504 8.45281 8.6292C8.42457 8.67335 8.3817 8.79899 8.35756 8.9084C8.29609 9.18705 7.8864 10.0154 7.78556 10.0649C7.74058 10.087 7.71128 10.128 7.72048 10.156C7.72968 10.184 7.72005 10.2287 7.69905 10.2554C7.67809 10.2821 7.604 10.4924 7.53443 10.7227C7.4649 10.953 7.39223 11.1774 7.37292 11.2213C7.35365 11.2652 7.31916 11.3892 7.29627 11.4969C7.27339 11.6047 7.16673 11.9554 7.0593 12.2764C6.89212 12.7756 6.86161 12.9144 6.84808 13.2372C6.83935 13.4447 6.8143 13.6614 6.79239 13.7188C6.77045 13.7763 6.73391 13.9198 6.71114 14.0379C6.56269 14.8077 6.43972 15.3843 6.41549 15.4241C6.39996 15.4496 6.37267 15.4613 6.35481 15.4501C6.31714 15.4265 6.19606 15.7136 6.19606 15.8266C6.19606 15.8687 6.17911 15.9138 6.15842 15.9268C6.1377 15.9398 6.12224 15.9991 6.12401 16.0588C6.12582 16.1184 6.11504 16.212 6.1001 16.2669C6.08516 16.3217 6.05606 16.5102 6.03545 16.6857C6.01484 16.8612 5.97186 17.0969 5.93997 17.2095C5.90807 17.3221 5.86344 17.5554 5.84086 17.728C5.81825 17.9006 5.78416 18.0867 5.76508 18.1415C5.70794 18.306 5.61222 18.6624 5.54557 18.9592C5.51104 19.1127 5.46365 19.2891 5.44021 19.3511L5.39758 19.4637L5.13174 19.1815C4.98557 19.0263 4.84596 18.8993 4.8215 18.8993C4.79704 18.8993 4.73904 18.8634 4.69263 18.8196C4.64619 18.7757 4.58688 18.7398 4.56081 18.7398C4.53478 18.7398 4.50379 18.7142 4.49191 18.6829C4.46167 18.6029 4.15155 18.4714 3.87178 18.42C3.57857 18.366 3.2596 18.3744 2.95168 18.4439C2.8219 18.4732 2.67148 18.5055 2.61741 18.5156C2.47678 18.5419 1.98438 18.796 1.8817 18.8952C1.83392 18.9413 1.78402 18.9791 1.77076 18.9791C1.7019 18.9791 1.31887 19.3724 1.29893 19.4636C1.28627 19.5216 1.24309 19.5992 1.20306 19.636C1.16298 19.6727 1.10875 19.7554 1.08252 19.8196C1.05629 19.8839 1.01952 19.9364 1.0008 19.9364C0.982084 19.9364 0.942247 19.9947 0.912281 20.066C0.882315 20.1373 0.819275 20.2405 0.772242 20.2954C0.53263 20.5747 0.455708 20.6787 0.455119 20.7241C0.454765 20.7516 0.436793 20.774 0.415164 20.774C0.393534 20.774 0.375838 20.8026 0.375838 20.8377C0.375838 20.8726 0.34304 20.9489 0.302928 21.0072C0.245197 21.091 0.165484 21.311 0.17445 21.3618C0.175355 21.3669 0.149085 21.4477 0.116012 21.5412C0.0124674 21.8344 -0.0367685 22.8284 0.0315404 23.2469C0.115737 23.7627 0.246259 24.2801 0.303242 24.3239C0.332658 24.3465 0.396562 24.6452 0.382838 24.6958C0.377922 24.7139 0.387989 24.7198 0.405214 24.709C0.422439 24.6982 0.470377 24.7724 0.511748 24.8738C0.605068 25.1026 0.728708 25.2163 0.997775 25.3206C1.30585 25.44 1.47574 25.4708 2.10165 25.5205C2.69004 25.5672 2.78588 25.6007 2.73196 25.7407C2.62079 26.0293 2.80086 26.6372 2.99753 26.6372C3.02687 26.6372 3.12585 26.6704 3.21756 26.7108C3.41651 26.7987 3.62242 26.8615 4.13145 26.9896C4.91344 27.1864 6.45262 27.2532 7.49381 27.1355C8.56563 27.0143 8.84634 26.9578 9.65672 26.7001C9.84057 26.6417 10.0441 26.5793 10.109 26.5615C10.2307 26.528 10.5751 26.3793 10.6792 26.3153C10.7116 26.2953 10.8178 26.2354 10.9152 26.182C11.1432 26.0571 11.3762 25.8235 11.4489 25.647C11.4989 25.5257 11.499 25.4793 11.4497 25.2848C11.3972 25.0769 11.3983 25.0563 11.4669 24.9815C11.6138 24.8213 11.7062 24.5371 11.6972 24.2736C11.6866 23.9647 11.7205 23.6489 11.7831 23.4735C11.8158 23.382 11.8184 23.3174 11.7916 23.2688C11.7661 23.2226 11.7655 23.1356 11.7901 23.0189C11.8196 22.8788 11.8145 22.8127 11.7668 22.7144C11.7332 22.6453 11.6973 22.4862 11.687 22.3607C11.6742 22.2048 11.6384 22.0913 11.5736 22.0018C11.5115 21.9159 11.4764 21.8092 11.4717 21.6914C11.4596 21.3977 11.4212 21.1344 11.3873 21.1131C11.3698 21.1022 11.3551 20.9142 11.3546 20.6953C11.3541 20.4765 11.3429 20.2798 11.3298 20.2583C11.3167 20.2367 11.333 20.1533 11.3661 20.0729C11.4062 19.9757 11.4264 19.797 11.4264 19.5401C11.4264 19.154 11.4878 18.5848 11.5992 17.9389C11.6317 17.7507 11.6688 17.4097 11.6817 17.1811C11.7156 16.5805 11.7646 16.3023 11.9236 15.8082C12.2673 14.7403 12.3255 14.5558 12.4018 14.2925C12.4464 14.1389 12.5105 13.8726 12.5443 13.7006C12.5782 13.5286 12.6168 13.3701 12.6301 13.3482C12.6434 13.3264 12.6767 13.2068 12.7042 13.0826C12.7316 12.9583 12.8473 12.5874 12.9612 12.2583C13.075 11.9293 13.1909 11.5703 13.2187 11.4606C13.3954 10.7618 13.6343 10.1069 13.847 9.73839C13.8999 9.64673 13.9432 9.5477 13.9432 9.5183C13.9432 9.4889 13.9875 9.39884 14.0416 9.31811C14.0956 9.23742 14.1399 9.13523 14.1399 9.09104C14.1399 9.04685 14.1724 8.9786 14.2123 8.93935C14.288 8.86469 14.5337 8.37377 14.5493 8.26592C14.5542 8.23157 14.5804 8.18965 14.6073 8.17278C14.6376 8.1538 14.6633 8.01372 14.6743 7.80703C14.6842 7.62275 14.7133 7.43014 14.739 7.37901C14.7834 7.29074 14.8007 7.28719 15.0776 7.30897C15.3755 7.33242 15.6605 7.2716 15.7691 7.16143C15.7965 7.13363 15.8305 6.94668 15.846 6.73828C15.8613 6.53295 15.9063 6.22814 15.9461 6.06093C16.071 5.53639 16.3568 4.77967 16.4301 4.77967C16.4492 4.77967 16.4546 4.76304 16.4422 4.7427C16.4298 4.72236 16.4571 4.61016 16.5028 4.49341C16.5485 4.37662 16.67 4.02084 16.7727 3.70275C16.9865 3.04048 17.0468 2.52244 16.9721 1.98765C16.9302 1.68758 16.7882 1.2697 16.7281 1.2697C16.7105 1.2697 16.696 1.25123 16.696 1.22865C16.696 1.20604 16.6253 1.09675 16.5387 0.985749C16.4522 0.874746 16.3814 0.798284 16.3814 0.815914C16.3814 0.833503 16.2974 0.765896 16.1946 0.665623C15.9043 0.382392 15.5078 0.177377 15.005 0.0506992C14.7542 -0.0125203 13.9423 -0.0180644 13.7663 0.0422433Z" fill="black"/>
</svg>
