<svg width="51" height="96" viewBox="0 0 51 96" fill="none" xmlns="http://www.w3.org/2000/svg">
<path fill-rule="evenodd" clip-rule="evenodd" d="M27.3489 1.137C25.4814 2.395 23.5259 5.027 23.0504 6.921C22.8804 7.5975 22.9944 8.8505 23.3039 9.706C23.7114 10.833 23.7254 12.88 23.3554 17.143C23.0744 20.3785 22.9789 23.2425 23.1424 23.5075C24.1619 25.1565 24.4274 58.8185 23.4339 60.426C23.1374 60.9055 16.4314 61.254 11.8249 61.0295C7.01687 60.795 4.19886 63.5095 1.59936 70.8785C-0.954635 78.119 -0.463635 83.0095 3.17186 86.533L4.94336 88.25L11.7904 88.5L18.6379 88.75L18.7959 90.125C18.9889 91.8025 21.1834 93.5335 24.6379 94.734C27.9854 95.897 38.8124 96.3525 43.4429 95.525C47.2434 94.8455 50.0584 93.2635 50.2884 91.677C50.3714 91.1055 49.9034 89.988 49.2479 89.194C48.5924 88.4 47.5269 86.794 46.8799 85.625C46.2329 84.4565 45.5764 83.5 45.4209 83.4995C45.2654 83.4995 45.0614 76.5805 44.9679 68.1245C44.7949 52.4895 44.1054 31.8975 43.4824 23.75C43.2469 20.6735 42.8319 18.7445 42.1704 17.6515C41.3579 16.308 41.2984 15.844 41.7989 14.746C42.3104 13.623 42.2249 13.144 41.1924 11.3445C40.5309 10.1925 39.4854 7.839 38.8684 6.1145C37.3029 1.7395 35.2619 0 31.6944 0C29.7569 0 28.5779 0.3085 27.3489 1.137Z" fill="black"/>
</svg>
