<svg width="32" height="96" viewBox="0 0 32 96" fill="none" xmlns="http://www.w3.org/2000/svg">
<path fill-rule="evenodd" clip-rule="evenodd" d="M11.9721 0.885195C10.5706 2.0137 8.90556 5.3867 8.50056 7.9182C8.32356 9.0242 8.45206 11.0682 8.78656 12.4607C9.33656 14.7547 9.28806 15.2482 8.27106 17.7022C7.17506 20.3457 7.16856 20.4697 8.00256 22.8302C9.01806 25.7052 9.01706 25.6747 8.22256 28.3572C7.72406 30.0397 7.72356 30.9557 8.21956 32.8907C8.71256 34.8142 8.71356 35.7907 8.22606 37.6142C7.74806 39.4022 7.74306 40.3522 8.20456 41.8922C8.69756 43.5382 8.66206 44.1962 7.99456 45.7947C7.39756 47.2232 7.27606 48.4917 7.52106 50.7332C7.90906 54.2807 7.90656 55.2727 7.50106 59.1797C7.32456 60.8767 7.44106 62.9837 7.77806 64.1862C8.25756 65.8992 8.22506 66.5212 7.59106 67.7422C6.35206 70.1307 6.11056 73.0882 6.98356 75.1777C7.57106 76.5842 7.63306 77.3602 7.24106 78.3907C6.95656 79.1377 6.51406 80.8742 6.25806 82.2492C5.56156 85.9877 4.95806 87.1002 2.73006 88.7492C-1.18644 91.6482 -0.906439 93.4442 3.68256 94.8637C6.03156 95.5902 8.38556 95.7482 16.7956 95.7427C27.5636 95.7362 30.2951 95.2952 31.4966 93.3697C32.1216 92.3687 32.0166 92.1602 27.9106 86.2397L25.2761 82.4402L26.0356 80.2022C26.9886 77.3952 26.9856 76.5937 26.0101 73.7202C25.2956 71.6167 25.2956 71.2272 26.0101 69.4427C27.0701 66.7932 26.9986 64.1132 25.8096 61.8947C24.9041 60.2057 24.8836 59.9102 25.5596 58.2932C26.5121 56.0137 26.4906 54.0072 25.4881 51.5017C24.8091 49.8037 24.7816 49.2397 25.3166 47.9482C26.1886 45.8432 26.0581 42.2242 25.0546 40.6927C24.3856 39.6717 24.3281 39.1252 24.7596 37.8872C25.5156 35.7187 25.4251 33.1997 24.5286 31.4662C23.9261 30.3017 23.8711 29.5757 24.2716 28.0882C24.8011 26.1212 24.3591 23.5307 23.2696 22.2182C22.8906 21.7612 22.8376 20.8222 23.1101 19.3917C23.6396 16.6122 23.4696 15.3512 22.2971 13.3642C21.6361 12.2437 21.4846 11.5077 21.8091 10.9942C23.1891 8.8117 21.5296 3.0427 18.9346 1.0012C17.3046 -0.281305 13.5001 -0.344305 11.9721 0.885195Z" fill="black"/>
</svg>
