<svg width="51" height="98" viewBox="0 0 51 98" fill="none" xmlns="http://www.w3.org/2000/svg">
<path fill-rule="evenodd" clip-rule="evenodd" d="M30.1802 1.01987C29.7522 1.63087 29.4017 2.81787 29.4017 3.65787C29.4017 4.65537 28.7272 6.08287 27.4572 7.77287C25.1577 10.8334 24.1512 14.4464 24.5802 18.0979C25.2147 23.4994 23.6057 25.6594 15.4092 30.4099C7.04366 35.2579 1.87766 41.5744 0.369156 48.7989C-0.371844 52.3459 0.0556562 60.9759 1.17916 65.1584C2.19116 68.9239 5.10266 75.1934 8.32416 80.5419C9.68766 82.8059 11.7442 86.5709 12.8937 88.9084C14.0437 91.2459 15.2767 93.7209 15.6337 94.4084C15.9912 95.0959 17.0727 96.0589 18.0377 96.5484C20.2407 97.6659 22.9802 97.1624 25.6112 95.1554C29.7347 92.0099 35.5367 82.4719 37.1662 76.1584C38.0807 72.6139 38.1987 64.8399 37.4057 60.3419C37.0972 58.5909 35.9627 53.4179 34.8847 48.8459C31.7782 35.6689 31.7077 32.8029 34.4147 29.7199C35.2197 28.8034 36.9522 27.6484 38.2647 27.1534C41.2362 26.0334 44.5032 23.8409 45.5257 22.2804C45.9527 21.6289 46.8607 19.4884 47.5442 17.5244C48.2272 15.5599 49.1497 13.5889 49.5937 13.1449C51.6427 11.0959 49.7277 9.25137 44.8852 8.60887C42.4902 8.29137 41.8382 7.91787 38.9237 5.19237C33.0917 -0.260627 31.5817 -0.981626 30.1802 1.01987Z" fill="black"/>
</svg>
