<svg width="31" height="96" viewBox="0 0 31 96" fill="none" xmlns="http://www.w3.org/2000/svg">
<path fill-rule="evenodd" clip-rule="evenodd" d="M7.9883 1.70867C5.3583 4.35317 3.8743 8.51267 3.5598 14.1237C3.3513 17.8377 3.5763 19.9777 4.8463 26.3737C7.2833 38.6432 8.0058 53.9537 6.6218 63.9987C6.3428 66.0237 6.1303 66.3737 5.1798 66.3737C2.1138 66.3737 -0.431196 71.4367 0.0613037 76.5587C0.274304 78.7777 0.565304 79.3222 2.3678 80.8747C4.3333 82.5677 4.4303 82.7842 4.4303 85.4877C4.4303 89.6387 5.3028 93.0792 6.6843 94.3772C9.0268 96.5777 15.2493 95.0147 19.8618 91.0662C26.7383 85.1802 30.5508 74.2117 30.5308 60.3737C30.5088 45.6192 26.9298 32.4177 17.2453 11.3737C11.4663 -1.18383 11.1713 -1.49183 7.9883 1.70867Z" fill="black"/>
</svg>
