<svg width="41" height="79" viewBox="0 0 41 79" fill="none" xmlns="http://www.w3.org/2000/svg">
<path fill-rule="evenodd" clip-rule="evenodd" d="M17.5095 0.100375C14.3395 0.2386 12.6448 0.496734 11.2458 1.0543C10.8603 1.20788 10.0906 1.3849 9.53519 1.4477C8.29396 1.58797 7.98262 1.78308 8.37513 2.17489C8.52207 2.32142 8.49368 2.35077 8.14119 2.41676C7.87808 2.46602 7.70526 2.57785 7.63926 2.74156C7.56037 2.93701 7.53688 2.94804 7.53118 2.79218C7.52365 2.58433 7.35312 2.52267 7.24926 2.69025C7.20195 2.7667 7.12671 18.4922 7.17094 19.0607C7.17698 19.1389 7.29749 19.2045 7.4385 19.2065C7.81117 19.2117 8.094 19.4693 8.094 19.8033C8.094 20.3763 8.18783 20.4543 8.8765 20.4543H9.5206L9.47989 19.9424L9.43909 19.4304H10.5222H11.6053L11.7062 19.8558C11.7969 20.2389 11.8518 20.2884 12.259 20.3554C12.8073 20.4457 12.9181 20.393 12.7683 20.1136C12.5992 19.7982 12.6295 19.4642 12.8343 19.3857C13.0652 19.2973 19.3041 19.2947 19.5345 19.383C19.6297 19.4194 19.6821 19.5155 19.651 19.5965C19.612 19.698 19.7577 19.7683 20.1197 19.8224C20.7446 19.916 21.4341 19.8021 21.1907 19.6455C20.8007 19.3947 21.4807 19.3201 24.168 19.3187C28.3035 19.3165 31.578 19.4393 31.578 19.5964C31.578 19.8807 31.8742 20.3388 32.0585 20.3396C32.2808 20.3406 32.49 20.0137 32.49 19.6654C32.49 19.4641 32.5608 19.4304 32.9837 19.4304C33.6499 19.4304 33.7602 19.1954 33.8492 17.5857L33.9202 16.3019L34.012 17.4642C34.0624 18.1036 34.0706 18.7306 34.0301 18.8578C33.9897 18.9851 34.0079 19.0891 34.0706 19.0891C34.1981 19.0891 34.3555 18.6839 34.2803 18.5497C34.2536 18.5023 34.2698 14.9321 34.3162 10.6161C34.3923 3.51858 34.3832 2.75612 34.2195 2.63667C34.12 2.56408 33.9702 2.53086 33.8866 2.56283C33.8005 2.59582 33.749 2.55612 33.7678 2.47114C33.7894 2.37364 33.6095 2.28456 33.2525 2.21607C32.851 2.13905 32.7207 2.06761 32.7661 1.94952C32.8009 1.85896 32.7414 1.75544 32.6306 1.71357C32.5219 1.67262 32.2022 1.49355 31.92 1.31562C30.7688 0.589795 28.8054 0.270455 24.396 0.0918425C21.3283 -0.0325034 20.5327 -0.0314799 17.5095 0.100375ZM26.6374 0.42563C27.7901 0.536097 28.7156 0.871706 28.8047 1.21152C28.8538 1.39935 29.0074 1.43394 30.02 1.48547C31.1828 1.54452 31.92 1.7188 31.92 1.9345C31.92 2.00538 31.7327 2.02347 31.4355 1.98138C30.2163 1.80834 24.052 1.67193 18.8188 1.70231C14.3447 1.72813 13.0602 1.70447 13.0238 1.59548C12.9981 1.51846 13.0278 1.45544 13.0898 1.45544C13.1518 1.45544 13.1768 1.35669 13.1451 1.23587C13.0472 0.862377 13.8789 0.530978 15.1572 0.434163C16.7368 0.314596 25.4105 0.30811 26.6374 0.42563ZM20.292 1.02267L19.893 1.27159L20.3157 1.34486C20.5482 1.38513 21.0319 1.39378 21.3905 1.36408L22.0427 1.31016L21.5378 1.04668C20.9061 0.71687 20.7857 0.714595 20.292 1.02267ZM9.348 1.79673C9.12479 1.94076 8.97385 1.94076 9.063 1.79673C9.10176 1.73416 9.22021 1.68376 9.32623 1.68468C9.49233 1.68627 9.49541 1.70174 9.348 1.79673ZM34.2645 4.04554C34.1306 4.17921 34.0958 3.98809 34.175 3.55407L34.257 3.10504L34.293 3.54304C34.3129 3.78399 34.3001 4.01004 34.2645 4.04554ZM34.1774 11.353C34.1794 13.9405 34.1442 15.1617 34.0743 14.9367C34.0159 14.749 33.9998 14.2904 34.0387 13.9177C34.0972 13.3558 34.0829 13.2618 33.9551 13.3678C33.826 13.4751 33.8126 12.9587 33.8728 10.1775C33.9123 8.35248 33.9591 6.50094 33.9768 6.06295L34.0089 5.26659L34.0917 6.34736C34.1372 6.94179 34.1758 9.19434 34.1774 11.353ZM9.348 20.6041C9.09584 20.7338 9.06482 20.8186 9.0785 21.34C9.1021 22.2346 9.13562 22.2745 9.86419 22.2745C10.3143 22.2745 10.4777 22.2362 10.4207 22.1442C10.2599 21.8846 10.3691 20.7458 10.5691 20.5965C10.73 20.4764 10.6723 20.4545 10.1963 20.456C9.88653 20.4569 9.50475 20.5236 9.348 20.6041ZM13.5945 20.5327C13.7042 20.5613 13.8838 20.5613 13.9935 20.5327C14.1032 20.5041 14.0135 20.4807 13.794 20.4807C13.5746 20.4807 13.4848 20.5041 13.5945 20.5327ZM20.4929 20.5347C20.6347 20.5619 20.8399 20.5609 20.9489 20.5325C21.0579 20.504 20.9418 20.4817 20.691 20.483C20.4402 20.4842 20.3511 20.5075 20.4929 20.5347ZM27.5595 20.5365C27.7633 20.5618 28.0967 20.5618 28.3005 20.5365C28.5043 20.5114 28.3375 20.4907 27.93 20.4907C27.5224 20.4907 27.3557 20.5114 27.5595 20.5365ZM12.475 20.8321C12.4234 20.9666 12.4393 21.3174 12.5312 22.0612C12.536 22.1004 12.6863 22.1616 12.865 22.1972C13.2558 22.2752 13.7613 22.1675 13.567 22.0477C13.4943 22.0029 13.4251 21.6899 13.4132 21.3524L13.3916 20.7387L12.9649 20.7033C12.673 20.6792 12.5182 20.7198 12.475 20.8321ZM20.2129 20.7522C20.1381 20.7842 20.103 20.8784 20.135 20.9618C20.1671 21.0451 20.0776 21.1942 19.9361 21.2931C19.631 21.5063 19.6493 21.5328 20.2065 21.6847C20.4875 21.7612 20.7707 21.7635 21.033 21.6912C21.4711 21.5705 21.5227 21.4675 21.2558 21.2463C21.1589 21.1661 21.106 21.0319 21.1382 20.948C21.1705 20.8642 21.1856 20.7937 21.172 20.7913C20.8021 20.7276 20.3172 20.7078 20.2129 20.7522ZM30.8363 20.8449C30.8053 20.9429 30.7558 21.1004 30.7262 21.1948C30.6966 21.2891 30.7193 21.4897 30.7767 21.6402C30.8615 21.8628 30.8343 21.9467 30.631 22.0883C30.3893 22.2568 30.3973 22.2628 30.8684 22.2686C31.2951 22.2738 31.3702 22.2364 31.4723 21.9683C31.5365 21.7999 31.5737 21.4543 31.555 21.2004C31.5249 20.791 31.4854 20.7346 31.2068 20.7026C30.9986 20.6788 30.8737 20.7267 30.8363 20.8449ZM14.8485 22.4667C14.9582 22.4954 15.1378 22.4954 15.2475 22.4667C15.3572 22.4381 15.2675 22.4147 15.048 22.4147C14.8286 22.4147 14.7388 22.4381 14.8485 22.4667ZM19.5795 22.4636C19.6579 22.4952 19.7862 22.4952 19.8645 22.4636C19.9429 22.4321 19.8787 22.4063 19.722 22.4063C19.5652 22.4063 19.5012 22.4321 19.5795 22.4636ZM21.9774 22.4723C22.3085 22.4954 22.8215 22.4951 23.1174 22.4718C23.4131 22.4484 23.142 22.4296 22.515 22.4298C21.888 22.4302 21.6461 22.4493 21.9774 22.4723ZM23.7975 22.4636C23.8759 22.4952 24.0042 22.4952 24.0825 22.4636C24.1609 22.4321 24.0967 22.4063 23.94 22.4063C23.7832 22.4063 23.7192 22.4321 23.7975 22.4636ZM24.4111 22.4412C24.5092 22.5392 26.2119 22.5811 26.1519 22.4841C26.1192 22.4314 25.7023 22.3883 25.2252 22.3883C24.7483 22.3883 24.3819 22.4121 24.4111 22.4412ZM9.27948 22.9287C9.28974 23.2077 9.33899 23.2454 9.73355 23.2777C10.2717 23.3218 10.4435 23.1857 10.2665 22.8555C10.1703 22.676 10.0287 22.6158 9.703 22.6158C9.30161 22.6158 9.26888 22.6401 9.27948 22.9287ZM30.5836 22.9453L30.3302 23.1593L30.6121 23.2131C31.0688 23.3003 31.4797 23.1802 31.4402 22.9712C31.3901 22.7081 30.8826 22.6927 30.5836 22.9453ZM19.8708 22.9228C19.7227 22.9516 19.6439 23.032 19.6778 23.1199C19.7666 23.3509 19.3654 23.4133 17.3034 23.4898C16.2554 23.5286 15.4207 23.5973 15.4486 23.6424C15.4766 23.6875 16.6931 23.7659 18.1522 23.8165C20.0608 23.8828 20.6338 23.9317 20.1948 23.9907C19.859 24.0359 19.5282 24.1289 19.4595 24.1975C19.3906 24.2662 19.162 24.3223 18.9515 24.3223C18.7409 24.3223 18.5962 24.367 18.63 24.4215C18.6938 24.5246 18.0731 24.6602 17.5275 24.6624C17.3254 24.6632 17.214 24.7243 17.214 24.8343C17.214 24.9683 17.3715 25.0049 17.9483 25.0049C18.3522 25.0049 18.7142 25.0561 18.753 25.1187C18.7985 25.1921 18.2647 25.2397 17.2492 25.2529L15.675 25.2734L17.784 25.3521C18.944 25.3955 21.3037 25.4263 23.028 25.4206L26.163 25.4103L23.826 25.3462C21.6182 25.2857 21.4595 25.2623 22.686 25.1773C22.9682 25.1577 23.3272 25.0887 23.484 25.0237C23.761 24.9089 23.7618 24.9054 23.5125 24.8983C23.3715 24.8945 23.1585 24.7939 23.0395 24.6751C22.8276 24.4636 21.7691 24.0437 21.204 23.947C21.0472 23.9202 21.3807 23.8888 21.945 23.8772C25.2656 23.8087 26.106 23.7367 26.106 23.5204C26.106 23.4683 25.295 23.4558 24.3038 23.4925C22.2058 23.5705 21.6101 23.5012 21.6919 23.1889C21.7336 23.0295 21.6656 22.964 21.4041 22.9117C21.0365 22.8384 20.2783 22.8438 19.8708 22.9228ZM13.224 23.041C13.3808 23.0701 13.5467 23.1527 13.5928 23.2246C13.6466 23.3086 13.6771 23.2841 13.6783 23.1562C13.6795 23.004 13.5929 22.9608 13.3095 22.9726C12.9958 22.9857 12.9827 22.9963 13.224 23.041ZM1.61412 23.6848C0.119584 23.8337 0 23.9172 0 24.8113C0 25.2988 0.025537 25.3602 0.199501 25.2899C0.309169 25.2455 0.540023 25.1583 0.712391 25.0959C0.884759 25.0337 0.99716 24.9366 0.962162 24.8801C0.89171 24.7664 1.0276 24.7419 1.539 24.7761C1.91999 24.8017 1.84783 24.6418 1.45111 24.5813C1.31191 24.5601 1.12267 24.4676 1.03056 24.3757C0.707712 24.0535 1.10991 23.8618 2.26564 23.7871C2.84214 23.7499 3.34066 23.6758 3.3736 23.6227C3.4436 23.5097 3.32971 23.5137 1.61412 23.6848ZM26.7045 23.9495C26.2801 24.0021 26.1877 24.3148 26.5905 24.3355C26.7835 24.3454 26.7976 24.3616 26.6475 24.4007C26.349 24.4785 26.4067 24.6292 26.7615 24.698C26.9453 24.7336 27.2637 24.6725 27.531 24.5502C27.8892 24.3863 27.9319 24.3394 27.7305 24.3319C27.5011 24.3234 27.4199 24.2092 27.4606 23.9526C27.4741 23.8665 27.3785 23.8661 26.7045 23.9495ZM16.1581 24.5115C16.1276 24.5639 16.1419 24.7091 16.1901 24.8343C16.2724 25.0485 16.2825 25.0496 16.3619 24.8551C16.4469 24.6468 16.2616 24.3343 16.1581 24.5115ZM39.1656 24.5392C39.1305 24.5958 38.9992 24.6155 38.8739 24.5827C38.7486 24.5501 38.646 24.5744 38.646 24.6369C38.646 24.6993 38.8845 24.8103 39.1759 24.8835C39.7812 25.0356 39.7263 25.1948 39.045 25.2626C38.6794 25.299 38.7134 25.3095 39.216 25.3157C39.5608 25.3201 39.9652 25.2893 40.1144 25.2476L40.386 25.1717L40.0759 24.8039C39.7753 24.4475 39.3069 24.3112 39.1656 24.5392ZM25.65 24.8693C25.65 24.9273 25.4319 24.9602 25.1655 24.9424C24.8991 24.9246 24.7454 24.9358 24.8242 24.9672C24.903 24.9987 24.9464 25.0584 24.9206 25.0999C24.8949 25.1416 25.0997 25.1576 25.3758 25.1356C25.8582 25.0973 26.0053 24.9831 25.764 24.8343C25.7013 24.7956 25.65 24.8114 25.65 24.8693ZM27.0907 24.948C27.0508 25.052 27.0906 25.1187 27.1925 25.1187C27.2846 25.1187 27.36 25.0419 27.36 24.948C27.36 24.8542 27.3142 24.7774 27.2582 24.7774C27.2022 24.7774 27.1269 24.8542 27.0907 24.948ZM19.2351 25.1874C19.1973 25.2252 19.0989 25.2293 19.0167 25.1964C18.9257 25.1601 18.9527 25.1331 19.0855 25.1277C19.2057 25.1228 19.273 25.1496 19.2351 25.1874ZM0.513 25.3462C0.55176 25.4088 0.654361 25.46 0.741001 25.46C0.827641 25.46 0.930242 25.4088 0.969002 25.3462C1.00913 25.2815 0.910975 25.2325 0.741001 25.2325C0.571027 25.2325 0.472872 25.2815 0.513 25.3462ZM1.44073 25.4031C1.53558 25.6496 2.56135 25.6757 2.793 25.4375C2.87109 25.3573 2.70055 25.3449 2.2515 25.3983C1.81249 25.4505 1.596 25.4361 1.596 25.3544C1.596 25.2873 1.5463 25.2325 1.48553 25.2325C1.42489 25.2325 1.40471 25.3092 1.44073 25.4031ZM6.9825 25.3108C7.09217 25.3395 7.27183 25.3395 7.3815 25.3108C7.49116 25.2823 7.40145 25.2588 7.182 25.2588C6.96255 25.2588 6.87283 25.2823 6.9825 25.3108ZM0 25.6708C0 25.7426 0.115482 25.8029 0.2565 25.8047C0.485526 25.8079 0.491681 25.8206 0.313499 25.9241C0.157091 26.015 0.114002 26.194 0.114002 26.752C0.114002 27.4224 0.132242 27.4711 0.427502 27.5887C0.739748 27.713 0.73952 27.7133 0.370502 27.6533L0 27.5931V28.233V28.873L0.883499 28.8658C1.52885 28.8604 1.6978 28.8307 1.5105 28.7557C1.36948 28.699 1.254 28.6318 1.254 28.6062C1.254 28.5212 2.33472 28.6734 2.46605 28.7769C2.6171 28.8958 3.29802 28.8641 3.37839 28.7343C3.40872 28.6855 3.33199 28.6454 3.20807 28.6454C2.84225 28.6454 2.63203 28.5243 2.69838 28.3516C2.73292 28.2619 2.69177 28.1888 2.6057 28.1867C2.50162 28.1843 2.52088 28.1303 2.66452 28.0218C2.86664 27.8691 2.86049 27.8566 2.55052 27.7883C2.3704 27.7487 2.166 27.6993 2.09646 27.6785C1.92968 27.6289 1.82366 26.6544 1.94062 26.2471C2.00321 26.0293 1.98645 25.8887 1.88807 25.8072C1.67193 25.6281 0 25.5073 0 25.6708ZM32.459 25.7697C32.6613 25.7948 33.0204 25.7951 33.257 25.7706C33.4934 25.7459 33.3279 25.7254 32.889 25.7248C32.4501 25.7244 32.2565 25.7445 32.459 25.7697ZM19.2023 25.9756C19.3726 26.104 19.7406 26.1377 20.7983 26.1214C22.1723 26.1001 22.1725 26.1001 21.204 26.0335C20.4901 25.9844 20.34 25.9499 20.634 25.9023C20.8695 25.8642 20.6125 25.8318 20.007 25.8231C19.0821 25.8099 19.0028 25.8249 19.2023 25.9756ZM34.542 25.8293C34.5733 25.8609 35.1889 25.9236 35.91 25.9685C36.631 26.0136 37.1915 26.0204 37.1554 25.9836C37.1194 25.947 36.5038 25.8843 35.7874 25.8444C35.0711 25.8045 34.5106 25.7976 34.542 25.8293ZM39.6435 26.2229C39.7845 26.25 40.0155 26.25 40.1565 26.2229C40.2975 26.1957 40.1821 26.1735 39.9 26.1735C39.6178 26.1735 39.5025 26.1957 39.6435 26.2229ZM21.603 26.4839C21.5139 26.6279 21.6648 26.6279 21.888 26.4839C22.0354 26.3889 22.0323 26.3734 21.8662 26.3718C21.7602 26.3709 21.6418 26.4213 21.603 26.4839ZM1.81602 27.3723C1.80884 27.6456 1.79744 27.6541 1.71 27.4509C1.57388 27.1348 1.57388 26.9119 1.71 26.9958C1.7727 27.0345 1.82035 27.2039 1.81602 27.3723ZM38.8816 28.1243C38.7755 28.2519 38.7903 28.3098 38.9522 28.4001C39.2304 28.5555 39.077 28.6765 38.5612 28.7087C37.837 28.754 37.8713 28.776 38.9174 28.9384C39.9687 29.1015 40.128 29.0846 40.128 28.8094C40.128 28.7191 40.1856 28.6454 40.2559 28.6454C40.3479 28.6454 40.3464 28.6003 40.2504 28.4849C40.1497 28.3637 40.1492 28.3045 40.2486 28.2431C40.472 28.1054 40.1205 27.9665 39.5434 27.9645C39.2251 27.9635 38.9627 28.0269 38.8816 28.1243ZM20.033 28.8413C20.2353 28.8665 20.5944 28.8668 20.831 28.8422C21.0674 28.8176 20.9019 28.7971 20.463 28.7965C20.0241 28.796 19.8305 28.8162 20.033 28.8413ZM6.03961 32.3456C5.89289 32.5221 5.86712 34.6054 5.84136 48.3872C5.81309 63.4483 5.82164 64.2383 6.01521 64.4768C6.19852 64.7028 6.42915 64.7488 8.32486 64.9388C12.3519 65.3423 14.0014 65.4161 20.2917 65.4737C26.6496 65.532 30.1561 65.4373 33.7871 65.1095C35.0457 64.9958 35.5308 64.9087 35.6681 64.7718C35.8368 64.6033 35.8535 63.1984 35.8579 48.7097C35.8612 37.6671 35.8256 32.7579 35.7409 32.5884L35.6192 32.3446L24.108 32.3304C17.777 32.3226 11.1596 32.2772 9.40261 32.2296C6.41638 32.1486 6.19727 32.1561 6.03961 32.3456ZM21.774 34.7364L34.143 34.774L34.172 48.8736L34.2009 62.9732L33.431 63.0452C29.8837 63.3769 21.5267 63.5303 16.5051 63.3557C12.9776 63.233 8.77743 62.9753 7.8375 62.8239L7.41 62.7551V48.734C7.41 41.0224 7.44842 34.673 7.4955 34.6241C7.54258 34.5753 7.9914 34.5722 8.493 34.6171C8.9946 34.662 14.971 34.7157 21.774 34.7364ZM7.61657 35.8803C7.64267 36.5001 7.67915 37.0237 7.69739 37.0439C7.76055 37.1137 14.5415 37.2838 17.4135 37.2877L20.292 37.2916V38.3889V39.486L16.6155 39.4119C14.5935 39.3711 11.7334 39.3056 10.26 39.2662L7.581 39.1949V50.8993V62.6039L8.265 62.6855C13.266 63.2817 26.3064 63.3985 32.998 62.907L34.0189 62.832L34.024 48.8673L34.029 34.9026L23.598 34.9023C17.8609 34.9022 11.9074 34.8686 10.368 34.8278L7.56891 34.7535L7.61657 35.8803ZM21.1806 38.3832C21.1371 39.5472 20.9213 39.5143 20.9122 38.3421C20.9047 37.3951 20.9419 37.2121 21.108 37.3778C21.1664 37.4361 21.1991 37.8885 21.1806 38.3832ZM24.5123 37.465C24.7112 37.7041 24.5823 37.7937 24.2959 37.6152C24.1091 37.4988 24.0304 37.4972 23.9196 37.6078C23.8088 37.7183 23.8821 37.852 24.2704 38.2468C24.6555 38.6384 24.7443 38.799 24.6827 38.9927C24.5589 39.3821 24.1243 39.5253 23.77 39.2937C23.6087 39.1882 23.5091 39.0496 23.5486 38.9857C23.5936 38.9132 23.7006 38.9418 23.8331 39.0613C23.9499 39.1669 24.1243 39.223 24.2208 39.1861C24.5129 39.0742 24.4186 38.7138 23.997 38.331C23.5571 37.9315 23.5079 37.7391 23.7771 37.4703C24.0043 37.2437 24.3262 37.2413 24.5123 37.465ZM25.992 37.4717C25.992 37.5604 25.8894 37.6329 25.764 37.6329C25.5563 37.6329 25.536 37.7088 25.536 38.4861C25.536 38.9791 25.4879 39.3394 25.422 39.3394C25.3554 39.3394 25.308 38.9579 25.308 38.4226C25.308 37.8403 25.2664 37.5314 25.194 37.576C25.1313 37.6147 25.0279 37.6141 24.9642 37.5749C24.7358 37.434 24.9767 37.3106 25.4799 37.3106C25.8457 37.3106 25.992 37.3566 25.992 37.4717ZM28.4567 38.3554C28.4242 38.8653 28.395 39.3004 28.3918 39.3222C28.3886 39.3439 28.1167 39.0436 27.7875 38.6545L27.189 37.9474L27.155 38.6434C27.1037 39.6954 26.904 39.4798 26.904 38.3724C26.904 37.8405 26.9424 37.4078 26.9895 37.4107C27.0366 37.4137 27.2988 37.6953 27.5724 38.0364C27.8459 38.3776 28.1151 38.6568 28.1709 38.6568C28.2265 38.6568 28.272 38.3466 28.272 37.9675C28.272 37.5074 28.3125 37.3032 28.3939 37.3533C28.4723 37.4017 28.4946 37.7586 28.4567 38.3554ZM30.3875 37.4529C30.5091 37.5417 30.5694 37.6535 30.5214 37.7014C30.4734 37.7492 30.3735 37.7278 30.2993 37.6537C30.09 37.4449 29.5503 37.4949 29.298 37.7467C29.0193 38.0248 28.9991 38.6175 29.2587 38.9038C29.472 39.139 30.0933 39.1829 30.2993 38.9773C30.3735 38.9032 30.4734 38.8818 30.5214 38.9296C30.672 39.0799 30.1848 39.3394 29.7521 39.3394C28.8759 39.3394 28.4755 38.2158 29.1219 37.5709C29.4419 37.2514 30.0356 37.1962 30.3875 37.4529ZM31.806 37.4054C31.806 37.4679 31.735 37.5191 31.6481 37.5191C31.4787 37.5191 31.2736 38.669 31.4052 38.8815C31.4443 38.9446 31.4239 39.0863 31.3597 39.1963C31.2732 39.3445 31.242 39.1536 31.2394 38.4577C31.2362 37.5962 31.2173 37.5191 31.008 37.5191C30.8826 37.5191 30.78 37.4679 30.78 37.4054C30.78 37.3428 31.0108 37.2916 31.293 37.2916C31.5751 37.2916 31.806 37.3428 31.806 37.4054ZM22.3687 38.1138L23.0204 38.8274L23.0242 38.1164C23.0263 37.7207 23.0786 37.4054 23.142 37.4054C23.209 37.4054 23.256 37.8036 23.256 38.3724C23.256 38.9042 23.2347 39.3394 23.2087 39.3394C23.1826 39.3394 22.8758 39.0451 22.527 38.6852L21.8926 38.0311L21.8903 38.6852C21.8886 39.1898 21.8489 39.3394 21.717 39.3394C21.5784 39.3394 21.546 39.1561 21.546 38.3724C21.546 37.8405 21.5844 37.4042 21.6315 37.4028C21.6786 37.4013 22.0103 37.7213 22.3687 38.1138ZM26.448 38.3724C26.448 38.9412 26.401 39.3394 26.334 39.3394C26.267 39.3394 26.22 38.9412 26.22 38.3724C26.22 37.8036 26.267 37.4054 26.334 37.4054C26.401 37.4054 26.448 37.8036 26.448 38.3724ZM11.2544 37.8162C11.1291 37.9412 11.156 38.6568 11.286 38.6568C11.3487 38.6568 11.4 38.543 11.4 38.4039V38.1511L11.5775 38.4039C11.838 38.7751 11.9721 38.7133 11.9545 38.2302C11.9449 37.9661 11.9202 37.9011 11.8895 38.0595C11.8438 38.2963 11.628 38.4317 11.628 38.2235C11.628 38.0509 11.337 37.7337 11.2544 37.8162ZM12.6652 38.2187C12.5963 38.4157 12.54 38.5901 12.54 38.6063C12.54 38.6223 12.6428 38.6087 12.7686 38.5758C12.8943 38.543 13.0739 38.5797 13.1676 38.6573C13.3806 38.8338 13.3804 38.7859 13.1655 38.2725C12.9536 37.7664 12.8279 37.7528 12.6652 38.2187ZM13.8222 38.0026C13.9243 38.0809 14.029 38.2984 14.0548 38.4861C14.0979 38.7987 14.1033 38.7923 14.1189 38.4103C14.1284 38.1809 14.2002 37.9674 14.2785 37.9357C14.3569 37.9042 14.2444 37.8743 14.0287 37.8694C13.6927 37.8617 13.663 37.8808 13.8222 38.0026ZM14.934 38.2621C14.934 38.7031 15.1751 38.8891 15.491 38.6918C15.6991 38.5619 15.8123 37.8604 15.6252 37.8604C15.5586 37.8604 15.504 38.0396 15.504 38.2586C15.504 38.5367 15.4525 38.6568 15.333 38.6568C15.1612 38.6568 15.136 38.5889 15.1326 38.1164C15.1316 37.9756 15.0864 37.8604 15.0324 37.8604C14.9782 37.8604 14.934 38.0412 14.934 38.2621ZM16.302 38.308C16.302 38.7435 16.5259 38.9982 16.5336 38.5715C16.5371 38.3818 16.5445 38.3818 16.6887 38.5715C16.902 38.8519 16.929 38.8263 16.929 38.3439C16.929 37.9631 16.8954 37.9135 16.6155 37.8814C16.319 37.8472 16.302 37.8703 16.302 38.308ZM17.898 37.9034C17.898 37.9271 17.8253 38.1202 17.7363 38.3327L17.5746 38.7188H18.012H18.4494L18.2877 38.3327C18.1987 38.1202 18.126 37.9271 18.126 37.9034C18.126 37.8798 18.0747 37.8604 18.012 37.8604C17.9493 37.8604 17.898 37.8798 17.898 37.9034ZM19.038 38.3155C19.038 38.7393 19.0595 38.7697 19.3515 38.7574C19.5444 38.7493 19.5883 38.7241 19.4655 38.6922C19.3245 38.6553 19.266 38.5259 19.266 38.2503C19.266 38.0359 19.2147 37.8604 19.152 37.8604C19.0893 37.8604 19.038 38.0652 19.038 38.3155ZM16.7751 38.1449C16.7751 38.2042 16.7199 38.2712 16.6526 38.2937C16.5852 38.3161 16.53 38.2492 16.53 38.1449C16.53 38.0405 16.5852 37.9736 16.6526 37.996C16.7199 38.0185 16.7751 38.0855 16.7751 38.1449ZM12.996 38.3155C12.996 38.3781 12.9447 38.4293 12.882 38.4293C12.8193 38.4293 12.768 38.3781 12.768 38.3155C12.768 38.2529 12.8193 38.2017 12.882 38.2017C12.9447 38.2017 12.996 38.2529 12.996 38.3155ZM18.126 38.3155C18.126 38.3781 18.0747 38.4293 18.012 38.4293C17.9493 38.4293 17.898 38.3781 17.898 38.3155C17.898 38.2529 17.9493 38.2017 18.012 38.2017C18.0747 38.2017 18.126 38.2529 18.126 38.3155ZM16.2711 45.338C16.8885 45.656 17.214 46.1867 17.214 46.8757C17.214 48.2182 16.3905 48.6701 14.1075 48.5802C13.4583 48.5546 13.2403 48.4087 13.68 48.2939C13.8927 48.2384 13.908 48.1387 13.908 46.8094C13.908 45.4842 13.892 45.3792 13.68 45.3121C13.5546 45.2724 13.452 45.1848 13.452 45.1174C13.452 44.8989 15.7708 45.0803 16.2711 45.338ZM20.634 45.5965C20.634 45.8468 20.5867 46.0516 20.5288 46.0516C20.4709 46.0516 20.2665 45.8948 20.0746 45.7033C19.7878 45.4171 19.649 45.3613 19.2963 45.3905C18.8688 45.4257 18.8669 45.4282 18.8317 45.9822C18.8122 46.2881 18.8468 46.5889 18.9087 46.6507C19.0902 46.8318 19.6049 46.6378 19.7425 46.3364C19.8123 46.1836 19.9132 46.0857 19.9666 46.1187C20.0863 46.1925 20.0976 47.6445 19.9785 47.6436C19.9314 47.6431 19.8056 47.4896 19.6989 47.3023C19.5497 47.041 19.4238 46.9617 19.1574 46.9617C18.8139 46.9617 18.81 46.9685 18.81 47.5646C18.81 48.2672 18.9402 48.4406 19.4673 48.4406C19.9762 48.4406 20.2513 48.2803 20.4716 47.8553C20.7127 47.39 20.8932 47.5796 20.7947 48.1947L20.7188 48.6682H19.0804C17.5992 48.6682 17.0561 48.5678 17.67 48.4077C17.8828 48.3521 17.898 48.2525 17.898 46.9048C17.898 45.5571 17.8828 45.4575 17.67 45.402C17.0607 45.2429 17.5935 45.1414 19.038 45.1414H20.634V45.5965ZM24.282 45.5965C24.282 45.8468 24.2513 46.0516 24.2137 46.0516C24.1762 46.0516 24.0017 45.898 23.826 45.7103C23.5716 45.4384 23.4115 45.369 23.0393 45.369H22.572V46.0516C22.572 46.6984 22.5865 46.7342 22.8489 46.7342C23.1246 46.7342 23.484 46.472 23.484 46.271C23.484 46.2129 23.5353 46.1653 23.598 46.1653C23.6631 46.1653 23.7104 46.4947 23.7084 46.9332C23.705 47.6305 23.6898 47.6802 23.5412 47.4736C23.2226 47.0301 23.1298 46.9617 22.8471 46.9617C22.5687 46.9617 22.562 46.9805 22.595 47.6727L22.629 48.3838L23.0152 48.4206C23.6237 48.4785 23.8847 48.3627 24.1175 47.9314C24.2365 47.7109 24.3734 47.5305 24.4219 47.5305C24.4703 47.5305 24.51 47.7865 24.51 48.0993V48.6682H22.8C21.736 48.6682 21.09 48.6252 21.09 48.5544C21.09 48.4918 21.1871 48.4406 21.3058 48.4406C21.6143 48.4406 21.66 48.2337 21.66 46.8362C21.66 45.619 21.6537 45.5888 21.375 45.462C21.2182 45.3908 21.09 45.2894 21.09 45.2369C21.09 45.1844 21.8082 45.1414 22.686 45.1414H24.282V45.5965ZM27.624 45.2723C27.9637 45.4507 28.0402 45.5897 28.0423 46.0319C28.0448 46.5957 27.5622 47.0263 26.8126 47.1293L26.22 47.2106V47.761C26.22 48.2116 26.2614 48.3246 26.448 48.3838C26.9408 48.5398 26.6322 48.6682 25.764 48.6682C24.9058 48.6682 24.5708 48.5405 25.08 48.4077C25.2927 48.3521 25.308 48.2525 25.308 46.9231C25.308 45.598 25.292 45.493 25.08 45.4259C24.9546 45.3861 24.852 45.3059 24.852 45.2476C24.852 45.093 27.3245 45.1149 27.624 45.2723ZM14.8451 46.8181C14.8737 48.1174 14.8985 48.2714 15.0855 48.3071C15.7792 48.4398 16.188 47.9198 16.188 46.9048C16.188 45.9103 15.8078 45.369 15.1091 45.369H14.8132L14.8451 46.8181ZM26.22 46.1084C26.22 46.772 26.2434 46.8479 26.448 46.8479C26.764 46.8479 27.132 46.4501 27.132 46.1084C27.132 45.7668 26.764 45.369 26.448 45.369C26.2434 45.369 26.22 45.4449 26.22 46.1084ZM14.82 50.2514C14.82 50.3088 14.7559 50.3772 14.6775 50.4036C14.5283 50.4535 14.6119 50.7703 15.0416 51.7825L15.2288 52.2234L15.5544 51.3953C15.8523 50.6375 15.864 50.5554 15.692 50.4298C15.3954 50.2135 15.4671 50.1471 15.998 50.1471C16.6244 50.1471 16.6968 50.2239 16.3573 50.5286C16.2075 50.6629 15.8858 51.2592 15.6423 51.8536C15.0279 53.3535 14.8959 53.351 14.322 51.8287C14.0796 51.1854 13.7756 50.5438 13.6467 50.4031L13.4122 50.1471H14.1162C14.5033 50.1471 14.82 50.1941 14.82 50.2514ZM18.8716 50.3276C20.2376 50.9744 19.7153 53.105 18.1906 53.105C17.7874 53.105 17.2048 52.8487 16.944 52.5566C16.6309 52.2057 16.5628 51.3391 16.8121 50.877C17.1747 50.2053 18.0949 49.9598 18.8716 50.3276ZM23.8521 50.2197C24.2268 50.2816 24.2859 50.3363 24.3509 50.6821C24.4619 51.2728 24.2553 51.3608 23.9318 50.8604C23.4187 50.0668 22.7161 50.3149 22.6014 51.3303C22.4956 52.2678 22.772 52.7637 23.4004 52.7637C23.6315 52.7637 23.8687 52.6565 24.0762 52.458C24.3175 52.2274 24.396 52.1971 24.396 52.3342C24.396 52.665 23.7371 53.105 23.2416 53.105C22.3166 53.105 21.774 52.5449 21.774 51.5902C21.774 51.0053 22.0784 50.5438 22.6193 50.3088C23.0172 50.136 23.2445 50.1195 23.8521 50.2197ZM27.2262 50.4097C27.2477 50.5229 27.2321 50.7017 27.1916 50.8072C27.1268 50.9756 27.0936 50.9668 26.9178 50.7343C26.7843 50.5576 26.5878 50.4633 26.3264 50.4505C25.9439 50.432 25.9342 50.4426 25.9 50.915C25.8668 51.3711 25.8821 51.3985 26.1671 51.3985C26.3734 51.3985 26.4882 51.3264 26.5289 51.171C26.6404 50.7458 26.79 50.9413 26.79 51.5123C26.79 52.1218 26.7019 52.2171 26.4744 51.8536C26.3961 51.7285 26.2299 51.6261 26.1051 51.6261C25.9086 51.6261 25.878 51.7028 25.878 52.1949V52.7637L26.3055 52.7648C26.6492 52.7656 26.7939 52.6931 27.0434 52.395L27.3538 52.0243L27.3569 52.5078L27.36 52.9913H26.0272C24.8701 52.9913 24.7226 52.9707 24.9082 52.8353C25.0836 52.7072 25.1296 52.4942 25.1644 51.6481C25.2045 50.6691 25.1933 50.6094 24.9438 50.4674C24.7055 50.3318 24.766 50.3115 25.593 50.2509C26.9564 50.1508 27.1811 50.1726 27.2262 50.4097ZM21.489 50.3747C21.4502 50.4372 21.3447 50.4884 21.2543 50.4884C21.1221 50.4884 21.09 50.7119 21.09 51.6297C21.09 52.707 21.1044 52.7768 21.3465 52.874C21.5343 52.9493 21.3736 52.9778 20.748 52.9806C20.114 52.9834 19.9446 52.9544 20.0925 52.8684C20.2613 52.7702 20.292 52.5785 20.292 51.6204C20.292 50.69 20.2616 50.4884 20.121 50.4884C20.0269 50.4884 19.95 50.4372 19.95 50.3747C19.95 50.3096 20.2943 50.2609 20.7547 50.2609C21.2621 50.2609 21.5335 50.3029 21.489 50.3747ZM17.7162 50.6141C17.3857 50.9785 17.4047 52.322 17.7451 52.6617C18.0696 52.9855 18.5424 52.8806 18.7099 52.4477C18.9014 51.9526 18.7828 50.7194 18.5255 50.5315C18.2223 50.3104 17.9681 50.3363 17.7162 50.6141ZM14.6965 57.9561C14.7226 57.9785 14.6072 57.997 14.44 57.997C14.0449 57.997 14.0502 58.1742 14.4495 58.3198L14.763 58.434L14.4495 58.443C13.994 58.4561 14.0278 58.7933 14.4847 58.7933C14.6765 58.7933 14.8079 58.8346 14.7767 58.885C14.7454 58.9355 14.5372 58.9555 14.314 58.9295C13.9202 58.8836 13.908 58.8677 13.908 58.4016C13.908 58.1373 13.9413 57.888 13.9819 57.8474C14.0498 57.7795 14.5862 57.8611 14.6965 57.9561ZM15.7735 58.3705C16.0204 59.0157 16.011 59.0594 15.672 58.8378C15.4024 58.6616 15.3698 58.6625 15.159 58.8528C15.0349 58.965 14.934 58.9982 14.934 58.927C14.934 58.6499 15.3085 57.8832 15.4439 57.8832C15.5226 57.8832 15.6709 58.1025 15.7735 58.3705ZM16.416 58.3382C16.416 58.7128 16.4551 58.7933 16.6372 58.7933C16.8103 58.7933 16.8658 58.7009 16.8937 58.3667C16.9133 58.1299 16.9797 57.9654 17.043 57.997C17.1584 58.0545 17.1648 58.5747 17.0536 58.8636C16.9793 59.0569 16.5111 59.0702 16.3248 58.8843C16.1598 58.7197 16.1408 57.8832 16.302 57.8832C16.3647 57.8832 16.416 58.088 16.416 58.3382ZM18.7707 58.1253C18.9609 58.283 18.9701 58.7018 18.7872 58.8843C18.712 58.9594 18.4811 59.0208 18.2742 59.0208H17.898V58.4378V57.8548L18.2577 57.9265C18.4555 57.966 18.6863 58.0554 18.7707 58.1253ZM19.9405 58.0702C19.9666 58.0925 19.8512 58.1107 19.684 58.1107C19.2641 58.1107 19.273 58.4462 19.6935 58.4691L20.007 58.4861L19.6935 58.5335C19.2962 58.5935 19.2723 58.9071 19.665 58.9071C19.8217 58.9071 19.95 58.9616 19.95 59.028C19.95 59.096 19.7877 59.1334 19.5795 59.1133C19.2184 59.0786 19.2081 59.0627 19.1746 58.4822L19.1401 57.8865L19.5166 57.9581C19.7236 57.9974 19.9144 58.0479 19.9405 58.0702ZM25.0326 58.0254C25.0795 58.0724 24.9555 58.1107 24.757 58.1107C24.5122 58.1107 24.396 58.1656 24.396 58.2814C24.396 58.3887 24.5044 58.452 24.6877 58.452C24.8531 58.452 24.949 58.5013 24.909 58.5658C24.8702 58.6284 24.739 58.6796 24.6173 58.6796C24.4699 58.6796 24.396 58.7578 24.396 58.9138C24.396 59.0426 24.3447 59.1164 24.282 59.0777C24.1683 59.0076 24.1186 58.0842 24.2228 57.9801C24.3082 57.8949 24.9372 57.9301 25.0326 58.0254ZM25.6855 58.7719C25.8839 58.7437 25.9423 58.6486 25.9706 58.3074C26.0091 57.841 26.22 57.831 26.22 58.2956C26.22 58.7602 26.0181 59.0208 25.6582 59.0208C25.307 59.0208 25.194 58.857 25.194 58.3479C25.194 57.8343 25.3621 57.8235 25.4004 58.3346C25.4313 58.7475 25.4674 58.8029 25.6855 58.7719ZM26.8159 58.1353L26.9837 58.3874L27.1188 58.1353C27.339 57.7247 27.474 57.8451 27.474 58.452C27.474 58.7649 27.4227 59.0208 27.36 59.0208C27.2973 59.0208 27.246 58.8826 27.246 58.7137C27.246 58.4782 27.2146 58.4378 27.1119 58.5403C27.014 58.638 26.9371 58.6404 26.8269 58.5492C26.7083 58.4509 26.676 58.4879 26.676 58.7225C26.676 59.232 26.4733 59.0497 26.4295 58.5008C26.3739 57.803 26.5094 57.6747 26.8159 58.1353ZM21.489 58.3382C21.489 58.5508 21.4208 58.6323 21.2193 58.6608C21.071 58.6817 20.924 58.7963 20.8929 58.9154C20.7946 59.2901 20.634 59.0294 20.634 58.4954V57.9832L21.0615 58.0186C21.4321 58.0492 21.489 58.0917 21.489 58.3382ZM22.6141 58.5148C22.8373 59.0563 22.8193 59.2612 22.5743 58.9667C22.3852 58.7393 22.0402 58.7454 21.9094 58.9785C21.8523 59.0805 21.7801 59.1189 21.7491 59.0639C21.6636 58.9125 22.1047 57.9968 22.2628 57.9974C22.3389 57.9976 22.4969 58.2304 22.6141 58.5148ZM23.8885 58.5818C23.8923 58.9524 23.8524 59.0939 23.7547 59.0566C23.6783 59.0272 23.5876 58.9304 23.5534 58.8414C23.4596 58.5975 23.256 58.6471 23.256 58.9138C23.256 59.0426 23.2047 59.1164 23.142 59.0777C23.0793 59.039 23.028 58.7769 23.028 58.4954V57.9832L23.4555 58.0186C23.8821 58.0537 23.883 58.055 23.8885 58.5818ZM18.126 58.452C18.126 58.7193 18.1763 58.7933 18.3575 58.7933C18.6446 58.7933 18.7693 58.5065 18.5807 58.2799C18.3445 57.9959 18.126 58.0786 18.126 58.452ZM20.9098 58.2394C20.8126 58.3963 21.0357 58.6127 21.1941 58.515C21.2623 58.473 21.318 58.3959 21.318 58.3437C21.318 58.1924 20.9907 58.1087 20.9098 58.2394ZM23.3344 58.1842C23.1857 58.3326 23.2567 58.452 23.4935 58.452C23.6262 58.452 23.7111 58.3924 23.6859 58.317C23.6304 58.1507 23.44 58.0788 23.3344 58.1842ZM15.399 58.4046C15.4045 58.5371 15.4315 58.5641 15.4679 58.4734C15.5008 58.3913 15.4967 58.2931 15.4589 58.2553C15.421 58.2175 15.3941 58.2847 15.399 58.4046ZM22.173 58.452C22.1342 58.5146 22.1569 58.5658 22.2233 58.5658C22.2896 58.5658 22.344 58.5146 22.344 58.452C22.344 58.3894 22.3214 58.3382 22.2937 58.3382C22.266 58.3382 22.2118 58.3894 22.173 58.452ZM13.9557 59.8532C14.2144 60.042 14.1492 60.4277 13.8498 60.4797C13.725 60.5013 13.5645 60.5937 13.4929 60.6848C13.3883 60.8182 13.3544 60.762 13.3195 60.3979C13.2958 60.1487 13.2944 59.8907 13.3167 59.8243C13.3723 59.6576 13.7085 59.6728 13.9557 59.8532ZM14.5136 60.0546C14.5807 60.3105 14.9796 60.3244 15.0053 60.0716C15.034 59.7882 15.0658 59.7648 15.146 59.9682C15.1912 60.0825 15.2062 60.3637 15.1793 60.5932C15.1361 60.9631 15.1198 60.9814 15.0359 60.7551C14.9123 60.4216 14.478 60.4054 14.478 60.734C14.478 60.8628 14.4267 60.9367 14.364 60.898C14.2234 60.8113 14.2112 59.8172 14.3507 59.8172C14.4061 59.8172 14.4794 59.924 14.5136 60.0546ZM16.302 59.931C16.302 59.9935 16.1738 60.0447 16.017 60.0447C15.8603 60.0447 15.732 60.0959 15.732 60.1585C15.732 60.2211 15.8346 60.2723 15.96 60.2723C16.0854 60.2723 16.188 60.3235 16.188 60.386C16.188 60.4486 16.0854 60.4998 15.96 60.4998C15.8346 60.4998 15.732 60.551 15.732 60.6136C15.732 60.6761 15.8603 60.7273 16.017 60.7273C16.1738 60.7273 16.302 60.7785 16.302 60.8411C16.302 60.9037 16.1224 60.9549 15.903 60.9549H15.504V60.386V59.8172H15.903C16.1224 59.8172 16.302 59.8684 16.302 59.931ZM17.3356 59.9971C17.456 60.1418 17.4575 60.2214 17.3431 60.4042C17.2335 60.5792 17.2318 60.6685 17.3354 60.7931C17.4137 60.8873 17.4223 60.9549 17.3559 60.9549C17.2932 60.9549 17.1781 60.8781 17.1 60.7842C17.0219 60.6904 16.913 60.6136 16.8581 60.6136C16.803 60.6136 16.758 60.6904 16.758 60.7842C16.758 60.8781 16.7067 60.9549 16.644 60.9549C16.5813 60.9549 16.53 60.6989 16.53 60.386C16.53 59.8352 16.5404 59.8172 16.8581 59.8172C17.0384 59.8172 17.2534 59.8982 17.3356 59.9971ZM18.5566 59.9943C19.1221 60.3896 18.625 61.209 17.9704 60.9607C17.573 60.8099 17.5154 60.2326 17.8706 59.9594C18.113 59.7731 18.25 59.78 18.5566 59.9943ZM21.5077 60.2231C21.6243 60.5263 21.4376 60.9492 21.1559 61.0197C20.7094 61.1315 20.3867 60.8864 20.4279 60.4664C20.4876 59.8554 21.2963 59.6732 21.5077 60.2231ZM23.8781 60.0526C23.8421 60.1108 23.6843 60.1585 23.5275 60.1585C23.1805 60.1585 23.2787 60.3809 23.6332 60.3981C23.8571 60.409 23.8505 60.423 23.5695 60.5338C23.1494 60.6995 23.1731 60.8411 23.6208 60.8411C23.8816 60.8411 23.9506 60.876 23.8627 60.9637C23.7951 61.0312 23.5924 61.0696 23.4124 61.0491C23.1097 61.0146 23.0824 60.9716 23.0506 60.479C23.0165 59.9518 23.02 59.9459 23.3926 59.9074C23.8299 59.8624 23.97 59.9042 23.8781 60.0526ZM25.764 60.4496C25.764 60.7276 25.7127 60.9549 25.65 60.9549C25.5873 60.9549 25.536 60.8189 25.536 60.6528C25.536 60.3627 25.5273 60.3586 25.3184 60.5474C25.1118 60.7339 25.0945 60.7334 24.9798 60.5365C24.8729 60.3532 24.8585 60.3645 24.8554 60.6353C24.8536 60.8037 24.8007 60.9731 24.738 61.0117C24.6678 61.0551 24.624 60.8612 24.624 60.5065C24.624 59.9022 24.7649 59.7725 25.0333 60.1301C25.1734 60.3167 25.1942 60.313 25.3672 60.0712C25.6217 59.7154 25.764 59.8511 25.764 60.4496ZM26.786 60.3468C26.9152 60.638 26.9874 60.9067 26.9468 60.9441C26.9061 60.9813 26.8498 60.9478 26.8219 60.8695C26.7613 60.7001 26.2635 60.6788 26.163 60.8411C26.1242 60.9037 26.0471 60.9549 25.9915 60.9549C25.936 60.9549 25.9972 60.6989 26.1275 60.386C26.2578 60.0732 26.4065 59.8172 26.4579 59.8172C26.5092 59.8172 26.657 60.0555 26.786 60.3468ZM27.6651 60.1301L27.9218 60.4429L27.9259 60.1301C27.9282 59.9579 27.9813 59.8172 28.044 59.8172C28.1067 59.8172 28.158 60.0732 28.158 60.386C28.158 60.6989 28.1214 60.9549 28.0768 60.9549C28.0321 60.9549 27.8801 60.8141 27.7389 60.642C27.4935 60.3428 27.482 60.3401 27.4781 60.5784C27.4708 61.0238 27.2711 60.9664 27.2271 60.5062C27.1537 59.738 27.265 59.6425 27.6651 60.1301ZM13.452 60.0933C13.452 60.1988 13.5495 60.2723 13.6895 60.2723C13.9673 60.2723 13.9281 60.0064 13.642 59.9511C13.5295 59.9293 13.452 59.9873 13.452 60.0933ZM19.4099 60.1286C19.6176 60.3162 19.6359 60.3162 19.7734 60.1286C20.0248 59.7854 20.178 59.9018 20.178 60.4362C20.178 60.7141 20.1267 60.9731 20.064 61.0117C19.9971 61.053 19.95 60.9312 19.95 60.7164C19.95 60.3637 19.9422 60.3577 19.7324 60.5474C19.5258 60.7339 19.5085 60.7334 19.3938 60.5365C19.2869 60.3532 19.2725 60.3645 19.2694 60.6353C19.2676 60.8037 19.2147 60.9731 19.152 61.0117C19.0818 61.0551 19.038 60.8612 19.038 60.5065C19.038 59.8777 19.0823 59.8328 19.4099 60.1286ZM22.2888 60.2438L22.5648 60.5567L22.5684 60.2438C22.5704 60.0717 22.6233 59.931 22.686 59.931C22.7487 59.931 22.8 60.1869 22.8 60.4998C22.8 60.8127 22.7652 61.0686 22.7228 61.0686C22.6803 61.0686 22.5029 60.9023 22.3284 60.6989L22.0112 60.3292L22.0067 60.7056C22.0039 60.9267 21.9549 61.053 21.888 61.0117C21.7359 60.918 21.7409 59.931 21.8935 59.931C21.9591 59.931 22.1371 60.0717 22.2888 60.2438ZM16.758 60.2154C16.758 60.3326 16.8327 60.3883 16.9575 60.3644C17.1978 60.3182 17.1826 60.1163 16.935 60.0649C16.8318 60.0434 16.758 60.1061 16.758 60.2154ZM17.9779 60.1166C17.8256 60.2687 17.8989 60.7033 18.0893 60.7763C18.3737 60.8851 18.6695 60.55 18.5109 60.2986C18.375 60.0832 18.1041 59.9907 17.9779 60.1166ZM20.8117 60.1964C20.52 60.4094 20.6257 60.7842 20.9776 60.7842C21.1781 60.7842 21.2709 60.7147 21.295 60.5467C21.3439 60.205 21.071 60.0072 20.8117 60.1964ZM26.334 60.386C26.334 60.4486 26.3853 60.4998 26.448 60.4998C26.5107 60.4998 26.562 60.4486 26.562 60.386C26.562 60.3235 26.5107 60.2723 26.448 60.2723C26.3853 60.2723 26.334 60.3235 26.334 60.386ZM0.228001 66.7569C0.228001 66.8195 0.28238 66.8707 0.348728 66.8707C0.415076 66.8707 0.437762 66.8195 0.399002 66.7569C0.360242 66.6943 0.305973 66.6431 0.278271 66.6431C0.250569 66.6431 0.228001 66.6943 0.228001 66.7569ZM0.0793419 67.9007C-0.0913161 68.5519 0.252395 69.2007 0.963413 69.5698C1.14844 69.6658 1.37017 69.8145 1.45612 69.9003C1.54197 69.9859 1.66224 70.0561 1.72334 70.0561C1.78444 70.0561 1.70065 69.9227 1.53729 69.7596C1.19403 69.4171 1.2149 69.3626 1.69438 69.3491C1.8867 69.3436 2.01723 69.2957 1.9844 69.2426C1.95145 69.1894 1.98258 69.146 2.05337 69.146C2.13055 69.146 2.11356 69.0774 2.0113 68.9753C1.91725 68.8815 1.78878 68.8047 1.72596 68.8047C1.66304 68.8047 1.50115 68.65 1.36618 68.4608C1.16839 68.1836 0.402194 67.667 0.188786 67.667C0.162338 67.667 0.113086 67.7722 0.0793419 67.9007ZM0.160175 75.6199C0.187307 76.0615 0.26972 76.371 0.392612 76.4938C0.497378 76.5983 0.55609 76.7541 0.523144 76.8398C0.452692 77.0231 0.636007 77.0516 0.745789 76.8743C0.787171 76.8074 0.891136 76.7797 0.976864 76.8124C1.25172 76.9177 1.29892 76.6247 1.04082 76.4161C0.822625 76.2398 0.813961 76.2018 0.971737 76.1138C1.12267 76.0295 1.06761 75.9251 0.635094 75.4745L0.118107 74.9361L0.160175 75.6199ZM0.373123 77.6759C0.382699 77.8024 0.430924 77.9059 0.480286 77.9059C0.60637 77.9059 0.592456 77.5919 0.462952 77.512C0.404014 77.4757 0.363661 77.5494 0.373123 77.6759ZM19.678 77.5339C19.6629 77.5483 18.9869 77.5822 18.1758 77.6094C17.3647 77.6364 16.5471 77.6675 16.359 77.6783L16.017 77.698L16.359 77.8036C16.5583 77.8652 18.033 77.8805 19.893 77.8403C21.6486 77.8023 23.7135 77.7588 24.4816 77.7437C25.2497 77.7285 25.9124 77.682 25.9542 77.6404C25.9959 77.5988 25.906 77.5536 25.7545 77.5401C25.3808 77.5069 19.7124 77.501 19.678 77.5339ZM0.456001 78.2851C0.456001 78.452 0.504337 78.5885 0.563503 78.5885C0.622555 78.5885 0.649799 78.4792 0.624035 78.3456C0.553127 77.978 0.456001 77.943 0.456001 78.2851Z" fill="black"/>
<path d="M39.8601 77.8364V24.8364H0.860107V77.8364H39.8601Z" stroke="black"/>
</svg>
