<svg width="91" height="68" viewBox="0 0 91 68" fill="none" xmlns="http://www.w3.org/2000/svg">
<path fill-rule="evenodd" clip-rule="evenodd" d="M51.4846 0.424571C51.1018 0.855033 51.102 0.855639 51.5452 0.583747C52.1807 0.193281 52.2674 0.402756 52.0209 1.73575C51.6596 3.69111 51.5028 7.46589 51.7832 7.46589C51.9432 7.46589 51.9652 7.58345 51.849 7.81939C51.7533 8.01391 51.6577 8.46841 51.6365 8.82939C51.6018 9.42751 51.6503 9.48589 52.1829 9.48589C53.0382 9.48589 53.357 9.01684 52.937 8.3759C52.7534 8.09572 52.7007 7.86989 52.8186 7.86989C53.0471 7.86989 52.9552 3.04976 52.696 1.42871C52.5706 0.644549 52.595 0.564558 52.9392 0.630814C53.5695 0.752014 53.8565 2.06239 53.8721 4.89039C53.8797 6.30701 53.9531 7.46589 54.0349 7.46589C54.3193 7.46589 54.3769 8.21329 54.1375 8.79727L53.8969 9.38489L53.867 8.5987C53.8242 7.4776 53.6248 7.41862 53.6248 8.52719C53.6248 9.39721 53.6626 9.46205 54.2454 9.59012C54.5865 9.66506 54.9198 9.67213 54.9859 9.60608C55.0522 9.54002 54.9433 9.48589 54.7443 9.48589C54.4498 9.48589 54.4049 9.37277 54.5035 8.87989C54.5702 8.54639 54.551 8.06926 54.4609 7.81939C54.2724 7.29661 54.4732 6.23288 54.693 6.5888C54.7712 6.71505 55.1764 6.79707 55.5935 6.77081C56.0106 6.74455 56.6471 6.84009 57.0083 6.98311C57.5089 7.18147 57.6656 7.18571 57.6679 7.00109C57.6701 6.8304 57.7147 6.82454 57.8194 6.98169C57.901 7.10411 58.4678 7.26833 59.0788 7.34651C62.8445 7.82807 68.2577 9.44549 71.7038 11.1185C74.8542 12.648 76.5621 13.7065 78.4866 15.3219C83.8671 19.8388 86.7094 25.2964 87.0932 31.8463C87.4582 38.0796 84.21 44.1566 79.1887 46.6351C77.6442 47.3973 77.096 47.8105 77.3598 48.0135C77.6224 48.2155 78.2688 49.615 78.2688 49.9818C78.2688 50.8385 79.2738 50.5044 81.7028 48.8399C85.9107 45.9566 88.3119 42.5983 89.7168 37.6318C90.2189 35.8562 90.2785 35.3225 90.2765 32.6149C90.2743 29.9808 90.2036 29.318 89.7347 27.5431C88.889 24.3408 87.6772 21.5079 86.2395 19.3716C85.4027 18.1279 84.4999 16.9031 84.2385 16.6569C84.1208 16.5458 83.658 16.0327 83.2104 15.5166C82.2004 14.3525 79.8355 12.3636 77.9658 11.1057C73.3748 8.01715 67.5554 5.74869 61.0206 4.49992L59.2257 4.15693L58.8578 4.61122C58.5785 4.95624 58.4031 5.02007 58.128 4.87685C57.8282 4.72091 55.4376 4.23389 54.9718 4.23389C54.8976 4.23389 54.8368 4.31893 54.8368 4.42276C54.8368 4.52658 55.5289 4.72778 56.3749 4.86999C57.3982 5.04189 57.9508 5.23217 58.0266 5.43861C58.0892 5.6093 58.2284 5.80787 58.3361 5.87999C58.4437 5.9521 58.4829 6.13834 58.4231 6.29388C58.3338 6.52659 57.9801 6.54436 56.4243 6.39488C55.3844 6.29489 54.4591 6.14299 54.3676 6.05714C54.2763 5.97149 54.3043 5.51921 54.43 5.05219C54.5722 4.52396 54.5878 4.1135 54.4712 3.96604C54.368 3.83554 54.2387 3.30711 54.1835 2.79181C54.1286 2.27631 53.9121 1.50366 53.7026 1.07481C53.3816 0.417299 53.2346 0.303978 52.7663 0.353064C52.4609 0.38498 52.2108 0.316906 52.2108 0.201564C52.2108 -0.136584 51.8985 -0.0406352 51.4846 0.424571ZM50.2068 8.39165C50.2165 8.62698 50.2644 8.67486 50.3288 8.51386C50.3872 8.36802 50.3799 8.19369 50.3128 8.12663C50.2458 8.05957 50.1981 8.17875 50.2068 8.39165ZM56.9578 9.08189C56.8891 9.19299 56.8764 9.28389 56.9293 9.28389C56.9825 9.28389 57.1695 9.33903 57.3453 9.4065C57.5549 9.4869 57.6648 9.41761 57.6648 9.2045C57.6648 8.84817 57.1568 8.7601 56.9578 9.08189ZM55.7458 9.48589C55.6771 9.59699 55.8028 9.68789 56.025 9.68789C56.2472 9.68789 56.4851 9.59699 56.5538 9.48589C56.6225 9.37479 56.4969 9.28389 56.2747 9.28389C56.0525 9.28389 55.8145 9.37479 55.7458 9.48589ZM48.4845 9.87272C48.4144 9.98604 48.2557 11.1132 48.1318 12.3771L47.9066 14.6755L46.637 14.0139C45.9389 13.6499 44.7639 12.8835 44.0258 12.3109C42.0292 10.7613 40.3417 10.1333 39.565 10.6504C39.1558 10.9229 36.0785 15.6534 35.461 16.9587C34.7764 18.4062 34.3768 20.0565 34.4722 21.0435C34.5193 21.5318 34.6809 21.7731 35.0913 21.9691C35.7822 22.2985 35.8005 22.8134 35.1418 23.3861C34.6689 23.7974 34.6368 23.9481 34.6368 25.7588C34.6368 27.5558 34.9045 29.0538 35.8355 32.4678C35.948 32.8801 35.9373 33.4122 35.807 33.8818C35.6054 34.6088 35.701 37.1613 35.9444 37.5552C36.0122 37.6647 36.4655 37.534 36.9962 37.2518C37.5093 36.9791 38.2155 36.7559 38.5655 36.7559C38.9156 36.7559 39.3111 36.6468 39.4444 36.5135C39.6272 36.3307 39.6868 36.3295 39.6868 36.5084C39.6868 36.6799 39.8308 36.691 40.2049 36.5488C40.49 36.4406 40.9216 36.3616 41.1644 36.3733C41.559 36.3925 41.5468 36.4181 41.0503 36.6143C40.7449 36.7351 40.4948 36.9355 40.4948 37.0597C40.4948 37.2754 40.068 37.7675 39.3935 38.3293C38.9629 38.688 39.0018 38.9779 39.481 38.9779C39.7412 38.9779 39.9262 38.7981 40.01 38.464C40.1387 37.9519 40.4987 37.8786 40.6506 38.3341C40.6946 38.466 40.5962 38.5739 40.4322 38.5739C40.2682 38.5739 40.0811 38.7119 40.0165 38.8805C39.9504 39.0526 39.6529 39.1872 39.3384 39.1874C38.1579 39.1878 37.7763 39.2243 38.009 39.3146C38.1415 39.3659 38.1957 39.5497 38.1292 39.7231C38.0229 40 38.0696 39.998 38.5156 39.7059C38.8938 39.458 39.1459 39.4227 39.5062 39.5669C39.7723 39.6732 39.8763 39.7661 39.7373 39.7732C39.4489 39.7877 39.3862 40.1899 39.6725 40.1899C39.7755 40.1899 39.9971 40.0529 40.1646 39.8853C40.516 39.5338 40.8489 39.8558 40.5407 40.2493C40.4356 40.3832 40.2965 40.7741 40.2316 41.1179C40.1266 41.6744 40.1841 41.7738 40.7586 42.0269C41.1614 42.2042 41.4281 42.4818 41.4685 42.7658C41.504 43.0161 41.7191 43.3205 41.9468 43.4421C42.3009 43.6318 42.3466 43.8069 42.2645 44.6604C42.206 45.2718 42.0108 45.8301 41.7599 46.1051C41.5349 46.3513 41.2939 46.9619 41.224 47.4619L41.097 48.3709L42.2605 49.1082C42.9002 49.5136 43.8801 50.0727 44.4381 50.3505C45.5676 50.9133 49.0925 52.1079 49.6234 52.1079C50.2589 52.1079 50.227 52.5238 49.5331 53.292C47.3547 55.7031 46.2595 57.8166 46.4787 59.1864C46.5649 59.7257 46.517 60.0909 46.331 60.3154C45.8652 60.8765 44.57 61.6019 44.0339 61.6019C43.7539 61.6019 43.5222 61.7156 43.5188 61.8544C43.5155 61.9934 43.1683 61.7085 42.7473 61.2215L41.9819 60.336L40.7588 60.4244C39.8056 60.4935 39.3933 60.6331 38.8889 61.0575C38.1015 61.7199 37.4755 61.7423 36.2661 61.151C35.1931 60.6264 34.11 60.6018 30.6978 61.0242C28.2221 61.3306 27.0224 61.2399 25.263 60.6129C24.6069 60.3792 23.6862 60.1879 23.2171 60.1879C22.7352 60.1879 22.2629 60.0657 22.131 59.9069C21.7864 59.4914 20.7439 59.3817 19.4824 59.6279C18.4348 59.8324 18.2364 59.8007 16.2298 59.1078C14.6289 58.5549 13.765 58.3699 12.7867 58.3699C11.2977 58.3699 8.72708 57.7588 8.19663 57.2787C7.74819 56.8727 7.08886 56.8636 6.76081 57.2589C6.62244 57.4255 6.34428 57.5619 6.14249 57.5619C5.94089 57.5619 5.4771 57.8346 5.11229 58.1679C4.58547 58.6491 4.2655 58.7739 3.55891 58.7739H2.6691L2.79838 59.5819C2.90382 60.2408 2.86807 60.3899 2.60526 60.3899C1.94493 60.3899 2.47922 60.8987 3.24156 60.9959C4.0629 61.1005 3.94594 61.41 3.09451 61.3843C2.53254 61.3676 2.10168 61.4573 1.77949 61.6587C1.65061 61.7393 1.40902 61.7528 1.24237 61.689C1.05006 61.6152 0.890687 61.7257 0.806453 61.9913C0.733329 62.2214 0.572537 62.4099 0.448913 62.4099C0.325289 62.4099 0.529511 62.6826 0.902807 63.0159L1.58153 63.6219H0.939167C0.403463 63.6219 0.296807 63.6991 0.296807 64.0865C0.296807 64.342 0.195403 64.6525 0.0715767 64.7763C-0.303537 65.1514 0.807665 65.57 3.12481 65.9259C4.29136 66.1053 5.79121 66.3418 6.45781 66.4517C7.12441 66.5616 8.66345 66.7472 9.87767 66.8642C11.0921 66.9813 12.1395 67.1102 12.2051 67.1508C12.2708 67.1914 13.6405 67.3785 15.2493 67.5663C19.1598 68.0233 24.6156 68.0423 27.3648 67.6082C30.8659 67.0555 32.3821 66.8832 32.7938 66.9908C33.6058 67.2031 36.0809 66.6418 37.5131 65.9207C38.8538 65.2454 39.0004 65.2134 39.6973 65.4433C41.0194 65.8796 42.5326 65.0535 42.8922 63.6989C43.0065 63.268 43.1867 63.1003 43.5864 63.0533C43.8834 63.0181 44.2411 62.8351 44.3811 62.6466C44.655 62.2778 46.2221 61.7883 46.4936 61.9867C46.5841 62.0528 47.0325 62.6107 47.4905 63.2266C49.2812 65.6356 51.8816 66.6893 56.0363 66.6893C59.1792 66.6893 61.9951 66.0261 64.8944 64.6032C66.6092 63.7615 67.3071 63.2688 68.8098 61.8388C70.7233 60.0178 71.6236 58.8288 72.914 56.4186L73.6883 54.9722L73.2764 53.9946C73.0498 53.4568 72.71 52.5408 72.5211 51.9588C72.3324 51.3769 72.0939 50.8488 71.9915 50.7854C71.8889 50.722 71.8048 50.5392 71.8048 50.379C71.8048 50.0049 72.4044 50.0049 72.9382 50.3788C73.2893 50.6248 73.3536 50.626 73.3536 50.3877C73.3536 50.2325 73.2841 50.1487 73.199 50.201C72.8803 50.3982 72.8019 49.8699 73.1049 49.5669C73.5018 49.17 73.5059 49.0579 73.1178 49.2068C72.9512 49.2708 72.8148 49.4021 72.8148 49.4985C72.8148 49.5948 72.5421 49.6192 72.2088 49.5526C71.7176 49.4544 71.6028 49.4993 71.6028 49.7899C71.6028 50.0261 71.3931 49.859 70.9887 49.3007C70.651 48.8345 70.2646 48.4186 70.1302 48.3763C69.9957 48.3341 68.9998 48.043 67.9169 47.7293C66.834 47.4156 65.9476 47.0914 65.9474 47.0092C65.947 46.9268 66.2585 46.4509 66.6397 45.9517C67.0207 45.4526 67.6313 44.4291 67.9967 43.6774C68.3621 42.9258 68.7098 42.2654 68.7696 42.2099C68.9227 42.0671 69.2917 40.9308 69.7204 39.2809C70.2696 37.1676 70.2135 33.3823 69.5978 30.9989C69.1372 29.2166 68.082 26.826 67.3342 25.8711C67.017 25.4663 66.9568 25.0296 66.9568 23.1377C66.9568 20.8769 66.9043 20.592 65.8596 17.1892C65.0265 14.4765 64.9918 14.43 63.8185 14.4638C63.2671 14.4797 61.6796 14.8611 60.2908 15.3114C56.6538 16.4906 56.9853 16.571 56.8096 14.4668C56.6411 12.4492 56.3167 11.0374 56.0583 11.197C55.9628 11.256 55.8234 11.7814 55.7486 12.3646C55.4497 14.6953 54.8853 16.2064 54.172 16.586C53.9266 16.7167 53.3951 17.0884 52.9909 17.4124C51.9567 18.2412 51.2364 18.1309 50.693 17.0609C50.0662 15.8265 49.5852 13.7131 49.5818 12.1798C49.579 10.815 49.3004 9.89352 48.8459 9.74364C48.7172 9.70122 48.5544 9.75939 48.4845 9.87272ZM52.1603 10.0325C52.4104 10.0806 52.8192 10.0806 53.0693 10.0325C53.3194 9.98422 53.1148 9.94483 52.6148 9.94483C52.1149 9.94483 51.9102 9.98422 52.1603 10.0325ZM51.1651 23.4388C52.2405 23.557 53.8913 24.5238 54.9768 25.6711C55.3315 26.0461 55.9066 26.9633 56.2551 27.7093C56.8277 28.9359 56.8879 29.251 56.8843 30.9999C56.8809 32.7292 56.8178 33.0591 56.2896 34.1162C55.4755 35.7449 54.5841 36.7985 53.2463 37.7124C51.4339 38.9504 50.9651 39.0805 48.3728 39.0645C46.1096 39.0508 46.0211 39.033 44.9388 38.3784C44.3278 38.0089 43.5733 37.4471 43.262 37.1302C42.9509 36.8133 42.6302 36.5539 42.5496 36.5539C42.2948 36.5539 41.6894 37.3726 41.8056 37.56C41.8902 37.697 41.3137 39.1965 40.9582 39.7643C40.8766 39.8944 40.2928 39.3482 40.2928 39.1415C40.2928 39.0365 40.4534 39.0017 40.6498 39.0639C40.9483 39.1587 41.0012 39.0615 40.9736 38.4707C40.9552 38.082 41.0218 37.7138 41.1216 37.6522C41.2212 37.5906 41.3028 37.7425 41.3028 37.9897C41.3028 38.237 41.3622 38.38 41.4347 38.3074C41.507 38.2349 41.5588 37.9016 41.5491 37.5665C41.5379 37.1732 41.6612 36.8884 41.8971 36.7622C42.351 36.5193 42.6281 35.6592 42.1995 35.8237C42.0423 35.8841 41.9266 35.8685 41.9424 35.7891C41.9583 35.7097 41.7985 35.2813 41.5876 34.8369C41.0921 33.793 41.0336 29.7847 41.4977 28.6759C42.3187 26.7145 44.0011 24.9353 45.8719 24.0507C46.9984 23.5178 50.0454 22.9062 50.4199 23.1377C50.5007 23.1875 50.6393 23.1134 50.7275 22.9726C50.8467 22.7829 50.9065 22.8082 50.9584 23.0704C50.997 23.2649 51.0899 23.4306 51.1651 23.4388ZM50.25 24.2242C49.8397 24.5567 49.8248 24.8379 50.2173 24.8379C50.3922 24.8379 50.8724 24.0376 50.7627 23.9289C50.7259 23.8925 50.4952 24.0254 50.25 24.2242ZM43.9298 28.4725C43.6058 28.9274 43.5775 29.047 43.8151 28.9559C43.9888 28.8892 44.1322 28.7308 44.1339 28.6038C44.1357 28.4767 44.2252 28.5092 44.3328 28.6759C44.4853 28.912 44.5294 28.8563 44.5318 28.4234C44.5356 27.721 44.4605 27.7273 43.9298 28.4725ZM45.0566 28.2002C44.9917 28.3689 44.9463 28.704 44.9552 28.945C44.9693 29.3217 45.0085 29.2993 45.2352 28.7848C45.4646 28.2646 45.5119 28.2384 45.5994 28.5828C45.6923 28.9484 45.7018 28.9456 45.7234 28.546C45.7513 28.0321 45.2257 27.7596 45.0566 28.2002ZM46.1508 28.0881C46.1508 28.1351 46.0662 28.4684 45.963 28.8288C45.8595 29.189 45.8523 29.4839 45.9468 29.4839C46.1559 29.4839 46.4399 28.2915 46.271 28.1228C46.205 28.0566 46.1508 28.041 46.1508 28.0881ZM46.9002 28.6759C46.8423 28.8981 46.877 29.0799 46.9778 29.0799C47.0784 29.0799 47.1608 28.8981 47.1608 28.6759C47.1608 28.4537 47.1259 28.2719 47.0835 28.2719C47.0408 28.2719 46.9584 28.4537 46.9002 28.6759ZM47.56 28.7896C47.4426 29.0983 47.385 29.4946 47.4323 29.6699C47.4953 29.9047 47.5242 29.8853 47.5414 29.5968C47.5646 29.2086 47.5679 29.2086 47.8682 29.5968C48.1248 29.9281 48.1526 29.9337 48.0478 29.6328C47.9795 29.437 48.0258 29.1536 48.1506 29.0031C48.3221 28.7965 48.3037 28.668 48.0757 28.4787C47.8234 28.2695 47.7381 28.3208 47.56 28.7896ZM48.7255 28.8839C48.3647 29.1803 48.3161 29.329 48.4882 29.6107C48.6073 29.8055 48.814 29.9861 48.9477 30.0121C49.0814 30.0382 49.0978 30.0133 48.9839 29.957C48.8699 29.9004 48.7768 29.6285 48.7768 29.3526C48.7768 28.9278 48.8592 28.8607 49.3168 28.9151C49.9876 28.9944 50.1159 29.3279 49.6537 29.7901C49.3176 30.1262 49.322 30.1363 49.7458 30.002C50.0147 29.9166 50.1908 29.9459 50.1908 30.0764C50.1908 30.3699 51.062 30.3499 51.3624 30.0495C51.6703 29.7416 51.6753 29.1474 51.3715 28.9597C51.2265 28.8698 51.1933 28.9041 51.2836 29.0504C51.5149 29.4249 51.2085 30.0899 50.8045 30.0899C50.4872 30.0899 50.4577 29.9911 50.5944 29.3843C50.6863 28.9773 50.6772 28.726 50.5732 28.7902C50.474 28.8516 50.387 29.0554 50.3801 29.2433C50.3702 29.5057 50.3272 29.4859 50.1949 29.1583C49.9535 28.5612 49.2735 28.4341 48.7255 28.8839ZM51.8068 29.3663C51.8068 29.635 51.748 30.0214 51.6761 30.2248C51.5864 30.4783 51.6117 30.5313 51.7557 30.3929C52.0716 30.0897 52.287 28.8779 52.0248 28.8779C51.905 28.8779 51.8068 29.0977 51.8068 29.3663ZM52.5476 29.0126C52.3379 29.2221 52.3892 29.8879 52.6148 29.8879C52.7259 29.8879 52.8168 29.9885 52.8168 30.1115C52.8168 30.2345 52.6805 30.2828 52.5138 30.2188C52.167 30.0858 52.0991 30.401 52.4304 30.6058C52.8271 30.851 53.1396 30.3297 52.8623 29.8857C52.5181 29.3344 52.5536 29.069 52.9509 29.2215C53.177 29.3084 53.2392 29.2732 53.141 29.1142C52.9776 28.8496 52.7496 28.8106 52.5476 29.0126ZM53.3857 29.9786C53.3285 30.4688 53.3834 30.6959 53.5594 30.6959C53.7408 30.6959 53.7798 30.502 53.6917 30.0394C53.5226 29.1506 53.4832 29.1429 53.3857 29.9786ZM54.3546 29.4467C54.2734 29.5782 54.2718 29.7909 54.351 29.9192C54.4371 30.0584 54.4068 30.0978 54.2761 30.0168C54.1555 29.9422 53.9997 29.9737 53.9298 30.0867C53.8602 30.1996 53.9836 30.2919 54.2042 30.2919C54.4247 30.2919 54.6467 30.4509 54.6976 30.6454C54.7576 30.8753 54.7932 30.8223 54.7992 30.4939C54.8122 29.7804 54.5419 29.1437 54.3546 29.4467ZM43.7503 30.7464C43.7678 31.0884 43.7965 31.1134 43.866 30.8474C43.9789 30.4153 44.249 30.3882 44.4045 30.7935C44.4758 30.9791 44.6504 31.0429 44.8633 30.9611C45.1204 30.8625 45.1657 30.9017 45.0433 31.116C44.916 31.3389 44.9364 31.3506 45.134 31.168C45.4444 30.8813 45.2071 30.4252 44.8239 30.5723C44.672 30.6306 44.494 30.5913 44.4284 30.485C44.1951 30.1075 43.7266 30.2881 43.7503 30.7464ZM46.0034 31.086C46.0195 31.3005 46.1007 31.4338 46.1839 31.3825C46.2672 31.331 46.2839 31.1554 46.2213 30.9924C46.0636 30.5812 45.9684 30.622 46.0034 31.086ZM46.5548 31.2177C46.5548 31.3936 46.6627 31.5017 46.7948 31.4576C47.1693 31.3328 47.2313 30.8979 46.8746 30.8979C46.6986 30.8979 46.5548 31.0419 46.5548 31.2177ZM47.4529 31.1175C47.3784 31.2383 47.399 31.4188 47.4988 31.5186C47.606 31.6259 47.6802 31.5362 47.6802 31.2991C47.6802 30.8399 47.6428 30.8102 47.4529 31.1175ZM48.6758 31.3019C48.53 31.5376 48.7186 31.9079 48.9845 31.9079C49.0855 31.9079 49.1101 31.7566 49.0392 31.5718C48.9455 31.3277 48.9835 31.2809 49.1778 31.4009C49.3557 31.511 49.397 31.4883 49.301 31.3332C49.1239 31.0464 48.8425 31.0322 48.6758 31.3019ZM50.3197 31.6049C50.2559 31.7715 50.2819 31.9079 50.3775 31.9079C50.4732 31.9079 50.6039 31.7715 50.6679 31.6049C50.7318 31.4382 50.7057 31.3019 50.6102 31.3019C50.5144 31.3019 50.3837 31.4382 50.3197 31.6049ZM50.9103 31.6453C50.8493 31.8043 50.9616 31.9079 51.1952 31.9079C51.4075 31.9079 51.6371 31.9988 51.7058 32.1099C51.7745 32.221 51.9343 32.3119 52.0611 32.3119C52.231 32.3119 52.2296 32.2499 52.0563 32.0766C51.8771 31.8974 51.8957 31.7865 52.1345 31.612C52.3898 31.4251 52.3149 31.3827 51.7295 31.3827C51.3263 31.3827 50.9669 31.498 50.9103 31.6453ZM52.9515 31.6386C52.734 31.8562 52.7974 32.5498 53.022 32.4109C53.135 32.341 53.1752 32.1994 53.1111 32.096C53.0473 31.9925 53.0913 31.9079 53.2089 31.9079C53.3265 31.9079 53.4228 31.9927 53.4228 32.0964C53.4228 32.4192 54.2664 32.5812 54.4447 32.2927C54.6766 31.9174 54.4639 31.6687 54.0288 31.8069C53.8254 31.8715 53.6004 31.8297 53.5289 31.7142C53.3802 31.4734 53.1471 31.4429 52.9515 31.6386ZM46.0834 33.0041C45.9294 33.4055 46.5005 33.861 46.7922 33.5693C47.0711 33.2904 46.8623 32.7159 46.4817 32.7159C46.3235 32.7159 46.1444 32.8456 46.0834 33.0041ZM47.8969 33.2179C47.7747 33.5366 48.1389 34.3319 48.407 34.3319C48.6999 34.3319 49.1982 33.6619 49.1386 33.3479C49.054 32.9009 48.0585 32.7967 47.8969 33.2179ZM50.108 33.4944C49.9074 33.819 50.2197 34.3559 50.5698 34.2885C51 34.2056 50.9948 33.4471 50.5631 33.3639C50.3791 33.3286 50.1743 33.3873 50.108 33.4944ZM42.9422 34.3658C42.9293 34.5513 42.8564 34.8694 42.78 35.0728C42.6629 35.3849 42.6895 35.4035 42.9501 35.1922C43.12 35.0542 43.3188 35.0011 43.3919 35.0742C43.465 35.1474 43.5248 35.1011 43.5248 34.9716C43.5248 34.8419 43.4406 34.7359 43.3376 34.7359C43.2347 34.7359 43.1089 34.5769 43.058 34.3824C42.9766 34.0709 42.9629 34.0689 42.9422 34.3658ZM43.7298 35.3924C43.7325 35.7598 43.7704 35.7889 43.9288 35.5439C44.1819 35.1522 44.1819 34.9379 43.9288 34.9379C43.8177 34.9379 43.7282 35.1423 43.7298 35.3924ZM44.2104 35.6883C44.1399 36.0636 44.1387 36.427 44.2076 36.4959C44.2765 36.5648 44.3328 36.447 44.3328 36.2341C44.3328 35.9398 44.4698 35.8509 44.9039 35.8639C45.2178 35.8732 45.5588 35.9311 45.6614 35.9927C45.7638 36.0541 46.0751 36.0893 46.3528 36.0707C46.6306 36.0523 46.9247 36.1307 47.0063 36.245C47.1069 36.386 47.1556 36.3842 47.1578 36.239C47.1594 36.1214 47.0178 35.8487 46.8429 35.633C46.6679 35.4174 46.5785 35.3482 46.6441 35.4795C46.7098 35.6105 46.671 35.775 46.558 35.8449C46.4451 35.9146 46.3528 35.8126 46.3528 35.6182C46.3528 35.2991 46.3239 35.3027 46.0563 35.6568C45.8046 35.9895 45.7587 35.9988 45.7533 35.717C45.7468 35.3807 45.3275 35.1159 44.6891 35.0447C44.4385 35.0169 44.3019 35.2005 44.2104 35.6883ZM45.1408 35.5439C45.1408 35.655 45.0499 35.7459 44.9388 35.7459C44.8277 35.7459 44.7368 35.655 44.7368 35.5439C44.7368 35.4328 44.8277 35.3419 44.9388 35.3419C45.0499 35.3419 45.1408 35.4328 45.1408 35.5439ZM47.5648 35.9301C47.5648 36.0313 47.724 36.0885 47.9183 36.057C48.1126 36.0255 48.3654 36.0733 48.4795 36.1634C48.6504 36.298 49.7872 36.4828 51.159 36.5991C51.3028 36.6113 51.3689 36.7551 51.3059 36.9191C51.2113 37.1653 51.2451 37.1726 51.5008 36.9603C51.6981 36.7965 52.1417 36.7411 52.7263 36.807C53.3576 36.8781 53.6186 36.8391 53.5654 36.6815C53.5228 36.5557 53.3143 36.4529 53.102 36.4529C52.8895 36.4529 52.592 36.3731 52.4407 36.2755C52.2641 36.1616 52.0983 36.1978 51.9773 36.3765C51.8252 36.6014 51.7291 36.5696 51.478 36.2119C51.2216 35.8469 51.0784 35.8024 50.6655 35.9594C50.3328 36.0859 50.0244 36.0749 49.7478 35.9271C49.4366 35.7604 49.2933 35.7659 49.1804 35.9487C49.0723 36.1234 48.9899 36.1293 48.8912 35.9695C48.7255 35.7014 47.5648 35.6671 47.5648 35.9301ZM37.9193 37.2181C37.6692 37.3312 37.4648 37.4778 37.4648 37.5443C37.465 37.7364 38.8332 37.6784 39.0162 37.4786C39.1111 37.3748 39.0364 37.3496 38.841 37.4195C38.6429 37.4904 38.4736 37.4308 38.437 37.277C38.3896 37.0787 38.2603 37.0639 37.9193 37.2181ZM38.7778 38.1699C38.8465 38.281 38.9427 38.3719 38.9917 38.3719C39.0408 38.3719 39.0808 38.281 39.0808 38.1699C39.0808 38.0588 38.9845 37.9679 38.8669 37.9679C38.7493 37.9679 38.7091 38.0588 38.7778 38.1699ZM39.746 40.6587C39.8284 40.8735 39.7329 41.0672 39.4773 41.2039C39.2592 41.3207 39.0808 41.4843 39.0808 41.5677C39.0808 41.738 39.8803 41.7802 39.9038 41.6112C39.912 41.5516 39.9563 41.3029 40.0019 41.0585C40.0478 40.8143 39.9801 40.5492 39.8517 40.4699C39.6963 40.3739 39.661 40.4371 39.746 40.6587ZM38.2888 40.9137C38.2985 41.149 38.3463 41.1969 38.4108 41.0359C38.4692 40.89 38.4619 40.7157 38.3948 40.6486C38.3278 40.5816 38.2801 40.7008 38.2888 40.9137ZM75.8448 49.4667C75.1227 49.7895 74.3726 50.1038 74.1783 50.1655C73.7887 50.2887 73.6978 50.9955 74.0442 51.2096C74.1648 51.2841 74.6876 51.1187 75.2057 50.8418C75.7238 50.565 76.4939 50.2279 76.9168 50.0927C77.5214 49.8996 77.6725 49.7572 77.6238 49.4278C77.5327 48.8125 77.297 48.8175 75.8448 49.4667ZM46.0498 61.3999C46.1185 61.511 46.0329 61.6019 45.8597 61.6019C45.6866 61.6019 45.5448 61.511 45.5448 61.3999C45.5448 61.2888 45.6303 61.1979 45.7349 61.1979C45.8395 61.1979 45.9811 61.2888 46.0498 61.3999Z" fill="black"/>
</svg>
