<svg width="52" height="78" viewBox="0 0 52 78" fill="none" xmlns="http://www.w3.org/2000/svg">
<path fill-rule="evenodd" clip-rule="evenodd" d="M23.6125 0.0589121C14.5379 0.914323 6.65697 6.26069 2.65748 14.2749C-0.726153 21.0551 -0.884641 28.7699 2.21646 35.7455C3.74474 39.1832 6.22792 42.4316 9.23162 44.9224C12.4314 47.5758 16.5014 49.532 20.5526 50.3638L21.4272 50.5433V54.8789V59.2146H16.224H11.0208V63.3142V67.4137H16.224H21.4272V72.7069V78H26.006H30.5848V72.7069V67.4137H35.5799H40.5749V63.3142V59.2146H35.5799H30.5848V54.8789V50.5433L31.4479 50.366C39.4883 48.7154 46.4454 43.1799 49.7731 35.7855C53.5715 27.3454 52.4578 17.6377 46.8375 10.1965C45.8255 8.85661 43.917 6.89016 42.6077 5.83797C38.7621 2.74782 34.1669 0.782099 29.336 0.160519C28.1225 0.00442405 24.8141 -0.0543193 23.6125 0.0589121Z" fill="black"/>
<circle cx="26" cy="25" r="20" fill="black" stroke="white" stroke-width="2"/>
</svg>
