<svg width="25" height="78" viewBox="0 0 25 78" fill="none" xmlns="http://www.w3.org/2000/svg">
<path fill-rule="evenodd" clip-rule="evenodd" d="M10.019 0.198211C6.39201 0.833204 4.54366 1.99784 2.8922 4.68935C0.190147 9.09389 -0.37221 14.4084 0.564317 26.7063C1.19787 35.0233 1.21096 39.793 0.616639 45.2077C0.175621 49.2204 -0.0888521 57.3274 0.0273964 63.2221C0.267159 75.3504 0.481493 75.8122 6.63685 77.4719C11.932 78.8999 23.1754 77.2294 24.0836 74.88C24.6924 73.304 24.736 55.5711 24.1606 43.4838C23.8184 36.3026 23.9397 28.7715 24.4977 22.4432C25.1574 14.9748 25.1654 11.828 24.5326 9.45469C22.8158 3.01527 16.5935 -0.953437 10.019 0.198211ZM6.07451 4.93035C4.83501 6.1621 4.66063 6.89307 5.42423 7.65145C5.95607 8.18037 9.29241 5.36907 9.29241 4.39277C9.29241 3.39266 7.28567 3.7282 6.07451 4.93035ZM17.2961 69.502C15.9033 70.2734 13.9416 70.9091 12.9368 70.9149C11.9313 70.9213 10.6569 71.2107 10.1047 71.5578C9.31348 72.0557 9.42174 72.2909 10.6176 72.6676C13.356 73.5306 19.7882 71.8269 21.088 69.8938C22.6 67.6454 20.9565 67.4751 17.2961 69.502Z" fill="black"/>
</svg>
