<svg xmlns="http://www.w3.org/2000/svg" xmlns:xlink="http://www.w3.org/1999/xlink" version="1.1" x="0px" y="0px" viewBox="0 0 100 125" style="enable-background:new 0 0 100 100;" xml:space="preserve"><path d="M66.108,83.68c0.577,0.699,1.263,1.379,1.763,2.177c0.607,0.967,1.154,1.998,1.547,3.067  c0.412,1.119,0.223,2.187-0.43,2.891c0.067,0.1,0.187,0.96-0.562,1.935c-0.514,0.669-1.572,1.211-2.541,0.989  c-1.693-0.389-2.737-1.477-3.689-2.813c-0.865-1.215-1.765-2.438-3.214-3.064c-0.12-0.052-0.259-0.148-0.309-0.26  c-0.452-1.017-1.346-0.918-2.234-0.967c-3.418-0.189-6.67-1.001-9.601-2.831c-1.584-0.989-3.221-1.936-4.649-3.125  c-2.152-1.793-3.389-4.235-4.144-6.907c-0.361-1.277-0.611-2.585-0.953-3.869c-0.533-2.003-1.418-3.799-2.888-5.324  c-1.771-1.836-3.454-3.758-5.14-5.674c-3.704-4.21-6.393-9.044-8.696-14.126c-2.435-5.376-3.992-10.995-4.998-16.797  c-0.442-2.547-1.051-5.069-1.68-7.578c-0.201-0.802-0.58-1.631-1.097-2.269c-2.509-3.091-2.66-6.371-0.956-9.839  c0.633-1.288,1.319-2.57,2.665-3.267c2.046-1.059,3.672-1.21,5.514,0.255c2.249,1.789,4.212,3.832,5.942,6.147  c1.421,1.901,3.127,3.587,4.688,5.385c0.532,0.613,1.098,1.225,1.487,1.928c0.768,1.386,0.528,2.69-0.581,3.816  c-0.812,0.825-0.956,1.802-0.571,2.83c1.42,3.791,2.816,7.592,4.338,11.342c1.362,3.356,3.229,6.451,5.319,9.408  c1.65,2.334,3.319,4.656,4.923,7.021c0.692,1.02,1.581,1.764,2.618,2.375c1.307,0.769,2.282,1.799,2.736,3.294  c0.093,0.305,0.453,0.53,0.698,0.785c0.043,0.045,0.132,0.041,0.186,0.079c1.203,0.84,2.048,2.09,3.338,2.861  c0.314,0.188,0.361,1.003,0.342,1.523c-0.025,0.676,0.141,1.226,0.653,1.624c0.909,0.705,1.806,1.445,2.795,2.021  c1.186,0.69,2.505,0.782,3.865,0.502c1.691-0.349,3.26-0.997,4.713-1.897c0.386-0.239,0.762-0.728,0.852-1.163  c0.185-0.891,0.23-1.822,0.233-2.738c0.012-3.457,1.075-6.558,3.06-9.366c1.693-2.395,3.443-4.741,5.601-6.75  c0.795-0.741,1.532-1.552,2.375-2.232c1.328-1.07,2.889-1.487,4.592-1.354c2.261,0.177,3.79,1.392,4.716,3.399  c0.713,1.547,0.803,3.158,0.728,4.875c-0.135,3.071-1,5.877-2.278,8.624c-1.545,3.321-3.964,5.85-6.976,7.83  c-1.876,1.233-3.823,2.36-5.767,3.486c-2.457,1.423-4.367,3.249-5.422,6C68.275,79.896,67.131,81.701,66.108,83.68z M14.808,20.859  c0.143,0.543,0.208,0.836,0.298,1.121c0.933,2.96,1.635,5.967,2.156,9.032c0.79,4.646,2.023,9.174,4.122,13.431  c1.479,3.001,3.195,5.851,5.064,8.627c2.729,4.053,5.765,7.854,9.08,11.431c1.237,1.335,2.042,2.877,2.582,4.574  c0.63,1.979,1.132,4,1.813,5.961c0.776,2.233,1.863,4.329,3.544,6.031c1.837,1.859,4.133,2.97,6.585,3.777  c2.708,0.892,5.516,1.189,8.34,1.429c2.093,0.178,3.858-0.478,5.244-1.984c1.841-2,3.248-4.32,4.089-6.899  c0.861-2.64,2.474-4.588,4.791-6.007c1.858-1.138,3.745-2.229,5.612-3.351c5.026-3.019,8.386-7.294,9.78-13.037  c0.646-2.663,0.456-5.285-0.582-7.812c-0.243-0.591-0.704-1.23-1.241-1.539c-1.938-1.117-3.99-1.2-5.915,0.005  c-0.936,0.586-1.816,1.361-2.507,2.222c-1.726,2.15-3.365,4.373-4.973,6.614c-1.381,1.925-2.492,4.004-2.816,6.394  c-0.192,1.416-0.277,2.847-0.369,4.274c-0.086,1.34-0.672,2.426-1.651,3.288c-2.595,2.288-7.726,3.859-11.91,0.36  c-0.301-0.252-0.613-0.49-0.92-0.735c-0.086,0.022-0.172,0.044-0.259,0.066c-0.119,1.475-0.239,2.951-0.365,4.512  c-0.941-0.457-1.086-1.32-1.072-2.087c0.02-1.146,0.24-2.292,0.432-3.429c0.107-0.635,0.368-1.243,0.49-1.876  c0.159-0.826-0.126-1.17-0.977-1.356c-0.629,1.66-1.255,3.314-1.882,4.969c-0.591-0.933-0.744-1.849-0.406-2.845  c0.305-0.901,0.625-1.81,0.784-2.743c0.176-1.026-0.262-1.494-1.288-1.614c-0.47,1.377-0.942,2.758-1.415,4.139  c-0.262-0.427-0.454-0.853-0.427-1.265c0.056-0.839,0.168-1.686,0.37-2.502c0.362-1.458,0.472-2.949-1.299-3.998  c-0.202-0.119-0.368-0.302-0.544-0.463c-4.434-4.059-8.117-8.693-11-13.989c-2.933-5.388-5.421-10.917-6.395-17.034  c-0.218-1.368-0.095-2.63,0.61-3.838c0.424-0.726,0.465-1.512,0.014-2.237c-0.338-0.543-0.759-1.04-1.175-1.529  c-1.434-1.683-2.918-3.323-4.315-5.036c-1.311-1.609-2.489-3.327-3.816-4.922c-0.668-0.803-1.482-1.511-2.323-2.136  c-1.456-1.08-3.343-1.074-4.317,0.01c-2.601,2.895-4.002,7.147-0.175,11.042c0.54,0.55,1.198,1.017,1.871,1.398  c0.949,0.536,1.91,1.052,2.911,1.472c0.752,0.316,3.05,0.871,3.323,1.072C19.973,22.185,17.135,22.009,14.808,20.859z   M65.283,84.494c-1.422,1.898-3.188,2.809-5.447,3.217c1.376,0.981,2.472-0.508,3.746,0.165c-0.526,0.598-1.022,1.163-1.659,1.886  c0.591,0.834,1.197,1.809,1.927,2.68c0.567,0.676,1.317,0.912,2.185,0.381c0.369-0.226,0.817-0.366,1.247-0.439  c0.89-0.151,1.223-0.756,1.417-1.53c0.193-0.774,0.086-1.532-0.344-2.161C67.423,87.328,66.408,86.019,65.283,84.494z"/><path d="M28.859,24.658c-0.922,0.757-1.808,1.144-2.806,1.241c-3.037,0.295-5.864-0.421-8.531-1.843  c-0.225-0.12-0.736-0.484-0.888-0.834c0.234,0.014,0.809,0.147,1.031,0.206c2.939,0.783,5.911,1.22,8.967,1.005  C27.315,24.385,28.015,24.566,28.859,24.658z"/><path d="M70.826,68.086c2.509-0.419,4.891-0.817,7.314-1.222c-0.14,0.173-0.282,0.438-0.5,0.602c-1.411,1.06-2.951,1.81-4.759,1.881  C72.028,69.381,71.36,69.098,70.826,68.086z"/><text x="0" y="115" fill="#000000" font-size="5px" font-weight="bold" font-family="'Helvetica Neue', Helvetica, Arial-Unicode, Arial, Sans-serif">Created by sobinsergey</text><text x="0" y="120" fill="#000000" font-size="5px" font-weight="bold" font-family="'Helvetica Neue', Helvetica, Arial-Unicode, Arial, Sans-serif">from the Noun Project</text></svg>