<svg width="62" height="89" viewBox="0 0 62 89" fill="none" xmlns="http://www.w3.org/2000/svg">
<path fill-rule="evenodd" clip-rule="evenodd" d="M28.913 0.339671C26.12 1.33597 23.222 3.67294 21.1209 6.62347C20.0866 8.07611 18.5231 10.9677 18.5231 11.428C18.5231 11.5788 18.4158 11.8583 18.2847 12.0492C18.1535 12.2402 17.7687 13.2284 17.4293 14.2451C16.8691 15.9242 16.6265 16.7082 15.8218 19.4388C15.6792 19.9229 15.3579 21.1905 15.1076 22.2557C14.8574 23.3208 14.5784 24.4696 14.4874 24.8085C13.6996 27.7416 12.6722 34.5328 12.3877 38.6872C12.2905 40.1076 12.133 42.3393 12.0379 43.6465C11.9428 44.9537 11.7855 47.9643 11.6883 50.3367C11.4272 56.7208 10.9682 59.7872 9.87034 62.4845C9.31432 63.8504 8.28701 65.8956 7.92482 66.3578C7.81098 66.503 7.53771 66.987 7.31741 67.4333C7.09729 67.8796 6.64897 68.553 6.32132 68.9298C5.99368 69.3065 5.60728 69.8615 5.4624 70.1627C5.31769 70.4641 5.0795 70.8106 4.93287 70.9326C4.78641 71.0546 4.66661 71.2296 4.66661 71.3213C4.66661 71.4132 4.35089 71.8641 3.96502 72.3234C3.57914 72.7828 3.26342 73.246 3.26342 73.3527C3.26342 73.4594 3.20431 73.5731 3.13187 73.6055C2.60848 73.8389 0.576842 77.791 0.195525 79.3175C-0.63376 82.6368 1.14671 84.7356 6.07647 86.2495C6.7963 86.4706 7.60033 86.7608 7.86325 86.8942C8.62588 87.2814 12.2333 87.8331 15.2712 88.0271C21.0937 88.3991 27.5647 87.6896 34.6598 85.9014C35.7692 85.6217 36.9531 85.3396 37.2908 85.2745C37.6284 85.2092 38.2358 85.0064 38.6405 84.8238C39.0451 84.641 39.411 84.4916 39.4536 84.4916C39.496 84.4916 40.4236 84.0162 41.5147 83.4352C42.606 82.8542 43.6149 82.3789 43.757 82.3789C44.0385 82.3789 45.7092 81.4741 46.4115 80.9412C47.239 80.3134 49.8323 77.8879 51.8483 75.856C55.7951 71.8784 59.4973 66.2425 60.979 61.9564C63.1775 55.5969 59.7158 50.1555 53.8786 50.7953C52.3733 50.9602 52.6972 50.8893 51.2349 51.374C49.4857 51.9537 47.737 52.8634 46.3676 53.9058C45.7164 54.4014 45.1837 54.8532 45.1837 54.9097C45.1837 54.9662 44.9255 55.2874 44.6098 55.6234C43.5549 56.7469 42.7495 58.587 42.3773 60.724C42.0946 62.3472 41.453 64.1178 40.9738 64.5972C40.9254 64.6456 40.6295 64.9851 40.316 65.3516C40.0028 65.718 39.7463 65.9796 39.7463 65.9328C39.7463 65.8859 39.4503 66.1226 39.0886 66.4587C38.4135 67.0859 36.8251 67.9423 36.3369 67.9423C36.1863 67.9423 36.063 68.0088 36.063 68.0903C36.063 68.2572 34.6628 68.5872 33.3487 68.73C32.3112 68.8426 30.6167 68.5462 29.7155 68.0944C27.6731 67.0705 26.5818 64.3483 26.9615 61.2245C27.0554 60.452 27.4947 59.0641 28.2509 57.152C29.9389 52.8828 29.8654 52.2502 27.3572 49.4564C25.7641 47.6821 24.6082 45.9544 24.0171 44.465C22.8846 41.6106 22.5909 38.006 23.2713 35.3133C24.0704 32.1509 25.698 29.6706 29.9086 25.1983C34.2629 20.5733 35.8597 17.7842 36.669 13.3895C37.66 8.00727 35.8167 1.94883 32.6936 0.323298C31.8532 -0.114025 30.1645 -0.106807 28.913 0.339671Z" fill="black"/>
</svg>
