<svg xmlns="http://www.w3.org/2000/svg" xmlns:xlink="http://www.w3.org/1999/xlink" version="1.1" x="0px" y="0px" viewBox="0 0 100 125" style="enable-background:new 0 0 100 100;" xml:space="preserve"><path d="M36.595,17.495c1.093,0.691,2.226,1.171,3.568,1.032c0.429-0.045,0.882,0.063,1.316,0.145  c2.97,0.562,5.795,1.586,8.538,2.823c1.685,0.759,3.288,1.681,4.592,3.035c0.422,0.438,0.826,0.89,0.963,1.557  c-0.424,0.148-0.796,0.07-1.156,0.028c-1.495-0.173-2.977-0.424-4.424-0.848c-3.384-0.992-6.668-2.207-9.683-4.086  c-2.095-1.305-4.48-1.681-6.883-1.951c-0.186-0.021-0.337-0.013-0.434,0.163c-0.096,0.176-0.014,0.336,0.073,0.48  c0.441,0.732,1.193,1.075,1.926,0.879c1.529-0.409,2.709,0.418,4.006,0.865c0.486,0.167,0.546,0.422,0.228,0.827  c-0.862,1.098-1.301,2.394-1.685,3.71c-0.824,2.827-0.973,5.655,0.09,8.457c0.652,1.719,1.765,3.078,3.394,3.962  c0.769,0.417,1.546,0.307,1.966-0.224c0.322-0.407,0.431-0.879,0.118-1.328c-0.278-0.399-0.666-0.362-1.097-0.186  c-1.098,0.448-1.745,0.228-2.316-0.815c-2.388-4.367-1.839-8.594,0.607-12.742c0.374-0.635,0.703-0.729,1.38-0.391  c2.87,1.431,5.758,2.823,8.749,3.998c1.771,0.696,3.588,1.094,5.471,1.25c1.035,0.086,1.522-0.251,1.8-1.251  c0.185-0.665,0.045-1.286-0.275-1.878c-0.494-0.913-1.148-1.693-1.945-2.358c-1.458-1.216-3.106-2.101-4.854-2.821  c-1.442-0.594-2.921-1.082-4.544-1.53c0.587-0.46,1.267-0.87,1.661-0.597c0.558,0.387,0.768,0.084,1.122-0.133  c0.621-0.379,1.227-0.792,1.867,0.027c0.228,0.291,0.629,0.241,0.944,0.035c0.312-0.204,0.429-0.511,0.397-0.885  c-0.058-0.691-0.618-1.232-1.368-1.284c-0.889-0.061-1.585,0.323-2.154,0.978c-0.199,0.229-0.304,0.617-0.616,0.656  c-1.012,0.127-1.92,0.688-2.899,0.793c-1.805,0.192-3.585-0.375-5.393-0.427c-0.241-0.007-0.482-0.237-0.712-0.382  c-1.94-1.22-3.456-2.881-4.84-4.677c-1.23-1.596-2.362-3.278-3.873-4.635C28.484,6.207,26.597,5,24.122,5.001  c-1.903,0.001-4.317,1.377-4.78,3.482c-0.043,0.193-0.251,1.147-0.051,2.227c0.2,1.08,1.37,3.076,2.603,4.446  c0.435,0.483,0.927,0.82,1.606,0.623c0.549-0.16,0.829-0.547,0.808-1.132l-0.033,0.011c-1.509,0.36-1.815-0.825-2.205-1.799  c-0.418,0.087-0.328,0.554-0.708,0.535c-0.707-1.033-1.154-2.191-1.255-3.419c-0.101-1.232,0.025-2.532,1.124-3.337  c1.608-1.178,3.828-1.116,5.489,0.012c0.884,0.6,1.618,1.361,2.32,2.159c1.087,1.235,1.977,2.616,2.929,3.951  C33.266,14.579,34.676,16.281,36.595,17.495z"/><path d="M80.646,30.629c-0.184-1.467-0.584-2.884-1.439-4.126c-0.76-1.104-1.739-1.87-3.195-2.021  c0.09,0.146,0.119,0.254,0.199,0.299c2.855,1.92,3.808,4.745,3.58,7.991c-0.28,3.999-2.073,7.314-5.015,10.018  c-1.955,1.797-4.242,2.884-6.901,3.023c-3.07,0.16-4.302-0.791-5.53-3.694c-0.079-0.187-0.015-0.495-0.372-0.518  c-0.164,0.483-0.098,0.959-0.099,1.427c-0.002,0.466,0.293,0.895,0.224,1.479c-0.933-0.387-1.847-0.65-2.64-1.18  c-0.326-0.218-0.659-0.473-1.029-0.304c-0.725,0.331-1.319,0.121-1.92-0.278c-0.192-0.127-0.429-0.265-0.66-0.068  c-0.256,0.218-0.187,0.492-0.076,0.752c0.371,0.867,1.088,1.379,1.963,1.466c0.906,0.09,1.713,0.411,2.553,0.68  c0.976,0.312,1.967,0.566,2.995,0.666c0.902,0.088,1.607,0.741,2.484,0.916c0.232,1.15,1.472,1.162,2.114,1.862  c0.412,0.449,0.931,0.802,1.272,1.324c0.867,1.328,0.585,2.498-0.79,3.269c-0.402,0.225-0.861,0.373-1.114,0.793  c0.278,0.433,0.65,0.586,1.062,0.655c1.924,0.323,3.478,2.242,2.141,4.693c-0.274,0.502-0.55,0.94-1.254,0.777  c-0.294-0.068-0.613,0.014-0.893,0.165c-0.149,0.08-0.326,0.156-0.338,0.35c-0.013,0.202,0.159,0.288,0.314,0.349  c0.381,0.15,0.779,0.259,1.151,0.428c1.912,0.867,2.341,3.148,0.919,4.684c-0.587,0.634-1.354,0.899-2.109,1.209  c-0.435,0.178-0.915,0.286-1.101,0.824c0.43,0.365,0.97,0.318,1.458,0.424c1.405,0.307,2.317,1.408,2.325,2.844  c0.01,1.843-2.013,3.782-3.885,3.73c-0.287-0.008-0.598-0.081-0.887,0.253c1.064,0.409,1.806,1.106,2.34,2.062  c0.765,1.369,0.509,2.684-0.763,3.592c-1.181,0.843-2.694,0.839-3.944,0.013c-0.236-0.156-0.382-0.489-0.824-0.43  c0.097,0.831,0.635,1.337,1.22,1.793c1.111,0.866,1.121,0.858,0.636,2.207c-0.104,0.289-0.214,0.578-0.355,0.85  c-0.833,1.599-2.537,2.044-4.064,1.055c-0.45-0.292-0.87-0.63-1.345-0.976c0.075,1.11,0.303,1.494,1.389,2.419  c0.87,0.74,0.862,1.152-0.038,1.85c-1.878,1.458-4.89,0.191-5.307-2.27c-0.171-1.009-0.307-2.121,0.661-2.833  c0.83-0.61,1.752-1.241,2.828-0.335c0.093-0.205,0.175-0.322,0.198-0.45c0.258-1.445,0.953-2.526,2.409-3.031  c0.525-0.182,0.587-0.596,0.385-1.088c-0.688-1.672,0.209-3.533,1.932-4.025c1.007-0.288,1.172-0.828,0.489-1.605  c-0.784-0.891-0.936-1.984-0.402-3.034c0.361-0.711,0.898-1.278,1.489-1.809c0.794-0.714,0.767-1.186-0.074-1.781  c-0.14-0.099-0.286-0.181-0.377-0.329c-0.925-1.503-1.199-3.675,0.537-4.987c0.163-0.124,0.335-0.243,0.472-0.393  c0.523-0.572,0.396-1.175-0.312-1.462c-0.22-0.089-0.466-0.109-0.693-0.183c-0.927-0.304-1.301-0.823-1.38-1.807  c-0.057-0.704,0.176-1.348,0.33-2.011c0.045-0.19,0.138-0.288,0.323-0.335c0.515-0.132,0.894-0.409,0.797-1.002  c-0.096-0.587-0.602-0.668-1.077-0.781c-1.341-0.32-1.725-0.791-1.883-2.18c-0.122-1.081,0.148-2.027,0.853-2.855  c0.3-0.353,0.585-0.718,0.889-1.093c-0.731-0.287-1.051,0.252-1.462,0.577c-0.208,0.165-0.316,0.468-0.631,0.484  c-0.913,0.046-2.131-0.865-2.385-1.786c-0.091-0.329-0.178-0.661-0.234-0.997c-0.11-0.657-0.425-1.045-1.148-1.058  c-0.565-0.01-1.014-0.334-1.485-0.628c-0.372-0.232-0.555-1.105-1.27-0.469c-0.087,0.077-0.169-0.074-0.181-0.169  c-0.071-0.556-0.562-0.416-0.879-0.497c-0.757-0.193-1.552-0.206-2.281-0.552c-0.491-0.232-0.909,0.007-1.086,0.47  c-0.397,1.036-1.236,1.41-2.215,1.582c-0.842,0.148-1.391,0.728-1.805,1.356c-0.475,0.72-1.045,1.274-1.816,1.588  c-0.62,0.253-0.926,0.671-0.973,1.306c-0.067,0.897-0.568,1.49-1.266,2.002c-0.454,0.333-1.042,0.471-1.429,0.923  c0.818,0.637,0.911,1.003,0.462,1.913c-0.425,0.86-0.951,1.649-1.766,2.14c0.08,0.436,0.425,0.506,0.654,0.696  c0.589,0.489,0.844,1.139,0.544,1.828c-0.442,1.013-1.125,1.865-2.122,2.425c-0.394,0.221-1.116,0.199-1.085,0.757  c0.031,0.565,0.731,0.617,1.185,0.824c1.18,0.537,1.578,1.286,1.283,2.55c-0.18,0.772-0.478,1.503-1.192,1.963  c-0.271,0.175-0.504,0.371-0.453,0.732c0.058,0.413,0.381,0.533,0.726,0.614c0.132,0.031,0.269,0.046,0.404,0.066  c0.747,0.111,1.08,0.55,0.97,1.288c-0.2,1.345-0.766,2.46-2.045,3.097c-0.519,0.259-0.991,0.56-1.146,1.177  c0.275,0.146,0.432-0.032,0.608-0.111c0.669-0.3,1.376-0.424,2.098-0.374c1.126,0.078,1.666,0.792,1.42,1.876  c-0.216,0.948-0.581,1.807-1.479,2.355c-0.422,0.258-0.776,0.632-0.789,1.29c0.417-0.173,0.752-0.322,1.094-0.453  c0.833-0.321,1.638-0.299,2.487,0.043c0.797,0.321,0.902,0.941,0.968,1.638c0.066,0.701-0.441,0.799-0.948,0.971  c-0.919,0.312-1.261,0.746-1.305,1.576c1.023-0.79,2.164-0.598,3.28-0.489c0.575,0.057,1.011,0.369,1.216,0.958  c0.196,0.563-0.213,0.774-0.536,1.079c-0.321,0.303-0.748,0.604-0.551,1.214c0.173-0.067,0.307-0.099,0.42-0.167  c0.643-0.385,1.339-0.521,2.069-0.394c0.704,0.122,0.815,0.384,0.527,1.039c-0.143,0.327-0.407,0.643-0.111,1.107  c0.859-0.704,1.638-1.639,2.979-1.307c-0.635,1.695-0.625,2.127,0.056,2.801c0.143-0.367,0.267-0.717,0.415-1.057  c0.364-0.835,0.987-1.388,1.87-1.615c0.689-0.178,1.057,0.098,1.029,0.789c-0.074,1.8,0.572,3.268,1.951,4.42  c0.126,0.105,0.28,0.196,0.207,0.446c-0.851,0.521-1.707,0.823-2.764,0.359c-0.917-0.402-1.606-1.004-2.238-1.975  c0.118,0.672,0.174,1.148,0.407,1.576c0.239,0.44,0.039,0.691-0.351,0.897c-1.624,0.859-3.846-0.258-4.116-2.069  c-0.038-0.25,0.062-0.556-0.24-0.74c-0.387,0.239-0.341,0.622-0.363,0.988c-0.044,0.728-0.18,0.799-0.864,0.475  c-1.243-0.588-1.988-1.883-1.875-3.251c0.023-0.277,0.028-0.555,0.044-0.902c-0.504,0.297-0.577,0.717-0.713,1.091  c-0.1,0.274-0.247,0.348-0.54,0.3c-1.402-0.228-2.453-1.652-2.245-3.08c0.057-0.395,0.114-0.786-0.068-1.157  c-1.398,0.279-2.664-0.849-2.68-2.345c-0.004-0.408,0.06-0.818,0.121-1.223c0.06-0.395-0.053-0.631-0.449-0.786  c-1.414-0.555-2.121-1.702-2.033-3.255c0.029-0.513,0.076-1.023,0.559-1.364c0.671-0.474,0.341-0.698-0.208-0.961  c-1.67-0.801-2.237-2.469-1.44-4.123c0.163-0.338,0.27-0.738,0.522-0.992c0.646-0.653,0.411-0.989-0.237-1.497  c-1.842-1.443-1.613-3.944,0.399-5.121c1.345-0.787,1.335-0.776,0.197-1.807c-0.902-0.816-1.151-1.835-0.78-2.985  c0.335-1.037,1.162-1.219,2.115-1.156c0.08,0.006,0.167-0.074,0.249-0.114c-1.369-3.35-1.355-4.186,0.104-5.354  c0.196,0.176,0.378,0.385,0.602,0.53c0.39,0.253,0.853,0.678,1.271,0.241c0.333-0.347-0.19-0.647-0.375-0.936  c-1.331-2.087-0.564-4.656,1.65-5.483c0.145,0.308,0.273,0.625,0.439,0.922c0.407,0.729,1.028,1.18,1.852,1.322  c0.235,0.041,0.504,0.007,0.637-0.228c0.124-0.218-0.072-0.382-0.192-0.537c-0.293-0.377-0.641-0.718-0.894-1.119  c-1.219-1.932-0.655-3.891,1.362-4.69c-0.018,0.426,0.067,0.825,0.173,1.222c0.282,1.054,0.919,1.82,1.89,2.299  c0.26,0.128,0.615,0.346,0.816-0.021c0.193-0.354-0.216-0.438-0.423-0.57c-0.454-0.289-0.732-0.721-0.96-1.178  c-0.445-0.892-0.197-1.731,0.291-2.522c0.513-0.833,1.077-0.144,1.608-0.021c1.098,0.254,1.954-0.549,1.702-1.622  c-0.137-0.583-0.677-0.934-1.143-0.609c-0.487,0.339-0.847,0.243-1.299,0.03c-0.534-0.251-0.921-0.275-1.35,0.373  c-0.596,0.9-1.191,1.816-2.339,2.293c-1.207,0.501-2.014,1.585-2.151,2.93c-0.077,0.75-0.441,0.982-1.031,1.27  c-1.95,0.951-3.138,2.644-2.611,4.79c0.131,0.535-0.16,0.72-0.484,0.987c-1.448,1.192-1.985,2.775-1.348,4.263  c0.261,0.609,0.155,0.943-0.27,1.408c-1.163,1.27-1.485,3.206-0.689,4.458c0.376,0.591,0.3,0.894-0.139,1.357  c-1.05,1.107-1.13,2.541-1.063,3.943c0.056,1.168,0.615,2.136,1.79,2.678c-0.961,1.067-1.506,2.233-1.36,3.595  c0.148,1.378,0.852,2.415,2.224,2.904c-0.803,1.571-0.729,3.075,0.081,4.555c0.27,0.493,0.634,1.009,1.194,1.036  c0.795,0.038,0.732,0.483,0.705,1.009c-0.017,0.341-0.03,0.689,0.019,1.024c0.162,1.099,0.625,2.098,1.648,2.562  c0.699,0.318,0.905,0.727,1.035,1.41c0.296,1.561,1.483,2.898,2.749,2.955c0.705,0.032,0.924,0.335,1.158,0.859  c0.237,0.531,0.587,1.003,1.026,1.395c0.507,0.453,1.167,0.833,1.77,0.587c0.789-0.321,1.167,0.094,1.667,0.487  c1.571,1.236,3.308,1.368,5.027,0.346c0.376-0.224,0.632-0.084,0.95,0.01c1.623,0.482,3.053,0.16,4.191-1.117  c0.283-0.318,0.575-0.405,0.954-0.479c1.203-0.234,2.365-0.688,3.052-1.72c0.665-0.998,1.274-1.913,2.595-2.021  c0.179-0.015,0.352-0.202,0.511-0.33c1.328-1.071,2.05-2.454,2.044-4.168c-0.002-0.48,0.091-0.724,0.593-0.864  c0.915-0.256,1.487-0.935,1.858-1.785c0.579-1.326,0.583-2.669-0.03-3.972c-0.245-0.521-0.186-0.694,0.345-0.973  c1.975-1.037,3.043-2.665,2.991-4.96c-0.034-1.531-0.682-2.742-1.924-3.724c1.209-0.96,1.882-2.128,1.887-3.637  c0.004-1.513-0.758-2.626-1.91-3.568c0.925-0.748,1.271-1.663,1.329-2.743c0.079-1.469-0.529-2.585-1.653-3.449  c-0.402-0.309-0.533-0.546-0.138-0.966c0.584-0.621,0.664-1.402,0.56-2.21c-0.208-1.62-1.203-2.704-2.461-3.612  c-0.224-0.161-0.557-0.215-0.653-0.626c1.43-0.17,2.809-0.411,4.085-1.016C78.455,43.465,81.524,37.655,80.646,30.629z   M53.016,85.361c-0.53,0.047-1.031-0.007-1.543-0.036c-1.308-0.074-2.414-0.746-3.654-0.923c-0.459-0.065-0.642-0.191-0.728-0.64  c-0.129-0.672-0.527-1.18-1.179-1.446c-0.497-0.203-0.715-0.521-0.702-1.094c0.024-1.068-0.452-1.91-1.384-2.464  c-0.753-0.447-1.273-0.868-1.087-1.982c0.206-1.231-0.736-2.212-1.432-3.161c-0.23-0.313-0.352-0.467-0.176-0.85  c0.607-1.323,0.505-2.589-0.469-3.72c-0.229-0.266-0.304-0.469-0.08-0.796c1.162-1.698,0.742-3.396-0.145-5.017  c-0.295-0.538-0.338-0.787,0.119-1.249c1.285-1.3,1.508-3.072,0.646-4.695c-0.179-0.336-0.103-0.454,0.147-0.648  c1.196-0.929,1.972-2.074,1.794-3.677c-0.033-0.294,0.175-0.413,0.355-0.57c0.856-0.751,1.648-1.552,1.813-2.752  c0.064-0.463,0.452-0.342,0.706-0.43c1.357-0.472,2.009-1.34,2.008-2.771c1.069,0.087,1.994-0.301,2.858-0.892  c0.193-0.131,0.44-0.31,0.639-0.285c1.013,0.128,1.966,0.046,2.872-0.476c0.252-0.145,0.555-0.068,0.642,0.283  c0.398,1.611,1.692,2.09,3.077,2.454c0.101,1.557,0.462,2.965,2.102,3.625c0.258,0.104,0.236,0.286,0.211,0.496  c-0.037,0.317-0.078,0.634-0.099,0.952c-0.015,0.229,0.052,0.678,0.062,0.711c0.46,1.492,1.293,2.669,2.876,3.222  c-0.362,0.675-0.78,1.248-0.913,1.968c-0.2,1.084,0,2.044,0.829,2.783c0.359,0.32,0.415,0.534,0.128,0.914  c-0.335,0.443-0.507,0.969-0.654,1.5c-0.016,0.059-0.093,0.605-0.086,0.866c0.033,1.126,0.247,2.194,1.029,3.099  c0.403,0.466,0.029,0.795-0.282,1.131c-0.974,1.053-1.702,2.218-1.679,3.727c0.009,0.559,0.09,1.104,0.401,1.565  c0.297,0.44,0.306,0.694-0.157,1.072c-1.204,0.984-1.832,2.284-1.701,3.868c0.044,0.532-0.074,0.862-0.551,1.17  c-0.764,0.494-0.996,1.522-1.628,2.044c-0.64,0.528-1.603,0.696-2.23,1.362c-0.047,0.05-0.115,0.088-0.142,0.146  C55.11,84.856,54.178,85.258,53.016,85.361z"/><path d="M71.156,27.954c-2.78,1.726-4.424,4.389-5.541,7.374c-0.149,0.397-0.643,1.058,0.011,1.64  c0.947-1.961,1.907-3.865,3.399-5.44c1.286-1.354,2.749-2.42,4.539-3.041c1.921-0.666,2.917,0.105,3.5,1.966  c0.091,0.289,0.109,0.6,0.162,0.901c0.032,0.181-0.075,0.421,0.202,0.504c1.169-1.362,0.427-4.085-1.339-4.757  C74.302,26.422,72.646,27.03,71.156,27.954z"/><path d="M59.58,34.425c-0.299,0.342-0.661,0.589-1.116,0.661c-0.562,0.089-1.029,0.32-0.925,0.967c0.096,0.6,0.572,0.903,1.156,0.98  c1.145,0.152,2.295-0.888,2.306-2.134c-0.023-0.383-0.079-0.842-0.572-1.024C59.941,33.696,59.813,34.158,59.58,34.425z"/><path d="M58.995,19.638c0.485-0.079,0.851-0.111,1.151,0.466c0.26,0.5,0.812,0.42,1.22,0.034c0.334-0.316,0.487-0.728,0.493-1.191  c-0.002-0.723-0.495-1.349-1.136-1.319c-0.881,0.042-1.64,0.403-2.205,1.111c-0.157,0.197-0.247,0.42-0.137,0.661  C58.5,19.663,58.76,19.676,58.995,19.638z"/><path d="M63.48,28.014c1.171,0.5,2.74-0.477,2.758-1.879c0.018-0.3-0.16-0.654-0.579-0.832c-0.452-0.192-0.909-0.121-1.184,0.29  c-0.36,0.539-0.773,1.023-1.214,1.492C62.887,27.483,62.966,27.795,63.48,28.014z"/><path d="M44.703,29.889c-0.299,0.875-1.015,1.21-1.758,1.57c-0.561,0.272-0.578,0.606-0.079,0.973  c0.572,0.42,1.202,0.454,1.823,0.118c0.697-0.378,1.149-0.94,1.178-1.615c-0.008-0.552-0.122-0.894-0.467-1.122  C45.145,29.643,44.809,29.578,44.703,29.889z"/><path d="M54.033,18.216c0.612-0.216,1.167-0.411,1.753,0.192c0.35,0.36,0.935,0.058,1.124-0.455c0.318-0.861-0.26-1.669-1.312-1.673  c-0.786,0.058-1.497,0.487-2.071,1.159c-0.194,0.226-0.462,0.501-0.237,0.806C53.491,18.518,53.784,18.304,54.033,18.216z"/><path d="M54.862,35.52c0.591-0.345,0.969-0.856,0.976-1.561c0.004-0.385-0.14-0.726-0.529-0.913  c-0.21-0.101-0.461-0.113-0.553,0.065c-0.496,0.959-1.452,1.237-2.552,1.641c0.381,0.351,0.581,0.59,0.832,0.753  C53.63,35.894,54.259,35.872,54.862,35.52z"/><path d="M51.999,42.864c0.127-0.021,0.3-0.031,0.462-0.082c0.572-0.174,0.972-0.85,0.773-1.363c-0.24-0.617-0.712-0.691-1.246-0.396  c-0.401,0.221-0.796,0.106-1.199,0.071c-0.338-0.029-0.68-0.089-1.015-0.066c-0.508,0.035-0.581,0.317-0.249,0.667  C50.183,42.387,50.985,42.805,51.999,42.864z"/><path d="M64.993,20.548c0.166-0.006,0.327-0.085,0.493-0.113c0.223-0.037,0.402,0.013,0.451,0.276  c0.085,0.455,0.309,0.79,0.822,0.658c0.523-0.135,0.561-0.616,0.617-1.007c-0.011-0.765-0.477-1.274-1.197-1.304  c-0.551-0.024-1.089,0.092-1.535,0.431c-0.353,0.269-0.996,0.473-0.741,1.039C64.121,21.014,64.62,20.562,64.993,20.548z"/><path d="M69.608,22.181c0.517-0.052,0.862,0.099,1.246,0.451c0.478,0.437,1.162,0.177,1.384-0.431  c0.283-0.775-0.264-1.64-1.164-1.719c-0.718,0.044-1.33,0.444-1.82,1.034C68.878,21.97,69.099,22.232,69.608,22.181z"/><path d="M73.202,23.517c0.621,0.008,1.206,0.077,1.788,0.31c0.433,0.174,0.803-0.032,1.037-0.422c0.247-0.41,0.122-0.792-0.18-1.115  c-0.291-0.31-0.656-0.476-1.171-0.448c-0.632,0.121-1.338,0.275-1.825,0.861C72.502,23.123,72.659,23.51,73.202,23.517z"/><path d="M27.454,16.79c-0.84,0.051-1.397-0.424-1.976-0.897c-0.151-0.123-0.301-0.309-0.527-0.189  c-0.251,0.133-0.242,0.389-0.223,0.627c0.067,0.836,1.115,1.752,2.018,1.743c0.426-0.041,0.849-0.161,1.046-0.628  C27.931,17.117,27.87,16.765,27.454,16.79z"/><path d="M50.56,32.759c0.052-0.309,0.053-0.624-0.254-0.815c-0.262-0.164-0.527-0.094-0.748,0.096  c-0.416,0.359-0.887,0.595-1.41,0.771c-0.606,0.204-0.649,0.616-0.143,1.014c0.246,0.194,0.531,0.292,0.848,0.283  C49.608,34.107,50.442,33.453,50.56,32.759z"/><path d="M30.781,18.404c-0.611,0.213-1.106,0.201-1.51-0.413c-0.319-0.486-0.573-0.192-0.7,0.181  c-0.204,0.601,0.041,1.07,0.532,1.416c0.98,0.692,2.151,0.161,2.551-1.153C31.372,18.217,31.06,18.308,30.781,18.404z"/><path d="M59.045,25.022c0.627-0.162,0.955-0.61,1.049-1.235c0.016-0.499-0.168-0.878-0.659-1.033  c-0.462-0.146-0.784,0.074-1.011,0.47c-0.1,0.175-0.179,0.368-0.307,0.519c-0.24,0.283-0.394,0.577-0.159,0.917  C58.221,25.04,58.624,25.131,59.045,25.022z"/><path d="M30.144,15.283c0.551-0.005,1.003-0.191,1.207-0.74c0.19-0.509-0.154-1.066-0.568-0.884  c-0.688,0.302-1.229,0.166-1.794-0.22c-0.133-0.091-0.321-0.139-0.476-0.02c-0.195,0.149-0.142,0.364-0.101,0.559  C28.562,14.695,29.355,15.288,30.144,15.283z"/><path d="M25.387,15.117c0.378,0.102,0.764,0.038,1.103-0.151c0.305-0.17,0.608-0.383,0.511-0.793  c-0.103-0.435-0.489-0.487-0.82-0.395c-0.587,0.164-0.981-0.066-1.355-0.468c-0.124-0.134-0.254-0.341-0.501-0.234  c-0.145,0.159-0.13,0.347-0.096,0.544c0.016,0.087,0.018,0.175,0.029,0.262c0.014,0.104,0.067,0.202,0.115,0.294  c0.026,0.051,0.053,0.103,0.081,0.153c0.019,0.034,0.039,0.068,0.058,0.1c0.102,0.164,0.229,0.31,0.366,0.446  C25.005,15.001,25.217,15.071,25.387,15.117z"/><path d="M40.378,29.259c-0.248,0.179-0.495,0.361-0.751,0.53c-0.28,0.184-0.471,0.415-0.361,0.764  c0.119,0.379,0.433,0.498,0.799,0.514c0.558,0.009,1.153-0.53,1.261-1.15c0.049-0.279,0.037-0.548-0.21-0.745  C40.842,28.954,40.609,29.092,40.378,29.259z"/><path d="M30.933,16.304c-0.514,0.007-1.013-0.072-1.509-0.198c-0.189-0.048-0.423-0.116-0.538,0.114  c-0.109,0.216,0.064,0.385,0.187,0.541c0.382,0.484,0.906,0.691,1.552,0.748c0.121-0.032,0.291-0.058,0.445-0.121  c0.323-0.133,0.662-0.314,0.599-0.718C31.608,16.282,31.237,16.3,30.933,16.304z"/><text x="0" y="115" fill="#000000" font-size="5px" font-weight="bold" font-family="'Helvetica Neue', Helvetica, Arial-Unicode, Arial, Sans-serif">Created by sobinsergey</text><text x="0" y="120" fill="#000000" font-size="5px" font-weight="bold" font-family="'Helvetica Neue', Helvetica, Arial-Unicode, Arial, Sans-serif">from the Noun Project</text></svg>