<svg width="44" height="89" viewBox="0 0 44 89" fill="none" xmlns="http://www.w3.org/2000/svg">
<path fill-rule="evenodd" clip-rule="evenodd" d="M19.4334 0.322154C15.4588 1.745 11.618 7.79009 8.48963 17.5464C5.98803 25.3482 2.37663 39.932 1.08283 47.4578C-0.389375 56.0219 -0.363976 60.7831 1.18102 65.8486C2.38803 69.8059 5.69363 75.5564 9.01463 79.4761C10.5648 81.3057 13.9242 84.459 15.998 86.0316C20.2234 89.2352 23.434 89.0825 27.8686 85.4668C29.4392 84.1861 33.8762 79.7755 35.26 78.1191C38.693 74.0101 41.5564 68.3815 42.6004 63.6903C42.9994 61.8971 43.0684 61.0382 43.0666 57.8787C43.0648 54.1099 42.5424 48.9829 42.1172 48.56C41.982 48.4256 41.9568 48.5793 42.0404 49.027C42.1308 49.5113 42.097 49.6714 41.9168 49.6105C41.7802 49.5644 41.6578 49.264 41.6448 48.9432C41.6316 48.6221 41.5192 48.1057 41.3948 47.7955C41.2704 47.4853 41.1686 46.9608 41.1686 46.63C41.1686 46.2993 41.0876 45.8769 40.9886 45.6911C40.8896 45.5055 40.7516 44.9933 40.6818 44.5526C40.6122 44.1121 40.4724 43.4358 40.3712 43.0496C40.27 42.6636 39.9088 41.2203 39.5684 39.8426C39.228 38.4648 38.784 36.7965 38.582 36.1352C38.38 35.4739 37.966 34.1211 37.662 33.1292C37.358 32.1372 36.6814 30.063 36.1586 28.5199C35.6356 26.9769 35.1484 25.534 35.076 25.3135C35.0034 25.0931 35.1258 25.2284 35.348 25.6141C35.57 25.9999 35.7556 26.4596 35.7602 26.6356C35.7648 26.8115 35.9326 27.1452 36.1332 27.3769C36.3338 27.6085 36.6126 28.1861 36.7528 28.66C36.8928 29.1342 37.0902 29.6809 37.1912 29.8751C37.2924 30.0692 37.513 30.6554 37.6818 31.1777C37.8506 31.6999 38.0674 32.3075 38.1634 32.528C38.2594 32.7484 38.4876 33.4698 38.6704 34.1312C38.8532 34.7925 39.1784 35.9197 39.3932 36.6362C39.608 37.3526 40.0952 39.1562 40.4762 40.6442C41.3642 44.1137 41.2164 42.955 40.1948 38.4398C37.6844 27.3436 34.6518 16.744 32.4832 11.4859C30.2164 5.98909 27.2748 2.03117 24.4144 0.628768C22.9776 -0.0754404 20.9014 -0.203297 19.4334 0.322154ZM32.6492 29.6945C33.2414 30.5915 34.1534 32.1823 34.6762 33.2294C36.7962 37.4757 39.3898 46.6895 39.3584 49.8626L39.3496 50.7644L39.0546 49.8626C38.8924 49.3666 38.6294 48.5099 38.4702 47.9588C37.7216 45.3684 34.2856 34.967 33.7368 33.6302C33.0536 31.9656 31.8492 29.4598 31.571 29.124C31.4724 29.0049 31.3004 28.6668 31.1888 28.3727C30.7958 27.337 31.5346 28.0055 32.6492 29.6945ZM39.3288 45.1532C39.3288 45.4706 39.2954 45.4498 39.1686 45.053C39.0806 44.7775 39.0084 44.3716 39.0084 44.1512C39.0084 43.8338 39.0418 43.8546 39.1686 44.2514C39.2566 44.527 39.3288 44.9328 39.3288 45.1532ZM41.3844 44.5686C41.394 44.8021 41.4414 44.8496 41.5052 44.6899C41.563 44.5452 41.5558 44.3723 41.4894 44.3057C41.423 44.2392 41.3758 44.3574 41.3844 44.5686ZM39.7052 47.2951C39.6414 47.4548 39.594 47.4073 39.5844 47.1739C39.5758 46.9626 39.623 46.8444 39.6894 46.9109C39.7558 46.9775 39.763 47.1504 39.7052 47.2951ZM41.9844 47.9755C41.994 48.2089 42.0414 48.2564 42.1052 48.0967C42.163 47.952 42.1558 47.7791 42.0894 47.7125C42.023 47.646 41.9758 47.7642 41.9844 47.9755ZM42.3076 51.2829C42.3434 51.5165 42.2842 51.6376 42.1692 51.5664C42.0588 51.4981 41.9686 51.2522 41.9686 51.0197C41.9686 50.5123 42.22 50.7073 42.3076 51.2829ZM25.0786 53.3646C29.4366 54.3775 33.5466 57.961 35.2166 62.2039C35.7644 63.5957 36.1686 65.9965 36.1686 67.8582C36.1686 74.2759 31.8024 79.9322 25.4284 81.7714C24.1952 82.1274 23.3872 82.2187 21.5686 82.2075C19.1744 82.1927 18.38 82.045 16.1106 81.1931C12.3692 79.7883 9.01303 76.224 7.64963 72.2073C7.16763 70.7873 7.10403 70.2951 7.09183 67.8987C7.08043 65.6544 7.15583 64.9216 7.53403 63.5991C8.28803 60.9628 9.21683 59.4081 11.2562 57.3702C13.7772 54.8512 16.1248 53.6698 19.9686 52.9865C20.7984 52.839 23.759 53.058 25.0786 53.3646ZM28.6586 83.1107C28.3398 83.4159 26.6994 84.2718 26.1686 84.4101C25.8936 84.4817 26.3436 84.1851 27.1686 83.7512C28.7806 82.9033 28.9522 82.8296 28.6586 83.1107ZM25.3686 84.7324C25.2036 84.8392 24.9786 84.9266 24.8686 84.9266C24.7586 84.9266 24.8036 84.8392 24.9686 84.7324C25.1336 84.6256 25.3586 84.5382 25.4686 84.5382C25.5786 84.5382 25.5336 84.6256 25.3686 84.7324Z" fill="black"/>
</svg>
