<svg width="16" height="26" viewBox="0 0 16 26" fill="none" xmlns="http://www.w3.org/2000/svg">
<path fill-rule="evenodd" clip-rule="evenodd" d="M5.9083 0.189666C5.6937 0.388652 5.67513 0.439817 5.55802 1.15476C5.47752 1.64612 5.13162 2.54982 4.86331 2.96968C4.75369 3.14117 4.59907 3.39243 4.5196 3.52805C4.44013 3.66366 4.32564 3.82911 4.26511 3.89575C4.20464 3.96239 4.16749 4.04949 4.18259 4.08931C4.1977 4.1292 4.15891 4.21735 4.09642 4.28528C4.03388 4.35321 3.99607 4.42225 4.01233 4.43871C4.02858 4.45517 3.94692 4.66618 3.83085 4.90757C3.71478 5.14903 3.62898 5.34654 3.64018 5.34654C3.6579 5.34654 3.48836 5.84166 3.21475 6.58928C3.16932 6.7133 3.146 6.82883 3.16287 6.84596C3.1798 6.8631 3.16153 6.93775 3.12231 7.01191C3.06166 7.12663 2.87738 8.19504 2.79292 8.92188C2.73251 9.44153 2.57308 11.7458 2.4444 13.9589C2.37833 15.0953 2.41992 16.6547 2.54768 17.8294C2.85893 20.692 2.5975 21.9526 1.65657 22.1257C1.42534 22.1683 1.30903 22.1544 1.05868 22.0545C0.887741 21.9863 0.747859 21.9455 0.747859 21.9639C0.747859 21.9823 0.688911 21.9555 0.616869 21.9045C0.502991 21.8237 0.459206 21.8229 0.281933 21.8978C0.16976 21.9452 0.0760393 21.9647 0.0737252 21.941C0.0713502 21.9173 0.0476611 21.9534 0.0211099 22.0212C-0.0619542 22.2329 0.109959 22.6686 0.364328 22.8911C0.491542 23.0024 0.595616 23.1266 0.595616 23.167C0.595616 23.2075 0.650424 23.2714 0.717411 23.309C0.784398 23.3466 0.855952 23.4005 0.876475 23.4288C0.896936 23.4572 0.92434 23.4728 0.937372 23.4636C0.994007 23.4233 1.291 23.6745 1.25556 23.7327C1.23352 23.7687 1.24533 23.7789 1.28236 23.7557C1.36445 23.7044 1.79414 23.9911 1.73482 24.0577C1.71113 24.0843 1.72599 24.0861 1.76777 24.0617C1.85583 24.0105 2.10831 24.1681 2.04339 24.2338C2.01952 24.2579 2.05161 24.2576 2.1147 24.2331C2.203 24.1988 2.21786 24.2087 2.17919 24.2761C2.15154 24.3243 2.15112 24.3434 2.17816 24.3186C2.2256 24.2752 2.68927 24.4967 2.76308 24.5981C2.78287 24.6253 2.82397 24.6428 2.85442 24.637C2.97981 24.6131 3.06677 24.6449 3.03194 24.702C3.01062 24.7369 3.03504 24.7473 3.08924 24.7262C3.14137 24.706 3.18376 24.7217 3.18376 24.7614C3.18376 24.8009 3.21116 24.8161 3.24465 24.7952C3.27815 24.7742 3.30555 24.7881 3.30555 24.826C3.30555 24.8639 3.32796 24.8808 3.35543 24.8637C3.38283 24.8466 3.60888 24.8861 3.85783 24.9515C4.26651 25.0589 4.53787 25.0705 6.65905 25.0715C8.78918 25.0724 9.04951 25.0615 9.45704 24.9531C9.70422 24.8874 9.92845 24.8475 9.95536 24.8643C9.98228 24.8811 10.0043 24.8686 10.0043 24.8365C10.0043 24.8043 10.1042 24.7591 10.2263 24.7359C10.3485 24.7127 10.506 24.6568 10.5765 24.6116C10.6469 24.5664 10.9512 24.4234 11.2527 24.2938C11.5541 24.1642 11.9321 23.9813 12.0927 23.8873C12.2533 23.7933 12.3947 23.7164 12.4071 23.7164C12.4195 23.7164 12.5734 23.6205 12.7493 23.5032C12.9251 23.386 13.0988 23.3072 13.1352 23.3282C13.1716 23.3491 13.1809 23.3434 13.1558 23.3155C13.1307 23.2875 13.1753 23.2206 13.2548 23.1668C13.6196 22.9201 13.7623 22.8174 13.9321 22.6792C14.1839 22.4743 14.7533 21.9812 14.8807 21.8578C14.9598 21.7811 15.003 21.7736 15.0563 21.827C15.1097 21.8806 15.1172 21.8722 15.0874 21.7929C15.0656 21.7351 15.0914 21.6249 15.1447 21.548C15.1979 21.4711 15.2414 21.4282 15.2414 21.4526C15.2414 21.4772 15.2962 21.4417 15.3632 21.3739C15.4302 21.3061 15.485 21.2291 15.485 21.2027C15.485 21.1337 15.7497 20.9109 15.8092 20.9297C15.8369 20.9383 15.8446 20.9211 15.8264 20.8913C15.7849 20.8233 15.9208 20.4493 15.9871 20.4493C16.0141 20.4493 15.9944 20.3673 15.9432 20.2671C15.8734 20.1304 15.7931 20.0753 15.6219 20.0465C15.4964 20.0254 15.3526 19.9928 15.3023 19.974C15.2114 19.94 15.0712 19.9128 14.7883 19.8743C14.7066 19.8631 14.6018 19.8222 14.5554 19.7832C14.4927 19.7305 14.4537 19.7303 14.4022 19.7823C14.3507 19.8345 14.3089 19.8318 14.2377 19.7721C14.1853 19.728 14.1265 19.708 14.1071 19.7277C14.0877 19.7473 14.0047 19.7375 13.9228 19.7059C13.7587 19.6428 13.6166 19.6171 13.0976 19.5568C12.8197 19.5245 12.7423 19.491 12.7104 19.3891C12.6884 19.319 12.6529 19.2862 12.6314 19.3161C12.5788 19.3894 12.4203 19.385 12.365 19.3089C12.3375 19.271 12.3199 19.2778 12.3193 19.3264C12.3187 19.3814 12.2858 19.3891 12.2118 19.3514C12.0944 19.2915 11.2435 19.2976 11.1831 19.3587C11.1623 19.3797 11.0908 19.3675 11.0242 19.3314C10.9339 19.2825 10.9142 19.2841 10.947 19.3376C10.973 19.3802 10.9573 19.4039 10.9086 19.3956C10.7945 19.3761 10.4914 19.5091 10.4914 19.5787C10.4914 19.6101 10.4092 19.6648 10.3088 19.7003C10.2083 19.7357 10.1261 19.7986 10.1261 19.8399C10.1261 19.8812 10.11 19.8988 10.0904 19.879C10.0709 19.8591 9.95555 19.9377 9.83418 20.0536C9.71281 20.1695 9.58498 20.2645 9.55009 20.2646C9.5152 20.2648 9.40442 20.3423 9.30394 20.437C9.02339 20.7013 8.54815 21.0147 8.48652 20.9762C8.45619 20.9572 8.42215 20.9675 8.41088 20.9991C8.39968 21.0308 8.32197 21.0733 8.23824 21.0937C8.02437 21.1458 7.69223 20.8266 7.47124 20.3568C7.22795 19.8394 7.20231 19.2421 7.3917 18.5006C7.50546 18.0551 7.53146 17.7913 7.53098 17.0897C7.53061 16.58 7.49888 16.116 7.45339 15.9562C7.32228 15.4953 7.26102 14.8547 7.23167 13.6376C7.18703 11.7899 7.15841 11.3105 7.07894 11.0794C7.03813 10.9607 6.93972 10.6827 6.86025 10.4614C6.60625 9.75413 6.69729 9.28724 7.19622 8.73941C7.33391 8.5882 7.44657 8.4426 7.44657 8.41578C7.44657 8.38903 7.48932 8.36708 7.54151 8.36708C7.5937 8.36708 7.62068 8.34126 7.60143 8.30969C7.58213 8.27813 7.59206 8.23628 7.62336 8.21667C7.75794 8.13247 8.02662 7.53859 8.27934 6.76663C8.59826 5.79247 8.6658 5.11143 8.54845 4.05202C8.48262 3.45759 8.26643 2.52282 8.17783 2.44928C8.15737 2.43233 8.09148 2.27976 8.03143 2.11024C7.86476 1.63977 7.75191 1.40066 7.52885 1.04571C7.41661 0.867008 7.32478 0.697734 7.32478 0.66944C7.32478 0.641145 7.25913 0.546275 7.17893 0.45868C7.09873 0.371022 7.04575 0.28657 7.06121 0.270851C7.07668 0.255193 6.98832 0.208653 6.86482 0.167413C6.74059 0.125865 6.67013 0.0737143 6.70716 0.0505978C6.74388 0.0276047 6.62683 0.00535125 6.447 0.00103618C6.15908 -0.00574463 6.09483 0.0167554 5.9083 0.189666Z" fill="black"/>
</svg>
