<svg width="62" height="71" viewBox="0 0 62 71" fill="none" xmlns="http://www.w3.org/2000/svg">
<path fill-rule="evenodd" clip-rule="evenodd" d="M51.6081 0.0952724C50.8253 0.180372 49.9369 0.413272 49.6165 0.617172C49.5003 0.691172 49.2024 0.805673 48.9546 0.871573C48.3996 1.01917 47.6529 1.37087 47.6529 1.48467C47.6529 1.53107 47.5853 1.56897 47.5027 1.56897C47.4201 1.56897 47.2623 1.65897 47.1522 1.76897C47.042 1.87897 46.9069 1.96897 46.8518 1.96897C46.7967 1.96897 46.7515 2.00277 46.7512 2.04397C46.751 2.08517 46.6045 2.28197 46.4257 2.48107C45.199 3.84817 44.4486 5.82148 44.4486 7.68068C44.4486 9.32308 45.1577 11.46 46.134 12.7595C46.6009 13.3808 46.6962 13.4927 46.9421 13.7082C47.0744 13.8242 47.2997 14.0255 47.4428 14.1557C47.8661 14.5407 48.8545 15.2857 48.8545 15.2198C48.8545 15.1342 49.5327 15.6387 49.9791 16.0564C50.6838 16.7157 50.7034 16.8857 50.5674 21.1647C50.5019 23.2296 50.4389 26.089 50.4274 27.519C50.4078 29.9603 50.3931 30.148 50.1869 30.5939C49.9177 31.176 49.5187 31.5411 49.0547 31.6297C48.862 31.6665 48.317 31.8623 47.8436 32.0648C44.0867 33.6722 42.3154 37.1206 42.9875 41.519C43.1773 42.7605 43.2509 43.0061 44.2171 45.619C44.6848 46.884 45.263 48.516 45.5018 49.2458C45.9497 50.6142 46.5096 52.844 46.4262 52.9273C46.4003 52.9533 46.0561 52.7757 45.6615 52.5327C45.2669 52.2897 44.5509 51.9622 44.0705 51.805C43.2611 51.54 43.0866 51.5195 41.6949 51.5255C40.3287 51.5314 40.1159 51.5574 39.3418 51.8123C38.3 52.1553 37.5365 52.5313 36.488 53.2178C35.2591 54.0224 34.3633 54.8662 32.8069 56.6855C30.7913 59.0415 28.488 61.6532 28.4182 61.6617C28.3858 61.6657 28.301 61.3439 28.2299 60.9466C27.8027 58.5595 26.3059 56.3023 24.2416 54.9325C22.5941 53.8392 22.3553 53.7428 16.4863 51.8023C14.3522 51.0967 12.609 50.4968 12.6125 50.4692C12.616 50.4416 13.0328 50.221 13.5388 49.9789C14.3207 49.6048 14.5944 49.4024 15.3644 48.6289C16.8275 47.1592 17.4199 45.6844 17.4372 43.469C17.4557 41.1039 17.0931 39.9504 15.1816 36.2918C12.0397 30.2785 11.3717 28.9131 11.4397 28.6428C11.4857 28.4596 11.6922 28.2844 12.1731 28.0204C14.3411 26.8303 15.8341 24.9746 16.3981 22.769C16.9368 20.6623 16.6914 18.728 15.5591 16.1536C14.918 14.6964 9.70446 5.44347 9.27238 4.99627C8.48063 4.17677 7.50222 3.95477 6.61734 4.39397C6.08984 4.65577 5.688 5.15827 5.27806 6.06898C5.11714 6.42648 4.92188 6.85398 4.84418 7.01898C4.59464 7.54908 4.28363 8.29958 3.99454 9.06898C3.61884 10.0691 3.12949 11.232 2.88867 11.6971C2.78103 11.905 2.69291 12.1281 2.69291 12.1927C2.69291 12.2573 2.5398 12.6272 2.35275 13.0146C2.04074 13.6607 1.84768 14.1067 1.80012 14.2915C1.7899 14.3313 1.54097 14.8488 1.24708 15.4415C0.192674 17.5672 -0.164502 19.4551 0.0679079 21.6744C0.274684 23.6493 0.878789 24.9597 2.18924 26.2757C2.9859 27.0758 3.55225 27.4687 4.64772 27.9813C5.57976 28.4175 5.94324 28.7723 5.84761 29.1527C5.81407 29.286 5.52468 29.9854 5.20446 30.707C4.88423 31.4286 4.45235 32.424 4.24488 32.919C4.0373 33.414 3.84044 33.864 3.80749 33.919C3.77445 33.974 3.74281 34.0415 3.7372 34.069C3.71026 34.2012 3.56948 34.5471 3.4388 34.8021C3.359 34.9578 3.29371 35.131 3.29371 35.187C3.29371 35.243 3.22892 35.4306 3.14972 35.6039C3.07061 35.7772 2.88567 36.2115 2.73887 36.569C2.44708 37.2795 2.17031 37.906 1.88253 38.5076C1.78029 38.7213 1.72492 38.942 1.75966 38.9981C1.79431 39.0541 1.77929 39.0732 1.72632 39.0405C1.62128 38.9756 1.28233 39.9345 1.0408 40.9802C0.741906 42.2743 0.814603 44.5358 1.19471 45.769C1.25409 45.9615 1.32478 46.2315 1.35182 46.369C1.43203 46.7763 2.04665 47.917 2.49354 48.4879C3.11217 49.2781 4.21384 50.1124 5.39651 50.6864C5.97478 50.967 6.61714 51.3573 6.82402 51.5537C7.19461 51.9056 7.59945 52.7593 7.59945 53.1891C7.59945 53.4344 9.08333 59.3914 9.46163 60.6648C10.1894 63.1147 11.1666 65.3303 12.0655 66.569C12.6177 67.3299 14.1563 68.869 14.3648 68.869C14.4439 68.869 14.5087 68.9167 14.5087 68.9749C14.5087 69.0331 14.5537 69.053 14.6088 69.019C14.6639 68.985 14.7089 69.0049 14.7089 69.0631C14.7089 69.1213 14.771 69.169 14.8469 69.169C14.9227 69.169 15.0373 69.2321 15.1013 69.3092C15.1653 69.3863 15.4187 69.5086 15.6643 69.581C15.9098 69.6534 16.1108 69.7422 16.1108 69.7784C16.1108 69.8807 18.2994 70.5543 18.9145 70.6412C19.2174 70.684 20.006 70.7105 20.6669 70.7001C21.661 70.6845 21.9959 70.6373 22.6066 70.427C23.8457 70 24.831 69.3885 25.8238 68.43C26.4708 67.8053 26.6036 67.7291 27.3009 67.582C27.7369 67.49 28.0022 67.5043 28.853 67.6659C29.4173 67.7731 30.4649 67.9548 31.1809 68.0699C31.8969 68.1849 32.8656 68.3654 33.3338 68.4709C36.5087 69.1871 38.3759 69.4689 39.9426 69.4686C42.3537 69.4681 44.7803 68.7358 46.4012 67.5196C48.951 65.6063 50.1513 63.2209 50.1549 60.06C50.1571 58.068 50.6169 56.778 51.8879 55.1969C54.4362 52.0273 55.838 49.9877 57.7154 46.7179C58.9543 44.5602 59.5607 43.3518 59.9733 42.219C60.2712 41.401 60.3052 41.1903 60.3463 39.9063C60.3988 38.2666 60.2608 37.4695 59.7237 36.3085C59.0553 34.8638 58.1724 33.8498 56.7727 32.9192C55.6075 32.1445 55.4554 31.9905 55.0936 31.2187L54.8124 30.619L54.8444 26.019C54.862 23.489 54.907 20.3965 54.9445 19.1468C55.0237 16.5077 54.9759 16.627 56.1183 16.215C57.5978 15.6813 59.2415 14.453 60.1185 13.2256C60.6991 12.4131 61.214 11.3178 61.4848 10.319C61.7772 9.24098 61.8025 7.03938 61.5339 6.06898C60.9427 3.93417 59.6743 2.18857 57.9666 1.15987C57.1363 0.659672 56.3971 0.337073 56.2662 0.417773C56.2196 0.446573 56.166 0.424373 56.1473 0.368373C56.1286 0.312273 55.6726 0.200372 55.1337 0.119572C54.1297 -0.030928 52.8489 -0.0397276 51.6081 0.0952724ZM54.9951 4.29597C56.8285 5.15438 57.8817 7.00828 57.5932 8.86938C57.3079 10.7099 56.0302 12.1678 54.3102 12.6152C51.5571 13.3313 48.908 11.6824 48.4512 8.96808C48.1806 7.36018 48.9618 5.58418 50.3677 4.61127C50.5935 4.45497 51.0776 4.22277 51.4435 4.09517C52.0107 3.89757 52.2639 3.86827 53.1602 3.89627C54.1267 3.92657 54.2749 3.95877 54.9951 4.29597Z" fill="black"/>
</svg>
