<svg width="47" height="89" viewBox="0 0 47 89" fill="none" xmlns="http://www.w3.org/2000/svg">
<path fill-rule="evenodd" clip-rule="evenodd" d="M36.9687 0.51322C35.7887 0.74422 34.0127 1.82822 33.0227 2.92322C31.4337 4.67922 31.3527 5.54122 32.3397 10.2442C34.1887 19.0622 31.3677 27.3492 23.0307 37.5832C20.6707 40.4802 18.4567 43.7442 18.1097 44.8362C17.5847 46.4912 16.5887 46.8212 12.1127 46.8212C5.64265 46.8212 2.10565 48.0342 0.651653 50.7532C-0.880347 53.6152 0.152652 56.7122 5.20965 64.4112C12.7617 75.9092 13.2107 82.3542 6.72765 86.1862L3.11465 88.3212L6.61465 88.6542C11.7757 89.1442 17.1277 87.1892 20.0147 83.7572C22.8697 80.3652 26.4367 69.8982 27.3207 62.3212C27.6417 59.5702 29.5857 53.9472 31.6427 49.8212C33.6987 45.6962 37.0607 36.6962 39.1137 29.8212C41.1667 22.9462 43.6947 15.1672 44.7307 12.5342C47.4467 5.63422 47.2357 2.00822 44.0497 0.79622C41.4347 -0.19778 40.7447 -0.22478 36.9687 0.51322Z" fill="black"/>
</svg>
