<svg xmlns="http://www.w3.org/2000/svg" xmlns:xlink="http://www.w3.org/1999/xlink" version="1.1" x="0px" y="0px" viewBox="0 0 100 125" enable-background="new 0 0 100 100" xml:space="preserve"><g><path d="M50.5,71.6c-4.5,0-8.1-3.6-8.1-8.1c0-4,6.4-18.3,7.1-20l1-2.3l1,2.3c0.7,1.6,7.1,16,7.1,20C58.6,67.9,55,71.6,50.5,71.6z    M50.5,46.8c-2.7,6.2-5.8,14.3-5.8,16.6c0,3.2,2.6,5.8,5.8,5.8c3.2,0,5.8-2.6,5.8-5.8C56.3,61.1,53.1,52.9,50.5,46.8z"/></g><g><rect x="49.3" y="43.9" width="2.3" height="26.5"/></g><path d="M94.3,35c-2.4-3.9-5.9-7.4-10.4-10.3c-9-6.1-21-9.4-33.8-9.4s-24.7,3.3-33.8,9.4C11.9,27.7,8.4,31.1,6,35  c-1.8,2.8-2.9,5.7-3.5,8.8c0,0,0,0,0,0c0,0,0,0,0,0.1c-0.1,0.6-0.2,1.1-0.2,1.7C2.1,46.8,2,48.1,2,49.4c0,8.1,2.9,15.7,8.1,21.4  c5.2,5.7,12.2,8.9,19.6,8.9c6.9,0,14-3.2,19.1-8.3c-0.1,0-0.2,0-0.2-0.1c-0.6-0.3-1.2-0.7-1.8-1.1c-4.5,4.2-10.7,7.2-17.1,7.2  c-14,0-25.5-12.5-25.5-28c0-0.5,0-1,0-1.5c0,0,0,0,0,0c0,0,0,0,0,0c0.1-1.2,0.2-2.4,0.4-3.5c0,0,0,0,0,0c2.9-15.1,22-26.7,45.4-26.7  c25.1,0,45.6,13.5,45.7,30.1c0,0,0,0,0,0c0,0.5,0,1.1,0,1.6c0,15.4-11.5,28-25.6,28c-6.3,0-12.1-2.5-16.6-6.7  c-0.1,0-0.2,0.1-0.3,0.1c-0.7,0.2-1.5,0.4-2.3,0.6c5.2,5.4,12,8.3,19.2,8.3c7.5,0,14.5-3.2,19.7-8.9c5.2-5.6,8-13.1,8.1-21.1  c0-0.6,0.1-1.2,0.1-1.8C98.1,43.4,96.8,39.1,94.3,35z"/><ellipse cx="50.3" cy="36.9" rx="1.6" ry="1.3"/><text x="0" y="115" fill="#000000" font-size="5px" font-weight="bold" font-family="'Helvetica Neue', Helvetica, Arial-Unicode, Arial, Sans-serif">Created by Gábor István Karaba</text><text x="0" y="120" fill="#000000" font-size="5px" font-weight="bold" font-family="'Helvetica Neue', Helvetica, Arial-Unicode, Arial, Sans-serif">from the Noun Project</text></svg>