<svg width="134" height="100" viewBox="0 0 134 100" fill="none" xmlns="http://www.w3.org/2000/svg">
<path fill-rule="evenodd" clip-rule="evenodd" d="M96.0664 0.276089C92.716 0.711038 88.9188 1.8984 85.3548 3.62537C81.6275 5.43136 79.0804 7.23008 75.6127 10.5055L73.1404 12.8411L70.8207 12.1036C60.4746 8.81461 51.658 9.37814 39.222 14.1241C36.9654 14.9857 35.0403 15.499 34.0635 15.4997C29.7772 15.5035 20.6865 17.673 15.4086 19.9514C8.299 23.0203 3.27859 28.2307 0.943001 34.9636C0.213734 37.0662 0.0534824 38.1947 0.0157557 41.4913C-0.0545058 47.6377 -0.0963852 47.5403 4.72847 52.4679L8.9144 56.7429L8.46895 62.6475C7.81617 71.2965 7.84594 75.2329 8.58213 77.6874C11.3123 86.7873 19.6153 95.4115 28.3045 98.1716C33.1806 99.7204 36.7681 100.163 42.7154 99.9498C55.2472 99.5003 67.9029 94.9613 73.2605 88.9947C74.3421 87.79 75.0246 86.5368 75.7473 84.4275C77.6049 79.0057 79.0939 76.7014 81.6105 75.3535C82.9136 74.6555 83.5041 74.5914 88.4027 74.6153C92.2477 74.634 95.6081 74.9044 100.264 75.5684C108.074 76.6826 112.219 76.7343 117.502 75.7836C126.654 74.1367 131.637 71.2969 133.21 66.8323C133.997 64.5987 134.218 57.1882 133.774 47.9029C132.646 24.3276 130.951 17.5115 124.516 10.6664C119.802 5.65213 116.541 3.50719 110.9 1.70986C105.871 0.106961 100.996 -0.364032 96.0664 0.276089Z" fill="black"/>
<path d="M80 31.546C80 30.3794 80.7 28.746 83.5 31.546C84.5 32.546 82.7 32.746 81.5 33.546C80.3 34.346 80 32.546 80 31.546Z" stroke="#7B7B7B"/>
<path d="M84.2734 50.2027C84.2734 49.4729 83.7574 48.8746 83.4903 48.207C83.0923 47.2119 82.7562 46.0213 82.7562 44.9443C82.7562 44.6893 82.6743 44.3636 82.8786 44.2047C82.9835 44.1231 83.1247 44.0858 83.2456 44.0253C83.3677 43.9643 83.4464 44.0362 83.5773 44.0362C84.0568 44.0362 84.5228 44.5303 84.8362 44.8437C85.257 45.2645 85.5743 45.8265 86.0081 46.2603C86.4271 46.6793 86.4268 47.3537 86.4268 47.9025C86.4268 48.1497 86.6386 48.9991 86.3561 49.0798" stroke="#7B7B7B" stroke-linecap="round"/>
<path d="M85.497 61.7527C85.497 61.2057 85.4857 60.7025 85.41 60.1648C85.3249 59.5605 85.0892 58.9303 85.0565 58.3268C84.9953 57.1937 84.6791 56.0559 84.665 54.9173C84.6573 54.2958 84.665 53.6737 84.665 53.0521C84.665 52.3874 84.6731 51.7369 84.714 51.0836C84.717 51.0354 84.4622 50.546 84.4999 50.546M86.3779 49.2275C86.458 49.2275 86.363 50.5047 86.3779 50.5942C86.4074 50.7708 86.6724 50.8835 86.7695 51.0238C86.9787 51.3259 87.197 51.6188 87.4057 51.9264C88.1365 53.0035 88.8544 54.294 89.0588 55.6024C89.144 56.1477 89.2165 56.6985 89.2165 57.2501C89.2165 57.7913 89.0485 58.1433 88.7543 58.5933C88.2227 59.4063 87.2978 59.8758 86.6226 60.5509C86.4155 60.7581 86.1478 61.0074 85.9973 61.2633C85.9394 61.3617 85.9521 61.4616 85.8885 61.5569" stroke="#7B7B7B" stroke-linecap="round"/>
</svg>
