<svg width="20" height="34" viewBox="0 0 20 34" fill="none" xmlns="http://www.w3.org/2000/svg">
<g filter="url(#filter0_d)">
<path fill-rule="evenodd" clip-rule="evenodd" d="M12.8541 0.0515158C12.7344 0.0821951 12.6169 0.122356 12.5929 0.140808C12.569 0.159233 12.5004 0.198516 12.4406 0.228063C12.3807 0.257611 12.3317 0.292139 12.3317 0.304762C12.3317 0.317384 12.31 0.319592 12.2835 0.309658C12.2534 0.298394 12.2423 0.302837 12.2541 0.321488C12.2645 0.337931 12.2536 0.367111 12.2299 0.386356C12.2061 0.405601 12.1867 0.412762 12.1867 0.40229C12.1867 0.391818 12.1442 0.422101 12.0924 0.46962C12.0388 0.518696 11.9796 0.549234 11.9554 0.540319C11.9319 0.531687 11.9216 0.533271 11.9325 0.543856C11.9656 0.576149 11.4953 0.988876 11.3821 1.02683C11.324 1.0463 11.2658 1.05584 11.2528 1.04797C11.2397 1.04013 11.2291 1.04429 11.2291 1.05725C11.2291 1.07019 11.1864 1.10316 11.1344 1.13053C11.0815 1.15826 11.0013 1.24345 10.953 1.32304C10.7987 1.57733 10.7537 1.64361 10.5315 1.94404C10.4112 2.10675 10.2828 2.28771 10.2461 2.34618C10.2095 2.40465 10.1677 2.44538 10.1533 2.43669C10.1388 2.428 10.1342 2.43901 10.1429 2.46117C10.1516 2.48333 10.1406 2.51922 10.1183 2.54093C10.096 2.56263 10.0446 2.63749 10.0041 2.70731C9.81642 3.03032 9.78645 3.07354 9.76393 3.05362C9.75073 3.0419 9.74812 3.05461 9.75813 3.08186C9.76817 3.10912 9.76643 3.13139 9.7543 3.13139C9.73117 3.13139 9.57505 3.44565 9.57505 3.49215C9.57505 3.5069 9.54894 3.54833 9.51702 3.58422C9.4851 3.62011 9.45898 3.68014 9.45898 3.71758C9.45898 3.75502 9.44917 3.77976 9.43722 3.77257C9.42526 3.76535 9.41366 3.78689 9.41142 3.8204C9.40922 3.85394 9.36052 4.00864 9.30324 4.16416C9.24596 4.31968 9.19347 4.47887 9.18656 4.51793C9.17968 4.55699 9.15261 4.66536 9.12641 4.75875C9.07325 4.94832 9.01864 5.22282 8.93779 5.70687C8.88388 6.02962 8.8483 6.48517 8.78966 7.6031C8.77291 7.9222 8.75318 8.25333 8.74584 8.33895C8.67396 9.1747 8.54007 9.92222 8.46982 9.87985C8.45824 9.87288 8.45525 9.89137 8.46318 9.92091C8.47673 9.97149 8.27447 10.6928 8.09729 11.2257C8.0533 11.3581 7.9547 11.6574 7.87815 11.8908C7.67789 12.5018 7.48585 13.0706 7.45771 13.1361C7.38124 13.3141 7.30646 13.5299 7.2551 13.7206C7.22304 13.8398 7.17815 13.9926 7.15531 14.0603C7.1325 14.1279 7.10505 14.2279 7.09434 14.2824C7.08361 14.3368 7.04977 14.4487 7.01916 14.5311C6.98852 14.6134 6.96344 14.7006 6.96344 14.7249C6.96344 14.7492 6.94551 14.8092 6.92357 14.8583C6.90164 14.9073 6.86772 15.0048 6.84822 15.0748C6.82872 15.1449 6.78789 15.2419 6.75753 15.2904C6.72715 15.339 6.70228 15.4128 6.70228 15.4546C6.70228 15.4963 6.68444 15.5648 6.66265 15.6069C6.64082 15.6489 6.61445 15.7293 6.60403 15.7856C6.57907 15.9202 6.51381 15.9726 6.34925 15.99C6.27476 15.9978 6.18751 16.018 6.1553 16.0348C6.12309 16.0516 6.073 16.0655 6.04404 16.0656C6.01505 16.0657 5.96027 16.1103 5.92231 16.1646C5.88436 16.219 5.8419 16.2635 5.828 16.2635C5.78416 16.2635 5.8005 16.4725 5.86251 16.7047C5.94553 17.0156 5.92521 17.1278 5.71289 17.531C5.61681 17.7133 5.52584 17.8668 5.51069 17.872C5.49555 17.8773 5.49056 17.8932 5.49958 17.9074C5.50861 17.9216 5.49996 17.9333 5.4804 17.9333C5.46084 17.9333 5.45336 17.9416 5.46377 17.9518C5.47419 17.9619 5.44372 18.0367 5.39607 18.1179C5.34843 18.1992 5.30943 18.2868 5.30943 18.3126C5.30943 18.3385 5.28984 18.3669 5.2659 18.3759C5.24196 18.3849 5.22237 18.4112 5.22237 18.4343C5.22237 18.4575 5.20267 18.5103 5.17856 18.5516C5.15447 18.5929 5.08486 18.7445 5.02383 18.8885C4.96284 19.0325 4.90257 19.1408 4.88994 19.1291C4.87729 19.1174 4.87599 19.1365 4.88701 19.1715C4.89816 19.2069 4.89473 19.2352 4.87927 19.2352C4.86394 19.2352 4.84253 19.2698 4.83165 19.312C4.82077 19.3543 4.78673 19.4428 4.75597 19.5086C4.72521 19.5745 4.70005 19.6451 4.70005 19.6657C4.70005 19.6862 4.67469 19.7492 4.64367 19.8056C4.61265 19.8621 4.59402 19.9148 4.60229 19.9228C4.61053 19.9309 4.59527 19.979 4.56837 20.0297C4.53596 20.0909 4.52412 20.162 4.53323 20.2409C4.54852 20.3733 4.43915 20.7528 4.39658 20.715C4.38283 20.7028 4.38071 20.7083 4.39191 20.7273C4.40308 20.7463 4.39394 20.7972 4.37157 20.8405C4.3492 20.8838 4.3223 20.9738 4.31179 21.0407C4.30129 21.1075 4.28051 21.1839 4.2656 21.2105C4.24145 21.2535 4.16186 21.5932 4.13156 21.7824C4.12535 21.8213 4.10182 21.9486 4.07933 22.0654C4.02655 22.3393 3.99596 22.7837 4.00043 23.2116C4.00603 23.7452 4.09387 24.1451 4.30198 24.5843C4.33518 24.6543 4.37023 24.718 4.37987 24.7258C4.3895 24.7336 4.44446 24.81 4.502 24.8956C4.55955 24.9812 4.63389 25.0752 4.66717 25.1046C4.70046 25.1339 4.72071 25.1689 4.71215 25.1824C4.70362 25.1959 4.71372 25.2069 4.73461 25.2069C4.77167 25.2069 4.92735 25.343 5.08097 25.5097C5.1229 25.5552 5.25348 25.6415 5.37115 25.7015C5.48882 25.7614 5.59163 25.8179 5.59961 25.8271C5.62 25.8505 5.67705 25.8634 5.86373 25.8869C5.95313 25.8981 6.07065 25.9206 6.12489 25.9368C6.29238 25.987 6.86211 25.9985 6.95105 25.9535C7.04612 25.9053 7.05993 25.9047 7.03213 25.9498C7.01568 25.9765 7.02058 25.9777 7.05218 25.9545C7.08921 25.9273 7.39497 25.8472 7.47126 25.8447C7.48722 25.8441 7.51754 25.8278 7.53861 25.8083C7.5597 25.7889 7.60428 25.7729 7.63765 25.7729C7.67099 25.7729 7.75514 25.7405 7.82458 25.7008C7.89405 25.6611 7.96575 25.6375 7.98397 25.6485C8.00583 25.6617 8.00902 25.6558 7.99329 25.631C7.97591 25.6036 7.9829 25.5985 8.01935 25.6122C8.0477 25.6228 8.06183 25.6193 8.05217 25.604C8.04285 25.5893 8.0748 25.5573 8.1232 25.5329C8.1716 25.5084 8.21121 25.4761 8.21121 25.4609C8.21121 25.4457 8.22839 25.4333 8.2494 25.4333C8.32743 25.4333 8.74772 24.9871 8.98744 24.6498C9.05526 24.5543 9.11077 24.4665 9.11077 24.4546C9.11077 24.4428 9.12977 24.4126 9.15305 24.3875C9.20235 24.3344 9.57505 23.6295 9.57505 23.5894C9.57505 23.5745 9.60149 23.5057 9.63381 23.4365C9.66614 23.3673 9.70038 23.2727 9.7099 23.2262C9.71942 23.1798 9.73747 23.148 9.74997 23.1555C9.76251 23.1631 9.76541 23.1418 9.75639 23.1082C9.74518 23.0663 9.75058 23.0535 9.77359 23.0674C9.79597 23.0808 9.8072 23.0614 9.8072 23.0094C9.8072 22.9664 9.85223 22.7969 9.90725 22.6327C10.0232 22.2867 10.1124 21.9291 10.0884 21.9057C10.0793 21.8968 10.0965 21.8637 10.1267 21.8321C10.1569 21.8006 10.1904 21.7355 10.2012 21.6875C10.212 21.6395 10.2308 21.5807 10.243 21.5569C10.2647 21.5143 10.3714 20.955 10.4591 20.4239C10.5112 20.1081 10.5811 19.5359 10.6043 19.2352C10.6133 19.1185 10.6359 18.9047 10.6545 18.7602C10.6848 18.5251 10.6988 18.4855 10.788 18.3839C10.8428 18.3215 10.9015 18.2749 10.9185 18.2805C10.9589 18.2936 11.1688 18.0771 11.1864 18.0041C11.2056 17.9248 11.1893 17.7574 11.1577 17.7081C11.1431 17.6854 11.1281 17.6393 11.1245 17.6056C11.1154 17.5232 10.9797 17.2656 10.9089 17.1965C10.8238 17.1135 10.81 17.1818 11.1118 16.1927C11.296 15.5889 11.3733 15.3189 11.4045 15.1705C11.418 15.1064 11.4558 14.9762 11.4886 14.8813C11.5214 14.7864 11.5483 14.6828 11.5483 14.6512C11.5483 14.6195 11.5613 14.5937 11.5773 14.5937C11.5932 14.5937 11.6063 14.5538 11.6063 14.505C11.6063 14.4562 11.6182 14.3702 11.6327 14.3139C11.6472 14.2576 11.6813 14.1097 11.7086 13.9852C11.7668 13.7198 11.9564 13.0073 12.055 12.6833C12.0929 12.5588 12.1658 12.3168 12.2169 12.1456C12.3434 11.7222 12.4757 11.3084 12.5065 11.2399C12.5205 11.2088 12.5512 11.126 12.5748 11.0559C12.631 10.8893 12.7661 10.5753 12.8733 10.3625C12.9989 10.113 13.2264 9.69453 13.2834 9.6082C13.3421 9.51905 13.4701 9.30857 13.5733 9.1314C13.7035 8.9077 13.7534 8.8335 13.7541 8.86253C13.7546 8.8781 13.7787 8.83989 13.8077 8.77763C13.8367 8.71536 13.8821 8.64693 13.9086 8.62559C13.9351 8.60422 13.9568 8.57467 13.9568 8.55993C13.9568 8.54516 14.0131 8.44166 14.0819 8.32989C14.1508 8.21813 14.2244 8.08488 14.2454 8.0338C14.2665 7.98271 14.2894 7.94643 14.2963 7.95316C14.3033 7.9599 14.3766 7.83614 14.4593 7.67813C14.542 7.52012 14.6162 7.38446 14.6242 7.37668C14.6478 7.35373 14.7983 7.02563 14.7983 6.9971C14.7983 6.98762 14.8231 6.92586 14.8534 6.85986C14.8838 6.79389 14.9439 6.64437 14.9871 6.52762C15.0303 6.41088 15.0826 6.28352 15.1034 6.2446C15.1242 6.20569 15.1506 6.12291 15.1622 6.06064C15.1737 5.99838 15.194 5.92691 15.2072 5.90181C15.2372 5.84509 15.3384 5.40455 15.3951 5.08422C15.425 4.91552 15.4422 4.52665 15.4528 3.78234C15.461 3.19861 15.4809 2.64086 15.4968 2.54288C15.5441 2.25253 15.4898 2.06135 15.2717 1.75045C15.2029 1.6525 15.1319 1.51241 15.114 1.43913C15.0959 1.36586 15.0194 1.17856 14.9439 1.0229C14.723 0.567517 14.4113 0.27646 13.9418 0.0871762C13.7625 0.014893 13.7006 0.00490246 13.4054 0.00060056C13.1537 -0.00305039 13.0182 0.00945906 12.8541 0.0515158ZM6.81981 20.4388C6.87073 20.4645 6.90541 20.5046 6.90541 20.5378C6.90541 20.609 6.87355 20.6088 6.81058 20.5371C6.75591 20.4748 6.71526 20.4654 6.68778 20.5088C6.67791 20.5243 6.68368 20.5371 6.70057 20.5371C6.71746 20.5371 6.7313 20.5498 6.7313 20.5654C6.7313 20.626 6.66859 20.5894 6.63366 20.5083C6.6134 20.4613 6.58584 20.4327 6.57237 20.4446C6.55891 20.4566 6.55728 20.4504 6.56877 20.431C6.59721 20.3828 6.7161 20.3865 6.81981 20.4388ZM7.13755 20.5954C7.13755 20.6565 7.08027 20.668 7.0283 20.6173C7.00256 20.5922 7.0063 20.5759 7.04394 20.5491C7.10436 20.506 7.13755 20.5224 7.13755 20.5954ZM8.53041 20.8244C8.53041 20.8388 8.50444 20.8368 8.47237 20.8201C8.44045 20.8034 8.41434 20.7851 8.41434 20.7793C8.41434 20.7735 8.44045 20.7755 8.47237 20.7836C8.50429 20.7917 8.53041 20.8101 8.53041 20.8244ZM7.06408 20.8186C7.07351 20.8335 7.05314 20.8402 7.01832 20.8337C6.93164 20.8174 6.91182 20.7918 6.9859 20.7918C7.01957 20.7918 7.05474 20.8039 7.06408 20.8186ZM8.74659 20.9104C8.78475 20.9421 8.72544 20.9397 8.63386 20.9057C8.59291 20.8905 8.55943 20.8653 8.55943 20.8497C8.55943 20.8212 8.69033 20.8636 8.74659 20.9104ZM8.94586 20.9894C8.95892 21.0011 8.94624 21.0194 8.91774 21.0301C8.88922 21.0408 8.87569 21.04 8.88768 21.0283C8.89966 21.0166 8.87967 20.9899 8.84325 20.969L8.77706 20.931L8.84961 20.9495C8.88951 20.9596 8.93283 20.9776 8.94586 20.9894ZM8.69767 21.0162C8.72538 21.0306 8.77416 21.0511 8.80608 21.0618C8.85738 21.079 8.85344 21.085 8.7719 21.1134C8.647 21.157 8.63493 21.1748 8.72529 21.1821C8.76711 21.1854 8.82236 21.1696 8.84807 21.1469C8.90262 21.0988 9.02371 21.0999 9.02371 21.1486C9.02371 21.1892 8.95735 21.2163 8.8582 21.2163C8.79595 21.2163 8.79009 21.223 8.82059 21.2588C8.84047 21.2821 8.87984 21.3012 8.90808 21.3012C8.93634 21.3012 8.96698 21.3203 8.97618 21.3437C9.00012 21.4046 8.90149 21.3982 8.7557 21.3295C8.68963 21.2984 8.61352 21.2729 8.58656 21.2729C8.55957 21.2729 8.52252 21.2553 8.50421 21.2338C8.47829 21.2033 8.48233 21.1897 8.5224 21.1726C8.55075 21.1604 8.58682 21.1494 8.60255 21.148C8.64808 21.1441 8.65617 21.0416 8.61305 21.015C8.55743 20.9806 8.63133 20.9816 8.69767 21.0162ZM9.08175 21.0748C9.10569 21.0899 9.11222 21.1022 9.09626 21.1022C9.0803 21.1022 9.04765 21.0899 9.02371 21.0748C8.99977 21.0597 8.99324 21.0474 9.0092 21.0474C9.02516 21.0474 9.05781 21.0597 9.08175 21.0748Z" fill="black"/>
</g>
<defs>
<filter id="filter0_d" x="0" y="0" width="19.5126" height="33.9816" filterUnits="userSpaceOnUse" color-interpolation-filters="sRGB">
<feFlood flood-opacity="0" result="BackgroundImageFix"/>
<feColorMatrix in="SourceAlpha" type="matrix" values="0 0 0 0 0 0 0 0 0 0 0 0 0 0 0 0 0 0 127 0" result="hardAlpha"/>
<feOffset dy="4"/>
<feGaussianBlur stdDeviation="2"/>
<feComposite in2="hardAlpha" operator="out"/>
<feColorMatrix type="matrix" values="0 0 0 0 0 0 0 0 0 0 0 0 0 0 0 0 0 0 0.5 0"/>
<feBlend mode="normal" in2="BackgroundImageFix" result="effect1_dropShadow"/>
<feBlend mode="normal" in="SourceGraphic" in2="effect1_dropShadow" result="shape"/>
</filter>
</defs>
</svg>
