<svg width="38" height="82" viewBox="0 0 38 82" fill="none" xmlns="http://www.w3.org/2000/svg">
<path fill-rule="evenodd" clip-rule="evenodd" d="M29.0351 0.162588C28.6504 0.259414 28.2727 0.386164 28.1957 0.444403C28.1188 0.502552 27.8985 0.626533 27.7061 0.719786C27.5138 0.813039 27.3564 0.922014 27.3564 0.961852C27.3564 1.00169 27.2866 1.00866 27.2012 0.977305C27.1045 0.941754 27.069 0.955778 27.1069 1.01464C27.1404 1.06654 27.1054 1.15863 27.029 1.21937C26.9526 1.28011 26.8901 1.30271 26.8901 1.26966C26.8901 1.23661 26.7538 1.33219 26.587 1.48216C26.4148 1.63705 26.2247 1.73343 26.1468 1.70529C26.0715 1.67805 26.0384 1.68305 26.0733 1.71645C26.1797 1.81837 24.668 3.12097 24.3044 3.24075C24.1176 3.30221 23.9305 3.33231 23.8887 3.30748C23.8468 3.28274 23.8126 3.29587 23.8126 3.33678C23.8126 3.3776 23.6756 3.48166 23.5082 3.56803C23.3384 3.65557 23.0806 3.92443 22.9253 4.17561C22.4293 4.97818 22.2847 5.18737 21.5707 6.13554C21.184 6.64906 20.7713 7.22019 20.6535 7.40473C20.5357 7.58928 20.4014 7.71781 20.3551 7.69039C20.3087 7.66297 20.2938 7.69771 20.3218 7.76765C20.3497 7.83759 20.3142 7.95086 20.2427 8.01937C20.1712 8.08788 20.006 8.32414 19.8756 8.5445C19.2725 9.56394 19.1762 9.70034 19.1038 9.63746C19.0614 9.60048 19.053 9.64058 19.0851 9.7266C19.1174 9.81262 19.1118 9.88292 19.0728 9.88292C18.9985 9.88292 18.4968 10.8748 18.4968 11.0215C18.4968 11.0681 18.4128 11.1988 18.3103 11.3121C18.2077 11.4253 18.1237 11.6148 18.1237 11.733C18.1237 11.8512 18.0922 11.9292 18.0538 11.9065C18.0154 11.8838 17.9781 11.9517 17.9709 12.0575C17.9638 12.1633 17.8073 12.6516 17.6232 13.1424C17.4391 13.6332 17.2704 14.1357 17.2482 14.2589C17.2261 14.3822 17.1391 14.7242 17.0549 15.019C16.884 15.6173 16.7085 16.4836 16.4487 18.0113C16.2754 19.03 16.1611 20.4677 15.9726 23.996C15.9188 25.0031 15.8554 26.0482 15.8318 26.3184C15.6008 28.9561 15.1705 31.3153 14.9447 31.1816C14.9075 31.1596 14.8979 31.2179 14.9234 31.3112C14.9669 31.4708 14.3169 33.7473 13.7475 35.4294C13.6061 35.8469 13.2892 36.7915 13.0432 37.5284C12.3996 39.4568 11.7824 41.2517 11.6919 41.4587C11.4462 42.0205 11.2059 42.7014 11.0408 43.3035C10.9377 43.6794 10.7935 44.1618 10.7201 44.3753C10.6468 44.5889 10.5585 44.9043 10.5241 45.0763C10.4896 45.2482 10.3809 45.6014 10.2825 45.8612C10.184 46.121 10.1034 46.3963 10.1034 46.4729C10.1034 46.5496 10.0458 46.7391 9.9753 46.8939C9.9048 47.0487 9.79578 47.3562 9.7331 47.5773C9.67043 47.7984 9.53922 48.1046 9.44167 48.2578C9.34403 48.411 9.2641 48.6441 9.2641 48.7758C9.2641 48.9076 9.20675 49.1238 9.13671 49.2566C9.06658 49.3892 8.98181 49.643 8.94833 49.8205C8.86812 50.2454 8.65838 50.4107 8.12951 50.4656C7.89011 50.4903 7.60968 50.5541 7.50617 50.6071C7.40265 50.6602 7.24168 50.7039 7.14861 50.7042C7.05544 50.7046 6.87937 50.8453 6.75739 51.0169C6.6354 51.1885 6.49897 51.3289 6.45429 51.3289C6.31338 51.3289 6.36588 51.9884 6.56518 52.7214C6.83199 53.7026 6.76671 54.0567 6.08433 55.3291C5.77555 55.9047 5.48318 56.3891 5.4345 56.4056C5.38582 56.4221 5.36978 56.4723 5.39879 56.5172C5.42779 56.5621 5.4 56.5989 5.33714 56.5989C5.27428 56.5989 5.25022 56.6252 5.2837 56.6573C5.31718 56.6893 5.21926 56.9253 5.06613 57.1817C4.913 57.4381 4.78766 57.7146 4.78766 57.7962C4.78766 57.8777 4.72471 57.9676 4.64777 57.9958C4.57083 58.0241 4.50788 58.1071 4.50788 58.1802C4.50788 58.2533 4.44456 58.4199 4.36706 58.5503C4.28965 58.6807 4.06592 59.1592 3.8698 59.6137C3.67377 60.0682 3.48007 60.4098 3.4395 60.3729C3.39884 60.336 3.39464 60.3963 3.43008 60.5068C3.46589 60.6185 3.45489 60.7078 3.40518 60.7078C3.35594 60.7078 3.28712 60.817 3.25214 60.9503C3.21717 61.0838 3.10778 61.3629 3.00892 61.5707C2.91007 61.7785 2.82921 62.0016 2.82921 62.0664C2.82921 62.1313 2.7477 62.33 2.64801 62.5081C2.54831 62.6862 2.48844 62.8527 2.51502 62.8781C2.54151 62.9036 2.49245 63.0553 2.406 63.2154C2.30183 63.4084 2.26378 63.633 2.29306 63.882C2.34221 64.2998 1.99072 65.4975 1.85391 65.3782C1.8097 65.3396 1.80289 65.357 1.83889 65.417C1.8748 65.477 1.84542 65.6377 1.77352 65.7743C1.70161 65.9108 1.61516 66.1951 1.5814 66.4061C1.54764 66.617 1.48087 66.8582 1.43293 66.942C1.35534 67.0776 1.09953 68.1498 1.00217 68.7469C0.982211 68.8697 0.906578 69.2717 0.834302 69.6401C0.664663 70.5047 0.566368 71.9071 0.58073 73.2577C0.598729 74.9418 0.881025 76.2038 1.54988 77.5899C1.65657 77.811 1.76923 78.0119 1.80019 78.0365C1.83115 78.0611 2.00778 78.3023 2.19272 78.5725C2.37765 78.8427 2.61658 79.1395 2.72355 79.232C2.83052 79.3246 2.89561 79.435 2.8681 79.4777C2.84068 79.5202 2.87314 79.555 2.94028 79.555C3.05938 79.555 3.55971 79.9847 4.05343 80.5108C4.18819 80.6544 4.60785 80.9267 4.98602 81.1158C5.36419 81.305 5.6946 81.4834 5.72025 81.5123C5.78581 81.5861 5.96916 81.6269 6.5691 81.701C6.85643 81.7365 7.23413 81.8075 7.40843 81.8587C7.94672 82.017 9.77778 82.0532 10.0636 81.9112C10.3691 81.7593 10.4135 81.7574 10.3242 81.8997C10.2713 81.9841 10.2871 81.9877 10.3886 81.9145C10.5076 81.8287 11.4903 81.5759 11.7355 81.5678C11.7868 81.5661 11.8842 81.5146 11.9519 81.4531C12.0197 81.3918 12.163 81.3415 12.2702 81.3415C12.3774 81.3415 12.6478 81.2389 12.871 81.1137C13.0943 80.9884 13.3247 80.9142 13.3833 80.9488C13.4535 80.9904 13.4638 80.9717 13.4132 80.8935C13.3573 80.8069 13.3798 80.7909 13.497 80.834C13.5881 80.8675 13.6335 80.8564 13.6024 80.8083C13.5725 80.7619 13.6752 80.6607 13.8307 80.5837C13.9863 80.5067 14.1136 80.4045 14.1136 80.3566C14.1136 80.3087 14.1688 80.2696 14.2363 80.2696C14.4871 80.2696 15.8379 78.8613 16.6083 77.7966C16.8262 77.4954 17.0046 77.2182 17.0046 77.1808C17.0046 77.1434 17.0657 77.048 17.1405 76.9689C17.299 76.8013 18.4968 74.5767 18.4968 74.4501C18.4968 74.403 18.5817 74.1858 18.6856 73.9674C18.7895 73.749 18.8996 73.4504 18.9302 73.3038C18.9607 73.1572 19.0187 73.0568 19.0589 73.0807C19.0992 73.1044 19.1086 73.0373 19.0796 72.9312C19.0436 72.7991 19.0609 72.7586 19.1349 72.8024C19.2068 72.845 19.2429 72.7837 19.2429 72.6194C19.2429 72.4837 19.3876 71.9487 19.5644 71.4306C19.9372 70.3386 20.2237 69.21 20.1467 69.1363C20.1174 69.1081 20.1727 69.0036 20.2696 68.9039C20.3666 68.8043 20.4743 68.5989 20.509 68.4475C20.5438 68.2961 20.6042 68.1106 20.6433 68.0353C20.7132 67.9009 21.056 66.1358 21.3378 64.4594C21.5054 63.4627 21.7302 61.657 21.8048 60.7078C21.8337 60.3394 21.9063 59.6648 21.966 59.2087C22.0633 58.4667 22.1083 58.3417 22.3949 58.0212C22.571 57.8241 22.7598 57.6771 22.8144 57.6946C22.9442 57.736 23.6189 57.0527 23.6756 56.8223C23.7371 56.5722 23.6848 56.0436 23.583 55.8881C23.5361 55.8166 23.4881 55.671 23.4764 55.5647C23.4474 55.3045 23.0111 54.4915 22.7835 54.2735C22.5101 54.0116 22.4657 54.2272 23.4355 51.1056C24.0276 49.1998 24.2761 48.3478 24.3764 47.8792C24.4198 47.6769 24.5414 47.2661 24.6468 46.9665C24.7521 46.6669 24.8384 46.3401 24.8384 46.2403C24.8384 46.1405 24.8804 46.0588 24.9317 46.0588C24.983 46.0588 25.0249 45.9329 25.0249 45.7789C25.0249 45.6249 25.0631 45.3536 25.1096 45.1759C25.1562 44.9983 25.2661 44.5314 25.3539 44.1384C25.5408 43.3009 26.1501 41.052 26.4671 40.0295C26.5889 39.6365 26.8231 38.8728 26.9874 38.3324C27.3939 36.9961 27.819 35.6904 27.918 35.474C27.9631 35.3758 28.0618 35.1145 28.1376 34.8934C28.3181 34.3675 28.7523 33.3765 29.0967 32.705C29.5005 31.9175 30.2318 30.5967 30.4148 30.3243C30.6036 30.0429 31.0149 29.3786 31.3464 28.8194C31.7649 28.1134 31.9254 27.8792 31.9278 27.9709C31.9291 28.02 32.0066 27.8994 32.0999 27.7029C32.1932 27.5064 32.3392 27.2904 32.4243 27.223C32.5094 27.1556 32.5789 27.0624 32.5789 27.0158C32.5789 26.9692 32.7599 26.6425 32.9813 26.2898C33.2025 25.9371 33.439 25.5165 33.5067 25.3553C33.5745 25.1941 33.6481 25.0796 33.6703 25.1008C33.6925 25.1221 33.9282 24.7315 34.194 24.2328C34.4598 23.7341 34.6983 23.306 34.7241 23.2814C34.7999 23.209 35.2835 22.1734 35.2835 22.0834C35.2835 22.0535 35.3632 21.8586 35.4607 21.6503C35.5582 21.4421 35.7515 20.9702 35.8903 20.6017C36.0292 20.2332 36.1973 19.8313 36.2641 19.7085C36.3308 19.5856 36.4158 19.3244 36.4529 19.1279C36.49 18.9314 36.5552 18.7058 36.5978 18.6266C36.694 18.4476 37.0193 17.0572 37.2015 16.0462C37.2976 15.5138 37.3529 14.2865 37.3869 11.9374C37.4135 10.0951 37.4773 8.33477 37.5286 8.02553C37.6806 7.10916 37.5059 6.50579 36.8049 5.52457C36.584 5.21542 36.3558 4.77327 36.298 4.54201C36.2401 4.31076 35.9942 3.71962 35.7515 3.22834C35.0416 1.79113 34.0397 0.872529 32.5309 0.275135C31.9546 0.0470036 31.7557 0.0154725 30.807 0.00189542C29.9982 -0.00962728 29.5626 0.0298536 29.0351 0.162588ZM9.6418 64.5064C9.80547 64.5875 9.91692 64.7141 9.91692 64.819C9.91692 65.0437 9.81452 65.043 9.61215 64.8167C9.43645 64.6201 9.30579 64.5905 9.21747 64.7274C9.18577 64.7765 9.20432 64.8167 9.2586 64.8167C9.31288 64.8167 9.35736 64.8569 9.35736 64.906C9.35736 65.0973 9.15583 64.9817 9.04355 64.7258C8.97845 64.5777 8.88985 64.4873 8.84658 64.5249C8.80331 64.5626 8.79809 64.5432 8.83502 64.4817C8.92641 64.3296 9.3085 64.3413 9.6418 64.5064ZM10.663 65.0006C10.663 65.1935 10.4789 65.2299 10.3119 65.0699C10.2292 64.9907 10.2412 64.9392 10.3621 64.8545C10.5563 64.7185 10.663 64.7702 10.663 65.0006ZM15.1394 65.7235C15.1394 65.7688 15.056 65.7627 14.9529 65.7099C14.8503 65.6573 14.7664 65.5994 14.7664 65.5811C14.7664 65.5629 14.8503 65.5691 14.9529 65.5947C15.0555 65.6204 15.1394 65.6784 15.1394 65.7235ZM10.4269 65.7053C10.4572 65.7523 10.3917 65.7733 10.2798 65.7527C10.0012 65.7013 9.93753 65.6206 10.1756 65.6206C10.2838 65.6206 10.3968 65.6586 10.4269 65.7053ZM15.8342 65.9949C15.9569 66.095 15.7662 66.0873 15.4719 65.9801C15.3403 65.9322 15.2327 65.8527 15.2327 65.8033C15.2327 65.7132 15.6534 65.8472 15.8342 65.9949ZM16.4746 66.2441C16.5166 66.2811 16.4758 66.339 16.3843 66.3727C16.2926 66.4064 16.2491 66.4038 16.2876 66.3669C16.3262 66.33 16.2619 66.2458 16.1449 66.1798L15.9321 66.0598L16.1653 66.1182C16.2935 66.1503 16.4328 66.2069 16.4746 66.2441ZM15.677 66.3287C15.7661 66.3742 15.9228 66.4391 16.0254 66.4727C16.1903 66.527 16.1776 66.5458 15.9155 66.6356C15.5142 66.773 15.4754 66.8292 15.7658 66.8523C15.9002 66.8629 16.0777 66.8131 16.1604 66.7414C16.3357 66.5895 16.7248 66.5931 16.7248 66.7466C16.7248 66.8747 16.5116 66.9604 16.1929 66.9604C15.9929 66.9604 15.974 66.9813 16.072 67.0944C16.1359 67.1681 16.2625 67.2284 16.3532 67.2284C16.444 67.2284 16.5425 67.2887 16.5721 67.3624C16.649 67.5545 16.332 67.5345 15.8635 67.3177C15.6512 67.2195 15.4065 67.1391 15.3199 67.1391C15.2332 67.1391 15.1141 67.0835 15.0552 67.0156C14.9719 66.9194 14.9849 66.8765 15.1137 66.8223C15.2048 66.7839 15.3207 66.7491 15.3713 66.7448C15.5176 66.7326 15.5436 66.409 15.405 66.3249C15.2263 66.2164 15.4638 66.2197 15.677 66.3287ZM16.9114 66.5138C16.9883 66.5614 17.0093 66.6004 16.958 66.6004C16.9067 66.6004 16.8018 66.5614 16.7248 66.5138C16.6479 66.4662 16.6269 66.4273 16.6782 66.4273C16.7295 66.4273 16.8344 66.4662 16.9114 66.5138Z" fill="black"/>
</svg>
