<svg width="30" height="33" viewBox="0 0 30 33" fill="none" xmlns="http://www.w3.org/2000/svg">
<path fill-rule="evenodd" clip-rule="evenodd" d="M14.494 5.03397C14.0072 5.18424 13.6978 5.82772 13.6191 6.85359C13.5918 7.21025 13.663 8.89489 13.7365 9.6289C13.8879 11.1416 13.8073 13.1813 13.5149 15.2332C13.4644 15.5875 13.3974 16.0803 13.3659 16.3283C13.3344 16.5763 13.2869 16.8952 13.2602 17.0369C13.2336 17.1786 13.1231 17.855 13.0146 18.54C12.9061 19.2249 12.7801 20.0076 12.7346 20.2792C12.689 20.5508 12.6105 21.0243 12.5599 21.3314C12.5094 21.6384 12.44 22.0539 12.4058 22.2547C12.3715 22.4555 12.3038 22.8999 12.2554 23.2424C12.2069 23.5849 12.148 24.0004 12.1244 24.1657C12.0238 24.8704 11.9841 25.539 12.0057 26.1627C12.0268 26.7707 12.0424 26.8723 12.1868 27.3372C12.3947 28.0069 12.6906 28.5693 13.0527 28.9832C13.3556 29.3293 13.5429 29.5489 13.6462 29.6789C13.706 29.7541 13.7815 29.8448 13.8139 29.8803C13.8824 29.9553 14.1785 30.3503 14.3942 30.6545C14.6293 30.9861 14.8697 31.4432 14.8368 31.496C14.8198 31.523 14.8262 31.5321 14.8512 31.5168C14.8758 31.5019 14.9676 31.6045 15.0554 31.7449C15.2762 32.0983 15.5239 32.2905 15.8062 32.3275C15.997 32.3525 16.0662 32.3395 16.2834 32.2376C16.4232 32.172 16.5571 32.1231 16.581 32.1288C16.6049 32.1345 16.6131 32.1279 16.5992 32.1142C16.5853 32.1005 16.6538 32.006 16.7514 31.9041C17.06 31.582 17.3066 30.9956 17.3882 30.3894C17.4268 30.1034 17.4269 29.7386 17.389 28.8715C17.3107 27.0847 17.2539 26.0526 17.2056 25.54C17.0997 24.4142 17.1161 19.4681 17.2321 17.5952C17.3298 16.0166 17.4288 13.0773 17.4286 11.7618C17.4282 9.32876 17.144 7.40801 16.6204 6.29921C16.3681 5.76481 15.9281 5.26781 15.5653 5.10732C15.3391 5.00726 14.7183 4.96479 14.494 5.03397ZM13.7114 28.3528C13.6966 28.3765 13.7053 28.3958 13.7306 28.3958C13.7559 28.3958 13.7766 28.4178 13.7766 28.4448C13.7766 28.4717 13.8045 28.5151 13.8386 28.5414C13.888 28.5795 14.6272 29.4871 14.9267 29.8774C14.9629 29.9246 15.0369 30.021 15.0911 30.0916C15.1453 30.1623 15.219 30.2522 15.2549 30.2916C15.2908 30.3309 15.3885 30.4567 15.472 30.5712C15.5555 30.6856 15.6396 30.7906 15.6589 30.8045C15.7423 30.8648 15.5502 30.9397 15.3648 30.9191C15.0562 30.8847 14.7921 30.691 14.185 30.0537C14.0447 29.9064 13.7347 29.5049 13.6019 29.2986C13.468 29.0906 13.4506 29.0303 13.4506 28.7771C13.4506 28.5557 13.4694 28.4702 13.5334 28.4003C13.6159 28.3102 13.7626 28.2712 13.7114 28.3528Z" fill="black"/>
<path d="M21.7239 12.0121L23.3504 12.1274C24.1499 14.9802 23.5227 18.1067 21.5499 20.4496C21.3155 20.7218 21.348 21.1297 21.6325 21.365C21.9047 21.5994 22.3192 21.5612 22.5479 21.2824C24.7018 18.7249 25.4564 15.3616 24.7323 12.2253C24.3663 10.6261 23.5451 8.85953 22.0606 7.34703L21.7239 12.0121ZM7.46482 17.153L5.83833 17.0377C5.03883 14.1849 5.66602 11.0583 7.63881 8.71542C7.87319 8.4432 7.84065 8.0353 7.5562 7.80005C7.28398 7.56567 6.86953 7.6039 6.64083 7.88267C4.48691 10.4401 3.73232 13.8035 4.45642 16.9397C4.82241 18.5389 5.64359 20.3055 7.12804 21.818L7.46482 17.153Z" fill="black"/>
</svg>
