<svg width="93" height="102" viewBox="0 0 93 102" fill="none" xmlns="http://www.w3.org/2000/svg">
<path fill-rule="evenodd" clip-rule="evenodd" d="M46.2633 15.8666C44.7287 16.3402 43.7535 18.3684 43.5056 21.6019C43.4194 22.726 43.6441 28.0358 43.8757 30.3494C44.353 35.1173 44.0988 41.5462 43.1772 48.0136C43.0181 49.1303 42.8067 50.6835 42.7075 51.4652C42.6083 52.2469 42.4584 53.2519 42.3745 53.6986C42.2905 54.1453 41.9422 56.2772 41.6003 58.4361C41.2582 60.5951 40.8611 63.062 40.7176 63.9181C40.5741 64.7743 40.3265 66.2666 40.1672 67.2344C40.0079 68.2022 39.7893 69.5118 39.6813 70.1446C39.5733 70.7774 39.3599 72.1784 39.2073 73.2578C39.0546 74.3373 38.8688 75.6469 38.7945 76.168C38.4774 78.3891 38.3522 80.4964 38.4204 82.4622C38.4867 84.3787 38.5361 84.699 38.991 86.1641C39.6465 88.2751 40.579 90.0476 41.7204 91.3522C42.6751 92.4432 43.2653 93.1352 43.591 93.545C43.7795 93.7822 44.0173 94.0678 44.1197 94.1798C44.3356 94.4162 45.2688 95.6613 45.9485 96.6199C46.6896 97.6652 47.4474 99.1061 47.3436 99.2723C47.2901 99.3576 47.3101 99.3863 47.3892 99.3379C47.4665 99.2908 47.756 99.6143 48.0326 100.057C48.7286 101.171 49.5093 101.777 50.3991 101.893C51.0004 101.972 51.2185 101.931 51.9033 101.61C52.3437 101.403 52.7658 101.249 52.8411 101.267C52.9165 101.285 52.9424 101.264 52.8986 101.221C52.8549 101.178 53.0707 100.88 53.3782 100.559C54.3509 99.5435 55.1282 97.6951 55.3856 95.7845C55.507 94.8829 55.5075 93.7332 55.3879 91.0002C55.1412 85.3683 54.9621 82.1153 54.81 80.4995C54.476 76.9512 54.5278 61.3616 54.8934 55.4583C55.2015 50.4826 55.5135 41.2183 55.5129 37.0722C55.5115 29.4033 54.6158 23.3493 52.9654 19.8545C52.1701 18.1701 50.7834 16.6036 49.6399 16.0978C48.9269 15.7824 46.9701 15.6485 46.2633 15.8666ZM43.7966 89.3654C43.75 89.4399 43.7773 89.5008 43.857 89.5008C43.9368 89.5008 44.0021 89.5702 44.0021 89.6551C44.0021 89.74 44.09 89.877 44.1973 89.9597C44.3532 90.0797 46.6832 92.9405 47.627 94.1706C47.7412 94.3195 47.9745 94.6234 48.1452 94.8459C48.3161 95.0686 48.5484 95.3521 48.6615 95.4762C48.7745 95.6002 49.0824 95.9966 49.3458 96.3574C49.6091 96.7181 49.8741 97.049 49.9347 97.0928C50.1978 97.2829 49.5921 97.519 49.0078 97.4539C48.0352 97.3456 47.2028 96.735 45.2893 94.7263C44.8471 94.2621 43.8699 92.9967 43.4514 92.3464C43.0294 91.6906 42.9743 91.5008 42.9743 90.7025C42.9743 90.0049 43.0337 89.7352 43.2354 89.515C43.4955 89.2312 43.9577 89.108 43.7966 89.3654Z" fill="black"/>
<path d="M69.0509 37.8609L74.1774 38.2242C76.6974 47.216 74.7205 57.0706 68.5025 64.4552C67.7637 65.3132 67.8663 66.5989 68.7629 67.3404C69.6209 68.0791 70.9272 67.9587 71.648 67.08C78.437 59.0192 80.8154 48.4183 78.5331 38.533C77.3795 33.4926 74.7912 27.9244 70.1124 23.1571L69.0509 37.8609ZM24.1078 54.0645L18.9812 53.7011C16.4613 44.7094 18.4381 34.8548 24.6562 27.4702C25.3949 26.6122 25.2923 25.3265 24.3958 24.585C23.5378 23.8463 22.2315 23.9667 21.5106 24.8454C14.7217 32.9062 12.3433 43.5071 14.6256 53.3924C15.7792 58.4328 18.3674 64.001 23.0463 68.7683L24.1078 54.0645Z" fill="black"/>
</svg>
