<svg width="90" height="38" viewBox="0 0 90 38" fill="none" xmlns="http://www.w3.org/2000/svg">
<path fill-rule="evenodd" clip-rule="evenodd" d="M77.8447 2.95187C76.7077 4.54987 75.7767 6.33887 75.7767 6.92887C75.7767 7.51887 74.6517 8.73887 73.2767 9.63987C70.5177 11.4479 69.9277 14.0479 72.2767 14.0479C73.1017 14.0479 73.7767 14.4309 73.7767 14.8999C73.7767 16.8489 38.8147 17.8199 31.3057 16.0799C28.5817 15.4479 25.9207 13.6829 22.8297 10.4579C20.3517 7.87287 16.8657 5.14787 15.0827 4.40287C10.4847 2.48087 4.42565 2.67187 2.50965 4.79787C-6.17435 14.4339 8.67665 27.6519 31.6917 30.7699C41.7117 32.1279 68.4647 31.8719 72.3487 30.3819C73.1987 30.0559 74.1027 30.7689 74.6477 32.1959C76.0567 35.8809 79.2697 38.2359 82.3897 37.8729C88.5717 37.1529 91.3157 24.9399 88.3917 11.1529C86.0567 0.139874 82.0597 -2.96713 77.8447 2.95187Z" fill="black"/>
</svg>
