<svg width="47" height="49" viewBox="0 0 47 49" fill="none" xmlns="http://www.w3.org/2000/svg">
<path fill-rule="evenodd" clip-rule="evenodd" d="M24.7365 0.3926C23.8109 0.632043 21.0846 0.863804 18.6781 0.907885L14.3025 0.987701L17.0901 1.22881C21.5457 1.61419 20.7729 1.98955 15.871 1.82091C13.4019 1.73608 11.5843 1.77749 11.8321 1.91274C13.8899 3.03582 24.446 3.18609 26.4867 2.1218C27.87 1.40013 27.8195 1.37809 27.6741 2.6451C27.6058 3.24186 27.6967 4.10613 27.8764 4.56531C28.4758 6.09747 28.7098 4.43607 28.2157 2.15552C27.6983 -0.231553 27.5132 -0.325393 24.7365 0.3926ZM7.51242 0.5726C5.94195 0.880836 4.20554 1.68699 3.83665 2.27909C3.70303 2.49348 3.62495 3.58417 3.66332 4.70256C3.74443 7.06793 4.30483 7.80162 6.72954 8.71665C7.56257 9.03089 10.3478 10.4422 12.9189 11.8524C19.1378 15.2641 20.128 15.8552 22.2125 17.4024C23.7341 18.5318 23.8953 18.7532 23.3511 18.9652C23.0024 19.1012 19.8931 19.2227 16.4415 19.2357C9.86544 19.2601 7.58142 19.6458 4.35061 21.2762C2.03327 22.4457 0.00774471 25.4041 3.42354e-06 27.6306C-0.00100631 27.9188 0.221471 28.9009 0.494436 29.813C1.34261 32.6475 3.36814 34.191 8.74901 36.1029C15.3352 38.4432 21.0546 41.8352 26.2063 46.4557C28.807 48.7887 30.0157 49.5841 29.4082 48.5633C28.5182 47.0685 27.1258 45.6465 24.7563 43.8135C20.7049 40.6797 16.8531 38.6873 8.9173 35.6203C5.37616 34.2518 3.57547 33.1818 2.53376 31.8267C1.60649 30.6208 1.43887 30.0998 2.1016 30.4842C2.33316 30.6184 2.27224 30.4394 1.96663 30.0865C1.12013 29.1083 0.695373 27.1477 1.01781 25.704C1.38233 24.071 3.44353 22.2122 5.99984 21.2111C7.7211 20.5372 8.68068 20.446 15.8171 20.279C24.4039 20.0783 25.4594 19.8619 26.9333 18.0028C27.7283 16.9999 27.8195 14.8486 27.0925 14.2499C26.6597 13.8935 26.5876 14.0047 26.5876 15.0283C26.5876 16.4526 26.0195 17.8118 25.311 18.0816C24.6183 18.3454 22.2586 16.7522 21.8806 15.7653C21.6622 15.1959 21.3895 15.019 20.9187 15.1412C19.8578 15.4164 18.9029 14.6927 18.7504 13.4981C18.6245 12.512 18.5882 12.4816 18.3533 13.1645C18.0375 14.0822 18.02 14.0829 16.6142 13.2206C15.7932 12.7174 15.4775 12.2799 15.4698 11.6344C15.4597 10.7938 15.4321 10.7788 14.9821 11.3685C14.5163 11.9787 14.4786 11.978 13.3941 11.3498C12.6563 10.9221 12.2222 10.376 12.102 9.72284C11.9283 8.7811 11.9115 8.77275 11.7042 9.52347C11.4888 10.3032 11.4824 10.3042 10.4548 9.7018C9.6958 9.25698 9.42216 8.85022 9.42216 8.16663C9.42216 7.65535 9.2707 7.23691 9.08559 7.23691C8.90047 7.23691 8.74901 7.53747 8.74901 7.90481C8.74901 8.72199 8.84258 8.72299 6.57808 7.88244C4.45259 7.09331 3.95715 6.48653 4.43038 5.25124C5.27216 3.05519 6.62487 2.6815 8.22799 4.20231C9.33465 5.25225 16.6027 9.57356 19.8726 11.1261C21.6561 11.9727 21.8624 12.1724 21.7217 12.9141C21.5911 13.603 21.8695 13.9924 23.3154 15.1435C24.2787 15.9103 25.1171 16.488 25.1784 16.4272C25.2396 16.3664 24.8983 15.7012 24.4201 14.9492C23.4716 13.4591 23.8556 13.1151 25.1356 14.308C25.7196 14.8523 25.9145 14.9101 25.9145 14.5387C25.9145 13.8391 25.1922 13.0029 24.3999 12.7858C24.0296 12.6843 24.5598 12.6579 25.5779 12.7271L27.4291 12.853L26.2511 12.3256C25.6031 12.0354 24.3157 11.7693 23.3901 11.7339C21.9469 11.6785 20.9345 11.2336 16.282 8.60911C11.2653 5.77989 9.40399 4.47214 9.81394 4.06539C9.90347 3.97622 11.7833 4.50887 13.9909 5.24891C16.1985 5.98894 18.9894 6.71996 20.1927 6.87291C22.8277 7.20819 26.5462 6.76237 27.2547 6.02634C27.7175 5.54545 27.6862 5.52241 26.9242 5.78189C26.4614 5.93918 24.6439 6.05873 22.8853 6.04705C20.2448 6.03001 18.9514 5.81428 15.4624 4.80943C13.1387 4.13986 10.5638 3.49734 9.74057 3.38112C8.91763 3.26491 7.7736 3.02847 7.19873 2.85548C6.52726 2.65378 5.83492 2.66179 5.26341 2.87719C4.29137 3.24387 4.21026 3.15437 4.69661 2.25304C4.87399 1.92343 5.74505 1.47293 6.63193 1.25186C9.61671 0.506813 10.2801 0.292081 9.59045 0.294753C9.22022 0.296089 8.2852 0.420987 7.51242 0.5726ZM11.5258 0.797016C12.035 0.873491 12.8677 0.873491 13.377 0.797016C13.8862 0.720541 13.4695 0.658093 12.4514 0.658093C11.4332 0.658093 11.0165 0.720541 11.5258 0.797016ZM28.0629 13.5222C28.5543 14.0735 28.6579 14.5721 28.5253 15.7396C28.221 18.4179 26.5001 20.0953 22.6456 21.4695L20.3609 22.2844L22.2027 22.1144C25.7731 21.7851 28.8084 19.3974 29.1837 16.6229C29.3318 15.5262 29.4613 15.3188 29.8161 15.611C30.0615 15.8131 30.4038 16.6039 30.5764 17.3683L30.8911 18.7582L30.9271 17.0631C30.9655 15.2514 30.6269 14.7561 28.4388 13.425L27.4291 12.8105L28.0629 13.5222ZM29.8322 22.2129C28.2587 23.9381 23.0273 25.6402 16.3957 26.5847C11.9495 27.2178 10.7685 27.2158 10.7685 26.575C10.7685 26.0824 13.2053 24.6748 14.7573 24.2714C15.5627 24.062 16.1598 23.8289 16.0837 23.7538C15.8454 23.5173 11.7392 24.2757 10.5181 24.7817C9.29123 25.2903 8.74901 25.1908 8.74901 24.4564C8.74901 23.8616 9.49789 23.2862 11.0179 22.7125L12.2831 22.2346L10.9792 22.4023C9.29157 22.6193 8.41243 23.4265 8.41243 24.7586C8.41243 26.7794 11.5503 28.7998 16.6586 30.0681C21.5178 31.2743 28.2042 32.5176 33.0018 33.107C37.5486 33.6654 44.6137 33.7946 44.9066 33.3244C45.0092 33.1595 42.8316 33.0175 39.9619 33.0025C37.1414 32.9875 34.0765 32.8372 33.1509 32.6686C31.6609 32.3971 31.9308 32.3533 35.507 32.2892C41.9699 32.173 41.7229 31.799 34.8779 31.3378C27.2042 30.8208 18.1826 29.5575 15.2497 28.589C14.0572 28.1953 13.1333 27.8219 13.1965 27.7592C13.2595 27.6964 14.6704 27.478 16.3314 27.2739C17.9921 27.0699 20.3357 26.6661 21.539 26.3769C24.3921 25.6907 28.8935 23.5998 29.9278 22.4801C30.3768 21.9942 30.6653 21.5968 30.569 21.5968C30.4731 21.5968 30.1416 21.874 29.8322 22.2129ZM5.35698 23.3153C4.72253 24.4911 5.17623 26.8562 6.24924 27.9672C7.47607 29.2379 7.98632 29.2239 7.06848 27.9452C6.16544 26.6868 5.86992 24.9456 6.33507 23.6222C6.62554 22.7947 6.60332 22.5986 6.21895 22.5986C5.95743 22.5986 5.56936 22.9212 5.35698 23.3153ZM8.35285 27.4973C9.37572 29.3938 12.3329 31.1491 15.8171 31.9279C16.8353 32.1553 17.9712 32.4204 18.3415 32.5169C19.811 32.8997 18.2466 32.024 16.1537 31.2927C13.2669 30.2835 10.8984 29.0896 9.29123 27.8333C8.26164 27.0285 8.06138 26.9567 8.35285 27.4973ZM14.3025 34.1319C14.8579 34.3844 15.5395 34.5861 15.8171 34.5804C16.0948 34.5747 15.7919 34.3674 15.144 34.1199C13.6072 33.5328 13.0027 33.5415 14.3025 34.1319ZM16.5182 34.7481C16.5956 34.8182 19.4606 35.6481 22.8853 36.5921C26.31 37.5366 29.945 38.6312 30.9631 39.0253C33.266 39.9163 36.685 41.5844 36.685 41.8175C36.685 41.913 36.4403 42.3618 36.1414 42.8143C35.5356 43.732 35.7463 43.8111 37.3339 43.2618C38.2457 42.9465 38.3881 42.7602 38.2211 42.1007C38.0033 41.2401 38.0922 41.199 41.2018 40.7158C42.9965 40.4369 43.5047 39.8792 42.4664 39.3279C40.8649 38.4773 30.7487 36.1286 31.3182 36.7394C31.4212 36.8496 33.0116 37.3362 34.8523 37.8207C36.6934 38.305 38.5594 38.8871 38.9989 39.1135L39.798 39.5252L38.7808 40.2442L37.7634 40.9629L35.6234 39.9691C33.3747 38.9251 29.5822 37.7984 21.6403 35.8144C16.941 34.6409 16.2392 34.4946 16.5182 34.7481ZM37.6947 34.7143C37.7873 34.8052 39.2261 35.0556 40.8922 35.2704C45.0947 35.8124 45.436 35.9196 45.436 36.698C45.436 37.2684 45.2751 37.3392 44.3421 37.1796C43.7407 37.0764 42.4909 36.9094 41.5653 36.8085L39.8825 36.6249L41.9019 37.5963C45.3236 39.2427 45.2536 39.2507 46.2515 37.0874C46.7338 36.0421 47.0657 35.1248 46.989 35.0486C46.9122 34.9725 44.7517 34.8289 42.188 34.7297C39.624 34.6302 37.6021 34.6235 37.6947 34.7143ZM18.5098 38.4997C22.583 40.649 28.0592 44.1331 30.3664 46.0429C32.0015 47.3968 32.646 47.4545 32.646 46.2476C32.646 45.6639 32.7968 45.5878 33.6265 45.7524C34.2518 45.8763 34.7443 45.7825 34.9866 45.4926C35.4144 44.9813 34.5803 44.2733 32.057 43.0063C30.255 42.1013 30.2247 42.283 31.985 43.4388C32.7319 43.9294 33.2532 44.4754 33.1432 44.652C32.7329 45.3106 31.5289 44.9312 29.5088 43.5062C26.8872 41.6568 21.8214 38.9819 18.4169 37.6491C14.5196 36.1233 14.5509 36.4105 18.5098 38.4997Z" fill="black"/>
</svg>
