<svg width="48" height="49" viewBox="0 0 48 49" fill="none" xmlns="http://www.w3.org/2000/svg">
<path fill-rule="evenodd" clip-rule="evenodd" d="M25.2517 0.3926C24.3144 0.632043 21.5536 0.863804 19.1166 0.907885L14.6857 0.987701L17.5086 1.22881C22.0206 1.61419 21.238 1.98955 16.274 1.82091C13.7737 1.73608 11.9331 1.77749 12.184 1.91274C14.2679 3.03582 24.9576 3.18609 27.0241 2.1218C28.4249 1.40013 28.3738 1.37809 28.2266 2.6451C28.1574 3.24186 28.2494 4.10613 28.4314 4.56531C29.0384 6.09747 29.2753 4.43607 28.775 2.15552C28.2511 -0.231553 28.0636 -0.325393 25.2517 0.3926ZM7.80966 0.5726C6.21931 0.880836 4.46093 1.68699 4.08737 2.27909C3.95205 2.49348 3.87298 3.58417 3.91184 4.70256C3.99398 7.06793 4.56147 7.80162 7.01687 8.71665C7.86045 9.03089 10.6809 10.4422 13.2846 11.8524C19.5822 15.2641 20.585 15.8552 22.6958 17.4024C24.2367 18.5318 24.4 18.7532 23.8488 18.9652C23.4957 19.1012 20.3471 19.2227 16.8518 19.2357C10.1925 19.2601 7.87954 19.6458 4.60783 21.2762C2.26116 22.4457 0.209991 25.4041 0.202152 27.6306C0.201129 27.9188 0.426423 28.9009 0.702843 29.813C1.56176 32.6475 3.61292 34.191 9.0619 36.1029C15.7314 38.4432 21.5233 41.8352 26.7402 46.4557C29.3738 48.7887 30.5978 49.5841 29.9826 48.5633C29.0814 47.0685 27.6713 45.6465 25.2718 43.8135C21.1692 40.6797 17.2686 38.6873 9.23232 35.6203C5.64636 34.2518 3.82288 33.1818 2.76798 31.8267C1.82897 30.6208 1.65924 30.0998 2.33035 30.4842C2.56484 30.6184 2.50315 30.4394 2.19367 30.0865C1.33646 29.1083 0.906323 27.1477 1.23285 25.704C1.60197 24.071 3.68927 22.2122 6.27794 21.2111C8.02098 20.5372 8.99271 20.446 16.2195 20.279C24.915 20.0783 25.9838 19.8619 27.4764 18.0028C28.2814 16.9999 28.3738 14.8486 27.6376 14.2499C27.1993 13.8935 27.1263 14.0047 27.1263 15.0283C27.1263 16.4526 26.551 17.8118 25.8335 18.0816C25.1321 18.3454 22.7425 16.7522 22.3597 15.7653C22.1385 15.1959 21.8624 15.019 21.3856 15.1412C20.3113 15.4164 19.3443 14.6927 19.1899 13.4981C19.0624 12.512 19.0256 12.4816 18.7877 13.1645C18.468 14.0822 18.4503 14.0829 17.0266 13.2206C16.1953 12.7174 15.8756 12.2799 15.8678 11.6344C15.8575 10.7938 15.8296 10.7788 15.3739 11.3685C14.9022 11.9787 14.864 11.978 13.7658 11.3498C13.0187 10.9221 12.579 10.376 12.4573 9.72284C12.2815 8.7811 12.2644 8.77275 12.0545 9.52347C11.8363 10.3032 11.8299 10.3042 10.7893 9.7018C10.0207 9.25698 9.74358 8.85022 9.74358 8.16663C9.74358 7.65535 9.5902 7.23691 9.40274 7.23691C9.21528 7.23691 9.0619 7.53747 9.0619 7.90481C9.0619 8.72199 9.15666 8.72299 6.8635 7.88244C4.7111 7.09331 4.20939 6.48653 4.68861 5.25124C5.54104 3.05519 6.91087 2.6815 8.53429 4.20231C9.65496 5.25225 17.015 9.57356 20.3263 11.1261C22.1324 11.9727 22.3413 12.1724 22.1988 12.9141C22.0666 13.603 22.3485 13.9924 23.8127 15.1435C24.7882 15.9103 25.6372 16.488 25.6992 16.4272C25.7613 16.3664 25.4157 15.7012 24.9313 14.9492C23.9709 13.4591 24.3598 13.1151 25.656 14.308C26.2473 14.8523 26.4447 14.9101 26.4447 14.5387C26.4447 13.8391 25.7132 13.0029 24.9109 12.7858C24.536 12.6843 25.0728 12.6579 26.1038 12.7271L27.9784 12.853L26.7855 12.3256C26.1294 12.0354 24.8257 11.7693 23.8884 11.7339C22.4269 11.6785 21.4016 11.2336 16.6902 8.60911C11.61 5.77989 9.72517 4.47214 10.1403 4.06539C10.231 3.97622 12.1346 4.50887 14.3701 5.24891C16.6057 5.98894 19.4319 6.71996 20.6504 6.87291C23.3188 7.20819 27.0844 6.76237 27.8019 6.02634C28.2705 5.54545 28.2388 5.52241 27.4672 5.78189C26.9985 5.93918 25.158 6.05873 23.3771 6.04705C20.7032 6.03001 19.3934 5.81428 15.8603 4.80943C13.5071 4.13986 10.8997 3.49734 10.066 3.38112C9.23266 3.26491 8.07415 3.02847 7.492 2.85548C6.81203 2.65378 6.11092 2.66179 5.53218 2.87719C4.54784 3.24387 4.4657 3.15437 4.95821 2.25304C5.13783 1.92343 6.01992 1.47293 6.91803 1.25186C9.94058 0.506813 10.6124 0.292081 9.914 0.294753C9.53908 0.296089 8.59223 0.420987 7.80966 0.5726ZM11.8738 0.797016C12.3895 0.873491 13.2327 0.873491 13.7484 0.797016C14.2641 0.720541 13.8422 0.658093 12.8111 0.658093C11.7801 0.658093 11.3581 0.720541 11.8738 0.797016ZM28.6202 13.5222C29.1179 14.0735 29.2228 14.5721 29.0885 15.7396C28.7804 18.4179 27.0377 20.0953 23.1344 21.4695L20.8208 22.2844L22.6859 22.1144C26.3015 21.7851 29.3752 19.3974 29.7552 16.6229C29.9052 15.5262 30.0364 15.3188 30.3957 15.611C30.6441 15.8131 30.9908 16.6039 31.1656 17.3683L31.4843 18.7582L31.5208 17.0631C31.5596 15.2514 31.2167 14.7561 29.0009 13.425L27.9784 12.8105L28.6202 13.5222ZM30.412 22.2129C28.8186 23.9381 23.5209 25.6402 16.8054 26.5847C12.3029 27.2178 11.1069 27.2158 11.1069 26.575C11.1069 26.0824 13.5746 24.6748 15.1462 24.2714C15.9618 24.062 16.5665 23.8289 16.4895 23.7538C16.2481 23.5173 12.0899 24.2757 10.8533 24.7817C9.61099 25.2903 9.0619 25.1908 9.0619 24.4564C9.0619 23.8616 9.82027 23.2862 11.3595 22.7125L12.6407 22.2346L11.3203 22.4023C9.61134 22.6193 8.72107 23.4265 8.72107 24.7586C8.72107 26.7794 11.8987 28.7998 17.0716 30.0681C21.9923 31.2743 28.7634 32.5176 33.6217 33.107C38.2261 33.6654 45.3806 33.7946 45.6771 33.3244C45.7811 33.1595 43.5759 33.0175 40.6699 33.0025C37.8137 32.9875 34.71 32.8372 33.7727 32.6686C32.2638 32.3971 32.5371 32.3533 36.1586 32.2892C42.7033 32.173 42.4532 31.799 35.5215 31.3378C27.7508 30.8208 18.6149 29.5575 15.6449 28.589C14.4373 28.1953 13.5017 27.8219 13.5657 27.7592C13.6295 27.6964 15.0583 27.478 16.7403 27.2739C18.422 27.0699 20.7953 26.6661 22.0138 26.3769C24.903 25.6907 29.4614 23.5998 30.5088 22.4801C30.9635 21.9942 31.2556 21.5968 31.1581 21.5968C31.061 21.5968 30.7252 21.874 30.412 22.2129ZM5.62693 23.3153C4.98445 24.4911 5.4439 26.8562 6.5305 27.9672C7.77285 29.2379 8.28957 29.2239 7.3601 27.9452C6.44563 26.6868 6.14637 24.9456 6.61741 23.6222C6.91156 22.7947 6.88906 22.5986 6.49982 22.5986C6.23499 22.5986 5.842 22.9212 5.62693 23.3153ZM8.66074 27.4973C9.69654 29.3938 12.6912 31.1491 16.2195 31.9279C17.2505 32.1553 18.4009 32.4204 18.7758 32.5169C20.2639 32.8997 18.6797 32.024 16.5603 31.2927C13.637 30.2835 11.2385 29.0896 9.61099 27.8333C8.56837 27.0285 8.36557 26.9567 8.66074 27.4973ZM14.6857 34.1319C15.2481 34.3844 15.9383 34.5861 16.2195 34.5804C16.5007 34.5747 16.1939 34.3674 15.5378 34.1199C13.9816 33.5328 13.3694 33.5415 14.6857 34.1319ZM16.9295 34.7481C17.0079 34.8182 19.9091 35.6481 23.3771 36.5921C26.8451 37.5366 30.5262 38.6312 31.5572 39.0253C33.8893 39.9163 37.3515 41.5844 37.3515 41.8175C37.3515 41.913 37.1037 42.3618 36.801 42.8143C36.1875 43.732 36.4009 43.8111 38.0086 43.2618C38.932 42.9465 39.0761 42.7602 38.9071 42.1007C38.6866 41.2401 38.7765 41.199 41.9255 40.7158C43.7429 40.4369 44.2576 39.8792 43.2061 39.3279C41.5844 38.4773 31.3401 36.1286 31.9168 36.7394C32.0211 36.8496 33.6316 37.3362 35.4956 37.8207C37.36 38.305 39.2496 38.8871 39.6948 39.1135L40.5039 39.5252L39.4739 40.2442L38.4435 40.9629L36.2765 39.9691C33.9993 38.9251 30.1588 37.7984 22.1164 35.8144C17.3576 34.6409 16.6469 34.4946 16.9295 34.7481ZM38.374 34.7143C38.4677 34.8052 39.9248 35.0556 41.612 35.2704C45.8677 35.8124 46.2133 35.9196 46.2133 36.698C46.2133 37.2684 46.0504 37.3392 45.1056 37.1796C44.4965 37.0764 43.2309 36.9094 42.2936 36.8085L40.5895 36.6249L42.6345 37.5963C46.0994 39.2427 46.0285 39.2507 47.0391 37.0874C47.5276 36.0421 47.8636 35.1248 47.7859 35.0486C47.7082 34.9725 45.5204 34.8289 42.9242 34.7297C40.3277 34.6302 38.2803 34.6235 38.374 34.7143ZM18.9462 38.4997C23.071 40.649 28.6165 44.1331 30.9529 46.0429C32.6087 47.3968 33.2614 47.4545 33.2614 46.2476C33.2614 45.6639 33.4141 45.5878 34.2543 45.7524C34.8876 45.8763 35.3862 45.7825 35.6316 45.4926C36.0648 44.9813 35.2202 44.2733 32.665 43.0063C30.8401 42.1013 30.8094 42.283 32.592 43.4388C33.3483 43.9294 33.8763 44.4754 33.7648 44.652C33.3494 45.3106 32.1302 44.9312 30.0845 43.5062C27.4297 41.6568 22.2997 38.9819 18.8521 37.6491C14.9056 36.1233 14.9373 36.4105 18.9462 38.4997Z" fill="black"/>
</svg>
