<svg width="6" height="26" viewBox="0 0 6 26" fill="none" xmlns="http://www.w3.org/2000/svg">
<path fill-rule="evenodd" clip-rule="evenodd" d="M2.95542 0.0645997C2.80578 0.133071 2.39718 0.540402 2.39718 0.621115C2.39718 0.64432 2.37731 0.683634 2.35304 0.708487C2.21414 0.850743 1.53042 2.05932 1.45962 2.2877C1.44891 2.32231 1.42662 2.34201 1.41003 2.33156C1.39348 2.32106 1.38879 2.3361 1.39959 2.36495C1.41043 2.39381 1.39512 2.45511 1.36564 2.50122C1.33615 2.54729 1.32012 2.58503 1.33004 2.58503C1.33992 2.58503 1.32219 2.6342 1.29057 2.69433C1.25898 2.75442 1.22998 2.82633 1.22617 2.85407C1.22043 2.89577 1.05725 3.41223 0.992398 3.59394C0.959002 3.68757 0.870339 4.10186 0.80463 4.47139C0.698662 5.06732 0.688548 5.37749 0.658698 8.94117C0.598112 16.1689 0.563008 18.6869 0.521632 18.7674C0.50564 18.7986 0.49152 18.8743 0.490272 18.9356C0.488991 18.9969 0.476086 19.0774 0.461539 19.1144C0.447024 19.1513 0.446203 19.2043 0.459733 19.2321C0.473229 19.2598 0.493884 19.634 0.505607 20.0637C0.51733 20.4933 0.53283 20.8641 0.540054 20.8876C0.547312 20.9111 0.562483 21.1725 0.573779 21.4685C0.600542 22.169 0.650029 23.0881 0.677022 23.3854C0.718825 23.8458 0.935818 24.3569 1.24147 24.7148C1.32002 24.8067 1.37946 24.8833 1.37355 24.8849C1.36761 24.8865 1.21501 24.8947 1.0344 24.9031C0.853789 24.9114 0.630917 24.9318 0.539102 24.9484C0.356523 24.9813 0.120647 25.1061 0.149774 25.1543C0.159823 25.171 0.153485 25.1846 0.135621 25.1846C0.0896478 25.1846 0 25.2823 0 25.3324C0 25.4028 0.322929 25.6485 0.509088 25.7199C0.605369 25.7568 0.91073 25.8349 1.18765 25.8935L1.69116 26L2.61062 25.9795C3.44675 25.9609 3.91456 25.9171 4.11388 25.8387C4.146 25.826 4.18816 25.7852 4.2076 25.748C4.23703 25.6917 4.22855 25.6684 4.15713 25.6091L4.07129 25.5378L4.13923 25.4369C4.1766 25.3814 4.21966 25.3047 4.23492 25.2666C4.25614 25.2135 4.33124 25.1795 4.55316 25.1221C4.90817 25.0305 5.14099 24.8923 5.36771 24.6385C5.62187 24.3539 5.77575 24.0355 5.87604 23.5866C5.91242 23.4238 5.93216 22.3816 5.94234 20.0896C5.94493 19.5052 5.96083 19.0655 5.98201 18.9924C6.00976 18.8966 6.00624 18.8353 5.96565 18.7065C5.92218 18.5685 5.91118 18.2449 5.89614 16.6593C5.87315 14.2391 5.84924 12.3915 5.82803 11.3962C5.81877 10.9615 5.79641 9.45571 5.77835 8.04996C5.76032 6.64421 5.73086 5.32446 5.71293 5.11713C5.60263 3.84216 5.17416 2.54666 4.46768 1.3519C3.97005 0.510438 3.72577 0.207899 3.42819 0.064667C3.24913 -0.0215276 3.14368 -0.0215613 2.95542 0.0645997Z" fill="black"/>
</svg>
