<svg width="16" height="28" viewBox="0 0 16 28" fill="none" xmlns="http://www.w3.org/2000/svg">
<path fill-rule="evenodd" clip-rule="evenodd" d="M0.391682 0.0333579C0.207347 0.0815365 0.142286 0.145903 0.118162 0.304057C0.10674 0.378918 0.0755062 0.468863 0.0487202 0.503928C0.0219342 0.538993 0 0.582897 0 0.60151C0 0.636119 0.168701 0.764419 0.214221 0.764419C0.279552 0.764419 0.475847 0.904945 0.508328 0.974979C0.546704 1.05777 0.701423 1.13407 0.784679 1.1113C0.844046 1.09504 1.04449 1.25291 1.04449 1.3159C1.04449 1.38558 1.20311 1.46092 1.34985 1.46092C1.50184 1.46092 1.56966 1.50305 1.61622 1.6263C1.65932 1.74039 1.7328 1.78674 1.89941 1.8049C2.07876 1.82445 2.167 1.88526 2.14254 1.97244C2.10683 2.09978 2.2789 2.25073 2.42274 2.21818C2.45663 2.2105 2.52429 2.21504 2.57307 2.22827C2.65202 2.24967 2.66175 2.26507 2.66175 2.3688C2.66175 2.51413 2.7562 2.58973 2.93777 2.58973C3.09053 2.58973 3.14848 2.63959 3.13831 2.76234C3.12749 2.89285 3.20155 2.96601 3.37763 2.99882C3.54967 3.03086 3.60802 3.07786 3.58366 3.16473C3.56294 3.23851 3.67865 3.35379 3.84273 3.42287C3.95318 3.46936 3.97902 3.50337 3.99438 3.6224C4.00554 3.70886 4.13512 3.81461 4.2299 3.81461C4.29803 3.81461 4.38175 3.97087 4.35834 4.0543C4.33704 4.13018 4.41568 4.22896 4.59301 4.34904C4.67006 4.40121 4.686 4.42825 4.66868 4.47742C4.64709 4.53873 4.76046 4.75129 4.81478 4.75129C4.82815 4.75129 4.87364 4.77422 4.91582 4.80223C4.97701 4.84286 4.98833 4.86919 4.97175 4.93216C4.94389 5.0381 5.03489 5.19467 5.16182 5.25908C5.24922 5.30344 5.25929 5.32021 5.24076 5.39051C5.21 5.50749 5.27883 5.6595 5.3976 5.73681C5.48719 5.79515 5.4977 5.81477 5.47853 5.88766C5.44534 6.01375 5.50589 6.16521 5.61896 6.23882C5.7158 6.30186 5.71694 6.30556 5.68975 6.46648C5.6594 6.64634 5.67873 6.69224 5.81088 6.75397C5.89043 6.79112 5.89511 6.80337 5.87547 6.92254C5.85721 7.03333 5.86415 7.05805 5.92584 7.10202C5.96519 7.13008 6.02803 7.15301 6.06546 7.15301C6.15536 7.15301 6.18878 7.21282 6.26004 7.50126C6.32753 7.77441 6.31085 7.99126 6.21665 8.06545C6.18423 8.09101 6.10586 8.12408 6.04255 8.13897C5.87311 8.17884 5.77968 8.12408 5.63736 7.90149C5.51879 7.71603 5.47968 7.51459 5.54194 7.41029C5.57567 7.35375 5.53527 7.17919 5.47263 7.11098C5.44538 7.08125 5.39608 7.05694 5.36317 7.05694C5.2478 7.05694 5.22401 7.00975 5.29568 6.92317C5.34056 6.86896 5.35451 6.82443 5.33813 6.78759C5.29814 6.69736 5.15208 6.57698 5.0634 6.56111C4.99274 6.54847 4.98402 6.53692 5.00454 6.48339C5.01781 6.44878 5.02977 6.37872 5.03112 6.32766C5.03318 6.25008 5.01451 6.22357 4.91741 6.16619C4.85352 6.12844 4.7861 6.09709 4.76757 6.09654C4.74904 6.09596 4.71252 6.08588 4.68644 6.07411C4.64621 6.05595 4.64793 6.03924 4.69776 5.9644C4.74527 5.89302 4.74928 5.8635 4.71852 5.81062C4.68095 5.74594 4.52775 5.66416 4.39695 5.63894C4.34183 5.62832 4.32764 5.6021 4.31908 5.49484C4.30739 5.34855 4.24176 5.27981 4.06511 5.22892C3.92956 5.18987 3.90405 5.1628 3.92754 5.08294C3.95486 4.99019 3.90082 4.93552 3.71652 4.8694C3.51911 4.79858 3.50526 4.78597 3.50459 4.67647C3.50395 4.56628 3.40149 4.47177 3.2594 4.45023C3.10974 4.42758 3.03238 4.37275 3.03238 4.28939C3.03238 4.19368 2.86961 4.0788 2.73403 4.0788C2.66058 4.0788 2.61344 4.05959 2.56297 4.00906C2.52466 3.97068 2.49329 3.92697 2.49329 3.91188C2.49329 3.84802 2.32799 3.76658 2.19837 3.76658C2.09291 3.76658 2.04258 3.74856 1.92728 3.66962C1.84945 3.61628 1.78573 3.56356 1.78573 3.55244C1.78573 3.54132 1.74278 3.51954 1.69025 3.50405C1.61262 3.48111 1.567 3.48339 1.44597 3.5162C1.36413 3.53837 1.16831 3.56385 1.01079 3.57276C0.853278 3.58169 0.690809 3.60213 0.649737 3.61815C0.528981 3.6653 0.491818 3.81168 0.555565 3.98903C0.627904 4.19031 0.693202 4.26287 1.25224 4.76332C1.982 5.41656 2.13702 5.596 2.4444 6.14321C2.55977 6.34855 2.73827 6.66246 2.8411 6.84079C3.17739 7.42405 3.42797 7.92858 3.52103 8.20977C3.57127 8.36168 3.64077 8.57243 3.67548 8.67811C3.85614 9.22849 3.9244 9.64776 3.97649 10.5274C4.02774 11.3923 4.03033 11.8164 3.99752 13.9619C3.97157 15.6564 3.974 15.8421 4.02265 15.9073C4.0955 16.0049 4.09806 16.34 4.02632 16.3911C3.98822 16.4183 3.97437 16.4932 3.97002 16.6956C3.96163 17.087 3.97754 17.5084 4.01046 17.7672C4.02632 17.8919 4.03118 18.0032 4.02127 18.0147C4.01137 18.0261 4.00517 18.182 4.00749 18.3611C4.01056 18.5954 4.02562 18.7059 4.06113 18.7549C4.09277 18.7985 4.11056 18.8938 4.11056 19.0196C4.11056 19.1277 4.12831 19.2849 4.15005 19.3689C4.18158 19.4909 4.18071 19.5334 4.14567 19.5801C4.086 19.6595 4.15254 20.2787 4.2271 20.3374C4.25655 20.3606 4.29109 20.4691 4.31194 20.6037C4.33125 20.7286 4.36292 20.8868 4.38229 20.9551C4.40884 21.0488 4.40729 21.0911 4.37609 21.1267C4.34324 21.1642 4.34365 21.2331 4.37801 21.4588C4.42987 21.7994 4.46636 21.9144 4.52785 21.9312C4.55625 21.939 4.58037 21.9972 4.59105 22.0838C4.63849 22.4677 5.00484 23.8108 5.23857 24.4575C5.57331 25.3837 5.88275 25.93 6.49697 26.6791C6.82716 27.0817 7.59014 27.583 8.21054 27.8049C8.28813 27.8326 8.37856 27.8879 8.41155 27.9277L8.47149 28H10.0197C10.8712 28 11.5577 27.9927 11.5453 27.9838C11.5328 27.975 11.3295 27.9637 11.0936 27.9588C10.6652 27.95 10.5128 27.9235 10.7115 27.8924C10.8425 27.8719 11.4144 27.6987 11.4864 27.6577C11.5158 27.641 11.593 27.6082 11.6578 27.5849C11.9938 27.4641 12.6452 27.0384 12.9664 26.7297C13.1361 26.5667 13.5135 26.1429 13.6318 25.9825C13.6794 25.918 13.8726 25.7969 14.1193 25.677C14.4394 25.5214 14.6557 25.2981 14.7427 25.0333C14.7909 24.8864 14.7926 24.8294 14.7562 24.5713C14.7333 24.4094 14.7236 24.2226 14.7346 24.1563C14.7723 23.9297 15.044 23.6382 15.3849 23.4586C15.9876 23.1413 16.1703 22.5762 15.8307 22.0797C15.5184 21.6231 14.6828 21.3991 14.0109 21.5919C13.6723 21.689 13.3668 21.8925 13.1914 22.1378C13.0974 22.2694 13.0409 22.5552 13.0754 22.7251C13.1842 23.2611 13.0349 23.5674 12.5181 23.8684C12.2028 24.052 12.0246 24.2085 11.9225 24.3914C11.8574 24.5078 11.8441 24.5803 11.8376 24.8537C11.8283 25.2506 11.8104 25.3975 11.7669 25.4364C11.7486 25.4528 11.6923 25.5269 11.6419 25.6011C11.4076 25.9458 10.7949 26.2227 10.2665 26.2227C9.47544 26.2227 8.82756 25.8786 8.49491 25.2817C8.26852 24.8754 8.20376 24.5586 8.20615 23.869C8.20797 23.3477 8.23028 23.1495 8.37233 22.392C8.39959 22.2467 8.44554 21.9873 8.47449 21.8156C8.50343 21.6438 8.57102 21.271 8.62466 20.987C8.80067 20.0552 8.85909 19.7316 8.92823 19.3057C8.96577 19.0746 9.01149 18.8044 9.02985 18.7053C9.08942 18.3839 9.19633 17.35 9.21968 16.8696C9.23989 16.4528 9.23646 16.3994 9.18855 16.3863C9.14532 16.3745 9.14134 16.359 9.16846 16.3082C9.18706 16.2734 9.19892 16.1721 9.19488 16.0831C9.1903 15.982 9.20327 15.9079 9.22952 15.8853C9.26098 15.8583 9.26968 15.7003 9.26425 15.2538C9.26028 14.9263 9.27561 14.5097 9.29835 14.328C9.34714 13.9376 9.32436 10.1455 9.27059 9.71085C9.2526 9.56555 9.21351 9.24131 9.18373 8.99033C9.05883 7.93773 8.83905 7.11165 8.45215 6.24036C8.37883 6.07524 8.30612 5.91852 8.29059 5.89211C8.27502 5.86569 8.18223 5.69276 8.08436 5.50783C7.81781 5.00426 7.42875 4.35992 7.23603 4.10282C6.9494 3.72046 6.86557 3.6115 6.83872 3.58645C6.82457 3.57324 6.69667 3.3981 6.55455 3.19725C6.34593 2.90244 6.24623 2.7916 6.03726 2.62215C5.71159 2.35809 5.4566 2.14179 5.23207 1.93908C5.00386 1.73311 4.28586 1.23907 3.95176 1.0582C3.80745 0.980071 3.51786 0.853716 3.30819 0.777389C3.09855 0.701086 2.88629 0.614768 2.83649 0.585539C2.55822 0.422245 1.57889 0.109973 1.13606 0.0433491C0.773257 -0.0112421 0.572682 -0.0139321 0.391682 0.0333579Z" fill="black"/>
</svg>
