<svg width="50" height="88" viewBox="0 0 50 88" fill="none" xmlns="http://www.w3.org/2000/svg">
<path fill-rule="evenodd" clip-rule="evenodd" d="M1.22401 0.104839C0.64796 0.256258 0.444644 0.458552 0.369256 0.955606C0.333562 1.19089 0.235957 1.47357 0.152251 1.58377C0.0685443 1.69398 0 1.83196 0 1.89046C0 1.99923 0.527192 2.40246 0.66944 2.40246C0.873599 2.40246 1.48702 2.84411 1.58852 3.06422C1.70845 3.32441 2.19195 3.56422 2.45212 3.49266C2.63764 3.44156 3.26402 3.93771 3.26402 4.1357C3.26402 4.35467 3.75973 4.59146 4.21827 4.59146C4.69324 4.59146 4.90519 4.72386 5.0507 5.11124C5.18537 5.46978 5.41501 5.61546 5.93567 5.67253C6.49613 5.73397 6.77189 5.92509 6.69545 6.1991C6.58384 6.59931 7.12156 7.07372 7.57105 6.97144C7.67697 6.94728 7.8884 6.96155 8.04086 7.00314C8.28755 7.07039 8.31798 7.11878 8.31798 7.44479C8.31798 7.90154 8.61311 8.13916 9.18053 8.13916C9.65792 8.13916 9.83902 8.29586 9.80722 8.68165C9.77342 9.09182 10.0048 9.32175 10.5551 9.42486C11.0927 9.52555 11.2751 9.67327 11.199 9.94629C11.1342 10.1782 11.4958 10.5405 12.0085 10.7576C12.3537 10.9037 12.4344 11.0106 12.4825 11.3847C12.5173 11.6564 12.9223 11.9888 13.2184 11.9888C13.4313 11.9888 13.693 12.4799 13.6198 12.7421C13.5533 12.9806 13.799 13.291 14.3532 13.6684C14.594 13.8324 14.6438 13.9174 14.5896 14.0719C14.5221 14.2646 14.8764 14.9326 15.0462 14.9326C15.088 14.9326 15.2301 15.0047 15.3619 15.0927C15.5532 15.2204 15.5885 15.3032 15.5367 15.5011C15.4497 15.834 15.734 16.3261 16.1307 16.5285C16.4038 16.668 16.4353 16.7206 16.3774 16.9416C16.2812 17.3093 16.4964 17.787 16.8675 18.03C17.1475 18.2133 17.1803 18.275 17.1204 18.5041C17.0167 18.9004 17.2059 19.3764 17.5593 19.6077C17.8619 19.8059 17.8654 19.8175 17.7805 20.3232C17.6856 20.8885 17.746 21.0328 18.159 21.2267C18.4076 21.3435 18.4222 21.382 18.3608 21.7566C18.3038 22.1048 18.3255 22.1824 18.5183 22.3206C18.6412 22.4088 18.8376 22.4809 18.9546 22.4809C19.2355 22.4809 19.3399 22.6688 19.5626 23.5754C19.7735 24.4339 19.7214 25.1154 19.427 25.3486C19.3257 25.4289 19.0808 25.5328 18.883 25.5796C18.3535 25.7049 18.0615 25.5328 17.6168 24.8332C17.2462 24.2504 17.124 23.6173 17.3186 23.2895C17.424 23.1118 17.2977 22.5632 17.102 22.3488C17.0168 22.2554 16.8628 22.179 16.7599 22.179C16.3994 22.179 16.325 22.0306 16.549 21.7585C16.6892 21.5882 16.7328 21.4482 16.6817 21.3324C16.5567 21.0488 16.1002 20.6705 15.8231 20.6206C15.6023 20.5809 15.5751 20.5446 15.6392 20.3764C15.6807 20.2676 15.718 20.0474 15.7223 19.8869C15.7287 19.6431 15.6703 19.5598 15.3669 19.3795C15.1673 19.2608 14.9566 19.1623 14.8987 19.1606C14.8408 19.1587 14.7266 19.127 14.6451 19.0901C14.5194 19.033 14.5248 18.9805 14.6805 18.7453C14.829 18.5209 14.8415 18.4281 14.7454 18.2619C14.628 18.0587 14.1492 17.8016 13.7405 17.7224C13.5682 17.689 13.5239 17.6066 13.4971 17.2695C13.4606 16.8097 13.2555 16.5937 12.7035 16.4337C12.2799 16.311 12.2002 16.2259 12.2736 15.975C12.3589 15.6834 12.1901 15.5116 11.6141 15.3038C10.9972 15.0812 10.9539 15.0416 10.9518 14.6975C10.9498 14.3512 10.6296 14.0541 10.1856 13.9864C9.71793 13.9153 9.47618 13.7429 9.47618 13.4809C9.47618 13.1801 8.96752 12.8191 8.54383 12.8191C8.3143 12.8191 8.167 12.7587 8.00927 12.5999C7.88955 12.4793 7.79153 12.3419 7.79153 12.2945C7.79153 12.0938 7.27497 11.8378 6.86992 11.8378C6.54036 11.8378 6.38305 11.7812 6.02275 11.5331C5.77952 11.3654 5.58042 11.1998 5.58042 11.1648C5.58042 11.1299 5.44617 11.0614 5.28202 11.0127C5.03943 10.9406 4.89687 10.9478 4.51867 11.0509C4.26291 11.1206 3.65096 11.2007 3.15873 11.2287C2.66649 11.2567 2.15878 11.321 2.03043 11.3713C1.65307 11.5195 1.53693 11.9796 1.73614 12.5369C1.9622 13.1696 2.16626 13.3976 3.91324 14.9704C6.19374 17.0235 6.67818 17.5874 7.63875 19.3072C7.99927 19.9526 8.5571 20.9392 8.87845 21.4996C9.92936 23.3327 10.7124 24.9184 11.0032 25.8021C11.1602 26.2796 11.3774 26.9419 11.4859 27.2741C12.0504 29.0038 12.2638 30.3215 12.4265 33.0862C12.5867 35.8044 12.5948 37.1372 12.4922 43.8803C12.4112 49.206 12.4187 49.7895 12.5708 49.9944C12.7984 50.301 12.8064 51.3541 12.5823 51.5148C12.4632 51.6002 12.4199 51.8356 12.4063 52.4718C12.3801 53.7021 12.4298 55.0265 12.5327 55.8397C12.5823 56.2315 12.5974 56.5816 12.5665 56.6175C12.5355 56.6534 12.5161 57.1434 12.5234 57.7063C12.533 58.4426 12.5801 58.79 12.691 58.944C12.7899 59.0809 12.8455 59.3806 12.8455 59.7758C12.8455 60.1156 12.901 60.6096 12.9689 60.8737C13.0674 61.2572 13.0647 61.3906 12.9552 61.5373C12.7687 61.7872 12.9767 63.733 13.2097 63.9176C13.3017 63.9904 13.4096 64.3315 13.4748 64.7545C13.5351 65.1471 13.6341 65.6442 13.6947 65.859C13.7776 66.1532 13.7728 66.2863 13.6753 66.3982C13.5726 66.5161 13.5739 66.7326 13.6813 67.4418C13.8433 68.5124 13.9574 68.8739 14.1495 68.9268C14.2383 68.9512 14.3137 69.134 14.347 69.4063C14.4953 70.6128 15.6401 74.8338 16.3705 76.8663C17.4166 79.7774 18.3836 81.4944 20.303 83.8484C21.3349 85.1139 23.7192 86.6894 25.6579 87.3867C25.9004 87.4739 26.183 87.6476 26.2861 87.7726L26.4734 88H31.3116C33.9726 88 36.1179 87.9771 36.079 87.9492C36.04 87.9213 35.4048 87.8859 34.6674 87.8706C33.3289 87.8429 32.8523 87.7596 33.4736 87.6618C33.8828 87.5973 35.6699 87.053 35.8952 86.9242C35.987 86.8717 36.228 86.7687 36.4307 86.6954C37.4805 86.3156 39.5161 84.9777 40.5201 84.0077C41.0502 83.4954 42.2298 82.1633 42.5992 81.6594C42.7481 81.4565 43.3519 81.0759 44.1229 80.699C45.1232 80.2101 45.7989 79.5083 46.0709 78.6762C46.2217 78.2146 46.2269 78.0351 46.113 77.2241C46.0415 76.7152 46.0112 76.1283 46.0456 75.92C46.1633 75.2075 47.0124 74.2914 48.0778 73.7271C49.9613 72.7297 50.5322 70.9536 49.4709 69.3933C48.495 67.9584 45.8837 67.2544 43.784 67.8601C42.7259 68.1653 41.7712 68.805 41.2232 69.576C40.9293 69.9894 40.7527 70.8878 40.8606 71.4219C41.2006 73.1063 40.7341 74.0688 39.1192 75.0148C38.1337 75.5921 37.577 76.0837 37.2577 76.6586C37.0544 77.0246 37.0128 77.2525 36.9926 78.1117C36.9633 79.3592 36.9076 79.8208 36.7716 79.943C36.7143 79.9944 36.5385 80.2274 36.3809 80.4605C35.6487 81.544 33.7341 82.4143 32.0827 82.4143C29.6108 82.4143 27.5861 81.3326 26.5466 79.4566C25.8391 78.1798 25.6368 77.1841 25.6442 75.017C25.6499 73.3785 25.7196 72.7557 26.1635 70.3748C26.2487 69.9181 26.3923 69.1029 26.4828 68.5632C26.5732 68.0235 26.7844 66.8516 26.9521 65.959C27.5021 63.0306 27.6847 62.0137 27.9007 60.6752C28.018 59.9487 28.1609 59.0995 28.2183 58.7881C28.4044 57.7779 28.7385 54.5287 28.8115 53.0187C28.8747 51.7089 28.8639 51.541 28.7142 51.4997C28.5791 51.4626 28.5667 51.4141 28.6515 51.2544C28.7096 51.1449 28.7466 50.8266 28.734 50.547C28.7197 50.2293 28.7602 49.9962 28.8422 49.9253C28.9406 49.8404 28.9677 49.3437 28.9508 47.9407C28.9384 46.9114 28.9863 45.602 29.0573 45.0309C29.2098 43.8038 29.1386 31.8859 28.9706 30.5198C28.9144 30.0631 28.7922 29.0441 28.6991 28.2553C28.3088 24.9471 27.622 22.3509 26.413 19.6125C26.1839 19.0936 25.9566 18.6011 25.9081 18.518C25.8595 18.435 25.5695 17.8915 25.2636 17.3103C24.4307 15.7277 23.2149 13.7026 22.6126 12.8946C21.7169 11.6929 21.4549 11.3504 21.371 11.2717C21.3268 11.2302 20.9271 10.6798 20.483 10.0485C19.831 9.12194 19.5195 8.77359 18.8664 8.24106C17.8487 7.41112 17.0519 6.73133 16.3502 6.09425C15.6371 5.44691 13.3933 3.89423 12.3493 3.32577C11.8983 3.08022 10.9933 2.68311 10.3381 2.44322C9.68298 2.20341 9.01964 1.93213 8.86402 1.84026C7.99442 1.32706 4.93404 0.345629 3.5502 0.13624C2.41643 -0.0353325 1.78963 -0.0437866 1.22401 0.104839Z" fill="black"/>
</svg>
