<svg width="18" height="34" viewBox="0 0 18 34" fill="none" xmlns="http://www.w3.org/2000/svg">
<path fill-rule="evenodd" clip-rule="evenodd" d="M14.4686 0.934939C14.1977 0.91302 13.8359 0.92403 13.7044 0.958149C13.5058 1.00964 12.8046 1.41886 12.541 1.63704C11.8974 2.16972 11.5372 2.84609 11.5076 3.57729C11.4959 3.86584 11.4472 4.00255 11.2328 4.34857C11.1356 4.50545 10.9482 4.89212 10.7903 5.26161C10.6397 5.61413 10.4331 6.09612 10.3311 6.33274C10.2259 6.57711 10.0923 6.95075 10.0218 7.19785C9.95361 7.43707 9.84123 7.76671 9.77208 7.93042C9.70294 8.09414 9.53695 8.48751 9.40322 8.80458C9.26949 9.12166 9.14199 9.39682 9.11986 9.41603C9.09774 9.43521 8.98275 9.67961 8.86433 9.9591C8.7459 10.2386 8.54165 10.7075 8.41046 11.001C8.05807 11.7894 7.98964 11.9953 8.0089 12.2086C8.03659 12.5147 7.91744 12.9354 7.64412 13.497C7.51498 13.7623 7.28036 14.3073 7.12276 14.708C6.94948 15.1487 6.78039 15.5303 6.69504 15.6733C6.58208 15.8626 6.50915 16.0458 6.33047 16.5892C5.91932 17.8397 5.76029 18.2475 5.59162 18.484C5.39926 18.7538 5.32212 18.9677 5.31789 19.2432C5.31324 19.544 5.11285 20.2327 4.91667 20.622C4.80168 20.8503 4.77234 20.9336 4.78003 21.0102C4.79613 21.1706 4.61598 21.7119 4.51167 21.8165C4.46328 21.865 4.34265 22.0333 4.24361 22.1903C4.09868 22.4201 4.04707 22.534 3.97919 22.774C3.92005 22.983 3.84741 23.1561 3.73624 23.3531C3.51085 23.7523 3.27244 24.2819 2.9548 25.0888C2.80319 25.474 2.62053 25.9041 2.54894 26.0446C2.42279 26.2922 2.17844 27.0712 2.176 27.2336C2.17543 27.27 2.20986 27.3342 2.25251 27.3764C2.29512 27.4186 2.32059 27.479 2.30909 27.5107C2.28101 27.5879 2.41605 27.8305 2.52622 27.9007L2.61473 27.9571L2.44131 28.4343C2.23001 29.0157 1.90345 30.0945 1.87876 30.2925C1.8648 30.4046 1.8924 30.4959 2.00137 30.6973C2.07874 30.8404 2.17578 31.028 2.21703 31.1144C2.25832 31.2007 2.40065 31.3737 2.53338 31.4987C2.72776 31.6818 2.83494 31.7528 3.08449 31.8639C3.61427 32.0997 4.19365 32.1688 4.60229 32.0451C5.25714 31.8467 5.41966 31.7667 5.54193 31.5819C5.58581 31.5157 5.82316 30.9313 6.06938 30.2833C6.57085 28.9635 6.48762 29.101 6.85637 28.9832C6.95719 28.9509 7.09792 28.8829 7.16909 28.832L7.29856 28.7393L7.63478 27.8656C7.89339 27.1936 8.01873 26.8197 8.17763 26.2464C8.51318 25.0356 9.00367 23.8637 9.52104 23.0365C9.69945 22.7513 9.70347 22.7408 9.7667 22.3948C9.81769 22.116 9.86578 21.9624 9.99864 21.6542C10.0909 21.4403 10.1943 21.2305 10.2286 21.1879C10.3786 21.0014 10.5 20.7342 10.7436 20.0543C10.8895 19.647 11.0471 19.2561 11.1025 19.164C11.1843 19.0282 11.9772 17.0534 12.2876 16.2125C12.4515 15.7685 12.7725 14.7626 12.8823 14.3487C13.0195 13.8316 13.2979 13.1431 13.447 12.9521C13.5477 12.8231 13.5627 12.7817 13.6399 12.4211C13.7218 12.039 13.728 12.0231 13.9084 11.7375C14.1062 11.4245 14.0996 11.4444 14.3742 10.3476C14.4145 10.1867 14.492 9.9325 14.5464 9.7828C14.6008 9.63307 14.6578 9.4244 14.6731 9.31908C14.6972 9.15242 14.725 9.08983 14.8877 8.8358L15.0747 8.54394L15.1104 8.24464C15.13 8.07999 15.1449 7.81243 15.1435 7.65C15.142 7.48761 15.1478 7.33661 15.1563 7.31445C15.1648 7.29233 15.289 7.23798 15.4322 7.19366C15.7649 7.09079 15.8672 6.9882 15.9531 6.67125C16.0249 6.40658 16.0638 5.84928 16.0357 5.48792C16.0126 5.1905 16.0506 4.90423 16.191 4.31842C16.3126 3.81066 16.3386 3.63337 16.344 3.27733C16.3497 2.89742 16.2657 2.49718 16.1156 2.1891C15.8776 1.70076 15.72 1.54878 15.0904 1.20056C14.9098 1.10067 14.7353 1.00325 14.7027 0.983997C14.6701 0.964782 14.5648 0.942706 14.4686 0.934939Z" fill="black"/>
</svg>
