<svg width="47" height="100" viewBox="0 0 47 100" fill="none" xmlns="http://www.w3.org/2000/svg">
<path fill-rule="evenodd" clip-rule="evenodd" d="M40.3077 0.946837C39.4538 0.87775 38.3135 0.912453 37.8988 1.01999C37.2731 1.18229 35.0628 2.47211 34.232 3.15979C32.2035 4.83876 31.068 6.97058 30.9747 9.27528C30.9379 10.1847 30.7844 10.6157 30.1087 11.7063C29.8024 12.2008 29.2117 13.4195 28.714 14.5841C28.2392 15.6952 27.588 17.2144 27.2667 17.9602C26.9349 18.7304 26.5139 19.9081 26.2919 20.6869C26.0768 21.4409 25.7226 22.4799 25.5047 22.9959C25.2868 23.5119 24.7636 24.7518 24.3421 25.7512C23.9205 26.7506 23.5187 27.6178 23.4489 27.6784C23.3792 27.7389 23.0168 28.5092 22.6435 29.3901C22.2703 30.2712 21.6265 31.7489 21.213 32.6741C20.1023 35.1591 19.8866 35.8079 19.9473 36.4802C20.0346 37.445 19.659 38.7712 18.7975 40.5411C18.3905 41.3773 17.651 43.0951 17.1543 44.3583C16.6081 45.7471 16.0752 46.9499 15.8061 47.4008C15.4501 47.9974 15.2202 48.5747 14.6571 50.2876C13.3611 54.2291 12.8599 55.5144 12.3283 56.2599C11.722 57.11 11.4788 57.7844 11.4655 58.6527C11.4508 59.6007 10.8192 61.7714 10.2009 62.9986C9.83847 63.7181 9.74598 63.9807 9.7702 64.2221C9.82096 64.7277 9.25313 66.4337 8.92437 66.7634C8.77185 66.9165 8.39164 67.4467 8.07947 67.9417C7.62267 68.6661 7.46 69.0251 7.24603 69.7815C7.05963 70.4402 6.83069 70.9859 6.4803 71.6066C5.76989 72.865 5.01844 74.5341 4.01728 77.0773C3.53942 78.2914 2.96367 79.6472 2.73804 80.0901C2.34043 80.8705 1.57025 83.3259 1.56258 83.8377C1.56077 83.9523 1.66928 84.1547 1.8037 84.2877C1.93802 84.4207 2.0183 84.6112 1.98205 84.7109C1.89356 84.9544 2.31917 85.7189 2.66642 85.9403L2.9454 86.1181L2.39878 87.6222C1.73281 89.4547 0.703512 92.8548 0.625682 93.4791C0.581695 93.8324 0.668672 94.12 1.01214 94.755C1.25601 95.2058 1.56188 95.7973 1.69189 96.0695C1.82204 96.3416 2.27065 96.8867 2.689 97.2807C3.30166 97.858 3.63949 98.0819 4.42604 98.4319C6.09585 99.175 7.92201 99.3929 9.20998 99.0029C11.274 98.3778 11.7863 98.1254 12.1716 97.5432C12.3099 97.3343 13.058 95.4924 13.8341 93.45C15.4147 89.2902 15.1524 89.7236 16.3146 89.3521C16.6324 89.2506 17.076 89.0361 17.3003 88.8755L17.7084 88.5835L18.7681 85.8296C19.5832 83.7115 19.9783 82.5329 20.4791 80.726C21.5367 76.9099 23.0827 73.2159 24.7134 70.6089C25.2757 69.7099 25.2884 69.6769 25.4877 68.5863C25.6484 67.7073 25.8 67.2235 26.2188 66.252C26.5095 65.5778 26.8355 64.9166 26.9435 64.7823C27.4165 64.1945 27.7991 63.352 28.5668 61.209C29.0266 59.9256 29.5233 58.6935 29.6981 58.4032C29.9559 57.9752 32.455 51.7508 33.4334 49.1003C33.9499 47.7008 34.9616 44.5302 35.3077 43.2256C35.7402 41.5959 36.6177 39.4258 37.0877 38.8237C37.405 38.4172 37.4524 38.2868 37.6958 37.15C37.9537 35.9457 37.9734 35.8957 38.542 34.9956C39.1654 34.0088 39.1444 34.0715 40.0101 30.6145C40.137 30.1074 40.3813 29.3063 40.5528 28.8344C40.7243 28.3625 40.904 27.7048 40.9521 27.3728C41.0282 26.8475 41.1158 26.6503 41.6287 25.8496L42.2179 24.9297L42.3304 23.9863C42.3924 23.4674 42.4393 22.624 42.4348 22.1121C42.4302 21.6002 42.4485 21.1243 42.4753 21.0544C42.5021 20.9847 42.8935 20.8134 43.3449 20.6737C44.3933 20.3495 44.7158 20.0261 44.9867 19.0271C45.2129 18.1929 45.3356 16.4363 45.2471 15.2974C45.1743 14.3599 45.294 13.4577 45.7363 11.6112C46.1196 10.0108 46.2018 9.45202 46.2187 8.32981C46.2366 7.1324 45.9719 5.87087 45.4987 4.89982C44.7487 3.36064 44.2519 2.8816 42.2674 1.78405C41.6982 1.46921 41.1483 1.16214 41.0456 1.10146C40.9428 1.0409 40.6107 0.971317 40.3077 0.946837Z" fill="black"/>
</svg>
