<svg width="48" height="101" viewBox="0 0 48 101" fill="none" xmlns="http://www.w3.org/2000/svg">
<path d="M39.4803 16.2666L39.4802 16.2666C38.6174 16.3232 37.839 16.5643 37.3895 16.8686C37.232 16.9753 37.0807 17.0682 36.9613 17.1312C36.9065 17.1601 36.836 17.1947 36.7664 17.2172L36.7657 17.2175C36.7531 17.2215 36.7247 17.2308 36.6859 17.238C36.6391 17.2748 36.5789 17.3255 36.5101 17.3879C36.269 17.607 35.8853 17.8881 35.6312 18.0255C35.5755 18.0557 35.5068 18.1076 35.4477 18.1675C35.4192 18.1964 35.398 18.222 35.3844 18.2412C35.3791 18.2486 35.3759 18.2538 35.3743 18.2566C35.2924 18.4797 35.1032 18.791 34.9427 18.9904C34.8272 19.1339 34.5074 19.6152 34.2367 20.0625C32.9217 22.2366 32.3029 24.8366 32.3203 28.3145C32.3344 31.1214 32.5987 32.9911 33.9065 39.359L33.445 39.4537L33.9065 39.359C35.1935 45.6271 35.7784 49.7688 36.0735 54.7275C36.2501 57.6964 36.1673 62.7255 35.8997 65.1412C35.8587 65.5115 35.8215 65.8687 35.7947 66.1454C35.7812 66.2839 35.7705 66.401 35.7632 66.489C35.7596 66.5331 35.7569 66.5684 35.7552 66.5947C35.7536 66.619 35.7533 66.6284 35.7532 66.6284C35.7532 66.6284 35.7532 66.6278 35.7532 66.6266L35.2532 66.6273M39.4803 16.2666L32.7507 95.2689C32.7941 95.3911 32.8297 95.513 32.8558 95.6239C32.9522 95.5955 33.0659 95.5838 33.1871 95.6124C33.2562 95.6286 33.3218 95.6573 33.3803 95.6966M39.4803 16.2666C40.3045 16.2124 41.2912 16.4722 42.2316 16.9773C43.1685 17.4805 44.0155 18.2042 44.5712 19.0228L44.9652 18.7553L44.5713 19.0228C44.8669 19.4583 45.1637 19.94 45.3857 20.3335C45.497 20.5308 45.5863 20.7003 45.6466 20.8276C45.6771 20.8917 45.6969 20.9385 45.7082 20.9689C45.7088 20.9707 45.7095 20.9724 45.71 20.974M39.4803 16.2666L45.71 20.974M35.2532 66.6273L35.7532 66.6263C35.754 66.9892 35.6778 67.7012 35.5579 68.5958C35.4362 69.5041 35.2643 70.6358 35.0639 71.8602C34.6631 74.3085 34.146 77.1394 33.6825 79.3139L33.1935 79.2096L33.6825 79.3139C33.3786 80.7396 33.0281 82.5222 32.8244 83.6783L32.3325 83.5916L32.8244 83.6783C32.0301 88.1848 32.1859 92.1863 33.2219 95.1015L33.2219 95.1016C33.2946 95.3063 33.3501 95.5158 33.3799 95.6944C33.3801 95.6951 33.3802 95.6959 33.3803 95.6966M35.2532 66.6273C35.2531 66.524 35.3203 65.8306 35.4027 65.0861L35.2532 66.6273ZM33.3803 95.6966C33.5103 95.784 33.6057 95.9241 33.6295 96.0989L33.6295 96.0991C33.6466 96.2248 33.6561 96.2581 33.6609 96.2714L33.661 96.2718C33.6619 96.2746 33.6661 96.2876 33.7102 96.348L33.7104 96.3483C33.7773 96.4401 33.8306 96.5537 33.8677 96.6451C33.9076 96.7433 33.9449 96.8561 33.9688 96.9638C33.9723 96.9796 33.9774 96.9977 33.984 97.0162C33.9894 97.0313 33.9949 97.0446 34 97.0555M33.3803 95.6966C33.3948 95.784 33.4054 95.877 33.4052 95.9649C33.405 96.0091 33.4023 96.0636 33.3913 96.1215C33.3907 96.1247 33.3901 96.1281 33.3894 96.1317C33.3893 96.1317 33.3893 96.1317 33.3893 96.1317C33.3786 96.1843 33.3545 96.2723 33.2926 96.3597M32.8626 95.6536C32.8995 95.8189 32.914 95.9568 32.8998 96.0299C32.8998 96.03 32.8998 96.03 32.8998 96.0301C32.8964 96.0475 32.8913 96.0613 32.8846 96.0708C32.8228 96.1576 32.8482 96.178 32.9499 96.1231M32.8626 95.6536L39.4475 15.7676C41.335 15.6437 43.7693 16.9513 44.9849 18.742C45.5919 19.636 46.2008 20.7154 46.2062 20.9065C46.2086 20.9966 46.268 21.0394 46.3383 21.0018C46.4085 20.964 46.457 21.0029 46.4462 21.0883M32.8626 95.6536C32.8657 95.6535 32.869 95.6535 32.8722 95.6536C32.9282 95.654 33.051 95.6656 33.1688 95.76C33.3009 95.8661 33.3446 96.009 33.3504 96.1111C33.351 96.1199 33.3512 96.1285 33.3512 96.1368C33.3512 96.1369 33.3512 96.1369 33.3512 96.1369C33.3515 96.2126 33.3335 96.2683 33.3255 96.2909C33.3124 96.3277 33.2977 96.3519 33.2926 96.3597M32.8626 95.6536L45.7151 38.6136M32.9499 96.1231C32.9515 96.1223 32.953 96.1215 32.9546 96.1206C32.9546 96.1206 32.9547 96.1206 32.9547 96.1206C33.0441 96.0747 33.1243 96.0949 33.1341 96.1664C33.1386 96.1998 33.143 96.2299 33.1474 96.2575C33.1474 96.2576 33.1474 96.2577 33.1474 96.2578C33.1765 96.4391 33.2081 96.5082 33.3063 96.6428C33.3689 96.7287 33.4473 96.9218 33.4806 97.0719C33.5138 97.222 33.5911 97.3771 33.6524 97.4167M32.9499 96.1231L32.9494 96.1223L32.9499 96.1231ZM33.6524 97.4167C33.7135 97.4561 33.9189 97.7419 34.1088 98.0518C34.2986 98.3616 34.5414 98.7041 34.6484 98.8129M33.6524 97.4167L33.9235 96.9966C33.9235 96.9965 33.9234 96.9965 33.9234 96.9965L33.6524 97.4167ZM34.6484 98.8129C34.7554 98.9215 34.8428 99.0711 34.8428 99.1454C34.8428 99.3095 35.9341 99.9498 36.9532 100.384C38.5913 101.081 41.5103 101.003 42.9341 100.224C43.2294 100.062 43.5291 99.9297 43.6004 99.9297C43.6714 99.9297 43.9804 99.7175 44.2866 99.4581C44.836 98.993 46.2106 96.8758 46.2106 96.495C46.2106 96.3872 46.2754 96.299 46.3545 96.299C46.4337 96.299 46.4984 96.2044 46.4984 96.0888C46.4984 95.9731 46.6252 95.5084 46.78 95.0559M34.6484 98.8129L35.0049 98.4622C35.0881 98.5468 35.1618 98.6446 35.2174 98.7397C35.2454 98.7875 35.2732 98.8423 35.2953 98.9009C35.2984 98.9091 35.3017 98.9182 35.3051 98.9282M34.6484 98.8129L35.0048 98.4622C34.9419 98.3982 34.7249 98.1003 34.5352 97.7906L34.5351 97.7905C34.4347 97.6266 34.3291 97.4674 34.2384 97.341C34.1933 97.2783 34.1486 97.2192 34.1078 97.1699L34.1056 97.1673C34.0881 97.1462 34.0502 97.1004 34 97.0555M46.78 95.0559C47.5035 92.9424 47.5643 92.4945 47.5712 89.2254C47.5778 86.0122 47.5414 85.6627 46.7761 81.5884C46.6209 80.7621 46.4268 79.8272 46.3447 79.511C46.2627 79.1946 46.2092 78.8847 46.226 78.8224C46.2427 78.7599 46.2191 78.6243 46.1738 78.521M46.78 95.0559L46.307 94.894C46.6676 93.8405 46.8494 93.2396 46.9489 92.5068C47.0501 91.7609 47.0677 90.8662 47.0712 89.2243C47.0745 87.6153 47.0666 86.7498 46.9658 85.7816C46.8644 84.8078 46.6684 83.7235 46.2847 81.6807C46.1293 80.8535 45.938 79.9342 45.8608 79.6365L45.8607 79.6364C45.8168 79.4669 45.7798 79.2967 45.7556 79.1564C45.7436 79.087 45.7336 79.0183 45.728 78.9576C45.7253 78.9275 45.723 78.8928 45.7229 78.8573C45.7229 78.8404 45.7231 78.8063 45.7289 78.7641M46.78 95.0559L46.307 94.8941C46.2265 95.1293 46.1529 95.3688 46.0988 95.5671C46.0718 95.666 46.0486 95.7587 46.0317 95.8377C46.0278 95.856 46.0234 95.877 46.0192 95.8997M46.1738 78.521C46.0975 78.3475 45.8759 77.2875 45.4933 75.2659C45.4086 74.8183 45.3129 74.1851 45.2806 73.8586C45.2483 73.5321 45.1865 73.2151 45.1431 73.1541C45.0587 73.0353 44.418 68.7714 44.2657 67.3159C44.2154 66.8339 44.146 66.2142 44.1115 65.9387C43.9181 64.3911 43.7592 58.9237 43.8388 56.549C43.9208 54.0956 43.9869 53.1136 44.2823 49.9523M46.1738 78.521L45.769 78.699L46.2259 78.8224L45.7671 78.6998L45.7384 78.7124C45.7347 78.73 45.7331 78.7438 45.7323 78.7522C45.7313 78.7642 45.7314 78.7724 45.7314 78.7759C45.7316 78.7822 45.732 78.7811 45.7305 78.7725C45.7301 78.7699 45.7295 78.7671 45.7289 78.7641M46.1738 78.521L45.7686 78.6989L45.7433 78.692C45.7415 78.6988 45.7398 78.7055 45.7383 78.7122L45.7382 78.7125C45.7341 78.7305 45.7311 78.7479 45.7289 78.7641M44.2823 49.9523C44.3253 49.4916 44.517 48.1676 44.7084 47.0102C44.8997 45.8526 45.0823 44.6803 45.1143 44.4048C45.1943 43.7149 45.4343 42.4078 45.781 40.7741C45.9417 40.0167 46.1329 39.0871 46.206 38.7084C46.279 38.3297 46.4423 37.5409 46.5688 36.9556M44.2823 49.9523L43.7845 49.9058C43.7845 49.9058 43.7844 49.9058 43.7844 49.9058M44.2823 49.9523L43.7844 49.9058M46.5688 36.9556C46.9573 35.1565 47.3661 32.8116 47.4745 31.7599M46.5688 36.9556L46.0801 36.85C46.0801 36.85 46.0801 36.8501 46.0801 36.8501M46.5688 36.9556L46.0801 36.8501M47.4745 31.7599C47.6437 30.1166 47.5984 24.9362 47.4099 24.3733M47.4745 31.7599L46.9771 31.7087C47.0585 30.9181 47.0901 29.2377 47.0763 27.6658C47.0695 26.8843 47.0516 26.1396 47.0238 25.5576C47.01 25.2662 46.9939 25.02 46.976 24.8324C46.967 24.7384 46.958 24.6634 46.9493 24.6069C46.9423 24.5614 46.9372 24.539 46.9357 24.5327C46.9351 24.5303 46.9351 24.5302 46.9357 24.5321M47.4745 31.7599L45.71 20.974M47.4099 24.3733C47.0615 23.3337 46.6844 22.085 46.5245 21.4663C46.3783 21.5282 46.1828 21.5444 46.0023 21.4388M47.4099 24.3733L46.9357 24.5321M47.4099 24.3733L46.9358 24.5322C46.9358 24.5321 46.9358 24.5321 46.9357 24.5321M46.0023 21.4388C45.9913 21.3932 45.9818 21.3513 45.9741 21.3141C45.9663 21.277 45.959 21.2386 45.954 21.2026L45.9536 21.2003C45.9506 21.1788 45.9401 21.1054 45.9501 21.0256M46.0023 21.4388C45.9862 21.4294 45.9702 21.419 45.9544 21.4076C45.7852 21.2856 45.7248 21.11 45.71 20.974M46.0023 21.4388C46.0134 21.4854 46.0261 21.5359 46.0399 21.5895C46.0951 21.8029 46.1742 22.085 46.2674 22.4027C46.454 23.039 46.7011 23.8319 46.9357 24.5321M45.9501 21.0256C45.9461 21.0574 45.9313 21.2457 46.1098 21.3889C46.2705 21.5178 46.4357 21.4938 46.5239 21.4638C46.5024 21.3807 46.4849 21.309 46.4719 21.2508C46.4718 21.2504 46.4717 21.2499 46.4716 21.2494C46.4527 21.1645 46.4436 21.1086 46.4462 21.0883M45.9501 21.0256L46.3802 21.0799L46.3804 21.08L46.4462 21.0883M45.9501 21.0256C45.9501 21.0255 45.9502 21.0255 45.9502 21.0254L46.3802 21.0799L46.3804 21.0799L46.4462 21.0883M46.0801 36.8501C45.9532 37.4371 45.7891 38.2297 45.7151 38.6136M46.0801 36.8501L45.7151 38.6136M45.7151 38.6136C45.6429 38.9877 45.4524 39.9136 45.2919 40.6703C44.9452 42.3041 44.7006 43.6316 44.6176 44.3472C44.5874 44.6078 44.4072 45.7662 44.2151 46.9286C44.0238 48.0854 43.8293 49.4254 43.7844 49.9058M43.7844 49.9058C43.4884 53.0742 43.4215 54.0666 43.3391 56.5322C43.259 58.9212 43.4175 64.4172 43.6153 66.0007L43.6154 66.0009C43.6493 66.2713 43.7182 66.8871 43.7684 67.3679L43.7684 67.3679C43.8458 68.1079 44.0456 69.5476 44.2354 70.8106C44.3305 71.4435 44.4238 72.0365 44.4988 72.4799C44.5362 72.701 44.5697 72.8883 44.5969 73.0259C44.6104 73.094 44.6234 73.1552 44.6354 73.2042C44.6413 73.2281 44.6486 73.2558 44.6571 73.2826L44.6574 73.2835C44.6594 73.2903 44.6718 73.3316 44.6975 73.3812C44.6976 73.3813 44.6976 73.3813 44.6976 73.3814C44.7047 73.4062 44.7144 73.4467 44.7253 73.5025C44.7468 73.613 44.7682 73.7583 44.7831 73.9079C44.8172 74.2536 44.9155 74.902 45.002 75.3589C45.1935 76.3706 45.3453 77.1447 45.459 77.6888C45.5158 77.9605 45.5638 78.1781 45.603 78.3408C45.6379 78.4851 45.6756 78.63 45.7159 78.722C45.7167 78.7236 45.7175 78.7257 45.7185 78.7283C45.7201 78.7325 45.722 78.7379 45.7239 78.7444C45.7259 78.7514 45.7276 78.7581 45.7289 78.7641M46.0192 95.8997C45.9483 95.9464 45.8915 96.004 45.8499 96.0606C45.7628 96.1792 45.7183 96.3195 45.7115 96.4578M46.0192 95.8997C46.0084 95.9571 45.9984 96.0256 45.9984 96.0888C45.9984 96.058 46.0062 96.0095 46.0435 95.9549C46.0788 95.9034 46.1797 95.799 46.3545 95.799C46.2215 95.799 46.109 95.8406 46.0192 95.8997ZM45.7115 96.4578C45.7085 96.4677 45.7016 96.4892 45.6872 96.5245C45.6574 96.598 45.6101 96.6972 45.5455 96.819C45.417 97.0614 45.2363 97.3631 45.0353 97.6727C44.8347 97.9816 44.6187 98.291 44.4217 98.5489C44.217 98.8168 44.0561 98.9982 43.9635 99.0765L43.9634 99.0766C43.8209 99.1974 43.6805 99.3047 43.5721 99.3791C43.5294 99.4085 43.4961 99.4297 43.4724 99.4436M45.7115 96.4578C45.7109 96.4702 45.7106 96.4826 45.7106 96.495C45.7106 96.4674 45.7139 96.4512 45.7136 96.4511C45.7135 96.4511 45.7129 96.4532 45.7115 96.4578ZM43.4724 99.4436C43.4596 99.4464 43.4489 99.4489 43.4412 99.4509C43.4063 99.4597 43.3726 99.4705 43.3429 99.4809C43.2832 99.5017 43.2166 99.529 43.1495 99.5586C43.0141 99.6183 42.8525 99.6982 42.6941 99.785C42.0809 100.121 41.0854 100.329 40.0106 100.357C38.9404 100.386 37.8794 100.234 37.1491 99.9235C36.659 99.7149 36.1505 99.456 35.7689 99.2321C35.5767 99.1193 35.4275 99.0218 35.3319 98.9491C35.322 98.9416 35.3131 98.9346 35.3051 98.9282M43.4724 99.4436C43.4656 99.4477 43.4596 99.4511 43.4544 99.4539C43.4482 99.4574 43.4453 99.4587 43.4453 99.4587C43.4453 99.4587 43.4479 99.4575 43.4528 99.4556C43.4552 99.4546 43.4595 99.4529 43.4653 99.451C43.4719 99.4487 43.4806 99.446 43.491 99.4433C43.5079 99.4389 43.5474 99.4297 43.6004 99.4297C43.5494 99.4297 43.5041 99.437 43.4724 99.4436ZM35.3051 98.9282C35.323 98.9809 35.3428 99.0572 35.3428 99.1454C35.3428 99.0258 35.2969 98.9458 35.2847 98.9254C35.2757 98.9102 35.2679 98.8998 35.2638 98.8946L35.2588 98.8885L35.2583 98.8878L35.2623 98.8917C35.2658 98.8951 35.2708 98.8996 35.2774 98.9053C35.2851 98.912 35.2943 98.9196 35.3051 98.9282ZM34 97.0555C33.9773 97.0352 33.9521 97.0151 33.9251 96.9976C33.9571 97.0185 33.978 97.0385 33.9883 97.0491C33.9995 97.0608 34.006 97.0694 34.0083 97.0725C34.0096 97.0744 34.0103 97.0754 34.0103 97.0754C34.0103 97.0754 34.0078 97.0714 34.0035 97.0627C34.0024 97.0605 34.0012 97.0581 34 97.0555ZM33.2926 96.3597C33.2925 96.3599 33.2923 96.3601 33.2922 96.3603L33.292 96.3607L33.2926 96.3597ZM45.7667 78.6997L45.7385 78.7121C45.7397 78.7062 45.7412 78.7 45.743 78.6933L45.7667 78.6997ZM45.7147 20.9877C45.7158 20.9912 45.7162 20.9928 45.7161 20.9927C45.716 20.9926 45.7155 20.9909 45.7147 20.9877Z" fill="black" stroke="black"/>
<path d="M23.6602 31.5057C25.7119 33.3393 25.8385 36.5452 23.9429 38.6663C22.0473 40.7874 18.8473 41.0205 16.7956 39.1869C14.7439 37.3534 16.6788 31.4473 13.1891 29.0559C19.6435 30.0975 21.6085 29.6721 23.6602 31.5057Z" fill="black"/>
<path d="M26.8121 18.898C28.8638 20.7316 28.9903 23.9375 27.0947 26.0586C25.1991 28.1797 21.9992 28.4128 19.9475 26.5793C17.8958 24.7457 19.8306 18.8397 16.341 16.4482C22.7954 17.4898 24.7604 17.0645 26.8121 18.898Z" fill="black"/>
<path d="M17.3563 6.29049C19.408 8.12406 19.5345 11.33 17.6389 13.4511C15.7433 15.5722 12.5434 15.8053 10.4917 13.9717C8.43999 12.1382 10.3748 6.23214 6.88518 3.84065C13.3396 4.88229 15.3046 4.45693 17.3563 6.29049Z" fill="black"/>
<path d="M14.2044 18.898C16.2561 20.7316 16.3827 23.9375 14.4871 26.0586C12.5915 28.1797 9.39153 28.4128 7.33984 26.5793C5.28814 24.7457 7.22297 18.8397 3.73332 16.4482C10.1877 17.4898 12.1527 17.0645 14.2044 18.898Z" fill="black"/>
</svg>
