<svg width="15" height="32" viewBox="0 0 15 32" fill="none" xmlns="http://www.w3.org/2000/svg">
<path d="M12.4528 5.5015L12.4527 5.50151C12.2168 5.51698 12.0349 5.5828 11.9585 5.63455C11.9022 5.67263 11.843 5.70942 11.7903 5.73718C11.7746 5.74546 11.747 5.75967 11.7133 5.77316C11.6315 5.84689 11.5116 5.93693 11.4103 5.99715C11.3662 6.08676 11.3072 6.17637 11.2567 6.2391C11.2573 6.23829 11.2555 6.2405 11.2508 6.24695C11.2463 6.253 11.2406 6.26106 11.2334 6.27122C11.2192 6.29159 11.2017 6.31738 11.1821 6.34711C11.1427 6.40664 11.0983 6.47676 11.0589 6.54185L12.4528 5.5015ZM12.4528 5.5015C12.6327 5.48969 12.8817 5.54741 13.1418 5.68709C13.3983 5.82491 13.6224 6.01971 13.7632 6.22707L13.7632 6.22708C13.8517 6.35743 13.9408 6.50223 14.0067 6.61893C14.0398 6.67757 14.0638 6.72347 14.0781 6.75376C14.0948 6.82745 14.1291 6.91153 14.1948 6.98702C14.2118 7.05022 14.2328 7.12427 14.2562 7.20377C14.3143 7.40193 14.3904 7.64653 14.4638 7.86675L12.4528 5.5015ZM10.9969 30.6212C11.0138 30.6421 11.03 30.6639 11.0445 30.6841C11.0788 30.7318 11.1169 30.7894 11.1525 30.8475L11.1526 30.8476C11.1766 30.8868 11.2047 30.9292 11.2295 30.9642C11.2419 30.9817 11.2519 30.9951 11.2589 31.0041C11.2602 31.0057 11.2612 31.0071 11.2621 31.0081C11.3054 31.0535 11.3429 31.104 11.3726 31.1547C11.3732 31.1557 11.3738 31.1567 11.3743 31.1577C11.3888 31.1668 11.4059 31.1772 11.4256 31.1888C11.534 31.2524 11.6823 31.328 11.8245 31.3885L11.6286 31.8486L11.8245 31.3885C11.9956 31.4614 12.2788 31.5074 12.5895 31.499L10.9969 30.6212ZM10.9969 30.6212C10.9874 30.59 10.9767 30.5604 10.966 30.534C10.9545 30.5057 10.9355 30.4623 10.908 30.4164C10.892 30.331 10.8565 30.2552 10.8075 30.1921C10.7959 30.1473 10.782 30.1021 10.7665 30.0585L10.7664 30.0584C10.4644 29.2084 10.4089 28.0035 10.6549 26.6078L10.6549 26.6077C10.7186 26.2458 10.829 25.6843 10.9248 25.235L10.4358 25.1307L10.9248 25.235C11.0733 24.5383 11.2383 23.6345 11.3661 22.8541C11.43 22.4637 11.4851 22.1012 11.5243 21.8087C11.5606 21.5375 11.588 21.2939 11.5892 21.1497C11.5894 21.1468 11.59 21.1386 11.5913 21.1231C11.5934 21.0974 11.5966 21.062 11.6008 21.0188C11.6092 20.9328 11.6208 20.8211 11.6337 20.7048C11.7211 19.9154 11.7472 18.3 11.6903 17.343L11.6903 17.343C11.5954 15.7496 11.4071 14.419 10.9964 12.4187L10.9964 12.4187C10.5818 10.3998 10.5044 9.83546 10.5001 8.9816C10.4948 7.9208 10.6833 7.16285 11.0588 6.54191L10.9969 30.6212ZM13.4514 21.4092L13.4514 21.4092C13.4355 21.2575 13.4139 21.0648 13.4036 20.9825L13.4036 20.9823C13.3377 20.4554 13.2878 18.6922 13.3135 17.9245C13.3135 17.9245 13.3135 17.9245 13.3135 17.9245L13.8132 17.9412L13.4514 21.4092ZM13.4514 21.4092C13.4768 21.6524 13.5412 22.1158 13.6015 22.5167C13.6318 22.7186 13.6617 22.909 13.686 23.0525C13.6981 23.1237 13.7093 23.1868 13.7189 23.2351C13.7235 23.2585 13.7288 23.2838 13.7344 23.3068C13.7371 23.3177 13.7415 23.3348 13.7475 23.3538C13.7501 23.3618 13.7543 23.3744 13.7602 23.3894L13.4514 21.4092ZM14.1906 11.6192C14.1501 11.8067 14.0975 12.0608 14.0733 12.1862C14.051 12.3017 13.9911 12.5929 13.9403 12.8326L13.9403 12.8326C13.8303 13.3509 13.7496 13.7861 13.7212 14.0307L14.4693 10.0252L14.9667 10.0764L14.4693 10.0252C14.4377 10.3321 14.3124 11.0554 14.1906 11.6192ZM14.1906 11.6192L14.6793 11.7249L14.1906 11.6193C14.1906 11.6193 14.1906 11.6193 14.1906 11.6192ZM10.7454 30.7698C10.7468 30.7678 10.7482 30.7658 10.7496 30.7638C10.7478 30.7665 10.7463 30.7685 10.7455 30.7696L10.7454 30.7698ZM10.8612 30.4929C10.8584 30.491 10.8555 30.4891 10.8525 30.4872C10.8555 30.4891 10.8584 30.491 10.8612 30.4929ZM13.7731 23.4823C13.7852 23.6051 13.8182 23.8212 13.8469 23.9725L13.7731 23.4823ZM13.7212 14.0307C13.7128 14.1032 13.6573 14.4612 13.5958 14.8333L13.7212 14.0307Z" fill="black" stroke="black"/>
<path d="M7.41111 9.99576C8.06205 10.5775 8.1022 11.5946 7.50078 12.2676C6.89937 12.9406 5.88413 13.0145 5.23319 12.4328C4.58225 11.851 5.19612 9.97725 4.08896 9.2185C6.13673 9.54898 6.76017 9.41403 7.41111 9.99576Z" fill="black"/>
<path d="M8.41111 5.99576C9.06205 6.57749 9.1022 7.59463 8.50078 8.26759C7.89937 8.94055 6.88413 9.01451 6.23319 8.43278C5.58225 7.85104 6.19612 5.97725 5.08896 5.2185C7.13673 5.54898 7.76017 5.41403 8.41111 5.99576Z" fill="black"/>
<path d="M5.41111 1.99576C6.06205 2.57749 6.1022 3.59463 5.50078 4.26759C4.89937 4.94055 3.88413 5.01451 3.23319 4.43278C2.58225 3.85104 3.19612 1.97725 2.08896 1.2185C4.13673 1.54898 4.76017 1.41403 5.41111 1.99576Z" fill="black"/>
<path d="M4.41111 5.99576C5.06205 6.57749 5.1022 7.59463 4.50078 8.26759C3.89937 8.94055 2.88413 9.01451 2.23319 8.43278C1.58225 7.85104 2.19612 5.97725 1.08896 5.2185C3.13673 5.54898 3.76017 5.41403 4.41111 5.99576Z" fill="black"/>
</svg>
