<svg width="48" height="96" viewBox="0 0 48 96" fill="none" xmlns="http://www.w3.org/2000/svg">
<path fill-rule="evenodd" clip-rule="evenodd" d="M14.1628 0.866214C11.9108 2.24271 11.4078 3.08171 11.0723 6.01721C10.9038 7.49021 9.68933 11.4032 8.37383 14.7127C5.51533 21.9032 2.82633 30.6062 1.39383 37.3052C-0.0971721 44.2797 -0.450672 54.8967 0.619328 60.5692C2.73033 71.7572 6.95883 81.7772 11.7553 86.9587C14.9063 90.3617 19.9088 93.1447 23.8508 93.6867C25.2323 93.8767 26.6263 94.3502 26.9488 94.7387C27.7138 95.6602 28.3788 95.6307 29.4893 94.6262C30.2138 93.9702 30.5408 93.9292 31.1313 94.4192C31.9823 95.1252 32.9128 94.7232 32.9128 93.6502C32.9128 92.6387 34.2688 92.2032 35.1473 92.9322C36.1263 93.7447 36.9128 93.1567 36.9128 91.6122C36.9128 90.8012 37.1398 90.4237 37.5378 90.5732C40.4053 91.6507 40.5068 91.6252 40.3308 89.8672C40.1678 88.2407 40.2093 88.1997 41.8573 88.3612C43.2978 88.5027 43.5123 88.3907 43.2928 87.6112C42.6513 85.3342 42.6793 85.2167 43.9128 85.0397C45.8048 84.7687 46.1608 84.1477 45.2348 82.7347C44.4258 81.5002 44.4413 81.4562 45.9608 80.6702L47.5138 79.8672L46.3383 78.6117L45.1628 77.3567L46.6433 76.1732C48.2348 74.9007 48.2333 74.8777 46.5313 73.9917C45.6183 73.5167 45.4978 73.2207 45.9063 72.4572C46.7603 70.8617 46.5278 69.4452 45.4128 69.4452C44.2708 69.4452 44.1323 68.9257 45.0338 68.0242C45.5278 67.5302 45.5028 67.3077 44.9088 66.9322C44.4983 66.6727 43.7833 66.4572 43.3193 66.4527C42.7358 66.4477 42.4278 65.9452 42.3193 64.8202C42.1998 63.5807 41.9253 63.1952 41.1628 63.1952C40.5883 63.1952 40.0448 62.7697 39.8858 62.1952C39.6793 61.4512 39.1828 61.1952 37.9443 61.1952C36.6528 61.1952 36.1823 60.9312 35.8423 60.0152C35.4213 58.8807 35.3568 58.8667 34.1498 59.6577C33.0333 60.3892 32.8623 60.3952 32.6003 59.7127C32.2183 58.7167 31.1943 58.7352 30.1733 59.7562C29.4253 60.5042 29.3128 60.4992 28.7228 59.6927C28.1963 58.9727 27.8923 58.9207 26.9983 59.3997C26.4013 59.7192 25.9128 60.3102 25.9128 60.7127C25.9128 61.5872 25.0793 61.6942 24.7993 60.8552C24.4578 59.8297 22.9058 60.8577 22.6058 62.3082C22.4483 63.0712 21.3028 64.8202 20.0603 66.1952L17.8013 68.6952L18.1128 66.1952C18.2838 64.8202 19.2093 60.8972 20.1683 57.4772C22.3368 49.7487 22.3553 47.6682 20.3568 36.7192C19.0268 29.4327 18.8298 27.3212 19.0013 22.1722C19.2148 15.7417 19.3643 15.2897 22.6133 11.2197C23.6108 9.97021 24.1348 8.66121 24.2918 7.02621C24.4898 4.96971 24.3313 4.42521 23.1148 2.97971C20.6328 0.0297141 16.9518 -0.839286 14.1628 0.866214Z" fill="black"/>
</svg>
