<svg width="13" height="26" viewBox="0 0 13 26" fill="none" xmlns="http://www.w3.org/2000/svg">
<path fill-rule="evenodd" clip-rule="evenodd" d="M2.24192 0.0266653C2.0179 0.113137 1.47527 0.680975 1.3021 1.01014C1.0132 1.55928 0.940898 2.19109 0.989873 3.73831C1.01942 4.67081 1.09802 5.53713 1.22875 6.37001C1.70387 9.39821 2.06612 12.3502 1.99502 12.6149C1.97357 12.695 1.993 12.7605 2.0383 12.7605C2.08352 12.7605 1.92865 12.873 1.69405 13.0106C1.28822 13.2485 0.977423 13.4908 1.07785 13.4908C1.10357 13.4908 1.03975 13.5991 0.936023 13.7314C0.753023 13.9652 0.291923 15.2004 0.291923 15.4572C0.291923 15.5271 0.270098 15.6056 0.243473 15.6316C0.216848 15.6576 0.187372 15.7699 0.178072 15.8811C0.168697 15.9924 0.118898 16.4985 0.0673725 17.0056C-0.0597525 18.2559 0.00287234 21.3913 0.172822 22.2914C0.448673 23.7519 0.836798 24.7052 1.3846 25.2675C1.5313 25.4181 1.62227 25.5414 1.58665 25.5414C1.55102 25.5414 1.4818 25.5023 1.43267 25.4545C1.29497 25.3204 1.11707 25.3215 1.1158 25.4565C1.1149 25.548 1.09945 25.5546 1.05302 25.4833C1.00712 25.4129 0.864548 25.4014 0.493523 25.4385C0.219697 25.4658 0.0146474 25.5181 0.0378974 25.5547C0.0611474 25.5914 0.136298 25.6147 0.204848 25.6065C0.273323 25.5983 0.424447 25.6296 0.540547 25.676C0.819173 25.7875 3.59192 25.7939 3.59192 25.6831C3.59192 25.6406 3.5497 25.6294 3.49817 25.6584C3.44665 25.6874 3.57145 25.5661 3.7756 25.3889C3.97975 25.2116 4.17632 25.0757 4.2124 25.0867C4.24855 25.0978 4.2598 25.078 4.23752 25.0428C4.21517 25.0076 4.27682 24.8735 4.3744 24.7446C4.47205 24.6157 4.6285 24.3068 4.72202 24.0581C4.81555 23.8095 4.92535 23.5238 4.966 23.4234C5.00657 23.323 5.05022 23.1907 5.06282 23.1294C5.3575 21.702 5.45665 19.6933 5.32412 17.8363C5.22617 16.4644 5.14855 15.922 4.9294 15.0799C4.84847 14.769 4.80655 14.4763 4.83617 14.4296C4.8697 14.3767 4.8574 14.3643 4.80355 14.3968C4.75367 14.4267 4.71692 14.4051 4.71692 14.3459C4.71692 14.19 4.35422 13.5529 4.13987 13.3324C4.0357 13.2252 3.80117 13.0609 3.61862 12.9672L3.28682 12.797L3.32627 12.4318C3.52202 10.6184 3.63775 9.70057 3.86462 8.15934C4.0096 7.17521 4.18 6.00849 4.2433 5.56664C4.41325 4.38138 4.41782 2.03517 4.25117 1.51327C3.96152 0.605969 3.39775 0.0422945 2.74277 0.00519339C2.52917 -0.00685718 2.3038 0.00278327 2.24192 0.0266653ZM3.12212 0.353053C3.30235 0.437991 3.43135 0.525486 3.40885 0.547396C3.38627 0.569306 3.43562 0.63343 3.51842 0.689885C3.82135 0.89657 4.02835 1.48603 4.15382 2.49922C4.22807 3.09898 4.05572 5.07067 3.74207 7.20917C3.37742 9.69582 3.16877 11.2933 3.10285 12.1032L3.0523 12.7239H2.68637H2.32052L2.28377 12.4318C2.2636 12.2711 2.22625 11.9096 2.20075 11.6284C2.1289 10.8343 1.89835 9.09468 1.61035 7.17338C0.939023 2.69437 1.08925 0.981582 2.20757 0.364812C2.5774 0.160828 2.71067 0.159149 3.12212 0.353053ZM3.79052 13.2534C4.04515 13.5205 4.21037 13.8409 4.14587 13.9424C4.11535 13.9906 4.12735 14.0044 4.1749 13.9757C4.2265 13.9447 4.29422 14.0937 4.36067 14.3844L4.4653 14.8419L3.94187 14.8636C3.33355 14.8888 3.2137 14.8581 3.22562 14.6799C3.2338 14.558 3.2365 14.5578 3.2686 14.6776C3.2875 14.7479 3.33422 14.8054 3.3724 14.8054C3.47237 14.8054 3.45835 14.5308 3.35672 14.4978C3.30302 14.4803 3.27797 14.309 3.289 14.0353C3.3145 13.4011 3.3082 13.3313 3.2167 13.2426C3.15632 13.184 3.0958 13.2112 2.99372 13.3427C2.9167 13.442 2.87312 13.5539 2.8969 13.5914C2.92067 13.6288 2.90147 13.6362 2.85437 13.6078C2.79265 13.5707 2.80262 13.5056 2.89 13.3758C3.14297 12.9999 3.5023 12.951 3.79052 13.2534ZM2.455 13.3533C2.60207 13.5826 2.52715 13.5719 2.3302 13.3353C2.23435 13.2203 2.20127 13.1431 2.25677 13.1638C2.31227 13.1845 2.40145 13.2698 2.455 13.3533ZM3.57647 13.2401C3.66887 13.3032 3.72175 13.3905 3.69407 13.4341C3.664 13.4814 3.67862 13.4924 3.7303 13.4612C3.77792 13.4326 3.81692 13.397 3.81692 13.3821C3.81692 13.3191 3.57407 13.1256 3.49487 13.1256C3.4474 13.1256 3.48415 13.1772 3.57647 13.2401ZM1.8265 13.9675C1.82485 14.1672 1.76927 14.4356 1.70305 14.564L1.5826 14.7973L1.81847 14.8262C1.94822 14.8421 1.82935 14.8603 1.55432 14.8668C1.27922 14.8732 1.00922 14.8884 0.954323 14.9006C0.899348 14.9127 0.930398 14.8899 1.02317 14.8499C1.14467 14.7976 1.19222 14.7147 1.19297 14.554C1.19432 14.252 1.27037 13.9955 1.34515 14.0405C1.37882 14.0608 1.4497 13.9608 1.50257 13.8182C1.64867 13.4249 1.83017 13.5085 1.8265 13.9675ZM3.21047 14.3672C3.20777 14.4394 3.18445 14.427 3.14192 14.3307C3.05335 14.1299 3.05335 14.0146 3.14192 14.1481C3.1819 14.2084 3.2128 14.307 3.21047 14.3672ZM9.21693 16.9931C9.07255 17.0222 8.81943 17.1068 8.65442 17.1811C8.48942 17.2554 8.31355 17.3186 8.26353 17.3215C8.21357 17.3244 8.1292 17.3741 8.07602 17.4319C7.99195 17.5234 7.99892 17.5235 8.12943 17.4324C8.27748 17.3289 8.27763 17.3297 8.13812 17.489C8.06042 17.5777 7.95917 17.6293 7.91312 17.6038C7.86707 17.5782 7.8511 17.5809 7.87757 17.6098C7.90405 17.6387 7.81 17.8493 7.66862 18.0779C7.19642 18.8413 6.97105 19.822 6.96842 21.1247C6.96475 22.9368 7.3123 24.1808 8.05225 25.004L8.37115 25.3588L7.35025 25.3101C6.7888 25.2834 6.2113 25.2805 6.06692 25.3036C5.81867 25.3434 5.83082 25.351 6.29192 25.4445C7.5295 25.6954 10.6419 25.8648 10.7544 25.6874C10.7799 25.6473 10.7566 25.6129 10.7026 25.6112C10.6486 25.6094 10.7243 25.5463 10.8707 25.4708C11.199 25.3018 11.7067 24.7744 11.9031 24.3983C12.8081 22.6663 12.639 19.3166 11.574 17.8757C11.0642 17.1862 10.0827 16.8186 9.21693 16.9931Z" fill="black"/>
</svg>
