<svg width="67" height="76" viewBox="0 0 67 76" fill="none" xmlns="http://www.w3.org/2000/svg">
<path fill-rule="evenodd" clip-rule="evenodd" d="M50.8195 0.253735C49.5726 0.687544 48.1843 1.61695 47.384 2.55394C46.5991 3.47269 45.4453 5.65238 44.9004 7.24516C44.7334 7.73318 44.5419 8.15682 44.4747 8.18651C44.4074 8.21635 44.3871 8.29669 44.4296 8.36526C44.4719 8.43382 44.4353 8.73615 44.3478 9.03719C43.7962 10.9381 43.8267 15.3922 44.4367 22.0066C44.5676 23.4263 44.7486 25.3864 44.839 26.3624C44.9293 27.3384 45.0756 29.1534 45.1643 30.3956C45.2529 31.6378 45.3591 32.8357 45.4 33.0575C45.4411 33.2793 45.5511 34.4409 45.6449 35.6387C45.7384 36.8366 45.8846 38.3611 45.9694 39.0266C46.0544 39.6921 46.276 41.87 46.4621 43.8664C46.6479 45.8628 46.9389 48.1575 47.1084 48.9658C47.8703 52.5974 47.8247 55.5036 46.9497 59.0987C46.3035 61.7532 46.1428 62.7121 46.0281 64.5969C45.8807 67.0191 46.377 69.5284 47.3458 71.2586C47.5658 71.6514 47.6988 72.0486 47.6414 72.1412C47.5803 72.2398 47.6151 72.2616 47.7248 72.194C47.832 72.1278 47.9581 72.1967 48.0188 72.355C48.0774 72.5071 48.4114 72.8928 48.761 73.2121C50.5923 74.8841 52.6811 75.7624 54.435 75.598C55.4581 75.502 56.6294 75.1046 56.8377 74.7828C56.903 74.6818 56.9575 74.6602 56.9589 74.7347C56.9639 75.009 58.6869 73.0674 58.9893 72.4466C59.1613 72.0938 59.3685 71.846 59.4498 71.896C59.5309 71.9462 59.5495 71.9099 59.491 71.8155C59.4326 71.7211 59.5209 71.3267 59.6873 70.939C60.6558 68.684 61.2989 62.6955 60.8461 60.1498C60.7604 59.6676 60.6523 58.9827 60.606 58.6278C60.5596 58.2729 60.3481 57.1476 60.1359 56.1272C59.9235 55.1069 59.693 53.8001 59.6233 53.2234C59.5537 52.6466 59.4832 52.0658 59.4667 51.9327C59.4501 51.7997 59.3845 51.0374 59.3206 50.2388C59.2568 49.4402 59.0195 47.6684 58.7932 46.3013C58.567 44.9344 58.4225 43.5662 58.4721 43.2609C58.5558 42.7463 59.2114 41.7712 60.307 40.5311C61.4428 39.246 63.5881 36.0441 63.5881 35.6342C63.5881 35.5627 63.6467 35.4801 63.7185 35.4505C63.9493 35.3553 65.3364 32.0545 65.7749 30.5569C66.3076 28.7376 66.4219 27.578 66.1806 26.4431C66.0766 25.9551 65.9808 25.4341 65.9675 25.2852C65.9541 25.1365 65.8912 25.0468 65.8279 25.086C65.7644 25.1252 65.6677 25.0165 65.6131 24.8445C65.4451 24.3166 64.0398 23.0691 63.1203 22.6317C62.3912 22.285 62.1121 22.2342 61.4142 22.3212C59.9099 22.5088 58.2393 23.4653 57.2595 24.6999C56.6071 25.5224 56.6161 26.3574 57.2977 28.2177C57.5741 28.9719 57.9883 30.0971 58.2182 30.7182C58.5349 31.5742 58.6531 32.2479 58.7061 33.5029C58.7721 35.0633 58.7502 35.2089 58.3271 36.0438C57.6203 37.4382 57.5731 37.358 57.2798 34.2674C57.1786 33.2027 56.9546 31.2063 56.7816 29.8309C55.095 16.4132 54.7708 11.7776 55.3992 10.0684C55.9421 8.5916 56.5355 7.42391 56.6935 7.52136C56.7794 7.57427 56.8007 7.53862 56.7409 7.44198C56.6811 7.34551 56.7514 6.96897 56.8972 6.6055C57.0958 6.10975 57.1451 5.59059 57.0942 4.52745C57.0363 3.31911 56.9536 2.98113 56.5329 2.23354C55.9772 1.24638 54.9856 0.402802 54.0884 0.154197C53.2197 -0.0866643 51.6619 -0.0392346 50.8195 0.253735ZM34.2527 22.1578C33.4598 22.3831 32.7535 22.6788 31.8681 23.156C31.0197 23.6136 29.5504 25.1291 28.4004 26.7331C27.1505 28.4766 26.3674 30.0252 25.7731 31.9282C25.5655 32.5937 25.3359 33.2833 25.2632 33.4608C25.0287 34.0332 24.4662 37.3649 24.2892 39.23C24.1814 40.3672 24.1173 46.843 24.1174 56.6012C24.1178 71.5622 24.1292 72.1677 24.4173 72.3779C24.582 72.4982 24.8986 72.6396 25.1208 72.692C25.3431 72.7444 25.6521 72.8977 25.8077 73.0325C26.099 73.2852 26.2029 74.0345 25.9467 74.0345C25.7059 74.0345 25.9467 75.2218 26.2297 75.4305C26.8143 75.8617 30.5161 76.161 32.1112 75.9061C32.4446 75.8527 32.9717 75.7696 33.2827 75.7212C33.988 75.6115 34.4132 74.9102 34.2783 74.0794C34.1438 73.2523 34.4076 72.8649 35.3523 72.5019L36.1923 72.1793L36.1115 66.2102C36.067 62.9272 36.0306 55.7038 36.0306 50.1581C36.0306 40.8272 36.0528 40.0036 36.3277 39.1142C36.8525 37.4164 37.8759 35.7058 39.0342 34.5901C39.6963 33.9522 39.9963 33.35 40.0193 32.6122C40.0296 32.2804 40.1088 31.8274 40.1953 31.6055C40.2816 31.3837 40.3713 30.4037 40.3944 29.4276C40.4298 27.9326 40.3732 27.437 40.0354 26.2818C39.4814 24.3866 38.8017 23.0576 38.1012 22.4998C37.5878 22.0908 37.3557 22.0242 36.2867 21.9795C35.5558 21.949 34.7346 22.0209 34.2527 22.1578ZM5.96801 30.8717C3.29971 31.4728 1.80191 32.5288 0.833762 34.4915C0.331264 35.5101 0.310737 35.6289 0.301848 37.5711C0.281483 42.0824 0.637708 44.1377 1.55575 44.8032C1.7156 44.9191 1.84652 45.0959 1.84652 45.1961C1.84652 45.2962 1.98503 45.5281 2.15442 45.7113C2.65271 46.2505 3.32508 47.569 3.20257 47.7668C3.14034 47.8675 3.16103 47.9054 3.24896 47.8512C3.33672 47.797 3.54296 48.1667 3.70749 48.6731C4.08974 49.8489 4.09944 53.3382 3.72899 56.3692C3.58805 57.5227 3.39668 59.6643 3.30391 61.1284C3.21097 62.5924 3.06244 64.9155 2.97387 66.2909C2.88513 67.6662 2.80594 69.4969 2.79785 70.3592C2.78153 72.0838 2.87931 72.3035 3.70313 72.393C4.35206 72.4635 4.42722 72.6296 4.43013 73.9982C4.43239 75.1256 4.45001 75.179 4.87703 75.3547C5.40749 75.5731 11.3833 75.6278 12.1098 75.421C13.012 75.1643 13.1604 74.908 13.1604 73.6062C13.1604 72.7789 13.2213 72.4139 13.3624 72.3968C13.4736 72.3832 13.6505 72.3642 13.7557 72.3543C14.105 72.3219 14.9286 71.6163 14.8556 71.4122C14.816 71.3017 14.6749 69.6868 14.542 67.8235C14.0762 61.2879 13.7371 57.9143 13.2855 55.3206C13.0166 53.7764 13.0261 49.2468 13.2997 48.5449C13.8291 47.1867 14.4581 45.9707 14.8055 45.6344C15.0118 45.4345 15.0717 45.3317 14.9383 45.4063C14.7298 45.5226 14.7267 45.5035 14.9162 45.2704C15.0374 45.1212 15.1929 45.0339 15.2616 45.0763C15.3304 45.1188 15.3766 45.0273 15.3645 44.8729C15.3509 44.7009 15.4361 44.6132 15.5848 44.6461C15.7182 44.6758 15.7759 44.6485 15.713 44.5859C15.6501 44.5232 15.7589 44.1723 15.9548 43.8061C16.2872 43.1848 16.3146 42.8904 16.365 39.3876L16.419 35.6349L15.8235 34.432C14.8738 32.5133 13.4953 31.481 11.1401 30.9249C9.86758 30.6244 7.18813 30.5968 5.96801 30.8717ZM51.8297 49.781C51.7186 49.8258 51.5368 49.8258 51.4256 49.781C51.3146 49.7363 51.4054 49.6997 51.6277 49.6997C51.8499 49.6997 51.9409 49.7363 51.8297 49.781Z" fill="black"/>
</svg>
