<svg width="21" height="24" viewBox="0 0 21 24" fill="none" xmlns="http://www.w3.org/2000/svg">
<path fill-rule="evenodd" clip-rule="evenodd" d="M16.0741 0.0801269C15.6773 0.217119 15.2356 0.510615 14.9809 0.806506C14.7312 1.09664 14.3641 1.78496 14.1907 2.28795C14.1376 2.44206 14.0766 2.57584 14.0553 2.58521C14.0339 2.59464 14.0274 2.62001 14.0409 2.64166C14.0544 2.66331 14.0427 2.75878 14.0149 2.85385C13.8394 3.45414 13.8491 4.86069 14.0432 6.94945C14.0848 7.39777 14.1424 8.01675 14.1712 8.32497C14.1999 8.63319 14.2465 9.20633 14.2747 9.59861C14.3029 9.99089 14.3367 10.3692 14.3497 10.4392C14.3627 10.5093 14.3978 10.8761 14.4276 11.2543C14.4574 11.6326 14.5039 12.114 14.5309 12.3242C14.5579 12.5343 14.6284 13.2221 14.6876 13.8525C14.7467 14.483 14.8393 15.2076 14.8933 15.4629C15.1357 16.6097 15.1212 17.5274 14.8428 18.6628C14.6371 19.501 14.586 19.8038 14.5495 20.399C14.5026 21.1639 14.6605 21.9563 14.9688 22.5027C15.0388 22.6268 15.0811 22.7522 15.0629 22.7814C15.0434 22.8126 15.0545 22.8194 15.0894 22.7981C15.1235 22.7772 15.1636 22.799 15.1829 22.8489C15.2016 22.897 15.3079 23.0188 15.4191 23.1196C16.0018 23.6476 16.6664 23.925 17.2244 23.873C17.55 23.8427 17.9227 23.7173 17.9889 23.6156C18.0097 23.5837 18.027 23.5769 18.0275 23.6004C18.0291 23.687 18.5773 23.0739 18.6735 22.8779C18.7283 22.7665 18.7942 22.6882 18.8201 22.704C18.8459 22.7198 18.8518 22.7084 18.8332 22.6786C18.8146 22.6488 18.8427 22.5242 18.8956 22.4018C19.2038 21.6897 19.4084 19.7986 19.2643 18.9947C19.2371 18.8424 19.2027 18.6261 19.188 18.514C19.1732 18.402 19.1059 18.0466 19.0384 17.7244C18.9708 17.4022 18.8974 16.9895 18.8753 16.8074C18.8531 16.6252 18.8307 16.4418 18.8255 16.3998C18.8202 16.3578 18.7993 16.1171 18.779 15.8649C18.7586 15.6127 18.6832 15.0532 18.6112 14.6215C18.5392 14.1898 18.4932 13.7577 18.509 13.6613C18.5356 13.4988 18.7442 13.1909 19.0928 12.7993C19.4542 12.3935 20.1368 11.3824 20.1368 11.2529C20.1368 11.2303 20.1555 11.2043 20.1783 11.1949C20.2517 11.1648 20.6931 10.1225 20.8326 9.64955C21.0021 9.07504 21.0384 8.70885 20.9617 8.35045C20.9286 8.19634 20.8981 8.03183 20.8939 7.98481C20.8896 7.93784 20.8696 7.90951 20.8495 7.92189C20.8292 7.93427 20.7985 7.89994 20.7811 7.84563C20.7277 7.67894 20.2805 7.28497 19.988 7.14686C19.756 7.03738 19.6672 7.02133 19.4451 7.04879C18.9665 7.10804 18.4349 7.4101 18.1232 7.79998C17.9156 8.0597 17.9184 8.32339 18.1353 8.91084C18.2232 9.14901 18.355 9.50436 18.4282 9.7005C18.529 9.97081 18.5666 10.1836 18.5834 10.5799C18.6044 11.0726 18.5975 11.1186 18.4628 11.3823C18.238 11.8226 18.2229 11.7973 18.1296 10.8213C18.0974 10.4851 18.0261 9.85461 17.9711 9.4203C17.4345 5.18312 17.3313 3.71926 17.5312 3.17949C17.704 2.71314 17.8928 2.34439 17.9431 2.37516C17.9704 2.39188 17.9772 2.38062 17.9581 2.3501C17.9391 2.31963 17.9615 2.20073 18.0079 2.08595C18.0711 1.92939 18.0868 1.76545 18.0706 1.42972C18.0521 1.04814 18.0258 0.94141 17.892 0.705329C17.7151 0.393594 17.3996 0.127201 17.1142 0.0486938C16.8378 -0.0273677 16.3421 -0.0123899 16.0741 0.0801269ZM10.8028 6.99718C10.5505 7.06835 10.3258 7.16174 10.0441 7.31243C9.77413 7.45691 9.30661 7.9355 8.94071 8.44205C8.54302 8.99261 8.29386 9.48164 8.10476 10.0826C8.03868 10.2927 7.96565 10.5105 7.94251 10.5666C7.86789 10.7473 7.68893 11.7994 7.63261 12.3884C7.59831 12.7475 7.5779 14.7925 7.57795 17.8741C7.57805 22.5986 7.5817 22.7898 7.67335 22.8562C7.72575 22.8942 7.82649 22.9388 7.89721 22.9554C7.96792 22.9719 8.06625 23.0203 8.11577 23.0629C8.20844 23.1427 8.24151 23.3793 8.16 23.3793C8.08337 23.3793 8.16 23.7542 8.25004 23.8202C8.43606 23.9563 9.61388 24.0508 10.1214 23.9703C10.2275 23.9535 10.3952 23.9272 10.4942 23.912C10.7186 23.8773 10.8539 23.6559 10.8109 23.3935C10.7682 23.1323 10.8521 23.01 11.1527 22.8953L11.4199 22.7935L11.3942 20.9085C11.3801 19.8717 11.3685 17.5907 11.3685 15.8394C11.3685 12.8928 11.3756 12.6327 11.463 12.3518C11.63 11.8157 11.9557 11.2755 12.3242 10.9232C12.5349 10.7217 12.6303 10.5316 12.6376 10.2986C12.6409 10.1938 12.6661 10.0507 12.6936 9.9807C12.7211 9.91065 12.7496 9.60115 12.757 9.29294C12.7682 8.82082 12.7503 8.66432 12.6428 8.2995C12.4665 7.70105 12.2502 7.28136 12.0273 7.10519C11.864 6.97604 11.7901 6.955 11.45 6.94089C11.2174 6.93126 10.9561 6.95398 10.8028 6.99718ZM1.80313 9.74895C0.954126 9.93877 0.477554 10.2723 0.169507 10.8921C0.00962135 11.2137 0.00309013 11.2512 0.000261653 11.8646C-0.00621812 13.2892 0.107126 13.9382 0.399231 14.1484C0.450092 14.185 0.491747 14.2408 0.491747 14.2724C0.491747 14.3041 0.53582 14.3773 0.589715 14.4352C0.748264 14.6054 0.9622 15.0218 0.923218 15.0843C0.903419 15.116 0.910002 15.128 0.937978 15.1109C0.965903 15.0938 1.03152 15.2105 1.08388 15.3705C1.2055 15.7418 1.20859 16.8437 1.09072 17.8008C1.04587 18.1651 0.984982 18.8414 0.955463 19.3037C0.925892 19.766 0.878631 20.4996 0.850449 20.934C0.822216 21.3683 0.797017 21.9464 0.794446 22.2187C0.789252 22.7633 0.820365 22.8327 1.08249 22.861C1.28897 22.8832 1.31288 22.9356 1.3138 23.3679C1.31452 23.7239 1.32013 23.7407 1.456 23.7962C1.62478 23.8652 3.52619 23.8825 3.75735 23.8172C4.04441 23.7361 4.09162 23.6551 4.09162 23.2441C4.09162 22.9828 4.11101 22.8675 4.15591 22.8621C4.19129 22.8579 4.24755 22.8518 4.28103 22.8487C4.39216 22.8385 4.65423 22.6157 4.63099 22.5512C4.61839 22.5163 4.57349 22.0064 4.53122 21.4179C4.38301 19.3541 4.27511 18.2887 4.13143 17.4697C4.04585 16.982 4.04889 15.5516 4.13595 15.33C4.30438 14.9011 4.50453 14.5171 4.61504 14.4109C4.68072 14.3477 4.69975 14.3153 4.65732 14.3388C4.59098 14.3756 4.59 14.3695 4.65027 14.2959C4.68884 14.2488 4.73832 14.2212 4.76017 14.2346C4.78208 14.248 4.79679 14.2191 4.79293 14.1704C4.78861 14.1161 4.81571 14.0884 4.86303 14.0988C4.90545 14.1081 4.92381 14.0995 4.90381 14.0798C4.8838 14.0599 4.91841 13.9491 4.98074 13.8335C5.08653 13.6373 5.09522 13.5443 5.11126 12.4382L5.12844 11.2531L4.93898 10.8733C4.6368 10.2674 4.19818 9.94137 3.44879 9.76576C3.04391 9.67085 2.19135 9.66214 1.80313 9.74895ZM16.3955 15.7203C16.3602 15.7345 16.3023 15.7345 16.2669 15.7203C16.2316 15.7062 16.2605 15.6946 16.3312 15.6946C16.4019 15.6946 16.4309 15.7062 16.3955 15.7203Z" fill="black"/>
</svg>
