<svg width="38" height="99" viewBox="0 0 38 99" fill="none" xmlns="http://www.w3.org/2000/svg">
<path fill-rule="evenodd" clip-rule="evenodd" d="M1.58761 0.700429C0.805111 1.24843 0.476111 1.98793 0.476111 3.20043C0.476111 4.14743 0.664111 4.92193 0.893611 4.92193C1.12311 4.92193 0.957111 6.27843 0.525111 7.93693C-0.236389 10.8599 -0.22389 11.0539 0.92211 14.3119C1.57261 16.1599 2.41861 18.9999 2.80261 20.6234C3.25861 22.5519 4.49211 25.1074 6.36311 27.9989C13.3986 38.8714 13.4226 38.9214 14.3251 44.4899C15.2076 49.9354 15.4431 65.1319 14.9571 85.2149C14.7721 92.8544 14.8636 94.9244 15.4166 95.5949C17.8891 98.5929 32.3386 99.0764 36.1521 96.2879C38.5446 94.5384 38.3406 79.6629 35.6766 61.6629C34.9856 56.9929 34.0871 50.5844 33.6801 47.4219C33.2731 44.2594 32.7471 40.3219 32.5116 38.6719C32.2491 36.8344 32.2836 34.2399 32.6011 31.9754C33.2226 27.5399 32.4901 20.4324 30.9301 15.7554C29.4976 11.4614 28.8346 10.6004 26.6446 10.1894C25.6061 9.99493 23.8301 9.29243 22.6976 8.62893C21.5651 7.96493 20.0886 7.42193 19.4166 7.42193C18.5196 7.42193 18.0456 7.02493 17.6311 5.92693C16.8686 3.90643 14.9021 3.17593 12.9481 4.18643C12.1386 4.60493 11.4761 4.72493 11.4761 4.45243C11.4761 3.40443 9.48661 2.84093 7.77811 3.40493C5.68361 4.09593 4.37911 3.62143 4.55811 2.23293C4.84411 0.018929 3.52861 -0.659571 1.58761 0.700429Z" fill="black"/>
</svg>
