<svg width="54" height="97" viewBox="0 0 54 97" fill="none" xmlns="http://www.w3.org/2000/svg">
<path d="M7.05328 82.6074C9.42449 81.4908 11.3371 79.201 12.4098 76.8246C13.4617 74.4943 13.851 71.7328 12.635 69.7566C12.6378 69.7612 12.6373 69.7598 12.6338 69.751C12.6229 69.7228 12.582 69.6178 12.5273 69.3877C12.4631 69.118 12.3967 68.7528 12.3305 68.2912C12.1986 67.3701 12.0762 66.1256 11.9697 64.6165C11.7569 61.6019 11.6111 57.5854 11.5712 53.1008C11.51 46.1481 11.434 42.2113 11.1596 39.9655C11.0241 38.8555 10.8265 38.0133 10.4653 37.4043C10.0473 36.6995 9.4715 36.4 8.88325 36.2462C8.65522 36.1865 8.50161 36.1411 8.3981 36.1062C8.43645 35.9738 8.50869 35.7707 8.64066 35.4688C8.86179 34.9629 9.19664 34.2941 9.66421 33.3768C10.9703 30.8154 11.7249 29.0881 11.491 26.5987C11.2701 24.2474 10.1645 21.2366 8.15313 16.0284L8.15311 16.0284C7.01643 13.0853 6.17971 10.864 5.63833 9.14039C5.09072 7.39697 4.88343 6.27445 4.92311 5.49365C4.95831 4.8009 5.1849 4.38386 5.64808 3.98965C6.18589 3.53192 7.0319 3.11577 8.3636 2.54605L8.36367 2.54602L37.2386 63.1216C37.3274 63.8516 37.3139 64.6347 37.2218 65.2937C37.1758 65.6225 37.1128 65.9024 37.0421 66.1188C37.007 66.2263 36.9727 66.3097 36.9422 66.3713C36.9272 66.4017 36.9143 66.4242 36.9044 66.4402C36.8994 66.448 36.8955 66.4538 36.8927 66.4578C36.8898 66.4617 36.8884 66.4635 36.8884 66.4634M7.05328 82.6074L6.62727 81.7027L7.05335 82.6073C7.05332 82.6073 7.0533 82.6074 7.05328 82.6074ZM7.05328 82.6074C4.34049 83.885 2.25935 86.1711 1.4072 88.0573C0.969353 89.0264 0.940029 89.6972 1.06335 90.0382C1.11429 90.179 1.19347 90.2769 1.32467 90.3534C1.47141 90.4389 1.73672 90.5266 2.18927 90.5266C3.52539 90.5266 4.72027 91.5659 4.72027 92.9677C4.72027 93.6936 5.02905 94.0193 5.2685 94.1307C5.50967 94.2428 5.96426 94.2694 6.52871 93.8011L6.5288 93.801C6.80634 93.5708 7.08607 93.365 7.36405 93.2179C7.63362 93.0753 7.99548 92.937 8.4068 92.9719C8.86634 93.0108 9.21695 93.249 9.45569 93.541C9.61748 93.7388 9.73364 93.9664 9.82192 94.1888M9.82192 94.1888C9.79476 94.1766 9.77237 94.1655 9.75436 94.1555C9.74548 94.1506 9.73839 94.1465 9.7329 94.1431M9.82192 94.1888C9.85076 94.2615 9.87663 94.3336 9.90014 94.404M9.82192 94.1888C9.90991 94.2284 10.048 94.2791 10.2494 94.3346C10.77 94.478 11.5417 94.6084 12.5411 94.7161C14.5284 94.9304 17.2663 95.0402 20.3557 95.0408C26.5348 95.0419 34.0063 94.6062 39.4883 93.7409C43.4457 93.116 46.4829 92.4507 48.6735 91.6926C50.9112 90.9182 52.0567 90.1149 52.5136 89.3611C52.8929 88.7355 52.9201 87.913 52.1221 86.5953C51.3105 85.255 49.7596 83.6198 47.4067 81.6148C43.8688 78.6002 40.8889 75.5028 38.9466 72.9337C37.9803 71.6557 37.2378 70.4654 36.8236 69.453C36.6171 68.9481 36.471 68.4372 36.4453 67.9516C36.4194 67.4612 36.5145 66.9142 36.8884 66.4634M9.7329 94.1431C9.72383 94.1357 9.71832 94.1323 9.71782 94.1325C9.71732 94.1326 9.72184 94.1363 9.7329 94.1431ZM9.7329 94.1431C9.76656 94.1703 9.84865 94.2512 9.90014 94.404M9.90014 94.404C9.90038 94.4047 9.90062 94.4054 9.90086 94.4061L9.90096 94.4064C9.90069 94.4056 9.90041 94.4048 9.90014 94.404ZM36.8884 66.4634L37.6583 67.1016L36.8888 66.463C36.8887 66.4631 36.8885 66.4633 36.8884 66.4634ZM35.3064 32.0747L35.3064 32.0745C35.1398 28.5972 35.5418 25.5643 36.4394 23.3571C37.323 21.1845 38.8315 19.5267 40.9823 19.5267C42.2118 19.5267 43.8365 18.5944 45.2775 16.954C46.69 15.3462 47.7171 13.2865 47.8927 11.4323L47.8927 11.4323C48.0157 10.1359 47.9731 9.4516 47.862 9.11628C47.8437 9.06111 47.8278 9.02886 47.8177 9.0117C47.7983 9.00719 47.7623 9.00152 47.7031 9.00051L47.7021 9.00049C47.1719 8.99085 46.5636 8.87352 46.0117 8.71112C45.4604 8.54894 44.8868 8.31875 44.4403 8.03965L44.4388 8.03875C44.3949 8.01118 44.3541 7.98734 44.3167 7.96675C44.2385 8.02762 44.1454 8.08134 44.0346 8.12354C43.5973 8.29009 43.2199 8.11285 43.1367 8.07376L43.1346 8.07278C42.8775 7.95212 42.6296 7.73986 42.4407 7.56408C42.0179 7.17084 41.4726 6.55683 40.897 5.82459M35.3064 32.0747L41.6833 5.20665M35.3064 32.0747C35.8657 43.6995 36.8971 60.318 37.2386 63.1214L35.3064 32.0747ZM40.897 5.82459L41.6833 5.20665M40.897 5.82459C40.8971 5.82466 40.8971 5.82473 40.8972 5.82479L41.6833 5.20665M40.897 5.82459C40.3564 5.13715 39.7888 4.64279 39.3049 4.36348C38.78 4.06056 38.5447 4.11128 38.5326 4.11561M41.6833 5.20665C40.4833 3.68065 39.0433 2.84965 38.1753 3.18165M38.5326 4.11561C38.5331 4.11543 38.5336 4.11524 38.5341 4.11506L38.1753 3.18165M38.5326 4.11561C38.5326 4.11563 38.5326 4.11565 38.5325 4.11566L38.1753 3.18165M38.5326 4.11561C37.8292 4.38545 36.9425 4.2869 36.1958 4.0958C35.399 3.89186 34.542 3.52553 33.7982 3.03807L38.1753 3.18165M41.1833 82.8702C41.3837 82.9941 41.7027 83.1547 42.0827 83.1451C42.2939 83.1398 42.5301 83.0806 42.7459 82.9295C42.9596 82.7798 43.092 82.5829 43.1685 82.3998C43.3076 82.0672 43.2869 81.7287 43.2535 81.5035C43.2161 81.2518 43.1379 80.9865 43.0361 80.7209L43.0358 80.7202C42.8539 80.2464 42.6561 79.8359 42.4477 79.5107C42.2676 79.2297 41.9821 78.8537 41.5663 78.6698C41.3223 78.5619 40.9779 78.499 40.6151 78.6422C40.2691 78.7788 40.0685 79.0396 39.9604 79.2421C39.762 79.6139 39.7203 80.0716 39.7203 80.4677C39.7203 80.9838 39.9289 81.475 40.1675 81.8494C40.414 82.2362 40.7635 82.6107 41.1833 82.8702ZM41.1833 82.8702L41.7093 82.0196M41.1833 82.8702C41.1835 82.8703 41.1836 82.8704 41.1838 82.8704L41.7093 82.0196M41.7093 82.0196C41.5645 81.9302 41.4268 81.8152 41.3026 81.6848L42.0962 81.063C42.101 81.0672 42.1057 81.0714 42.1104 81.0756C42.1528 81.1127 42.1949 81.1442 42.2348 81.1688L42.2352 81.1691C42.243 81.174 42.2494 81.1776 42.2542 81.1803M41.7093 82.0196C42.2323 82.3431 42.4155 82.0252 42.1712 81.2727C42.1711 81.2725 42.171 81.2723 42.171 81.2721C42.1581 81.2326 42.1441 81.1919 42.1289 81.15C42.1743 81.1553 42.2093 81.1645 42.2326 81.1723C42.2328 81.1723 42.233 81.1724 42.2332 81.1725C42.2418 81.1754 42.2489 81.1781 42.2542 81.1803M42.2542 81.1803C42.2626 81.1849 42.2665 81.1866 42.2665 81.1863C42.2664 81.186 42.2622 81.1837 42.2542 81.1803ZM20.8796 1.73976C20.7739 2.00887 20.6539 2.27836 20.5091 2.49795C20.3751 2.70106 20.0415 3.13655 19.4417 3.16895C18.8689 3.19989 18.4869 2.83347 18.3278 2.66326C18.1331 2.45489 17.9507 2.18335 17.7794 1.90608L18.6302 1.38067L17.7797 1.90657L20.8796 1.73976ZM20.8796 1.73976C20.9073 1.72015 20.9633 1.68554 21.0641 1.64167C21.3114 1.53403 21.6944 1.43122 22.2164 1.35329C23.252 1.19868 24.6485 1.16835 26.1589 1.26223C27.6629 1.35571 29.2376 1.5697 30.6208 1.88461C32.0285 2.20511 33.1444 2.60969 33.7981 3.03804L20.8796 1.73976ZM42.8405 6.55449C42.7576 6.7315 42.7203 6.92136 42.7203 7.10265C42.7203 7.04125 42.7358 6.81253 42.8813 6.59649C42.8678 6.5827 42.8542 6.5687 42.8405 6.55449ZM47.8364 9.01748C47.8363 9.01753 47.8351 9.01711 47.8331 9.01606C47.8354 9.01691 47.8364 9.01744 47.8364 9.01748ZM47.8091 8.99867C47.807 8.99656 47.806 8.99528 47.8061 8.99515C47.8061 8.99503 47.8072 8.99608 47.8091 8.99867ZM41.2785 81.8319C41.2783 81.8319 41.2779 81.8276 41.278 81.8197C41.2788 81.828 41.2787 81.8319 41.2785 81.8319ZM49.6353 84.6598L49.6352 84.6597C49.2379 84.1529 48.8257 83.6841 48.4747 83.3333C48.3014 83.1601 48.1266 82.9989 47.9649 82.8738C47.8854 82.8123 47.7883 82.7432 47.6814 82.6848C47.6084 82.6449 47.3875 82.5266 47.0983 82.5266C46.8566 82.5266 46.1047 82.5705 45.8065 83.2945C45.6718 83.6216 45.7129 83.9286 45.7692 84.1274C45.826 84.3283 45.9208 84.5034 46.0104 84.6423C46.3469 85.1644 47.0158 85.7846 47.853 86.4414L47.8534 86.4417C48.2469 86.7502 48.5651 86.9958 48.7947 87.1587C48.9042 87.2363 49.0273 87.3195 49.1437 87.3817C49.1951 87.4091 49.3012 87.4633 49.4344 87.4977C49.5011 87.5149 49.6273 87.5414 49.7848 87.529C49.9512 87.5159 50.2081 87.4528 50.4273 87.2336C50.6464 87.0145 50.7095 86.7575 50.7226 86.5912C50.735 86.4337 50.7085 86.3074 50.6913 86.2408C50.6569 86.1075 50.6027 86.0014 50.5753 85.9501C50.5131 85.8336 50.4299 85.7105 50.3523 85.6011C50.1895 85.3715 49.9438 85.0533 49.6353 84.6598ZM3.26965 88.8242L3.27157 88.8262C3.66653 89.2196 4.16321 89.2104 4.44313 89.1568C4.72994 89.1018 4.99063 88.9716 5.19878 88.8427C5.62709 88.5775 6.07352 88.1664 6.46955 87.6896C6.69063 87.4234 6.88029 87.1617 7.02493 86.91C7.1625 86.6706 7.29535 86.3791 7.33704 86.0633C7.38157 85.7261 7.32677 85.2563 6.94147 84.8985C6.59959 84.5809 6.17736 84.5266 5.90127 84.5266C5.3453 84.5266 4.84267 84.74 4.4497 84.9947C4.04945 85.2541 3.69634 85.5984 3.42357 85.9657C3.15592 86.3261 2.92428 86.7647 2.83402 87.2293C2.74342 87.6956 2.77876 88.3326 3.26965 88.8242Z" stroke="black" stroke-width="2"/>
</svg>
