<svg width="33" height="84" viewBox="0 0 33 84" fill="none" xmlns="http://www.w3.org/2000/svg">
<path fill-rule="evenodd" clip-rule="evenodd" d="M14.2325 0.85379C11.241 2.71079 5.06951 14.1968 3.28801 21.2233C2.01501 26.2458 1.99251 31.7818 3.22751 36.0293C3.74601 37.8108 5.37701 41.9683 6.85251 45.2683L9.53551 51.2683L9.52951 59.5183C9.52501 65.9603 9.33101 68.3958 8.64401 70.6313C7.72051 73.6383 7.14151 74.1803 4.28551 74.7133C1.41651 75.2488 0.203007 76.5148 0.025007 79.1588C-0.070493 80.5733 0.112008 81.6668 0.496008 81.9858C1.68201 82.9698 9.05551 83.6468 19.0355 83.6883C31.3025 83.7393 31.876 83.5643 32.1635 79.6778C32.338 77.3213 32.2345 77.0078 31.021 76.2128C30.287 75.7318 28.6405 75.0758 27.361 74.7548C23.76 73.8513 23.533 73.0783 23.5485 61.7683L23.562 52.2683L25.721 47.2683C30.3375 36.5773 30.8315 35.0703 31.1045 30.8468C31.319 27.5268 31.138 25.8848 30.1325 22.0183C28.5675 16.0018 25.6555 9.27329 22.649 4.72879C19.586 0.09829 17.211 -0.99521 14.2325 0.85379Z" fill="black"/>
</svg>
