<svg width="39" height="88" viewBox="0 0 39 88" fill="none" xmlns="http://www.w3.org/2000/svg">
<path d="M2.97204 30.1184L2.97189 30.1183C2.3913 29.8076 2.07504 29.4659 1.86135 28.869C1.61761 28.1883 1.5 27.1505 1.5 25.415C1.5 18.653 5.81854 11.4406 14.2931 4.74149C15.6546 3.6658 16.9823 2.69199 18.0206 1.99145C18.5415 1.63996 18.9768 1.36589 19.3005 1.18358C19.4299 1.11072 19.5311 1.05835 19.6061 1.02314C19.6281 1.03037 19.6547 1.0398 19.6862 1.05208C19.8257 1.10645 20.011 1.19682 20.2436 1.33123C20.7086 1.59988 21.2932 2.00375 21.9706 2.52474C23.3219 3.56379 24.9681 5.01073 26.642 6.61466C30.0182 9.84971 33.3635 13.5859 34.6246 15.7845C36.4188 18.9137 37.417 22.2672 37.5923 25C37.68 26.3676 37.5588 27.5332 37.2648 28.4217C36.9715 29.3084 36.5336 29.8477 36.028 30.1184L36.028 30.1184C35.4063 30.4513 34.8302 30.8663 34.3952 31.2836C34.1787 31.4914 33.976 31.7198 33.8201 31.9588C33.6805 32.173 33.5 32.5132 33.5 32.919C33.5 33.3521 33.702 33.6938 33.8747 33.9112C34.0571 34.1408 34.2878 34.3355 34.5221 34.4961C34.993 34.8189 35.6021 35.0886 36.2467 35.2574L36.2475 35.2576C36.5965 35.3487 36.9301 35.5594 37.171 35.8256C37.4191 36.0998 37.5 36.3518 37.5 36.5C37.5 36.6482 37.4191 36.9002 37.171 37.1744C36.9301 37.4406 36.5965 37.6513 36.2475 37.7424L36.2467 37.7426C35.6021 37.9114 34.993 38.1811 34.5221 38.5039C34.2878 38.6645 34.0571 38.8592 33.8747 39.0888C33.702 39.3062 33.5 39.6479 33.5 40.081C33.5 40.4868 33.6805 40.827 33.8201 41.0412C33.976 41.2802 34.1787 41.5086 34.3952 41.7164C34.8302 42.1337 35.4063 42.5487 36.028 42.8816C36.4566 43.1111 36.8541 43.4488 37.1356 43.7962C37.2751 43.9683 37.3732 44.1269 37.4333 44.2577C37.4628 44.3222 37.4804 44.3739 37.4901 44.4121C37.4999 44.4505 37.5 44.4684 37.5 44.468C37.5 44.4663 37.4994 44.5118 37.4513 44.6063C37.404 44.6991 37.3225 44.8149 37.1997 44.9397C36.9509 45.1925 36.5916 45.4218 36.1976 45.5468C35.5549 45.7507 34.9512 46.0546 34.4875 46.4024C34.2566 46.5755 34.0327 46.7803 33.8573 47.0146C33.6922 47.2351 33.5 47.576 33.5 48C33.5 48.424 33.6922 48.7649 33.8573 48.9854C34.0327 49.2197 34.2566 49.4245 34.4875 49.5976C34.9512 49.9454 35.5549 50.2493 36.1976 50.4532C36.5358 50.5605 36.8764 50.8018 37.1316 51.1208C37.391 51.445 37.5 51.7691 37.5 52C37.5 52.2309 37.391 52.555 37.1316 52.8792C36.8764 53.1982 36.5358 53.4395 36.1976 53.5468C35.5605 53.7489 34.9613 54.0441 34.5003 54.3786C34.2712 54.5448 34.047 54.7418 33.8702 54.9677C33.7068 55.1766 33.5 55.5175 33.5 55.951C33.5 56.3908 33.7121 56.7326 33.884 56.9425C34.0674 57.1666 34.2983 57.356 34.5313 57.5119C35.0003 57.8258 35.6062 58.0897 36.2467 58.2574L36.2469 58.2574C36.929 58.4359 37.1849 58.6404 37.2746 58.7647C37.3277 58.8384 37.4239 59.0205 37.2779 59.5431C37.1265 60.0848 36.7523 60.8372 36.068 61.8663C35.392 62.8831 34.453 64.1123 33.228 65.6004L33.2279 65.6005C30.0041 69.5175 28.5 72.2077 28.5 74.851C28.5 75.5566 28.5183 76.1767 28.6026 76.6914C28.6875 77.2094 28.8563 77.7372 29.2483 78.1601C29.6491 78.5926 30.1641 78.7884 30.6754 78.8858C31.1722 78.9806 31.7635 79 32.418 79C33.6076 79 34.5255 79.0575 35.237 79.1858C35.9484 79.3141 36.3898 79.5023 36.6769 79.7181C37.1851 80.1002 37.5 80.799 37.5 82.572C37.5 84.7133 36.9389 85.6312 36.0942 86.0833L36.566 86.965L36.0942 86.0833C36.0947 86.083 35.9811 86.1316 35.6588 86.1987C35.3666 86.2594 34.9763 86.3211 34.4903 86.3816C33.52 86.5024 32.2213 86.6119 30.6696 86.704C27.5694 86.8881 23.5062 87 19.137 87C14.7491 87 11.3997 86.9702 8.85349 86.8378C6.28484 86.7042 4.6324 86.4691 3.58534 86.1028C2.59707 85.7571 2.30269 85.3561 2.17898 84.9135C2.01465 84.3256 2.08734 83.448 2.38205 81.9947C2.69062 80.4748 2.91799 80.0095 3.21183 79.7677C3.35496 79.65 3.58207 79.5324 4.0164 79.4307C4.45895 79.327 5.04622 79.2551 5.86814 79.1865L5.86845 79.1865C6.73239 79.1142 7.46387 79.0414 8.04912 78.9141C8.63472 78.7867 9.20844 78.5786 9.65271 78.14C10.1102 77.6883 10.3039 77.1193 10.3971 76.5431C10.4876 75.9831 10.5 75.3001 10.5 74.521C10.5 71.6017 9.17058 69.2377 5.76067 65.2419L5.76053 65.2417C4.53384 63.8049 3.42298 62.4196 2.62306 61.3486C2.22176 60.8113 1.90758 60.3649 1.69787 60.0366C1.6608 59.9785 1.62831 59.9262 1.60008 59.8794C1.67042 59.79 1.76419 59.6821 1.88292 59.5582C2.24104 59.1847 2.75384 58.7421 3.32808 58.335C3.32817 58.3349 3.32827 58.3348 3.32836 58.3348L5.57808 56.741L6.66806 55.9688L5.62009 55.1405L3.12009 53.1645L1.58191 51.9487L3.00472 50.7513L3.00491 50.7511L5.36572 48.7653L6.29296 47.9853L5.35128 47.2228L3.08128 45.3848L3.08124 45.3848C2.03382 44.5368 1.84994 43.8118 1.8929 43.5174C1.91 43.4001 1.96215 43.3035 2.09399 43.2149C2.24515 43.1134 2.54325 43 3.059 43C3.80794 43 4.49904 42.7638 4.96703 42.2272C5.4326 41.6933 5.54269 41.0154 5.44014 40.4115C5.23852 39.2242 4.22168 38.1264 2.75289 37.7425L2.75246 37.7424C2.38294 37.646 2.04191 37.4387 1.80322 37.1941C1.55156 36.9362 1.5 36.7326 1.5 36.661C1.5 36.5829 1.55748 36.3612 1.82148 36.0759C2.07085 35.8064 2.42386 35.5733 2.80242 35.4532C3.44899 35.248 4.05543 34.9383 4.5207 34.5818C4.75257 34.4041 4.97619 34.1944 5.15056 33.9549C5.31606 33.7277 5.5 33.3866 5.5 32.968C5.5 32.5684 5.33042 32.2281 5.18892 32.0029C5.03399 31.7563 4.83146 31.5209 4.61381 31.3068C4.17715 30.8772 3.59813 30.4537 2.97204 30.1184ZM19.7202 0.975593C19.7201 0.975821 19.7157 0.977409 19.7075 0.979675C19.7163 0.976499 19.7204 0.975366 19.7202 0.975593Z" stroke="black" stroke-width="2"/>
<path fill-rule="evenodd" clip-rule="evenodd" d="M17.7721 29.0955C17.7428 29.148 17.7041 29.2577 17.6861 29.3393C17.6524 29.4923 17.4937 30.0836 17.2478 30.9716C17.1704 31.2514 17.0911 31.5472 17.0717 31.6288C17.0523 31.7104 16.9936 31.9298 16.9413 32.1163C16.8891 32.3029 16.8296 32.5223 16.8092 32.6039C16.7888 32.6855 16.7293 32.9049 16.677 33.0915C16.6248 33.278 16.5654 33.4974 16.5451 33.5791C16.5248 33.6607 16.4454 33.9564 16.3687 34.2362C16.292 34.516 16.2126 34.8118 16.1923 34.8934C16.172 34.975 16.1155 35.1849 16.0667 35.3597C15.9242 35.8706 15.7037 36.6828 15.6639 36.8437C15.6203 37.0199 15.4178 37.767 15.2216 38.476C15.1441 38.7558 15.0648 39.0515 15.0454 39.1331C15.026 39.2147 14.9674 39.4341 14.9151 39.6207C14.8628 39.8072 14.8034 40.0267 14.7831 40.1083C14.7628 40.1899 14.6863 40.4761 14.6131 40.7442C14.2944 41.9118 14.2007 42.2583 14.166 42.3977C14.1457 42.4793 14.0864 42.6988 14.0341 42.8853C13.9818 43.0719 13.9224 43.2913 13.9021 43.3729C13.8818 43.4545 13.8041 43.7455 13.7294 44.0194C13.6547 44.2934 13.5325 44.7418 13.4578 45.0158C13.3831 45.2897 13.3054 45.5807 13.2851 45.6623C13.2648 45.7439 13.2056 45.9634 13.1535 46.1499C12.989 46.7398 12.98 46.7846 13.0197 46.8228C13.0417 46.844 13.1146 46.8212 13.1895 46.7699C13.2618 46.7204 13.333 46.6799 13.3478 46.6799C13.3627 46.6799 13.5182 46.5968 13.6934 46.4953C13.9525 46.3453 14.6912 45.9327 15.6419 45.4071C15.7146 45.3669 15.9524 45.2337 16.1705 45.1112C16.75 44.7854 16.8499 44.7304 17.1175 44.5901C17.2508 44.5202 17.3796 44.4487 17.4039 44.4312C17.4281 44.4137 17.5173 44.3616 17.6021 44.3154C17.6869 44.2692 18.004 44.093 18.3069 43.924C18.6097 43.755 18.9467 43.5687 19.0557 43.51C19.1647 43.4513 19.3973 43.3201 19.5725 43.2185C19.7478 43.1168 19.8994 43.0337 19.9094 43.0337C19.9195 43.0337 20.0582 42.9574 20.2177 42.8641C20.3772 42.7708 20.5307 42.6945 20.5587 42.6945C20.611 42.6945 20.6041 42.7927 20.5063 43.4365C20.4816 43.5997 20.443 43.8668 20.4208 44.03C20.3985 44.1933 20.3598 44.4652 20.3347 44.6342C20.3096 44.8032 20.2708 45.0704 20.2484 45.2278C20.226 45.3851 20.1848 45.6666 20.157 45.8531C20.1075 46.184 20.0746 46.4117 19.9823 47.0615C19.9575 47.2363 19.9187 47.5034 19.896 47.655C19.8734 47.8066 19.8427 48.026 19.8278 48.1426C19.8128 48.2592 19.7827 48.4595 19.7608 48.5878C19.7389 48.716 19.701 48.964 19.6765 49.1389C19.6347 49.4388 19.6045 49.6516 19.4965 50.4109C19.4716 50.5857 19.4326 50.8528 19.4097 51.0044C19.3386 51.4758 19.2829 51.8595 19.2313 52.2339C19.162 52.7376 19.0925 53.0821 19.0607 53.0809C19.0458 53.0803 18.7371 52.6493 18.3746 52.123C18.0121 51.5968 17.6778 51.125 17.6318 51.0747C17.5482 50.9834 17.5481 50.9836 17.5767 51.174C17.5925 51.2789 17.6225 51.4411 17.6435 51.5344C17.6838 51.7139 17.7366 51.965 17.8217 52.3823C17.8502 52.5222 17.8901 52.713 17.9104 52.8063C17.9873 53.1596 18.3525 54.9528 18.4803 55.6045C18.5306 55.861 18.5902 56.1472 18.6129 56.2405C18.6355 56.3338 18.696 56.6295 18.7474 56.8977C18.7987 57.1658 18.8586 57.4616 18.8804 57.5548C18.9023 57.6481 18.9324 57.7864 18.9474 57.8622C18.9624 57.938 18.9902 58 19.0092 58C19.0282 58 19.4854 57.3656 20.0252 56.5903C20.565 55.8149 21.4717 54.5128 22.0401 53.6967C22.6085 52.8805 23.0835 52.1889 23.0956 52.1597C23.1078 52.1306 23.0984 52.1068 23.0748 52.1068C23.0513 52.1068 22.571 52.404 22.0075 52.7673C21.444 53.1305 20.9528 53.4389 20.9158 53.4526C20.8454 53.4786 20.8454 53.4789 20.9482 53.0819C20.9898 52.921 21.1826 52.2104 21.3681 51.5344C21.5884 50.7313 21.7951 49.9653 21.8314 49.8173C21.8515 49.7357 21.9078 49.5258 21.9565 49.3509C22.0757 48.9233 22.4019 47.7127 22.4478 47.5278C22.468 47.4462 22.5245 47.2363 22.5732 47.0615C22.622 46.8866 22.7438 46.4382 22.8438 46.0651C22.9439 45.692 23.0856 45.1673 23.1588 44.8992C23.232 44.631 23.3084 44.3448 23.3287 44.2632C23.349 44.1816 23.4084 43.9622 23.4607 43.7756C23.5129 43.5891 23.5724 43.3697 23.5928 43.2881C23.6132 43.2065 23.6727 42.9871 23.725 42.8005C23.7772 42.614 23.8366 42.3946 23.8568 42.3129C23.8924 42.169 24.1769 41.1136 24.3425 40.511C24.5301 39.8279 24.7038 39.1871 24.7388 39.0483C24.7594 38.9667 24.7987 38.8236 24.8262 38.7303C24.8765 38.5595 24.9214 38.3841 24.9823 38.1214C25.0139 37.9853 25.0106 37.9802 24.9104 38.0108C24.8526 38.0285 24.7357 38.0856 24.6506 38.1379C24.5238 38.2157 22.855 39.1449 22.2713 39.4626C22.1865 39.5088 21.8694 39.6853 21.5665 39.8548C20.5534 40.4219 19.6522 40.9232 19.4522 41.031C19.3431 41.0898 19.0406 41.2591 18.7799 41.4074C18.5191 41.5557 18.2862 41.677 18.2623 41.677C18.2383 41.677 18.2188 41.6961 18.2188 41.7194C18.2188 41.7427 18.2005 41.7618 18.1782 41.7618C18.1559 41.7618 17.9626 41.8596 17.7487 41.9792C16.764 42.5298 16.8345 42.4966 16.8168 42.4176C16.8088 42.3821 16.8756 42.1867 16.9653 41.9833C17.0549 41.7798 17.1555 41.5514 17.1889 41.4756C17.2223 41.3998 17.2779 41.2758 17.3123 41.2C17.3468 41.1242 17.4172 40.9588 17.4688 40.8325C17.5204 40.7061 17.6002 40.5233 17.6461 40.4262C17.6921 40.3292 17.7714 40.148 17.8223 40.0235C17.8733 39.899 17.9526 39.7177 17.9985 39.6207C18.0445 39.5236 18.1242 39.3409 18.1759 39.2145C18.2275 39.0881 18.2999 38.918 18.3368 38.8363C18.3737 38.7547 18.4197 38.6498 18.439 38.6032C18.4949 38.4681 18.6531 38.111 18.81 37.7658C18.8445 37.69 18.9149 37.5246 18.9665 37.3983C19.0181 37.2719 19.0979 37.0891 19.1438 36.9921C19.1898 36.895 19.2695 36.7122 19.3212 36.5858C19.3727 36.4595 19.4432 36.2941 19.4776 36.2183C19.5121 36.1425 19.5685 36.0185 19.6029 35.9427C19.6373 35.8669 19.7083 35.7003 19.7605 35.5725C19.8127 35.4446 19.9034 35.239 19.9621 35.1155C20.0208 34.9919 20.0689 34.8817 20.0689 34.8704C20.0689 34.8592 20.1064 34.7692 20.1524 34.6703C20.1983 34.5715 20.3098 34.3189 20.4 34.109C20.5631 33.7297 20.6253 33.5872 20.7516 33.3035C20.9118 32.9437 20.961 32.8318 20.994 32.7523C21.0133 32.7057 21.0708 32.5771 21.1216 32.4666C21.1725 32.3561 21.2141 32.2557 21.2141 32.2435C21.2141 32.2314 21.2561 32.131 21.3073 32.0205C21.464 31.6828 21.5119 31.5742 21.6094 31.3354C21.6611 31.209 21.7408 31.0263 21.7868 30.9292C21.8327 30.8322 21.9125 30.6497 21.9641 30.5238C22.0157 30.3978 22.1059 30.1937 22.1646 30.0702C22.2233 29.9466 22.2713 29.8364 22.2713 29.8251C22.2713 29.8139 22.3133 29.7144 22.3645 29.6038C22.4158 29.4933 22.4868 29.3396 22.5222 29.2621C22.6488 28.9858 22.777 29.0001 20.1819 29.0001H17.8254L17.7721 29.0955Z" fill="black"/>
</svg>
