<svg width="84" height="67" viewBox="0 0 84 67" fill="none" xmlns="http://www.w3.org/2000/svg">
<path fill-rule="evenodd" clip-rule="evenodd" d="M53.2686 0.142083C52.3972 0.211634 51.244 0.313121 50.7058 0.367589C50.1676 0.422056 49.5176 0.487138 49.2613 0.512184C47.9638 0.638902 45.5338 0.998388 43.5765 1.35322C40.8137 1.85404 37.0121 2.84535 34.4987 3.72046C34.2215 3.81701 33.9528 3.87018 33.9018 3.83861C33.8496 3.8064 33.8381 3.82837 33.8756 3.8888C33.9141 3.95109 33.8854 3.99634 33.8076 3.99634C33.6924 3.99634 31.9225 4.67127 31.3682 4.92657C31.2657 4.97377 30.6395 5.24909 29.9767 5.53837C28.7102 6.09124 27.4285 6.70789 26.8017 7.06607C26.5967 7.18329 26.1225 7.4425 25.7479 7.64231C25.0595 8.00934 23.7605 8.78678 22.8667 9.36684C22.5988 9.54057 22.3472 9.68871 22.3075 9.69597C22.2678 9.70314 22.1784 9.76599 22.1089 9.83544C22.0393 9.9049 21.7248 10.1356 21.41 10.3482C21.0951 10.5607 20.4117 11.0621 19.8914 11.4622C19.371 11.8624 18.9165 12.1897 18.8812 12.1897C18.8459 12.1897 18.7474 12.2667 18.6623 12.3609C18.3046 12.7565 16.6547 14.0959 16.5602 14.0674C16.5036 14.0503 16.4842 14.0631 16.5169 14.0959C16.6006 14.1794 14.8306 15.8703 14.6757 15.8547C14.6059 15.8477 14.5746 15.8835 14.606 15.9343C14.6374 15.9852 14.3089 16.389 13.876 16.8316C12.9972 17.7301 11.9188 18.9338 11.2366 19.778C10.9882 20.0852 10.7403 20.3226 10.6856 20.3056C10.6309 20.2885 10.615 20.3035 10.6505 20.3387C10.6858 20.3741 10.6748 20.4509 10.626 20.5095C10.5772 20.568 10.4177 20.7717 10.2714 20.9621C10.1251 21.1525 9.9722 21.2782 9.93138 21.2414C9.89066 21.2046 9.88544 21.2235 9.91974 21.2834C9.95403 21.3434 9.92766 21.4481 9.86102 21.5162C9.79439 21.5843 9.51444 21.9673 9.23896 22.3673C8.96339 22.7672 8.67151 23.1442 8.59034 23.2052C8.50917 23.2661 8.43442 23.3619 8.42417 23.4181C8.41402 23.4741 8.17805 23.8512 7.89978 24.256C7.31052 25.1132 6.251 26.816 5.84878 27.5524C5.69492 27.834 5.46324 28.2321 5.33399 28.4369C4.87119 29.1704 3.39995 32.1576 2.83483 33.5112C2.75999 33.6905 2.66335 33.9209 2.6202 34.0233C2.57696 34.1257 2.46541 34.4051 2.37222 34.6441C2.27902 34.8832 2.16402 35.0547 2.1165 35.0254C2.06906 34.9962 2.05955 35.0196 2.09534 35.0775C2.13122 35.1354 2.01827 35.6132 1.84447 36.1394C1.67066 36.6654 1.45632 37.3682 1.36834 37.701C1.28027 38.0339 1.16965 38.4329 1.12259 38.5877C0.948228 39.1616 0.751963 40.487 0.643952 41.8212C0.557562 42.8882 0.557749 43.5321 0.644884 44.7075C0.75653 46.2131 0.962766 47.7364 1.12707 48.2687C1.17441 48.4223 1.2293 48.6527 1.24905 48.7808C1.26872 48.9088 1.31112 49.0764 1.34327 49.1532C1.60198 49.7706 2.14529 51.6028 2.09422 51.6854C2.05825 51.7435 2.07214 51.7631 2.12581 51.7299C2.17977 51.6966 2.29403 51.8628 2.38797 52.1112C2.47948 52.3535 2.71517 52.86 2.91153 53.2369C3.10798 53.6139 3.24162 53.9661 3.20862 54.0195C3.17349 54.0762 3.19362 54.0888 3.25681 54.0498C3.31952 54.011 3.3911 54.054 3.42698 54.1518C3.51728 54.3979 4.18967 55.396 4.46589 55.6939C4.59646 55.8348 4.67642 55.95 4.64361 55.95C4.61081 55.95 4.77408 56.1371 5.00632 56.366C5.26195 56.6177 5.40164 56.8256 5.36027 56.8924C5.31749 56.9616 5.33184 56.9783 5.39857 56.9371C5.51394 56.8659 6.2607 57.5868 6.16778 57.6796C6.13759 57.7098 6.15492 57.7206 6.20637 57.7035C6.31167 57.6685 7.66484 58.6978 7.59941 58.7632C7.5763 58.7864 7.61302 58.8053 7.68115 58.8053C7.74918 58.8053 8.00453 58.9425 8.2486 59.1103C8.9044 59.5611 10.4372 60.2955 11.6827 60.7556C12.7299 61.1426 12.8124 61.1929 13.5188 61.8766C13.9256 62.2704 14.233 62.6338 14.2019 62.684C14.1707 62.7344 14.1898 62.7481 14.2442 62.7145C14.2986 62.6809 14.5857 62.8509 14.8823 63.0922C15.1787 63.3335 15.747 63.7265 16.1449 63.9655C16.5429 64.2044 16.8494 64.426 16.826 64.4579C16.8026 64.4897 16.8081 64.4982 16.8381 64.4767C16.8682 64.4552 17.2562 64.6177 17.7001 64.8377C19.5397 65.7492 21.8326 66.3824 24.8447 66.8108C26.608 67.0616 33.0305 67.0635 34.8163 66.8137C36.5523 66.5709 37.6085 66.398 38.7032 66.1773C39.2308 66.0709 39.7463 65.9739 39.8488 65.9616C39.9513 65.9493 40.2658 65.8745 40.5477 65.7953C40.8296 65.7162 41.5635 65.519 42.1786 65.3571C44.0947 64.8531 46.307 64.1468 48.3552 63.3852C49.0356 63.1322 49.6437 62.9545 49.7065 62.9905C49.7692 63.0265 49.7875 63.0199 49.7473 62.9756C49.6655 62.8861 50.4899 62.5313 50.609 62.6049C50.6506 62.6306 50.7364 62.5892 50.7998 62.513C50.8632 62.4367 50.9512 62.3744 50.9955 62.3744C51.077 62.3744 53.5099 61.3527 54.0021 61.1117C54.1493 61.0397 54.3171 61.0077 54.3749 61.0407C54.4327 61.0737 54.4487 61.0661 54.4104 61.0238C54.321 60.9254 55.5448 60.4054 55.6819 60.4835C55.7385 60.5158 55.7528 60.5069 55.7138 60.464C55.6197 60.3605 56.4678 59.9341 56.608 60.0143C56.6678 60.0485 56.6854 60.042 56.6472 59.9999C56.5936 59.9409 57.1372 59.6138 57.4157 59.5377C57.6005 59.4871 60.6049 57.9231 61.1184 57.6102C61.284 57.5092 61.4727 57.4572 61.5378 57.4946C61.6027 57.5321 61.625 57.5285 61.5872 57.4868C61.4995 57.39 63.5731 56.2241 63.7026 56.2975C63.7559 56.3276 63.7687 56.3184 63.7313 56.277C63.6652 56.2041 64.5454 55.6441 65.1382 55.3819C65.2989 55.3109 65.4303 55.2211 65.4303 55.1824C65.4303 55.1437 65.471 55.112 65.5208 55.112C65.5705 55.112 65.7906 54.9902 66.01 54.8414C67.1031 54.0995 67.5982 53.8127 67.689 53.8688C67.7448 53.9032 67.762 53.887 67.728 53.832C67.6946 53.7779 67.8034 53.653 67.9699 53.5545C68.1364 53.456 68.7015 53.0644 69.2256 52.6842C69.7498 52.304 70.5037 51.7625 70.901 51.4809C71.2983 51.1992 71.9656 50.6673 72.3839 50.2988C72.8021 49.9303 73.17 49.6475 73.2014 49.6703C73.2328 49.6931 73.2394 49.6858 73.2162 49.654C73.1929 49.6222 73.4284 49.3603 73.7394 49.0721C74.3369 48.5186 75.8707 46.8041 76.2316 46.2863C76.4157 46.0223 76.4666 45.9965 76.5993 46.1001C76.7318 46.2036 76.7378 46.2006 76.6428 46.0784C76.5533 45.9635 76.6048 45.8223 76.9139 45.3336C77.1237 45.0019 77.3201 44.7097 77.3505 44.684C77.5897 44.4815 78.6592 42.1444 78.7991 41.5184C79.0286 40.4903 79.0635 39.9213 78.9366 39.2696C78.8634 38.8934 78.8092 38.5332 78.8164 38.4692C78.8235 38.4052 78.7896 38.3528 78.741 38.3528C78.6925 38.3528 78.6786 38.3109 78.7103 38.2597C78.742 38.2085 78.7318 38.1666 78.6877 38.1666C78.6437 38.1666 78.4848 37.9724 78.3346 37.7351C78.1845 37.4978 77.8627 37.136 77.6194 36.931C77.3762 36.7261 77.2036 36.5158 77.2359 36.4636C77.2682 36.4114 77.2559 36.3926 77.2087 36.4218C77.0892 36.4956 76.4113 36.0735 76.4971 35.9789C76.5355 35.9367 76.5186 35.9298 76.4595 35.9635C76.4005 35.9972 76.1279 35.9095 75.8537 35.7685C75.5796 35.6275 75.1666 35.4366 74.936 35.3442C74.7053 35.2518 74.4453 35.1377 74.3583 35.0907C74.2711 35.0437 74.065 34.9815 73.9001 34.9525C73.7353 34.9235 73.5702 34.8811 73.5334 34.8584C73.4966 34.8357 73.0108 34.7269 72.4539 34.6168C71.1468 34.3582 68.3847 34.336 67.0145 34.5729C65.4277 34.8473 63.0182 35.4698 62.1219 35.8368C62.0194 35.8788 61.7887 35.9663 61.6093 36.0312C59.7294 36.7108 57.177 37.8756 50.1932 41.2408C47.8582 42.3659 42.6519 44.6841 42.46 44.6841C42.4364 44.6841 42.1957 44.7827 41.9251 44.9034C41.6545 45.0241 41.0137 45.2797 40.5011 45.4716C39.9886 45.6635 39.2966 45.9267 38.9634 46.0564C38.4028 46.2746 37.5516 46.5787 37.3326 46.6388C37.2813 46.653 37.1555 46.699 37.053 46.7412C36.5459 46.9497 34.6361 47.585 34.4809 47.5966C34.3835 47.604 34.3038 47.6384 34.3038 47.6732C34.3038 47.708 34.1885 47.7634 34.0475 47.7963C33.9066 47.8294 33.246 48.0253 32.5797 48.2317C31.9134 48.4382 31.2214 48.6429 31.042 48.6865C30.8626 48.7302 30.4642 48.8308 30.1567 48.9103C29.8492 48.9896 29.2411 49.1204 28.8054 49.2009C28.3697 49.2815 27.8108 49.3874 27.5635 49.4365C26.8857 49.5708 24.7698 49.5512 24.6167 49.4092C24.516 49.3158 24.5046 49.3166 24.5592 49.4129C24.6111 49.5043 24.5641 49.518 24.3633 49.4699C23.9897 49.3805 23.9983 49.3902 23.8556 48.8996C23.7727 48.6143 23.7277 48.0043 23.73 47.1979C23.7344 45.6759 23.9161 44.7688 24.4331 43.6886C24.6338 43.2692 24.7981 42.9059 24.7981 42.8814C24.7981 42.802 25.8487 41.2956 26.1383 40.9598C26.2928 40.7805 26.4561 40.6454 26.5009 40.6595C26.5458 40.6736 26.559 40.6468 26.5301 40.6002C26.4635 40.4925 26.7031 40.2871 26.792 40.3758C26.8284 40.4122 26.8334 40.3776 26.8031 40.2987C26.7668 40.2041 26.9164 39.9997 27.2439 39.6964C28.6685 38.3775 29.6979 37.5725 29.8444 37.663C29.9042 37.7 29.9275 37.6895 29.8966 37.6394C29.8425 37.5519 30.2756 37.2374 30.409 37.2672C30.4452 37.2754 30.5291 37.2134 30.5954 37.1295C30.6616 37.0457 30.9255 36.862 31.1818 36.7214C32.6425 35.9199 33.1857 35.6476 33.1869 35.7158C33.1877 35.7579 33.2191 35.7455 33.2568 35.6882C33.3566 35.5364 35.5744 34.579 36.82 34.1499C38.5883 33.5408 39.9197 33.1321 39.9703 33.1826C39.9966 33.2088 40.0638 33.1933 40.1198 33.148C40.2189 33.0678 41.1989 32.794 41.666 32.7159C41.7942 32.6945 42.2765 32.5769 42.7378 32.4546C43.1991 32.3323 43.6394 32.2281 43.7163 32.223C43.7932 32.218 44.2125 32.1291 44.6482 32.0256C45.0839 31.9221 45.65 31.7996 45.9063 31.7535C46.1626 31.7074 46.8126 31.5774 47.3508 31.4646C47.889 31.3519 48.3922 31.2469 48.4691 31.2312C48.6185 31.2008 51.687 30.615 52.8492 30.3951C53.5605 30.2606 57.4846 29.6115 59.0931 29.3624C60.0001 29.222 60.3493 29.1638 61.8889 28.8971C63.7235 28.5793 64.6192 28.3776 65.7761 28.0218C68.1077 27.3049 70.0223 26.6084 72.047 25.7406C72.9059 25.3725 75.3784 24.1454 75.5609 23.9967C75.6228 23.9464 75.7236 23.9362 75.785 23.9741C75.8475 24.0127 75.8724 24.0038 75.8415 23.9539C75.8111 23.9048 76.0248 23.7231 76.3163 23.5501C77.0167 23.1344 78.3825 22.2405 78.6171 22.0444C78.7196 21.9587 78.9922 21.7342 79.2228 21.5455C80.4144 20.5709 81.8698 18.9516 82.3178 18.102C83.0134 16.7827 83.1892 16.3853 83.3686 15.7278C83.5749 14.9716 83.6466 13.217 83.5075 12.3294C83.4433 11.9197 83.386 11.4942 83.3804 11.3839C83.3746 11.2737 83.3439 11.1994 83.3121 11.219C83.2804 11.2387 83.1797 11.0176 83.0886 10.7279C82.9014 10.1335 82.4468 9.31898 81.8747 8.55308C81.2802 7.75711 81.1646 7.6235 80.7181 7.21551C80.4897 7.00685 80.204 6.74103 80.083 6.62474C79.962 6.50855 79.7613 6.34691 79.637 6.26545C79.5126 6.18407 79.4381 6.06964 79.4716 6.01126C79.5049 5.95279 79.4999 5.93417 79.4604 5.96974C79.4209 6.0053 79.0681 5.81024 78.6766 5.53632C77.47 4.69222 74.4635 3.06527 74.1102 3.06527C74.0517 3.06527 74.004 3.02337 74.004 2.97216C74.004 2.92095 73.9717 2.88948 73.9323 2.90233C73.8626 2.92496 73.6245 2.83269 72.6527 2.40644C72.3964 2.29406 72.1239 2.19192 72.047 2.17945C71.9701 2.16707 71.6346 2.05189 71.3014 1.92368C68.922 1.00761 66.6675 0.475965 63.7062 0.13268C62.1422 -0.0486926 55.5845 -0.0427339 53.2686 0.142083Z" fill="black"/>
</svg>
