<svg width="27" height="22" viewBox="0 0 27 22" fill="none" xmlns="http://www.w3.org/2000/svg">
<path fill-rule="evenodd" clip-rule="evenodd" d="M16.5566 0.0448831C16.2828 0.0668537 15.9204 0.0989127 15.7513 0.116119C15.5822 0.133325 15.3779 0.153883 15.2974 0.161795C14.8897 0.201825 14.1261 0.315384 13.511 0.427472C12.6429 0.585678 11.4483 0.898826 10.6585 1.17527C10.5714 1.20577 10.487 1.22256 10.471 1.21259C10.4545 1.20241 10.4509 1.20936 10.4627 1.22844C10.4748 1.24812 10.4658 1.26241 10.4414 1.26241C10.4052 1.26241 9.849 1.47562 9.67482 1.55627C9.64261 1.57118 9.44585 1.65815 9.23758 1.74953C8.83958 1.92418 8.43683 2.11897 8.2399 2.23212C8.17547 2.26915 8.02645 2.35103 7.90875 2.41415C7.69243 2.53009 7.28424 2.77568 7.00337 2.95892C6.91921 3.0138 6.84014 3.06059 6.82767 3.06289C6.81519 3.06515 6.78711 3.08501 6.76526 3.10695C6.74339 3.12889 6.64456 3.20177 6.54563 3.26892C6.44668 3.33606 6.23194 3.49445 6.06845 3.62083C5.90493 3.74724 5.76211 3.85065 5.75101 3.85065C5.73991 3.85065 5.70896 3.87498 5.68222 3.90471C5.56983 4.02968 5.05138 4.4528 5.02169 4.4438C5.00391 4.43839 4.99779 4.44245 5.00807 4.4528C5.03437 4.47918 4.4782 5.0133 4.42953 5.00839C4.4076 5.00618 4.39776 5.01748 4.40763 5.03354C4.41749 5.0496 4.31427 5.17716 4.17821 5.31698C3.90209 5.6008 3.56322 5.98107 3.34883 6.24772C3.27079 6.34477 3.19289 6.41977 3.1757 6.41439C3.15851 6.40898 3.15353 6.41372 3.16466 6.42486C3.17576 6.43604 3.1723 6.4603 3.15699 6.4788C3.14164 6.49727 3.09151 6.56163 3.04556 6.62177C2.99958 6.68192 2.95153 6.72163 2.9387 6.71001C2.92591 6.69839 2.92427 6.70436 2.93504 6.72328C2.94582 6.74222 2.93753 6.7753 2.91659 6.7968C2.89566 6.81833 2.80769 6.9393 2.72112 7.06566C2.63453 7.19198 2.54281 7.3111 2.5173 7.33036C2.4918 7.3496 2.46831 7.37986 2.46509 7.3976C2.4619 7.41531 2.38775 7.53442 2.30031 7.66231C2.11514 7.93307 1.78221 8.47098 1.65582 8.7036C1.60747 8.79257 1.53467 8.91831 1.49406 8.98301C1.34863 9.21472 0.886322 10.1584 0.708743 10.586C0.685228 10.6426 0.65486 10.7154 0.641301 10.7477C0.627714 10.7801 0.59266 10.8683 0.563376 10.9438C0.534092 11.0193 0.497956 11.0735 0.483021 11.0643C0.468115 11.055 0.465128 11.0624 0.476373 11.0807C0.487647 11.099 0.452155 11.25 0.39754 11.4162C0.342925 11.5823 0.275572 11.8043 0.247927 11.9095C0.220254 12.0146 0.185493 12.1407 0.170705 12.1896C0.115914 12.3709 0.0542418 12.7895 0.0203015 13.211C-0.00684496 13.5481 -0.00678639 13.7515 0.0205943 14.1228C0.0556767 14.5984 0.120483 15.0796 0.172111 15.2477C0.186987 15.2963 0.204235 15.3691 0.210444 15.4095C0.216623 15.4499 0.229947 15.5029 0.24005 15.5271C0.321343 15.7222 0.492069 16.301 0.476022 16.3271C0.464718 16.3454 0.469081 16.3516 0.485949 16.3411C0.502904 16.3306 0.538807 16.3831 0.568325 16.4616C0.597082 16.5381 0.671142 16.6981 0.732844 16.8172C0.794575 16.9363 0.836568 17.0475 0.826202 17.0644C0.815162 17.0823 0.821487 17.0863 0.841342 17.0739C0.86105 17.0617 0.88354 17.0753 0.894814 17.1062C0.923191 17.1839 1.13448 17.4992 1.22127 17.5933C1.2623 17.6378 1.28743 17.6742 1.27712 17.6742C1.26681 17.6742 1.31812 17.7333 1.39109 17.8056C1.47142 17.8851 1.51532 17.9508 1.50231 17.9719C1.48887 17.9938 1.49338 17.9991 1.51435 17.986C1.5506 17.9635 1.78526 18.1913 1.75606 18.2206C1.74657 18.2301 1.75202 18.2335 1.76819 18.2281C1.80128 18.2171 2.22648 18.5422 2.20593 18.5629C2.19866 18.5702 2.2102 18.5762 2.23161 18.5762C2.25299 18.5762 2.33322 18.6195 2.40992 18.6725C2.61599 18.8149 3.09766 19.0469 3.48901 19.1923C3.81808 19.3145 3.84402 19.3304 4.066 19.5464C4.19382 19.6708 4.2904 19.7856 4.28062 19.8014C4.27084 19.8174 4.27684 19.8217 4.29392 19.8111C4.31102 19.8004 4.40124 19.8541 4.49442 19.9304C4.58758 20.0066 4.76615 20.1307 4.8912 20.2062C5.01624 20.2817 5.11255 20.3517 5.1052 20.3618C5.09785 20.3719 5.09958 20.3745 5.10901 20.3677C5.11847 20.3609 5.24038 20.4123 5.37989 20.4818C5.95793 20.7697 6.67844 20.9697 7.62493 21.1051C8.17902 21.1843 10.1972 21.1849 10.7583 21.106C11.3038 21.0293 11.6357 20.9746 11.9797 20.9049C12.1455 20.8713 12.3075 20.8407 12.3397 20.8368C12.3719 20.8329 12.4707 20.8093 12.5593 20.7843C12.6479 20.7593 12.8785 20.697 13.0718 20.6459C13.6739 20.4866 14.3691 20.2635 15.0127 20.0229C15.2265 19.943 15.4176 19.8869 15.4373 19.8983C15.457 19.9096 15.4628 19.9075 15.4501 19.8936C15.4244 19.8653 15.6835 19.7532 15.7209 19.7764C15.7339 19.7846 15.7609 19.7715 15.7808 19.7474C15.8007 19.7233 15.8284 19.7036 15.8423 19.7036C15.868 19.7036 16.6324 19.3809 16.7871 19.3048C16.8334 19.282 16.8861 19.2719 16.9042 19.2823C16.9224 19.2928 16.9274 19.2904 16.9154 19.277C16.8873 19.2459 17.2719 19.0816 17.3149 19.1063C17.3327 19.1165 17.3372 19.1137 17.325 19.1001C17.2954 19.0675 17.5619 18.9328 17.6059 18.9581C17.6247 18.9689 17.6303 18.9669 17.6183 18.9536C17.6014 18.9349 17.7722 18.8316 17.8597 18.8075C17.9178 18.7916 18.8619 18.2975 19.0233 18.1986C19.0753 18.1668 19.1346 18.1503 19.155 18.1621C19.1755 18.174 19.1825 18.1728 19.1706 18.1597C19.143 18.1291 19.7946 17.7608 19.8353 17.784C19.852 17.7935 19.8561 17.7906 19.8443 17.7775C19.8235 17.7545 20.1001 17.5776 20.2864 17.4948C20.3369 17.4723 20.3782 17.444 20.3782 17.4317C20.3782 17.4195 20.391 17.4095 20.4066 17.4095C20.4223 17.4095 20.4914 17.371 20.5604 17.324C20.9038 17.0896 21.0594 16.9991 21.0879 17.0168C21.1055 17.0276 21.1109 17.0225 21.1002 17.0051C21.0897 16.9881 21.1239 16.9486 21.1762 16.9175C21.2285 16.8864 21.4061 16.7627 21.5708 16.6426C21.7355 16.5225 21.9724 16.3514 22.0973 16.2624C22.2221 16.1735 22.4318 16.0054 22.5632 15.889C22.6947 15.7726 22.8103 15.6833 22.8201 15.6905C22.83 15.6977 22.8321 15.6954 22.8248 15.6853C22.8174 15.6753 22.8914 15.5926 22.9892 15.5015C23.1769 15.3267 23.6589 14.7851 23.7723 14.6215C23.8301 14.5381 23.8461 14.53 23.8878 14.5627C23.9295 14.5954 23.9314 14.5944 23.9015 14.5558C23.8734 14.5196 23.8896 14.4749 23.9867 14.3206C24.0526 14.2158 24.1143 14.1235 24.1239 14.1153C24.1991 14.0514 24.5351 13.3131 24.5791 13.1154C24.6512 12.7906 24.6622 12.6108 24.6223 12.405C24.5993 12.2861 24.5823 12.1724 24.5845 12.1521C24.5868 12.1319 24.5761 12.1154 24.5608 12.1154C24.5456 12.1154 24.5412 12.1021 24.5512 12.086C24.5611 12.0698 24.5579 12.0565 24.5441 12.0565C24.5303 12.0565 24.4803 11.9952 24.4331 11.9203C24.386 11.8453 24.2848 11.731 24.2084 11.6663C24.132 11.6015 24.0777 11.5351 24.0879 11.5186C24.098 11.5021 24.0942 11.4962 24.0793 11.5054C24.0418 11.5287 23.8288 11.3954 23.8557 11.3655C23.8678 11.3521 23.8625 11.35 23.8439 11.3606C23.8254 11.3713 23.7397 11.3435 23.6536 11.299C23.5674 11.2545 23.4376 11.1942 23.3652 11.165C23.2927 11.1358 23.211 11.0998 23.1836 11.0849C23.1563 11.07 23.0915 11.0504 23.0397 11.0413C22.9879 11.0321 22.936 11.0187 22.9244 11.0115C22.9129 11.0043 22.7602 10.97 22.5852 10.9352C22.1745 10.8535 21.3066 10.8465 20.876 10.9213C20.3774 11.008 19.6203 11.2047 19.3386 11.3206C19.3064 11.3339 19.2339 11.3615 19.1775 11.382C18.5868 11.5967 17.7847 11.9646 15.5902 13.0277C14.8565 13.3831 13.2205 14.1154 13.1602 14.1154C13.1528 14.1154 13.0771 14.1466 12.9921 14.1847C12.9071 14.2228 12.7057 14.3036 12.5447 14.3642C12.3836 14.4248 12.1662 14.5079 12.0615 14.5489C11.8853 14.6178 11.6178 14.7139 11.549 14.7329C11.5329 14.7373 11.4934 14.7519 11.4612 14.7652C11.3018 14.8311 10.7017 15.0318 10.6529 15.0354C10.6223 15.0378 10.5973 15.0486 10.5973 15.0596C10.5973 15.0706 10.561 15.0881 10.5167 15.0985C10.4725 15.109 10.2649 15.1708 10.0555 15.2361C9.84614 15.3013 9.6287 15.3659 9.57233 15.3797C9.51596 15.3935 9.39077 15.4253 9.29413 15.4504C9.19749 15.4755 9.00641 15.5168 8.86951 15.5422C8.7326 15.5677 8.55699 15.6011 8.47927 15.6166C8.26628 15.6591 7.60139 15.6529 7.55327 15.608C7.52165 15.5785 7.51807 15.5788 7.53523 15.6092C7.55152 15.6381 7.53676 15.6424 7.47365 15.6272C7.35628 15.599 7.35897 15.602 7.31414 15.447C7.28807 15.3569 7.27393 15.1642 7.27466 14.9095C7.27604 14.4287 7.33314 14.1421 7.49558 13.8009C7.55866 13.6684 7.61029 13.5537 7.61029 13.5459C7.61029 13.5208 7.94041 13.045 8.03142 12.9389C8.07998 12.8823 8.13128 12.8396 8.14537 12.844C8.15948 12.8485 8.16361 12.84 8.15453 12.8253C8.1336 12.7913 8.20892 12.7264 8.23682 12.7544C8.24827 12.7659 8.24986 12.755 8.24034 12.7301C8.22892 12.7002 8.27592 12.6356 8.37885 12.5398C8.82649 12.1232 9.14996 11.8689 9.196 11.8975C9.2148 11.9092 9.22212 11.9058 9.2124 11.89C9.19538 11.8624 9.3315 11.763 9.3734 11.7725C9.38479 11.775 9.41115 11.7555 9.43197 11.729C9.45279 11.7025 9.53572 11.6445 9.61625 11.6C10.0753 11.3468 10.2459 11.2608 10.2463 11.2824C10.2466 11.2957 10.2564 11.2918 10.2683 11.2736C10.2996 11.2257 10.9965 10.9233 11.3879 10.7877C11.9436 10.5953 12.362 10.4662 12.3779 10.4822C12.3861 10.4904 12.4072 10.4855 12.4248 10.4712C12.456 10.4459 12.7639 10.3594 12.9107 10.3347C12.951 10.328 13.1025 10.2908 13.2475 10.2522C13.3924 10.2135 13.5308 10.1806 13.555 10.179C13.5791 10.1774 13.7109 10.1494 13.8478 10.1167C13.9847 10.084 14.1626 10.0453 14.2432 10.0307C14.3237 10.0161 14.5279 9.97507 14.6971 9.93946C14.8662 9.90384 15.0243 9.87066 15.0485 9.86572C15.0954 9.8561 16.0596 9.67107 16.4248 9.6016C16.6483 9.5591 17.8814 9.35407 18.3869 9.27537C18.6719 9.23101 18.7816 9.21263 19.2654 9.1284C19.8419 9.02798 20.1233 8.96428 20.4869 8.8519C21.2195 8.62543 21.8212 8.40539 22.4574 8.13128C22.7273 8.01498 23.5042 7.62737 23.5616 7.58039C23.581 7.56448 23.6127 7.56128 23.632 7.57325C23.6516 7.58545 23.6594 7.58263 23.6497 7.56686C23.6402 7.55137 23.7073 7.49395 23.7989 7.43931C24.019 7.30798 24.4482 7.02563 24.5219 6.96366C24.5541 6.9366 24.6398 6.86569 24.7122 6.80607C25.0867 6.49822 25.544 5.98669 25.6848 5.7183C25.9033 5.30154 25.9586 5.17601 26.015 4.9683C26.0798 4.72942 26.1023 4.17515 26.0586 3.89477C26.0384 3.76536 26.0205 3.63095 26.0187 3.59609C26.0169 3.56127 26.0072 3.5378 25.9972 3.54401C25.9872 3.55021 25.9556 3.48039 25.927 3.38886C25.8682 3.20109 25.7253 2.9438 25.5456 2.70186C25.3587 2.45042 25.3224 2.40821 25.1821 2.27933C25.1103 2.21342 25.0205 2.12945 24.9825 2.09271C24.9445 2.056 24.8814 2.00495 24.8424 1.97921C24.8033 1.9535 24.7799 1.91736 24.7904 1.89892C24.8009 1.88044 24.7993 1.87456 24.7869 1.8858C24.7745 1.89703 24.6636 1.83542 24.5406 1.74889C24.1614 1.48224 23.2167 0.968296 23.1057 0.968296C23.0873 0.968296 23.0723 0.955061 23.0723 0.938884C23.0723 0.922708 23.0622 0.912767 23.0498 0.916826C23.0279 0.923973 22.9531 0.894826 22.6477 0.760178C22.5672 0.724678 22.4815 0.692414 22.4574 0.688472C22.4332 0.684561 22.3278 0.648178 22.2231 0.607678C21.4754 0.318295 20.767 0.150354 19.8364 0.0419126C19.345 -0.0153816 17.2843 -0.0134993 16.5566 0.0448831Z" fill="black"/>
</svg>
