<svg width="38" height="95" viewBox="0 0 38 95" fill="none" xmlns="http://www.w3.org/2000/svg">
<path fill-rule="evenodd" clip-rule="evenodd" d="M2.78215 1.14C0.277654 2.828 -0.283347 4.2195 0.117653 7.75C0.305153 9.4 0.436652 11.74 0.410652 12.9495C0.375152 14.582 0.668652 15.5125 1.54965 16.56C4.12565 19.621 5.42415 30.3175 5.39765 48.25C5.37615 62.9735 4.77515 72.1035 3.55665 76.216C3.12465 77.6735 2.82615 80.7675 2.82615 83.7855C2.82615 90.6395 2.85915 90.676 10.8387 92.532C17.9762 94.192 25.6136 94.515 27.8261 93.25C28.5136 92.857 29.8636 92.526 30.8261 92.515C33.9911 92.478 36.2686 91.562 37.0751 90.0015C38.8866 86.4985 37.0997 79.8725 33.6497 77.2985C31.7667 75.8935 27.9606 74.971 24.7147 75.132C22.8272 75.226 22.1252 75.021 21.2147 74.1105L20.0762 72.972V51.861C20.0762 29.4055 19.7872 25.713 17.2492 15.75C16.6892 13.55 16.0222 10.889 15.7672 9.836C15.1697 7.368 13.1992 3.4895 11.9867 2.394C10.6607 1.1955 7.62865 0 5.91615 0C5.12315 0 3.71265 0.513 2.78215 1.14Z" fill="black"/>
</svg>
