<svg width="27" height="26" viewBox="0 0 27 26" fill="none" xmlns="http://www.w3.org/2000/svg">
<path fill-rule="evenodd" clip-rule="evenodd" d="M23.6658 0.044652C23.3906 0.132397 23.1732 0.273149 22.9284 0.521841C22.7913 0.661122 22.6538 0.824684 22.6229 0.885305C22.592 0.945893 22.5556 1.00285 22.5421 1.01184C22.5045 1.03684 22.2206 1.58798 22.1128 1.84517C21.9186 2.30851 21.7744 2.88135 21.6825 3.55472C21.6389 3.87377 21.6633 4.65857 21.7304 5.09681C21.8048 5.58246 21.7986 5.54844 21.889 5.96282C22.0607 6.74972 22.1558 7.57047 22.1314 8.05432C22.1103 8.47106 21.9467 9.11269 21.6981 9.75367C21.6632 9.84354 21.5589 10.1229 21.4663 10.3746C21.2803 10.8802 21.0486 11.4629 20.9334 11.7145C20.8923 11.8043 20.8184 11.9661 20.7692 12.0739C20.5827 12.4829 20.3277 12.9974 20.2024 13.2177C20.1309 13.3435 20.0536 13.4832 20.0307 13.5282C19.9889 13.6099 19.5711 14.2459 19.3974 14.4922C19.1752 14.8072 19.1369 14.8443 18.9368 14.9384C18.8187 14.994 18.6798 15.0922 18.6114 15.1685C18.5459 15.2417 18.3934 15.4062 18.2725 15.5342C18.1517 15.6621 18.0193 15.8035 17.9783 15.8484C17.9373 15.8934 17.8706 15.9595 17.8301 15.9955C17.7896 16.0314 17.695 16.1214 17.62 16.1954C17.321 16.4901 17.2268 16.5677 17.2003 16.5411C17.161 16.5016 17.3187 15.5824 17.4003 15.3746C17.4145 15.3386 17.4599 15.2217 17.5012 15.1148C17.5834 14.9024 17.6419 14.8018 17.847 14.52C18.1249 14.138 18.1657 13.7831 17.9909 13.2667C17.9159 13.0451 17.8806 12.871 17.8676 12.658C17.8506 12.3819 17.8552 12.3497 17.9293 12.2249C17.9734 12.1508 18.0215 12.1012 18.0364 12.1147C18.0512 12.1282 18.054 12.1228 18.0425 12.1025C18.0013 12.03 18.516 11.4173 18.5832 11.459C18.6013 11.4702 18.6069 11.4645 18.5956 11.4461C18.5668 11.3993 18.6908 11.2941 18.7392 11.3242C18.7637 11.3394 18.7705 11.3351 18.7569 11.313C18.7448 11.2934 18.7558 11.2654 18.7815 11.2508C18.8071 11.2362 18.8771 11.1801 18.937 11.1262C18.9968 11.0723 19.0998 10.9876 19.1659 10.938C19.5707 10.6338 19.7331 10.3071 19.6606 9.94275C19.6198 9.73818 19.2749 9.67148 18.9604 9.80736L18.7983 9.87739L18.7007 9.78341C18.6158 9.70177 18.5785 9.68958 18.4175 9.69086C18.2013 9.69256 17.9992 9.77262 17.6137 10.0092C17.1295 10.3063 16.9509 10.4496 16.5185 10.8876C16.1361 11.275 16.0459 11.3859 15.7416 11.8426C15.3297 12.4606 15.1238 12.8877 15.043 13.2912C15.0313 13.3497 15.0155 13.3975 15.0078 13.3975C15.0002 13.3975 14.8952 13.2972 14.7745 13.1747C14.5683 12.9654 14.2698 12.7275 14.2134 12.7275C14.1995 12.7275 14.13 12.6893 14.059 12.6426C13.8841 12.5276 13.3967 12.33 13.0499 12.2336C12.8796 12.1862 12.5959 12.1415 12.3426 12.1221C12.1099 12.1044 11.7658 12.0739 11.5779 12.0546C11.1744 12.0129 10.6768 12.0061 10.4716 12.0394C9.88668 12.1345 9.55421 12.4582 9.65638 12.8332C9.75282 13.1872 9.93494 13.294 10.5145 13.3363C11.3438 13.3969 11.5956 13.4304 11.8104 13.5087C12.081 13.6074 12.1316 13.6353 12.2113 13.73C12.2935 13.8275 12.2941 14.1253 12.2131 14.6052C12.1135 15.1955 12.1989 15.5888 12.489 15.8773C12.5568 15.9448 12.742 16.0671 12.9004 16.1491C13.0589 16.2312 13.1849 16.3147 13.1804 16.3348C13.1759 16.3549 13.193 16.3713 13.2183 16.3713C13.3279 16.3713 13.5465 16.7572 13.8753 17.5309C13.9822 17.7826 14.0833 18.2056 14.0833 18.4011V18.4955H13.3005C12.3581 18.4955 12.0666 18.4481 11.4724 18.1985C11.2623 18.1102 11.082 18.038 11.0718 18.038C11.0616 18.038 10.9773 18.0024 10.8845 17.9589C10.7084 17.8763 10.3042 17.8009 10.1088 17.8141C9.98059 17.8228 9.85333 17.7548 9.52802 17.5039C9.17566 17.2321 8.5754 16.6471 8.43302 16.4367C8.367 16.3392 8.25757 16.195 8.08561 15.9792C8.00658 15.8799 7.46781 15.0966 7.04043 14.4595C6.88366 14.2259 6.70086 13.9685 6.63416 13.8877C6.34473 13.5365 6.07096 13.04 5.95841 12.6622C5.8782 12.3928 5.87732 11.3039 5.95694 10.8484C6.07389 10.1794 6.28441 8.98962 6.32703 8.75694C6.45933 8.03439 6.48247 7.807 6.48321 7.22099C6.48367 6.88236 6.46564 6.50141 6.44228 6.35498C6.33826 5.70374 6.22971 5.2557 6.06224 4.78635C5.99811 4.60661 5.92268 4.39338 5.8946 4.31249C5.86652 4.23161 5.78671 4.04615 5.71724 3.90037C5.64777 3.75455 5.59093 3.62632 5.59093 3.61537C5.59093 3.60439 5.52504 3.48347 5.44451 3.34668C5.36397 3.20988 5.29808 3.09253 5.29808 3.08596C5.29808 3.07387 5.11086 2.78857 5.06287 2.72753C5.04875 2.70955 4.97554 2.61396 4.90015 2.51511C4.73573 2.29942 4.42005 1.97959 4.2406 1.84687C4.16902 1.7939 4.10313 1.74191 4.09418 1.73132C4.08523 1.72073 4.00551 1.66455 3.91701 1.60651C3.47469 1.31645 2.81469 1.29429 2.30459 1.55233C2.11649 1.64749 1.76589 1.94625 1.55908 2.18759C1.29904 2.49106 1.15652 2.71939 0.946751 3.1687C0.710005 3.67573 0.732717 3.61697 0.567814 4.1491C0.333508 4.9053 0.244029 5.29217 0.137077 6.01184C-0.0179991 7.05537 -0.0446477 8.57007 0.0732699 9.63929C0.266806 11.3941 0.379127 11.9844 0.705254 12.961C0.955374 13.71 1.42389 14.6937 1.86227 15.3901C1.93555 15.5065 2.01012 15.6282 2.02802 15.6607C2.12752 15.8408 2.81827 16.9372 3.06923 17.3134C3.2303 17.5548 3.37672 17.7761 3.39461 17.8052C3.41251 17.8342 3.46525 17.9095 3.51185 17.9725C3.55841 18.0355 3.66731 18.1899 3.75387 18.3158C4.0048 18.6806 4.52713 19.3952 4.75246 19.682C4.78346 19.7214 4.82026 19.7684 4.83426 19.7863C4.87428 19.8377 5.22227 20.2613 5.35603 20.4214C5.71841 20.8553 6.80654 21.8695 6.96764 21.9235C6.98892 21.9306 7.07222 21.9906 7.15275 22.0568C7.23328 22.1229 7.38452 22.2333 7.48883 22.302C7.59315 22.3707 7.73388 22.5019 7.80152 22.5935C7.90503 22.7337 8.10598 22.9331 8.32431 23.1122C8.35125 23.1343 8.46107 23.1794 8.56834 23.2124C8.67559 23.2454 8.81462 23.3045 8.87726 23.3437C9.09175 23.4779 9.28411 23.556 9.49548 23.5947C9.6118 23.616 9.78751 23.6603 9.88593 23.693C9.98436 23.7259 10.1601 23.7699 10.2764 23.791C10.3927 23.8121 10.5117 23.8414 10.5408 23.8562C10.5699 23.871 10.6458 23.893 10.7094 23.905C10.9224 23.9451 10.8803 24.0238 10.6194 24.0733C10.5843 24.08 10.5139 24.1362 10.463 24.1983C10.412 24.2604 10.3601 24.3098 10.3477 24.308C10.2545 24.2945 10.0676 24.4014 10.0637 24.4705C10.0579 24.5719 10.0016 24.6799 9.9419 24.704L9.86967 24.7332L9.94288 24.7353C9.98316 24.7364 10.0161 24.7529 10.0161 24.7719C10.0161 24.791 10.033 24.7961 10.0537 24.7832C10.0755 24.7697 10.0824 24.7742 10.0703 24.7939C10.0588 24.8127 10.0711 24.8461 10.0978 24.8683C10.1244 24.8906 10.1462 24.8982 10.1462 24.8853C10.1462 24.8724 10.2111 24.9 10.2904 24.9467C10.4101 25.0171 10.4495 25.0259 10.5221 24.9981C10.5808 24.9757 10.6227 24.9755 10.649 24.9975C10.7023 25.0419 11.3664 25.0094 11.8505 24.9387C11.9737 24.9207 12.0946 24.9138 12.1194 24.9234C12.1442 24.9329 12.1825 24.9261 12.2047 24.9084C12.2268 24.8906 12.3255 24.868 12.4239 24.8581C12.6068 24.8398 13.3371 24.7179 13.4299 24.6902C13.4582 24.6817 13.5619 24.6662 13.6603 24.6557C13.7588 24.6451 13.8905 24.6229 13.9532 24.6063C14.0158 24.5897 14.2428 24.5469 14.4575 24.5111C14.6723 24.4753 14.8931 24.4324 14.9483 24.4158C15.0035 24.3991 15.139 24.375 15.2494 24.3621C15.3597 24.3493 15.4582 24.3255 15.4682 24.3093C15.4781 24.2931 15.5223 24.2798 15.5663 24.2798C15.6543 24.2798 16.0747 24.1733 16.2796 24.0992C16.3512 24.0732 16.4537 24.0437 16.5074 24.0335C16.6084 24.0143 16.6363 24.0071 16.7189 23.9789C16.7457 23.9697 16.8263 23.9445 16.8979 23.9228C16.9694 23.9011 17.061 23.8696 17.1012 23.8528C17.3526 23.748 17.5791 23.6709 17.718 23.6427C17.7754 23.6311 17.8809 23.5932 17.9524 23.5586C18.0239 23.5239 18.1094 23.4955 18.1425 23.4955C18.1756 23.4955 18.2165 23.4826 18.2335 23.4668C18.2505 23.451 18.323 23.4192 18.3946 23.3962C18.4662 23.3732 18.5728 23.3273 18.6315 23.2942C18.6902 23.2611 18.7671 23.2341 18.8023 23.2341C18.8376 23.2341 18.8664 23.2221 18.8664 23.2074C18.8664 23.1728 19.0488 23.0859 19.1838 23.0561C19.2418 23.0433 19.3077 23.0065 19.33 22.9744C19.3524 22.9423 19.3854 22.9121 19.4033 22.9072C19.5027 22.8803 19.5833 22.8248 19.6001 22.7716C19.6106 22.7384 19.6328 22.7112 19.6495 22.7112C19.6662 22.7112 19.6799 22.6818 19.6799 22.6458C19.6799 22.6099 19.6961 22.5805 19.7159 22.5805C19.7357 22.5805 19.745 22.5621 19.7366 22.5396C19.7283 22.5172 19.733 22.4694 19.7471 22.4334C19.768 22.3805 19.7733 22.3887 19.7752 22.4762C19.7765 22.5361 19.7913 22.5757 19.8086 22.565C19.8385 22.5464 19.8351 22.5173 19.7887 22.3926C19.7771 22.3611 19.7712 22.306 19.7757 22.27C19.7801 22.2341 19.7731 22.2152 19.7599 22.2282C19.7468 22.2411 19.6978 22.2257 19.651 22.1939C19.6042 22.1621 19.522 22.1167 19.4684 22.0929C19.3381 22.0353 18.9386 22.0458 18.8762 22.1085C18.8079 22.1771 18.7816 22.1663 18.8452 22.0958C18.8748 22.0629 18.8885 22.0253 18.8756 22.0124C18.8627 21.9994 18.8797 21.9994 18.9134 22.0124C18.9548 22.0283 18.9674 22.0241 18.9522 21.9994C18.9261 21.9569 19.0405 21.8851 19.0788 21.9198C19.093 21.9327 19.0925 21.9223 19.0778 21.8968C19.0576 21.8619 19.0649 21.8558 19.1068 21.8719C19.1396 21.8845 19.1545 21.8803 19.143 21.8615C19.118 21.821 19.2915 21.6001 19.3483 21.6001C19.3717 21.6001 19.3818 21.5854 19.3707 21.5674C19.3511 21.5355 19.3939 21.5214 19.477 21.5324C19.4997 21.5354 19.5153 21.5261 19.5117 21.5117C19.5082 21.4974 19.574 21.4124 19.6579 21.3227C19.7418 21.2331 19.8185 21.1346 19.8282 21.1038C19.8379 21.073 19.8708 21.0394 19.9011 21.0291C19.9635 21.0079 20.1679 20.8284 20.1679 20.7948C20.1679 20.7443 20.3379 20.5543 20.383 20.5543C20.41 20.5543 20.424 20.5412 20.4142 20.5252C20.4043 20.5092 20.4328 20.472 20.4776 20.4426C20.5223 20.4132 20.6048 20.3074 20.6609 20.2074C20.7171 20.1075 20.799 20.0093 20.8429 19.9892C20.8869 19.9691 20.9877 19.8527 21.0671 19.7306C21.1707 19.5711 21.2309 19.5086 21.2808 19.5086C21.3189 19.5086 21.3419 19.5003 21.3319 19.4903C21.3219 19.4802 21.3636 19.4177 21.4245 19.3514C21.4855 19.285 21.5644 19.1712 21.5999 19.0983C21.6353 19.0255 21.7219 18.9225 21.7923 18.8695C21.8805 18.8033 21.9651 18.6867 22.0639 18.4955C22.1558 18.3175 22.2238 18.2216 22.2533 18.2286C22.2785 18.2346 22.2894 18.2297 22.2775 18.2178C22.2656 18.2058 22.2916 18.1432 22.3352 18.0787C22.4194 17.9541 22.5059 17.6938 22.517 17.5314C22.5207 17.4775 22.7229 17.0363 22.9663 16.5511C23.2098 16.0658 23.447 15.5805 23.4935 15.4726C23.6024 15.2203 23.7471 14.847 23.7471 14.8184C23.7471 14.8062 23.7685 14.7499 23.7947 14.6932C23.8531 14.567 24.0078 14.1445 24.1557 13.7079C24.2602 13.3992 24.3188 13.2342 24.6314 12.368C24.7027 12.1703 24.8027 11.8909 24.8536 11.7471C24.9045 11.6033 24.9847 11.3828 25.0318 11.2569C25.9186 8.889 26.0923 8.21922 26.3074 6.33864C26.3736 5.75926 26.3847 3.90184 26.3245 3.47916C26.1675 2.37812 25.7726 1.25802 25.3531 0.724227C25.2279 0.565011 24.9217 0.291384 24.7537 0.188802C24.4674 0.0139331 23.9691 -0.05208 23.6658 0.044652Z" fill="black"/>
</svg>
