<svg width="156" height="87" viewBox="0 0 156 87" fill="none" xmlns="http://www.w3.org/2000/svg">
<path fill-rule="evenodd" clip-rule="evenodd" d="M42.2652 0.372315C41.0496 0.643977 37.2354 1.67916 33.7892 2.67297C30.3431 3.66678 27.0101 4.62313 26.3825 4.79772C22.2022 5.96222 10.6198 10.0078 6.3345 11.8003C0.975062 14.0417 0.188099 14.9547 0.0250989 19.1189C-0.228529 25.5945 1.50123 49.9169 2.4551 53.2853C3.22512 56.0055 4.8336 58.6922 9.96158 65.8261C19.2007 78.6782 22.7121 82.9694 24.6606 83.7889C26.1331 84.4081 29.027 84.3339 32.0986 83.598C35.2285 82.8482 55.1898 76.0306 60.903 73.7603C69.496 70.3456 71.8025 68.9502 73.026 66.4254C73.721 64.9912 73.8015 64.3195 73.9195 58.9857C74.1151 50.1469 73.4504 32.7062 72.8271 30.3212C71.7484 26.1941 69.7943 23.4603 58.5085 10.2886C54.1985 5.25831 50.5952 1.34723 49.8734 0.915313C48.2412 -0.0612345 45.182 -0.279476 42.2652 0.372315ZM114.566 0.805214C109.032 2.81108 91.5965 13.3365 83.6392 19.4743C79.4498 22.7059 78.8672 24.2248 78.8705 31.9127C78.8731 37.9752 79.4257 51.1902 79.8723 55.8717C80.5015 62.4651 81.6235 64.2368 88.08 68.8332C92.9031 72.2664 111.664 84.6573 113.583 85.6769C117.221 87.6098 119.288 87.1414 126.791 82.6831C140.715 74.4094 152.797 65.4176 154.517 62.0476C155.705 59.7202 155.918 56.6733 155.935 41.7218C155.952 26.1537 155.828 24.7463 154.224 22.3603C153.734 21.6309 152.354 20.2984 151.158 19.3984C146.711 16.0531 126.166 3.39512 121.752 1.28176C119.096 0.00977516 117.121 -0.12117 114.566 0.805214ZM33.2598 6.07622C35.8192 7.89707 32.4526 10.7121 28.9644 9.66775C26.7313 8.99935 26.4256 6.96222 28.4102 5.9759C29.947 5.21173 32.1077 5.25668 33.2598 6.07622ZM120.612 6.02997C122.845 6.87785 124.385 8.1101 124.864 9.4316C125.168 10.273 125.665 10.7257 127.003 11.3818C128.905 12.3134 129.086 12.7296 128.09 13.8772L127.433 14.6339L128.334 15.228C128.83 15.5544 129.408 15.8228 129.619 15.8238C130.337 15.828 131.359 17.4844 131.152 18.3085C131.035 18.7756 131.102 19.0834 131.319 19.0834C131.988 19.0834 131.688 20.5915 130.866 21.3635C130.417 21.7844 130.051 22.3502 130.051 22.6208C130.051 23.3313 128.739 24.6208 128.016 24.6208C127.281 24.6208 126.139 25.1892 126.139 25.5544C126.139 25.6971 126.512 26.0134 126.968 26.2573C128.071 26.8472 127.903 27.8443 126.559 28.6873C125.619 29.2769 125.51 29.5049 125.499 30.9225C125.484 32.8746 124.816 34.0482 123.082 35.1717C121.266 36.3479 119.56 36.7847 116.848 36.7681C110.519 36.729 106.456 32.2205 109.563 28.6847C110.962 27.0932 112.748 26.2495 115.332 25.9603C116.939 25.7805 117.916 25.4498 119.112 24.6808C120.924 23.515 121.959 23.3977 123.53 24.1808C124.764 24.7958 125.585 24.4974 125.753 23.3726C125.81 22.9912 126.213 22.399 126.649 22.056C127.086 21.713 127.443 21.3293 127.443 21.2029C127.443 21.0765 127.674 20.4863 127.957 19.8906C128.444 18.8655 128.435 18.772 127.794 18.1313C127.134 17.472 126.984 17.0665 127.092 16.2332C127.164 15.6765 125.794 15.7371 125.017 16.3251C124.186 16.9528 122.82 16.9309 121.32 16.2658C120.423 15.8687 119.317 15.7482 117.075 15.8039C113.39 15.8954 111.317 15.2583 109.469 13.4664C108.41 12.4391 108.209 12.0306 108.209 10.9091C108.209 10.0827 108.465 9.21499 108.882 8.62997C109.648 7.5544 112.002 6.07948 113.533 5.71499C115.564 5.2316 118.901 5.38013 120.612 6.02997ZM113.207 7.70358C111.596 8.50065 110.648 10.1303 111.103 11.3199C112.018 13.713 116.218 14.8717 119.691 13.6893C121.429 13.0974 122.144 12.4111 122.411 11.0765C123.016 8.05342 116.976 5.83974 113.207 7.70358ZM37.7642 10.216C38.9374 11.0879 42.6255 15.9743 42.8824 16.9971C43.1748 18.1612 42.1802 19.0788 40.2304 19.4427C38.78 19.7134 37.8268 20.414 37.803 21.227C37.7971 21.4221 40.0683 22.0456 42.8905 22.6241C45.6944 23.1987 48.2604 23.8143 48.5929 23.9922C48.9254 24.17 50.2327 25.6537 51.4979 27.2892C54.0606 30.6026 54.2959 31.5567 52.591 31.7228C51.6619 31.813 51.3965 31.584 49.3835 28.9541C48.1763 27.3769 46.9952 25.9769 46.7585 25.8427C45.979 25.4013 37.328 23.57 36.1625 23.5997C35.535 23.616 33.7945 23.6717 32.2949 23.7238L29.5679 23.8186L28.7865 25.3547C28.3568 26.1993 27.6608 27.1163 27.2399 27.3919C26.4673 27.8974 25.4045 27.7603 25.4045 27.155C25.4045 26.9749 26.138 25.5274 27.0345 23.9381C28.7591 20.8814 29.0671 20.0401 27.9868 21.3365L27.3309 22.1238L25.3084 21.0531C22.0187 19.3117 21.2112 18.7596 21.0048 18.1104C20.6932 17.129 21.5388 16.1622 23.1118 15.702C24.7718 15.216 26.3636 15.457 28.6075 16.5339C30.1579 17.2782 30.3288 17.2029 31.0463 15.458C31.4962 14.3638 31.4906 14.2866 30.9723 14.4222C30.6642 14.5026 30.2068 14.3215 29.9565 14.0199C29.5561 13.5381 29.6041 13.3824 30.3496 12.7417C30.8165 12.3404 31.3025 11.684 31.43 11.2834C31.9927 9.51205 35.9255 8.84951 37.7642 10.216ZM21.4198 12.4244C22.3033 13.0427 22.3851 14.5401 21.574 15.2407C19.4117 17.1094 14.9725 16.4241 14.9725 14.2218C14.9725 12.856 16.552 11.93 18.8933 11.9228C20.0047 11.9192 20.9732 12.1117 21.4198 12.4244ZM126.093 12.6088C125.725 12.8463 125.732 12.9495 126.139 13.2199C126.734 13.616 127.508 13.514 127.673 13.0173C127.832 12.541 126.666 12.2394 126.093 12.6088ZM33.3756 15.9971C32.8703 17.157 32.3369 18.1062 32.1905 18.1062C31.4955 18.1062 32.0363 18.6987 32.8866 18.8684C33.8652 19.0642 35.8365 18.5674 35.8365 18.1251C35.8365 17.9912 35.4701 17.456 35.0219 16.9355C34.1439 15.9153 33.9985 15.187 34.5609 14.6251C34.778 14.4081 34.795 14.1967 34.6052 14.0795C34.4344 13.9739 33.8812 14.8368 33.3756 15.9971ZM122.553 15.6251C122.553 16.1616 123.616 16.5016 124.188 16.1482C124.41 16.0111 124.491 15.7358 124.368 15.5368C124.044 15.0121 122.553 15.085 122.553 15.6251ZM128.208 16.6524C128.102 16.928 128.276 17.441 128.595 17.7925C129.249 18.5156 129.37 18.5427 130.042 18.1182C130.447 17.8622 130.4 17.6844 129.74 16.9834C128.841 16.0261 128.478 15.9479 128.208 16.6524ZM129.076 19.8935C128.588 20.4808 128.867 21.3635 129.54 21.3635C130.11 21.3635 130.823 20.1928 130.535 19.728C130.245 19.2593 129.536 19.3394 129.076 19.8935ZM36.3539 20.1625C35.8965 20.4967 35.8417 20.6769 36.1417 20.8619C36.6127 21.1528 37.2696 20.6107 37.092 20.0779C37.0072 19.8238 36.7823 19.8495 36.3539 20.1625ZM127.48 22.5466C126.63 23.141 126.579 23.9694 127.392 23.9694C127.938 23.9694 129.073 23.0414 129.073 22.5941C129.073 22.1381 128.105 22.1091 127.48 22.5466ZM120.984 24.8616C121.109 25.5121 121.857 25.7303 122.513 25.3085C123.151 24.898 122.664 24.2951 121.694 24.2951C121.091 24.2951 120.904 24.4446 120.984 24.8616ZM125.161 27.3896C125.161 27.7687 125.398 27.8919 125.986 27.8182C126.439 27.7616 126.811 27.5687 126.811 27.3896C126.811 27.2104 126.439 27.0176 125.986 26.9609C125.398 26.8873 125.161 27.0104 125.161 27.3896ZM114.24 27.9456C112.49 28.5567 111.185 29.7622 110.957 30.9801C110.694 32.3818 111.278 33.3694 113 34.4329C115.531 35.9958 120.844 35.1954 122.368 33.0218C123.134 31.9287 123.023 30.0818 122.14 29.2534C120.476 27.6912 116.739 27.0726 114.24 27.9456ZM68.1105 30.6111C68.1105 30.6808 65.9469 31.4228 63.302 32.2596C60.6572 33.0964 52.737 35.6866 45.7013 38.0156C36.4197 41.0879 32.5729 42.2225 31.6833 42.1489C30.7089 42.0684 33.5343 41.0309 45.4535 37.0919C53.7013 34.3664 61.4764 31.8254 62.7315 31.4456C63.9866 31.0658 65.1602 30.7055 65.3395 30.6453C65.8064 30.4879 68.1105 30.4596 68.1105 30.6111ZM86.6925 34.1951C86.6925 34.2655 86.4725 34.4075 86.2035 34.5107C85.9346 34.6137 85.7145 34.556 85.7145 34.3827C85.7145 34.2091 85.9346 34.0671 86.2035 34.0671C86.4725 34.0671 86.6925 34.1248 86.6925 34.1951ZM88.8021 35.6853C89.3465 36.2866 89.3693 36.4339 88.9615 36.7143C88.5973 36.9645 88.6498 36.9954 89.1854 36.8459C89.7328 36.6928 90.0317 36.887 90.5573 37.7368C90.9455 38.3645 91.1545 39.1104 91.0515 39.5029C90.9537 39.8765 91.0195 40.2726 91.1978 40.3827C91.3908 40.502 91.457 40.2866 91.3615 39.8492C91.2047 39.1322 91.2161 39.1342 91.87 39.9303C92.7473 40.9984 94.6932 44.8593 94.6306 45.4081C94.6036 45.644 94.6691 45.7495 94.7757 45.643C94.8826 45.5365 95.4616 46.4967 96.0627 47.7775C96.6639 49.058 97.0949 50.1661 97.0209 50.2401C96.9469 50.314 96.6997 49.9248 96.4719 49.3746C96.0399 48.3329 95.4078 48.2234 95.2262 49.1593C95.1653 49.4723 95.3286 49.7023 95.6116 49.7023C95.8818 49.7023 96.199 50.0062 96.317 50.3772C96.435 50.7485 96.719 50.9805 96.9478 50.8925C97.2187 50.7889 97.7791 51.687 98.5485 53.4567C99.1998 54.955 99.7325 56.2863 99.7325 56.415C99.7325 56.8655 100.874 59.3505 103.427 64.4596C104.842 67.2909 105.91 69.6971 105.8 69.8065C105.691 69.916 104.46 70.0713 103.064 70.1521C101.172 70.2616 100.435 70.1857 100.164 69.8541C99.964 69.6094 99.1011 67.7234 98.2463 65.6632C97.3915 63.6029 95.887 60.3782 94.9035 58.4971C90.3607 49.8094 89.0032 46.9303 89.3912 46.8033C90.0686 46.5818 90.2326 46.0492 89.8691 45.2521C89.6774 44.8316 89.4593 44.5492 89.3843 44.6241C89.309 44.699 89.4029 45.0502 89.5923 45.4039C89.872 45.9261 89.8244 46.0769 89.3393 46.2036C88.8738 46.3251 88.5892 45.9984 88.05 44.7231C87.398 43.1811 87.3905 43.0622 87.9219 42.659C88.3222 42.355 88.3574 42.228 88.0431 42.2208C87.7706 42.2143 87.6787 42.0078 87.8035 41.6824C87.9574 41.2821 87.8547 41.1945 87.3774 41.3189C86.9344 41.4349 86.6961 41.2821 86.5706 40.8023C86.4725 40.428 86.4598 40.0541 86.5426 39.9717C86.625 39.8892 86.6925 39.9928 86.6925 40.2016C86.6925 40.4107 87.0593 40.5818 87.5075 40.5818C88.0148 40.5818 88.3225 40.7664 88.3225 41.0704C88.3225 41.6814 88.777 41.7006 89.2676 41.1101C89.561 40.757 89.4958 40.6234 88.9612 40.484C88.5276 40.3707 88.3189 40.0915 88.3838 39.7114C88.4536 39.3026 88.2557 39.0834 87.752 39.0117C86.8735 38.8873 86.8082 38.4691 87.589 37.9674C88.1325 37.6186 88.1325 37.6094 87.589 37.7782C87.2242 37.8915 87.0185 37.7831 87.0185 37.4772C87.0185 37.214 87.1284 37.016 87.263 37.0371C87.9026 37.1381 88.1113 36.9583 87.6744 36.6821C87.3175 36.4567 87.0834 36.5658 86.7893 37.0945C86.39 37.8127 86.3897 37.8124 86.3779 36.9824C86.3717 36.5257 86.5426 35.9759 86.7577 35.7609C87.0619 35.457 87.0593 35.37 86.745 35.37C86.4314 35.37 86.435 35.2684 86.7613 34.9163C87.2395 34.3997 87.844 34.6277 88.8021 35.6853ZM87.7031 35.5997C87.9408 35.9945 88.2052 36.2476 88.2909 36.1619C88.3766 36.0762 88.1823 35.7531 87.8593 35.4436C87.2979 34.9065 87.2907 34.9134 87.7031 35.5997ZM86.0405 35.8586C86.0405 36.1274 85.8938 36.3472 85.7145 36.3472C85.5352 36.3472 85.3885 36.1274 85.3885 35.8586C85.3885 35.5899 85.5352 35.37 85.7145 35.37C85.8938 35.37 86.0405 35.5899 86.0405 35.8586ZM86.6811 39.0997C86.702 39.659 86.123 38.8254 85.9007 37.9759L85.6875 37.1616L86.1784 37.9759C86.4483 38.4238 86.6746 38.9296 86.6811 39.0997ZM3.02332 42.8274C3.97948 44.5827 4.49651 47.2098 3.95177 47.5459C3.54166 47.799 2.49911 46.3717 1.9824 44.8492C1.54589 43.5629 1.48036 41.2332 1.88069 41.2332C2.03163 41.2332 2.54573 41.9505 3.02332 42.8274ZM22.7317 43.1407C23.0749 43.3583 23.0782 43.5801 22.748 44.3039C22.3695 45.1345 22.3098 45.157 21.9163 44.6195C21.0365 43.4169 21.5884 42.416 22.7317 43.1407ZM88.8115 43.1876C88.9224 43.3668 89.0775 43.5134 89.1568 43.5134C89.236 43.5134 89.3005 43.3668 89.3005 43.1876C89.3005 43.0085 89.145 42.8619 88.9553 42.8619C88.7656 42.8619 88.7007 43.0085 88.8115 43.1876ZM88.0118 43.3505C88.004 43.8345 88.5859 44.6619 88.7903 44.4573C88.8881 44.3599 88.7538 43.9977 88.4924 43.6524C88.2312 43.3072 88.0148 43.1713 88.0118 43.3505ZM113.132 45.0606C114.74 45.9629 114.939 46.2599 114.453 47.0254C114.256 47.3362 113.757 47.1 112.502 46.102C109.946 44.0684 110.305 43.4743 113.132 45.0606ZM121.248 45.8274C120.442 46.5332 119.514 47.2648 119.187 47.4534C118.664 47.7554 118.605 47.686 118.698 46.8765C118.784 46.1309 119.139 45.7866 120.571 45.0619C121.543 44.57 122.423 44.2524 122.526 44.3557C122.63 44.4593 122.055 45.1215 121.248 45.8274ZM6.72603 47.6062C7.50582 48.8378 7.84551 49.0762 9.24471 49.3762L10.862 49.7228L12.0434 48.3521C12.8956 47.3635 13.3823 47.042 13.7895 47.198C14.5771 47.5 15.6281 50.0316 15.9714 52.4544C16.1305 53.5756 16.3531 54.7342 16.4663 55.0293C16.6042 55.3879 16.5015 55.5655 16.1566 55.5655C15.5861 55.5655 15.5531 55.2622 16.7101 60.6651C17.2209 63.0521 17.6457 64.2316 18.2348 64.8997C20.684 67.6782 22.4637 70.8749 21.5607 70.8749C20.9491 70.8749 17.0237 65.2081 16.8226 64.0345C16.3212 61.1117 14.7195 55.1013 14.4151 54.9997C13.5997 54.7283 13.7748 56.1319 14.9634 59.3941C17.0909 65.2322 17.0628 65.4821 14.4825 63.7081C12.6273 62.4329 11.9146 60.4909 13.6405 61.4137C14.0144 61.6137 14.3205 61.6876 14.3205 61.5778C14.3205 61.0928 11.6128 57.6606 11.0719 57.4606C10.2723 57.1648 6.65496 52.3853 5.48266 50.0762C4.2569 47.6612 4.19985 44.8352 5.39725 45.828C5.6323 46.0231 6.23051 46.8231 6.72603 47.6062ZM17.2757 48.0342C18.08 49.8511 18.4421 52.1404 17.9711 52.4309C17.44 52.759 16.7085 51.8147 15.974 49.8531C14.5054 45.9309 15.6415 44.343 17.2757 48.0342ZM47.2449 47.0948C47.6387 47.4883 47.8408 48.0339 47.758 48.4791C47.6827 48.8831 47.61 49.3124 47.5967 49.4329C47.5833 49.5534 47.121 50.1033 46.5694 50.6544C45.7534 51.47 45.299 51.6567 44.1319 51.6567C42.9652 51.6567 42.5987 51.5062 42.1684 50.8498C41.6726 50.0938 41.683 49.9524 42.3301 48.6166C42.7102 47.8322 43.3485 47.0326 43.7482 46.8397C44.9401 46.2651 46.5306 46.3811 47.2449 47.0948ZM140.903 51.0052C140.809 51.3635 140.676 51.6567 140.607 51.6567C140.539 51.6567 140.483 51.3635 140.483 51.0052C140.483 50.6469 140.616 50.3537 140.778 50.3537C140.941 50.3537 140.997 50.6469 140.903 51.0052ZM10.2595 52.3896C10.3811 52.7928 10.7453 53.7088 11.069 54.4254L11.6574 55.7283L11.6851 54.7182C11.7233 53.3134 11.0915 51.6567 10.5177 51.6567C10.1728 51.6567 10.1005 51.8619 10.2595 52.3896ZM139.854 54.0834C140.02 54.2534 140.154 54.6199 140.152 54.8977C140.147 55.3427 140.109 55.3446 139.831 54.914C139.641 54.6205 139.513 54.5801 139.509 54.8134C139.502 55.4381 140.143 55.6534 140.357 55.0974C140.464 54.8176 140.676 54.5883 140.828 54.5883C140.98 54.5883 140.857 55.0186 140.555 55.5443C140.171 56.2124 139.922 56.384 139.727 56.1143C139.551 55.8704 139.504 55.9863 139.6 56.4287C139.694 56.8616 139.226 58.0863 138.374 59.6358L136.996 62.1423L136.305 61.2156C135.723 60.4362 135.611 60.3883 135.603 60.9143C135.597 61.2586 135.823 61.7951 136.105 62.1062C136.572 62.6212 136.571 62.7642 136.092 63.6886C135.802 64.2479 135.655 64.8502 135.765 65.0274C135.875 65.2042 135.661 65.8404 135.289 66.4404C134.547 67.6401 134.469 67.9433 134.902 67.9433C135.061 67.9433 135.277 67.687 135.382 67.3733C135.488 67.0596 136.18 65.8505 136.92 64.686C138.86 61.6332 139.563 60.1586 139.291 59.7075C139.125 59.4313 139.211 59.4394 139.576 59.7342C140.028 60.1003 140.126 60.0277 140.31 59.1912C140.427 58.6603 140.75 58.1384 141.028 58.0319C141.389 57.8935 141.477 57.9837 141.338 58.3476C141.225 58.6401 141.279 58.772 141.464 58.6576C141.641 58.5482 141.787 58.6694 141.787 58.9274C141.787 59.185 141.114 59.9466 140.291 60.6199C139.177 61.5322 138.907 61.9143 139.232 62.1199C140.028 62.6244 140.774 62.4163 142 61.3472L143.215 60.2886L142.338 61.5857C141.855 62.299 141.461 63.0687 141.461 63.2958C141.461 63.5228 141.349 63.7088 141.212 63.7088C141.075 63.7088 140.818 64.0352 140.641 64.4342C140.444 64.8788 139.657 65.4137 138.608 65.8163C137.667 66.1775 136.897 66.6023 136.897 66.7603C136.897 67.0537 138.171 66.8847 139.342 66.4361C139.702 66.2977 139.432 66.6801 138.737 67.2912C137.794 68.1202 137.198 68.3883 136.351 68.3642C135.534 68.341 135.267 68.4528 135.388 68.7678C135.495 69.0466 135.328 69.186 134.922 69.1554C134.45 69.1199 134.335 68.9388 134.472 68.444C134.63 67.8713 134.564 67.8922 133.99 68.5948C133.184 69.5821 133.171 69.712 133.823 70.3632C134.105 70.6446 134.207 70.8749 134.051 70.8749C133.895 70.8749 133.61 70.7182 133.418 70.5264C133.17 70.2788 132.124 71.4827 129.807 74.6795C128.013 77.1554 126.209 79.4743 125.799 79.8326C125.388 80.1909 125.936 79.3114 127.017 77.8782C130.864 72.7775 134.78 67.0231 134.557 66.8C134.47 66.7127 133.919 67.3085 133.333 68.1234C131.683 70.4192 130.051 71.7876 130.051 70.8749C130.051 70.6958 130.271 70.5492 130.54 70.5492C131.143 70.5492 131.143 70.5156 130.537 69.3648C129.951 68.2524 130.092 67.2863 131.287 64.1974L132.17 61.9173L132.333 63.6756C132.436 64.7958 132.673 65.5163 132.985 65.6609C133.253 65.7857 133.799 66.0557 134.197 66.2606C134.806 66.5743 134.975 66.5339 135.257 66.0072C135.707 65.1664 135.68 64.9987 135.129 65.2101C134.865 65.3111 134.513 65.1046 134.314 64.7326C133.877 63.9173 133.851 61.7544 134.278 61.7544C134.452 61.7544 134.512 61.5401 134.411 61.2778C134.31 61.016 134.476 60.0567 134.778 59.1462C135.23 57.7886 135.411 57.5596 135.786 57.8713C136.292 58.2905 136.337 58.17 136.253 56.6248C136.206 55.7827 136.3 55.6072 136.709 55.7638C137.05 55.8948 137.223 55.7785 137.223 55.4182C137.223 55.1199 137.369 54.9661 137.549 55.0769C137.728 55.1876 137.875 55.1316 137.875 54.9524C137.875 54.7733 137.726 54.5345 137.543 54.4221C137.361 54.3094 137.301 54.0739 137.409 53.898C137.52 53.7186 137.861 53.871 138.187 54.2463C138.925 55.0967 139.282 55.1006 139.013 54.2554C138.898 53.8928 138.922 53.1234 139.066 52.5453L139.328 51.4938L139.44 52.6339C139.501 53.2609 139.687 53.9134 139.854 54.0834ZM140.705 52.6951C140.601 52.9547 140.524 52.8775 140.508 52.498C140.494 52.1547 140.571 51.9625 140.679 52.0707C140.788 52.1788 140.799 52.4599 140.705 52.6951ZM44.7983 53.2818C45.2918 53.8267 45.3561 54.3065 45.2012 56.2948C45.1001 57.5958 44.9166 58.9163 44.793 59.23C44.5945 59.7345 44.7944 59.8 46.5365 59.8C47.8865 59.8 48.664 59.9599 49.0138 60.3094C49.3104 60.6059 49.6948 60.7117 49.9334 60.5629C50.159 60.4221 50.5636 60.2733 50.8325 60.2326C58.071 59.13 58.7635 59.2192 58.9157 61.273C58.9995 62.4003 59.2075 62.7068 60.4981 63.6046L61.9843 64.6378L63.6619 64.0547C64.5845 63.7339 65.853 63.2925 66.4805 63.0736C68.6103 62.3309 68.7625 62.313 68.7625 62.8036C68.7625 63.2674 65.2404 65.0638 63.452 65.5124C62.9659 65.6342 62.5685 65.9378 62.5685 66.187C62.5685 66.7114 62.0492 66.7928 61.7535 66.3147C61.6427 66.1355 61.3281 65.9889 61.0539 65.9889C60.7801 65.9889 59.8953 65.5147 59.0875 64.9352C57.511 63.8039 57.4376 63.8215 56.4244 65.5756C56.2969 65.7961 55.7202 66.0707 55.1426 66.1863C54.2457 66.3655 54.0925 66.3029 54.0925 65.7583C54.0925 65.4075 54.0224 65.0502 53.9367 64.9645C53.7326 64.7609 49.4751 65.429 48.9968 65.7401C48.7941 65.8717 48.5254 67.0726 48.4002 68.4091C48.2747 69.7453 48.0006 70.9723 47.7909 71.1362C47.4737 71.3837 38.3865 74.458 37.9715 74.458C37.8988 74.458 37.6087 74.2277 37.3267 73.9463C36.9172 73.5368 36.8145 73.5251 36.8145 73.8876C36.8145 74.4003 31.4603 76.1381 30.7359 75.8606C30.064 75.6029 30.2081 74.8528 31.028 74.3401C31.4313 74.0876 33.4486 73.3332 35.5105 72.6632C37.5725 71.9935 39.3837 71.3322 39.5353 71.1941C39.6869 71.0557 39.8714 70.3778 39.9451 69.6873C40.0188 68.9967 40.1489 67.8065 40.2343 67.042C40.3523 65.9853 40.247 65.5098 39.7945 65.0577C39.4672 64.7306 39.1112 64.1254 39.003 63.7124C38.6962 62.5401 39.4036 55.5694 39.9334 54.5459C40.8621 52.7511 43.6595 52.0244 44.7983 53.2818ZM12.0385 55.5023C12.0385 56.2537 13.5968 59.0029 13.8687 58.7313C14.0848 58.5153 13.0116 55.8251 12.4803 55.2515C12.0979 54.8388 12.0385 54.8723 12.0385 55.5023ZM65.7063 57.7283C66.1069 59.3238 63.1234 61.7472 61.5123 61.1352C60.1633 60.6225 59.867 60.0026 60.3827 58.7697C60.6327 58.172 61.0709 57.4892 61.3561 57.2531C62.7693 56.0821 65.3636 56.3655 65.7063 57.7283ZM138.226 57.7098C138.242 58.0892 138.319 58.1664 138.423 57.9068C138.517 57.6717 138.506 57.3905 138.397 57.2824C138.289 57.1743 138.212 57.3664 138.226 57.7098ZM142.439 58.1713C142.439 58.3505 142.292 58.4971 142.113 58.4971C141.933 58.4971 141.787 58.3505 141.787 58.1713C141.787 57.9922 141.933 57.8456 142.113 57.8456C142.292 57.8456 142.439 57.9922 142.439 58.1713ZM105.764 65.9443C107.128 68.8756 108.186 71.3322 108.115 71.4033C107.988 71.53 104.623 64.6381 103.299 61.5394C101.786 57.9987 103.451 60.9746 105.764 65.9443ZM44.5828 62.3244C44.5521 62.6381 44.5153 63.2609 44.5013 63.7088C44.483 64.2863 44.3145 64.4964 43.922 64.4313C43.6175 64.3808 43.2309 64.6007 43.0626 64.9199C42.7363 65.5394 42.1824 70.8749 42.4445 70.8749C42.9958 70.8749 45.4718 69.8081 45.6798 69.4811C46.1323 68.7694 45.9624 65.9964 45.4157 65.1625C44.9127 64.3954 44.9215 63.572 45.4464 62.3244C45.6172 61.9186 45.5354 61.7544 45.1624 61.7544C44.8742 61.7544 44.6134 62.0107 44.5828 62.3244ZM137.207 63.4147C136.832 64.1485 136.456 64.6801 136.372 64.5958C136.213 64.4375 137.505 62.0801 137.75 62.0801C137.826 62.0801 137.581 62.6808 137.207 63.4147ZM106.713 65.4189C108.266 68.7775 108.582 69.572 108.368 69.572C108.222 69.572 106.708 66.4456 105.567 63.7902C104.432 61.1505 105.326 62.4208 106.713 65.4189ZM139.688 64.2648C139.512 64.729 139.549 64.7664 139.871 64.4472C140.094 64.2261 140.194 63.9632 140.094 63.8632C139.993 63.7629 139.811 63.9436 139.688 64.2648ZM136.742 69.8349C136.642 69.9352 136.379 69.8352 136.157 69.6124C135.838 69.2905 135.875 69.2534 136.34 69.43C136.661 69.5524 136.842 69.7345 136.742 69.8349ZM108.253 74.2967C109.464 77.2169 109.806 79.1248 109.187 79.5068C109.007 79.6176 108.861 79.9925 108.861 80.3404C108.861 81.5834 107.661 80.9651 104.991 78.3456C104.014 77.387 101.037 72.4179 101.037 71.7456C101.037 71.5818 105.14 71.2853 106.564 71.3466C106.846 71.3586 107.53 72.5537 108.253 74.2967ZM125.161 80.77C125.161 80.8375 124.904 81.0941 124.59 81.3401C124.073 81.7449 124.062 81.7335 124.467 81.2169C124.893 80.6743 125.161 80.5019 125.161 80.77Z" fill="black"/>
</svg>
