<svg width="29" height="78" viewBox="0 0 29 78" fill="none" xmlns="http://www.w3.org/2000/svg">
<path fill-rule="evenodd" clip-rule="evenodd" d="M4.4781 0.609146C3.08181 0.967187 1.4369 1.75581 0.823209 2.36204C-0.226367 3.39886 -0.239482 3.517 0.597136 4.34396C1.43375 5.17041 1.68343 5.1559 4.77655 4.09992C6.58617 3.48228 9.30531 2.82423 10.8201 2.6377L13.5739 2.29883L13.5818 4.5678C13.5944 8.08345 14.4367 8.76067 14.8758 5.60825C15.2749 2.74133 15.7979 2.43251 18.5228 3.45586C19.7208 3.90613 19.8682 4.24707 19.8682 6.56475V9.16845H17.0174C15.4496 9.16845 13.5372 9.40473 12.7677 9.69385C11.3819 10.2146 11.3704 10.2602 11.5534 14.6163L11.7381 19.0133H10.3266C9.55026 19.0133 8.80544 19.1884 8.67168 19.4019C8.53793 19.6154 11.2686 19.7066 14.7394 19.6045C19.2682 19.4708 20.9482 19.5807 20.6901 19.9931C20.4924 20.3097 20.8836 19.9931 19.1679 19.9931C14.6853 19.9931 8.46601 18.9053 8.27917 21.089C7.88666 25.6764 7.74852 31.2085 7.74852 30.4126C8.14103 27.0588 11.461 23.4767 26.8439 28.0422C27.8274 28.4945 26.9372 74.3283 25.862 75.4522C25.0563 76.2941 25.638 75.4522 21.8019 76.0073L25.7792 75.2114L26.6357 66.1536C26.5901 61.2447 27.0815 40.1869 26.8439 30.64C28.3674 25.0686 8.04959 24.1549 7.74852 30.4126C7.56336 34.2598 7.53871 45.9959 7.69397 56.4931C8.02022 78.5781 7.38817 76.5237 14.1813 77.5828C18.9498 78.3263 24.1153 78.0569 26.7578 76.9273L28.664 76.1123L28.5937 48.4198C28.537 26.2591 28.3839 20.5615 27.8274 19.8988C27.445 19.4439 26.2884 18.9998 25.2577 18.9128L23.3841 18.7542L23.4943 13.9214C23.5971 9.42908 23.5283 9.06845 22.5234 8.80886C21.5818 8.56584 21.4418 8.1249 21.4418 5.40876C21.4418 3.10403 21.6684 2.1237 22.3088 1.66151C22.7856 1.31694 23.0348 0.810189 22.8627 0.53557C22.3906 -0.219373 7.47681 -0.159269 4.4781 0.609146ZM16.4126 72.8267C16.5653 73.0707 17.9364 73.4252 19.4596 73.6138C20.9823 73.8024 22.996 74.0951 23.9333 74.2646C25.2362 74.5003 25.638 74.39 25.638 73.7972C25.638 73.3708 25.1066 72.8811 24.4578 72.7091C22.645 72.2293 16.0984 72.3251 16.4126 72.8267Z" fill="black"/>
</svg>
