<svg width="28" height="28" viewBox="0 0 28 28" fill="none" xmlns="http://www.w3.org/2000/svg">
<path d="M6.18967 0.535778L6.18935 0.535831C3.51279 0.990521 1.29815 3.32476 0.646788 6.55494L0.156654 6.45611L0.646788 6.55495C0.48305 7.36693 0.453314 8.59586 0.572562 9.27322C1.03479 11.8985 3.19608 15.4083 7.44408 20.2111C8.64376 21.5675 12.6765 25.6861 13.8511 26.7553L13.8511 26.7553L14.1596 27.0361L14.9621 26.2065L15.3215 26.5542L14.9621 26.2065C19.1209 21.9076 22.9872 17.092 25.1064 13.5853C25.6669 12.6578 26.4026 11.119 26.6653 10.3357C26.7823 9.98656 26.8271 9.83723 26.8513 9.64516C26.8775 9.43655 26.8801 9.17083 26.8786 8.59297C26.876 7.60076 26.8498 7.37023 26.6911 6.73343C25.9854 3.90139 24.1824 1.90849 21.8032 1.21331C21.4836 1.11992 20.9488 1.0612 20.3802 1.05606C19.8109 1.05092 19.2801 1.10015 18.9677 1.18701M6.18967 0.535778L13.0712 5.03422M6.18967 0.535778C6.18936 0.53583 6.18976 0.535785 6.19095 0.535652C6.19689 0.534989 6.2224 0.532141 6.27603 0.528426C6.33311 0.524472 6.40716 0.520478 6.49373 0.51675C6.66656 0.509306 6.88155 0.503248 7.09573 0.500453L6.18967 0.535778ZM18.9677 1.18701L18.8338 0.705285L18.9677 1.18701ZM18.9677 1.18701C17.5339 1.58579 16.187 2.53968 15.3125 3.78032C15.18 3.96841 14.9531 4.35838 14.7407 4.75596C14.5211 5.1671 14.3593 5.50824 14.327 5.6135C14.3103 5.66827 14.2567 5.81167 14.0983 5.9052C13.9157 6.01307 13.7363 5.97487 13.6429 5.93567C13.5585 5.90022 13.5034 5.85035 13.4807 5.82859C13.4529 5.80197 13.4319 5.77646 13.4181 5.75868C13.3694 5.69555 13.3278 5.61849 13.2979 5.55955C13.2307 5.4274 13.1507 5.24166 13.0712 5.03422M13.0712 5.03422C11.9931 2.22223 9.60522 0.467763 7.09574 0.500453L13.0712 5.03422Z" stroke="black"/>
</svg>
