<svg xmlns="http://www.w3.org/2000/svg" xmlns:xlink="http://www.w3.org/1999/xlink" version="1.1" x="0px" y="0px" viewBox="0 0 100 125" style="enable-background:new 0 0 100 100;" xml:space="preserve"><path d="M81.648,84.981c-0.542-1.242-1.177-2.448-1.648-3.716c-1.77-4.762-4.509-8.898-7.898-12.653  c-1.621-1.796-3.263-3.611-4.607-5.611c-1.428-2.126-2.501-4.49-3.762-6.732c-0.262-0.467-0.342-0.778,0.093-1.202  c1.542-1.505,1.839-3.306,1.206-5.33c-0.099-0.318-0.071-0.786,0.098-1.061c1.534-2.495,0.925-5.511-1.491-7.166  c-0.282-0.194-0.566-0.387-0.828-0.567c1.498-3.831,0.511-5.797-3.626-7.401c0.116-3.106-0.509-4.011-3.641-5.236  c0.117-2.986-1.587-4.563-4.263-5.317c0.26-2.229-1.006-3.539-3.405-4.238c-0.018-0.39-0.002-0.786-0.059-1.17  c-0.384-2.583-3.096-4.001-5.2-2.731c-2.188,1.321-2.158,4.82,0.039,6.169c0.295,0.182,0.728,0.49,0.731,0.744  c0.027,2.53,1.283,4.142,3.601,5.001c-0.167,2.537,0.874,4.246,3.414,5.026c-0.497,2.893,0.655,4.723,3.304,5.528  c-0.139,0.857-0.259,1.604-0.413,2.555c-0.288-0.442-0.455-0.709-0.633-0.969c-1.637-2.387-3.262-4.781-4.916-7.155  c-2.184-3.135-4.576-6.143-6.542-9.409c-2.308-3.834-4.62-7.645-7.42-11.142c-1.619-2.022-3.412-3.845-5.762-5.039  c-2.765-1.405-6.206-0.724-8.157,1.659c-1.719,2.099-2.098,4.512-1.444,7.074c0.863,3.381,2.459,6.378,4.88,8.934  c0.515,0.543,0.885,1.279,1.155,1.989c0.695,1.83,1.427,3.588,3.292,4.584c0.302,0.161,0.492,0.584,0.664,0.922  c1.313,2.578,2.519,5.215,3.937,7.733c1.169,2.076,2.582,4.016,3.956,6.121c-0.422,0.131-0.741,0.23-1.083,0.336  c-0.288-0.663-0.496-1.274-0.805-1.829c-0.714-1.281-1.623-2.376-3.164-2.674c-0.935-0.18-1.465,0.233-1.344,1.132  c0.319,2.364,0.432,4.796,1.701,6.919c0.448,0.75,0.303,1.386-0.132,2.255c-1.433-2.365-2.267-4.755-2.357-7.683  c0.146,0.171,0.291,0.342,0.437,0.513c-0.312-0.974-0.526-2.006-1.728-1.74c-1.201,0.266-0.943,1.285-0.838,2.109  c0.318,2.506,1.304,4.739,2.899,6.699c1.101,1.352,2.112,2.705,2.642,4.453c0.392,1.294,1.217,2.512,2.06,3.601  c1.515,1.959,3.394,3.498,5.559,4.79c1.422,0.848,2.585,2.07,4.408,1.964c0.125-0.007,0.25,0.143,0.386,0.175  c0.882,0.209,1.773,0.385,2.65,0.613c1.086,0.282,2.514,0.276,3.168,0.978c1.313,1.411,2.354,3.141,3.222,4.881  c0.919,1.844,1.424,3.89,2.254,5.784c2.464,5.62,6.38,10.206,10.511,14.646c1.25,1.343,2.637,1.701,4.345,1.345  c4.406-0.918,7.653-3.53,10.295-7.021C81.95,86.68,82.021,85.835,81.648,84.981z M62.667,54.407  c-1.651-2.755-3.237-5.401-4.833-8.064c1.67-0.437,3.782,0.591,4.997,2.384C64.072,50.559,64.051,52.566,62.667,54.407z   M51.426,33.797c-0.473-1.136-0.095-2.252,1.128-3.361c-1.598,0.111-2.941-0.141-3.988-1.297c-1.124-1.242-0.871-2.532-0.116-4.015  c-1.511,0.426-2.584-0.063-3.487-1.039c-0.987-1.067-1-2.208-0.194-3.387c-2.379-0.722-3.386-1.883-3.065-3.472  c0.248-1.236,1.613-2.145,2.926-1.948c1.527,0.228,2.154,1.594,2.044,4.453c3.243,0.433,3.864,1.277,2.992,4.324  c1.578-0.353,2.955-0.148,3.918,1.239c0.881,1.269,1.177,2.588,0.319,4.255c1.704-0.634,2.849-0.15,3.527,1.331  c0.62,1.356,0.443,2.64-0.552,4.082c1.821-0.832,3.253-0.457,4.327,0.893c1.113,1.4,1.086,2.96,0.293,4.465  c-0.988,0.227-1.963,0.451-2.939,0.675c1.73-0.351,3.588,0.363,4.792,2.015c1.378,1.892,1.55,3.29,0.518,4.78  c-0.278-0.202-0.558-0.397-0.83-0.603c-1.362-1.034-2.888-1.652-4.596-1.357c-0.969,0.167-1.23-0.412-1.655-0.987  c-0.452-0.611-0.444-1.18-0.03-1.771c0.299-0.428,0.623-0.839,0.965-1.296c-2.604,0.201-3.745-2.651-2.331-5.728  C53.526,36.239,52.151,35.538,51.426,33.797z M80.459,85.105c-0.397,0.865-0.735,1.811-1.341,2.515  c-2.043,2.37-4.608,4.043-7.546,5.111c-0.993,0.361-2.026,0.645-3.065,0.819c-0.348,0.058-0.923-0.232-1.138-0.541  c-2.022-2.904-3.979-5.853-5.975-8.775c-2.315-3.39-3.938-7.109-5.452-10.907c-0.731-1.834-1.89-3.497-2.864-5.233  c-0.187-0.334-0.416-0.645-0.617-0.953c2.63-2.418,3.188-4.728,1.811-6.322c-0.228,0.747-0.511,1.651-0.782,2.559  c-0.662,2.221-2.069,2.921-4.268,2.185c-0.485-0.163-1.062-0.243-1.556-0.148c-1.021,0.198-1.804-0.134-2.557-0.767  c-0.28-0.235-0.712-0.521-1.009-0.461c-1.052,0.213-1.781-0.249-2.507-0.889c-0.315-0.278-0.723-0.456-1.099-0.659  c-3.726-2.013-6.095-5.099-7.2-9.161c-0.18-0.663-0.175-1.375-0.279-2.262c0.812,0.487,1.408,0.844,2.003,1.201  c-2.318-3.151-4.228-6.409-4.074-10.684c1.501,0.801,2.148,2.12,2.663,3.494c0.52,1.39,1.069,3.188,1.523,4.603  c0.103-0.005,0.266-1.32,0.399-1.766c0.135-0.452,0.269-1.103,0.59-1.245c0.317-0.141,0.979,0.127,1.295,0.424  c0.881,0.827,1.734,1.707,2.464,2.668c1.158,1.525,2.492,2.394,4.532,2.303c2.36-0.106,4.486,0.748,6.274,2.347  c0.303,0.271,0.635,0.509,1.013,0.68c-1.405-2.402-3.373-4.092-6.24-4.182c-2.138-0.068-3.469-0.908-4.625-2.727  c-2.354-3.706-5.065-7.185-7.463-10.865c-1.438-2.207-2.552-4.625-3.835-6.935c-0.31-0.558-0.694-1.078-1.076-1.592  c-0.779-1.05-1.658-2.034-2.355-3.134c-1.719-2.711-3.416-5.44-5.012-8.224c-1.298-2.265-1.789-4.727-1.291-7.344  c0.533-2.801,3.09-4.454,5.839-3.691c2.656,0.737,4.82,2.327,6.328,4.547c2.504,3.688,4.872,7.48,7.097,11.343  c2.187,3.798,4.707,7.333,7.454,10.731c1.459,1.806,2.922,3.625,4.198,5.56c4.228,6.412,8.395,12.865,12.539,19.332  c2.082,3.249,3.971,6.625,6.12,9.827c1.787,2.664,3.915,5.099,5.726,7.749c1.368,2.001,2.496,4.169,3.673,6.295  c0.163,0.294,0.151,0.882-0.04,1.146c-1.432,1.983-2.929,3.918-4.29,5.714c2.246-0.731,4.146-2.395,5.876-4.755  C80.398,84.569,80.555,84.895,80.459,85.105z"/><path d="M66.166,84.449c-1.171-2.6-2.234-5.249-3.392-7.855c-0.761-1.712-1.7-3.315-3.449-4.234c-0.893-0.469-1.819-0.693-2.94-0.35  c3.903,1.985,3.613,3.014,5.165,6.528c0.82,1.86,1.454,3.814,2.419,5.591c0.549,1.01,1.478,1.928,2.447,2.567  c1.198,0.79,1.365,1.577,0.216,2.477c-0.234,0.183-0.455,0.811-0.358,0.906c0.266,0.263,0.886,0.586,1.039,0.466  c0.457-0.357,1.072-0.93,1.05-1.391c-0.04-0.835-0.422-1.687-0.801-2.464C67.178,85.903,66.524,85.244,66.166,84.449z"/><path d="M45.918,37.323c1.41,2.177,1.354,2.437-1.002,4.414c0.546,0.682,1.238,0.794,1.985,0.498  c0.974-0.387,1.401-1.176,1.364-2.205C48.225,38.886,47.199,37.72,45.918,37.323z"/><path d="M39.34,39.417c1.428,1.946,1.313,2.992-0.613,3.983c0.605,0.326,1.057,0.751,1.524,0.767  c0.392,0.014,0.95-0.356,1.173-0.718C42.232,42.14,41.025,39.735,39.34,39.417z"/><path d="M40.694,34.694c0.506-1.489-0.22-2.92-1.88-3.376c1.124,1.583,1.092,2.962-0.259,4.213  C39.678,36.014,40.341,35.732,40.694,34.694z"/><path d="M28.389,19.671c2.104-1.326,3.372-3.242,3.988-5.598C30.991,15.912,29.273,17.504,28.389,19.671z"/><path d="M58.814,75.541c-0.683-0.063-1.069,0.278-0.906,0.9c2.038,0.128,1.663,2.05,2.502,3.168c0.816-0.815,0.614-1.62,0.295-2.369  C60.348,76.406,59.824,75.634,58.814,75.541z"/><path d="M30.383,24.493c0.046,0.032,1.647-1.135,2.887-2.793c1.24-1.658,1.397-2.699,1.768-3.624  C34.951,18.026,31.733,22.564,30.383,24.493z"/><path d="M53.948,56.937c0.542,1.917,1.097,3.885,1.687,5.976C56.5,61.052,55.659,58.36,53.948,56.937z"/><path d="M44.851,56.334c1.222,1.733,1.383,3.576,1.059,5.81C47.251,60.337,46.665,57.55,44.851,56.334z"/><path d="M49.584,63.62c0.379-1.691-0.055-3.176-1.157-4.787C48.858,60.614,49.221,62.117,49.584,63.62z"/><text x="0" y="115" fill="#000000" font-size="5px" font-weight="bold" font-family="'Helvetica Neue', Helvetica, Arial-Unicode, Arial, Sans-serif">Created by sobinsergey</text><text x="0" y="120" fill="#000000" font-size="5px" font-weight="bold" font-family="'Helvetica Neue', Helvetica, Arial-Unicode, Arial, Sans-serif">from the Noun Project</text></svg>