<svg width="57" height="39" viewBox="0 0 57 39" fill="none" xmlns="http://www.w3.org/2000/svg">
<path fill-rule="evenodd" clip-rule="evenodd" d="M0.349314 0.577015C-0.413753 1.49482 0.0808214 4.63419 1.75973 9.52862C3.02396 13.2147 3.13021 13.8254 2.63728 14.576C1.68025 16.0343 0.767293 19.7256 0.771411 22.1202C0.774294 23.6677 1.24086 25.7384 2.21271 28.5149C3.78909 33.0188 3.97151 34.9699 3.02684 37.2269C2.37496 38.7842 2.41902 39.3892 3.1195 38.4961C3.74338 37.7012 4.4735 35.314 4.4735 34.0706C4.4735 33.4615 3.80679 31.0385 2.99225 28.6859C1.65431 24.8231 1.52871 24.0902 1.69426 21.1206C1.85815 18.1785 2.90248 14.7334 3.62313 14.7576C3.7512 14.7621 4.56492 15.9759 5.43176 17.4551C7.50847 20.9994 11.7097 25.3969 14.4354 26.879C17.4675 28.528 22.428 28.8014 26.2034 27.5268C28.6849 26.6895 28.8356 26.6834 30.1155 27.3685C31.1306 27.9123 32.4727 28.0845 35.7704 28.0948C39.4832 28.1059 40.3698 27.9727 42.0425 27.1503C45.6799 25.3624 50.3905 20.276 52.4882 15.8723C52.8939 15.0207 53.4214 14.3885 53.6606 14.4683C54.6374 14.793 55.6752 18.6463 55.6739 21.9427C55.6723 24.6373 55.4371 25.8478 54.3689 28.6497C53.533 30.8441 53.066 32.8096 53.066 34.1364C53.066 36.1759 54.0498 39 54.7601 39C55.2914 39 55.2082 38.4796 54.5205 37.4994C53.3991 35.9013 53.3291 33.6362 54.3187 30.9781C54.8223 29.6255 55.6027 27.1376 56.0532 25.4491C56.7739 22.7474 56.8138 22.0578 56.3868 19.6948C56.1199 18.2184 55.4664 16.1136 54.9339 15.017C54.0259 13.1472 54.0041 12.9323 54.581 11.5541C56.4362 7.12333 57.4719 2.08012 56.7887 0.805953C56.1607 -0.365043 55.1365 -0.263521 53.1603 1.16519C50.8723 2.81954 48.1474 3.5117 41.0933 4.23098C35.0205 4.84998 31.3826 5.82245 29.525 7.32432C28.6231 8.05306 28.5614 8.04731 27.1403 7.11141C24.723 5.51912 22.26 4.87341 16.2098 4.24537C8.20483 3.4147 6.52097 3.01149 4.21036 1.37152C2.01464 -0.186249 1.13462 -0.367509 0.349314 0.577015ZM7.49118 5.28525C8.58492 5.52734 12.1676 6.007 15.4533 6.35144C22.2946 7.06867 25.113 7.95359 27.1118 10.012L28.5 11.4415L29.8565 10.0477C31.8632 7.98524 34.8352 7.06661 41.8745 6.3313C48.4695 5.64284 51.7647 4.86807 53.5807 3.57829C54.6782 2.79899 54.7132 2.79817 54.7132 3.54705C54.7132 3.97246 54.184 5.88082 53.5367 7.78795C50.3271 17.2509 45.2467 23.8132 39.6586 25.7134C36.2979 26.8564 30.8246 25.974 29.2071 24.0282C28.7323 23.4573 28.5428 23.4988 27.4549 24.4125C25.8369 25.7713 24.6678 26.0549 20.7396 26.0418C18.0868 26.0327 17.0845 25.8412 15.5921 25.0582C12.9339 23.6636 9.08814 19.5415 6.98343 15.8316C5.12291 12.5521 2.42479 5.41102 2.4182 3.74927L2.4145 2.81872L3.95875 3.83188C4.80829 4.38923 6.39785 5.04357 7.49118 5.28525ZM7.35611 10.0572C7.35611 10.7831 8.24271 10.6569 8.49721 9.89484C8.58698 9.62604 8.36666 9.40655 8.00799 9.40655C7.64972 9.40655 7.35611 9.69961 7.35611 10.0572ZM48.948 10.0231C48.948 10.3622 49.226 10.6396 49.5657 10.6396C49.9054 10.6396 50.1834 10.3622 50.1834 10.0231C50.1834 9.68399 49.9054 9.40655 49.5657 9.40655C49.226 9.40655 48.948 9.68399 48.948 10.0231ZM14.9744 12.1431C12.0202 12.7625 12.2261 12.55 12.9344 14.2443C14.3781 17.6997 18.0131 20.0931 21.8169 20.0931C24.3557 20.0931 25.0635 19.6274 25.0635 17.957C25.0635 14.8957 18.8692 11.3264 14.9744 12.1431ZM37.8524 12.5237C35.1004 13.2677 33.2287 14.6413 32.2968 16.601C31.654 17.9529 31.6478 18.1757 32.2289 19.0602C32.5801 19.5953 33.2889 20.0964 33.804 20.1732C35.5941 20.4412 38.781 19.7067 40.3628 18.6619C42.9732 16.9377 45.2554 13.2241 44.1093 12.5656C43.142 12.01 39.834 11.9878 37.8524 12.5237ZM20.1079 15.2636C21.102 15.772 22.2023 16.6331 22.5528 17.1769L23.1898 18.1658L21.1976 17.9418C19.2209 17.719 16.0533 15.9414 15.6934 14.8526C15.4101 13.9956 18.1235 14.2484 20.1079 15.2636ZM41.286 14.9208C40.8631 16.0211 37.8697 17.7235 35.9857 17.9352C33.8324 18.1777 33.6673 17.8049 35.2556 16.2887C36.6644 14.9442 38.0044 14.3984 39.9786 14.3647C41.1365 14.345 41.4553 14.4806 41.286 14.9208Z" fill="black"/>
</svg>
