<svg xmlns="http://www.w3.org/2000/svg" xmlns:xlink="http://www.w3.org/1999/xlink" version="1.1" x="0px" y="0px" viewBox="0 0 100 125" style="enable-background:new 0 0 100 100;" xml:space="preserve"><path d="M41.491,41.291c-0.428-1.489-0.356-1.802,0.701-3.052c-0.48-1.188-0.461-1.482,0.22-2.925  c-0.549-0.94-0.515-1.919,0.024-2.911c0.112-0.206,0.119-0.518,0.064-0.757c-0.145-0.634-0.136-1.23,0.177-1.815  c0.181-0.337,0.214-0.625-0.147-0.933c-2-1.708-2.657-3.986-2.731-6.516c-0.105-3.572,0.628-6.951,2.24-10.143  c0.806-1.595,1.694-3.129,2.887-4.475c1.485-1.676,3.334-2.555,5.569-2.486c1.395,0.043,2.656,0.575,3.77,1.428  c2.252,1.725,3.762,4.003,4.902,6.561c1.303,2.926,1.834,6.018,1.762,9.186c-0.058,2.559-1.08,5.327-3.363,7.088  c0.128,0.441,0.353,0.882,0.358,1.324c0.004,0.415-0.224,0.833-0.365,1.298c0.891,0.9,1.066,1.952,0.393,3.098  c0.694,1.615,0.708,1.796,0.207,3.01c0.938,0.817,1.254,1.815,0.676,3.014c0.685,0.663,0.838,1.41,0.497,2.29  c-0.096,0.249-0.036,0.58,0.017,0.861c0.92,4.868,1.924,9.722,2.743,14.606c0.367,2.184,0.352,4.43,0.539,6.646  c0.169,2.002-0.033,3.976-0.438,5.927c-0.204,0.982-0.534,1.944-0.873,2.892c-0.396,1.104-1.016,2.085-1.928,2.843  c-0.444,0.369-0.572,0.806-0.47,1.344c0.248,1.307,0.775,2.393,2.05,3.043c1.266,0.646,2.509,1.352,3.695,2.134  c0.577,0.38,1.071,0.942,1.483,1.509c0.895,1.233,0.822,2.55,0.114,3.851c-0.54,0.992-1.351,1.714-2.32,2.281  c-3.074,1.801-6.379,2.891-9.935,3.121c-4.205,0.271-8.377-0.059-12.446-1.169C39.857,93,38.21,92.285,36.569,91.6  c-1.05-0.438-1.915-1.178-2.636-2.073c-0.956-1.187-0.914-2.47-0.31-3.758c0.551-1.175,1.569-1.92,2.662-2.548  c1.003-0.576,2.034-1.104,3.043-1.672c1.314-0.739,1.725-1.986,1.764-3.375c0.01-0.369-0.192-0.832-0.452-1.103  c-0.91-0.95-1.477-2.084-1.885-3.299c-0.86-2.56-1.066-5.198-1.048-7.895c0.037-5.627,1.267-11.071,2.324-16.545  c0.321-1.66,0.679-3.313,1.005-4.973c0.049-0.252,0.069-0.532,0.011-0.778C40.758,42.342,40.759,42.287,41.491,41.291z   M43.768,38.067c-0.552,0.443-1.175,0.73-1.203,1.569c-0.027,0.808,0.745,1.104,0.952,1.793c-0.178,0.121-0.335,0.248-0.51,0.34  c-0.176,0.093-0.671,0.176-0.74,0.673c-0.094,0.68,0.454,0.707,0.415,1.229c-0.039,0.53-0.448,1.022-0.555,1.559  c-1.109,5.552-2.327,11.085-2.851,16.739c-0.274,2.964-0.498,5.915,0.127,8.86c0.478,2.254,1.169,4.416,2.675,6.231  c0.524,0.632,1.019,1.288,1.527,1.933c-0.019,0.041-0.765-0.193-1.115-0.348c-0.033,0.037-0.065,0.056-0.071,0.081  c-0.026,0.116-0.047,0.232-0.064,0.349c-0.214,1.455-0.807,2.667-2.183,3.364c-1.162,0.589-2.33,1.167-3.496,1.748  c-0.828,0.413-1.615,0.879-2.22,1.605c-1.092,1.309-1.002,2.441,0.292,3.541c1.103,0.938,2.362,1.607,3.754,1.969  c1.748,0.455,3.513,0.853,5.283,1.218c3.185,0.658,6.419,0.798,9.658,0.726c2.928-0.065,5.795-0.514,8.5-1.711  c1.253-0.555,2.456-1.197,3.421-2.204c1.226-1.277,1.227-2.439,0.012-3.743c-0.77-0.827-1.774-1.276-2.767-1.745  c-0.751-0.354-1.505-0.701-2.249-1.068c-1.544-0.762-2.493-1.969-2.73-3.7c-0.007-0.051-0.064-0.095-0.11-0.16  c-0.234,0.053-0.477,0.108-0.921,0.209c0.286-0.325,0.438-0.49,0.581-0.662c1.142-1.369,2.228-2.764,2.88-4.461  c1.253-3.261,1.552-6.642,1.215-10.071c-0.304-3.096-0.706-6.188-1.221-9.255c-0.579-3.448-1.34-6.866-2.001-10.301  c-0.057-0.298-0.034-0.656,0.082-0.932c0.283-0.674,0.115-1.202-0.363-1.698c-0.537-0.557-0.531-0.564-0.125-1.224  c0.487-0.793,0.317-1.554-0.463-2.076c-0.187-0.125-0.374-0.25-0.634-0.423c0.208-0.266,0.377-0.46,0.523-0.671  c0.534-0.774,0.321-1.46-0.545-1.797c-0.099-0.039-0.186-0.111-0.221-0.132c0.337-0.604,0.763-1.124,0.922-1.717  c0.181-0.673-0.091-1.286-0.918-1.484c0.174-0.37,0.357-0.676,0.464-1.007c0.233-0.726-0.116-1.18-0.876-1.241  c-0.483-0.039-0.962-0.135-1.443-0.205c0.235-0.285,0.481-0.468,0.63-0.534c2.741-1.424,4.29-3.657,4.293-6.94  c0.002-2.321-0.256-4.621-0.934-6.854c-0.918-3.025-2.268-5.793-4.704-7.925c-2.205-1.929-5.11-1.987-7.255-0.009  c-2.232,2.058-3.661,4.647-4.545,7.529c-0.82,2.674-0.934,5.425-0.747,8.197c0.17,2.53,1.131,4.585,3.488,5.808  c0.32,0.166,0.609,0.395,0.912,0.595c-0.424,0.157-0.782,0.218-1.108,0.142c-0.438-0.102-0.655,0.12-0.724,0.449  c-0.07,0.33-0.035,0.696,0.021,1.036c0.051,0.313,0.191,0.611,0.287,0.901c-1.101,0.644-1.267,1.651-0.477,2.532  c0.19,0.212,0.368,0.434,0.566,0.669C42.815,35.929,42.616,36.239,43.768,38.067z"/><path d="M58.879,70.965c0.44,0.738,0.309,1.283,0.164,1.816c-0.659,2.432-3.313,4.633-5.839,4.81  c-0.792,0.056-1.59,0.009-2.423-0.12c1.502-0.89,3.027-1.744,4.501-2.679C56.756,73.859,57.885,72.546,58.879,70.965z"/><path d="M57.298,23.399c0.139,1.463-0.376,2.762-1.367,3.807c-1.442,1.522-3.23,1.702-5.223,0.948  c0.785-0.427,1.243-0.347,3.624-1.719C56.584,25.139,56.958,23.948,57.298,23.399z"/><path d="M46.097,79.06c3.596,0.579,6.954-0.818,10.417-1.344c0.028,0.054,0.141,0.583-1.673,1.511S48.511,80.346,46.097,79.06z"/><path d="M53.085,86.915c1.124-0.25,2.272-0.409,3.375-0.728c1.127-0.326,2.21-0.8,3.314-1.207c0.106-0.039,0.218-0.064,0.522-0.15  c-0.119,0.35-0.632,1.468-3.201,2.432c-1.245,0.467-2.58,0.568-3.978,0.454c-0.579-0.047-0.945-0.229-1.285-0.341  C51.828,87.299,52.76,86.987,53.085,86.915z"/><path d="M56.908,43.285c-1.636,1.399-6.15,1.802-7.239,0.6c0.336-0.115,0.624-0.23,0.922-0.309c0.168-0.045,0.352-0.033,0.529-0.041  C53.026,43.452,54.932,43.37,56.908,43.285z"/><path d="M55.614,38.034c-1.125,1.031-4.933,1.256-6.294,0.341C51.486,37.738,53.565,38.145,55.614,38.034z"/><path d="M55.574,40.634c-1.282,1.097-4.419,1.39-5.808,0.663c0.11-0.408,0.459-0.406,0.767-0.422  C52.213,40.787,53.894,40.713,55.574,40.634z"/><path d="M54.485,30.384c-1.279,0.854-4.342,1.01-5.391,0.309C50.857,30.001,52.6,30.106,54.485,30.384z"/><path d="M54.815,32.476c-1.707,0.781-3.463,0.962-5.275,0.428C51.242,32.152,53.027,32.299,54.815,32.476z"/><path d="M49.617,35.82c0.672-0.401,3.965-0.607,5.334-0.333C53.948,36.367,50.481,36.584,49.617,35.82z"/><text x="0" y="115" fill="#000000" font-size="5px" font-weight="bold" font-family="'Helvetica Neue', Helvetica, Arial-Unicode, Arial, Sans-serif">Created by sobinsergey</text><text x="0" y="120" fill="#000000" font-size="5px" font-weight="bold" font-family="'Helvetica Neue', Helvetica, Arial-Unicode, Arial, Sans-serif">from the Noun Project</text></svg>